<svg xmlns="http://www.w3.org/2000/svg" width="30" height="30" viewBox="0 0 30 30">
    <defs>
        <linearGradient id="5ppce4r81a" x1="0%" x2="100%" y1="50%" y2="50%">
            <stop offset="0%" stop-color="#1295D4"/>
            <stop offset="20.169%" stop-color="#11A0C4"/>
            <stop offset="100%" stop-color="#0CCE83"/>
        </linearGradient>
    </defs>
    <g fill="none" fill-rule="evenodd">
        <g>
            <g>
                <g>
                    <path fill="url(#5ppce4r81a)" d="M6.25 16.25h14.825l-4.537 5.45c-.442.532-.37 1.32.162 1.763.532.441 1.32.369 1.762-.163l6.25-7.5c.043-.06.08-.122.113-.187 0-.063.062-.1.087-.163.057-.143.087-.296.088-.45-.001-.154-.03-.307-.088-.45 0-.063-.062-.1-.087-.163-.033-.065-.07-.127-.113-.187l-6.25-7.5c-.237-.286-.59-.45-.962-.45-.292 0-.575.101-.8.288-.531.44-.605 1.228-.164 1.76l.002.002 4.537 5.45H6.25C5.56 13.75 5 14.31 5 15s.56 1.25 1.25 1.25z" transform="translate(-1077 -473) translate(975 453) translate(102 20)"/>
                </g>
            </g>
        </g>
    </g>
</svg>
