<svg xmlns="http://www.w3.org/2000/svg" width="30" height="30" viewBox="0 0 30 30">
    <defs>
        <filter id="4fy3lp5kaa">
            <feColorMatrix in="SourceGraphic" values="0 0 0 0 1.000000 0 0 0 0 1.000000 0 0 0 0 1.000000 0 0 0 1.000000 0"/>
        </filter>
    </defs>
    <g fill="none" fill-rule="evenodd">
        <g>
            <g>
                <g>
                    <g filter="url(#4fy3lp5kaa)" transform="translate(-1665 -563) translate(1539 450) translate(21 108) translate(100)">
                        <g>
                            <path fill="#004B93" d="M15 2.5l.308.004C22.07 2.667 27.5 8.199 27.5 15l-.004.308C27.333 22.07 21.801 27.5 15 27.5 8.096 27.5 2.5 21.904 2.5 15S8.096 2.5 15 2.5zM15 5C9.477 5 5 9.477 5 15s4.477 10 10 10l.28-.004C20.673 24.848 25 20.43 25 15l-.004-.28C24.848 9.327 20.43 5 15 5zm4.42 6.616c.488-.488 1.279-.488 1.767 0s.488 1.28 0 1.768l-6.035 6.035c-.489.489-1.28.489-1.768 0l-3.536-3.535c-.488-.488-.488-1.28 0-1.768.489-.488 1.28-.488 1.768 0l2.652 2.652z" transform="translate(5 5)"/>
                        </g>
                    </g>
                </g>
            </g>
        </g>
    </g>
</svg>
