<svg xmlns="http://www.w3.org/2000/svg" width="34" height="34" viewBox="0 0 34 34">
    <g fill="none" fill-rule="evenodd">
        <g>
            <g>
                <g>
                    <g>
                        <path fill="#FFF" d="M25.5 5.667h-1.417V4.25c0-.782-.634-1.417-1.416-1.417-.783 0-1.417.635-1.417 1.417v1.417h-8.5V4.25c0-.782-.634-1.417-1.417-1.417-.782 0-1.416.635-1.416 1.417v1.417H8.5c-2.347 0-4.25 1.902-4.25 4.25v17c0 2.347 1.903 4.25 4.25 4.25h17c2.347 0 4.25-1.903 4.25-4.25v-17c0-2.348-1.903-4.25-4.25-4.25zM23.083 21.25c.553 0 1 .448 1 1v2.25c0 .552-.447 1-1 1H10.917c-.553 0-1-.448-1-1v-2.25c0-.552.447-1 1-1h12.166zm0-7.083c.553 0 1 .447 1 1v2.25c0 .552-.447 1-1 1H10.917c-.553 0-1-.448-1-1v-2.25c0-.553.447-1 1-1h12.166zm2.834 14.166H8.083c-.552 0-1-.447-1-1V9.917c0-.783.635-1.417 1.417-1.417h1.417v1.417c0 .782.634 1.416 1.416 1.416.783 0 1.417-.634 1.417-1.416V8.5h8.5v1.417c0 .782.634 1.416 1.417 1.416.782 0 1.416-.634 1.416-1.416V8.5H25.5c.782 0 1.417.634 1.417 1.417v17.416c0 .553-.448 1-1 1z" transform="translate(-706 -469) translate(158 461) translate(434) translate(114 8)"/>
                    </g>
                </g>
            </g>
        </g>
    </g>
</svg>
