<svg xmlns="http://www.w3.org/2000/svg" width="30" height="30" viewBox="0 0 30 30">
    <g fill="none" fill-rule="evenodd">
        <g>
            <g>
                <g>
                    <g>
                        <path fill="#FFF" d="M6.582 13.727l8.618 8.618c.549.549.549 1.44 0 1.988-.55.55-1.44.55-1.989 0l-8.618-8.617c-.549-.55-.549-1.44 0-1.99.55-.548 1.44-.548 1.989 0zm15.837-8.622c.776 0 1.406.63 1.406 1.406v7.031c0 .777-.63 1.406-1.406 1.406-.777 0-1.407-.63-1.407-1.406V9.914l-6.394 6.394-.008.008c-.551.547-1.442.544-1.997-.016-.547-.551-.543-1.442.008-1.989l6.38-6.394h-3.614c-.776 0-1.406-.63-1.406-1.406 0-.777.63-1.406 1.406-1.406z" transform="translate(-188 -218) translate(158 188) translate(20 20) translate(9 10) rotate(45 14.003 14.925)"/>
                    </g>
                </g>
            </g>
        </g>
    </g>
</svg>
