<svg xmlns="http://www.w3.org/2000/svg" width="30" height="30" viewBox="0 0 30 30">
    <g fill="none" fill-rule="evenodd">
        <g fill="#FFF">
            <g>
                <g>
                    <g>
                        <path d="M17.397 13.577c.551-.547 1.442-.543 1.989.008l.008.009c.547.551.543 1.441-.008 1.988l-6.395 6.395h3.628c.777 0 1.407.63 1.407 1.406 0 .776-.63 1.406-1.407 1.406H9.59c-.778 0-1.407-.63-1.407-1.406v-7.031c0-.777.63-1.407 1.406-1.407l.135.007c.714.068 1.271.669 1.271 1.4v3.614zm1.595-7.829l8.617 8.618c.55.55.55 1.44 0 1.989-.549.549-1.44.549-1.988 0l-8.618-8.618c-.55-.55-.55-1.44 0-1.989.549-.55 1.44-.55 1.989 0z" transform="translate(-536 -218) translate(506 188) translate(20 20) translate(10 10) rotate(45 18.102 15.063)"/>
                    </g>
                </g>
            </g>
        </g>
    </g>
</svg>
