<svg xmlns="http://www.w3.org/2000/svg" width="34" height="34" viewBox="0 0 34 34">
    <g fill="none" fill-rule="evenodd">
        <g>
            <g>
                <g>
                    <path fill="#FFF" d="M14.167 2.833c6.259 0 11.333 5.074 11.333 11.334.003 2.517-.84 4.961-2.394 6.941l7.65 7.636.008.008c.551.556.547 1.453-.008 2.004l-.008.008c-.556.551-1.453.547-2.004-.008l-7.636-7.65c-1.98 1.554-4.424 2.397-6.941 2.394-6.26 0-11.334-5.074-11.334-11.333 0-6.26 5.074-11.334 11.334-11.334zm0 2.834c-4.695 0-8.5 3.805-8.5 8.5l.003.255c.135 4.576 3.888 8.245 8.497 8.245l.255-.004c4.576-.135 8.245-3.887 8.245-8.496 0-4.695-3.806-8.5-8.5-8.5zm0 3.07c.785 0 1.422.637 1.422 1.423l-.01 2.594 2.595-.01h.011c.783.003 1.414.64 1.411 1.423v.011c-.003.783-.64 1.414-1.422 1.411l-2.595-.01.01 2.595v.011c-.003.783-.64 1.414-1.422 1.411h-.012c-.782-.003-1.414-.64-1.41-1.422l.01-2.595-2.595.01h-.012c-.782-.003-1.414-.64-1.41-1.422v-.012c.002-.782.64-1.414 1.422-1.41l2.594.01-.01-2.595.007-.137c.069-.722.676-1.286 1.416-1.286z" transform="translate(-1835 -471) translate(1739 463) translate(96 8)"/>
                </g>
            </g>
        </g>
    </g>
</svg>
