<svg xmlns="http://www.w3.org/2000/svg" xmlns:xlink="http://www.w3.org/1999/xlink" width="30" height="30" viewBox="0 0 30 30">
    <defs>
        <filter id="hopn9dhdra">
            <feColorMatrix in="SourceGraphic" values="0 0 0 0 1.000000 0 0 0 0 1.000000 0 0 0 0 1.000000 0 0 0 1.000000 0"/>
        </filter>
        <path id="kgno050mub" d="M0 0L21.176 0 21.176 9.884 0 9.884z"/>
    </defs>
    <g fill="none" fill-rule="evenodd">
        <g>
            <g>
                <g>
                    <g>
                        <g filter="url(#hopn9dhdra)" transform="translate(-619 -218) translate(589 188) translate(20 20) matrix(-1 0 0 1 40 10)">
                            <g>
                                <path fill="#000" d="M1.176 8.235h10c2.271 0 4.118-1.847 4.118-4.117S13.447 0 11.176 0C9.465 0 7.958 1.03 7.338 2.625c-.236.606.064 1.288.67 1.523.605.235 1.287-.064 1.523-.67.266-.683.912-1.125 1.645-1.125.973 0 1.765.792 1.765 1.765 0 .973-.792 1.764-1.765 1.764h-10C.526 5.882 0 6.41 0 7.06s.527 1.176 1.176 1.176" transform="translate(5 5)"/>
                                <g transform="translate(5 5) translate(0 9.02)">
                                    <mask id="628pd6auic" fill="#fff">
                                        <use xlink:href="#kgno050mub"/>
                                    </mask>
                                    <path fill="#000" d="M16.235 0H1.176C.526 0 0 .527 0 1.176c0 .65.527 1.177 1.176 1.177h15.06c1.426 0 2.587 1.161 2.587 2.588 0 1.407-1.152 2.544-2.623 2.589-1.07.027-1.948-.606-2.35-1.707-.223-.61-.898-.925-1.509-.702-.61.223-.925.898-.702 1.508.727 1.991 2.477 3.255 4.486 3.255.049 0 .098 0 .146-.002 2.75-.084 4.905-2.255 4.905-4.94C21.176 2.215 18.96 0 16.236 0" mask="url(#628pd6auic)"/>
                                </g>
                                <path fill="#000" d="M6.47 11.765H1.177C.526 11.765 0 12.29 0 12.94c0 .65.527 1.177 1.176 1.177h5.295c.973 0 1.764.791 1.764 1.764s-.791 1.765-1.764 1.765c-.66 0-1.26-.363-1.566-.948-.3-.575-1.012-.798-1.588-.496-.575.301-.797 1.012-.496 1.588C3.535 19.154 4.933 20 6.471 20c2.27 0 4.117-1.847 4.117-4.118 0-2.27-1.847-4.117-4.117-4.117" transform="translate(5 5)"/>
                            </g>
                        </g>
                    </g>
                </g>
            </g>
        </g>
    </g>
</svg>
