<svg xmlns="http://www.w3.org/2000/svg" xmlns:xlink="http://www.w3.org/1999/xlink" width="30" height="30" viewBox="0 0 30 30">
    <defs>
        <filter id="guhvz27s3a">
            <feColorMatrix in="SourceGraphic" values="0 0 0 0 1.000000 0 0 0 0 1.000000 0 0 0 0 1.000000 0 0 0 1.000000 0"/>
        </filter>
        <path id="xu7ybn59qb" d="M0 0.312L25 0.312 25 20.283 0 20.283z"/>
    </defs>
    <g fill="none" fill-rule="evenodd">
        <g>
            <g>
                <g>
                    <g>
                        <g filter="url(#guhvz27s3a)" transform="translate(-1233 -218) translate(1203 188) translate(20 20) translate(10 10)">
                            <g>
                                <path fill="#000" d="M12.5 13.679c-.39 0-.708-.318-.708-.708 0-.39.318-.707.708-.707.39 0 .708.317.708.707 0 .39-.318.708-.708.708zm7.417-5.098l-5.37 2.113c-.544-.488-1.26-.789-2.047-.789-1.69 0-3.066 1.376-3.066 3.066s1.375 3.066 3.066 3.066c1.69 0 3.066-1.375 3.066-3.066 0-.187-.02-.37-.052-.548l4.51-3.673-.107-.17z" transform="translate(2.5 2.5)"/>
                                <g transform="translate(2.5 2.5) translate(0 .16)">
                                    <mask id="u8iwl9v4cc" fill="#fff">
                                        <use xlink:href="#xu7ybn59qb"/>
                                    </mask>
                                    <path fill="#000" d="M12.5.312C5.608.312 0 5.919 0 12.812c0 2.485.727 4.886 2.103 6.944.363.541 1.094.686 1.636.325.541-.362.687-1.095.325-1.636-1.116-1.669-1.706-3.617-1.706-5.634 0-5.591 4.55-10.14 10.142-10.14S22.642 7.22 22.642 12.81c0 2.018-.59 3.967-1.708 5.637-.362.542-.216 1.274.325 1.636.201.134.43.2.655.2.38 0 .753-.185.98-.525C24.273 17.7 25 15.298 25 12.811 25 5.92 19.392.311 12.5.311" mask="url(#u8iwl9v4cc)"/>
                                </g>
                            </g>
                        </g>
                    </g>
                </g>
            </g>
        </g>
    </g>
</svg>
