<?xml version="1.0" encoding="UTF-8"?>
<svg width="24px" height="24px" viewBox="0 0 24 24" version="1.1" xmlns="http://www.w3.org/2000/svg" xmlns:xlink="http://www.w3.org/1999/xlink">
    <title>Icon/Left</title>
    <g id="Icon/Left" stroke="none" stroke-width="1" fill="none" fill-rule="evenodd">
        <path d="M14.6648798,7.61914315 L9.54289315,12.7298798 L9.54289315,9.83862982 C9.54289315,9.2173092 9.03921378,8.71362983 8.41789317,8.71362983 L8.41789312,8.71362983 C7.7965725,8.71362986 7.29289313,9.2173092 7.29289313,9.83862982 L7.29289313,15.4636298 C7.29289313,16.0849505 7.7965725,16.5886299 8.41789312,16.5886299 L14.0428931,16.5886299 C14.6642136,16.5886299 15.167893,16.0849505 15.167893,15.4636299 C15.167893,14.8423093 14.6642136,14.3386299 14.042893,14.3386299 L11.140393,14.3386299 L16.2558566,9.22316642 C16.6969938,8.78563137 16.6999143,8.07332638 16.2623796,7.63219139 C16.2602142,7.63000811 16.2580398,7.62783372 16.2558565,7.62566828 C15.8183198,7.18452895 15.1060148,7.18160845 14.6648798,7.61914315 Z" id="Fill" fill="#124A6A" transform="translate(11.940761, 11.940762) rotate(45.000000) translate(-11.940761, -11.940762) "></path>
    </g>
</svg>