<svg xmlns="http://www.w3.org/2000/svg" width="18" height="18" viewBox="0 0 18 18">
    <g fill="none" fill-rule="evenodd">
        <g>
            <g>
                <g>
                    <g>
                        <g>
                            <g>
                                <path fill="#124A6A" d="M12.442 6.314c0-.466-.378-.844-.844-.844H7.379c-.466 0-.844.378-.844.844 0 .465.378.843.844.843h2.169l-3.829 3.837c-.33.328-.333.862-.004 1.193.333.336.867.338 1.198.01l.005-.005 3.836-3.837v2.177c0 .466.378.844.844.844.466 0 .844-.378.844-.844V6.314z" transform="translate(-1173 -757) translate(85 132) translate(0 23) translate(174 60) translate(908 536) translate(6 6) rotate(45 8.956 8.955)"/>
                            </g>
                        </g>
                    </g>
                </g>
            </g>
        </g>
    </g>
</svg>
