<svg width="38" height="38" xmlns="http://www.w3.org/2000/svg"><defs><filter x="-.9%" y="-15.4%" width="101.9%" height="130.8%" filterUnits="objectBoundingBox" id="a"><feOffset dy="2" in="SourceAlpha" result="shadowOffsetOuter1"/><feGaussianBlur stdDeviation="2" in="shadowOffsetOuter1" result="shadowBlurOuter1"/><feColorMatrix values="0 0 0 0 0 0 0 0 0 0 0 0 0 0 0 0 0 0 0.5 0" in="shadowBlurOuter1" result="shadowMatrixOuter1"/><feMerge><feMergeNode in="shadowMatrixOuter1"/><feMergeNode in="SourceGraphic"/></feMerge></filter></defs><g filter="url(#a)" transform="translate(-1201 -23)" fill="#FFF" fill-rule="evenodd"><path d="M1219.188 41.497h1.653c.383 0 .763-.041 1.134-.123.085.534.29 1.04.601 1.489-1.503 1.078-3.646 1.071-5.144-.014.308-.447.51-.95.593-1.48.38.085.77.128 1.163.128zm1.653-1.656h-1.653a3.652 3.652 0 01-3.65-3.647v-2.13h2.14a11.17 11.17 0 006.813-2.32v4.45a3.652 3.652 0 01-3.65 3.647zm5.905 4.931c2.552.56 4.405 2.861 4.405 5.471v3.1l-22.302.002v-3.1c0-2.611 1.853-4.912 4.405-5.471l1.972-.433c.336-.074.659-.195.96-.361a6.067 6.067 0 003.828 1.357 6.066 6.066 0 003.818-1.348c.297.16.612.279.942.35l1.972.433zm-7.558-18.116h1.653a3.675 3.675 0 013.582 2.945 9.439 9.439 0 01-6.745 2.807h-2.14v-2.105a3.653 3.653 0 013.65-3.647zm14.983 26.688h-1.363v-3.1c0-1.65-.57-3.265-1.604-4.55a7.29 7.29 0 00-4.103-2.54l-1.972-.432a1.972 1.972 0 01-1.542-1.913v-.079a5.278 5.278 0 002.485-3.64c.092-.434.077-1.178.076-1.204v-5.583a5.31 5.31 0 00-5.307-5.303h-1.653a5.31 5.31 0 00-5.308 5.303v5.584c0 .035.004.85.075 1.193a5.29 5.29 0 002.457 3.632v.098c0 .913-.648 1.718-1.541 1.914l-1.972.432a7.284 7.284 0 00-4.103 2.54 7.276 7.276 0 00-1.605 4.548v3.101h-1.362a.829.829 0 00-.829.827c0 .457.372.828.829.828h28.342a.829.829 0 100-1.656z"/></g></svg>