<svg xmlns="http://www.w3.org/2000/svg" width="20" height="34"><defs><linearGradient id="a" x1=".04%" x2="100.028%" y1="49.99%" y2="49.99%"><stop offset="0%" stop-color="#8B878D"/><stop offset="13.66%" stop-color="#9F9CA1"/><stop offset="42.07%" stop-color="#D9D8DA"/><stop offset="51.52%" stop-color="#F3F4F4"/><stop offset="100%" stop-color="#807B80"/></linearGradient><linearGradient id="b" x1="50.034%" x2="50.034%" y1="99.984%" y2="-.004%"><stop offset="0%" stop-color="#8B878D"/><stop offset="13.66%" stop-color="#9F9CA1"/><stop offset="42.07%" stop-color="#D9D8DA"/><stop offset="51.52%" stop-color="#F3F4F4"/><stop offset="100%" stop-color="#807B80"/></linearGradient></defs><g fill="none" stroke-width=".5"><path fill="url(#a)" stroke="#636262" d="M18.131.25L1.452.376a.75.75 0 00-.208 1.04L10 14.549 18.881 1a.74.74 0 00-.22-.53.743.743 0 00-.53-.22z"/><path fill="url(#a)" stroke="#636262" d="M18.131 19.25l-16.679.126a.75.75 0 00-.208 1.04L10 33.549 18.881 20a.74.74 0 00-.22-.53.743.743 0 00-.53-.22z" transform="matrix(1 0 0 -1 0 53)"/><circle cx="10" cy="17" r="2" fill="url(#b)" stroke="#7F7F7F"/></g></svg>