<?xml version="1.0" encoding="UTF-8"?>
<svg width="24px" height="24px" viewBox="0 0 24 24" version="1.1" xmlns="http://www.w3.org/2000/svg" xmlns:xlink="http://www.w3.org/1999/xlink">
    <title>Icon/Bell/Bell-Line</title>
    <g id="Icon/Bell/Bell-Line" stroke="none" stroke-width="1" fill="none" fill-rule="evenodd">
        <polygon id="Bounding-Box" opacity="0" fill-rule="nonzero" points="0 0 24 0 24 24 0 24"></polygon>
        <path d="M19.7599091,14.8877562 L18.1398908,13.2587379 L18.1398908,9.24469258 L18.139891,9.24467723 C18.184451,6.16244846 15.9487803,3.51961365 12.9018139,3.05261638 L12.901814,3.05261639 C9.58029957,2.61519616 6.53307219,4.95322183 6.09565826,8.2747363 C6.06155957,8.53366292 6.04421764,8.79452096 6.0437409,9.05568231 L6.0437409,13.2587297 L4.42372263,14.8877481 L4.4237225,14.8877482 C3.85208735,15.4689145 3.85981393,16.4034463 4.44097974,16.9750788 C4.71501213,17.2446174 5.08337999,17.3966255 5.46774732,17.3987784 L8.49178144,17.3987784 L8.49178144,17.7047818 L8.49178138,17.7047805 C8.57930799,19.6071139 10.1892185,21.0801785 12.091822,20.9988176 L12.0918221,20.9988176 C13.9944255,21.0801777 15.6043367,19.6071139 15.6918627,17.7047805 L15.6918627,17.398777 L18.7158968,17.398777 L18.7158968,17.398777 C19.5310657,17.3942015 20.1881785,16.7296672 20.1836301,15.9144983 C20.181449,15.5301363 20.0294419,15.1617757 19.7599095,14.8877487 L19.7599091,14.8877562 Z M13.8918429,17.704788 L13.8918429,17.7047883 C13.7881473,18.6041523 12.9948972,19.2625529 12.0918226,19.1988052 L12.0918225,19.1988052 C11.1887433,19.2625498 10.3955013,18.6041523 10.2918022,17.7047883 L10.2918022,17.3987849 L13.8918429,17.3987849 L13.8918429,17.704788 Z M6.25075669,15.5987643 L7.31276867,14.5367523 L7.31276864,14.5367523 C7.65300758,14.1985321 7.84415444,13.7384838 7.84377463,13.2587379 L7.84377463,9.05569048 L7.84377451,9.05584101 C7.84472298,7.82749815 8.37620882,6.65942897 9.30167396,5.85175086 L9.30167361,5.85175118 C10.2150309,5.02412974 11.4456418,4.6391315 12.6678286,4.7986403 L12.6678287,4.79864032 C14.81987,5.14806476 16.3859957,7.02895548 16.3398702,9.20869007 L16.3398702,13.2587358 L16.3398701,13.258743 C16.3371058,13.7371938 16.5249401,14.1970575 16.8618814,14.5367574 L17.9328935,15.5987643 L6.25075669,15.5987643 Z" id="Fill" fill="#FFFFFF"></path>
    </g>
</svg>