<svg xmlns="http://www.w3.org/2000/svg" xmlns:xlink="http://www.w3.org/1999/xlink" width="74" height="9"><defs><path id="a" d="M1.126 8.948a.583.583 0 01-.074-.821l2.61-3.133-2.516-3.128a.584.584 0 01.909-.732l2.816 3.5a.584.584 0 01-.006.74l-2.917 3.5a.583.583 0 01-.822.074z"/><path id="b" d="M5.21 8.948a.583.583 0 01-.075-.821l2.611-3.133-2.517-3.128a.584.584 0 01.91-.732l2.816 3.5a.584.584 0 01-.007.74l-2.916 3.5a.583.583 0 01-.822.074z"/></defs><g fill="#314863"><path d="M16.301 8.165c.293 0 .568-.016.825-.05a5.307 5.307 0 001.226-.302c.15-.059.27-.117.358-.176l-.374-1.133a4.763 4.763 0 01-.715.28c-.308.1-.708.149-1.199.149-.41 0-.763-.068-1.056-.204a1.927 1.927 0 01-.726-.571 2.46 2.46 0 01-.424-.875 4.23 4.23 0 01-.137-1.111c0-.455.059-.854.176-1.199.117-.345.28-.63.49-.858a2 2 0 01.742-.511c.286-.114.594-.171.924-.171.381 0 .735.05 1.061.149.327.099.578.203.754.313l.407-1.133c-.051-.03-.14-.077-.264-.143a2.76 2.76 0 00-.473-.187 6.084 6.084 0 00-.671-.16 4.717 4.717 0 00-.858-.071c-.52 0-1.008.088-1.463.264a3.37 3.37 0 00-1.188.775 3.667 3.667 0 00-.797 1.249c-.195.491-.292 1.056-.292 1.694 0 .638.084 1.203.253 1.694.169.491.41.907.726 1.249.315.34.7.599 1.155.775a4.24 4.24 0 001.54.264zM20.723 8c.103-.293.207-.588.314-.886.106-.296.21-.599.313-.907h3.212c.103.308.209.609.319.902.11.293.216.59.319.891h1.496a103.802 103.802 0 00-1.579-4.213 56.355 56.355 0 00-1.48-3.41h.001-1.309a56.355 56.355 0 00-1.48 3.41 91.23 91.23 0 00-.753 1.958c-.257.69-.528 1.441-.814 2.255h1.441zm3.487-2.915h-2.508c.235-.653.46-1.258.676-1.815.217-.557.41-1.03.578-1.419.161.374.352.843.572 1.408.22.565.447 1.173.682 1.826zM30.568 8a65.523 65.523 0 001.584-3.729c.506-1.298.983-2.596 1.43-3.894h-1.485a132.918 132.918 0 01-1.084 3.157c-.186.52-.372 1.021-.555 1.502-.183.48-.36.922-.528 1.325a29.23 29.23 0 01-.539-1.331 75.08 75.08 0 01-.55-1.502 157.12 157.12 0 01-.55-1.578L27.752.377h-1.529c.44 1.298.915 2.596 1.425 3.894A68.263 68.263 0 0029.236 8h1.331zm3.982 0c.103-.293.207-.588.314-.886.106-.296.21-.599.313-.907h3.212c.103.308.209.609.319.902.11.293.216.59.319.891h1.496a103.802 103.802 0 00-1.579-4.213 56.355 56.355 0 00-1.48-3.41h.001-1.309a56.355 56.355 0 00-1.48 3.41 91.23 91.23 0 00-.753 1.958c-.257.69-.528 1.441-.814 2.255h1.441zm3.487-2.915h-2.508c.235-.653.46-1.258.676-1.815.217-.557.41-1.03.578-1.419.161.374.352.843.572 1.408.22.565.447 1.173.682 1.826zM42.877 8V5.118h.88c.073 0 .161-.004.264-.011a18.47 18.47 0 01.94 1.315c.166.253.329.513.49.78.161.268.312.534.451.798h1.551a11.716 11.716 0 00-.451-.874 18.077 18.077 0 00-1.067-1.655 12.83 12.83 0 00-.473-.617c1.02-.367 1.529-1.067 1.529-2.101 0-.829-.291-1.445-.874-1.848C45.532.502 44.692.3 43.592.3c-.3 0-.642.013-1.023.038-.381.026-.74.076-1.078.149V8h1.386zm.605-4.004h-.605V1.532a9.3 9.3 0 01.814-.033c.271 0 .52.02.748.06.227.04.423.109.589.204a.982.982 0 01.379.385c.088.161.132.36.132.594 0 .25-.044.455-.132.616a.963.963 0 01-.39.385 1.874 1.874 0 01-.644.198 6.37 6.37 0 01-.891.055zM53.844 8V6.823h-4.092c.271-.47.585-.966.94-1.49.356-.525.717-1.035 1.084-1.53.367-.494.722-.953 1.067-1.375.345-.421.638-.764.88-1.028V.377h-5.456v1.177h3.663c-.198.227-.409.486-.633.776a41.816 41.816 0 00-2.084 2.931c-.22.337-.427.666-.621.984-.195.32-.365.615-.512.886V8h5.764zm6.446 0V6.823h-3.773V4.59h3.124V3.435h-3.124V1.554h3.509V.377h-4.895V8h5.159zm2.673 0V5.118h.88c.073 0 .161-.004.264-.011a18.47 18.47 0 01.94 1.315c.165.253.329.513.49.78.161.268.312.534.451.798h1.551a11.716 11.716 0 00-.451-.874 18.077 18.077 0 00-1.067-1.655 12.83 12.83 0 00-.473-.617c1.02-.367 1.529-1.067 1.529-2.101 0-.829-.291-1.445-.874-1.848C65.618.502 64.778.3 63.678.3c-.3 0-.642.013-1.023.038-.381.026-.74.076-1.078.149V8h1.386zm.605-4.004h-.605V1.532a9.3 9.3 0 01.814-.033c.271 0 .52.02.748.06.227.04.423.109.588.204a.982.982 0 01.38.385c.088.161.132.36.132.594 0 .25-.044.455-.132.616a.963.963 0 01-.39.385 1.874 1.874 0 01-.644.198 6.37 6.37 0 01-.891.055zM73.776 8V6.823h-3.773V4.59h3.124V3.435h-3.124V1.554h3.509V.377h-4.895V8h5.159z"/><g transform="rotate(-180 5 4.55)"><use xlink:href="#a"/><use xlink:href="#b"/></g></g></svg>