<svg width="476" height="310" xmlns="http://www.w3.org/2000/svg" xmlns:xlink="http://www.w3.org/1999/xlink"><defs><linearGradient x1="50.034%" y1="99.984%" x2="50.034%" y2="-.004%" id="c"><stop stop-color="#8B878D" offset="0%"/><stop stop-color="#9F9CA1" offset="13.66%"/><stop stop-color="#D9D8DA" offset="42.07%"/><stop stop-color="#F3F4F4" offset="51.52%"/><stop stop-color="#807B80" offset="100%"/></linearGradient><linearGradient x1="50.034%" y1="99.984%" x2="50.034%" y2="-.004%" id="d"><stop stop-color="#8B878D" offset="0%"/><stop stop-color="#9F9CA1" offset="13.66%"/><stop stop-color="#D9D8DA" offset="42.07%"/><stop stop-color="#F3F4F4" offset="51.52%"/><stop stop-color="#807B80" offset="100%"/></linearGradient><linearGradient x1="50.034%" y1="99.984%" x2="50.034%" y2="-.004%" id="e"><stop stop-color="#8B878D" offset="0%"/><stop stop-color="#9F9CA1" offset="13.66%"/><stop stop-color="#D9D8DA" offset="42.07%"/><stop stop-color="#F3F4F4" offset="51.52%"/><stop stop-color="#807B80" offset="100%"/></linearGradient><linearGradient x1="50.034%" y1="99.984%" x2="50.034%" y2="-.004%" id="f"><stop stop-color="#8B878D" offset="0%"/><stop stop-color="#9F9CA1" offset="13.66%"/><stop stop-color="#D9D8DA" offset="42.07%"/><stop stop-color="#F3F4F4" offset="51.52%"/><stop stop-color="#807B80" offset="100%"/></linearGradient><linearGradient x1="50.034%" y1="110.798%" x2="50.034%" y2="-15.403%" id="g"><stop stop-color="#8B878D" offset="0%"/><stop stop-color="#9F9CA1" offset="13.66%"/><stop stop-color="#D9D8DA" offset="39.007%"/><stop stop-color="#F3F4F4" offset="55.749%"/><stop stop-color="#807B80" offset="100%"/></linearGradient><linearGradient x1="50.034%" y1="99.984%" x2="50.034%" y2="-.004%" id="h"><stop stop-color="#8B878D" offset="0%"/><stop stop-color="#9F9CA1" offset="13.66%"/><stop stop-color="#D9D8DA" offset="42.07%"/><stop stop-color="#F3F4F4" offset="51.52%"/><stop stop-color="#807B80" offset="100%"/></linearGradient><linearGradient x1="50.034%" y1="99.984%" x2="50.034%" y2="-.004%" id="i"><stop stop-color="#8B878D" offset="0%"/><stop stop-color="#9F9CA1" offset="13.66%"/><stop stop-color="#D9D8DA" offset="42.07%"/><stop stop-color="#F3F4F4" offset="51.52%"/><stop stop-color="#807B80" offset="100%"/></linearGradient><linearGradient x1="50.034%" y1="99.984%" x2="50.034%" y2="-.004%" id="j"><stop stop-color="#8B878D" offset="0%"/><stop stop-color="#9F9CA1" offset="13.66%"/><stop stop-color="#D9D8DA" offset="42.07%"/><stop stop-color="#F3F4F4" offset="51.52%"/><stop stop-color="#807B80" offset="100%"/></linearGradient><path id="a" d="M0 0h476v310H0z"/></defs><g fill="none" fill-rule="evenodd"><mask id="b" fill="#fff"><use xlink:href="#a"/></mask><g mask="url(#b)"><path d="M33.782 1.676a3.5 3.5 0 013.5 3.5v.729l49.157-.014v16.858l-49.157.015v.7a3.5 3.5 0 01-3.5 3.5h-7.751a3.5 3.5 0 01-3.5-3.5l-.001-.696L4 22.774V5.915l18.53-.006v-.733a3.5 3.5 0 013.5-3.5h7.752z" stroke="#636262" stroke-width=".5" fill="url(#c)" fill-rule="nonzero" transform="translate(114.093 158.427)"/><path d="M151.375 160.786v8.43h-4.215v-8.43h4.215zm-10.537 0v8.43h-4.214v-8.43h4.214zM151.375 177.645v8.429h-4.215v-8.43h4.215zm-10.537 0v8.429h-4.214v-8.43h4.214zM158.196 161.623h10.537v6.322h-10.537zM158.196 177.602h10.537v6.322h-10.537z" fill="#004C97"/><path stroke="#636262" stroke-width=".5" fill="url(#d)" fill-rule="nonzero" d="M.959 0h6.392v28.763H.959z" transform="translate(114.093 158.427)"/><path d="M228.487 14.725V98.71L300.1 71.865h10.98V37.802h-10.974l-71.618-23.077z" stroke="#636262" stroke-width=".5" fill="url(#e)" fill-rule="nonzero" transform="translate(113.722 120.076)"/><path fill="#004C97" d="M413.866 157.628h11.186v6.392h-11.186zM413.866 185.591h11.186v6.392h-11.186z"/><g fill-rule="nonzero" stroke="#636262" stroke-width=".5"><path d="M166.735 13.064L8.897 31.4.25 39.26v26.944l8.651 7.865L166.735 98.78V13.064z" fill="url(#f)" transform="translate(175.773 120.076)"/><g transform="translate(202.938 120.875)" fill="url(#g)"><path d="M4.678 0l1.436 1.515-2 2.012v.998l2.25-1.94 1.322 1.62-3.572 3.08V8.99l2.594-1.866 1.18 1.732-3.774 2.717v1.847l2.911-1.727 1.029 1.831-3.94 2.338v4.074l3.198-1.532.87 1.917-4.068 1.949v4.161l3.452-1.292.704 1.988-4.156 1.554v4.226l3.673-1.011.532 2.043-4.205 1.157v4.273l3.858-.698.357 2.082-4.215.764v4.303l4.005-.36.18 2.107-4.185.376v4.318h4.114v2.116l-4.114-.001v4.766l4.285.386-.18 2.107-4.105-.37v4.294l4.315.783-.357 2.082-3.958-.718v4.264l4.306 1.187-.533 2.042-3.773-1.039v4.215l4.257 1.594-.704 1.987-3.553-1.33v4.151l4.168 1.998-.87 1.916-3.298-1.581v4.062l4.04 2.399-1.028 1.831-3.012-1.787v1.835l3.875 2.789-1.18 1.732-2.695-1.939v1.69l3.673 3.169-1.322 1.62-2.351-2.028v.52l2.099 2.188-1.462 1.488-1.591-1.658A4.116 4.116 0 010 101.018V5.62c0-1.9 1.289-3.5 3.04-3.973L4.679 0zM20.658 0l1.435 1.515-2 2.012v.998l2.25-1.94 1.323 1.62-3.573 3.08V8.99l2.595-1.866 1.18 1.732-3.775 2.717v1.847l2.912-1.727 1.028 1.831-3.94 2.338v4.074l3.198-1.532.87 1.917-4.068 1.949v4.161l3.453-1.292.703 1.988-4.156 1.554v4.226l3.673-1.011.533 2.043-4.206 1.157v4.273l3.858-.698.357 2.082-4.215.764v4.303l4.006-.36.179 2.107-4.185.376v4.318h4.115v2.116l-4.115-.001v4.766l4.285.386-.179 2.107-4.106-.37v4.294l4.316.783-.357 2.082-3.959-.718v4.264l4.306 1.187-.532 2.042-3.774-1.039v4.215l4.257 1.594-.704 1.987-3.553-1.33v4.151l4.168 1.998-.87 1.916-3.298-1.581v4.062l4.04 2.399-1.028 1.831-3.012-1.787v1.835l3.875 2.789-1.18 1.732-2.695-1.939v1.69l3.673 3.169-1.322 1.62-2.35-2.028v.52l2.098 2.188-1.461 1.488-1.592-1.658a4.116 4.116 0 01-3.16-4.003V5.62c0-1.9 1.29-3.5 3.04-3.973L20.659 0zM38.235 0l1.436 1.515-2 2.012v.998l2.25-1.94 1.322 1.62-3.572 3.08V8.99l2.594-1.866 1.18 1.732-3.774 2.717v1.847l2.91-1.727 1.03 1.831-3.94 2.338v4.074l3.198-1.532.869 1.917-4.067 1.949v4.161l3.452-1.292.704 1.988-4.156 1.554v4.226l3.673-1.011.532 2.043-4.205 1.157v4.273l3.857-.698.358 2.082-4.215.764v4.303l4.005-.36.18 2.107-4.185.376v4.318h4.114v2.116l-4.114-.001v4.766l4.285.386-.18 2.107-4.105-.37v4.294l4.315.783-.357 2.082-3.958-.718v4.264l4.306 1.187-.533 2.042-3.773-1.039v4.215l4.256 1.594-.703 1.987-3.553-1.33v4.151l4.167 1.998-.869 1.916-3.298-1.581v4.062l4.04 2.399-1.029 1.831-3.011-1.787v1.835l3.874 2.789-1.18 1.732-2.694-1.939v1.69l3.673 3.169-1.323 1.62-2.35-2.028v.52l2.098 2.188-1.46 1.488-1.593-1.658a4.116 4.116 0 01-3.16-4.003V5.62c0-1.9 1.29-3.5 3.041-3.973L38.235 0zM55.812 0l1.436 1.515-2 2.012v.998l2.25-1.94 1.322 1.62-3.572 3.08V8.99l2.594-1.866 1.18 1.732-3.774 2.717v1.847l2.911-1.727 1.029 1.831-3.94 2.338v4.074l3.198-1.532.87 1.917-4.068 1.949v4.161l3.453-1.292.703 1.988-4.156 1.554v4.226l3.673-1.011.532 2.043-4.205 1.157v4.273l3.858-.698.357 2.082-4.215.764v4.303l4.005-.36.18 2.107-4.185.376v4.318h4.114v2.116l-4.114-.001v4.766l4.285.386-.18 2.107-4.105-.37v4.294l4.315.783-.357 2.082-3.958-.718v4.264l4.306 1.187-.533 2.042-3.773-1.039v4.215l4.257 1.594-.704 1.987-3.553-1.33v4.151l4.168 1.998-.87 1.916-3.298-1.581v4.062l4.04 2.399-1.028 1.831-3.012-1.787v1.835l3.875 2.789-1.18 1.732-2.695-1.939v1.69l3.673 3.169-1.322 1.62-2.351-2.028v.52l2.099 2.188-1.462 1.488-1.591-1.658a4.116 4.116 0 01-3.16-4.003V5.62c0-1.9 1.289-3.5 3.04-3.973L55.813 0zM71.792 0l1.436 1.515-2 2.012v.998l2.25-1.94 1.322 1.62-3.573 3.08V8.99l2.595-1.866 1.18 1.732-3.775 2.717v1.847l2.912-1.727 1.028 1.831-3.94 2.338v4.074l3.198-1.532.87 1.917-4.068 1.949v4.161l3.453-1.292.703 1.988-4.156 1.554v4.226l3.673-1.011.533 2.043-4.206 1.157v4.273l3.858-.698.357 2.082-4.215.764v4.303l4.006-.36.179 2.107-4.185.376v4.318h4.115v2.116l-4.115-.001v4.766l4.285.386-.179 2.107-4.106-.37v4.294l4.316.783-.357 2.082-3.959-.718v4.264l4.306 1.187-.532 2.042-3.774-1.039v4.215l4.257 1.594-.704 1.987-3.553-1.33v4.151l4.168 1.998-.87 1.916-3.298-1.581v4.062l4.04 2.399-1.028 1.831-3.012-1.787v1.835l3.875 2.789-1.18 1.732-2.695-1.939v1.69l3.673 3.169-1.322 1.62-2.35-2.028v.52l2.098 2.188-1.461 1.488-1.592-1.658a4.116 4.116 0 01-3.16-4.003V5.62c0-1.9 1.29-3.5 3.04-3.973L71.793 0zM89.369 0l1.436 1.515-2 2.012v.998l2.25-1.94 1.322 1.62-3.572 3.08V8.99l2.594-1.866 1.18 1.732-3.774 2.717v1.847l2.91-1.727 1.03 1.831-3.94 2.338v4.074l3.198-1.532.869 1.917-4.067 1.949v4.161l3.452-1.292.704 1.988-4.156 1.554v4.226l3.673-1.011.532 2.043-4.205 1.157v4.273l3.857-.698.358 2.082-4.215.764v4.303l4.005-.36.18 2.107-4.185.376v4.318h4.114v2.116l-4.114-.001v4.766l4.285.386-.18 2.107-4.105-.37v4.294l4.315.783-.357 2.082-3.958-.718v4.264l4.306 1.187-.533 2.042-3.773-1.039v4.215l4.256 1.594-.703 1.987-3.553-1.33v4.151l4.167 1.998-.869 1.916-3.298-1.581v4.062l4.04 2.399-1.029 1.831-3.011-1.787v1.835l3.875 2.789-1.18 1.732-2.695-1.939v1.69l3.673 3.169-1.323 1.62-2.35-2.028v.52l2.098 2.188-1.46 1.488-1.593-1.658a4.116 4.116 0 01-3.16-4.003V5.62c0-1.9 1.29-3.5 3.041-3.973L89.37 0zM106.946 0l1.436 1.515-2 2.012v.998l2.25-1.94 1.322 1.62-3.572 3.08V8.99l2.594-1.866 1.18 1.732-3.774 2.717v1.847l2.911-1.727 1.029 1.831-3.94 2.338v4.074l3.198-1.532.87 1.917-4.068 1.949v4.161l3.453-1.292.703 1.988-4.156 1.554v4.226l3.673-1.011.532 2.043-4.205 1.157v4.273l3.858-.698.357 2.082-4.215.764v4.303l4.005-.36.18 2.107-4.185.376v4.318h4.114v2.116l-4.114-.001v4.766l4.285.386-.18 2.107-4.105-.37v4.294l4.315.783-.357 2.082-3.958-.718v4.264l4.306 1.187-.533 2.042-3.773-1.039v4.215l4.257 1.594-.704 1.987-3.553-1.33v4.151l4.168 1.998-.87 1.916-3.298-1.581v4.062l4.04 2.399-1.028 1.831-3.012-1.787v1.835l3.875 2.789-1.18 1.732-2.695-1.939v1.69l3.673 3.169-1.322 1.62-2.351-2.028v.52l2.099 2.188-1.462 1.488-1.591-1.658a4.116 4.116 0 01-3.16-4.003V5.62c0-1.9 1.289-3.5 3.04-3.973L106.947 0zM122.926 0l1.436 1.515-2 2.012v.998l2.25-1.94 1.322 1.62-3.573 3.08V8.99l2.595-1.866 1.18 1.732-3.775 2.717v1.847l2.912-1.727 1.028 1.831-3.94 2.338v4.074l3.198-1.532.87 1.917-4.068 1.949v4.161l3.453-1.292.703 1.988-4.156 1.554v4.226l3.673-1.011.533 2.043-4.206 1.157v4.273l3.858-.698.357 2.082-4.215.764v4.303l4.006-.36.179 2.107-4.185.376v4.318h4.115v2.116l-4.115-.001v4.766l4.285.386-.179 2.107-4.106-.37v4.294l4.316.783-.357 2.082-3.959-.718v4.264l4.306 1.187-.532 2.042-3.774-1.039v4.215l4.257 1.594-.704 1.987-3.553-1.33v4.151l4.168 1.998-.87 1.916-3.298-1.581v4.062l4.04 2.399-1.028 1.831-3.012-1.787v1.835l3.875 2.789-1.18 1.732-2.695-1.939v1.69l3.673 3.169-1.322 1.62-2.35-2.028v.52l2.098 2.188-1.461 1.488-1.592-1.658a4.116 4.116 0 01-3.16-4.003V5.62c0-1.9 1.29-3.5 3.04-3.973L122.927 0zM140.503 0l1.436 1.515-2 2.012v.998l2.25-1.94 1.322 1.62-3.572 3.08V8.99l2.594-1.866 1.18 1.732-3.774 2.717v1.847l2.91-1.727 1.03 1.831-3.94 2.338v4.074l3.198-1.532.869 1.917-4.067 1.949v4.161l3.452-1.292.704 1.988-4.156 1.554v4.226l3.673-1.011.532 2.043-4.205 1.157v4.273l3.857-.698.358 2.082-4.215.764v4.303l4.005-.36.18 2.107-4.185.376v4.318h4.114v2.116l-4.114-.001v4.766l4.285.386-.18 2.107-4.105-.37v4.294l4.315.783-.357 2.082-3.958-.718v4.264l4.306 1.187-.533 2.042-3.773-1.039v4.215l4.256 1.594-.703 1.987-3.553-1.33v4.151l4.167 1.998-.869 1.916-3.298-1.581v4.062l4.04 2.399-1.029 1.831-3.011-1.787v1.835l3.875 2.789-1.18 1.732-2.695-1.939v1.69l3.673 3.169-1.323 1.62-2.35-2.028v.52l2.098 2.188-1.46 1.488-1.593-1.658a4.116 4.116 0 01-3.16-4.003V5.62c0-1.9 1.29-3.5 3.041-3.973L140.503 0z"/></g></g><g stroke="#636262" stroke-width=".5"><path d="M6.113 0h6.74a2 2 0 011.997 1.896l4.11 79.134a2 2 0 010 .205l-4.112 81.239a2 2 0 01-1.998 1.899H6.116a2 2 0 01-1.997-1.899L.005 81.235a2 2 0 010-.205L4.116 1.896A2 2 0 016.113 0z" fill="url(#h)" fill-rule="nonzero" transform="translate(456.662 94.244)"/><path d="M475.628 186.967h-18.966m0-21.074h18.966M473.52 214.362h-14.75m0-12.644h14.75M474.574 151.142h-16.859m1.054-12.644h14.751M457.715 151.142h16.86l1.053 14.751h-18.966zM472.467 237.543h-12.644m0-10.537h12.644M472.467 125.854h-12.644m0-10.537h12.644M472.467 245.972h-12.644m0-8.43h12.644M472.467 115.317h-12.644m1.053-8.43h10.537M471.413 252.294h-10.537m-1.053-6.322h12.644M471.413 256.509h-10.537m0-4.215h10.537M471.413 100.566h-10.537m1.054-4.215h8.43" fill-opacity=".04" fill="#000"/><g><path d="M6.11 0h6.745a2 2 0 011.997 1.893L18.96 78.92a2 2 0 010 .21l-4.11 79.132a2 2 0 01-1.997 1.896h-6.74a2 2 0 01-1.997-1.896L.006 79.13a2 2 0 010-.21L4.114 1.892A2 2 0 016.11 0z" fill="url(#i)" fill-rule="nonzero" transform="translate(431.374 96.949)"/><path d="M450.34 187.565h-18.966m0-21.074h18.966M448.232 214.96h-14.751m0-12.644h14.751M449.286 151.74h-16.859m1.054-12.644h14.751M432.427 151.74h16.859l1.054 14.751h-18.966zM447.179 238.14h-12.644m0-10.536h12.644M447.179 126.452h-12.644m0-10.537h12.644M447.179 246.57h-12.644m0-8.43h12.644M447.179 115.915h-12.644m1.053-8.43h10.537M446.125 252.892h-10.537m-1.053-6.322h12.644M435.588 252.892h10.537M446.125 101.163h-10.537" fill-opacity=".04" fill="#000"/></g><path fill="url(#j)" fill-rule="nonzero" d="M0 71.846h6.322v33.718H0zM25.288 71.846h6.322v33.718h-6.322z" transform="translate(425.052 86.324)"/></g></g></g></svg>