<svg width="193" height="193" xmlns="http://www.w3.org/2000/svg" xmlns:xlink="http://www.w3.org/1999/xlink"><defs><linearGradient x1=".453%" y1="50.403%" x2="99.615%" y2="50.403%" id="o"><stop stop-color="#AFACB1" offset="0%"/><stop stop-color="#BAB9BC" offset="28.499%"/><stop stop-color="#D9D8DA" offset="42.07%"/><stop stop-color="#F3F4F4" offset="58.437%"/><stop stop-color="#958F95" offset="100%"/></linearGradient><linearGradient x1="50%" y1="0%" x2="50%" y2="100%" id="G"><stop stop-color="#636262" stop-opacity=".401" offset="0%"/><stop stop-color="#636262" offset="46.746%"/><stop stop-color="#636262" stop-opacity=".4" offset="100%"/></linearGradient><linearGradient x1="50%" y1="0%" x2="50%" y2="100%" id="F"><stop stop-color="#636262" stop-opacity=".4" offset="0%"/><stop stop-color="#636262" offset="46.746%"/><stop stop-color="#636262" stop-opacity=".4" offset="100%"/></linearGradient><linearGradient x1="0%" y1="45.675%" x2="100%" y2="56.707%" id="i"><stop stop-color="#5E5D5E" offset="0%"/><stop stop-color="#BEBEBE" offset="47.838%"/><stop stop-color="#5E5D5E" offset="100%"/></linearGradient><linearGradient x1="50.034%" y1="99.984%" x2="50.034%" y2="-.004%" id="E"><stop stop-color="#8B878D" offset="0%"/><stop stop-color="#9F9CA1" offset="13.66%"/><stop stop-color="#D9D8DA" offset="42.07%"/><stop stop-color="#F3F4F4" offset="51.52%"/><stop stop-color="#807B80" offset="100%"/></linearGradient><linearGradient x1="0%" y1="45.675%" x2="100%" y2="54.325%" id="l"><stop stop-color="#5E5D5E" offset="0%"/><stop stop-color="#BEBEBE" offset="47.838%"/><stop stop-color="#5E5D5E" offset="100%"/></linearGradient><linearGradient x1="50.034%" y1="99.984%" x2="50.034%" y2="-.004%" id="D"><stop stop-color="#8B878D" offset="0%"/><stop stop-color="#9F9CA1" offset="13.66%"/><stop stop-color="#D9D8DA" offset="42.07%"/><stop stop-color="#F3F4F4" offset="51.52%"/><stop stop-color="#807B80" offset="100%"/></linearGradient><linearGradient x1="50.034%" y1="114.901%" x2="50.034%" y2="-16.677%" id="e"><stop stop-color="#363D43" offset="0%"/><stop stop-color="#82888D" offset="52.238%"/><stop stop-color="#363D43" offset="100%"/></linearGradient><linearGradient x1="50.034%" y1="99.984%" x2="50.034%" y2="-.004%" id="C"><stop stop-color="#8B878D" offset="0%"/><stop stop-color="#9F9CA1" offset="13.66%"/><stop stop-color="#D9D8DA" offset="42.07%"/><stop stop-color="#F3F4F4" offset="51.52%"/><stop stop-color="#807B80" offset="100%"/></linearGradient><linearGradient x1="50%" y1="0%" x2="50%" y2="100%" id="p"><stop stop-color="#BDD3EB" offset="0%"/><stop stop-color="#93C5DE" offset="100%"/></linearGradient><linearGradient x1="50.034%" y1="100%" x2="50.034%" y2="0%" id="c"><stop stop-color="#363D43" offset="0%"/><stop stop-color="#798085" offset="49.343%"/><stop stop-color="#82888D" offset="50.901%"/><stop stop-color="#363D43" offset="100%"/></linearGradient><linearGradient x1="50%" y1="0%" x2="50%" y2="100%" id="s"><stop stop-color="#BDD3EB" offset="0%"/><stop stop-color="#93C5DE" offset="100%"/></linearGradient><linearGradient x1="50%" y1="0%" x2="50%" y2="100%" id="x"><stop stop-color="#BDD3EB" offset="0%"/><stop stop-color="#93C5DE" offset="100%"/></linearGradient><linearGradient x1="50%" y1="0%" x2="50%" y2="100%" id="z"><stop stop-color="#BDD3EB" offset="0%"/><stop stop-color="#93C5DE" offset="100%"/></linearGradient><linearGradient x1="50.034%" y1="99.984%" x2="50.034%" y2="-.004%" id="B"><stop stop-color="#8B878D" offset="0%"/><stop stop-color="#9F9CA1" offset="13.66%"/><stop stop-color="#D9D8DA" offset="42.07%"/><stop stop-color="#F3F4F4" offset="51.52%"/><stop stop-color="#807B80" offset="100%"/></linearGradient><filter x="0%" y="0%" width="100%" height="100%" filterUnits="objectBoundingBox" id="r"><feGaussianBlur in="SourceGraphic"/></filter><filter x="-5.9%" y="-16.2%" width="110.6%" height="136.2%" filterUnits="objectBoundingBox" id="g"><feOffset dx="-1" dy="1" in="SourceAlpha" result="shadowOffsetOuter1"/><feGaussianBlur stdDeviation="3" in="shadowOffsetOuter1" result="shadowBlurOuter1"/><feColorMatrix values="0 0 0 0 0 0 0 0 0 0 0 0 0 0 0 0 0 0 0.230550699 0" in="shadowBlurOuter1"/></filter><filter x="0%" y="0%" width="100%" height="100%" filterUnits="objectBoundingBox" id="t"><feGaussianBlur in="SourceGraphic"/></filter><filter x="0%" y="0%" width="100%" height="100%" filterUnits="objectBoundingBox" id="u"><feGaussianBlur in="SourceGraphic"/></filter><filter x="0%" y="0%" width="100%" height="100%" filterUnits="objectBoundingBox" id="v"><feGaussianBlur in="SourceGraphic"/></filter><filter x="0%" y="0%" width="100%" height="100%" filterUnits="objectBoundingBox" id="w"><feGaussianBlur in="SourceGraphic"/></filter><filter x="-5.9%" y="-7%" width="110.6%" height="115.6%" filterUnits="objectBoundingBox" id="m"><feOffset dx="-1" dy="1" in="SourceAlpha" result="shadowOffsetOuter1"/><feGaussianBlur stdDeviation="3" in="shadowOffsetOuter1" result="shadowBlurOuter1"/><feColorMatrix values="0 0 0 0 0 0 0 0 0 0 0 0 0 0 0 0 0 0 0.230550699 0" in="shadowBlurOuter1"/></filter><filter x="0%" y="0%" width="100%" height="100%" filterUnits="objectBoundingBox" id="y"><feGaussianBlur in="SourceGraphic"/></filter><filter x="-5.9%" y="-16.2%" width="110.6%" height="136.2%" filterUnits="objectBoundingBox" id="j"><feOffset dx="-1" dy="1" in="SourceAlpha" result="shadowOffsetOuter1"/><feGaussianBlur stdDeviation="3" in="shadowOffsetOuter1" result="shadowBlurOuter1"/><feColorMatrix values="0 0 0 0 0 0 0 0 0 0 0 0 0 0 0 0 0 0 0.230550699 0" in="shadowBlurOuter1"/></filter><filter x="0%" y="0%" width="100%" height="100%" filterUnits="objectBoundingBox" id="A"><feGaussianBlur in="SourceGraphic"/></filter><filter x="0%" y="0%" width="100%" height="100%" filterUnits="objectBoundingBox" id="q"><feGaussianBlur in="SourceGraphic"/></filter><path d="M792.435 42h178.5v121.8h-178.5V42zm4.2 4.2v113.4h170.1V46.2h-170.1z" id="n"/><path d="M856.485 127.05a5.251 5.251 0 015.197 4.499l.027.226h.026V155.4a3.15 3.15 0 002.671 3.114l.176.022.303.014v1.049l-3.148.001h.001-4.202v4.2l-23.1-.001v-7.349h8.4c2.586 0 3.978-5.674 4.175-17.022l.008-.512.016-2.416h2.1c1.203-1.203 1.89-2.406 2.059-3.61l.027-.24.026-.695a5.25 5.25 0 015.238-4.905zm31.5 0a5.251 5.251 0 015.197 4.499l.027.226h.026v23.624h-2.1V132.3a3.15 3.15 0 00-6.263-.48l-.022.177-.015.303c0 1.318.62 2.635 1.86 3.953l.24.247h2.1v27.3h-23.1v-7.35h8.4c2.587 0 3.979-5.674 4.176-17.022l.008-.512.016-2.416h2.1c1.203-1.203 1.89-2.406 2.059-3.61l.027-.24.026-.695a5.25 5.25 0 015.238-4.905zm37.8-4.2c1.151 0 2.263.168 3.312.482l.863 2.588a9.409 9.409 0 00-4.175-.97c-4.789 0-8.746 3.562-9.365 8.182.204 1.042.799 2.085 1.782 3.127l.233.241h2.1v27.298h6.3V161.7h10.5v2.098h8.4V159.6h4.2v.708a7.321 7.321 0 013.15-.708c1.016 0 1.983.206 2.863.578l.29.13-.003-.708h4.2v4.198l7 .001-67.9.001v-7.35h6.3c2.587 0 3.979-5.674 4.176-17.022l.008-.512.016-2.416h2.1c1.318-1.318 2.016-2.635 2.093-3.953l.007-.247h.19c.988-5.376 5.698-9.45 11.36-9.45zm45.15-11.55v48.299h-6.3l-.005-.179a3.15 3.15 0 00-2.965-2.965l-.178-.005h-16.83a100 100 0 00-4.991.125l-1.247.07-5.284.33a7.907 7.907 0 01-8.396-7.645l-.004-.246v-13.02a3.765 3.765 0 00-3.764-3.764 5.259 5.259 0 014.814-3.15c1.216 0 2.359.414 3.27 1.142a16.93 16.93 0 00-.12 2.008c0 9.278 7.522 16.8 16.8 16.8 9.279 0 16.8-7.522 16.8-16.8s-7.521-16.8-16.8-16.8c-4.349 0-8.4 1.668-11.44 4.495l-.29.277-.431.436a15.76 15.76 0 00-22.087 7.076l-.139.31-1.313 4.206-.21.005a4.2 4.2 0 00-3.985 3.985l-.005.21-.01 1.865c-.059 5.448-.384 9.548-.95 12.232a14.908 14.908 0 01-.378 1.467l-.062.186h-7l-1.259-24.667a9.45 9.45 0 00-17.6 3.83l-.02.27-.018.481-.014.136h-4.189v4.2l-.01 1.865c-.059 5.448-.384 9.548-.95 12.232a14.908 14.908 0 01-.378 1.467l-.062.186h-7l-1.259-24.667a9.45 9.45 0 00-17.6 3.83l-.02.27-.018.481-.014.136-.21.005a4.189 4.189 0 00-3.974 3.974l-.005.21v.011l-.01 1.865c-.059 5.448.01 8.635.01 11.785 0 .325-.175.947-.526 1.865a2 2 0 01-1.704 1.278l-.164.007h-5.876a3.38 3.38 0 00-3.321 4.013l.041.187h-4.263c-.993.013-1.132.287.063-4.2 1.22-4.58 6.205-4.01 9.45-10.5 2.1-4.2 2.249-11.002-2.1-16.8-3.15-4.2-8.4-5.25-12.6-5.25-4.2 0-15.785 3.596-15.75 14.7.035 10.938 4.096 21.29 6.206 24.03l.094.12h-19.95v-48.3h178.5zm-114.45 17.85a3.15 3.15 0 00-3.113 2.67l-.022.177-.015.303c0 1.318.62 2.635 1.86 3.953l.24.247h2.1v23.1h4.202l-.254-.201a5.248 5.248 0 01-1.72-2.845l-.052-.263-.068-.509-.008-.182v-23.3a3.15 3.15 0 00-3.15-3.15zm89.25-9.45c6.96 0 12.6 5.641 12.6 12.6s-5.64 12.6-12.6 12.6c-6.958 0-12.6-5.641-12.6-12.6 0-1.13.149-2.224.428-3.265a9.483 9.483 0 00-2.646-2.571l3.268 1.636 4.2-2.1v-3.15l-.549-.367a12.546 12.546 0 017.9-2.783z" id="k"/><path d="M856.485 57.75a5.251 5.251 0 015.197 4.499l.027.226h.026V86.1a3.15 3.15 0 002.671 3.114l.176.022.303.014v1.05h-3.148l-.254-.201a5.248 5.248 0 01-1.72-2.845l-.052-.263-.068-.509-.008-.182V63a3.15 3.15 0 00-6.263-.48l-.022.177-.015.303c0 1.318.62 2.635 1.86 3.953l.24.247h2.1v27.3h-23.1v-7.35h8.4c2.587 0 3.979-5.674 4.176-17.022l.008-.512.016-2.416h2.1c1.203-1.203 1.89-2.406 2.059-3.61l.027-.24.026-.695a5.25 5.25 0 015.238-4.905zm69.3-4.2c1.151 0 2.263.168 3.312.482l.863 2.588a9.409 9.409 0 00-4.175-.97c-4.789 0-8.746 3.562-9.365 8.182.204 1.042.799 2.085 1.782 3.127l.233.241h2.1v27.298h6.3V92.4h10.5v2.098h8.4V90.3h4.2v.708a7.321 7.321 0 013.15-.708c1.016 0 1.983.206 2.863.578l.29.13-.003-.708h4.2v4.198l10.5.002h-105v-7.35h8.4c2.587 0 3.979-5.674 4.176-17.022l.008-.512.016-2.416h2.1c1.203-1.203 1.89-2.406 2.059-3.61l.027-.24.026-.695a5.25 5.25 0 0110.435-.406l.027.226h.026v23.624h-2.1V63a3.15 3.15 0 00-6.263-.48l-.022.177-.015.303c0 1.318.62 2.635 1.86 3.953l.24.247h2.1v27.3h10.5v-7.35h6.3c2.587 0 3.979-5.674 4.176-17.022l.008-.512.016-2.416h2.1c1.318-1.318 2.016-2.635 2.093-3.953l.007-.247h.19c.988-5.376 5.698-9.45 11.36-9.45zM970.935 42v48.299h-6.3l-.005-.179a3.15 3.15 0 00-2.965-2.965l-.178-.005h-16.83a100 100 0 00-4.991.125l-1.247.07-5.284.33a7.907 7.907 0 01-8.396-7.645l-.004-.246v-13.02A3.765 3.765 0 00920.971 63a5.259 5.259 0 014.814-3.15c1.216 0 2.359.414 3.27 1.142a16.93 16.93 0 00-.12 2.008c0 9.278 7.522 16.8 16.8 16.8 9.279 0 16.8-7.522 16.8-16.8s-7.521-16.8-16.8-16.8c-4.349 0-8.4 1.668-11.44 4.495l-.29.277-.431.436a15.76 15.76 0 00-22.087 7.076l-.139.31L910.035 63l-.21.005a4.2 4.2 0 00-3.985 3.985l-.005.21-.01 1.865c-.059 5.448-.384 9.548-.95 12.232a14.908 14.908 0 01-.378 1.467l-.062.186h-7l-1.259-24.667a9.45 9.45 0 00-17.6 3.83l-.02.27-.018.481-.014.136h-4.189v4.2l-.01 1.865c-.059 5.448-.384 9.548-.95 12.232a14.908 14.908 0 01-.378 1.467l-.062.186h-7l-1.259-24.667a9.45 9.45 0 00-17.6 3.83l-.02.27-.018.481-.014.136-.21.005a4.189 4.189 0 00-3.974 3.974l-.005.21v.011l-.01 1.865c-.059 5.448.01 8.635.01 11.785 0 .325-.175.947-.526 1.865a2 2 0 01-1.704 1.278l-.164.007h-5.876a3.38 3.38 0 00-3.321 4.013l.041.187h-4.263c-.993.013-1.132.287.063-4.2 1.22-4.58 6.205-4.01 9.45-10.5 2.1-4.2 1.05-11.55 2.1-18.466.315-2.071-1.108-3.225-2.472-3.884a5.245 5.245 0 00-1.27-.419 11.935 11.935 0 00-1.453-.19l-.29-.022-.852-.048a60.15 60.15 0 00-1.217-.04l-.338-.008-1.227-.017-2.539-.003c-3.434.02-8.02.118-13.766.298l-.695.022-1.296.044a6.398 6.398 0 00-6.181 6.398c.034 10.89.341 18.172.963 22.097l.037.227.129.706c.513 2.546 3.907 7.244 6.011 9.851l.206.254h-19.95V42h178.5zm-25.2 8.4c6.96 0 12.6 5.641 12.6 12.6s-5.64 12.6-12.6 12.6c-6.958 0-12.6-5.641-12.6-12.6 0-1.13.149-2.224.428-3.265a9.483 9.483 0 00-2.646-2.571l3.268 1.636 4.2-2.1v-3.15l-.549-.367a12.546 12.546 0 017.9-2.783z" id="h"/><path id="d" d="M.72 0H178.5v121.8H0z"/><path id="a" d="M0 0h193v273H0z"/></defs><g transform="translate(0 -10)" fill="none" fill-rule="evenodd"><mask id="b" fill="#fff"><use xlink:href="#a"/></mask><g opacity=".1" mask="url(#b)"><path fill="url(#c)" fill-rule="nonzero" d="M792.435 42h178.5v121.8h-178.5z" transform="translate(-792.1)"/><g transform="translate(.335 42)"><mask id="f" fill="#fff"><use xlink:href="#d"/></mask><use fill="url(#e)" fill-rule="nonzero" xlink:href="#d"/><g opacity=".603"><g opacity=".148" mask="url(#f)" stroke="#FFF" stroke-linecap="square" stroke-width=".5"><path d="M-537.6 184.8l897.75-899.85M-537.6 191.1l897.75-899.85M-537.6 197.4l897.75-899.85M-537.6 203.7l897.75-899.85M-537.6 210l897.75-899.85M-537.6 216.3l897.75-899.85M-537.6 222.6l897.75-899.85M-537.6 228.9l897.75-899.85M-537.6 235.2l897.75-899.85M-537.6 241.5l897.75-899.85M-537.6 247.8l897.75-899.85M-537.6 254.1l897.75-899.85M-537.6 260.4l897.75-899.85M-537.6 266.7l897.75-899.85M-537.6 273l897.75-899.85M-537.6 279.3l897.75-899.85M-537.6 285.6l897.75-899.85M-537.6 291.9l897.75-899.85M-537.6 298.2l897.75-899.85M-537.6 304.5l897.75-899.85M-537.6 310.8l897.75-899.85M-537.6 317.1l897.75-899.85M-537.6 323.4l897.75-899.85M-537.6 329.7l897.75-899.85M-537.6 336l897.75-899.85M-537.6 342.3l897.75-899.85M-537.6 348.6l897.75-899.85M-537.6 354.9l897.75-899.85M-537.6 361.2l897.75-899.85M-537.6 367.5l897.75-899.85M-537.6 373.8l897.75-899.85M-537.6 380.1l897.75-899.85M-537.6 386.4l897.75-899.85M-537.6 392.7l897.75-899.85M-537.6 399l897.75-899.85M-537.6 405.3l897.75-899.85M-537.6 411.6l897.75-899.85M-537.6 417.9l897.75-899.85M-537.6 424.2l897.75-899.85M-537.6 430.5l897.75-899.85M-537.6 436.8l897.75-899.85M-537.6 443.1l897.75-899.85M-537.6 449.4l897.75-899.85M-537.6 455.7l897.75-899.85M-537.6 462l897.75-899.85M-537.6 468.3l897.75-899.85M-537.6 474.6l897.75-899.85M-537.6 480.9l897.75-899.85M-537.6 487.2l897.75-899.85M-537.6 493.5l897.75-899.85M-537.6 499.8l897.75-899.85M-537.6 506.1l897.75-899.85M-537.6 512.4l897.75-899.85M-537.6 518.7l897.75-899.85M-537.6 525l897.75-899.85M-537.6 531.3l897.75-899.85M-537.6 537.6l897.75-899.85M-537.6 543.9l897.75-899.85M-537.6 550.2l897.75-899.85M-537.6 556.5l897.75-899.85M-537.6 562.8l897.75-899.85M-537.6 569.1l897.75-899.85M-537.6 575.4l897.75-899.85M-537.6 581.7l897.75-899.85M-537.6 588l897.75-899.85M-537.6 594.3l897.75-899.85M-537.6 600.6l897.75-899.85M-537.6 606.9l897.75-899.85M-537.6 613.2l897.75-899.85M-537.6 619.5l897.75-899.85M-537.6 625.8l897.75-899.85M-537.6 632.1l897.75-899.85M-537.6 638.4l897.75-899.85M-537.6 644.7l897.75-899.85M-537.6 651l897.75-899.85M-537.6 657.3l897.75-899.85M-537.6 663.6l897.75-899.85M-537.6 669.9l897.75-899.85M-537.6 676.2l897.75-899.85M-537.6 682.5l897.75-899.85M-537.6 688.8l897.75-899.85M-537.6 695.1l897.75-899.85M-537.6 701.4l897.75-899.85M-537.6 707.7l897.75-899.85M-537.6 714l897.75-899.85M-537.6 720.3l897.75-899.85M-537.6 726.6l897.75-899.85M-537.6 732.9l897.75-899.85M-537.6 739.2l897.75-899.85M-537.6 745.5l897.75-899.85M-537.6 751.8l897.75-899.85M-537.6 758.1l897.75-899.85M-537.6 764.4l897.75-899.85M-537.6 770.7l897.75-899.85M-537.6 777l897.75-899.85M-537.6 783.3l897.75-899.85M-537.6 789.6l897.75-899.85M-537.6 795.9l897.75-899.85M-537.6 802.2L360.15-97.65M-537.6 808.5L360.15-91.35M-537.6 814.8L360.15-85.05M-537.6 821.1L360.15-78.75M-537.6 827.4L360.15-72.45M-537.6 833.7L360.15-66.15M-537.6 840L360.15-59.85M-537.6 846.3L360.15-53.55M-537.6 852.6L360.15-47.25M-537.6 858.9L360.15-40.95M-537.6 865.2L360.15-34.65M-537.6 871.5L360.15-28.35M-537.6 877.8L360.15-22.05M-537.6 884.1L360.15-15.75M-537.6 890.4L360.15-9.45M-537.6 896.7L360.15-3.15M-537.6 903L360.15 3.15M-537.6 909.3L360.15 9.45M-537.6 915.6L360.15 15.75M-537.6 921.9L360.15 22.05M-537.6 928.2L360.15 28.35M-537.6 934.5L360.15 34.65M-537.6 940.8L360.15 40.95M-537.6 947.1L360.15 47.25M-537.6 953.4L360.15 53.55M-537.6 959.7L360.15 59.85M-537.6 966L360.15 66.15M-537.6 972.3L360.15 72.45M-537.6 978.6L360.15 78.75M-537.6 984.9L360.15 85.05M-537.6 991.2L360.15 91.35M-537.6 997.5L360.15 97.65M-537.6 1003.8l897.75-899.85M-537.6 1010.1l897.75-899.85M-537.6 1016.4l897.75-899.85M-537.6 1022.7l897.75-899.85M-537.6 1029l897.75-899.85M-537.6 1035.3l897.75-899.85M-537.6 1041.6l897.75-899.85M-537.6 1047.9l897.75-899.85M-537.6 1054.2l897.75-899.85M-537.6 1060.5l897.75-899.85"/></g></g></g><g fill-rule="nonzero" transform="translate(-792.1)"><use fill="#000" filter="url(#g)" xlink:href="#h"/><use fill="url(#i)" xlink:href="#h"/></g><g fill-rule="nonzero" transform="matrix(1 0 0 -1 -792.1 275.1)"><use fill="#000" filter="url(#j)" xlink:href="#k"/><use fill="url(#l)" xlink:href="#k"/></g><g fill-rule="nonzero" transform="translate(-792.1)"><use fill="#000" filter="url(#m)" xlink:href="#n"/><use fill="url(#o)" xlink:href="#n"/></g><path stroke="#636262" stroke-width=".5" d="M4.785 46.45h169.6v112.9H4.785z"/><path d="M168.335 90.3v8.4h-4.2v-8.4h4.2zm-10.5 0v8.4h-4.2v-8.4h4.2zM168.335 115.5v-8.4h-4.2v8.4h4.2zm-10.5 0v-8.4h-4.2v8.4h4.2zM10.835 92.4h10.5v6.3h-10.5zM10.835 107.1h10.5v6.3h-10.5zM134.735 92.4h10.5v6.3h-10.5zM134.735 107.1h10.5v6.3h-10.5z" fill="#0F436B"/><path d="M834.435 113.925v2.1c-7.966-.888-12.166.512-12.6 4.2-.578 4.914 6.5 5.88 9.56 10.451a12.556 12.556 0 013.04 8.21c0 6.96-5.64 12.6-12.6 12.6-6.958 0-12.6-5.64-12.6-12.6 0-.629.046-1.247.136-1.852a6.715 6.715 0 01-.136-.009c.062-5.196 1.112-9.396 3.15-12.6 3.058-4.806 6.3-9.45 11.55-10.5 3.5-.7 7-.7 10.5 0z" fill="url(#p)" filter="url(#q)" transform="translate(-792.1)"/><path d="M834.435 55.125v2.1c-7.966-.888-12.166.512-12.6 4.2-.578 4.914 6.5 5.88 9.56 10.451a12.556 12.556 0 013.04 8.21c0 6.96-5.64 12.6-12.6 12.6-6.958 0-12.6-5.64-12.6-12.6 0-.629.046-1.247.136-1.852a6.714 6.714 0 01-.136-.009c.062-5.196 1.112-9.396 3.15-12.6 3.058-4.806 6.3-9.45 11.55-10.5 3.5-.7 7-.7 10.5 0z" fill="url(#p)" filter="url(#r)" transform="matrix(1 0 0 -1 -792.1 147.286)"/><path d="M856.485 57.75a5.25 5.25 0 015.224 4.725h.026V86.1a3.15 3.15 0 003.15 3.15v2.1a5.25 5.25 0 01-5.221-4.698 2.059 2.059 0 01-.029-.352V63a3.15 3.15 0 10-6.3 0c0 1.4.7 2.8 2.1 4.2h-6.3c1.4-1.4 2.1-2.8 2.1-4.2l.005-.216a5.25 5.25 0 015.245-5.034z" fill="url(#s)" filter="url(#t)" transform="translate(-792.1)"/><path d="M856.485 114.45a5.25 5.25 0 015.224 4.725h.026V142.8a3.15 3.15 0 003.15 3.15v2.1a5.25 5.25 0 01-5.221-4.698 2.059 2.059 0 01-.029-.352v-23.3a3.15 3.15 0 10-6.3 0c0 1.4.7 2.8 2.1 4.2h-6.3c1.4-1.4 2.1-2.8 2.1-4.2l.005-.216a5.25 5.25 0 015.245-5.034z" fill="url(#s)" filter="url(#u)" transform="matrix(1 0 0 -1 -792.1 262.5)"/><path d="M887.985 114.45a5.25 5.25 0 015.224 4.725h.026V142.8a3.15 3.15 0 003.15 3.15v2.1a5.25 5.25 0 01-5.221-4.698 2.059 2.059 0 01-.029-.352v-23.3a3.15 3.15 0 10-6.3 0c0 1.4.7 2.8 2.1 4.2h-6.3c1.4-1.4 2.1-2.8 2.1-4.2l.005-.216a5.25 5.25 0 015.245-5.034z" fill="url(#s)" filter="url(#v)" transform="matrix(1 0 0 -1 -792.1 262.5)"/><path d="M887.985 57.75a5.25 5.25 0 015.224 4.725h.026V86.1a3.15 3.15 0 003.15 3.15v2.1a5.25 5.25 0 01-5.221-4.698 2.059 2.059 0 01-.029-.352V63a3.15 3.15 0 10-6.3 0c0 1.4.7 2.8 2.1 4.2h-6.3c1.4-1.4 2.1-2.8 2.1-4.2l.005-.216a5.25 5.25 0 015.245-5.034z" fill="url(#s)" filter="url(#w)" transform="translate(-792.1)"/><path d="M945.735 50.4c6.96 0 12.6 5.641 12.6 12.6s-5.64 12.6-12.6 12.6c-6.958 0-12.6-5.641-12.6-12.6 0-1.13.15-2.225.428-3.267a9.436 9.436 0 00-7.778-4.083c-4.79 0-8.748 3.564-9.366 8.185.222 1.122.895 2.243 2.016 3.365h-6.3c1.4-1.4 2.1-2.8 2.1-4.2h.19c.988-5.376 5.699-9.45 11.36-9.45 3.438 0 6.526 1.502 8.642 3.886a12.602 12.602 0 0111.308-7.036z" fill="url(#x)" filter="url(#y)" transform="translate(-792.1)"/><path d="M955.185 131.306c1.632 2.124 3.15 10.765 3.15 13.65 0 6.96-5.64 12.6-12.6 12.6-6.958 0-12.6-5.64-12.6-12.6 0-.799.113-2.027.31-3.434a9.435 9.435 0 00-7.66-3.916c-4.79 0-8.748 3.564-9.366 8.185.222 1.122.895 2.244 2.016 3.365h-6.3c1.4-1.4 2.1-2.8 2.1-4.2h.19c.988-5.376 5.699-9.45 11.36-9.45 3.16 0 6.022 1.269 8.108 3.324.59-3.113 1.466-6.33 2.392-7.524 2.306-2.967 5.402 1.05 9.45 1.05 4.074 0 7.147-4.049 9.45-1.05z" fill="url(#z)" filter="url(#A)" transform="matrix(1 0 0 -1 -792.1 287.756)"/><path d="M832.085 13.9h-22.6V47h22.6V13.9z" stroke="#636262" stroke-width=".5" fill="url(#B)" fill-rule="nonzero" transform="rotate(90 424.735 -365.6)"/><path d="M957.035 168.25h-22.6v33.1h22.6v-33.1z" stroke="#636262" stroke-width=".5" fill="url(#B)" fill-rule="nonzero" transform="rotate(90 549.685 -211.25)"/><path d="M809.485 31.827v41.346l22.6-6.164V37.991l-22.6-6.164z" stroke="#636262" stroke-width=".5" fill="url(#C)" fill-rule="nonzero" transform="rotate(90 424.735 -343.55)"/><path d="M934.435 143.127v41.346l22.6-6.164v-29.018l-22.6-6.164z" stroke="#636262" stroke-width=".5" fill="url(#C)" fill-rule="nonzero" transform="matrix(0 -1 -1 0 317.435 1109.535)"/><path d="M470.4 27.299V26.6a3.5 3.5 0 013.5-3.5h7.7a3.5 3.5 0 013.5 3.5v.699l10.5.001v16.8l-10.5-.001v.701a3.5 3.5 0 01-3.5 3.5h-7.7a3.5 3.5 0 01-3.5-3.5v-.701H279.3v.701a3.5 3.5 0 01-3.5 3.5h-7.7a3.5 3.5 0 01-3.5-3.5v-.701L0 44.1V27.3l264.6-.001V26.6a3.5 3.5 0 013.5-3.5h7.7a3.5 3.5 0 013.5 3.5v.699h191.1z" stroke="#636262" stroke-width=".5" fill="url(#D)" fill-rule="nonzero" transform="translate(-110.965 67.2)"/><g stroke-width=".5"><path d="M12.6 0h10.5v70.35H12.6c0-11.2-1.4-16.8-4.2-16.8H0v-33.6H8.4c2.8 0 4.2-6.65 4.2-19.95z" stroke="#636262" fill="url(#E)" fill-rule="nonzero" transform="translate(42.335 67.2)"/><path stroke="#636262" fill-opacity=".04" fill="#000" opacity=".5" d="M54.935 89.25h10.5v12.6h-10.5zM54.935 101.85h10.5v12.6h-10.5z"/><path stroke="#636262" fill-opacity=".06" fill="#000" opacity=".5" d="M54.935 80.85h10.5v8.4h-10.5zM54.935 114.45h10.5v8.4h-10.5z"/><path stroke="#636262" fill-opacity=".08" fill="#000" opacity=".5" d="M54.935 74.55h10.5v6.3h-10.5zM54.935 122.85h10.5v6.3h-10.5z"/><path stroke="#636262" fill-opacity=".104" fill="#000" opacity=".5" d="M54.935 70.35h10.5v4.2h-10.5z"/><path stroke="#636262" fill-opacity=".1" fill="#000" opacity=".7" d="M54.935 129.15h10.5v5.25h-10.5z"/><path stroke="url(#F)" stroke-linecap="square" d="M2.1 53.55v-33.6M4.2 53.55v-33.6M6.3 53.55v-33.6" transform="translate(42.335 67.2)"/><path stroke="url(#G)" stroke-linecap="square" d="M8.4 53.55v-33.6" transform="translate(42.335 67.2)"/></g><path d="M168.335 90.3v8.4h-4.2v-8.4h4.2zm-10.5 0v8.4h-4.2v-8.4h4.2zM168.335 115.5v-8.4h-4.2v8.4h4.2zm-10.5 0v-8.4h-4.2v8.4h4.2zM10.835 92.4h10.5v6.3h-10.5zM10.835 107.1h10.5v6.3h-10.5zM134.735 92.4h10.5v6.3h-10.5zM134.735 107.1h10.5v6.3h-10.5z" fill="#0F436B"/><g stroke-width=".5"><path d="M12.6 0h10.5v70.35H12.6c0-11.2-1.4-16.8-4.2-16.8H0v-33.6H8.4c2.8 0 4.2-6.65 4.2-19.95z" stroke="#636262" fill="url(#E)" fill-rule="nonzero" transform="translate(105.335 67.2)"/><path stroke="#636262" fill-opacity=".04" fill="#000" opacity=".5" d="M117.935 89.25h10.5v12.6h-10.5zM117.935 101.85h10.5v12.6h-10.5z"/><path stroke="#636262" fill-opacity=".06" fill="#000" opacity=".5" d="M117.935 80.85h10.5v8.4h-10.5zM117.935 114.45h10.5v8.4h-10.5z"/><path stroke="#636262" fill-opacity=".08" fill="#000" opacity=".5" d="M117.935 74.55h10.5v6.3h-10.5zM117.935 122.85h10.5v6.3h-10.5z"/><path stroke="#636262" fill-opacity=".104" fill="#000" opacity=".5" d="M117.935 70.35h10.5v4.2h-10.5z"/><path stroke="#636262" fill-opacity=".1" fill="#000" opacity=".7" d="M117.935 129.15h10.5v5.25h-10.5z"/><path stroke="url(#F)" stroke-linecap="square" d="M2.1 53.55v-33.6M4.2 53.55v-33.6M6.3 53.55v-33.6" transform="translate(105.335 67.2)"/><path stroke="url(#G)" stroke-linecap="square" d="M8.4 53.55v-33.6" transform="translate(105.335 67.2)"/></g><g stroke-width=".5"><path d="M12.6 0h10.5v70.35H12.6c0-11.2-1.4-16.8-4.2-16.8H0v-33.6H8.4c2.8 0 4.2-6.65 4.2-19.95z" stroke="#636262" fill="url(#E)" fill-rule="nonzero" transform="translate(73.835 67.2)"/><path stroke="#636262" fill-opacity=".04" fill="#000" opacity=".5" d="M86.435 89.25h10.5v12.6h-10.5zM86.435 101.85h10.5v12.6h-10.5z"/><path stroke="#636262" fill-opacity=".06" fill="#000" opacity=".5" d="M86.435 80.85h10.5v8.4h-10.5zM86.435 114.45h10.5v8.4h-10.5z"/><path stroke="#636262" fill-opacity=".08" fill="#000" opacity=".5" d="M86.435 74.55h10.5v6.3h-10.5zM86.435 122.85h10.5v6.3h-10.5z"/><path stroke="#636262" fill-opacity=".104" fill="#000" opacity=".5" d="M86.435 70.35h10.5v4.2h-10.5z"/><path stroke="#636262" fill-opacity=".1" fill="#000" opacity=".7" d="M86.435 129.15h10.5v5.25h-10.5z"/><path stroke="url(#F)" stroke-linecap="square" d="M2.1 53.55v-33.6M4.2 53.55v-33.6M6.3 53.55v-33.6" transform="translate(73.835 67.2)"/><path stroke="url(#G)" stroke-linecap="square" d="M8.4 53.55v-33.6" transform="translate(73.835 67.2)"/></g></g></g></svg>