<svg width="193" height="153" xmlns="http://www.w3.org/2000/svg" xmlns:xlink="http://www.w3.org/1999/xlink"><defs><linearGradient x1="50.034%" y1="99.984%" x2="50.034%" y2="-.004%" id="c"><stop stop-color="#8B878D" offset="0%"/><stop stop-color="#9F9CA1" offset="13.66%"/><stop stop-color="#D9D8DA" offset="42.07%"/><stop stop-color="#F3F4F4" offset="51.52%"/><stop stop-color="#807B80" offset="100%"/></linearGradient><linearGradient x1="50.034%" y1="99.984%" x2="50.034%" y2="-.004%" id="d"><stop stop-color="#8B878D" offset="0%"/><stop stop-color="#9F9CA1" offset="13.66%"/><stop stop-color="#D9D8DA" offset="42.07%"/><stop stop-color="#F3F4F4" offset="51.52%"/><stop stop-color="#807B80" offset="100%"/></linearGradient><linearGradient x1="50%" y1="0%" x2="50%" y2="100%" id="e"><stop stop-color="#636262" stop-opacity=".4" offset="0%"/><stop stop-color="#636262" offset="46.746%"/><stop stop-color="#636262" stop-opacity=".4" offset="100%"/></linearGradient><linearGradient x1="50%" y1="0%" x2="50%" y2="100%" id="f"><stop stop-color="#636262" stop-opacity=".401" offset="0%"/><stop stop-color="#636262" offset="46.746%"/><stop stop-color="#636262" stop-opacity=".4" offset="100%"/></linearGradient><linearGradient x1="50.034%" y1="99.984%" x2="50.034%" y2="-.004%" id="g"><stop stop-color="#B8B6BA" offset="0%"/><stop stop-color="#F3F4F4" offset="51.52%"/><stop stop-color="#BEBCBE" offset="100%"/></linearGradient><linearGradient x1="50.034%" y1="99.984%" x2="50.034%" y2="-.004%" id="i"><stop stop-color="#8B878D" offset="0%"/><stop stop-color="#9F9CA1" offset="13.66%"/><stop stop-color="#D9D8DA" offset="42.07%"/><stop stop-color="#F3F4F4" offset="51.52%"/><stop stop-color="#807B80" offset="100%"/></linearGradient><path id="a" d="M0 .6h193v153H0z"/><path id="h" d="M0 0h12.56v41.864H0z"/><path id="k" d="M0 0h12.56v41.864H0z"/></defs><g transform="translate(0 .4)" fill="none" fill-rule="evenodd"><mask id="b" fill="#fff"><use xlink:href="#a"/></mask><g mask="url(#b)"><path d="M167.422 23.025a3.5 3.5 0 013.5 3.5v.69l15.073-.003v16.745l-15.073.002v.684a3.5 3.5 0 01-3.5 3.5h-7.652a3.5 3.5 0 01-3.5-3.5v-.682l-112.32.02V27.237l112.32-.02v-.69a3.5 3.5 0 013.5-3.5h7.652z" stroke="#636262" stroke-width=".5" fill="url(#c)" fill-rule="nonzero" transform="translate(0 41.172)"/><g stroke-width=".5"><path d="M12.56 0h10.465v70.122H12.56c0-11.164-1.395-16.746-4.186-16.746H0v-33.49h8.373c2.79 0 4.186-6.63 4.186-19.886z" stroke="#636262" fill="url(#d)" fill-rule="nonzero" transform="translate(106.356 41.172)"/><path stroke="#636262" fill-opacity=".04" fill="#000" opacity=".5" d="M118.915 63.15h10.466v12.56h-10.466zM118.915 75.71h10.466v12.559h-10.466z"/><path stroke="#636262" fill-opacity=".06" fill="#000" opacity=".5" d="M118.915 54.778h10.466v8.373h-10.466zM118.915 88.269h10.466v8.373h-10.466z"/><path stroke="#636262" fill-opacity=".08" fill="#000" opacity=".5" d="M118.915 48.498h10.466v6.28h-10.466zM118.915 96.642h10.466v6.28h-10.466z"/><path stroke="#636262" fill-opacity=".104" fill="#000" opacity=".5" d="M118.915 44.312h10.466v4.186h-10.466z"/><path stroke="#636262" fill-opacity=".1" fill="#000" opacity=".7" d="M118.915 102.92h10.466v5.234h-10.466z"/><path stroke="url(#e)" stroke-linecap="square" d="M2.093 53.376V19.885M4.186 53.376V19.885M6.28 53.376V19.885" transform="translate(106.356 41.172)"/><path stroke="url(#f)" stroke-linecap="square" d="M8.373 53.376V19.885" transform="translate(106.356 41.172)"/></g><path d="M170.453 64.197v8.372h-4.187v-8.372h4.187zm-10.466 0v8.372H155.8v-8.372h4.187zM170.453 89.315v-8.373h-4.187v8.373h4.187zm-10.466 0v-8.373H155.8v8.373h4.187zM74.469 66.29h10.466v6.28H74.469zM74.469 80.943h10.466v6.28H74.469zM136.962 66.29h10.466v6.28h-10.466zM136.962 80.943h10.466v6.28h-10.466z" fill="#004C97"/><path d="M0 27.427h24.119a4 4 0 014 4v8.745a4 4 0 01-4 4H0" stroke="#636262" stroke-width=".5" fill="url(#g)" fill-rule="nonzero" transform="translate(0 41.172)"/><g transform="translate(20.142 56.04)"><mask id="j" fill="#fff"><use xlink:href="#h"/></mask><use fill="url(#i)" fill-rule="nonzero" xlink:href="#h"/><path fill="#7F7F7F" fill-rule="nonzero" mask="url(#j)" transform="matrix(-1 0 0 1 11.45 0)" d="M-7.058-2.093l-.617.74 26.183 31.42.617-.74zM-7.058 2.093l-.617.74 26.183 31.42.617-.74zM-7.058 6.28l-.617.74 26.183 31.42.617-.74zM-7.058 10.466l-.617.74 26.183 31.42.617-.74zM-7.058 14.652l-.617.74 26.183 31.42.617-.74zM-7.058 18.839l-.617.74 26.183 31.42.617-.74zM-7.058 23.025l-.617.74 26.183 31.42.617-.74zM-7.058 27.212l-.617.74 26.183 31.42.617-.74zM-7.058-6.28l-.617.74 26.183 31.42.617-.74zM-7.058-10.466l-.617.74 26.183 31.42.617-.74zM-7.058-14.652l-.617.74 26.183 31.42.617-.74zM-7.058-18.839l-.617.74 26.183 31.42.617-.74z"/></g><path stroke="#636262" stroke-width=".5" d="M20.142 56.04H32.7v41.863H20.14z"/><g><g transform="translate(31.605 56.04)"><mask id="l" fill="#fff"><use xlink:href="#k"/></mask><use fill="url(#i)" fill-rule="nonzero" xlink:href="#k"/><path fill="#7F7F7F" fill-rule="nonzero" mask="url(#l)" transform="matrix(-1 0 0 1 11.45 0)" d="M-7.058-2.093l-.617.74 26.183 31.42.617-.74zM-7.058 2.093l-.617.74 26.183 31.42.617-.74zM-7.058 6.28l-.617.74 26.183 31.42.617-.74zM-7.058 10.466l-.617.74 26.183 31.42.617-.74zM-7.058 14.652l-.617.74 26.183 31.42.617-.74zM-7.058 18.839l-.617.74 26.183 31.42.617-.74zM-7.058 23.025l-.617.74 26.183 31.42.617-.74zM-7.058 27.212l-.617.74 26.183 31.42.617-.74zM-7.058-6.28l-.617.74 26.183 31.42.617-.74zM-7.058-10.466l-.617.74 26.183 31.42.617-.74zM-7.058-14.652l-.617.74 26.183 31.42.617-.74zM-7.058-18.839l-.617.74 26.183 31.42.617-.74z"/></g><path stroke="#636262" stroke-width=".5" d="M31.605 56.04h12.56v41.863h-12.56z"/></g></g></g></svg>