<svg width="197" height="193" xmlns="http://www.w3.org/2000/svg" xmlns:xlink="http://www.w3.org/1999/xlink"><defs><linearGradient x1="50.034%" y1="99.984%" x2="50.034%" y2="-.004%" id="c"><stop stop-color="#8B878D" offset="0%"/><stop stop-color="#9F9CA1" offset="13.66%"/><stop stop-color="#D9D8DA" offset="42.07%"/><stop stop-color="#F3F4F4" offset="51.52%"/><stop stop-color="#807B80" offset="100%"/></linearGradient><linearGradient x1="50.034%" y1="99.984%" x2="50.034%" y2="-.004%" id="d"><stop stop-color="#8B878D" offset="0%"/><stop stop-color="#9F9CA1" offset="13.66%"/><stop stop-color="#D9D8DA" offset="42.07%"/><stop stop-color="#F3F4F4" offset="51.52%"/><stop stop-color="#807B80" offset="100%"/></linearGradient><linearGradient x1="50%" y1="0%" x2="50%" y2="100%" id="e"><stop stop-color="#636262" stop-opacity=".4" offset="0%"/><stop stop-color="#636262" offset="46.746%"/><stop stop-color="#636262" stop-opacity=".4" offset="100%"/></linearGradient><linearGradient x1="50%" y1="0%" x2="50%" y2="100%" id="f"><stop stop-color="#636262" stop-opacity=".401" offset="0%"/><stop stop-color="#636262" offset="46.746%"/><stop stop-color="#636262" stop-opacity=".4" offset="100%"/></linearGradient><path id="a" d="M0 0h197v273H0z"/></defs><g transform="translate(0 -10)" fill="none" fill-rule="evenodd"><mask id="b" fill="#fff"><use xlink:href="#a"/></mask><g mask="url(#b)"><path d="M470.4 27.299V26.6a3.5 3.5 0 013.5-3.5h7.7a3.5 3.5 0 013.5 3.5v.699l10.5.001v16.8l-10.5-.001v.701a3.5 3.5 0 01-3.5 3.5h-7.7a3.5 3.5 0 01-3.5-3.5v-.701H279.3v.701a3.5 3.5 0 01-3.5 3.5h-7.7a3.5 3.5 0 01-3.5-3.5v-.701L0 44.1V27.3l264.6-.001V26.6a3.5 3.5 0 013.5-3.5h7.7a3.5 3.5 0 013.5 3.5v.699h191.1z" stroke="#636262" stroke-width=".5" fill="url(#c)" fill-rule="nonzero" transform="translate(-303.965 67.2)"/><path d="M181.135 90.3v8.4h-4.2v-8.4h4.2zm-10.5 0v8.4h-4.2v-8.4h4.2zM181.135 115.5v-8.4h-4.2v8.4h4.2zm-10.5 0v-8.4h-4.2v8.4h4.2zM23.635 92.4h10.5v6.3h-10.5zM23.635 107.1h10.5v6.3h-10.5zM147.535 92.4h10.5v6.3h-10.5zM147.535 107.1h10.5v6.3h-10.5z" fill="#004C97"/><g stroke-width=".5"><path d="M12.6 0h10.5v70.35H12.6c0-11.2-1.4-16.8-4.2-16.8H0v-33.6H8.4c2.8 0 4.2-6.65 4.2-19.95z" stroke="#636262" fill="url(#d)" fill-rule="nonzero" transform="translate(118.135 67.2)"/><path stroke="#636262" fill-opacity=".04" fill="#000" opacity=".5" d="M130.735 89.25h10.5v12.6h-10.5zM130.735 101.85h10.5v12.6h-10.5z"/><path stroke="#636262" fill-opacity=".06" fill="#000" opacity=".5" d="M130.735 80.85h10.5v8.4h-10.5zM130.735 114.45h10.5v8.4h-10.5z"/><path stroke="#636262" fill-opacity=".08" fill="#000" opacity=".5" d="M130.735 74.55h10.5v6.3h-10.5zM130.735 122.85h10.5v6.3h-10.5z"/><path stroke="#636262" fill-opacity=".104" fill="#000" opacity=".5" d="M130.735 70.35h10.5v4.2h-10.5z"/><path stroke="#636262" fill-opacity=".1" fill="#000" opacity=".7" d="M130.735 129.15h10.5v5.25h-10.5z"/><path stroke="url(#e)" stroke-linecap="square" d="M2.1 53.55v-33.6M4.2 53.55v-33.6M6.3 53.55v-33.6" transform="translate(118.135 67.2)"/><path stroke="url(#f)" stroke-linecap="square" d="M8.4 53.55v-33.6" transform="translate(118.135 67.2)"/></g><g stroke-width=".5"><path d="M12.6 0h10.5v70.35H12.6c0-11.2-1.4-16.8-4.2-16.8H0v-33.6H8.4c2.8 0 4.2-6.65 4.2-19.95z" stroke="#636262" fill="url(#d)" fill-rule="nonzero" transform="translate(86.635 67.2)"/><path stroke="#636262" fill-opacity=".04" fill="#000" opacity=".5" d="M99.235 89.25h10.5v12.6h-10.5zM99.235 101.85h10.5v12.6h-10.5z"/><path stroke="#636262" fill-opacity=".06" fill="#000" opacity=".5" d="M99.235 80.85h10.5v8.4h-10.5zM99.235 114.45h10.5v8.4h-10.5z"/><path stroke="#636262" fill-opacity=".08" fill="#000" opacity=".5" d="M99.235 74.55h10.5v6.3h-10.5zM99.235 122.85h10.5v6.3h-10.5z"/><path stroke="#636262" fill-opacity=".104" fill="#000" opacity=".5" d="M99.235 70.35h10.5v4.2h-10.5z"/><path stroke="#636262" fill-opacity=".1" fill="#000" opacity=".7" d="M99.235 129.15h10.5v5.25h-10.5z"/><path stroke="url(#e)" stroke-linecap="square" d="M2.1 53.55v-33.6M4.2 53.55v-33.6M6.3 53.55v-33.6" transform="translate(86.635 67.2)"/><path stroke="url(#f)" stroke-linecap="square" d="M8.4 53.55v-33.6" transform="translate(86.635 67.2)"/></g><g stroke-width=".5"><path d="M12.6 0h10.5v70.35H12.6c0-11.2-1.4-16.8-4.2-16.8H0v-33.6H8.4c2.8 0 4.2-6.65 4.2-19.95z" stroke="#636262" fill="url(#d)" fill-rule="nonzero" transform="translate(55.135 67.2)"/><path stroke="#636262" fill-opacity=".04" fill="#000" opacity=".5" d="M67.735 89.25h10.5v12.6h-10.5zM67.735 101.85h10.5v12.6h-10.5z"/><path stroke="#636262" fill-opacity=".06" fill="#000" opacity=".5" d="M67.735 80.85h10.5v8.4h-10.5zM67.735 114.45h10.5v8.4h-10.5z"/><path stroke="#636262" fill-opacity=".08" fill="#000" opacity=".5" d="M67.735 74.55h10.5v6.3h-10.5zM67.735 122.85h10.5v6.3h-10.5z"/><path stroke="#636262" fill-opacity=".104" fill="#000" opacity=".5" d="M67.735 70.35h10.5v4.2h-10.5z"/><path stroke="#636262" fill-opacity=".1" fill="#000" opacity=".7" d="M67.735 129.15h10.5v5.25h-10.5z"/><path stroke="url(#e)" stroke-linecap="square" d="M2.1 53.55v-33.6M4.2 53.55v-33.6M6.3 53.55v-33.6" transform="translate(55.135 67.2)"/><path stroke="url(#f)" stroke-linecap="square" d="M8.4 53.55v-33.6" transform="translate(55.135 67.2)"/></g></g></g></svg>