<svg width="219" height="178" xmlns="http://www.w3.org/2000/svg" xmlns:xlink="http://www.w3.org/1999/xlink"><defs><linearGradient x1="50.034%" y1="99.984%" x2="50.034%" y2="-.004%" id="c"><stop stop-color="#8B878D" offset="0%"/><stop stop-color="#9F9CA1" offset="13.66%"/><stop stop-color="#D9D8DA" offset="42.07%"/><stop stop-color="#F3F4F4" offset="51.52%"/><stop stop-color="#807B80" offset="100%"/></linearGradient><linearGradient x1="50.034%" y1="99.984%" x2="50.034%" y2="-.004%" id="d"><stop stop-color="#8B878D" offset="0%"/><stop stop-color="#9F9CA1" offset="13.66%"/><stop stop-color="#D9D8DA" offset="42.07%"/><stop stop-color="#F3F4F4" offset="51.52%"/><stop stop-color="#807B80" offset="100%"/></linearGradient><linearGradient x1="50%" y1="0%" x2="50%" y2="100%" id="e"><stop stop-color="#636262" stop-opacity=".4" offset="0%"/><stop stop-color="#636262" offset="46.746%"/><stop stop-color="#636262" stop-opacity=".4" offset="100%"/></linearGradient><linearGradient x1="50%" y1="0%" x2="50%" y2="100%" id="f"><stop stop-color="#636262" stop-opacity=".401" offset="0%"/><stop stop-color="#636262" offset="46.746%"/><stop stop-color="#636262" stop-opacity=".4" offset="100%"/></linearGradient><linearGradient x1="50.034%" y1="99.984%" x2="50.034%" y2="-.004%" id="g"><stop stop-color="#8B878D" offset="0%"/><stop stop-color="#9F9CA1" offset="13.66%"/><stop stop-color="#D9D8DA" offset="42.07%"/><stop stop-color="#F3F4F4" offset="51.52%"/><stop stop-color="#807B80" offset="100%"/></linearGradient><linearGradient x1="50.034%" y1="99.984%" x2="50.034%" y2="-.004%" id="i"><stop stop-color="#8B878D" offset="0%"/><stop stop-color="#9F9CA1" offset="13.66%"/><stop stop-color="#D9D8DA" offset="42.07%"/><stop stop-color="#F3F4F4" offset="51.52%"/><stop stop-color="#807B80" offset="100%"/></linearGradient><path id="a" d="M0 0h219v310H0z"/><path id="h" d="M0 0h12.644v42.147H0z"/><path id="k" d="M0 0h12.644v42.147H0z"/></defs><g transform="translate(0 -91)" fill="none" fill-rule="evenodd"><mask id="b" fill="#fff"><use xlink:href="#a"/></mask><g mask="url(#b)"><path d="M163.855 24.65a3.5 3.5 0 013.5 3.5l-.001.715h17.198v16.858l-17.198.001v.713a3.5 3.5 0 01-3.5 3.5h-7.75a3.5 3.5 0 01-3.5-3.5l-.001-.71L0 45.746V28.89l152.603-.022v-.718a3.5 3.5 0 013.5-3.5h7.752z" stroke="#636262" stroke-width=".5" fill="url(#c)" fill-rule="nonzero" transform="translate(32.887 137.051)"/><g stroke-width=".5"><path d="M12.644 0h10.537v70.596H12.644c0-11.24-1.405-16.859-4.215-16.859H0V20.02H8.429c2.81 0 4.215-6.673 4.215-20.02z" stroke="#636262" fill="url(#d)" fill-rule="nonzero" transform="translate(135.954 138.52)"/><path stroke="#636262" fill-opacity=".04" fill="#000" opacity=".5" d="M148.598 160.647h10.537v12.644h-10.537z"/><path stroke="#636262" fill-opacity=".04" fill="#000" opacity=".5" d="M148.598 173.29h10.537v12.645h-10.537z"/><path stroke="#636262" fill-opacity=".06" fill="#000" opacity=".5" d="M148.598 152.218h10.537v8.429h-10.537zM148.598 185.935h10.537v8.429h-10.537z"/><path stroke="#636262" fill-opacity=".08" fill="#000" opacity=".5" d="M148.598 145.896h10.537v6.322h-10.537zM148.598 194.365h10.537v6.322h-10.537z"/><path stroke="#636262" fill-opacity=".104" fill="#000" opacity=".5" d="M148.598 141.68h10.537v4.216h-10.537z"/><path stroke="#636262" fill-opacity=".1" fill="#000" opacity=".7" d="M148.598 200.687h10.537v5.268h-10.537z"/><path stroke="url(#e)" stroke-linecap="square" d="M2.107 53.737V20.02M4.215 53.737V20.02M6.322 53.737V20.02" transform="translate(135.954 138.52)"/><path stroke="url(#f)" stroke-linecap="square" d="M8.429 53.737V20.02" transform="translate(135.954 138.52)"/></g><path d="M200.241 161.7v8.43h-4.215v-8.43h4.215zm-10.537 0v8.43h-4.214v-8.43h4.214zM200.241 186.989v-8.43h-4.215v8.43h4.215zm-10.537 0v-8.43h-4.214v8.43h4.214zM73.2 163.808h10.537v6.322H73.2zM73.2 178.56h10.537v6.321H73.2zM166.315 163.808h10.537v6.322h-10.537zM166.315 178.56h10.537v6.321h-10.537z" fill="#0F436B"/><g stroke-width=".5"><path d="M12.644 0h10.537v70.596H12.644c0-11.24-1.405-16.859-4.215-16.859H0V20.02H8.429c2.81 0 4.215-6.673 4.215-20.02z" stroke="#636262" fill="url(#d)" fill-rule="nonzero" transform="translate(105.593 138.52)"/><path stroke="#636262" fill-opacity=".04" fill="#000" opacity=".5" d="M118.237 160.647h10.537v12.644h-10.537z"/><path stroke="#636262" fill-opacity=".04" fill="#000" opacity=".5" d="M118.237 173.29h10.537v12.645h-10.537z"/><path stroke="#636262" fill-opacity=".06" fill="#000" opacity=".5" d="M118.237 152.218h10.537v8.429h-10.537zM118.237 185.935h10.537v8.429h-10.537z"/><path stroke="#636262" fill-opacity=".08" fill="#000" opacity=".5" d="M118.237 145.896h10.537v6.322h-10.537zM118.237 194.365h10.537v6.322h-10.537z"/><path stroke="#636262" fill-opacity=".104" fill="#000" opacity=".5" d="M118.237 141.68h10.537v4.216h-10.537z"/><path stroke="#636262" fill-opacity=".1" fill="#000" opacity=".7" d="M118.237 200.687h10.537v5.268h-10.537z"/><path stroke="url(#e)" stroke-linecap="square" d="M2.107 53.737V20.02M4.215 53.737V20.02M6.322 53.737V20.02" transform="translate(105.593 138.52)"/><path stroke="url(#f)" stroke-linecap="square" d="M8.429 53.737V20.02" transform="translate(105.593 138.52)"/></g><g><path d="M197.037 71.846l6.322 8.429h7.375V76.06h14.752v4.215h51.552a4 4 0 014 4v8.859a4 4 0 01-4 4h-51.552v4.214h-14.752v-4.214h-7.375l-6.322 8.43h-46.362l-6.322-8.43h-26.556a4 4 0 01-4-4v-8.859a4 4 0 014-4h26.556l6.322-8.43h46.362z" stroke="#636262" stroke-width=".5" fill="url(#g)" fill-rule="nonzero" transform="translate(-249.948 86.324)"/><g transform="translate(16.667 153.954)"><mask id="j" fill="#fff"><use xlink:href="#h"/></mask><use fill="url(#i)" fill-rule="nonzero" xlink:href="#h"/><path fill="#7F7F7F" fill-rule="nonzero" mask="url(#j)" transform="matrix(-1 0 0 1 11.527 0)" d="M-7.106-2.107l-.62.745 26.36 31.632.62-.745zM-7.106 2.107l-.62.745 26.36 31.633.62-.746zM-7.106 6.322l-.62.745L18.633 38.7l.62-.745zM-7.106 10.537l-.62.745 26.36 31.632.62-.745zM-7.106 14.751l-.62.745 26.36 31.633.62-.745zM-7.106 18.966l-.62.745 26.36 31.632.62-.745zM-7.106 23.18l-.62.746 26.36 31.632.62-.745zM-7.106 27.395l-.62.746 26.36 31.632.62-.745zM-7.106-6.322l-.62.745 26.36 31.632.62-.745zM-7.106-10.537l-.62.745 26.36 31.632.62-.745zM-7.106-14.751l-.62.745 26.36 31.632.62-.745zM-7.106-18.966l-.62.745 26.36 31.632.62-.745z"/></g><path stroke="#636262" stroke-width=".5" d="M16.667 153.954h12.644v42.147H16.667z"/><g><g transform="translate(28.208 153.954)"><mask id="l" fill="#fff"><use xlink:href="#k"/></mask><use fill="url(#i)" fill-rule="nonzero" xlink:href="#k"/><path fill="#7F7F7F" fill-rule="nonzero" mask="url(#l)" transform="matrix(-1 0 0 1 11.527 0)" d="M-7.106-2.107l-.62.745 26.36 31.632.62-.745zM-7.106 2.107l-.62.745 26.36 31.633.62-.746zM-7.106 6.322l-.62.745L18.633 38.7l.62-.745zM-7.106 10.537l-.62.745 26.36 31.632.62-.745zM-7.106 14.751l-.62.745 26.36 31.633.62-.745zM-7.106 18.966l-.62.745 26.36 31.632.62-.745zM-7.106 23.18l-.62.746 26.36 31.632.62-.745zM-7.106 27.395l-.62.746 26.36 31.632.62-.745zM-7.106-6.322l-.62.745 26.36 31.632.62-.745zM-7.106-10.537l-.62.745 26.36 31.632.62-.745zM-7.106-14.751l-.62.745 26.36 31.632.62-.745zM-7.106-18.966l-.62.745 26.36 31.632.62-.745z"/></g><path stroke="#636262" stroke-width=".5" d="M28.208 153.954h12.644v42.147H28.208z"/></g></g></g></g></svg>