<svg width="193" height="193" xmlns="http://www.w3.org/2000/svg" xmlns:xlink="http://www.w3.org/1999/xlink"><defs><linearGradient x1="50.034%" y1="99.984%" x2="50.034%" y2="-.004%" id="c"><stop stop-color="#8B878D" offset="0%"/><stop stop-color="#9F9CA1" offset="13.66%"/><stop stop-color="#D9D8DA" offset="42.07%"/><stop stop-color="#F3F4F4" offset="51.52%"/><stop stop-color="#807B80" offset="100%"/></linearGradient><linearGradient x1="50.034%" y1="99.984%" x2="50.034%" y2="-.004%" id="d"><stop stop-color="#8B878D" offset="0%"/><stop stop-color="#9F9CA1" offset="13.66%"/><stop stop-color="#D9D8DA" offset="42.07%"/><stop stop-color="#F3F4F4" offset="51.52%"/><stop stop-color="#807B80" offset="100%"/></linearGradient><linearGradient x1="50%" y1="0%" x2="50%" y2="100%" id="e"><stop stop-color="#636262" stop-opacity=".4" offset="0%"/><stop stop-color="#636262" offset="46.746%"/><stop stop-color="#636262" stop-opacity=".4" offset="100%"/></linearGradient><linearGradient x1="50%" y1="0%" x2="50%" y2="100%" id="f"><stop stop-color="#636262" stop-opacity=".401" offset="0%"/><stop stop-color="#636262" offset="46.746%"/><stop stop-color="#636262" stop-opacity=".4" offset="100%"/></linearGradient><path id="a" d="M0 0h193v273H0z"/></defs><g transform="translate(0 -10)" fill="none" fill-rule="evenodd"><mask id="b" fill="#fff"><use xlink:href="#a"/></mask><g mask="url(#b)"><path d="M470.4 27.299V26.6a3.5 3.5 0 013.5-3.5h7.7a3.5 3.5 0 013.5 3.5v.699l10.5.001v16.8l-10.5-.001v.701a3.5 3.5 0 01-3.5 3.5h-7.7a3.5 3.5 0 01-3.5-3.5v-.701H279.3v.701a3.5 3.5 0 01-3.5 3.5h-7.7a3.5 3.5 0 01-3.5-3.5v-.701L0 44.1V27.3l264.6-.001V26.6a3.5 3.5 0 013.5-3.5h7.7a3.5 3.5 0 013.5 3.5v.699h191.1z" stroke="#636262" stroke-width=".5" fill="url(#c)" fill-rule="nonzero" transform="translate(-110.965 67.2)"/><g stroke-width=".5"><path d="M12.6 0h10.5v70.35H12.6c0-11.2-1.4-16.8-4.2-16.8H0v-33.6H8.4c2.8 0 4.2-6.65 4.2-19.95z" stroke="#636262" fill="url(#d)" fill-rule="nonzero" transform="translate(42.335 67.2)"/><path stroke="#636262" fill-opacity=".04" fill="#000" opacity=".5" d="M54.935 89.25h10.5v12.6h-10.5zM54.935 101.85h10.5v12.6h-10.5z"/><path stroke="#636262" fill-opacity=".06" fill="#000" opacity=".5" d="M54.935 80.85h10.5v8.4h-10.5zM54.935 114.45h10.5v8.4h-10.5z"/><path stroke="#636262" fill-opacity=".08" fill="#000" opacity=".5" d="M54.935 74.55h10.5v6.3h-10.5zM54.935 122.85h10.5v6.3h-10.5z"/><path stroke="#636262" fill-opacity=".104" fill="#000" opacity=".5" d="M54.935 70.35h10.5v4.2h-10.5z"/><path stroke="#636262" fill-opacity=".1" fill="#000" opacity=".7" d="M54.935 129.15h10.5v5.25h-10.5z"/><path stroke="url(#e)" stroke-linecap="square" d="M2.1 53.55v-33.6M4.2 53.55v-33.6M6.3 53.55v-33.6" transform="translate(42.335 67.2)"/><path stroke="url(#f)" stroke-linecap="square" d="M8.4 53.55v-33.6" transform="translate(42.335 67.2)"/></g><path d="M168.335 90.3v8.4h-4.2v-8.4h4.2zm-10.5 0v8.4h-4.2v-8.4h4.2zM168.335 115.5v-8.4h-4.2v8.4h4.2zm-10.5 0v-8.4h-4.2v8.4h4.2zM10.835 92.4h10.5v6.3h-10.5zM10.835 107.1h10.5v6.3h-10.5zM134.735 92.4h10.5v6.3h-10.5zM134.735 107.1h10.5v6.3h-10.5z" fill="#004C97"/><g stroke-width=".5"><path d="M12.6 0h10.5v70.35H12.6c0-11.2-1.4-16.8-4.2-16.8H0v-33.6H8.4c2.8 0 4.2-6.65 4.2-19.95z" stroke="#636262" fill="url(#d)" fill-rule="nonzero" transform="translate(105.335 67.2)"/><path stroke="#636262" fill-opacity=".04" fill="#000" opacity=".5" d="M117.935 89.25h10.5v12.6h-10.5zM117.935 101.85h10.5v12.6h-10.5z"/><path stroke="#636262" fill-opacity=".06" fill="#000" opacity=".5" d="M117.935 80.85h10.5v8.4h-10.5zM117.935 114.45h10.5v8.4h-10.5z"/><path stroke="#636262" fill-opacity=".08" fill="#000" opacity=".5" d="M117.935 74.55h10.5v6.3h-10.5zM117.935 122.85h10.5v6.3h-10.5z"/><path stroke="#636262" fill-opacity=".104" fill="#000" opacity=".5" d="M117.935 70.35h10.5v4.2h-10.5z"/><path stroke="#636262" fill-opacity=".1" fill="#000" opacity=".7" d="M117.935 129.15h10.5v5.25h-10.5z"/><path stroke="url(#e)" stroke-linecap="square" d="M2.1 53.55v-33.6M4.2 53.55v-33.6M6.3 53.55v-33.6" transform="translate(105.335 67.2)"/><path stroke="url(#f)" stroke-linecap="square" d="M8.4 53.55v-33.6" transform="translate(105.335 67.2)"/></g><g stroke-width=".5"><path d="M12.6 0h10.5v70.35H12.6c0-11.2-1.4-16.8-4.2-16.8H0v-33.6H8.4c2.8 0 4.2-6.65 4.2-19.95z" stroke="#636262" fill="url(#d)" fill-rule="nonzero" transform="translate(73.835 67.2)"/><path stroke="#636262" fill-opacity=".04" fill="#000" opacity=".5" d="M86.435 89.25h10.5v12.6h-10.5zM86.435 101.85h10.5v12.6h-10.5z"/><path stroke="#636262" fill-opacity=".06" fill="#000" opacity=".5" d="M86.435 80.85h10.5v8.4h-10.5zM86.435 114.45h10.5v8.4h-10.5z"/><path stroke="#636262" fill-opacity=".08" fill="#000" opacity=".5" d="M86.435 74.55h10.5v6.3h-10.5zM86.435 122.85h10.5v6.3h-10.5z"/><path stroke="#636262" fill-opacity=".104" fill="#000" opacity=".5" d="M86.435 70.35h10.5v4.2h-10.5z"/><path stroke="#636262" fill-opacity=".1" fill="#000" opacity=".7" d="M86.435 129.15h10.5v5.25h-10.5z"/><path stroke="url(#e)" stroke-linecap="square" d="M2.1 53.55v-33.6M4.2 53.55v-33.6M6.3 53.55v-33.6" transform="translate(73.835 67.2)"/><path stroke="url(#f)" stroke-linecap="square" d="M8.4 53.55v-33.6" transform="translate(73.835 67.2)"/></g></g></g></svg>