<svg width="193" height="153" xmlns="http://www.w3.org/2000/svg" xmlns:xlink="http://www.w3.org/1999/xlink"><defs><linearGradient x1="50.034%" y1="114.901%" x2="50.034%" y2="-16.677%" id="d"><stop stop-color="#363D43" offset="0%"/><stop stop-color="#82888D" offset="52.238%"/><stop stop-color="#363D43" offset="100%"/></linearGradient><linearGradient x1="50.034%" y1="99.984%" x2="50.034%" y2="-.004%" id="z"><stop stop-color="#8B878D" offset="0%"/><stop stop-color="#9F9CA1" offset="13.66%"/><stop stop-color="#D9D8DA" offset="42.07%"/><stop stop-color="#F3F4F4" offset="51.52%"/><stop stop-color="#807B80" offset="100%"/></linearGradient><linearGradient x1="50.034%" y1="99.984%" x2="50.034%" y2="-.004%" id="x"><stop stop-color="#B8B6BA" offset="0%"/><stop stop-color="#F3F4F4" offset="51.52%"/><stop stop-color="#BEBCBE" offset="100%"/></linearGradient><linearGradient x1="50%" y1="0%" x2="50%" y2="100%" id="i"><stop stop-color="#BDD3EB" offset="0%"/><stop stop-color="#93C5DE" offset="100%"/></linearGradient><linearGradient x1="50%" y1="0%" x2="50%" y2="100%" id="w"><stop stop-color="#636262" stop-opacity=".401" offset="0%"/><stop stop-color="#636262" offset="46.746%"/><stop stop-color="#636262" stop-opacity=".4" offset="100%"/></linearGradient><linearGradient x1="50%" y1="0%" x2="50%" y2="100%" id="v"><stop stop-color="#636262" stop-opacity=".4" offset="0%"/><stop stop-color="#636262" offset="46.746%"/><stop stop-color="#636262" stop-opacity=".4" offset="100%"/></linearGradient><linearGradient x1="50%" y1="0%" x2="50%" y2="100%" id="l"><stop stop-color="#BDD3EB" offset="0%"/><stop stop-color="#93C5DE" offset="100%"/></linearGradient><linearGradient x1="50.034%" y1="99.984%" x2="50.034%" y2="-.004%" id="u"><stop stop-color="#8B878D" offset="0%"/><stop stop-color="#9F9CA1" offset="13.66%"/><stop stop-color="#D9D8DA" offset="42.07%"/><stop stop-color="#F3F4F4" offset="51.52%"/><stop stop-color="#807B80" offset="100%"/></linearGradient><linearGradient x1="50%" y1="0%" x2="50%" y2="100%" id="n"><stop stop-color="#BDD3EB" offset="0%"/><stop stop-color="#93C5DE" offset="100%"/></linearGradient><linearGradient x1="1.504%" y1="0%" x2="98.496%" y2="127.532%" id="h"><stop stop-color="#5E5D5E" offset="0%"/><stop stop-color="#BEBEBE" offset="47.838%"/><stop stop-color="#5E5D5E" offset="100%"/></linearGradient><linearGradient x1=".453%" y1="50.403%" x2="99.615%" y2="50.403%" id="r"><stop stop-color="#AFACB1" offset="0%"/><stop stop-color="#BAB9BC" offset="28.499%"/><stop stop-color="#D9D8DA" offset="42.07%"/><stop stop-color="#F3F4F4" offset="58.437%"/><stop stop-color="#958F95" offset="100%"/></linearGradient><linearGradient x1="50.034%" y1="99.984%" x2="50.034%" y2="-.004%" id="t"><stop stop-color="#8B878D" offset="0%"/><stop stop-color="#9F9CA1" offset="13.66%"/><stop stop-color="#D9D8DA" offset="42.07%"/><stop stop-color="#F3F4F4" offset="51.52%"/><stop stop-color="#807B80" offset="100%"/></linearGradient><linearGradient x1="50.034%" y1="99.984%" x2="50.034%" y2="-.004%" id="s"><stop stop-color="#8B878D" offset="0%"/><stop stop-color="#9F9CA1" offset="13.66%"/><stop stop-color="#D9D8DA" offset="42.07%"/><stop stop-color="#F3F4F4" offset="51.52%"/><stop stop-color="#807B80" offset="100%"/></linearGradient><filter x="-8.5%" y="-7%" width="115.3%" height="115.6%" filterUnits="objectBoundingBox" id="p"><feOffset dx="-1" dy="1" in="SourceAlpha" result="shadowOffsetOuter1"/><feGaussianBlur stdDeviation="3" in="shadowOffsetOuter1" result="shadowBlurOuter1"/><feComposite in="shadowBlurOuter1" in2="SourceAlpha" operator="out" result="shadowBlurOuter1"/><feColorMatrix values="0 0 0 0 0 0 0 0 0 0 0 0 0 0 0 0 0 0 0.230550699 0" in="shadowBlurOuter1"/></filter><filter x="0%" y="0%" width="100%" height="100%" filterUnits="objectBoundingBox" id="m"><feGaussianBlur in="SourceGraphic"/></filter><filter x="0%" y="0%" width="100%" height="100%" filterUnits="objectBoundingBox" id="k"><feGaussianBlur in="SourceGraphic"/></filter><filter x="0%" y="0%" width="100%" height="100%" filterUnits="objectBoundingBox" id="j"><feGaussianBlur in="SourceGraphic"/></filter><filter x="-8.7%" y="-7%" width="115.8%" height="115.6%" filterUnits="objectBoundingBox" id="f"><feOffset dx="-1" dy="1" in="SourceAlpha" result="shadowOffsetOuter1"/><feGaussianBlur stdDeviation="3" in="shadowOffsetOuter1" result="shadowBlurOuter1"/><feColorMatrix values="0 0 0 0 0 0 0 0 0 0 0 0 0 0 0 0 0 0 0.230550699 0" in="shadowBlurOuter1"/></filter><filter x="0%" y="0%" width="100%" height="100%" filterUnits="objectBoundingBox" id="o"><feGaussianBlur in="SourceGraphic"/></filter><path id="c" d="M1.167.624h119.678v122.011H.682z"/><path id="a" d="M0 0h193v153H0z"/><path d="M70.625 75.823l.003 2.096h13.694c-1.18 1.487-2.386 3.244-3.7 5.307-2.436 3.829-3.648 8.68-3.717 14.5l-.041 3.476.117.008.033.311.062.474c1.147 7.855 7.912 13.887 16.085 13.887 8.978 0 16.257-7.278 16.257-16.256l-.012-.621-.038-.655a16.21 16.21 0 00-3.495-8.862l-.242-.292-.172-.244c-1.184-1.629-2.643-2.86-4.805-4.313-.312-.21-1.476-.974-1.74-1.151l-.58-.4c-1.307-.918-1.543-1.27-1.5-1.631.038-.328.159-.46.96-.728 1.058-.353 2.642-.509 4.716-.432l.003 4.948h11.175l.047.111.078.203c.106.288.216.646.322 1.072.503 2.013.813 5.033.907 9.01l.029 2.87v3.48h3.346l.226.234.19.216c.408.488.562.85.562 1.086v3.69l1.15.002.086.209.217.48c2.471 5.236 7.758 8.735 13.756 8.735l.577-.01.644-.038a15.165 15.165 0 004.316-.992l.177-.073.08.245.193.561c.461 1.277.976 2.313 1.56 3.064 1.49 1.92 3.558 2.75 5.816 2.463.753-.095 1.467-.299 2.266-.606.276-.106.554-.221.89-.367l1.16-.502c1.05-.44 1.662-.605 2.207-.605.61 0 1.299.206 2.574.764l1.402.607.279.11c.8.311 1.515.517 2.27.613 2.268.288 4.34-.556 5.827-2.493 2.044-2.661 3.904-11.545 3.904-15.857 0-8.979-7.278-16.257-16.256-16.257-8.978 0-16.257 7.278-16.257 16.257l.006.39.017.422c.015.293.038.607.067.938l.043.463-.107.096-.31.241a5.691 5.691 0 01-3.345 1.078l-.33-.009-.356-.032a5.731 5.731 0 01-4.775-3.964l-.058-.202.095-.149.129-.182c.141-.189.322-.397.546-.625l3.077-.001-.001-3.077v-3.272l-.002-19.817h.188l.001 2.094h17.862l-.003-2.094h.978l.003 4.187h22.046l-.002-4.187H184v49.015l-120.163-.924V75.824l6.788-.001zm83.865 15.144c6.936 0 12.559 5.623 12.559 12.56 0 2.875-1.514 11.488-3.14 13.605-.556.725-1.158 1.037-1.808 1.093l-.246.01c-1.987-.015-4.412-2.15-7.365-2.15-2.775 0-5.1 1.894-7.03 2.115l-.26.02c-.775.025-1.483-.256-2.13-1.088-.82-1.057-1.601-3.709-2.178-6.464l-.206-1.035a11.474 11.474 0 01-7.529 3.3l-.553.013-.468-.01c-5.282-.21-9.648-3.98-10.766-8.978l-.088-.431h-.19l-.015-.352c-.098-1.17-.688-2.342-1.769-3.513l-.31-.322h6.28l-.356.373c-.679.745-1.159 1.49-1.44 2.236l-.123.373a4.56 4.56 0 00-.09.373c.616 4.606 4.561 8.158 9.335 8.158a9.393 9.393 0 007.635-3.908c-.196-1.4-.308-2.623-.308-3.418 0-6.937 5.623-12.56 12.559-12.56zM95.254 74.745a26.427 26.427 0 0110.466 0v2.093l-.74-.077a38.524 38.524 0 00-2.74-.171l-.526-.008h-.51c-5.02.06-7.701 1.54-8.043 4.443-.576 4.893 6.465 5.86 9.52 10.405a12.527 12.527 0 013.04 8.196c0 6.788-5.387 12.319-12.119 12.551l-.44.008-.442-.008c-6.732-.232-12.118-5.763-12.118-12.551 0-.627.046-1.244.135-1.846l-.135-.01c.061-5.18 1.108-9.366 3.14-12.559 2.417-3.799 4.95-7.497 8.505-9.386l.47-.237a10.87 10.87 0 012.537-.843zm58.311-63.319c6.937 0 12.56 5.623 12.56 12.56 0 6.788-5.387 12.318-12.119 12.55l-.44.008-.441-.007c-6.732-.233-12.119-5.763-12.119-12.552 0-1.125.148-2.216.426-3.254a9.398 9.398 0 00-7.295-4.061l-.457-.011-.432.01a9.422 9.422 0 00-8.904 8.148c.221 1.118.891 2.236 2.01 3.355h2.88v27.21h7.58l.001-2.092h10.466l-.001 2.092h8.373v-4.185h4.187v.613l.364-.158a6.453 6.453 0 012.39-.455h1.711l.469.016a6.45 6.45 0 011.346.242v-.258h4.186l.002 4.05.053.136H184v16.745H170.36l-.056.136.001 4.051h-4.186v-.258l-.438.111c-.295.064-.599.108-.908.13l-.469.017h-1.711l-.502-.02a6.435 6.435 0 01-1.888-.436l-.364-.158v.614h-4.186l-.001-4.186h-8.373l.001 2.093h-10.466v-2.093h-7.582l.002 26.165h-10.466l-.002-.705c-.058-10.694-1.453-16.041-4.185-16.041h-8.373v-9.421H84.787v2.095H74.322l-.001-2.095H63.837V55.382H74.32l.001-2.092h10.466v2.092h21.42l.001-7.325h8.373l.16-.007c2.526-.236 3.864-6.119 4.013-17.65l.014-2.228h1.305l.31-.323c1.189-1.288 1.784-2.576 1.784-3.864h.19l.087-.432c1.151-5.143 5.744-8.987 11.235-8.987 3.428 0 6.506 1.498 8.615 3.876a12.552 12.552 0 0111.27-7.016zm-60.404 4.186c6.936 0 12.56 5.623 12.56 12.56 0 3.13-1.146 5.994-3.04 8.195-3.055 4.546-10.096 5.512-9.52 10.405.353 2.999 3.204 4.48 8.553 4.444l.526-.009.54-.017c.733-.03 1.506-.086 2.321-.166l.62-.065v2.093l-.806.149c-3.22.545-6.44.495-9.66-.149a11.066 11.066 0 01-3.568-1.397c-2.88-1.736-5.082-4.67-7.132-7.806l-.813-1.263c-2.032-3.193-3.079-7.38-3.14-12.56l.135-.009a12.662 12.662 0 01-.135-1.845c0-6.937 5.623-12.56 12.56-12.56zM184 2.828v48.857h-9.998v-4.186h-22.044l-.003 4.184h-.978l.003-2.09h-17.862v2.09h-.19l.004-27.209-4.745-.002.032-.11.109-.315a5.73 5.73 0 015.352-3.69l.379.012.415.042a5.686 5.686 0 012.93 1.323l.054.049-.01.071-.077.706a16.42 16.42 0 00-.062 1.425c0 8.978 7.278 16.257 16.256 16.257 8.979 0 16.257-7.279 16.257-16.257 0-8.978-7.278-16.256-16.257-16.256l-.55.009-.596.03a16.235 16.235 0 00-10.718 5.103l-.167.18-.352-.206-.524-.285a15.177 15.177 0 00-6.978-1.692l-.479.008-.547.027a15.223 15.223 0 00-13.001 9.284l-.044.104-1.139.003v3.691l-.008.098-.024.11a1.464 1.464 0 01-.106.26l-.011.02-3.25.001-.002 4.56c-.029 5.96-.36 10.414-.965 13.29l-.09.406-.092.376c-.123.48-.25.877-.37 1.187l-.029.065-11.01.002-.002 3.14c-2.14.08-3.76-.09-4.809-.464-.726-.258-.832-.378-.869-.696-.042-.36.194-.712 1.5-1.631l.582-.4c.175-.118.75-.497 1.208-.798l1.057-.712.547-.386c1.591-1.15 2.755-2.224 3.732-3.568l.169-.241.245-.295a16.217 16.217 0 003.545-10.137c0-8.979-7.279-16.257-16.257-16.257l-.48.007-.494.022c-7.893.466-14.27 6.564-15.173 14.332l-.033.31-.117.01.04 3.474.02.866c.174 5.438 1.384 9.998 3.698 13.635 1.231 1.934 2.368 3.599 3.477 5.024l-13.47-.002-.004 2.09-6.788.001V2.828H184z" id="g"/><path d="M185.849 2.828H61.989V124.84h123.86V2.828zm-5.546 5.632v110.749H67.534V8.459h112.769z" id="q"/><path id="y" d="M0 0h12.56v41.864H0z"/><path id="B" d="M0 0h12.56v41.864H0z"/></defs><g fill="none" fill-rule="evenodd" opacity=".1"><mask id="b" fill="#fff"><use xlink:href="#a"/></mask><g mask="url(#b)"><g transform="translate(62.988 14.38)"><mask id="e" fill="#fff"><use xlink:href="#c"/></mask><use fill="url(#d)" fill-rule="nonzero" xlink:href="#c"/><g opacity=".603"><g opacity=".148" mask="url(#e)" stroke="#FFF" stroke-linecap="square" stroke-width=".5"><path d="M-533.16 186.899l894.84-896.934M-533.16 193.178l894.84-896.934M-533.16 199.458l894.84-896.934M-533.16 205.738l894.84-896.935M-533.16 212.017l894.84-896.934M-533.16 218.297l894.84-896.934M-533.16 224.576l894.84-896.934M-533.16 230.856l894.84-896.934M-533.16 237.135L361.68-659.8M-533.16 243.415L361.68-653.52M-533.16 249.695L361.68-647.24M-533.16 255.974L361.68-640.96M-533.16 262.254L361.68-634.68M-533.16 268.533l894.84-896.934M-533.16 274.813l894.84-896.934M-533.16 281.093l894.84-896.935M-533.16 287.372l894.84-896.934M-533.16 293.652l894.84-896.934M-533.16 299.93l894.84-896.933M-533.16 306.21l894.84-896.933M-533.16 312.49l894.84-896.934M-533.16 318.77l894.84-896.934M-533.16 325.05l894.84-896.935M-533.16 331.329l894.84-896.934M-533.16 337.609l894.84-896.934M-533.16 343.888l894.84-896.934M-533.16 350.168l894.84-896.934M-533.16 356.448l894.84-896.935M-533.16 362.727l894.84-896.934M-533.16 369.007l894.84-896.934M-533.16 375.286l894.84-896.934M-533.16 381.566l894.84-896.934M-533.16 387.846L361.68-509.09M-533.16 394.125L361.68-502.81M-533.16 400.405L361.68-496.53M-533.16 406.684L361.68-490.25M-533.16 412.964L361.68-483.97M-533.16 419.243l894.84-896.934M-533.16 425.523l894.84-896.934M-533.16 431.803l894.84-896.935M-533.16 438.082l894.84-896.934M-533.16 444.362l894.84-896.934M-533.16 450.64l894.84-896.933M-533.16 456.92l894.84-896.933M-533.16 463.2l894.84-896.934M-533.16 469.48l894.84-896.934M-533.16 475.76l894.84-896.934M-533.16 482.039l894.84-896.934M-533.16 488.319l894.84-896.934M-533.16 494.598l894.84-896.934M-533.16 500.878l894.84-896.934M-533.16 507.158l894.84-896.935M-533.16 513.437l894.84-896.934M-533.16 519.717l894.84-896.934M-533.16 525.996l894.84-896.934M-533.16 532.276l894.84-896.934M-533.16 538.556L361.68-358.38M-533.16 544.835L361.68-352.1M-533.16 551.115L361.68-345.82M-533.16 557.394L361.68-339.54M-533.16 563.674L361.68-333.26M-533.16 569.953l894.84-896.934M-533.16 576.233l894.84-896.934M-533.16 582.513l894.84-896.935M-533.16 588.792l894.84-896.934M-533.16 595.072l894.84-896.934M-533.16 601.35l894.84-896.933M-533.16 607.63l894.84-896.933M-533.16 613.91l894.84-896.934M-533.16 620.19l894.84-896.934M-533.16 626.47l894.84-896.934M-533.16 632.749l894.84-896.934M-533.16 639.029l894.84-896.934M-533.16 645.309l894.84-896.935M-533.16 651.588l894.84-896.934M-533.16 657.868l894.84-896.934M-533.16 664.147l894.84-896.934M-533.16 670.427l894.84-896.934M-533.16 676.706l894.84-896.934M-533.16 682.986l894.84-896.934M-533.16 689.266L361.68-207.67M-533.16 695.545L361.68-201.39M-533.16 701.825L361.68-195.11M-533.16 708.104L361.68-188.83M-533.16 714.384L361.68-182.55M-533.16 720.664l894.84-896.935M-533.16 726.943l894.84-896.934M-533.16 733.223l894.84-896.934M-533.16 739.502l894.84-896.934M-533.16 745.782l894.84-896.934M-533.16 752.06l894.84-896.933M-533.16 758.34l894.84-896.933M-533.16 764.62l894.84-896.934M-533.16 770.9l894.84-896.934M-533.16 777.18l894.84-896.934M-533.16 783.459l894.84-896.934M-533.16 789.739l894.84-896.934M-533.16 796.019l894.84-896.935M-533.16 802.298L361.68-94.636M-533.16 808.578L361.68-88.356M-533.16 814.857L361.68-82.077M-533.16 821.137L361.68-75.797M-533.16 827.416L361.68-69.518M-533.16 833.696L361.68-63.238M-533.16 839.976L361.68-56.958M-533.16 846.255L361.68-50.68M-533.16 852.535L361.68-44.4M-533.16 858.814L361.68-38.12M-533.16 865.094L361.68-31.84M-533.16 871.374L361.68-25.561M-533.16 877.653L361.68-19.281M-533.16 883.933L361.68-13.001M-533.16 890.212L361.68-6.722M-533.16 896.492L361.68-.442M-533.16 902.772L361.68 5.837M-533.16 909.05L361.68 12.118M-533.16 915.33L361.68 18.398M-533.16 921.61L361.68 24.676M-533.16 927.89L361.68 30.956M-533.16 934.169L361.68 37.235M-533.16 940.449L361.68 43.515M-533.16 946.729L361.68 49.794M-533.16 953.008L361.68 56.074M-533.16 959.288L361.68 62.354M-533.16 965.567L361.68 68.633M-533.16 971.847L361.68 74.913M-533.16 978.127L361.68 81.192M-533.16 984.406L361.68 87.472M-533.16 990.686L361.68 93.752M-533.16 996.965L361.68 100.03M-533.16 1003.245L361.68 106.31M-533.16 1009.524L361.68 112.59M-533.16 1015.804L361.68 118.87M-533.16 1022.084l894.84-896.935M-533.16 1028.363l894.84-896.934M-533.16 1034.643l894.84-896.934"/></g></g></g><g fill-rule="nonzero" transform="translate(0 12.4)"><use fill="#000" filter="url(#f)" xlink:href="#g"/><use fill="url(#h)" xlink:href="#g"/></g><path d="M105.867 74.745v2.093c-7.94-.884-12.127.511-12.56 4.187-.575 4.898 6.481 5.861 9.53 10.42a12.514 12.514 0 013.03 8.18c0 6.937-5.623 12.56-12.56 12.56-6.935 0-12.558-5.623-12.558-12.56 0-.626.046-1.243.134-1.845l-.134-.01c.06-5.18 1.107-9.366 3.14-12.559 3.048-4.79 6.28-9.42 11.512-10.466a26.427 26.427 0 0110.466 0z" fill="url(#i)" filter="url(#j)" transform="translate(0 12.4)"/><path d="M105.867 16.136v2.093c-7.94-.885-12.127.51-12.56 4.186-.575 4.899 6.481 5.862 9.53 10.42a12.514 12.514 0 013.03 8.181c0 6.936-5.623 12.56-12.56 12.56-6.935 0-12.558-5.624-12.558-12.56 0-.627.046-1.243.134-1.845a30.92 30.92 0 01-.134-.01c.06-5.18 1.107-9.366 3.14-12.56 3.048-4.79 6.28-9.419 11.512-10.465a26.427 26.427 0 0110.466 0z" fill="url(#i)" filter="url(#k)" transform="matrix(1 0 0 -1 0 81.588)"/><path d="M164.056 92.07c1.626 2.117 3.14 10.73 3.14 13.606 0 6.936-5.623 12.559-12.56 12.559-6.936 0-12.559-5.623-12.559-12.56 0-.795.113-2.02.31-3.421a9.402 9.402 0 00-7.636-3.904c-4.774 0-8.719 3.552-9.335 8.158.22 1.118.89 2.236 2.009 3.354h-6.28c1.396-1.395 2.094-2.79 2.094-4.186h.19c.984-5.36 5.679-9.42 11.322-9.42 3.149 0 6.002 1.264 8.08 3.313.59-3.103 1.463-6.31 2.386-7.499 2.298-2.958 5.384 1.047 9.42 1.047 4.06 0 7.123-4.036 9.419-1.047z" fill="url(#l)" filter="url(#m)" transform="matrix(1 0 0 -1 0 221.602)"/><path d="M153.712 11.426c6.936 0 12.56 5.623 12.56 12.56 0 6.935-5.624 12.558-12.56 12.558-6.936 0-12.559-5.623-12.559-12.559 0-1.127.148-2.219.427-3.258a9.409 9.409 0 00-7.753-4.068c-4.775 0-8.72 3.552-9.336 8.158.222 1.119.892 2.237 2.01 3.355h-6.28c1.396-1.396 2.093-2.791 2.093-4.187h.19c.984-5.358 5.68-9.42 11.323-9.42 3.427 0 6.505 1.499 8.614 3.875a12.558 12.558 0 0111.271-7.014z" fill="url(#n)" filter="url(#o)" transform="translate(0 12.4)"/><g fill-rule="nonzero" transform="translate(0 12.4)"><use fill="#000" filter="url(#p)" xlink:href="#q"/><path stroke="#636262" stroke-width=".5" d="M185.599 3.078V124.59H62.239V3.078h123.36zm-5.046 5.132H67.284v111.249h113.269V8.209z" stroke-linejoin="square" fill="url(#r)" fill-rule="evenodd"/></g><path d="M144.538 103.854v41.21l22.525-6.144v-28.923l-22.525-6.143z" stroke="#636262" stroke-width=".5" fill="url(#s)" fill-rule="nonzero" transform="matrix(0 -1 -1 0 280.259 292.659)"/><path d="M80.999-8.673v41.21l22.525-6.144V-2.529L80.999-8.673z" stroke="#636262" stroke-width=".5" fill="url(#s)" fill-rule="nonzero" transform="rotate(90 86.061 18.132)"/><path d="M167.422 51.197a3.5 3.5 0 013.5 3.5v.689l15.073-.003V72.13l-15.073.002v.684a3.5 3.5 0 01-3.5 3.5h-7.652a3.5 3.5 0 01-3.5-3.5v-.682l-112.32.02V55.408l112.32-.02v-.691a3.5 3.5 0 013.5-3.5h7.652z" stroke="#636262" stroke-width=".5" fill="url(#t)" fill-rule="nonzero" transform="translate(0 12.4)"/><g stroke-width=".5"><path d="M12.56 0h10.465v70.122H12.56c0-11.164-1.395-16.746-4.186-16.746H0v-33.49h8.373c2.79 0 4.186-6.63 4.186-19.886z" stroke="#636262" fill="url(#u)" fill-rule="nonzero" transform="translate(106.356 40.572)"/><path stroke="#636262" fill-opacity=".04" fill="#000" opacity=".5" d="M118.915 62.55h10.466v12.56h-10.466zM118.915 75.11h10.466v12.559h-10.466z"/><path stroke="#636262" fill-opacity=".06" fill="#000" opacity=".5" d="M118.915 54.178h10.466v8.373h-10.466zM118.915 87.669h10.466v8.373h-10.466z"/><path stroke="#636262" fill-opacity=".08" fill="#000" opacity=".5" d="M118.915 47.898h10.466v6.28h-10.466zM118.915 96.042h10.466v6.28h-10.466z"/><path stroke="#636262" fill-opacity=".104" fill="#000" opacity=".5" d="M118.915 43.712h10.466v4.186h-10.466z"/><path stroke="#636262" fill-opacity=".1" fill="#000" opacity=".7" d="M118.915 102.32h10.466v5.234h-10.466z"/><path stroke="url(#v)" stroke-linecap="square" d="M2.093 53.376V19.885M4.186 53.376V19.885M6.28 53.376V19.885" transform="translate(106.356 40.572)"/><path stroke="url(#w)" stroke-linecap="square" d="M8.373 53.376V19.885" transform="translate(106.356 40.572)"/></g><path d="M170.453 63.597v8.372h-4.187v-8.372h4.187zm-10.466 0v8.372H155.8v-8.372h4.187zM170.453 88.715v-8.373h-4.187v8.373h4.187zm-10.466 0v-8.373H155.8v8.373h4.187zM74.469 65.69h10.466v6.28H74.469zM74.469 80.342h10.466v6.28H74.469zM136.962 65.69h10.466v6.28h-10.466zM136.962 80.342h10.466v6.28h-10.466z" fill="#004C97"/><path d="M0 55.598h24.119a4 4 0 014 4v8.746a4 4 0 01-4 4H0h0" stroke="#636262" stroke-width=".5" fill="url(#x)" fill-rule="nonzero" transform="translate(0 12.4)"/><g transform="translate(20.142 55.44)"><mask id="A" fill="#fff"><use xlink:href="#y"/></mask><use fill="url(#z)" fill-rule="nonzero" xlink:href="#y"/><path fill="#7F7F7F" fill-rule="nonzero" mask="url(#A)" transform="matrix(-1 0 0 1 11.45 0)" d="M-7.058-2.093l-.617.74 26.183 31.42.617-.74zM-7.058 2.093l-.617.74 26.183 31.42.617-.74zM-7.058 6.28l-.617.74 26.183 31.42.617-.74zM-7.058 10.466l-.617.74 26.183 31.42.617-.74zM-7.058 14.652l-.617.74 26.183 31.42.617-.74zM-7.058 18.839l-.617.74 26.183 31.42.617-.74zM-7.058 23.025l-.617.74 26.183 31.42.617-.74zM-7.058 27.212l-.617.74 26.183 31.42.617-.74zM-7.058-6.28l-.617.74 26.183 31.42.617-.74zM-7.058-10.466l-.617.74 26.183 31.42.617-.74zM-7.058-14.652l-.617.74 26.183 31.42.617-.74zM-7.058-18.839l-.617.74 26.183 31.42.617-.74z"/></g><path stroke="#636262" stroke-width=".5" d="M20.142 55.44H32.7v41.863H20.14z"/><g><g transform="translate(31.605 55.44)"><mask id="C" fill="#fff"><use xlink:href="#B"/></mask><use fill="url(#z)" fill-rule="nonzero" xlink:href="#B"/><path fill="#7F7F7F" fill-rule="nonzero" mask="url(#C)" transform="matrix(-1 0 0 1 11.45 0)" d="M-7.058-2.093l-.617.74 26.183 31.42.617-.74zM-7.058 2.093l-.617.74 26.183 31.42.617-.74zM-7.058 6.28l-.617.74 26.183 31.42.617-.74zM-7.058 10.466l-.617.74 26.183 31.42.617-.74zM-7.058 14.652l-.617.74 26.183 31.42.617-.74zM-7.058 18.839l-.617.74 26.183 31.42.617-.74zM-7.058 23.025l-.617.74 26.183 31.42.617-.74zM-7.058 27.212l-.617.74 26.183 31.42.617-.74zM-7.058-6.28l-.617.74 26.183 31.42.617-.74zM-7.058-10.466l-.617.74 26.183 31.42.617-.74zM-7.058-14.652l-.617.74 26.183 31.42.617-.74zM-7.058-18.839l-.617.74 26.183 31.42.617-.74z"/></g><path stroke="#636262" stroke-width=".5" d="M31.605 55.44h12.56v41.863h-12.56z"/></g></g></g></svg>