<svg width="219" height="178" xmlns="http://www.w3.org/2000/svg" xmlns:xlink="http://www.w3.org/1999/xlink"><defs><linearGradient x1="50%" y1="0%" x2="50%" y2="100%" id="q"><stop stop-color="#BDD3EB" offset="0%"/><stop stop-color="#93C5DE" offset="100%"/></linearGradient><linearGradient x1="50.034%" y1="99.984%" x2="50.034%" y2="-.004%" id="A"><stop stop-color="#8B878D" offset="0%"/><stop stop-color="#9F9CA1" offset="13.66%"/><stop stop-color="#D9D8DA" offset="42.07%"/><stop stop-color="#F3F4F4" offset="51.52%"/><stop stop-color="#807B80" offset="100%"/></linearGradient><linearGradient x1="50.034%" y1="99.984%" x2="50.034%" y2="-.004%" id="y"><stop stop-color="#8B878D" offset="0%"/><stop stop-color="#9F9CA1" offset="13.66%"/><stop stop-color="#D9D8DA" offset="42.07%"/><stop stop-color="#F3F4F4" offset="51.52%"/><stop stop-color="#807B80" offset="100%"/></linearGradient><linearGradient x1=".453%" y1="50.403%" x2="99.615%" y2="50.403%" id="k"><stop stop-color="#AFACB1" offset="0%"/><stop stop-color="#BAB9BC" offset="28.499%"/><stop stop-color="#D9D8DA" offset="42.07%"/><stop stop-color="#F3F4F4" offset="58.437%"/><stop stop-color="#958F95" offset="100%"/></linearGradient><linearGradient x1="50%" y1="0%" x2="50%" y2="100%" id="x"><stop stop-color="#636262" stop-opacity=".401" offset="0%"/><stop stop-color="#636262" offset="46.746%"/><stop stop-color="#636262" stop-opacity=".4" offset="100%"/></linearGradient><linearGradient x1="50%" y1="0%" x2="50%" y2="100%" id="l"><stop stop-color="#BDD3EB" offset="0%"/><stop stop-color="#93C5DE" offset="100%"/></linearGradient><linearGradient x1="50%" y1="0%" x2="50%" y2="100%" id="w"><stop stop-color="#636262" stop-opacity=".4" offset="0%"/><stop stop-color="#636262" offset="46.746%"/><stop stop-color="#636262" stop-opacity=".4" offset="100%"/></linearGradient><linearGradient x1="50.034%" y1="99.984%" x2="50.034%" y2="-.004%" id="v"><stop stop-color="#8B878D" offset="0%"/><stop stop-color="#9F9CA1" offset="13.66%"/><stop stop-color="#D9D8DA" offset="42.07%"/><stop stop-color="#F3F4F4" offset="51.52%"/><stop stop-color="#807B80" offset="100%"/></linearGradient><linearGradient x1="50%" y1="0%" x2="50%" y2="100%" id="o"><stop stop-color="#BDD3EB" offset="0%"/><stop stop-color="#93C5DE" offset="100%"/></linearGradient><linearGradient x1="50.034%" y1="114.901%" x2="50.034%" y2="-16.677%" id="d"><stop stop-color="#363D43" offset="0%"/><stop stop-color="#82888D" offset="52.238%"/><stop stop-color="#363D43" offset="100%"/></linearGradient><linearGradient x1="0%" y1="14.543%" x2="100%" y2="104.981%" id="h"><stop stop-color="#5E5D5E" offset="0%"/><stop stop-color="#BEBEBE" offset="47.838%"/><stop stop-color="#5E5D5E" offset="100%"/></linearGradient><linearGradient x1="50.034%" y1="99.984%" x2="50.034%" y2="-.004%" id="u"><stop stop-color="#8B878D" offset="0%"/><stop stop-color="#9F9CA1" offset="13.66%"/><stop stop-color="#D9D8DA" offset="42.07%"/><stop stop-color="#F3F4F4" offset="51.52%"/><stop stop-color="#807B80" offset="100%"/></linearGradient><linearGradient x1="50.034%" y1="99.984%" x2="50.034%" y2="-.004%" id="s"><stop stop-color="#8B878D" offset="0%"/><stop stop-color="#9F9CA1" offset="13.66%"/><stop stop-color="#D9D8DA" offset="42.07%"/><stop stop-color="#F3F4F4" offset="51.52%"/><stop stop-color="#807B80" offset="100%"/></linearGradient><linearGradient x1="50.034%" y1="99.984%" x2="50.034%" y2="-.004%" id="t"><stop stop-color="#8B878D" offset="0%"/><stop stop-color="#9F9CA1" offset="13.66%"/><stop stop-color="#D9D8DA" offset="42.07%"/><stop stop-color="#F3F4F4" offset="51.52%"/><stop stop-color="#807B80" offset="100%"/></linearGradient><filter x="0%" y="0%" width="100%" height="100%" filterUnits="objectBoundingBox" id="r"><feGaussianBlur in="SourceGraphic"/></filter><filter x="0%" y="0%" width="100%" height="100%" filterUnits="objectBoundingBox" id="n"><feGaussianBlur in="SourceGraphic"/></filter><filter x="0%" y="0%" width="100%" height="100%" filterUnits="objectBoundingBox" id="m"><feGaussianBlur in="SourceGraphic"/></filter><filter x="-6.7%" y="-6.6%" width="112.1%" height="114.9%" filterUnits="objectBoundingBox" id="i"><feOffset dx="-1" dy="1" in="SourceAlpha" result="shadowOffsetOuter1"/><feGaussianBlur stdDeviation="3" in="shadowOffsetOuter1" result="shadowBlurOuter1"/><feComposite in="shadowBlurOuter1" in2="SourceAlpha" operator="out" result="shadowBlurOuter1"/><feColorMatrix values="0 0 0 0 0 0 0 0 0 0 0 0 0 0 0 0 0 0 0.230550699 0" in="shadowBlurOuter1"/></filter><filter x="-6.9%" y="-6.6%" width="112.5%" height="114.9%" filterUnits="objectBoundingBox" id="f"><feOffset dx="-1" dy="1" in="SourceAlpha" result="shadowOffsetOuter1"/><feGaussianBlur stdDeviation="3" in="shadowOffsetOuter1" result="shadowBlurOuter1"/><feColorMatrix values="0 0 0 0 0 0 0 0 0 0 0 0 0 0 0 0 0 0 0.230550699 0" in="shadowBlurOuter1"/></filter><filter x="0%" y="0%" width="100%" height="100%" filterUnits="objectBoundingBox" id="p"><feGaussianBlur in="SourceGraphic"/></filter><path d="M153.402 75.496v52.34H1.598V75.513h7.555v2.088l14.38-.003c-1.4 1.646-2.82 3.676-4.397 6.155-2.395 3.764-3.592 8.552-3.66 14.322l-.036 3.003.074.005.016.218.041.434c.874 7.923 7.59 14.085 15.744 14.085 8.748 0 15.84-7.091 15.84-15.84l-.009-.546-.03-.574a15.78 15.78 0 00-3.44-8.787l-.222-.268-.15-.217c-1.155-1.6-2.59-2.815-4.74-4.259l-2.05-1.363c-1.724-1.186-2.1-1.706-2.025-2.339.135-1.146 2.12-1.933 7.056-1.599l.001 4.948H52.6l.107.209c.172.37.355.9.526 1.585l.084.351.085.393c.413 2.015.67 4.802.757 8.33l.003.124.025 1.842.004 4.025 3.854-.001.064.072c.467.556.655 1 .655 1.33l.009.378.01.178.024.285.048.362c.631 4.08 4.086 7.083 8.194 7.083l.364-.008.391-.027a8.293 8.293 0 006.585-4.402l.111-.225.834-.028V84.977h7.627l.107.209c.172.37.355.9.526 1.585.54 2.16.861 5.42.94 9.727l.017 2.157.001 3.181 3.067-.001.364.378.205.232c.51.603.717 1.09.717 1.464l.98 3.182.133.333.18.416c2.344 5.226 7.56 8.748 13.493 8.748l.512-.01.621-.033a14.736 14.736 0 004.73-1.166l.22-.1.088.29.163.508c.494 1.49 1.05 2.68 1.679 3.49 1.386 1.784 3.283 2.545 5.374 2.28.71-.09 1.39-.284 2.158-.58.09-.034.18-.07.274-.107l.603-.254 1.122-.487c1.15-.483 1.834-.67 2.476-.67.588 0 1.207.155 2.177.548l.626.265.794.35.604.255.273.11c.77.297 1.45.493 2.162.584 2.098.267 4-.508 5.382-2.308 1.97-2.565 3.822-11.409 3.822-15.644 0-8.748-7.092-15.84-15.84-15.84-8.748 0-15.84 7.092-15.84 15.84l.004.337.014.365c.012.252.03.522.053.806l.088.929-.182.172-.29.24a6.256 6.256 0 01-3.867 1.33l-.325-.008-.32-.024a6.299 6.299 0 01-5.472-4.788l.032-.066.103-.184c.189-.314.472-.67.866-1.064l.118-.119 2.788.001-.001-2.788v-2.55l-.002-20.995.791-.002v2.1h16.93l-.001-2.1 2.245-.002.001 4.21h21.144l-.001-4.211 10.816-.002zM123.71 91.265c6.983 0 12.644 5.66 12.644 12.644 0 2.895-1.524 11.566-3.161 13.697-.578.753-1.204 1.063-1.882 1.105l-.228.005c-1.915-.042-4.235-2.003-7.035-2.154l-.338-.01-.551.025c-2.545.221-4.7 1.887-6.51 2.103l-.241.02-.236.001c-.703-.026-1.35-.329-1.945-1.095-.837-1.077-1.632-3.8-2.215-6.611l-.186-.938a11.551 11.551 0 01-7.638 3.324l-.498.01-.414-.006c-5.361-.189-9.796-4.018-10.908-9.092l-.077-.383-.191-.001-.017-.37a4.69 4.69 0 00-.389-1.48l-.104-.223-.213-.396a8.328 8.328 0 00-1.094-1.445l-.29-.301h6.321l-.324.338c-.518.563-.923 1.126-1.215 1.689l-.058.115a4.991 4.991 0 00-.426 1.236c.621 4.637 4.593 8.212 9.4 8.212a9.46 9.46 0 007.686-3.933c-.198-1.41-.311-2.641-.311-3.442 0-6.983 5.66-12.644 12.644-12.644zM33.423 74.933a26.605 26.605 0 0110.536 0v2.107l-.716-.075a37.375 37.375 0 00-3.27-.183h-.445c-5.129.038-7.866 1.53-8.213 4.473-.58 4.93 6.523 5.901 9.594 10.489a12.6 12.6 0 013.05 8.237c0 6.852-5.449 12.43-12.25 12.638l-.394.006-.393-.006c-6.801-.208-12.25-5.786-12.25-12.638 0-.63.046-1.251.135-1.858l-.136-.01c.062-5.214 1.115-9.429 3.161-12.644 2.673-4.2 5.486-8.277 9.651-9.957l.469-.176c.472-.166.962-.302 1.47-.403zm89.356-63.747c6.983 0 12.644 5.66 12.644 12.644 0 6.851-5.449 12.43-12.25 12.638l-.394.006-.394-.006c-6.8-.208-12.25-5.787-12.25-12.638 0-1.134.15-2.233.43-3.279a9.468 9.468 0 00-7.385-4.088l-.42-.01-.378.008c-4.635.182-8.416 3.69-9.02 8.204.22 1.127.896 2.253 2.022 3.38h2.9l-.001 27.402 7.18-.002v-2.113h10.538l-.002 2.113 8.64-.001v-4.219h4.215l-.001.171.335-.074a5.623 5.623 0 011.044-.097h3.566l.354.011c.351.022.694.076 1.025.16l-.001-.17h4.215l-.001 4.216 14.012-.001v16.86l-14.012.003v4.21h-4.214v-.172l-.334.074a5.6 5.6 0 01-.69.086l-.354.011h-3.566l-.354-.01a5.584 5.584 0 01-1.024-.16v.17h-4.215v-4.208l-8.64.002.002 2.099h-10.537v-2.1l-7.181.002V98.64H87.748l-.006-1.272c-.104-10.39-1.507-15.586-4.209-15.586h-8.429v-3.99l-.15.007-.246.029a3.055 3.055 0 00-2.56 2.764l-.01.251v22.903h-.025l-.038.295a5.091 5.091 0 01-4.735 4.277l-.29.009-.29-.008a5.09 5.09 0 01-4.769-4.509l-.023-.284-.02-.602c-.089-1.149-.663-2.297-1.723-3.445l-.301-.314h6.107l-.301.314c-1.06 1.148-1.634 2.296-1.723 3.445l-.012.313.01.239.029.246a3.055 3.055 0 006.06-.246l.009-.239V80.65l.007-.173.058-.449a5.091 5.091 0 014.936-4.273v-3.443l-7.181.002.001 26.327H57.386l-.006-1.272c-.104-10.39-1.507-15.586-4.208-15.586h-8.43v-9.467l-21.856.003v2.088H12.349v-2.087l-10.751.001V55.46l10.75-.002.001-2.126h10.537v2.124l21.856-.003v-7.389h8.43l.149-.006c2.612-.226 3.965-6.429 4.06-18.61l.005-1.404h10.537l-.001 27.408 7.181-.002v-4.492l-.202-.004-.298-.025a5.092 5.092 0 01-4.474-4.53l-.02-.16-.007-.172V23.48l-.01-.239a3.054 3.054 0 00-6.088 0l-.01.239.012.313c.089 1.149.663 2.297 1.723 3.445l.301.314h-6.107l.3-.314c1.157-1.252 1.736-2.505 1.736-3.758l.008-.289.023-.284a5.09 5.09 0 0110.122.063l.026.001v22.903l.01.251a3.054 3.054 0 002.805 2.794l.15.004v-.858h8.43l.149-.006c2.611-.226 3.965-6.429 4.06-18.61l.005-1.404h1.315l.29-.3c1.211-1.305 1.817-2.61 1.817-3.914h.191l.077-.384c1.14-5.204 5.776-9.1 11.323-9.1 3.45 0 6.548 1.508 8.671 3.9a12.644 12.644 0 0111.348-7.06zM31.315 15.4c6.983 0 12.644 5.661 12.644 12.644a12.6 12.6 0 01-3.05 8.238c-3.07 4.588-10.174 5.558-9.594 10.489.355 3.014 3.216 4.505 8.584 4.473l.466-.006c.38-.008.774-.024 1.179-.046l.809-.054c.347-.027.703-.059 1.067-.095l.54-.057v2.107l-.753.14c-3.262.559-6.523.512-9.784-.14-4.929-.986-8.094-5.128-10.994-9.606l-.597-.93c-2.046-3.216-3.1-7.43-3.16-12.645l.135-.01a12.747 12.747 0 01-.136-1.858c0-6.983 5.661-12.644 12.644-12.644zM153.402 0v52.245l-10.816.001.001-4.217h-21.144l-.001 4.219-2.245.001.002-2.112h-16.931v2.112l-.79.002.002-27.403h-4.621l-.082-.128-.102-.183-.032-.068.085-.315a6.294 6.294 0 016.032-4.504l.367.01.396.036a6.257 6.257 0 013.47 1.593l.13.123-.084.634c-.066.589-.1 1.184-.1 1.784 0 8.748 7.092 15.84 15.84 15.84 8.748 0 15.84-7.092 15.84-15.84 0-8.749-7.092-15.84-15.84-15.84l-.492.007-.53.025a15.825 15.825 0 00-10.791 5.253l-.2.228-.38-.236-.457-.265a14.75 14.75 0 00-7.17-1.851l-.437.006-.481.022a14.8 14.8 0 00-12.791 9.208l-.1.252-.977.004v3.187l-.008.13-.025.14a2.22 2.22 0 01-.287.651l-.065.097H84.55v3.196l-.007 1.583c-.051 5.678-.384 9.954-.978 12.774l-.085.386-.087.361c-.176.698-.362 1.243-.542 1.628l-.047.09h-7.472V19.885l-.834-.03-.111-.224-.174-.313a8.287 8.287 0 00-15.438 3.695l-.012.378-.008.14-.029.17c-.066.288-.228.608-.516.978l-.14.17h-3.88l-.003 3.916-.02 1.982-.023 1.206c-.112 4.533-.43 8.028-.94 10.449l-.085.386-.087.361c-.176.698-.362 1.243-.542 1.628l-.047.09-10.898.002v3.127c-4.964.333-6.922-.456-7.057-1.597-.07-.598.26-1.095 1.75-2.148l.575-.396 1.637-1.083.597-.405.5-.352c1.62-1.163 2.787-2.235 3.755-3.578l.155-.223.218-.261a15.79 15.79 0 003.48-9.908c0-8.748-7.093-15.84-15.84-15.84l-.444.006-.44.019c-7.899.434-14.255 6.655-14.902 14.494l-.016.218-.074.005.036 3.004.016.78c.163 5.422 1.358 9.95 3.644 13.542 1.486 2.336 2.833 4.273 4.155 5.866l-14.137-.001-.001 2.125-7.555.002V0h151.804z" id="g"/><path id="c" d="M.708.037H151.9v127.835H.096z"/><path id="a" d="M0 0h219v310H0z"/><path d="M156.598 0H0v127.835h156.598V0zm-4.794 4.794V123.04H4.794V4.794h147.01z" id="j"/><path id="z" d="M0 0h12.644v42.147H0z"/><path id="C" d="M0 0h12.644v42.147H0z"/></defs><g transform="translate(0 -91)" fill="none" fill-rule="evenodd"><mask id="b" fill="#fff"><use xlink:href="#a"/></mask><g mask="url(#b)" opacity=".2"><g transform="translate(60.85 110.258)"><mask id="e" fill="#fff"><use xlink:href="#c"/></mask><use fill="url(#d)" fill-rule="nonzero" xlink:href="#c"/><g opacity=".603"><g opacity=".148" mask="url(#e)" stroke="#FFF" stroke-linecap="square" stroke-width=".5"><path d="M-537.356 187.571l900.89-902.997M-537.356 193.893l900.89-902.997M-537.356 200.215l900.89-902.997M-537.356 206.537l900.89-902.997M-537.356 212.859l900.89-902.997M-537.356 219.181l900.89-902.997M-537.356 225.503l900.89-902.997M-537.356 231.825l900.89-902.997M-537.356 238.147l900.89-902.997M-537.356 244.469l900.89-902.997M-537.356 250.791l900.89-902.997M-537.356 257.113l900.89-902.997M-537.356 263.435l900.89-902.997M-537.356 269.757l900.89-902.997M-537.356 276.079l900.89-902.997M-537.356 282.401l900.89-902.997M-537.356 288.723l900.89-902.997M-537.356 295.045l900.89-902.997M-537.356 301.367l900.89-902.997M-537.356 307.689l900.89-902.997M-537.356 314.011l900.89-902.997M-537.356 320.333l900.89-902.997M-537.356 326.655l900.89-902.997M-537.356 332.977l900.89-902.997M-537.356 339.3l900.89-902.998M-537.356 345.622l900.89-902.998M-537.356 351.944l900.89-902.997M-537.356 358.266l900.89-902.997M-537.356 364.588l900.89-902.997M-537.356 370.91l900.89-902.997M-537.356 377.232l900.89-902.997M-537.356 383.554l900.89-902.997M-537.356 389.876l900.89-902.997M-537.356 396.198l900.89-902.997M-537.356 402.52l900.89-902.997M-537.356 408.842l900.89-902.997M-537.356 415.164l900.89-902.997M-537.356 421.486l900.89-902.997M-537.356 427.808l900.89-902.997M-537.356 434.13l900.89-902.997M-537.356 440.452l900.89-902.997M-537.356 446.774l900.89-902.997M-537.356 453.096l900.89-902.997M-537.356 459.418l900.89-902.997M-537.356 465.74l900.89-902.997M-537.356 472.062l900.89-902.997M-537.356 478.384l900.89-902.997M-537.356 484.706l900.89-902.997M-537.356 491.028l900.89-902.997M-537.356 497.35l900.89-902.997M-537.356 503.672l900.89-902.997M-537.356 509.994l900.89-902.997M-537.356 516.316l900.89-902.997M-537.356 522.638l900.89-902.997M-537.356 528.96l900.89-902.997M-537.356 535.283l900.89-902.998M-537.356 541.605l900.89-902.997M-537.356 547.927l900.89-902.997M-537.356 554.249l900.89-902.997M-537.356 560.571l900.89-902.997M-537.356 566.893l900.89-902.997M-537.356 573.215l900.89-902.997M-537.356 579.537l900.89-902.997M-537.356 585.859l900.89-902.997M-537.356 592.181l900.89-902.997M-537.356 598.503l900.89-902.997M-537.356 604.825l900.89-902.997M-537.356 611.147l900.89-902.997M-537.356 617.469l900.89-902.997M-537.356 623.791l900.89-902.997M-537.356 630.113l900.89-902.997M-537.356 636.435l900.89-902.997M-537.356 642.757l900.89-902.997M-537.356 649.079l900.89-902.997M-537.356 655.401l900.89-902.997M-537.356 661.723l900.89-902.997M-537.356 668.045l900.89-902.997M-537.356 674.367l900.89-902.997M-537.356 680.689l900.89-902.997M-537.356 687.011l900.89-902.997M-537.356 693.333l900.89-902.997M-537.356 699.655l900.89-902.997M-537.356 705.977l900.89-902.997M-537.356 712.299l900.89-902.997M-537.356 718.621l900.89-902.997M-537.356 724.944l900.89-902.998M-537.356 731.266l900.89-902.997M-537.356 737.588l900.89-902.997M-537.356 743.91l900.89-902.997M-537.356 750.232l900.89-902.997M-537.356 756.554l900.89-902.997M-537.356 762.876l900.89-902.997M-537.356 769.198l900.89-902.997M-537.356 775.52l900.89-902.997M-537.356 781.842l900.89-902.997M-537.356 788.164l900.89-902.997M-537.356 794.486l900.89-902.997M-537.356 800.808l900.89-902.997M-537.356 807.13l900.89-902.997M-537.356 813.452l900.89-902.997M-537.356 819.774l900.89-902.997M-537.356 826.096l900.89-902.997M-537.356 832.418l900.89-902.997M-537.356 838.74l900.89-902.997M-537.356 845.062l900.89-902.997M-537.356 851.384l900.89-902.997M-537.356 857.706l900.89-902.997M-537.356 864.028l900.89-902.997M-537.356 870.35l900.89-902.997M-537.356 876.672l900.89-902.997M-537.356 882.994l900.89-902.997M-537.356 889.316l900.89-902.997M-537.356 895.638L363.534-7.359M-537.356 901.96L363.534-1.037M-537.356 908.282L363.534 5.285M-537.356 914.604l900.89-902.997M-537.356 920.927l900.89-902.998M-537.356 927.249l900.89-902.997M-537.356 933.571l900.89-902.997M-537.356 939.893l900.89-902.997M-537.356 946.215l900.89-902.997M-537.356 952.537L363.534 49.54M-537.356 958.859l900.89-902.997M-537.356 965.181l900.89-902.997M-537.356 971.503l900.89-902.997M-537.356 977.825l900.89-902.997M-537.356 984.147L363.534 81.15M-537.356 990.469l900.89-902.997M-537.356 996.791l900.89-902.997M-537.356 1003.113l900.89-902.997M-537.356 1009.435l900.89-902.997M-537.356 1015.757l900.89-902.997M-537.356 1022.079l900.89-902.997M-537.356 1028.401l900.89-902.997M-537.356 1034.723l900.89-902.997M-537.356 1041.045l900.89-902.997M-537.356 1047.367l900.89-902.997M-537.356 1053.689l900.89-902.997M-537.356 1060.011l900.89-902.997"/></g></g></g><g fill-rule="nonzero" transform="translate(60.85 110.258)"><use fill="#000" filter="url(#f)" xlink:href="#g"/><use fill="url(#h)" xlink:href="#g"/></g><g fill-rule="nonzero" transform="translate(60.85 110.258)"><use fill="#000" filter="url(#i)" xlink:href="#j"/><path stroke="#636262" stroke-width=".5" d="M156.348.25v127.335H.25V.25h156.098zm-4.294 4.294H4.544V123.29h147.51V4.544z" stroke-linejoin="square" fill="url(#k)" fill-rule="evenodd"/></g><path d="M44.5 87.703v2.107c-7.994-.89-12.208.515-12.644 4.215-.58 4.933 6.527 5.902 9.596 10.493a12.595 12.595 0 013.048 8.234c0 6.983-5.66 12.644-12.644 12.644-6.983 0-12.644-5.661-12.644-12.644 0-.631.046-1.252.136-1.858l-.136-.01c.062-5.214 1.115-9.43 3.161-12.644 3.069-4.823 6.322-9.483 11.59-10.537a26.605 26.605 0 0110.537 0z" fill="url(#l)" filter="url(#m)" transform="translate(60.31 97.474)"/><path d="M44.5 28.697v2.108c-7.994-.89-12.208.514-12.644 4.215-.58 4.932 6.527 5.901 9.596 10.493a12.595 12.595 0 013.048 8.233c0 6.983-5.66 12.644-12.644 12.644-6.983 0-12.644-5.66-12.644-12.644 0-.631.046-1.251.136-1.858l-.136-.01c.062-5.214 1.115-9.429 3.161-12.644 3.069-4.822 6.322-9.483 11.59-10.537a26.605 26.605 0 0110.537 0z" fill="url(#l)" filter="url(#n)" transform="matrix(1 0 0 -1 60.31 192.035)"/><path d="M133.734 105.145c1.637 2.132 3.16 10.803 3.16 13.698 0 6.983-5.66 12.644-12.643 12.644-6.983 0-12.644-5.66-12.644-12.644 0-.802.113-2.035.31-3.445a9.467 9.467 0 00-7.686-3.93c-4.807 0-8.778 3.576-9.399 8.213.223 1.125.898 2.251 2.023 3.377h-6.322c1.405-1.405 2.108-2.81 2.108-4.215h.19c.992-5.396 5.719-9.483 11.4-9.483 3.17 0 6.043 1.273 8.135 3.335.593-3.124 1.472-6.353 2.402-7.55 2.313-2.978 5.42 1.054 9.483 1.054 4.088 0 7.171-4.063 9.483-1.054z" fill="url(#o)" filter="url(#p)" transform="matrix(1 0 0 -1 60.31 332.996)"/><path d="M123.32 23.956c6.983 0 12.644 5.66 12.644 12.644 0 6.983-5.66 12.644-12.644 12.644-6.983 0-12.644-5.66-12.644-12.644 0-1.134.15-2.233.43-3.279a9.47 9.47 0 00-7.806-4.097c-4.806 0-8.777 3.576-9.398 8.213.222 1.126.897 2.252 2.023 3.378h-6.322c1.405-1.405 2.107-2.81 2.107-4.215h.191c.991-5.395 5.718-9.483 11.4-9.483 3.45 0 6.548 1.508 8.672 3.9a12.643 12.643 0 0111.347-7.061z" fill="url(#q)" filter="url(#r)" transform="translate(60.31 97.474)"/><g fill-rule="nonzero" stroke="#636262" stroke-width=".5"><path d="M10.983-7.662V33.83l22.68-6.186v-29.12l-22.68-6.186z" fill="url(#s)" transform="matrix(0 -1 -1 0 198.525 257.52)"/><path d="M21.284-7.833H9.001v28.45h12.283v-28.45z" transform="rotate(90 -22.33 214.972)" fill="url(#t)"/></g><g fill-rule="nonzero" stroke="#636262" stroke-width=".5"><path d="M10.932 3.72v41.492l22.68-6.186V9.905l-22.68-6.186z" fill="url(#s)" transform="rotate(90 7.955 107.623)"/><path d="M21.622-7.034H9.34v28.45h12.283v-28.45z" transform="rotate(90 4.36 93.544)" fill="url(#t)"/></g><g><path d="M163.855 24.65a3.5 3.5 0 013.5 3.5l-.001.715h17.198v16.858l-17.198.001v.713a3.5 3.5 0 01-3.5 3.5h-7.75a3.5 3.5 0 01-3.5-3.5l-.001-.71L0 45.746V28.89l152.603-.022v-.718a3.5 3.5 0 013.5-3.5h7.752z" stroke="#636262" stroke-width=".5" fill="url(#u)" fill-rule="nonzero" transform="translate(32.887 137.051)"/><g stroke-width=".5"><path d="M12.644 0h10.537v70.596H12.644c0-11.24-1.405-16.859-4.215-16.859H0V20.02H8.429c2.81 0 4.215-6.673 4.215-20.02z" stroke="#636262" fill="url(#v)" fill-rule="nonzero" transform="translate(135.954 138.52)"/><path stroke="#636262" fill-opacity=".04" fill="#000" opacity=".5" d="M148.598 160.647h10.537v12.644h-10.537z"/><path stroke="#636262" fill-opacity=".04" fill="#000" opacity=".5" d="M148.598 173.29h10.537v12.645h-10.537z"/><path stroke="#636262" fill-opacity=".06" fill="#000" opacity=".5" d="M148.598 152.218h10.537v8.429h-10.537zM148.598 185.935h10.537v8.429h-10.537z"/><path stroke="#636262" fill-opacity=".08" fill="#000" opacity=".5" d="M148.598 145.896h10.537v6.322h-10.537zM148.598 194.365h10.537v6.322h-10.537z"/><path stroke="#636262" fill-opacity=".104" fill="#000" opacity=".5" d="M148.598 141.68h10.537v4.216h-10.537z"/><path stroke="#636262" fill-opacity=".1" fill="#000" opacity=".7" d="M148.598 200.687h10.537v5.268h-10.537z"/><path stroke="url(#w)" stroke-linecap="square" d="M2.107 53.737V20.02M4.215 53.737V20.02M6.322 53.737V20.02" transform="translate(135.954 138.52)"/><path stroke="url(#x)" stroke-linecap="square" d="M8.429 53.737V20.02" transform="translate(135.954 138.52)"/></g><path d="M200.241 161.7v8.43h-4.215v-8.43h4.215zm-10.537 0v8.43h-4.214v-8.43h4.214zM200.241 186.989v-8.43h-4.215v8.43h4.215zm-10.537 0v-8.43h-4.214v8.43h4.214zM73.2 163.808h10.537v6.322H73.2zM73.2 178.56h10.537v6.321H73.2zM166.315 163.808h10.537v6.322h-10.537zM166.315 178.56h10.537v6.321h-10.537z" fill="#0F436B"/><g stroke-width=".5"><path d="M12.644 0h10.537v70.596H12.644c0-11.24-1.405-16.859-4.215-16.859H0V20.02H8.429c2.81 0 4.215-6.673 4.215-20.02z" stroke="#636262" fill="url(#v)" fill-rule="nonzero" transform="translate(105.593 138.52)"/><path stroke="#636262" fill-opacity=".04" fill="#000" opacity=".5" d="M118.237 160.647h10.537v12.644h-10.537z"/><path stroke="#636262" fill-opacity=".04" fill="#000" opacity=".5" d="M118.237 173.29h10.537v12.645h-10.537z"/><path stroke="#636262" fill-opacity=".06" fill="#000" opacity=".5" d="M118.237 152.218h10.537v8.429h-10.537zM118.237 185.935h10.537v8.429h-10.537z"/><path stroke="#636262" fill-opacity=".08" fill="#000" opacity=".5" d="M118.237 145.896h10.537v6.322h-10.537zM118.237 194.365h10.537v6.322h-10.537z"/><path stroke="#636262" fill-opacity=".104" fill="#000" opacity=".5" d="M118.237 141.68h10.537v4.216h-10.537z"/><path stroke="#636262" fill-opacity=".1" fill="#000" opacity=".7" d="M118.237 200.687h10.537v5.268h-10.537z"/><path stroke="url(#w)" stroke-linecap="square" d="M2.107 53.737V20.02M4.215 53.737V20.02M6.322 53.737V20.02" transform="translate(105.593 138.52)"/><path stroke="url(#x)" stroke-linecap="square" d="M8.429 53.737V20.02" transform="translate(105.593 138.52)"/></g><g><path d="M197.037 71.846l6.322 8.429h7.375V76.06h14.752v4.215h51.552a4 4 0 014 4v8.859a4 4 0 01-4 4h-51.552v4.214h-14.752v-4.214h-7.375l-6.322 8.43h-46.362l-6.322-8.43h-26.556a4 4 0 01-4-4v-8.859a4 4 0 014-4h26.556l6.322-8.43h46.362z" stroke="#636262" stroke-width=".5" fill="url(#y)" fill-rule="nonzero" transform="translate(-249.948 86.324)"/><g transform="translate(16.667 153.954)"><mask id="B" fill="#fff"><use xlink:href="#z"/></mask><use fill="url(#A)" fill-rule="nonzero" xlink:href="#z"/><path fill="#7F7F7F" fill-rule="nonzero" mask="url(#B)" transform="matrix(-1 0 0 1 11.527 0)" d="M-7.106-2.107l-.62.745 26.36 31.632.62-.745zM-7.106 2.107l-.62.745 26.36 31.633.62-.746zM-7.106 6.322l-.62.745L18.633 38.7l.62-.745zM-7.106 10.537l-.62.745 26.36 31.632.62-.745zM-7.106 14.751l-.62.745 26.36 31.633.62-.745zM-7.106 18.966l-.62.745 26.36 31.632.62-.745zM-7.106 23.18l-.62.746 26.36 31.632.62-.745zM-7.106 27.395l-.62.746 26.36 31.632.62-.745zM-7.106-6.322l-.62.745 26.36 31.632.62-.745zM-7.106-10.537l-.62.745 26.36 31.632.62-.745zM-7.106-14.751l-.62.745 26.36 31.632.62-.745zM-7.106-18.966l-.62.745 26.36 31.632.62-.745z"/></g><path stroke="#636262" stroke-width=".5" d="M16.667 153.954h12.644v42.147H16.667z"/><g><g transform="translate(28.208 153.954)"><mask id="D" fill="#fff"><use xlink:href="#C"/></mask><use fill="url(#A)" fill-rule="nonzero" xlink:href="#C"/><path fill="#7F7F7F" fill-rule="nonzero" mask="url(#D)" transform="matrix(-1 0 0 1 11.527 0)" d="M-7.106-2.107l-.62.745 26.36 31.632.62-.745zM-7.106 2.107l-.62.745 26.36 31.633.62-.746zM-7.106 6.322l-.62.745L18.633 38.7l.62-.745zM-7.106 10.537l-.62.745 26.36 31.632.62-.745zM-7.106 14.751l-.62.745 26.36 31.633.62-.745zM-7.106 18.966l-.62.745 26.36 31.632.62-.745zM-7.106 23.18l-.62.746 26.36 31.632.62-.745zM-7.106 27.395l-.62.746 26.36 31.632.62-.745zM-7.106-6.322l-.62.745 26.36 31.632.62-.745zM-7.106-10.537l-.62.745 26.36 31.632.62-.745zM-7.106-14.751l-.62.745 26.36 31.632.62-.745zM-7.106-18.966l-.62.745 26.36 31.632.62-.745z"/></g><path stroke="#636262" stroke-width=".5" d="M28.208 153.954h12.644v42.147H28.208z"/></g></g></g></g></g></svg>