<svg xmlns="http://www.w3.org/2000/svg" width="43" height="21"><defs><linearGradient id="a" x1=".04%" x2="100.028%" y1="49.99%" y2="49.99%"><stop offset="0%" stop-color="#8B878D"/><stop offset="51.52%" stop-color="#F3F4F4"/><stop offset="100%" stop-color="#807B80"/></linearGradient><linearGradient id="b" x1="50.034%" x2="50.034%" y1="99.984%" y2="-.004%"><stop offset="0%" stop-color="#8B878D"/><stop offset="13.66%" stop-color="#9F9CA1"/><stop offset="42.07%" stop-color="#D9D8DA"/><stop offset="51.52%" stop-color="#F3F4F4"/><stop offset="100%" stop-color="#807B80"/></linearGradient><linearGradient id="c" x1="0%" x2="100%" y1="0%" y2="0%"><stop offset="0%" stop-color="#0B6D2D"/><stop offset="49.556%" stop-color="#80EAA5"/><stop offset="100%" stop-color="#0B6D2D"/></linearGradient></defs><g fill="none" fill-rule="evenodd"><path fill="url(#a)" fill-rule="nonzero" stroke="#636262" stroke-width=".5" d="M1 .25h41v13.5H1z"/><path fill="url(#b)" fill-rule="nonzero" d="M9.985 4.262h1V.41h-1z" transform="translate(11 14)"/><path fill="url(#c)" stroke="#636262" stroke-width=".5" d="M16.097 2.077c-2.543 0-4.665 1.205-5.882 1.836-.938-.63-3.06-1.836-5.603-1.836-1.1 0-2.1.262-2.823.692-.663.394-1.101.929-1.101 1.537 0 .608.438 1.144 1.1 1.538.724.429 1.723.691 2.824.691 2.567 0 4.665-1.205 5.882-1.835.938.63 3.06 1.835 5.603 1.835 1.1 0 2.1-.262 2.822-.691.663-.394 1.102-.93 1.102-1.538s-.439-1.143-1.102-1.537c-.723-.43-1.722-.692-2.822-.692z" transform="translate(11 14)"/></g></svg>