<svg xmlns="http://www.w3.org/2000/svg" width="24" height="24"><g fill="none" fill-rule="evenodd"><path fill="#6B7C94" stroke="#FFF" stroke-opacity=".2" d="M5.046 8.786A1.5 1.5 0 004.5 9.944V19A1.5 1.5 0 006 20.5h13a1.5 1.5 0 001.5-1.5V9.944a1.5 1.5 0 00-.546-1.158l-6.5-5.353a1.5 1.5 0 00-1.908 0l-6.5 5.353z"/><path fill="#FFF" fill-rule="nonzero" d="M6.6 12.81L10.9 11l.39 1.21-3.14 1.22 3.14 1.22-.39 1.21-4.3-1.81v-1.24zm11.76 1.24l-4.3 1.81-.39-1.21 3.14-1.22-3.14-1.22.39-1.21 4.3 1.81v1.24z"/></g></svg>