<svg xmlns="http://www.w3.org/2000/svg" width="17" height="21"><g fill="#FFF"><path d="M11 .5a2.501 2.501 0 012.495 2.336L13.5 3v.5h-1V3a1.5 1.5 0 00-1.356-1.493L11 1.5H3a1.5 1.5 0 00-1.493 1.356L1.5 3v12a1.5 1.5 0 001.356 1.493L3 16.5h1v1H3a2.501 2.501 0 01-2.495-2.336L.5 15V3A2.501 2.501 0 012.836.505L3 .5h8z"/><path d="M14 3.5H6A2.5 2.5 0 003.5 6v12A2.5 2.5 0 006 20.5h8a2.5 2.5 0 002.5-2.5V6A2.5 2.5 0 0014 3.5zm-8 1h8A1.5 1.5 0 0115.5 6v12a1.5 1.5 0 01-1.5 1.5H6A1.5 1.5 0 014.5 18V6A1.5 1.5 0 016 4.5z"/></g></svg>