<svg xmlns="http://www.w3.org/2000/svg" xmlns:xlink="http://www.w3.org/1999/xlink" width="24" height="17"><defs><linearGradient id="a" x1="50.034%" x2="50.034%" y1="99.984%" y2="-.004%"><stop offset="0%" stop-color="#8B878D"/><stop offset="13.66%" stop-color="#9F9CA1"/><stop offset="42.07%" stop-color="#D9D8DA"/><stop offset="51.52%" stop-color="#F3F4F4"/><stop offset="100%" stop-color="#807B80"/></linearGradient><linearGradient id="b" x1="50.034%" x2="50.034%" y1="99.984%" y2="-.004%"><stop offset="0%" stop-color="#8B878D"/><stop offset="13.66%" stop-color="#9F9CA1"/><stop offset="42.07%" stop-color="#D9D8DA"/><stop offset="51.52%" stop-color="#F3F4F4"/><stop offset="100%" stop-color="#807B80"/></linearGradient><linearGradient id="c" x1="50.034%" x2="50.034%" y1="99.984%" y2="-.004%"><stop offset="0%" stop-color="#8B878D"/><stop offset="13.66%" stop-color="#9F9CA1"/><stop offset="42.07%" stop-color="#D9D8DA"/><stop offset="51.52%" stop-color="#F3F4F4"/><stop offset="100%" stop-color="#807B80"/></linearGradient><linearGradient id="e" x1="50.034%" x2="50.034%" y1="99.984%" y2="-.004%"><stop offset="0%" stop-color="#8B878D"/><stop offset="13.66%" stop-color="#9F9CA1"/><stop offset="42.07%" stop-color="#D9D8DA"/><stop offset="51.52%" stop-color="#F3F4F4"/><stop offset="100%" stop-color="#807B80"/></linearGradient><filter id="f" width="121.7%" height="179.3%" x="-10.9%" y="-39.7%" filterUnits="objectBoundingBox"><feGaussianBlur in="SourceAlpha" result="shadowBlurInner1" stdDeviation="1.5"/><feOffset dy="1" in="shadowBlurInner1" result="shadowOffsetInner1"/><feComposite in="shadowOffsetInner1" in2="SourceAlpha" k2="-1" k3="1" operator="arithmetic" result="shadowInnerInner1"/><feColorMatrix in="shadowInnerInner1" values="0 0 0 0 0 0 0 0 0 0 0 0 0 0 0 0 0 0 0.5 0"/></filter><path id="d" d="M5.67 7.348a2.81 2.81 0 01-1.326.287 1.99 1.99 0 01-.727-.124 1.47 1.47 0 01-.542-.36 1.588 1.588 0 01-.34-.568 2.215 2.215 0 01-.119-.746c0-.357.06-.704.179-1.042.119-.338.291-.639.516-.902.226-.264.5-.475.823-.634.323-.16.688-.24 1.096-.24a2.414 2.414 0 011.218.307l-.306.643a1.857 1.857 0 00-.437-.188 1.903 1.903 0 00-.526-.067c-.268 0-.508.06-.72.179a1.801 1.801 0 00-.545.469 2.1 2.1 0 00-.345.66 2.461 2.461 0 00-.117.752c0 .395.086.687.258.876.172.19.424.284.755.284.255 0 .472-.029.65-.086a3.97 3.97 0 00.46-.176l.095.676zm1.702.28c-.395 0-.697-.116-.905-.35-.208-.234-.312-.542-.312-.924 0-.247.038-.502.114-.765.077-.264.194-.504.35-.72a1.94 1.94 0 01.594-.536c.238-.14.518-.21.841-.21.396 0 .697.115.906.347.208.232.312.539.312.921 0 .25-.037.508-.112.771a2.28 2.28 0 01-.344.72 1.892 1.892 0 01-.593.536c-.24.14-.524.21-.85.21zm.587-2.855a.727.727 0 00-.443.143c-.13.096-.238.218-.326.367a1.946 1.946 0 00-.2.487 2 2 0 00-.07.514c0 .212.04.38.12.503.081.123.224.185.428.185a.727.727 0 00.443-.143c.13-.096.238-.217.325-.364.087-.146.154-.309.2-.487.048-.179.07-.349.07-.51 0-.213-.04-.382-.12-.507-.08-.126-.223-.188-.427-.188zm3.002 2.856c-.395 0-.697-.117-.905-.35-.208-.235-.312-.543-.312-.925 0-.247.038-.502.114-.765.077-.264.194-.504.351-.72a1.94 1.94 0 01.593-.536c.238-.14.518-.21.841-.21.396 0 .697.115.906.347.208.232.312.539.312.921 0 .25-.037.508-.112.771a2.28 2.28 0 01-.344.72 1.892 1.892 0 01-.593.536c-.24.14-.523.21-.85.21zm.587-2.856a.727.727 0 00-.443.143c-.13.096-.238.218-.325.367a1.946 1.946 0 00-.201.487 2 2 0 00-.07.514c0 .212.04.38.12.503.082.123.224.185.428.185a.727.727 0 00.443-.143c.13-.096.238-.217.325-.364.087-.146.154-.309.2-.487.048-.179.071-.349.071-.51 0-.213-.04-.382-.121-.507-.08-.126-.223-.188-.427-.188zm2.907 2.83c-.2-.004-.369-.03-.507-.076a.863.863 0 01-.332-.192.697.697 0 01-.178-.286 1.164 1.164 0 01-.054-.364c0-.136.016-.28.048-.43.031-.15.067-.3.105-.45l.74-3.085.803-.128-.396 1.661-.199.828-.202.833c-.022.09-.045.177-.07.264a.916.916 0 00-.039.259l.003.2a.3.3 0 00.051.16c.032.044.08.082.144.111a.74.74 0 00.249.058l-.166.637zm.72-1.268c0-.285.046-.56.137-.826a2.24 2.24 0 01.395-.708c.173-.206.38-.37.622-.494.242-.123.514-.185.816-.185.323 0 .574.083.752.25a.831.831 0 01.268.637c0 .267-.066.484-.198.65a1.334 1.334 0 01-.513.389c-.21.093-.448.157-.714.191a8.42 8.42 0 01-.806.064.057.057 0 00-.007.025v.064c0 .387.245.58.734.58.289 0 .578-.06.867-.178l.063.624a2.603 2.603 0 01-.433.14c-.187.047-.4.07-.638.07s-.442-.033-.612-.101a1.113 1.113 0 01-.417-.28 1.126 1.126 0 01-.24-.412 1.593 1.593 0 01-.076-.5zm1.855-1.581a.885.885 0 00-.363.076 1.009 1.009 0 00-.306.21 1.442 1.442 0 00-.376.708c.51-.017.88-.079 1.112-.185.232-.106.348-.265.348-.478a.333.333 0 00-.093-.23c-.061-.067-.169-.101-.322-.101zm3.793.133a1.722 1.722 0 00-.618-.095 1.763 1.763 0 00-.433.057l-.644 2.69h-.772l.765-3.18c.179-.06.372-.112.58-.157.209-.044.434-.067.676-.067l.081.003.091.007c.064.006.127.014.188.022.062.009.12.02.172.032a.8.8 0 01.138.045l-.224.643z"/></defs><g fill="none"><path fill="url(#a)" stroke="#636262" stroke-width=".5" d="M16.98-5.75H6.853v22.167H16.98V-5.75z" transform="rotate(90 11.917 5.333)"/><path fill="url(#b)" d="M11.702 14.497h1v-3.851h-1z"/><path fill="url(#c)" stroke="#636262" stroke-width=".5" d="M15.814.381c-2.543 0-4.665 1.206-5.882 1.836C8.994 1.587 6.872.381 4.33.381c-1.1 0-2.1.263-2.823.692-.663.394-1.101.93-1.101 1.538s.438 1.143 1.101 1.537c.723.43 1.723.692 2.823.692 2.568 0 4.665-1.206 5.882-1.836.938.63 3.06 1.836 5.603 1.836 1.1 0 2.1-.263 2.823-.692.663-.394 1.101-.93 1.101-1.537 0-.609-.438-1.144-1.101-1.538-.723-.43-1.722-.692-2.823-.692z" transform="translate(2 11.931)"/><use fill="#FFF" xlink:href="#d"/><use fill="url(#e)" xlink:href="#d"/><use fill="#000" filter="url(#f)" xlink:href="#d"/></g></svg>