<svg width="365" height="145" xmlns="http://www.w3.org/2000/svg" xmlns:xlink="http://www.w3.org/1999/xlink"><defs><linearGradient x1="50.034%" y1="100%" x2="50.034%" y2="0%" id="b"><stop stop-color="#363D43" offset="0%"/><stop stop-color="#798085" offset="38.975%"/><stop stop-color="#82888D" offset="63.704%"/><stop stop-color="#363D43" offset="100%"/></linearGradient><path d="M359.48 0a4 4 0 014 4v128.475c0 6.627-5.372 12-12 12h-19.57c-6.628 0-12-5.373-12-12V4a4 4 0 014-4h35.57zm-39.579 18.346v107.783l-129.56-11.466-13.579-10.32H88.36L0 128.996c4.487-18.16 6.777-36.315 6.872-54.465C6.966 56.38 4.675 38.225 0 20.066l88.36 20.066 86.579 1.083 14.255-11.403L319.9 18.346z" id="a"/></defs><use fill="url(#b)" fill-rule="nonzero" xlink:href="#a" transform="translate(.008)"/></svg>