<svg width="363" height="149" xmlns="http://www.w3.org/2000/svg"><defs><linearGradient x1="50.034%" y1="100%" x2="50.034%" y2="0%" id="a"><stop stop-color="#363D43" offset="0%"/><stop stop-color="#798085" offset="38.285%"/><stop stop-color="#82888D" offset="54.637%"/><stop stop-color="#363D43" offset="100%"/></linearGradient></defs><path d="M1035.122 681.192a4 4 0 014 4v127.46c0 6.627-5.372 12-12 12h-19.305c-6.628 0-12-5.373-12-12v-127.46a4 4 0 014-4h35.305zM771.636 783.167L677 806.502v-107.6l94.636 22.903 91.178-5.617.493-40.188h43.206l.401 30.293 88.895-6.884v107.025l-88.895-3.953.014 9.997c.01 6.628-5.355 12.008-11.983 12.017h-19.66c-6.619 0-11.988-5.36-12-11.979l-.038-22.435-91.611-6.914z" transform="translate(-677 -676)" fill="url(#a)" fill-rule="nonzero"/></svg>