<?xml version="1.0" encoding="UTF-8"?>
<svg width="24px" height="24px" viewBox="0 0 24 24" version="1.1" xmlns="http://www.w3.org/2000/svg" xmlns:xlink="http://www.w3.org/1999/xlink">
    <title>Icon/Funnel/Funnel-Line</title>
    <g id="Icon/Funnel/Funnel-Line" stroke="none" stroke-width="1" fill="none" fill-rule="evenodd">
        <polygon id="Bounding-Box" opacity="0" fill-rule="nonzero" points="0 0 24 0 24 24 0 24"></polygon>
        <path d="M13.3742236,20.8149463 L9.77329357,16.9771581 C9.54999809,16.7962315 9.42006753,16.5156835 9.42220288,16.2190765 L9.42220288,13.1204179 L5.10108679,4.38352721 C4.87238094,3.91883932 5.04485117,3.34697382 5.48631071,3.10623552 C5.6148432,3.0361432 5.75753726,2.99971084 5.90229375,3.00000173 L18.505549,3.00000173 C18.8233914,3.00000173 19.1176495,3.17656749 19.2797489,3.46435328 C19.4405602,3.75754228 19.4405602,4.11876628 19.2797489,4.41195529 L14.7785863,13.1393699 L14.7785863,20.0568647 C14.7809673,20.4171045 14.5890892,20.7476063 14.2834567,20.9097078 C14.1682296,20.9685729 14.042396,21.000879 13.9143613,21.004468 C13.7195798,21.004468 13.5300503,20.937966 13.3742236,20.8149463 Z M11.2136656,15.7547515 L13.0141307,18.1521846 L13.0141307,12.8929934 C13.0135703,12.7486001 13.0443628,12.6059888 13.1041566,12.4760422 L16.9751564,4.89522604 L7.37867778,4.89522604 L11.0966381,12.4760422 C11.1622847,12.6109164 11.1962425,12.7603959 11.1956637,12.9119392 L11.2136656,15.7547515 Z" id="Fill" fill="#FFFFFF" transform="translate(12.200179, 12.002234) scale(-1, 1) translate(-12.200179, -12.002234) "></path>
    </g>
</svg>