<svg width="727" height="257" xmlns="http://www.w3.org/2000/svg" xmlns:xlink="http://www.w3.org/1999/xlink"><defs><linearGradient x1="50.034%" y1="0%" x2="50.034%" y2="100%" id="i"><stop stop-color="#363D43" offset="0%"/><stop stop-color="#798085" offset="49.388%"/><stop stop-color="#363D43" offset="100%"/></linearGradient><linearGradient x1=".169%" y1="49.86%" x2="99.899%" y2="49.86%" id="a"><stop stop-color="#6B666B" offset="0%"/><stop stop-color="#F3F4F4" offset="50.303%"/><stop stop-color="#6B666B" offset="100%"/></linearGradient><linearGradient x1=".169%" y1="49.86%" x2="99.899%" y2="49.86%" id="c"><stop stop-color="#524E52" offset="0%"/><stop stop-color="#F3F4F4" offset="50.303%"/><stop stop-color="#524E52" offset="100%"/></linearGradient><linearGradient x1=".169%" y1="49.86%" x2="99.899%" y2="49.86%" id="d"><stop stop-color="#6B666B" offset="0%"/><stop stop-color="#F3F4F4" offset="50.303%"/><stop stop-color="#6B666B" offset="100%"/></linearGradient><linearGradient x1=".453%" y1="50.403%" x2="99.615%" y2="50.403%" id="g"><stop stop-color="#AFACB1" offset="0%"/><stop stop-color="#BAB9BC" offset="28.499%"/><stop stop-color="#D9D8DA" offset="42.07%"/><stop stop-color="#F3F4F4" offset="58.437%"/><stop stop-color="#958F95" offset="100%"/></linearGradient><linearGradient x1=".04%" y1="49.99%" x2="100.028%" y2="49.99%" id="p"><stop stop-color="#8B878D" offset="0%"/><stop stop-color="#F3F4F4" offset="49.93%"/><stop stop-color="#807B80" offset="100%"/></linearGradient><linearGradient x1="50.034%" y1="-.004%" x2="50.034%" y2="99.984%" id="o"><stop stop-color="#8B878D" offset="0%"/><stop stop-color="#F3F4F4" offset="53.011%"/><stop stop-color="#807B80" offset="100%"/></linearGradient><linearGradient x1=".04%" y1="49.99%" x2="100.028%" y2="49.99%" id="h"><stop stop-color="#8B878D" offset="0%"/><stop stop-color="#F3F4F4" offset="49.93%"/><stop stop-color="#807B80" offset="100%"/></linearGradient><linearGradient x1=".169%" y1="49.86%" x2="99.899%" y2="49.86%" id="b"><stop stop-color="#6B666B" offset="0%"/><stop stop-color="#F3F4F4" offset="50.303%"/><stop stop-color="#6B666B" offset="100%"/></linearGradient><linearGradient x1=".453%" y1="50.403%" x2="99.615%" y2="50.403%" id="n"><stop stop-color="#AFACB1" offset="0%"/><stop stop-color="#BAB9BC" offset="28.499%"/><stop stop-color="#D9D8DA" offset="42.07%"/><stop stop-color="#F3F4F4" offset="58.437%"/><stop stop-color="#958F95" offset="100%"/></linearGradient><linearGradient x1=".04%" y1="49.99%" x2="100.028%" y2="49.99%" id="q"><stop stop-color="#8B878D" offset="0%"/><stop stop-color="#F3F4F4" offset="49.121%"/><stop stop-color="#807B80" offset="100%"/></linearGradient><filter x="-31.2%" y="-8.8%" width="162.5%" height="117.5%" filterUnits="objectBoundingBox" id="k"><feGaussianBlur stdDeviation="4.5" in="SourceAlpha" result="shadowBlurInner1"/><feOffset dy="1" in="shadowBlurInner1" result="shadowOffsetInner1"/><feComposite in="shadowOffsetInner1" in2="SourceAlpha" operator="arithmetic" k2="-1" k3="1" result="shadowInnerInner1"/><feColorMatrix values="0 0 0 0 0 0 0 0 0 0 0 0 0 0 0 0 0 0 0.301737325 0" in="shadowInnerInner1"/></filter><filter x="-58.3%" y="-14.4%" width="205.6%" height="132.2%" filterUnits="objectBoundingBox" id="l"><feOffset dx="-1" dy="1" in="SourceAlpha" result="shadowOffsetOuter1"/><feGaussianBlur stdDeviation="3" in="shadowOffsetOuter1" result="shadowBlurOuter1"/><feColorMatrix values="0 0 0 0 0 0 0 0 0 0 0 0 0 0 0 0 0 0 0.230550699 0" in="shadowBlurOuter1"/></filter><filter x="-10.5%" y="-37%" width="119%" height="182.6%" filterUnits="objectBoundingBox" id="e"><feOffset dx="-1" dy="1" in="SourceAlpha" result="shadowOffsetOuter1"/><feGaussianBlur stdDeviation="3" in="shadowOffsetOuter1" result="shadowBlurOuter1"/><feColorMatrix values="0 0 0 0 0 0 0 0 0 0 0 0 0 0 0 0 0 0 0.230550699 0" in="shadowBlurOuter1"/></filter><path d="M30-19a8 8 0 018 8v41a8 8 0 11-16 0v-41a8 8 0 018-8z" id="j"/><path d="M30-20a9 9 0 00-9 9v41a9 9 0 0018 0v-41a9 9 0 00-9-9zm0 2a7 7 0 017 7v41a7 7 0 01-14 0v-41a7 7 0 017-7z" id="m"/><path d="M130.5 48c6.351 0 11.5 5.149 11.5 11.5S136.851 71 130.5 71h-77C47.149 71 42 65.851 42 59.5S47.149 48 53.5 48h77zm0 1h-77C47.701 49 43 53.701 43 59.5c0 5.704 4.548 10.346 10.216 10.496L53.5 70h77c5.799 0 10.5-4.701 10.5-10.5 0-5.704-4.548-10.346-10.216-10.496L130.5 49z" id="f"/></defs><g fill="none" fill-rule="evenodd"><g fill-rule="nonzero"><path d="M699 84v173H535V84h164zm-4 4H539v165h156V88z" fill="#C2C2C2"/><path d="M117.75 45.25v118.276c-2.39-14.19-9.486-27.372-19.573-37.118C87.7 116.288 74 109.873 59 109.873c-15.01 0-28.72 6.423-39.161 16.539-10.003 9.69-17.007 22.767-19.287 36.823h0L.251 45.25H117.75zM15.5 52.75c-1.01 0-1.928.4-2.604 1.075-.661.662-1.092 1.59-1.146 2.669V84.5c0 1.036.42 1.973 1.098 2.652A3.738 3.738 0 0015.5 88.25c1.01 0 1.928-.4 2.604-1.075.661-.662 1.092-1.59 1.146-2.669V56.5c0-1.036-.42-1.973-1.098-2.652A3.738 3.738 0 0015.5 52.75zm87 0c-1.01 0-1.928.4-2.604 1.075-.661.662-1.092 1.59-1.146 2.669V84.5c0 1.036.42 1.973 1.098 2.652a3.738 3.738 0 002.652 1.098c1.01 0 1.928-.4 2.604-1.075.661-.662 1.092-1.59 1.146-2.669V56.5c0-1.036-.42-1.973-1.098-2.652a3.738 3.738 0 00-2.652-1.098zm-98.5 0c-.602 0-1.148.236-1.553.641-.393.392-.654.945-.697 1.6V86c0 .621.252 1.184.659 1.591.407.407.97.659 1.591.659.602 0 1.148-.236 1.553-.641.393-.392.654-.945.697-1.6V55c0-.621-.252-1.184-.659-1.591A2.243 2.243 0 004 52.75zm110 0c-.602 0-1.148.236-1.553.641-.393.392-.654.945-.697 1.6V86c0 .621.252 1.184.659 1.591.407.407.97.659 1.591.659.602 0 1.148-.236 1.553-.641.393-.392.654-.945.697-1.6V55c0-.621-.252-1.184-.659-1.591A2.243 2.243 0 00114 52.75zm-85 0c-1.148 0-2.19.455-2.955 1.22-.752.752-1.24 1.805-1.295 3.024V84c0 1.174.476 2.236 1.245 3.005A4.237 4.237 0 0029 88.25c1.148 0 2.19-.455 2.955-1.22.752-.752 1.24-1.805 1.295-3.024V57a4.237 4.237 0 00-1.245-3.005A4.237 4.237 0 0029 52.75zm60 0c-1.148 0-2.19.455-2.955 1.22-.752.752-1.24 1.805-1.295 3.024V84c0 1.174.476 2.236 1.245 3.005A4.237 4.237 0 0089 88.25c1.148 0 2.19-.455 2.955-1.22.752-.752 1.24-1.805 1.295-3.024V57a4.237 4.237 0 00-1.245-3.005A4.237 4.237 0 0089 52.75zm-45.5 0c-1.284 0-2.45.51-3.306 1.366-.841.841-1.385 2.019-1.444 3.379V83.5c0 1.312.532 2.5 1.391 3.359A4.735 4.735 0 0043.5 88.25c1.284 0 2.45-.51 3.306-1.366.841-.841 1.385-2.019 1.444-3.379V57.5c0-1.312-.532-2.5-1.391-3.359A4.735 4.735 0 0043.5 52.75zm31 0c-1.284 0-2.45.51-3.306 1.366-.841.841-1.385 2.019-1.444 3.379V83.5c0 1.312.532 2.5 1.391 3.359A4.735 4.735 0 0074.5 88.25c1.284 0 2.45-.51 3.306-1.366.841-.841 1.385-2.019 1.444-3.379V57.5c0-1.312-.532-2.5-1.391-3.359A4.735 4.735 0 0074.5 52.75zm-15.5 0a5.141 5.141 0 00-3.658 1.511c-.932.932-1.532 2.235-1.592 3.734V83c0 1.45.588 2.762 1.538 3.712A5.234 5.234 0 0059 88.25a5.141 5.141 0 003.658-1.511c.932-.932 1.532-2.235 1.592-3.734V58c0-1.45-.588-2.762-1.538-3.712A5.234 5.234 0 0059 52.75z" stroke="#636262" stroke-width=".5" fill="url(#a)" transform="translate(558 87)"/><g stroke="#605F5F" stroke-width=".5"><path fill="url(#b)" d="M15 23h34L39 33H25z" transform="translate(585 87)"/><path d="M46.356.25H18.14l-8 13H.565l9.546 10.5h43.778l9.546-10.5h-9.58l-7.5-13z" fill="url(#c)" transform="translate(585 87)"/></g><path d="M113 6.25c1.312 0 2.5.532 3.359 1.391A4.735 4.735 0 01117.75 11h0v34.75H.25V11c0-1.312.532-2.5 1.391-3.359A4.735 4.735 0 015 6.25h0zm-15.5 7.5h0-77a11.713 11.713 0 00-8.309 3.441A11.713 11.713 0 008.75 25.5a11.59 11.59 0 003.406 8.236c2.103 2.103 5.028 3.433 8.338 3.514H97.5c3.245 0 6.182-1.315 8.309-3.441a11.713 11.713 0 003.441-8.309c0-3.245-1.315-6.182-3.441-8.309A11.713 11.713 0 0097.5 13.75z" stroke="#636262" stroke-width=".5" fill="url(#d)" transform="translate(558 87)"/><path d="M560 254c0-31.48 25.52-57 57-57s57 25.52 57 57" stroke="#C2C2C2" stroke-width="4"/><g transform="translate(525 53)"><use fill="#000" filter="url(#e)" xlink:href="#f"/><use fill="url(#g)" xlink:href="#f"/></g><g><path stroke="#636262" stroke-width=".5" fill="url(#h)" d="M.25.25h117.5v4.5H.25z" transform="translate(558 171)"/><g transform="rotate(90 237 387.5)"><use fill="url(#i)" xlink:href="#j"/><use fill="#000" filter="url(#k)" xlink:href="#j"/></g><g transform="rotate(90 237 387.5)"><use fill="#000" filter="url(#l)" xlink:href="#m"/><use fill="url(#n)" xlink:href="#m"/></g><path d="M645 180.5a9.5 9.5 0 01-9.23 9.496l-.27.004h-41a9.5 9.5 0 01-.27-18.996l.27-.004h41a9.5 9.5 0 019.5 9.5zm-.5 0a9 9 0 00-8.735-8.996l-.265-.004h-41l-.265.004a9 9 0 00-8.731 8.73l-.004.266.004.265a9 9 0 008.73 8.731l.266.004h41l.265-.004a9 9 0 008.735-8.996z" fill="#7F7F7F"/></g><g stroke="#636262" stroke-width=".5"><path fill="url(#o)" transform="rotate(90 328.19 296.381)" d="M85-7h14.381v28.763H85z"/><path d="M4 14h176a4 4 0 014 4v16.773h0H0V18a4 4 0 014-4z" fill="url(#p)" transform="translate(525 53)"/><path fill="url(#q)" d="M0 23h184v3.196H0z" transform="translate(525 53)"/></g></g><path stroke="#FFF" opacity=".5" d="M666 130h57v-25h-37"/><circle transform="matrix(0 1 1 0 718 113)" cx="4.5" cy="4.5" r="4.5" fill="#62B5E5"/><g><path d="M617.499 102.5v13m-.277 1h-48m-11.5 0h-47.958m-32.571 0H439.61m-10.523 0H389.5m0-.5V56m0-33.5V1m1.503 0H618l.222 52M99.196 116.5h96.944m32.482 0h87.45m10.493 0h64.963M6 116.5h61.215" stroke="#FFCC01" stroke-width="1.5" stroke-linecap="square"/><path fill="#FFCB00" d="M145.364 77.293h-10.142l5.07-7.071zM.293 121.364v-10.142l7.071 5.07z"/><path stroke="#FFF" opacity=".5" d="M350.5 117.5v24h-57v-24"/><circle transform="translate(317.5 136.5)" cx="4.5" cy="4.5" r="4.5" fill="#62B5E5"/><path stroke="#FFF" opacity=".5" d="M463.5 115.5v-24h-57v24"/><circle transform="matrix(1 0 0 -1 430.5 96.5)" cx="4.5" cy="4.5" r="4.5" fill="#62B5E5"/><path d="M141 116v-10.127m0-20.253V76" stroke="#FFCC01" stroke-width="1.5" stroke-linecap="square"/><g fill="#A1A9B4" fill-rule="nonzero"><path d="M317.5 121.5v-10h1.5v10zM325 121.5v-10h1.5v10zM321.2 121.5v-4h1.5v4zM321.2 115.5v-4h1.5v4z"/></g><g fill="#A1A9B4" fill-rule="nonzero"><path d="M429.5 121.5v-10h1.5v10zM437 121.5v-10h1.5v10zM433.2 121.5v-4h1.5v4zM433.2 115.5v-4h1.5v4z"/></g></g></g></svg>