<svg width="566" height="496" xmlns="http://www.w3.org/2000/svg" xmlns:xlink="http://www.w3.org/1999/xlink"><defs><filter x="-1.3%" y="-1.3%" width="102.6%" height="102.6%" filterUnits="objectBoundingBox" id="c"><feGaussianBlur stdDeviation="4.5" in="SourceAlpha" result="shadowBlurInner1"/><feOffset dy="1" in="shadowBlurInner1" result="shadowOffsetInner1"/><feComposite in="shadowOffsetInner1" in2="SourceAlpha" operator="arithmetic" k2="-1" k3="1" result="shadowInnerInner1"/><feColorMatrix values="0 0 0 0 0 0 0 0 0 0 0 0 0 0 0 0 0 0 0.301737325 0" in="shadowInnerInner1"/></filter><filter x="-2.8%" y="-2.3%" width="105.2%" height="105.2%" filterUnits="objectBoundingBox" id="d"><feMorphology radius=".5" operator="dilate" in="SourceAlpha" result="shadowSpreadOuter1"/><feOffset dx="-1" dy="1" in="shadowSpreadOuter1" result="shadowOffsetOuter1"/><feGaussianBlur stdDeviation="3" in="shadowOffsetOuter1" result="shadowBlurOuter1"/><feComposite in="shadowBlurOuter1" in2="SourceAlpha" operator="out" result="shadowBlurOuter1"/><feColorMatrix values="0 0 0 0 0 0 0 0 0 0 0 0 0 0 0 0 0 0 0.230550699 0" in="shadowBlurOuter1"/></filter><filter x="-3.8%" y="-3.8%" width="107.6%" height="107.6%" filterUnits="objectBoundingBox" id="h"><feGaussianBlur stdDeviation="4.5" in="SourceAlpha" result="shadowBlurInner1"/><feOffset dy="1" in="shadowBlurInner1" result="shadowOffsetInner1"/><feComposite in="shadowOffsetInner1" in2="SourceAlpha" operator="arithmetic" k2="-1" k3="1" result="shadowInnerInner1"/><feColorMatrix values="0 0 0 0 0 0 0 0 0 0 0 0 0 0 0 0 0 0 0.301737325 0" in="shadowInnerInner1"/></filter><filter x="-8.3%" y="-6.8%" width="115%" height="115%" filterUnits="objectBoundingBox" id="i"><feMorphology radius=".5" operator="dilate" in="SourceAlpha" result="shadowSpreadOuter1"/><feOffset dx="-1" dy="1" in="shadowSpreadOuter1" result="shadowOffsetOuter1"/><feGaussianBlur stdDeviation="3" in="shadowOffsetOuter1" result="shadowBlurOuter1"/><feComposite in="shadowBlurOuter1" in2="SourceAlpha" operator="out" result="shadowBlurOuter1"/><feColorMatrix values="0 0 0 0 0 0 0 0 0 0 0 0 0 0 0 0 0 0 0.230550699 0" in="shadowBlurOuter1"/></filter><linearGradient x1="50.034%" y1="0%" x2="50.034%" y2="100%" id="a"><stop stop-color="#363D43" offset="0%"/><stop stop-color="#61676C" offset="49.557%"/><stop stop-color="#363D43" offset="100%"/></linearGradient><linearGradient x1=".453%" y1="50.403%" x2="99.615%" y2="50.403%" id="f"><stop stop-color="#AFACB1" offset="0%"/><stop stop-color="#BAB9BC" offset="28.499%"/><stop stop-color="#D9D8DA" offset="42.07%"/><stop stop-color="#F3F4F4" offset="58.437%"/><stop stop-color="#958F95" offset="100%"/></linearGradient><circle id="b" cx="194" cy="194" r="190"/><circle id="g" cx="194.5" cy="192.5" r="65.5"/><path d="M194 0C86.857 0 0 86.857 0 194s86.857 194 194 194 194-86.857 194-194S301.143 0 194 0zm0 4c104.934 0 190 85.066 190 190s-85.066 190-190 190S4 298.934 4 194 89.066 4 194 4z" id="e"/><path d="M194.5 126c-36.727 0-66.5 29.773-66.5 66.5 0 36.727 29.773 66.5 66.5 66.5 36.727 0 66.5-29.773 66.5-66.5 0-36.727-29.773-66.5-66.5-66.5zm0 2c35.622 0 64.5 28.878 64.5 64.5S230.122 257 194.5 257 130 228.122 130 192.5s28.878-64.5 64.5-64.5z" id="j"/></defs><g fill="none" fill-rule="evenodd"><g transform="translate(171.044 7)"><g fill-rule="nonzero"><use fill="url(#a)" xlink:href="#b"/><use fill="#000" filter="url(#c)" xlink:href="#b"/></g><g fill-rule="nonzero"><use fill="#000" filter="url(#d)" xlink:href="#e"/><path stroke="#7F7F7F" stroke-width=".5" d="M194-.25c53.64 0 102.203 21.742 137.355 56.895C366.508 91.797 388.25 140.359 388.25 194c0 53.64-21.742 102.203-56.895 137.355C296.203 366.508 247.641 388.25 194 388.25c-53.64 0-102.203-21.742-137.355-56.895C21.492 296.203-.25 247.641-.25 194c0-53.64 21.742-102.203 56.895-137.355C91.797 21.492 140.359-.25 194-.25zm0 4.5c-52.398 0-99.836 21.238-134.174 55.576C25.488 94.164 4.25 141.602 4.25 194c0 52.398 21.238 99.836 55.576 134.174C94.164 362.512 141.602 383.75 194 383.75c52.398 0 99.836-21.238 134.174-55.576C362.512 293.836 383.75 246.398 383.75 194c0-52.398-21.238-99.836-55.576-134.174C293.836 25.488 246.398 4.25 194 4.25z" fill="url(#f)" fill-rule="evenodd"/></g><circle stroke="#F0F0F0" stroke-width="1.5" cx="194.5" cy="194.5" r="108.5"/><circle stroke="#9EA1A4" cx="194.5" cy="194.5" r="123.5"/><path d="M229.237 116.351C218.623 111.626 206.868 109 194.5 109c-12.13 0-23.672 2.526-34.125 7.082m-29.21 20.98C117.392 152.242 109 172.39 109 194.5c0 2.987.153 5.939.452 8.847m10.989 33.907c11.89 20.553 32.09 35.696 56.006 40.837m36.12-.004c24.101-5.184 44.427-20.528 56.276-41.327m10.786-34.247c.246-2.638.371-5.31.371-8.013 0-21.938-8.262-41.946-21.845-57.083" stroke="#9EA1A4"/><circle stroke="#F0F0F0" stroke-width="1.5" cx="194.5" cy="194.5" r="143.5"/><path d="M227.676 36.41A162.188 162.188 0 00194.5 33c-47.628 0-90.44 20.617-120 53.413m-20.035 27.58C40.811 137.694 33 165.185 33 194.5c0 29.313 7.81 56.801 21.461 80.5m19.763 27.28C103.792 335.253 146.724 356 194.5 356c3.321 0 4.618-.1 7.89-.298 1.44-.087 2.94-.193 4.478-.317 6.922-.56 14.588-1.498 20.784-2.791m32.203-10.364c51.708-22.91 89.141-72.17 95.263-130.747m.038-33.594c-6.007-58.793-43.55-108.25-95.44-131.18" stroke="#9EA1A4"/><path d="M194.5 377C295.292 377 377 295.292 377 194.5S295.292 12 194.5 12C140.486 12 91.953 35.465 58.538 72.757a183.07 183.07 0 00-22.104 30.46C20.894 130.068 12 161.245 12 194.5 12 295.292 93.708 377 194.5 377z" stroke="#F0F0F0" stroke-width="1.5"/><g fill-rule="nonzero"><use fill="url(#a)" xlink:href="#g"/><use fill="#000" filter="url(#h)" xlink:href="#g"/></g><g fill-rule="nonzero"><use fill="#000" filter="url(#i)" xlink:href="#j"/><path stroke="#7F7F7F" stroke-width=".5" d="M194.5 125.75c18.433 0 35.12 7.471 47.2 19.55 12.079 12.08 19.55 28.767 19.55 47.2 0 18.433-7.471 35.12-19.55 47.2-12.08 12.079-28.767 19.55-47.2 19.55-18.433 0-35.12-7.471-47.2-19.55-12.079-12.08-19.55-28.767-19.55-47.2 0-18.433 7.471-35.12 19.55-47.2 12.08-12.079 28.767-19.55 47.2-19.55zm0 2.5c-17.742 0-33.805 7.191-45.432 18.818-11.627 11.627-18.818 27.69-18.818 45.432s7.191 33.805 18.818 45.432c11.627 11.627 27.69 18.818 45.432 18.818s33.805-7.191 45.432-18.818c11.627-11.627 18.818-27.69 18.818-45.432s-7.191-33.805-18.818-45.432c-11.627-11.627-27.69-18.818-45.432-18.818z" fill="url(#f)" fill-rule="evenodd"/></g><g stroke="#9EA1A4"><path d="M142.482 35.721l1.391 4.28M138.002 21.93l.927 2.854"/></g><g stroke="#9EA1A4"><path d="M329.753 96.89l-3.497 2.832M341.022 87.764l-2.332 1.888"/></g><g stroke="#9EA1A4"><path d="M193.907 101.39l.078 4.499M193.654 86.892l.052 3"/></g><g stroke="#9EA1A4"><path d="M283.165 165.575l-4.28 1.39M296.956 161.094l-2.854.927"/></g><g stroke="#9EA1A4"><path d="M138.627 268.73l3.182-3.183M128.374 278.982l2.121-2.12"/></g><g stroke="#9EA1A4"><path d="M248.74 270.005l-2.771-3.546M257.666 281.43l-1.847-2.363"/></g><g stroke="#9EA1A4"><path d="M106.023 165.339l4.142 1.758M92.675 159.673l2.762 1.172"/></g><g stroke="#9EA1A4"><path d="M328.184 292.748l-3.546-2.77M339.61 301.675l-2.364-1.847"/></g><g stroke="#9EA1A4"><path d="M262.921 302.682l-2.25-3.898M270.171 315.239l-1.5-2.598"/></g><g stroke="#9EA1A4"><path d="M142.326 352.28l1.465-4.255M137.606 365.99l.976-2.837"/></g><g stroke="#9EA1A4"><path d="M28.31 195.988l4.5-.078M13.813 196.241l3-.052"/></g><path d="M206.422 52.499l-.789 9.013m-22.395 255.974l-1.193 19.996M233.298 57.382l-2.458 8.572-2.78 9.692m-70.767 246.795l-2.552 8.901M258.748 67.305l-3.683 7.228m-117.078 229.78l-8.626 16.928M281.838 81.9L270.14 96.874M112.137 299.107l-5.763 7.377M301.718 100.634l-6.198 5.389M100.965 275.146l-14.34 12.465M317.659 122.817l-16.455 9.5M79.046 260.58l-8.205 4.737M329.074 147.634l-9.148 3.15m-242.36 83.45L59.6 240.422M335.544 174.173l-18.815 2.644M62.506 212.546l-9.189 1.291M336.83 201.459l-9.827-.516M71.195 187.537l-18.974-.994M332.888 228.489l-18.436-4.597M64.954 161.685l-8.6-2.144M323.86 254.27l-8.913-4.156M82.782 141.854l-17.22-8.03M310.079 277.855l-15.372-11.168M94.88 121.504l-5.425-3.942m-5.502-3.997l-4.444-3.229" stroke="#9EA1A4"/><g fill="#A1A9B4" fill-rule="nonzero"><path d="M82.17 116.678l4.016-5.734.819.574-4.015 5.734zM86.676 119.833l4.015-5.734.82.573-4.016 5.734zM84.382 118.227l1.606-2.294.82.574L85.2 118.8zM86.791 114.786l1.606-2.293.82.573-1.607 2.294z"/></g><path d="M292.05 298.377l-6.958-7.462M103.892 96.6l-6.211-6.66M129.479 89.501l-10.068-16.113M246.034 327.356l-6.809-17.738M146.88 69.047l-2.98-7.761M214.827 335.544l-1.34-9.542m-35.68-253.87l-2.644-18.815" stroke="#9EA1A4"/></g><path stroke="#9EA1A4" d="M535.544 467v-5M535.544 487v-5M222.544 467v-5M222.544 487v-5"/><path d="M69.044 370l-18.103-.028m-33.816-.051l-8.08-.013.5-121.908" stroke="#FFF" opacity=".5" stroke-linecap="square"/><path d="M11.044 80h58.498l.292 236.59m.042 34.075l.05 40.364m.042 34.077l.076 62.394" stroke="#9EA1A4"/><path fill="#FFF" opacity=".5" d="M4.266 247.771h10.142l-5.07-7.071z"/><path d="M535.044 428v-6.5m0-15.5v-6.75l-51.5-55.25c-2.06.083-3.394-.25-4-1-.606-.75-.606-2.083 0-4l-9.5-11.5c-1.903-.135-3.07-.468-3.5-1-.43-.532-.43-2.032 0-4.5l-7.168-8.127c-2.49-.422-3.933-.88-4.332-1.373-.398-.493-.56-1.865-.488-4.116L446.044 298c-1.933-.167-3.1-.5-3.5-1-.4-.5-.4-1.833 0-4l-7.5-9M222.544 428.5v-6m0-14.5v-5.5l39.5-50.5" stroke="#F0F0F0" stroke-width="1.5"/><path stroke="#9EA1A4" d="M70.544 487h465.5"/><path d="M378.067 428.497l-.045-6.497m.022-15.965V387c-1.333-1.5-2-2.667-2-3.5 0-.833.667-2 2-3.5v-14.5c-1.333-.916-2-1.916-2-3s.667-2.25 2-3.5v-14" stroke="#F0F0F0" stroke-width="1.5"/><path fill="#FFF" opacity=".5" d="M5.337 75v10.142l5.98-4.288-.028-1.586z"/><path stroke="#9EA1A4" d="M378.544 467v-5M378.544 487v-5"/></g></svg>