<svg xmlns="http://www.w3.org/2000/svg" xmlns:xlink="http://www.w3.org/1999/xlink" width="40" height="10"><defs><path id="a" d="M1.126 8.948a.583.583 0 01-.074-.821l2.61-3.133-2.516-3.128a.584.584 0 01.909-.732l2.816 3.5a.584.584 0 01-.006.74l-2.917 3.5a.583.583 0 01-.822.074z"/><path id="b" d="M5.21 8.948a.583.583 0 01-.075-.821l2.611-3.133-2.517-3.128a.584.584 0 01.91-.732l2.816 3.5a.584.584 0 01-.007.74l-2.916 3.5a.583.583 0 01-.822.074z"/></defs><g fill="#314863"><path d="M4.647 9.154a8.35 8.35 0 001.573-.132c.455-.088.777-.169.968-.242V5.117H5.802v2.739c-.103.03-.242.053-.418.072a6.157 6.157 0 01-.627.027c-.389 0-.728-.068-1.017-.203a2.01 2.01 0 01-.726-.567 2.485 2.485 0 01-.44-.874 4.034 4.034 0 01-.149-1.128c0-.865.207-1.542.622-2.03.414-.487 1.013-.731 1.798-.731.36 0 .702.046 1.029.138.326.091.599.203.819.335l.418-1.133a8.015 8.015 0 00-.27-.143 2.87 2.87 0 00-.489-.187 6.351 6.351 0 00-.71-.16 5.548 5.548 0 00-.94-.071 3.99 3.99 0 00-1.452.264c-.455.176-.85.435-1.188.776a3.667 3.667 0 00-.797 1.248C1.07 3.98.973 4.545.973 5.183c0 .638.088 1.203.264 1.694A3.5 3.5 0 001.98 8.12c.319.337.705.594 1.16.77.455.176.957.264 1.507.264zM13.953 9V7.823H10.18V5.59h3.124V4.435H10.18V2.554h3.509V1.377H8.794V9h5.159zm6.105 0V7.801h-3.432V1.377H15.24V9h4.818zm1.914 0l.313-.885c.107-.297.211-.6.314-.908h3.212c.103.308.209.609.319.902.11.293.216.59.319.891h1.496a103.802 103.802 0 00-1.579-4.213 56.355 56.355 0 00-1.48-3.41h.001-1.309a56.355 56.355 0 00-1.48 3.41 91.23 91.23 0 00-.753 1.958c-.257.69-.528 1.441-.814 2.255h1.441zm3.487-2.915h-2.508c.235-.653.46-1.258.676-1.815.217-.557.41-1.03.578-1.419.161.374.352.843.572 1.408.22.565.447 1.173.682 1.826z"/><g transform="translate(30 -.1)"><use xlink:href="#a"/><use xlink:href="#b"/></g></g></svg>