<svg xmlns="http://www.w3.org/2000/svg" xmlns:xlink="http://www.w3.org/1999/xlink" width="56" height="9"><defs><path id="a" d="M1.126 8.948a.583.583 0 01-.074-.821l2.61-3.133-2.516-3.128a.584.584 0 01.909-.732l2.816 3.5a.584.584 0 01-.006.74l-2.917 3.5a.583.583 0 01-.822.074z"/><path id="b" d="M5.21 8.948a.583.583 0 01-.075-.821l2.611-3.133-2.517-3.128a.584.584 0 01.91-.732l2.816 3.5a.584.584 0 01-.007.74l-2.916 3.5a.583.583 0 01-.822.074z"/></defs><g fill="#314863"><path d="M16.279 8.154a8.35 8.35 0 001.573-.132c.455-.088.777-.169.968-.242V4.117h-1.386v2.739c-.103.03-.242.053-.418.072a6.157 6.157 0 01-.627.027c-.389 0-.728-.068-1.017-.204a2.01 2.01 0 01-.727-.566 2.485 2.485 0 01-.44-.875 4.034 4.034 0 01-.148-1.127c0-.865.207-1.542.621-2.03.415-.487 1.014-.731 1.799-.731.36 0 .702.046 1.029.137.326.092.599.204.819.336l.418-1.133a8.015 8.015 0 00-.27-.143 2.87 2.87 0 00-.489-.187 6.351 6.351 0 00-.71-.16 5.548 5.548 0 00-.94-.071 3.99 3.99 0 00-1.452.264 3.37 3.37 0 00-1.188.775 3.667 3.667 0 00-.798 1.249c-.194.491-.291 1.056-.291 1.694 0 .638.088 1.203.264 1.694.176.491.424.906.742 1.243.32.337.706.594 1.161.77.455.176.957.264 1.507.264zm7.546.011a4.02 4.02 0 001.43-.253c.447-.169.838-.42 1.172-.753.333-.334.597-.75.791-1.249.195-.499.292-1.074.292-1.727s-.099-1.226-.297-1.721a3.707 3.707 0 00-.797-1.249 3.232 3.232 0 00-1.172-.759 3.988 3.988 0 00-1.419-.253c-.499 0-.972.084-1.419.253a3.338 3.338 0 00-1.182.759 3.62 3.62 0 00-.809 1.248c-.198.496-.297 1.07-.297 1.722 0 .653.099 1.228.297 1.727.198.499.464.915.797 1.248.334.334.727.585 1.178.754.45.169.929.253 1.435.253zm-.011-1.221c-.352 0-.667-.066-.946-.198a2.02 2.02 0 01-.71-.556 2.496 2.496 0 01-.445-.869 3.94 3.94 0 01-.154-1.138c0-.418.051-.796.154-1.133.103-.337.251-.627.445-.869.195-.242.431-.429.71-.561.279-.132.594-.198.946-.198.345 0 .656.066.935.198s.515.317.71.556c.194.238.342.527.445.869.103.34.154.72.154 1.138 0 .418-.051.798-.154 1.139-.103.34-.251.63-.445.869a2.02 2.02 0 01-.71.555c-.279.132-.59.198-.935.198zM30.414 8V5.118h.88c.073 0 .161-.004.264-.011a18.47 18.47 0 01.94 1.315c.166.253.329.513.49.78.161.268.312.534.451.798h1.551a11.716 11.716 0 00-.451-.874 18.077 18.077 0 00-1.067-1.655 12.83 12.83 0 00-.473-.617c1.02-.367 1.529-1.067 1.529-2.101 0-.829-.291-1.445-.874-1.848C33.07.502 32.229.3 31.129.3c-.3 0-.642.013-1.023.038-.381.026-.74.076-1.078.149V8h1.386zm.605-4.004h-.605V1.532a9.3 9.3 0 01.814-.033c.271 0 .52.02.748.06.227.04.424.109.589.204a.982.982 0 01.379.385c.088.161.132.36.132.594 0 .25-.044.455-.132.616a.963.963 0 01-.39.385 1.874 1.874 0 01-.644.198 6.37 6.37 0 01-.891.055zM37.454 8V.377h-1.386V8h1.386zm7.007 0V6.823h-4.092c.271-.47.585-.966.94-1.49.356-.525.717-1.035 1.084-1.53.367-.494.722-.953 1.067-1.375.345-.421.638-.764.88-1.028V.377h-5.456v1.177h3.663c-.198.227-.409.486-.633.776a41.816 41.816 0 00-2.084 2.93c-.22.337-.427.666-.621.984-.195.32-.365.615-.512.886V8h5.764zm2.673 0V.377h-1.386V8h1.386zm2.409 0l.313-.886c.107-.296.211-.599.314-.907h3.212c.103.308.209.609.319.902.11.293.216.59.319.891h1.496a103.802 103.802 0 00-1.578-4.213 56.355 56.355 0 00-1.48-3.41h-1.309a56.355 56.355 0 00-1.48 3.41 91.23 91.23 0 00-.753 1.958c-.257.69-.528 1.441-.814 2.255h1.441zm3.487-2.915h-2.508c.235-.653.46-1.258.677-1.815.216-.557.408-1.03.577-1.419.161.374.352.843.572 1.408.22.565.447 1.173.682 1.826z"/><g transform="rotate(-180 5 4.55)"><use xlink:href="#a"/><use xlink:href="#b"/></g></g></svg>