<svg xmlns="http://www.w3.org/2000/svg" xmlns:xlink="http://www.w3.org/1999/xlink" width="91" height="34"><defs><linearGradient id="b" x1="50.034%" x2="50.034%" y1="114.901%" y2="-16.677%"><stop offset="0%" stop-color="#363D43"/><stop offset="52.238%" stop-color="#82888D"/><stop offset="100%" stop-color="#363D43"/></linearGradient><linearGradient id="d" x1="50.034%" x2="50.034%" y1="99.984%" y2="-.004%"><stop offset="0%" stop-color="#8B878D"/><stop offset="13.66%" stop-color="#9F9CA1"/><stop offset="42.07%" stop-color="#D9D8DA"/><stop offset="51.52%" stop-color="#F3F4F4"/><stop offset="100%" stop-color="#807B80"/></linearGradient><linearGradient id="e" x1="50.034%" x2="50.034%" y1="99.984%" y2="-.004%"><stop offset="0%" stop-color="#8B878D"/><stop offset="13.66%" stop-color="#9F9CA1"/><stop offset="42.07%" stop-color="#D9D8DA"/><stop offset="51.52%" stop-color="#F3F4F4"/><stop offset="100%" stop-color="#807B80"/></linearGradient><linearGradient id="f" x1="0%" y1="0%" y2="0%"><stop offset="0%" stop-color="#0B6D2D"/><stop offset="49.556%" stop-color="#80EAA5"/><stop offset="100%" stop-color="#0B6D2D"/></linearGradient><linearGradient id="h" x1="50.034%" x2="50.034%" y1="99.984%" y2="-.004%"><stop offset="0%" stop-color="#8B878D"/><stop offset="13.66%" stop-color="#9F9CA1"/><stop offset="42.07%" stop-color="#D9D8DA"/><stop offset="51.52%" stop-color="#F3F4F4"/><stop offset="100%" stop-color="#807B80"/></linearGradient><linearGradient id="j" x1="50.034%" x2="50.034%" y1="99.984%" y2="-.004%"><stop offset="0%" stop-color="#8B878D"/><stop offset="13.66%" stop-color="#9F9CA1"/><stop offset="42.07%" stop-color="#D9D8DA"/><stop offset="51.52%" stop-color="#F3F4F4"/><stop offset="100%" stop-color="#807B80"/></linearGradient><path id="a" d="M4.301 0h81.723a4 4 0 014 4v26a4 4 0 01-4 4h-82a4 4 0 01-4-4.043l.278-26a4 4 0 014-3.957z"/><path id="g" d="M23.4 11.063c-.198.102-.45.195-.756.28a4.268 4.268 0 01-1.116.125c-.384 0-.726-.058-1.026-.175a2.074 2.074 0 01-.765-.509 2.242 2.242 0 01-.481-.8 3.127 3.127 0 01-.167-1.054c0-.504.084-.994.252-1.471a3.97 3.97 0 01.729-1.274c.318-.372.705-.67 1.161-.895a3.452 3.452 0 011.548-.338c.378 0 .706.042.986.126.279.084.523.186.733.306l-.432.91a2.622 2.622 0 00-.616-.266 2.686 2.686 0 00-.743-.095c-.378 0-.717.084-1.017.252-.3.168-.556.389-.77.662a2.964 2.964 0 00-.486.931 3.475 3.475 0 00-.166 1.062c0 .558.121.97.364 1.238.244.267.599.4 1.067.4.36 0 .666-.04.918-.121a5.6 5.6 0 00.648-.248l.135.954zm2.403.396c-.558 0-.984-.165-1.278-.495-.294-.33-.441-.765-.441-1.305 0-.348.054-.708.162-1.08a3.27 3.27 0 01.495-1.017c.222-.306.501-.558.837-.756.336-.198.732-.297 1.188-.297.558 0 .984.164 1.278.49.294.328.441.761.441 1.301a4 4 0 01-.157 1.09 3.25 3.25 0 01-.486 1.016 2.67 2.67 0 01-.837.756c-.34.198-.74.297-1.202.297zm.828-4.032c-.234 0-.442.068-.625.203a1.702 1.702 0 00-.46.517 2.75 2.75 0 00-.283.689 2.82 2.82 0 00-.099.724c0 .3.057.537.171.711.114.174.315.261.603.261.234 0 .442-.067.626-.202a1.72 1.72 0 00.459-.513 2.66 2.66 0 00.283-.689c.066-.252.099-.492.099-.72 0-.3-.057-.538-.171-.715-.114-.177-.315-.266-.603-.266zm4.239 4.032c-.558 0-.984-.165-1.278-.495-.294-.33-.441-.765-.441-1.305 0-.348.054-.708.162-1.08a3.27 3.27 0 01.495-1.017c.222-.306.501-.558.837-.756.336-.198.732-.297 1.188-.297.558 0 .984.164 1.278.49.294.328.441.761.441 1.301a4 4 0 01-.157 1.09 3.25 3.25 0 01-.487 1.016 2.67 2.67 0 01-.837.756c-.339.198-.739.297-1.201.297zm.828-4.032c-.234 0-.442.068-.625.203a1.702 1.702 0 00-.46.517 2.75 2.75 0 00-.283.689 2.82 2.82 0 00-.099.724c0 .3.057.537.171.711.114.174.315.261.603.261.234 0 .442-.067.626-.202a1.72 1.72 0 00.459-.513 2.66 2.66 0 00.283-.689c.066-.252.099-.492.099-.72 0-.3-.057-.538-.171-.715-.114-.177-.315-.266-.603-.266zm4.104 3.996a2.412 2.412 0 01-.715-.108 1.219 1.219 0 01-.469-.27.984.984 0 01-.252-.405 1.643 1.643 0 01-.076-.513c0-.192.022-.394.068-.607.045-.213.094-.425.148-.635L35.55 4.53l1.134-.18-.558 2.345-.567 2.344c-.03.126-.063.25-.099.374a1.293 1.293 0 00-.054.364l.005.284a.402.402 0 00.072.225.502.502 0 00.202.157c.09.042.207.07.351.081l-.234.9zm1.017-1.79c0-.403.064-.791.194-1.166a3.13 3.13 0 01.558-1c.243-.29.535-.523.877-.697a2.504 2.504 0 011.152-.26c.456 0 .81.116 1.062.35.252.234.378.534.378.9 0 .378-.093.684-.279.918a1.884 1.884 0 01-.725.55 3.596 3.596 0 01-1.008.27 12.56 12.56 0 01-1.138.09.08.08 0 00-.009.035v.09c0 .546.345.82 1.035.82.408 0 .816-.085 1.224-.253l.09.882a3.675 3.675 0 01-.612.198 3.722 3.722 0 01-.9.1c-.336 0-.624-.049-.864-.145a1.571 1.571 0 01-.59-.396 1.59 1.59 0 01-.337-.58 2.249 2.249 0 01-.108-.707zM39.438 7.4c-.18 0-.351.036-.513.108a1.424 1.424 0 00-.432.297 2.036 2.036 0 00-.531.999c.72-.024 1.243-.11 1.57-.26.328-.15.491-.376.491-.676a.47.47 0 00-.13-.324c-.088-.096-.239-.144-.455-.144zm5.355.19a2.431 2.431 0 00-.387-.1 2.871 2.871 0 00-.81-.013 1.79 1.79 0 00-.288.058l-.909 3.798H41.31l1.08-4.49c.252-.085.525-.158.819-.221a4.55 4.55 0 01.954-.095c.072 0 .153.005.243.014l.266.031c.087.012.167.027.242.045.076.018.14.04.194.063l-.315.91z"/><filter id="i" width="115.4%" height="156.2%" x="-7.7%" y="-28.1%" filterUnits="objectBoundingBox"><feGaussianBlur in="SourceAlpha" result="shadowBlurInner1" stdDeviation="1.5"/><feOffset dy="1" in="shadowBlurInner1" result="shadowOffsetInner1"/><feComposite in="shadowOffsetInner1" in2="SourceAlpha" k2="-1" k3="1" operator="arithmetic" result="shadowInnerInner1"/><feColorMatrix in="shadowInnerInner1" values="0 0 0 0 0 0 0 0 0 0 0 0 0 0 0 0 0 0 0.5 0"/></filter></defs><g fill="none" fill-rule="evenodd"><mask id="c" fill="#fff"><use xlink:href="#a"/></mask><use fill="url(#b)" fill-rule="nonzero" xlink:href="#a"/><g stroke="#FFF" stroke-linecap="square" stroke-width=".5" mask="url(#c)" opacity=".603"><path d="M-231 88l427.5-428.5M-231 91l427.5-428.5M-231 94l427.5-428.5M-231 97l427.5-428.5M-231 100l427.5-428.5M-231 103l427.5-428.5M-231 106l427.5-428.5M-231 109l427.5-428.5M-231 112l427.5-428.5M-231 115l427.5-428.5M-231 118l427.5-428.5M-231 121l427.5-428.5M-231 124l427.5-428.5M-231 127l427.5-428.5M-231 130l427.5-428.5M-231 133l427.5-428.5M-231 136l427.5-428.5M-231 139l427.5-428.5M-231 142l427.5-428.5M-231 145l427.5-428.5M-231 148l427.5-428.5M-231 151l427.5-428.5M-231 154l427.5-428.5M-231 157l427.5-428.5M-231 160l427.5-428.5M-231 163l427.5-428.5M-231 166l427.5-428.5M-231 169l427.5-428.5M-231 172l427.5-428.5M-231 175l427.5-428.5M-231 178l427.5-428.5M-231 181l427.5-428.5M-231 184l427.5-428.5M-231 187l427.5-428.5M-231 190l427.5-428.5M-231 193l427.5-428.5M-231 196l427.5-428.5M-231 199l427.5-428.5M-231 202l427.5-428.5M-231 205l427.5-428.5M-231 208l427.5-428.5M-231 211l427.5-428.5M-231 214l427.5-428.5M-231 217l427.5-428.5M-231 220l427.5-428.5M-231 223l427.5-428.5M-231 226l427.5-428.5M-231 229l427.5-428.5M-231 232l427.5-428.5M-231 235l427.5-428.5M-231 238l427.5-428.5M-231 241l427.5-428.5M-231 244l427.5-428.5M-231 247l427.5-428.5M-231 250l427.5-428.5M-231 253l427.5-428.5M-231 256l427.5-428.5M-231 259l427.5-428.5M-231 262l427.5-428.5M-231 265l427.5-428.5M-231 268l427.5-428.5M-231 271l427.5-428.5M-231 274l427.5-428.5M-231 277l427.5-428.5M-231 280l427.5-428.5M-231 283l427.5-428.5M-231 286l427.5-428.5M-231 289l427.5-428.5M-231 292l427.5-428.5M-231 295l427.5-428.5M-231 298l427.5-428.5M-231 301l427.5-428.5M-231 304l427.5-428.5M-231 307l427.5-428.5M-231 310l427.5-428.5M-231 313l427.5-428.5M-231 316l427.5-428.5M-231 319l427.5-428.5M-231 322l427.5-428.5M-231 325l427.5-428.5M-231 328l427.5-428.5M-231 331L196.5-97.5M-231 334L196.5-94.5M-231 337L196.5-91.5M-231 340L196.5-88.5M-231 343L196.5-85.5M-231 346L196.5-82.5M-231 349L196.5-79.5M-231 352L196.5-76.5M-231 355L196.5-73.5M-231 358L196.5-70.5M-231 361L196.5-67.5M-231 364L196.5-64.5M-231 367L196.5-61.5M-231 370L196.5-58.5M-231 373L196.5-55.5M-231 376L196.5-52.5M-231 379L196.5-49.5M-231 382L196.5-46.5M-231 385L196.5-43.5M-231 388L196.5-40.5M-231 391L196.5-37.5M-231 394L196.5-34.5M-231 397L196.5-31.5M-231 400L196.5-28.5M-231 403L196.5-25.5M-231 406L196.5-22.5M-231 409L196.5-19.5M-231 412L196.5-16.5M-231 415L196.5-13.5M-231 418L196.5-10.5M-231 421L196.5-7.5M-231 424L196.5-4.5M-231 427L196.5-1.5M-231 430L196.5 1.5M-231 433L196.5 4.5M-231 436L196.5 7.5M-231 439L196.5 10.5M-231 442L196.5 13.5M-231 445L196.5 16.5M-231 448L196.5 19.5M-231 451L196.5 22.5M-231 454L196.5 25.5M-231 457L196.5 28.5M-231 460L196.5 31.5" opacity=".148"/></g><path fill="#FFF" fill-rule="nonzero" d="M12 13.188H8.197l1.747-1.747L9.5 11 7 13.5 9.5 16l.44-.44-1.743-1.748H12zm71 0h-3.803l1.747-1.747L80.5 11 78 13.5l2.5 2.5.44-.44-1.743-1.748H83z" opacity=".5"/><path fill="url(#d)" fill-rule="nonzero" stroke="#636262" stroke-width=".5" d="M24.469-22.531v61.5h14.5v-61.5h-14.5z" transform="rotate(90 35.719 17.219)"/><path fill="url(#e)" fill-rule="nonzero" d="M10.447 21.156h1V15.72h-1zm21.469 0h1V15.72h-1zm21 0h1V15.72h-1z" transform="translate(13 5)"/><path fill="url(#f)" stroke="#636262" stroke-width=".5" d="M15.213.758c-1.939 0-3.756.708-5.257 1.708l-.138.093-.139-.093c-1.5-1-3.318-1.708-5.257-1.708-2.043 0-3.672.96-3.672 2.06 0 1.101 1.629 2.06 3.672 2.06 1.956 0 3.741-.697 5.257-1.708l.139-.092.138.092c1.501 1 3.318 1.708 5.257 1.708 2.044 0 3.672-.959 3.672-2.06 0-1.1-1.628-2.06-3.672-2.06z" transform="translate(56.6 23.533)"/><path fill="url(#f)" stroke="#636262" stroke-width=".5" d="M15.213.758c-1.939 0-3.756.708-5.257 1.708l-.138.093-.139-.093c-1.5-1-3.318-1.708-5.257-1.708-2.043 0-3.672.96-3.672 2.06 0 1.101 1.629 2.06 3.672 2.06 1.956 0 3.741-.697 5.257-1.708l.139-.092.138.092c1.501 1 3.318 1.708 5.257 1.708 2.044 0 3.672-.959 3.672-2.06 0-1.1-1.628-2.06-3.672-2.06z" transform="translate(35.5 23.533)"/><path fill="url(#f)" stroke="#636262" stroke-width=".5" d="M15.213.758c-1.939 0-3.756.708-5.257 1.708l-.138.093-.139-.093c-1.5-1-3.318-1.708-5.257-1.708-2.043 0-3.672.96-3.672 2.06 0 1.101 1.629 2.06 3.672 2.06 1.956 0 3.741-.697 5.257-1.708l.139-.092.138.092c1.501 1 3.318 1.708 5.257 1.708 2.044 0 3.672-.959 3.672-2.06 0-1.1-1.628-2.06-3.672-2.06z" transform="translate(14 23.533)"/><g fill-rule="nonzero" transform="translate(13 5)"><use fill="#FFF" xlink:href="#g"/><use fill="url(#h)" xlink:href="#g"/><use fill="#000" filter="url(#i)" xlink:href="#g"/></g><path fill="url(#j)" fill-rule="nonzero" d="M86 0a4 4 0 014 4v26a4 4 0 01-4 4H4a4 4 0 01-4-4V4a4 4 0 014-4h82zm0 2H4a2 2 0 00-2 2v26a2 2 0 002 2h82a2 2 0 002-2V4a2 2 0 00-2-2z"/></g></svg>