<svg xmlns="http://www.w3.org/2000/svg" width="72" height="72"><g fill="#FFF" fill-rule="evenodd"><path d="M62.609 36.522H38.087v4.174h24.522c.281 0 .532.114.73.302.198.209.313.46.313.741v25.044c0 .281-.115.532-.313.74a1.053 1.053 0 01-.73.303H37.743A7.813 7.813 0 0134.664 72H62.61a5.233 5.233 0 005.217-5.217V41.739a5.233 5.233 0 00-5.217-5.217z"/><path d="M61.367 42.783H37.91V65.54l-.01.198h23.467zM35.854 8.713a5.233 5.233 0 00-5.217-5.217H5.593A5.233 5.233 0 00.376 8.713v57.183a5.233 5.233 0 005.217 5.217h25.044a5.233 5.233 0 005.217-5.217V8.713zm-4.477 57.924a1.063 1.063 0 01-.73.313H5.603a1.02 1.02 0 01-.73-.313 1.063 1.063 0 01-.313-.73V8.722c0-.281.115-.532.313-.74.198-.199.449-.303.73-.303h25.044a1.05 1.05 0 011.043 1.043v57.183c-.01.282-.125.532-.313.73z"/><path d="M6.637 9.955h22.957v45.913H6.637z"/><circle cx="18.115" cy="61.085" r="3.13"/><path d="M46.946 10.414c-.47-.449-.605-.532-.876-.762a18.81 18.81 0 0111.06 5.385 18.809 18.809 0 015.385 11.123c-.198-.22-.365-.407-.772-.814-1.482-1.523-4.07.157-4.07.157l7.19 7.43 6.605-7.963s-2.703-1.47-4.07.157c-.407.48-.49.626-.678.887-1.117-10.81-9.683-19.398-20.494-20.546.22-.178.417-.334.835-.7C48.657 3.37 47.144.7 47.144.7l-7.836 6.75 7.575 7.044c-.01-.01 1.607-2.63.063-4.08z"/></g></svg>