<svg xmlns="http://www.w3.org/2000/svg" width="37" height="37"><defs><linearGradient id="a" x1="50.034%" x2="50.034%" y1="99.984%" y2="-.004%"><stop offset="0%" stop-color="#8B878D"/><stop offset="13.66%" stop-color="#9F9CA1"/><stop offset="42.07%" stop-color="#D9D8DA"/><stop offset="51.52%" stop-color="#F3F4F4"/><stop offset="100%" stop-color="#807B80"/></linearGradient></defs><g fill="none" fill-rule="evenodd"><circle cx="18.5" cy="18.5" r="16" fill="#97999B"/><path fill="#E5E5E5" fill-rule="nonzero" stroke="#7F7F7F" stroke-width=".5" d="M18.5 2.25c8.975 0 16.25 7.275 16.25 16.25S27.475 34.75 18.5 34.75 2.25 27.475 2.25 18.5 9.525 2.25 18.5 2.25zm0 2.5c-7.594 0-13.75 6.156-13.75 13.75s6.156 13.75 13.75 13.75 13.75-6.156 13.75-13.75S26.094 4.75 18.5 4.75z"/><path fill="url(#a)" fill-rule="nonzero" d="M18.5 0C28.717 0 37 8.283 37 18.5S28.717 37 18.5 37 0 28.717 0 18.5 8.283 0 18.5 0zm0 2C9.387 2 2 9.387 2 18.5S9.387 35 18.5 35 35 27.613 35 18.5 27.613 2 18.5 2z"/></g></svg>