<svg xmlns="http://www.w3.org/2000/svg" xmlns:xlink="http://www.w3.org/1999/xlink" width="42" height="29"><defs><linearGradient id="a" x1="50.034%" x2="50.034%" y1="0%" y2="100%"><stop offset="0%" stop-color="#363D43"/><stop offset="49.388%" stop-color="#798085"/><stop offset="100%" stop-color="#363D43"/></linearGradient><linearGradient id="f" x1=".453%" x2="99.615%" y1="50.403%" y2="50.403%"><stop offset="0%" stop-color="#AFACB1"/><stop offset="28.499%" stop-color="#BAB9BC"/><stop offset="42.07%" stop-color="#D9D8DA"/><stop offset="58.437%" stop-color="#F3F4F4"/><stop offset="100%" stop-color="#958F95"/></linearGradient><filter id="c" width="135.5%" height="162.5%" x="-17.8%" y="-31.3%" filterUnits="objectBoundingBox"><feGaussianBlur in="SourceAlpha" result="shadowBlurInner1" stdDeviation="4.5"/><feOffset dy="1" in="shadowBlurInner1" result="shadowOffsetInner1"/><feComposite in="shadowOffsetInner1" in2="SourceAlpha" k2="-1" k3="1" operator="arithmetic" result="shadowInnerInner1"/><feColorMatrix in="shadowInnerInner1" values="0 0 0 0 0 0 0 0 0 0 0 0 0 0 0 0 0 0 0.301737325 0"/></filter><filter id="d" width="165.1%" height="211.8%" x="-36%" y="-50%" filterUnits="objectBoundingBox"><feOffset dx="-1" dy="1" in="SourceAlpha" result="shadowOffsetOuter1"/><feGaussianBlur in="shadowOffsetOuter1" result="shadowBlurOuter1" stdDeviation="3"/><feColorMatrix in="shadowBlurOuter1" values="0 0 0 0 0 0 0 0 0 0 0 0 0 0 0 0 0 0 0.230550699 0"/></filter><path id="b" d="M22 1a8 8 0 010 16H12a8.001 8.001 0 01-7.502-5.216l-.031.044L1.841 9l2.626-2.828.03.044A8.006 8.006 0 0112 1h10z"/><path id="e" d="M12.67 1l-.274.004a8.503 8.503 0 00-7.77 5.744l-.032.097L1 9.5l3.594 2.654-.052-.16A8.502 8.502 0 0012.67 18h9a8.5 8.5 0 000-17h-9zm0 1h9a7.5 7.5 0 010 15h-9a7.503 7.503 0 01-7.09-5.047l-.13-.409L2.683 9.5 5.45 7.456l.048-.158A7.503 7.503 0 0112.67 2z"/></defs><g fill="none" transform="translate(6 4)"><use fill="url(#a)" xlink:href="#b"/><use fill="#000" filter="url(#c)" xlink:href="#b"/><use fill="#000" filter="url(#d)" xlink:href="#e"/><use fill="url(#f)" xlink:href="#e"/><path fill="#7F7F7F" d="M21.67.5a9 9 0 01.265 17.996l-.265.004h-9a9.004 9.004 0 01-8.325-5.575l-.105-.265-.07-.197L.158 9.5 4.17 6.535l.08-.218A8.998 8.998 0 0111.805.542L12.1.518l.288-.014L12.67.5h9zm0 .5h-9l-.274.004-.288.014a8.506 8.506 0 00-7.386 5.463l-.097.267-.031.097L1 9.5l3.594 2.654.031.098a8.505 8.505 0 007.764 5.743l.28.005h9l.256-.004a8.5 8.5 0 000-16.992L21.67 1z"/></g></svg>