<svg xmlns="http://www.w3.org/2000/svg" xmlns:xlink="http://www.w3.org/1999/xlink" width="63" height="30"><defs><linearGradient id="a" x1="50.034%" x2="50.034%" y1="0%" y2="100%"><stop offset="0%" stop-color="#363D43"/><stop offset="49.388%" stop-color="#798085"/><stop offset="100%" stop-color="#363D43"/></linearGradient><linearGradient id="f" x1=".453%" x2="99.615%" y1="50.403%" y2="50.403%"><stop offset="0%" stop-color="#AFACB1"/><stop offset="28.499%" stop-color="#BAB9BC"/><stop offset="42.07%" stop-color="#D9D8DA"/><stop offset="58.437%" stop-color="#F3F4F4"/><stop offset="100%" stop-color="#958F95"/></linearGradient><filter id="c" width="120.9%" height="162.5%" x="-10.5%" y="-31.2%" filterUnits="objectBoundingBox"><feGaussianBlur in="SourceAlpha" result="shadowBlurInner1" stdDeviation="4.5"/><feOffset dy="1" in="shadowBlurInner1" result="shadowOffsetInner1"/><feComposite in="shadowOffsetInner1" in2="SourceAlpha" k2="-1" k3="1" operator="arithmetic" result="shadowInnerInner1"/><feColorMatrix in="shadowInnerInner1" values="0 0 0 0 0 0 0 0 0 0 0 0 0 0 0 0 0 0 0.301737325 0"/></filter><filter id="d" width="140.3%" height="211.1%" x="-22.5%" y="-50%" filterUnits="objectBoundingBox"><feMorphology in="SourceAlpha" operator="dilate" radius=".5" result="shadowSpreadOuter1"/><feOffset dx="-1" dy="1" in="shadowSpreadOuter1" result="shadowOffsetOuter1"/><feGaussianBlur in="shadowOffsetOuter1" result="shadowBlurOuter1" stdDeviation="3"/><feComposite in="shadowBlurOuter1" in2="SourceAlpha" operator="out" result="shadowBlurOuter1"/><feColorMatrix in="shadowBlurOuter1" values="0 0 0 0 0 0 0 0 0 0 0 0 0 0 0 0 0 0 0.230550699 0"/></filter><path id="b" d="M41.67 1a8 8 0 110 16h-29a8.004 8.004 0 01-7.65-5.652L1.841 9l3.18-2.348A8.004 8.004 0 0112.67 1h29z"/><path id="e" d="M12.67 0l-.277.004a9.004 9.004 0 00-8.154 5.839l-.07.193L.159 9l4.01 2.963.07.194A9.004 9.004 0 0012.67 18h29a9 9 0 000-18h-29zm0 2h29a7 7 0 010 14h-29c-3.097 0-5.8-2.03-6.694-4.945l-.097-.315L3.524 9l2.355-1.74.097-.315A7.003 7.003 0 0112.67 2z"/></defs><g fill="none" transform="translate(7 5)"><use fill="url(#a)" xlink:href="#b"/><use fill="#000" filter="url(#c)" xlink:href="#b"/><use fill="#000" filter="url(#d)" xlink:href="#e"/><path fill="url(#f)" fill-rule="evenodd" stroke="#7F7F7F" stroke-width=".5" d="M12.393-.246c15.205-.002 24.465.793 30.063 2.108 3.214.756 5.234 1.688 6.488 2.733C50.521 5.91 50.92 7.407 50.92 9a9.221 9.221 0 01-2.71 6.54 9.221 9.221 0 01-6.54 2.71h0-29a9.249 9.249 0 01-8.666-6.008h0L-.262 9 3.96 5.88c.7-1.873 1.856-3.35 3.324-4.401a9.236 9.236 0 015.109-1.725zM41.67 2.25h0-29a6.583 6.583 0 00-4.056 1.384c-1.156.896-2.05 2.19-2.52 3.778l-2.166 1.6 2.266 1.9a6.741 6.741 0 002.464 3.517 6.74 6.74 0 004.012 1.321h29a6.729 6.729 0 004.773-1.977A6.729 6.729 0 0048.42 9a6.729 6.729 0 00-1.977-4.773A6.729 6.729 0 0041.67 2.25z"/></g></svg>