<svg xmlns="http://www.w3.org/2000/svg" xmlns:xlink="http://www.w3.org/1999/xlink" width="77" height="29"><defs><linearGradient id="a" x1="50.034%" x2="50.034%" y1="0%" y2="100%"><stop offset="0%" stop-color="#363D43"/><stop offset="49.388%" stop-color="#798085"/><stop offset="100%" stop-color="#363D43"/></linearGradient><linearGradient id="d" x1="50.034%" x2="50.034%" y1="0%" y2="100%"><stop offset="0%" stop-color="#363D43"/><stop offset="49.388%" stop-color="#798085"/><stop offset="100%" stop-color="#363D43"/></linearGradient><linearGradient id="i" x1=".453%" x2="99.615%" y1="50.403%" y2="50.403%"><stop offset="0%" stop-color="#AFACB1"/><stop offset="28.499%" stop-color="#BAB9BC"/><stop offset="42.07%" stop-color="#D9D8DA"/><stop offset="58.437%" stop-color="#F3F4F4"/><stop offset="100%" stop-color="#958F95"/></linearGradient><filter id="c" width="117.3%" height="162.5%" x="-8.6%" y="-31.2%" filterUnits="objectBoundingBox"><feGaussianBlur in="SourceAlpha" result="shadowBlurInner1" stdDeviation="4.5"/><feOffset dy="1" in="shadowBlurInner1" result="shadowOffsetInner1"/><feComposite in="shadowOffsetInner1" in2="SourceAlpha" k2="-1" k3="1" operator="arithmetic" result="shadowInnerInner1"/><feColorMatrix in="shadowInnerInner1" values="0 0 0 0 0 0 0 0 0 0 0 0 0 0 0 0 0 0 0.301737325 0"/></filter><filter id="f" width="115.9%" height="162.5%" x="-8%" y="-31.3%" filterUnits="objectBoundingBox"><feGaussianBlur in="SourceAlpha" result="shadowBlurInner1" stdDeviation="4.5"/><feOffset dy="1" in="shadowBlurInner1" result="shadowOffsetInner1"/><feComposite in="shadowOffsetInner1" in2="SourceAlpha" k2="-1" k3="1" operator="arithmetic" result="shadowInnerInner1"/><feColorMatrix in="shadowInnerInner1" values="0 0 0 0 0 0 0 0 0 0 0 0 0 0 0 0 0 0 0.301737325 0"/></filter><filter id="g" width="129%" height="205.6%" x="-16%" y="-47.2%" filterUnits="objectBoundingBox"><feOffset dx="-1" dy="1" in="SourceAlpha" result="shadowOffsetOuter1"/><feGaussianBlur in="shadowOffsetOuter1" result="shadowBlurOuter1" stdDeviation="3"/><feColorMatrix in="shadowBlurOuter1" values="0 0 0 0 0 0 0 0 0 0 0 0 0 0 0 0 0 0 0.230550699 0"/></filter><path id="b" d="M52.511 1.5a8 8 0 010 16h-39c-3.6 0-6.646-2.38-7.65-5.652L2.683 9.5 5.86 7.152A8.007 8.007 0 0113.511 1.5h39z"/><path id="e" d="M57.511 1.5a8 8 0 010 16h-44c-3.6 0-6.646-2.38-7.65-5.652L2.683 9.5 5.86 7.152A8.007 8.007 0 0113.511 1.5h44z"/><path id="h" d="M13.353.5l-.277.004a9.004 9.004 0 00-8.154 5.839l-.07.193L.842 9.5l4.01 2.963.07.194a9.004 9.004 0 008.43 5.843h44a9 9 0 000-18h-44zm0 2h44a7 7 0 110 14h-44c-3.097 0-5.8-2.03-6.694-4.945l-.097-.315L4.207 9.5l2.355-1.74.097-.315A7.004 7.004 0 0113.353 2.5z"/></defs><g fill="none" transform="translate(6 4)"><use fill="url(#a)" xlink:href="#b"/><use fill="#000" filter="url(#c)" xlink:href="#b"/><use fill="url(#d)" xlink:href="#e"/><use fill="#000" filter="url(#f)" xlink:href="#e"/><use fill="#000" filter="url(#g)" xlink:href="#h"/><use fill="url(#i)" xlink:href="#h"/><path fill="#7F7F7F" d="M57.353 0a9.5 9.5 0 01.27 18.996l-.27.004h-44a9.505 9.505 0 01-8.796-5.904l-.125-.321L0 9.5l4.433-3.277.02-.055A9.51 9.51 0 0112.484.04l.296-.023.29-.013.276-.004h44.008zm0 .5h-44l-.277.004-.29.014A9.001 9.001 0 005.03 6.07l-.107.273-.07.193L.842 9.5l4.01 2.963.07.194.101.258a9.002 9.002 0 008.038 5.58l.292.005h44l.265-.004a9 9 0 000-17.992L57.353.5z"/></g></svg>