<svg xmlns="http://www.w3.org/2000/svg" xmlns:xlink="http://www.w3.org/1999/xlink" width="83" height="10"><defs><path id="a" d="M1.126 8.948a.583.583 0 01-.074-.821l2.61-3.133-2.516-3.128a.584.584 0 01.909-.732l2.816 3.5a.584.584 0 01-.006.74l-2.917 3.5a.583.583 0 01-.822.074z"/><path id="b" d="M5.21 8.948a.583.583 0 01-.075-.821l2.611-3.133-2.517-3.128a.584.584 0 01.91-.732l2.816 3.5a.584.584 0 01-.007.74l-2.916 3.5a.583.583 0 01-.822.074z"/></defs><g fill="#314863"><path d="M5.693 9V7.801H2.261V1.377H.875V9h4.818zm2.442 0V1.377H6.749V9h1.386zm5.335 0a65.523 65.523 0 001.584-3.729c.506-1.298.983-2.596 1.43-3.894h-1.485a132.918 132.918 0 01-1.083 3.157c-.187.52-.373 1.021-.556 1.502-.183.48-.36.922-.528 1.325a29.23 29.23 0 01-.539-1.331 75.08 75.08 0 01-.55-1.502 148.85 148.85 0 01-.55-1.578l-.539-1.573H9.125c.44 1.298.915 2.596 1.425 3.894A68.263 68.263 0 0012.139 9h1.331zm7.183.165a4.02 4.02 0 001.43-.253c.447-.169.838-.42 1.172-.754.333-.333.597-.75.792-1.248.194-.499.291-1.074.291-1.727s-.099-1.226-.297-1.721a3.707 3.707 0 00-.797-1.249 3.232 3.232 0 00-1.172-.759 3.988 3.988 0 00-1.419-.253c-.499 0-.972.084-1.419.253a3.338 3.338 0 00-1.183.759 3.62 3.62 0 00-.808 1.248c-.198.496-.297 1.07-.297 1.722 0 .653.099 1.228.297 1.727.198.499.464.915.798 1.248.333.334.726.585 1.177.754.45.169.929.253 1.435.253zm-.011-1.221c-.352 0-.667-.066-.946-.198a2.02 2.02 0 01-.71-.556 2.496 2.496 0 01-.445-.869 3.94 3.94 0 01-.154-1.138c0-.418.051-.796.154-1.133.103-.337.251-.627.445-.869.195-.242.431-.429.71-.561.279-.132.594-.198.946-.198.345 0 .656.066.935.198s.515.317.71.556c.194.238.342.527.445.869.103.34.154.72.154 1.138 0 .418-.051.798-.154 1.139-.103.34-.251.63-.445.869a2.02 2.02 0 01-.71.555c-.279.132-.59.198-.935.198zM27.242 9V6.118h.88c.073 0 .161-.004.264-.011a18.47 18.47 0 01.94 1.315c.165.253.329.513.49.78.161.268.312.534.451.798h1.551a11.716 11.716 0 00-.451-.874A18.077 18.077 0 0030.3 6.47a12.83 12.83 0 00-.473-.617c1.02-.367 1.529-1.067 1.529-2.101 0-.829-.292-1.445-.875-1.848S29.058 1.3 27.957 1.3c-.3 0-.642.013-1.023.038-.381.026-.74.076-1.078.149V9h1.386zm.605-4.004h-.605V2.532a9.3 9.3 0 01.814-.033c.271 0 .52.02.748.06.227.04.424.109.588.204a.982.982 0 01.38.385c.088.161.132.36.132.594 0 .25-.044.455-.132.616a.963.963 0 01-.39.385 1.874 1.874 0 01-.644.198 6.37 6.37 0 01-.891.055zM34.26 9V3.544c.308.367.633.78.974 1.238.34.458.676.93 1.006 1.418.33.488.649.972.957 1.452.308.48.587.93.836 1.348h1.177V1.377h-1.375v5.06c-.25-.396-.534-.823-.852-1.282a53.236 53.236 0 00-2.008-2.684 16.946 16.946 0 00-.946-1.094h-1.133V9h1.364zm10.175.165a4.02 4.02 0 001.43-.253c.447-.169.838-.42 1.171-.754a3.56 3.56 0 00.792-1.248c.195-.499.292-1.074.292-1.727s-.099-1.226-.297-1.721a3.707 3.707 0 00-.797-1.249 3.232 3.232 0 00-1.172-.759 3.988 3.988 0 00-1.419-.253c-.499 0-.972.084-1.419.253a3.338 3.338 0 00-1.182.759 3.62 3.62 0 00-.809 1.248c-.198.496-.297 1.07-.297 1.722 0 .653.099 1.228.297 1.727.198.499.464.915.797 1.248.334.334.726.585 1.177.754.451.169.93.253 1.436.253zm-.011-1.221c-.352 0-.667-.066-.946-.198a2.02 2.02 0 01-.71-.556 2.496 2.496 0 01-.445-.869 3.94 3.94 0 01-.154-1.138c0-.418.051-.796.154-1.133a2.56 2.56 0 01.446-.869c.194-.242.43-.429.709-.561.279-.132.594-.198.946-.198.345 0 .656.066.935.198s.515.317.71.556c.194.238.342.527.445.869.103.34.154.72.154 1.138 0 .418-.051.798-.154 1.139-.103.34-.251.63-.446.869a2.02 2.02 0 01-.709.555c-.279.132-.59.198-.935.198zM55.6 9.165a4.02 4.02 0 001.43-.253c.447-.169.838-.42 1.172-.754.333-.333.597-.75.791-1.248.195-.499.292-1.074.292-1.727s-.099-1.226-.297-1.721a3.707 3.707 0 00-.797-1.249 3.232 3.232 0 00-1.172-.759 3.988 3.988 0 00-1.419-.253c-.499 0-.972.084-1.419.253a3.338 3.338 0 00-1.182.759 3.62 3.62 0 00-.809 1.248c-.198.496-.297 1.07-.297 1.722 0 .653.099 1.228.297 1.727.198.499.464.915.797 1.248a3.27 3.27 0 001.177.754c.451.169.93.253 1.436.253zm-.011-1.221c-.352 0-.667-.066-.946-.198a2.02 2.02 0 01-.71-.556 2.496 2.496 0 01-.445-.869 3.94 3.94 0 01-.154-1.138c0-.418.051-.796.154-1.133a2.56 2.56 0 01.446-.869c.194-.242.43-.429.709-.561.279-.132.594-.198.946-.198.345 0 .656.066.935.198s.515.317.71.556c.194.238.342.527.445.869.103.34.154.72.154 1.138 0 .418-.051.798-.154 1.139-.103.34-.251.63-.446.869a2.02 2.02 0 01-.709.555c-.279.132-.59.198-.935.198zM65.621 9V7.801h-3.432V1.377h-1.386V9h4.818zm2.893 0V2.576h2.343V1.377h-6.083v1.199h2.343V9h1.397z"/><g transform="translate(73)"><use xlink:href="#a"/><use xlink:href="#b"/></g></g></svg>