<svg width="970" height="494" xmlns="http://www.w3.org/2000/svg" xmlns:xlink="http://www.w3.org/1999/xlink"><defs><filter x="-20%" y="-20%" width="140%" height="140%" filterUnits="objectBoundingBox" id="V"><feGaussianBlur stdDeviation="1.5" in="SourceAlpha" result="shadowBlurInner1"/><feOffset dy="1" in="shadowBlurInner1" result="shadowOffsetInner1"/><feComposite in="shadowOffsetInner1" in2="SourceAlpha" operator="arithmetic" k2="-1" k3="1" result="shadowInnerInner1"/><feColorMatrix values="0 0 0 0 0 0 0 0 0 0 0 0 0 0 0 0 0 0 0.5 0" in="shadowInnerInner1"/></filter><filter x="-20.7%" y="-28.6%" width="141.4%" height="157.3%" filterUnits="objectBoundingBox" id="a"><feGaussianBlur stdDeviation="16" in="SourceGraphic"/></filter><filter x="-8.8%" y="-7.5%" width="115.8%" height="116.8%" filterUnits="objectBoundingBox" id="aT"><feOffset dx="-1" dy="1" in="SourceAlpha" result="shadowOffsetOuter1"/><feGaussianBlur stdDeviation="3" in="shadowOffsetOuter1" result="shadowBlurOuter1"/><feColorMatrix values="0 0 0 0 0 0 0 0 0 0 0 0 0 0 0 0 0 0 0.230550699 0" in="shadowBlurOuter1"/></filter><filter x="-111.7%" y="-26.8%" width="323.3%" height="153.6%" filterUnits="objectBoundingBox" id="d"><feOffset dy="3" in="SourceAlpha" result="shadowOffsetOuter1"/><feGaussianBlur stdDeviation="7" in="shadowOffsetOuter1" result="shadowBlurOuter1"/><feColorMatrix values="0 0 0 0 0 0 0 0 0 0 0 0 0 0 0 0 0 0 0.265461101 0" in="shadowBlurOuter1" result="shadowMatrixOuter1"/><feMerge><feMergeNode in="shadowMatrixOuter1"/><feMergeNode in="SourceGraphic"/></feMerge></filter><filter x="-4.2%" y="-4.1%" width="108.5%" height="108.2%" filterUnits="objectBoundingBox" id="aS"><feGaussianBlur stdDeviation="4.5" in="SourceAlpha" result="shadowBlurInner1"/><feOffset dy="1" in="shadowBlurInner1" result="shadowOffsetInner1"/><feComposite in="shadowOffsetInner1" in2="SourceAlpha" operator="arithmetic" k2="-1" k3="1" result="shadowInnerInner1"/><feColorMatrix values="0 0 0 0 0 0 0 0 0 0 0 0 0 0 0 0 0 0 0.301737325 0" in="shadowInnerInner1"/></filter><filter x="-18%" y="-5.6%" width="136%" height="111.2%" filterUnits="objectBoundingBox" id="aN"><feGaussianBlur stdDeviation="4" in="SourceAlpha" result="shadowBlurInner1"/><feOffset dy="1" in="shadowBlurInner1" result="shadowOffsetInner1"/><feComposite in="shadowOffsetInner1" in2="SourceAlpha" operator="arithmetic" k2="-1" k3="1" result="shadowInnerInner1"/><feColorMatrix values="0 0 0 0 0 0 0 0 0 0 0 0 0 0 0 0 0 0 0.26685424 0" in="shadowInnerInner1"/></filter><filter x="-8.8%" y="-7.5%" width="115.8%" height="116.8%" filterUnits="objectBoundingBox" id="aK"><feOffset dx="-1" dy="1" in="SourceAlpha" result="shadowOffsetOuter1"/><feGaussianBlur stdDeviation="3" in="shadowOffsetOuter1" result="shadowBlurOuter1"/><feColorMatrix values="0 0 0 0 0 0 0 0 0 0 0 0 0 0 0 0 0 0 0.230550699 0" in="shadowBlurOuter1"/></filter><filter x="-4.2%" y="-4.1%" width="108.5%" height="108.2%" filterUnits="objectBoundingBox" id="aJ"><feGaussianBlur stdDeviation="4.5" in="SourceAlpha" result="shadowBlurInner1"/><feOffset dy="1" in="shadowBlurInner1" result="shadowOffsetInner1"/><feComposite in="shadowOffsetInner1" in2="SourceAlpha" operator="arithmetic" k2="-1" k3="1" result="shadowInnerInner1"/><feColorMatrix values="0 0 0 0 0 0 0 0 0 0 0 0 0 0 0 0 0 0 0.301737325 0" in="shadowInnerInner1"/></filter><filter x="-20%" y="-20%" width="140%" height="140%" filterUnits="objectBoundingBox" id="i"><feGaussianBlur stdDeviation="1.5" in="SourceAlpha" result="shadowBlurInner1"/><feOffset dy="1" in="shadowBlurInner1" result="shadowOffsetInner1"/><feComposite in="shadowOffsetInner1" in2="SourceAlpha" operator="arithmetic" k2="-1" k3="1" result="shadowInnerInner1"/><feColorMatrix values="0 0 0 0 0 0 0 0 0 0 0 0 0 0 0 0 0 0 0.5 0" in="shadowInnerInner1"/></filter><filter x="-20.7%" y="-28.6%" width="141.4%" height="157.3%" filterUnits="objectBoundingBox" id="j"><feGaussianBlur stdDeviation="16" in="SourceGraphic"/></filter><filter x="-111.7%" y="-26.8%" width="323.3%" height="153.6%" filterUnits="objectBoundingBox" id="k"><feOffset dy="3" in="SourceAlpha" result="shadowOffsetOuter1"/><feGaussianBlur stdDeviation="7" in="shadowOffsetOuter1" result="shadowBlurOuter1"/><feColorMatrix values="0 0 0 0 0 0 0 0 0 0 0 0 0 0 0 0 0 0 0.265461101 0" in="shadowBlurOuter1" result="shadowMatrixOuter1"/><feMerge><feMergeNode in="shadowMatrixOuter1"/><feMergeNode in="SourceGraphic"/></feMerge></filter><filter x="-197.1%" y="-16.3%" width="494.1%" height="132.5%" filterUnits="objectBoundingBox" id="l"><feOffset dy="3" in="SourceAlpha" result="shadowOffsetOuter1"/><feGaussianBlur stdDeviation="7" in="shadowOffsetOuter1" result="shadowBlurOuter1"/><feColorMatrix values="0 0 0 0 0 0 0 0 0 0 0 0 0 0 0 0 0 0 0.265461101 0" in="shadowBlurOuter1" result="shadowMatrixOuter1"/><feMerge><feMergeNode in="shadowMatrixOuter1"/><feMergeNode in="SourceGraphic"/></feMerge></filter><filter x="-18%" y="-5.6%" width="136%" height="111.2%" filterUnits="objectBoundingBox" id="aE"><feGaussianBlur stdDeviation="4" in="SourceAlpha" result="shadowBlurInner1"/><feOffset dy="1" in="shadowBlurInner1" result="shadowOffsetInner1"/><feComposite in="shadowOffsetInner1" in2="SourceAlpha" operator="arithmetic" k2="-1" k3="1" result="shadowInnerInner1"/><feColorMatrix values="0 0 0 0 0 0 0 0 0 0 0 0 0 0 0 0 0 0 0.26685424 0" in="shadowInnerInner1"/></filter><filter x="-197.1%" y="-16.3%" width="494.1%" height="132.5%" filterUnits="objectBoundingBox" id="n"><feOffset dy="3" in="SourceAlpha" result="shadowOffsetOuter1"/><feGaussianBlur stdDeviation="7" in="shadowOffsetOuter1" result="shadowBlurOuter1"/><feColorMatrix values="0 0 0 0 0 0 0 0 0 0 0 0 0 0 0 0 0 0 0.265461101 0" in="shadowBlurOuter1" result="shadowMatrixOuter1"/><feMerge><feMergeNode in="shadowMatrixOuter1"/><feMergeNode in="SourceGraphic"/></feMerge></filter><filter x="-8.8%" y="-7.5%" width="115.8%" height="116.8%" filterUnits="objectBoundingBox" id="aB"><feOffset dx="-1" dy="1" in="SourceAlpha" result="shadowOffsetOuter1"/><feGaussianBlur stdDeviation="3" in="shadowOffsetOuter1" result="shadowBlurOuter1"/><feColorMatrix values="0 0 0 0 0 0 0 0 0 0 0 0 0 0 0 0 0 0 0.230550699 0" in="shadowBlurOuter1"/></filter><filter x="-4.2%" y="-4.1%" width="108.5%" height="108.2%" filterUnits="objectBoundingBox" id="aA"><feGaussianBlur stdDeviation="4.5" in="SourceAlpha" result="shadowBlurInner1"/><feOffset dy="1" in="shadowBlurInner1" result="shadowOffsetInner1"/><feComposite in="shadowOffsetInner1" in2="SourceAlpha" operator="arithmetic" k2="-1" k3="1" result="shadowInnerInner1"/><feColorMatrix values="0 0 0 0 0 0 0 0 0 0 0 0 0 0 0 0 0 0 0.301737325 0" in="shadowInnerInner1"/></filter><filter x="-18%" y="-5.6%" width="136%" height="111.2%" filterUnits="objectBoundingBox" id="av"><feGaussianBlur stdDeviation="4" in="SourceAlpha" result="shadowBlurInner1"/><feOffset dy="1" in="shadowBlurInner1" result="shadowOffsetInner1"/><feComposite in="shadowOffsetInner1" in2="SourceAlpha" operator="arithmetic" k2="-1" k3="1" result="shadowInnerInner1"/><feColorMatrix values="0 0 0 0 0 0 0 0 0 0 0 0 0 0 0 0 0 0 0.26685424 0" in="shadowInnerInner1"/></filter><filter x="-8.8%" y="-7.5%" width="115.8%" height="116.8%" filterUnits="objectBoundingBox" id="as"><feOffset dx="-1" dy="1" in="SourceAlpha" result="shadowOffsetOuter1"/><feGaussianBlur stdDeviation="3" in="shadowOffsetOuter1" result="shadowBlurOuter1"/><feColorMatrix values="0 0 0 0 0 0 0 0 0 0 0 0 0 0 0 0 0 0 0.230550699 0" in="shadowBlurOuter1"/></filter><filter x="-4.2%" y="-4.1%" width="108.5%" height="108.2%" filterUnits="objectBoundingBox" id="ar"><feGaussianBlur stdDeviation="4.5" in="SourceAlpha" result="shadowBlurInner1"/><feOffset dy="1" in="shadowBlurInner1" result="shadowOffsetInner1"/><feComposite in="shadowOffsetInner1" in2="SourceAlpha" operator="arithmetic" k2="-1" k3="1" result="shadowInnerInner1"/><feColorMatrix values="0 0 0 0 0 0 0 0 0 0 0 0 0 0 0 0 0 0 0.301737325 0" in="shadowInnerInner1"/></filter><filter x="-4.2%" y="-4.1%" width="108.5%" height="108.2%" filterUnits="objectBoundingBox" id="u"><feGaussianBlur stdDeviation="4.5" in="SourceAlpha" result="shadowBlurInner1"/><feOffset dy="1" in="shadowBlurInner1" result="shadowOffsetInner1"/><feComposite in="shadowOffsetInner1" in2="SourceAlpha" operator="arithmetic" k2="-1" k3="1" result="shadowInnerInner1"/><feColorMatrix values="0 0 0 0 0 0 0 0 0 0 0 0 0 0 0 0 0 0 0.301737325 0" in="shadowInnerInner1"/></filter><filter x="-115.5%" y="-478.6%" width="331%" height="1057.1%" filterUnits="objectBoundingBox" id="ai"><feOffset dy="3" in="SourceAlpha" result="shadowOffsetOuter1"/><feGaussianBlur stdDeviation="7" in="shadowOffsetOuter1" result="shadowBlurOuter1"/><feColorMatrix values="0 0 0 0 0 0 0 0 0 0 0 0 0 0 0 0 0 0 0.265461101 0" in="shadowBlurOuter1" result="shadowMatrixOuter1"/><feMerge><feMergeNode in="shadowMatrixOuter1"/><feMergeNode in="SourceGraphic"/></feMerge></filter><filter x="-115.5%" y="-478.6%" width="331%" height="1057.1%" filterUnits="objectBoundingBox" id="ah"><feOffset dy="3" in="SourceAlpha" result="shadowOffsetOuter1"/><feGaussianBlur stdDeviation="7" in="shadowOffsetOuter1" result="shadowBlurOuter1"/><feColorMatrix values="0 0 0 0 0 0 0 0 0 0 0 0 0 0 0 0 0 0 0.265461101 0" in="shadowBlurOuter1" result="shadowMatrixOuter1"/><feMerge><feMergeNode in="shadowMatrixOuter1"/><feMergeNode in="SourceGraphic"/></feMerge></filter><filter x="-20%" y="-20%" width="140%" height="140%" filterUnits="objectBoundingBox" id="ag"><feGaussianBlur stdDeviation="1.5" in="SourceAlpha" result="shadowBlurInner1"/><feOffset dy="1" in="shadowBlurInner1" result="shadowOffsetInner1"/><feComposite in="shadowOffsetInner1" in2="SourceAlpha" operator="arithmetic" k2="-1" k3="1" result="shadowInnerInner1"/><feColorMatrix values="0 0 0 0 0 0 0 0 0 0 0 0 0 0 0 0 0 0 0.5 0" in="shadowInnerInner1"/></filter><filter x="-8.8%" y="-7.5%" width="115.8%" height="116.8%" filterUnits="objectBoundingBox" id="w"><feOffset dx="-1" dy="1" in="SourceAlpha" result="shadowOffsetOuter1"/><feGaussianBlur stdDeviation="3" in="shadowOffsetOuter1" result="shadowBlurOuter1"/><feColorMatrix values="0 0 0 0 0 0 0 0 0 0 0 0 0 0 0 0 0 0 0.230550699 0" in="shadowBlurOuter1"/></filter><filter x="-20%" y="-20%" width="140%" height="140%" filterUnits="objectBoundingBox" id="ae"><feGaussianBlur stdDeviation="1.5" in="SourceAlpha" result="shadowBlurInner1"/><feOffset dy="1" in="shadowBlurInner1" result="shadowOffsetInner1"/><feComposite in="shadowOffsetInner1" in2="SourceAlpha" operator="arithmetic" k2="-1" k3="1" result="shadowInnerInner1"/><feColorMatrix values="0 0 0 0 0 0 0 0 0 0 0 0 0 0 0 0 0 0 0.5 0" in="shadowInnerInner1"/></filter><filter x="-20%" y="-20%" width="140%" height="140%" filterUnits="objectBoundingBox" id="ac"><feGaussianBlur stdDeviation="1.5" in="SourceAlpha" result="shadowBlurInner1"/><feOffset dy="1" in="shadowBlurInner1" result="shadowOffsetInner1"/><feComposite in="shadowOffsetInner1" in2="SourceAlpha" operator="arithmetic" k2="-1" k3="1" result="shadowInnerInner1"/><feColorMatrix values="0 0 0 0 0 0 0 0 0 0 0 0 0 0 0 0 0 0 0.5 0" in="shadowInnerInner1"/></filter><filter x="-18%" y="-5.6%" width="136%" height="111.2%" filterUnits="objectBoundingBox" id="B"><feGaussianBlur stdDeviation="4" in="SourceAlpha" result="shadowBlurInner1"/><feOffset dy="1" in="shadowBlurInner1" result="shadowOffsetInner1"/><feComposite in="shadowOffsetInner1" in2="SourceAlpha" operator="arithmetic" k2="-1" k3="1" result="shadowInnerInner1"/><feColorMatrix values="0 0 0 0 0 0 0 0 0 0 0 0 0 0 0 0 0 0 0.26685424 0" in="shadowInnerInner1"/></filter><filter x="-20%" y="-20%" width="140%" height="140%" filterUnits="objectBoundingBox" id="aa"><feGaussianBlur stdDeviation="1.5" in="SourceAlpha" result="shadowBlurInner1"/><feOffset dy="1" in="shadowBlurInner1" result="shadowOffsetInner1"/><feComposite in="shadowOffsetInner1" in2="SourceAlpha" operator="arithmetic" k2="-1" k3="1" result="shadowInnerInner1"/><feColorMatrix values="0 0 0 0 0 0 0 0 0 0 0 0 0 0 0 0 0 0 0.5 0" in="shadowInnerInner1"/></filter><filter x="-20%" y="-20%" width="140%" height="140%" filterUnits="objectBoundingBox" id="E"><feGaussianBlur stdDeviation="1.5" in="SourceAlpha" result="shadowBlurInner1"/><feOffset dy="1" in="shadowBlurInner1" result="shadowOffsetInner1"/><feComposite in="shadowOffsetInner1" in2="SourceAlpha" operator="arithmetic" k2="-1" k3="1" result="shadowInnerInner1"/><feColorMatrix values="0 0 0 0 0 0 0 0 0 0 0 0 0 0 0 0 0 0 0.5 0" in="shadowInnerInner1"/></filter><filter x="-20.7%" y="-28.6%" width="141.4%" height="157.3%" filterUnits="objectBoundingBox" id="F"><feGaussianBlur stdDeviation="16" in="SourceGraphic"/></filter><filter x="-20.1%" y="-478.6%" width="140.1%" height="1057.1%" filterUnits="objectBoundingBox" id="G"><feOffset dy="3" in="SourceAlpha" result="shadowOffsetOuter1"/><feGaussianBlur stdDeviation="7" in="shadowOffsetOuter1" result="shadowBlurOuter1"/><feColorMatrix values="0 0 0 0 0 0 0 0 0 0 0 0 0 0 0 0 0 0 0.265461101 0" in="shadowBlurOuter1" result="shadowMatrixOuter1"/><feMerge><feMergeNode in="shadowMatrixOuter1"/><feMergeNode in="SourceGraphic"/></feMerge></filter><filter x="-20.7%" y="-28.6%" width="141.4%" height="157.3%" filterUnits="objectBoundingBox" id="H"><feGaussianBlur stdDeviation="16" in="SourceGraphic"/></filter><filter x="-20.7%" y="-28.6%" width="141.4%" height="157.3%" filterUnits="objectBoundingBox" id="I"><feGaussianBlur stdDeviation="16" in="SourceGraphic"/></filter><filter x="-20%" y="-20%" width="140%" height="140%" filterUnits="objectBoundingBox" id="Y"><feGaussianBlur stdDeviation="1.5" in="SourceAlpha" result="shadowBlurInner1"/><feOffset dy="1" in="shadowBlurInner1" result="shadowOffsetInner1"/><feComposite in="shadowOffsetInner1" in2="SourceAlpha" operator="arithmetic" k2="-1" k3="1" result="shadowInnerInner1"/><feColorMatrix values="0 0 0 0 0 0 0 0 0 0 0 0 0 0 0 0 0 0 0.5 0" in="shadowInnerInner1"/></filter><filter x="-20%" y="-20%" width="140%" height="140%" filterUnits="objectBoundingBox" id="K"><feGaussianBlur stdDeviation="1.5" in="SourceAlpha" result="shadowBlurInner1"/><feOffset dy="1" in="shadowBlurInner1" result="shadowOffsetInner1"/><feComposite in="shadowOffsetInner1" in2="SourceAlpha" operator="arithmetic" k2="-1" k3="1" result="shadowInnerInner1"/><feColorMatrix values="0 0 0 0 0 0 0 0 0 0 0 0 0 0 0 0 0 0 0.5 0" in="shadowInnerInner1"/></filter><filter x="-115.5%" y="-478.6%" width="331%" height="1057.1%" filterUnits="objectBoundingBox" id="b"><feOffset dy="3" in="SourceAlpha" result="shadowOffsetOuter1"/><feGaussianBlur stdDeviation="7" in="shadowOffsetOuter1" result="shadowBlurOuter1"/><feColorMatrix values="0 0 0 0 0 0 0 0 0 0 0 0 0 0 0 0 0 0 0.265461101 0" in="shadowBlurOuter1" result="shadowMatrixOuter1"/><feMerge><feMergeNode in="shadowMatrixOuter1"/><feMergeNode in="SourceGraphic"/></feMerge></filter><filter x="-20%" y="-20%" width="140%" height="140%" filterUnits="objectBoundingBox" id="M"><feGaussianBlur stdDeviation="1.5" in="SourceAlpha" result="shadowBlurInner1"/><feOffset dy="1" in="shadowBlurInner1" result="shadowOffsetInner1"/><feComposite in="shadowOffsetInner1" in2="SourceAlpha" operator="arithmetic" k2="-1" k3="1" result="shadowInnerInner1"/><feColorMatrix values="0 0 0 0 0 0 0 0 0 0 0 0 0 0 0 0 0 0 0.5 0" in="shadowInnerInner1"/></filter><filter x="-111.7%" y="-26.8%" width="323.3%" height="153.6%" filterUnits="objectBoundingBox" id="N"><feOffset dy="3" in="SourceAlpha" result="shadowOffsetOuter1"/><feGaussianBlur stdDeviation="7" in="shadowOffsetOuter1" result="shadowBlurOuter1"/><feColorMatrix values="0 0 0 0 0 0 0 0 0 0 0 0 0 0 0 0 0 0 0.265461101 0" in="shadowBlurOuter1" result="shadowMatrixOuter1"/><feMerge><feMergeNode in="shadowMatrixOuter1"/><feMergeNode in="SourceGraphic"/></feMerge></filter><filter x="-111.7%" y="-26.8%" width="323.3%" height="153.6%" filterUnits="objectBoundingBox" id="O"><feOffset dy="3" in="SourceAlpha" result="shadowOffsetOuter1"/><feGaussianBlur stdDeviation="7" in="shadowOffsetOuter1" result="shadowBlurOuter1"/><feColorMatrix values="0 0 0 0 0 0 0 0 0 0 0 0 0 0 0 0 0 0 0.265461101 0" in="shadowBlurOuter1" result="shadowMatrixOuter1"/><feMerge><feMergeNode in="shadowMatrixOuter1"/><feMergeNode in="SourceGraphic"/></feMerge></filter><filter x="-111.7%" y="-26.8%" width="323.3%" height="153.6%" filterUnits="objectBoundingBox" id="P"><feOffset dy="3" in="SourceAlpha" result="shadowOffsetOuter1"/><feGaussianBlur stdDeviation="7" in="shadowOffsetOuter1" result="shadowBlurOuter1"/><feColorMatrix values="0 0 0 0 0 0 0 0 0 0 0 0 0 0 0 0 0 0 0.265461101 0" in="shadowBlurOuter1" result="shadowMatrixOuter1"/><feMerge><feMergeNode in="shadowMatrixOuter1"/><feMergeNode in="SourceGraphic"/></feMerge></filter><filter x="-20%" y="-20%" width="140%" height="140%" filterUnits="objectBoundingBox" id="T"><feGaussianBlur stdDeviation="1.5" in="SourceAlpha" result="shadowBlurInner1"/><feOffset dy="1" in="shadowBlurInner1" result="shadowOffsetInner1"/><feComposite in="shadowOffsetInner1" in2="SourceAlpha" operator="arithmetic" k2="-1" k3="1" result="shadowInnerInner1"/><feColorMatrix values="0 0 0 0 0 0 0 0 0 0 0 0 0 0 0 0 0 0 0.5 0" in="shadowInnerInner1"/></filter><filter x="-20%" y="-20%" width="140%" height="140%" filterUnits="objectBoundingBox" id="R"><feGaussianBlur stdDeviation="1.5" in="SourceAlpha" result="shadowBlurInner1"/><feOffset dy="1" in="shadowBlurInner1" result="shadowOffsetInner1"/><feComposite in="shadowOffsetInner1" in2="SourceAlpha" operator="arithmetic" k2="-1" k3="1" result="shadowInnerInner1"/><feColorMatrix values="0 0 0 0 0 0 0 0 0 0 0 0 0 0 0 0 0 0 0.5 0" in="shadowInnerInner1"/></filter><filter x="-18%" y="-5.6%" width="136%" height="111.2%" filterUnits="objectBoundingBox" id="aW"><feGaussianBlur stdDeviation="4" in="SourceAlpha" result="shadowBlurInner1"/><feOffset dy="1" in="shadowBlurInner1" result="shadowOffsetInner1"/><feComposite in="shadowOffsetInner1" in2="SourceAlpha" operator="arithmetic" k2="-1" k3="1" result="shadowInnerInner1"/><feColorMatrix values="0 0 0 0 0 0 0 0 0 0 0 0 0 0 0 0 0 0 0.26685424 0" in="shadowInnerInner1"/></filter><path id="S" d="M700 394l-.884.884 3.49 3.491H695v1.25h7.606l-3.49 3.49.884.885 5-5z"/><path id="U" d="M840 394l-.884.884 3.49 3.491H835v1.25h7.606l-3.49 3.49.884.885 5-5z"/><path id="L" d="M5 3l-.884.884 3.49 3.491H0v1.25h7.606l-3.49 3.49L5 13l5-5z"/><path d="M4.096 0H21a4 4 0 014 4v72a4 4 0 01-4 4H4.005a4 4 0 01-4-4.005l.09-72a4 4 0 014-3.995z" id="aV"/><path id="X" d="M700 73l-.884.884 3.49 3.491H695v1.25h7.606l-3.49 3.49L700 83l5-5z"/><path id="J" d="M25 464l-.884.884 3.49 3.491H20v1.25h7.606l-3.49 3.49L25 474l5-5z"/><path id="Z" d="M840 73l-.884.884 3.49 3.491H835v1.25h7.606l-3.49 3.49L840 83l5-5z"/><path id="D" d="M280 394l-.884.884 3.49 3.491H275v1.25h7.606l-3.49 3.49.884.885 5-5z"/><path id="ab" d="M559 73l-.884.884 3.49 3.491H554v1.25h7.606l-3.49 3.49L559 83l5-5z"/><path d="M4.096 0H21a4 4 0 014 4v72a4 4 0 01-4 4H4.005a4 4 0 01-4-4.005l.09-72a4 4 0 014-3.995z" id="z"/><path id="ad" d="M419 73l-.884.884 3.49 3.491H414v1.25h7.606l-3.49 3.49L419 83l5-5z"/><path d="M127.476 62.924l.018.243.006.244v103.16a5 5 0 01-5.508 4.974l-110-11.237a5 5 0 01-4.492-4.974V74.179a5 5 0 014.513-4.976l110-10.769a5 5 0 015.463 4.49zm-2.013.02a3 3 0 00-3.255-2.519l-110 10.768A3 3 0 009.5 74.18v81.155a3 3 0 002.695 2.984l110 11.237a3 3 0 003.305-2.984V63.41l-.004-.147-.01-.146-.023-.175z" id="aU"/><path id="af" d="M280 73l-.884.884 3.49 3.491H275v1.25h7.606l-3.49 3.49L280 83l5-5z"/><path d="M127.476 62.924l.018.243.006.244v103.16a5 5 0 01-5.508 4.974l-110-11.237a5 5 0 01-4.492-4.974V74.179a5 5 0 014.513-4.976l110-10.769a5 5 0 015.463 4.49zm-2.013.02a3 3 0 00-3.255-2.519l-110 10.768A3 3 0 009.5 74.18v81.155a3 3 0 002.695 2.984l110 11.237a3 3 0 003.305-2.984V63.41l-.004-.147-.01-.146-.023-.175z" id="x"/><path d="M11.86 70.698l110-10.768a4 4 0 014.39 3.98v103.16a4 4 0 01-4.406 3.98l-110-11.237a4 4 0 01-3.594-3.979V74.679a4 4 0 013.61-3.98z" id="aR"/><path d="M-23.373 47.123l181.908-19.158a4 4 0 014.42 3.978v127.114a4 4 0 01-4.42 3.978l-181.908-19.158a4 4 0 01-3.581-3.978V51.101a4 4 0 013.58-3.978z" id="aP"/><path d="M4.096 0H21a4 4 0 014 4v72a4 4 0 01-4 4H4.005a4 4 0 01-4-4.005l.09-72a4 4 0 014-3.995z" id="aM"/><path d="M127.476 62.924l.018.243.006.244v103.16a5 5 0 01-5.508 4.974l-110-11.237a5 5 0 01-4.492-4.974V74.179a5 5 0 014.513-4.976l110-10.769a5 5 0 015.463 4.49zm-2.013.02a3 3 0 00-3.255-2.519l-110 10.768A3 3 0 009.5 74.18v81.155a3 3 0 002.695 2.984l110 11.237a3 3 0 003.305-2.984V63.41l-.004-.147-.01-.146-.023-.175z" id="aL"/><path id="g" d="M560 394l-.884.884 3.49 3.491H555v1.25h7.606l-3.49 3.49.884.885 5-5z"/><path d="M11.86 70.698l110-10.768a4 4 0 014.39 3.98v103.16a4 4 0 01-4.406 3.98l-110-11.237a4 4 0 01-3.594-3.979V74.679a4 4 0 013.61-3.98z" id="aI"/><path d="M-23.373 47.123l181.908-19.158a4 4 0 014.42 3.978v127.114a4 4 0 01-4.42 3.978l-181.908-19.158a4 4 0 01-3.581-3.978V51.101a4 4 0 013.58-3.978z" id="ao"/><path d="M11.86 70.698l110-10.768a4 4 0 014.39 3.98v103.16a4 4 0 01-4.406 3.98l-110-11.237a4 4 0 01-3.594-3.979V74.679a4 4 0 013.61-3.98z" id="aq"/><path d="M11.86 70.698l110-10.768a4 4 0 014.39 3.98v103.16a4 4 0 01-4.406 3.98l-110-11.237a4 4 0 01-3.594-3.979V74.679a4 4 0 013.61-3.98z" id="t"/><path id="Q" d="M418 394l-.884.884 3.49 3.491H413v1.25h7.606l-3.49 3.49.884.885 5-5z"/><path d="M-23.373 47.123l181.908-19.158a4 4 0 014.42 3.978v127.114a4 4 0 01-4.42 3.978l-181.908-19.158a4 4 0 01-3.581-3.978V51.101a4 4 0 013.58-3.978z" id="aG"/><path d="M4.096 0H21a4 4 0 014 4v72a4 4 0 01-4 4H4.005a4 4 0 01-4-4.005l.09-72a4 4 0 014-3.995z" id="au"/><path d="M-23.373 47.123l181.908-19.158a4 4 0 014.42 3.978v127.114a4 4 0 01-4.42 3.978l-181.908-19.158a4 4 0 01-3.581-3.978V51.101a4 4 0 013.58-3.978z" id="p"/><path d="M-23.373 47.123l181.908-19.158a4 4 0 014.42 3.978v127.114a4 4 0 01-4.42 3.978l-181.908-19.158a4 4 0 01-3.581-3.978V51.101a4 4 0 013.58-3.978z" id="ax"/><path d="M11.86 70.698l110-10.768a4 4 0 014.39 3.98v103.16a4 4 0 01-4.406 3.98l-110-11.237a4 4 0 01-3.594-3.979V74.679a4 4 0 013.61-3.98z" id="az"/><path d="M4.096 0H21a4 4 0 014 4v72a4 4 0 01-4 4H4.005a4 4 0 01-4-4.005l.09-72a4 4 0 014-3.995z" id="aD"/><path d="M127.476 62.924l.018.243.006.244v103.16a5 5 0 01-5.508 4.974l-110-11.237a5 5 0 01-4.492-4.974V74.179a5 5 0 014.513-4.976l110-10.769a5 5 0 015.463 4.49zm-2.013.02a3 3 0 00-3.255-2.519l-110 10.768A3 3 0 009.5 74.18v81.155a3 3 0 002.695 2.984l110 11.237a3 3 0 003.305-2.984V63.41l-.004-.147-.01-.146-.023-.175z" id="aC"/><path d="M127.476 62.924l.018.243.006.244v103.16a5 5 0 01-5.508 4.974l-110-11.237a5 5 0 01-4.492-4.974V74.179a5 5 0 014.513-4.976l110-10.769a5 5 0 015.463 4.49zm-2.013.02a3 3 0 00-3.255-2.519l-110 10.768A3 3 0 009.5 74.18v81.155a3 3 0 002.695 2.984l110 11.237a3 3 0 003.305-2.984V63.41l-.004-.147-.01-.146-.023-.175z" id="at"/><linearGradient x1="50.034%" y1="99.725%" x2="50.034%" y2="-.004%" id="o"><stop stop-color="#656266" offset="0%"/><stop stop-color="#9F9CA1" offset="13.66%"/><stop stop-color="#D9D8DA" offset="42.07%"/><stop stop-color="#F3F4F4" offset="51.52%"/><stop stop-color="#807B80" offset="100%"/></linearGradient><linearGradient x1="50.034%" y1="99.725%" x2="50.034%" y2="-.004%" id="m"><stop stop-color="#656266" offset="0%"/><stop stop-color="#9F9CA1" offset="13.66%"/><stop stop-color="#D9D8DA" offset="42.07%"/><stop stop-color="#F3F4F4" offset="51.52%"/><stop stop-color="#807B80" offset="100%"/></linearGradient><linearGradient x1="50.034%" y1="100%" x2="50.034%" y2="0%" id="s"><stop stop-color="#363D43" offset="0%"/><stop stop-color="#798085" offset="49.388%"/><stop stop-color="#363D43" offset="100%"/></linearGradient><linearGradient x1="50.034%" y1="99.725%" x2="50.034%" y2="-.004%" id="an"><stop stop-color="#656266" offset="0%"/><stop stop-color="#9F9CA1" offset="13.66%"/><stop stop-color="#D9D8DA" offset="42.07%"/><stop stop-color="#F3F4F4" offset="51.52%"/><stop stop-color="#807B80" offset="100%"/></linearGradient><linearGradient x1="50.034%" y1="99.725%" x2="50.034%" y2="-.004%" id="c"><stop stop-color="#656266" offset="0%"/><stop stop-color="#9F9CA1" offset="13.66%"/><stop stop-color="#D9D8DA" offset="42.07%"/><stop stop-color="#F3F4F4" offset="51.52%"/><stop stop-color="#807B80" offset="100%"/></linearGradient><linearGradient x1="50.034%" y1="99.725%" x2="50.034%" y2="-.004%" id="ak"><stop stop-color="#656266" offset="0%"/><stop stop-color="#9F9CA1" offset="13.66%"/><stop stop-color="#D9D8DA" offset="42.07%"/><stop stop-color="#F3F4F4" offset="51.52%"/><stop stop-color="#807B80" offset="100%"/></linearGradient><linearGradient x1="50.034%" y1="99.984%" x2="50.034%" y2="-.004%" id="h"><stop stop-color="#8B878D" offset="0%"/><stop stop-color="#9F9CA1" offset="13.66%"/><stop stop-color="#D9D8DA" offset="42.07%"/><stop stop-color="#F3F4F4" offset="51.52%"/><stop stop-color="#807B80" offset="100%"/></linearGradient><linearGradient x1="50.034%" y1="99.725%" x2="50.034%" y2="-.004%" id="q"><stop stop-color="#656266" offset="0%"/><stop stop-color="#F3F4F4" offset="49.427%"/><stop stop-color="#807B80" offset="100%"/></linearGradient><linearGradient x1="50.034%" y1="99.725%" x2="50.034%" y2="-.004%" id="f"><stop stop-color="#656266" offset="0%"/><stop stop-color="#9F9CA1" offset="13.66%"/><stop stop-color="#D9D8DA" offset="42.07%"/><stop stop-color="#F3F4F4" offset="51.52%"/><stop stop-color="#807B80" offset="100%"/></linearGradient><linearGradient x1="50.034%" y1="99.984%" x2="50.034%" y2="-.004%" id="v"><stop stop-color="#212F42" offset="0%"/><stop stop-color="#004C97" offset="13.66%"/><stop stop-color="#004C97" offset="42.07%"/><stop stop-color="#004C97" offset="51.52%"/><stop stop-color="#213042" offset="100%"/></linearGradient><linearGradient x1=".453%" y1="50.403%" x2="99.615%" y2="50.403%" id="y"><stop stop-color="#AFACB1" offset="0%"/><stop stop-color="#BAB9BC" offset="28.499%"/><stop stop-color="#D9D8DA" offset="42.07%"/><stop stop-color="#F3F4F4" offset="58.437%"/><stop stop-color="#958F95" offset="100%"/></linearGradient><linearGradient x1="50.034%" y1="99.725%" x2="50.034%" y2="-.004%" id="e"><stop stop-color="#656266" offset="0%"/><stop stop-color="#9F9CA1" offset="13.66%"/><stop stop-color="#D9D8DA" offset="42.07%"/><stop stop-color="#F3F4F4" offset="51.52%"/><stop stop-color="#807B80" offset="100%"/></linearGradient><linearGradient x1="50.034%" y1="88.585%" x2="50.034%" y2="9.638%" id="A"><stop stop-color="#363D43" offset="0%"/><stop stop-color="#73797E" offset="49.169%"/><stop stop-color="#363D43" offset="100%"/></linearGradient><linearGradient x1="50.034%" y1="99.725%" x2="50.034%" y2="-.004%" id="aj"><stop stop-color="#656266" offset="0%"/><stop stop-color="#9F9CA1" offset="13.66%"/><stop stop-color="#D9D8DA" offset="42.07%"/><stop stop-color="#F3F4F4" offset="51.52%"/><stop stop-color="#807B80" offset="100%"/></linearGradient><radialGradient cx="-20.177%" cy="-21.812%" fx="-20.177%" fy="-21.812%" r="141.011%" id="W"><stop stop-color="#8B878D" offset="0%"/><stop stop-color="#9F9CA1" offset="13.66%"/><stop stop-color="#D9D8DA" offset="42.07%"/><stop stop-color="#F3F4F4" offset="51.52%"/><stop stop-color="#807B80" offset="100%"/></radialGradient><circle id="al" cx="12.5" cy="12.5" r="12.5"/></defs><g fill="none" fill-rule="evenodd"><path d="M446.581 183.035l224-23.57a4 4 0 014.419 3.978v157.114a4 4 0 01-4.419 3.978l-224-23.57a4 4 0 01-3.581-3.978V187.013a4 4 0 013.581-3.978z" fill="#000" fill-rule="nonzero" opacity=".32" filter="url(#a)" transform="rotate(90 555 246)"/><g filter="url(#b)" transform="translate(544 148)" fill="url(#c)" fill-rule="nonzero" stroke="#636262" stroke-width=".5"><path d="M28.75.25v6.5H.25V.25z"/></g><g filter="url(#d)" transform="translate(544 344)" fill-rule="nonzero"><path fill="url(#e)" transform="rotate(90 15.5 66)" d="M-43.5 58h118v16h-118z"/><path stroke="#636262" stroke-width=".5" fill="url(#c)" transform="rotate(90 15 3.5)" d="M11.75-10.75h6.5v28.5h-6.5z"/><path stroke="#636262" stroke-width=".5" fill="url(#f)" transform="rotate(90 15.5 121.5)" d="M12.25 113.25h6.5v16.5h-6.5z"/></g><g fill-rule="nonzero" transform="rotate(-90 564 403)"><use fill="#FFF" xlink:href="#g"/><use fill="url(#h)" xlink:href="#g"/><use fill="#000" filter="url(#i)" xlink:href="#g"/></g><path d="M166.581 183.035l224-23.57a4 4 0 014.419 3.978v157.114a4 4 0 01-4.419 3.978l-224-23.57a4 4 0 01-3.581-3.978V187.013a4 4 0 013.581-3.978z" fill="#000" fill-rule="nonzero" opacity=".32" filter="url(#j)" transform="rotate(90 275 246)"/><g filter="url(#k)" transform="translate(264 344)" fill-rule="nonzero"><path fill="url(#e)" transform="rotate(90 15.5 66)" d="M-43.5 58h118v16h-118z"/><path stroke="#636262" stroke-width=".5" fill="url(#c)" transform="rotate(90 15 3.5)" d="M11.75-10.75h6.5v28.5h-6.5z"/><path stroke="#636262" stroke-width=".5" fill="url(#f)" transform="rotate(90 15.5 121.5)" d="M12.25 113.25h6.5v16.5h-6.5z"/></g><g fill-rule="nonzero"><g filter="url(#l)" transform="translate(147 263)"><path fill="url(#m)" transform="rotate(90 8.5 103)" d="M-94.5 95h206v16h-206z"/><path stroke="#636262" stroke-width=".5" fill="url(#f)" transform="rotate(90 8.5 202.5)" d="M5.25 194.25h6.5v16.5h-6.5z"/></g><g filter="url(#n)" transform="translate(147 25)"><path fill="url(#m)" transform="rotate(90 8.5 103)" d="M-94.5 95h206v16h-206z"/><path stroke="#636262" stroke-width=".5" fill="url(#f)" transform="rotate(90 8.5 202.5)" d="M5.25 194.25h6.5v16.5h-6.5z"/></g><path stroke="#636262" stroke-width=".5" fill="url(#o)" transform="rotate(90 70.5 89)" d="M5.25-3.75h6.5v15.5h-6.5z"/><path stroke="#636262" stroke-width=".5" fill="url(#o)" transform="rotate(90 70.5 328.5)" d="M5.25 235.75h6.5v15.5h-6.5z"/></g><g transform="translate(211 154)"><mask id="r" fill="#fff"><use xlink:href="#p"/></mask><use fill="url(#q)" fill-rule="nonzero" transform="rotate(90 68 95.5)" xlink:href="#p"/><path d="M162.932 31.524a4 4 0 01.022.42v127.113a4 4 0 01-4.419 3.978l-181.908-19.158a4 4 0 01-3.581-3.978V51.101a4 4 0 013.58-3.978l181.91-19.158a4 4 0 014.396 3.56zm-.497.053a3.5 3.5 0 00-3.656-3.13l-.191.016L-23.321 47.62a3.5 3.5 0 00-3.128 3.29l-.005.19v88.8a3.5 3.5 0 002.944 3.455l.19.025 181.908 19.157a3.5 3.5 0 003.861-3.288l.005-.192V31.943l-.005-.183-.014-.183z" fill="#2C405A" fill-rule="nonzero" mask="url(#r)" transform="rotate(90 68 95.5)"/></g><g fill-rule="nonzero" transform="rotate(90 95.75 298)"><use fill="url(#s)" xlink:href="#t"/><use fill="#000" filter="url(#u)" xlink:href="#t"/></g><path d="M62.334 21.774L76.25 18.5v93l-13.916-3.274a4 4 0 01-3.084-3.894V25.668a4 4 0 013.084-3.894z" fill="url(#v)" fill-rule="nonzero" transform="rotate(90 96.25 247.5)"/><g fill-rule="nonzero" transform="rotate(90 96 297.49)"><use fill="#000" filter="url(#w)" xlink:href="#x"/><use fill="url(#y)" xlink:href="#x"/></g><path d="M335.554 323.455a5.5 5.5 0 01-4.719 5.983l-.232.027-.267.02-.256.005H226.92a5.5 5.5 0 01-5.5-5.5l.007-.28.021-.278 11.237-110a5.5 5.5 0 015.244-4.937l.227-.005h81.155a5.5 5.5 0 015.447 4.738l.027.227 10.769 110zm-.474.48l-.008-.215-.016-.217-10.768-110a5 5 0 00-4.75-4.508l-.227-.005h-81.155a5 5 0 00-4.946 4.269l-.028.223-11.236 110-.02.254-.006.254.004.217a5 5 0 004.773 4.779l.223.004h103.16l.244-.006.243-.017a5 5 0 004.51-4.82l.003-.213z" fill="#7F7F7F" fill-rule="nonzero"/><g transform="rotate(-90 268.25 29.75)"><mask id="C" fill="#fff"><use xlink:href="#z"/></mask><g fill-rule="nonzero"><use fill="url(#A)" xlink:href="#z"/><use fill="#000" filter="url(#B)" xlink:href="#z"/></g><g opacity=".603"><g opacity=".148" mask="url(#C)" stroke="#FFF" stroke-linecap="square" stroke-width=".5"><path d="M-256 88l427.5-428.5M-256 91l427.5-428.5M-256 94l427.5-428.5M-256 97l427.5-428.5M-256 100l427.5-428.5M-256 103l427.5-428.5M-256 106l427.5-428.5M-256 109l427.5-428.5M-256 112l427.5-428.5M-256 115l427.5-428.5M-256 118l427.5-428.5M-256 121l427.5-428.5M-256 124l427.5-428.5M-256 127l427.5-428.5M-256 130l427.5-428.5M-256 133l427.5-428.5M-256 136l427.5-428.5M-256 139l427.5-428.5M-256 142l427.5-428.5M-256 145l427.5-428.5M-256 148l427.5-428.5M-256 151l427.5-428.5M-256 154l427.5-428.5M-256 157l427.5-428.5M-256 160l427.5-428.5M-256 163l427.5-428.5M-256 166l427.5-428.5M-256 169l427.5-428.5M-256 172l427.5-428.5M-256 175l427.5-428.5M-256 178l427.5-428.5M-256 181l427.5-428.5M-256 184l427.5-428.5M-256 187l427.5-428.5M-256 190l427.5-428.5M-256 193l427.5-428.5M-256 196l427.5-428.5M-256 199l427.5-428.5M-256 202l427.5-428.5M-256 205l427.5-428.5M-256 208l427.5-428.5M-256 211l427.5-428.5M-256 214l427.5-428.5M-256 217l427.5-428.5M-256 220l427.5-428.5M-256 223l427.5-428.5M-256 226l427.5-428.5M-256 229l427.5-428.5M-256 232l427.5-428.5M-256 235l427.5-428.5M-256 238l427.5-428.5M-256 241l427.5-428.5M-256 244l427.5-428.5M-256 247l427.5-428.5M-256 250l427.5-428.5M-256 253l427.5-428.5M-256 256l427.5-428.5M-256 259l427.5-428.5M-256 262l427.5-428.5M-256 265l427.5-428.5M-256 268l427.5-428.5M-256 271l427.5-428.5M-256 274l427.5-428.5M-256 277l427.5-428.5M-256 280l427.5-428.5M-256 283l427.5-428.5M-256 286l427.5-428.5M-256 289l427.5-428.5M-256 292l427.5-428.5M-256 295l427.5-428.5M-256 298l427.5-428.5M-256 301l427.5-428.5M-256 304l427.5-428.5M-256 307l427.5-428.5M-256 310l427.5-428.5M-256 313l427.5-428.5M-256 316l427.5-428.5M-256 319l427.5-428.5M-256 322l427.5-428.5M-256 325l427.5-428.5M-256 328l427.5-428.5M-256 331L171.5-97.5M-256 334L171.5-94.5M-256 337L171.5-91.5M-256 340L171.5-88.5M-256 343L171.5-85.5M-256 346L171.5-82.5M-256 349L171.5-79.5M-256 352L171.5-76.5M-256 355L171.5-73.5M-256 358L171.5-70.5M-256 361L171.5-67.5M-256 364L171.5-64.5M-256 367L171.5-61.5M-256 370L171.5-58.5M-256 373L171.5-55.5M-256 376L171.5-52.5M-256 379L171.5-49.5M-256 382L171.5-46.5M-256 385L171.5-43.5M-256 388L171.5-40.5M-256 391L171.5-37.5M-256 394L171.5-34.5M-256 397L171.5-31.5M-256 400L171.5-28.5M-256 403L171.5-25.5M-256 406L171.5-22.5M-256 409L171.5-19.5M-256 412L171.5-16.5M-256 415L171.5-13.5M-256 418L171.5-10.5M-256 421L171.5-7.5M-256 424L171.5-4.5M-256 427L171.5-1.5M-256 430L171.5 1.5M-256 433L171.5 4.5M-256 436L171.5 7.5M-256 439L171.5 10.5M-256 442L171.5 13.5M-256 445L171.5 16.5M-256 448L171.5 19.5M-256 451L171.5 22.5M-256 454L171.5 25.5M-256 457L171.5 28.5M-256 460L171.5 31.5M-256 463L171.5 34.5M-256 466L171.5 37.5M-256 469L171.5 40.5M-256 472L171.5 43.5M-256 475L171.5 46.5M-256 478L171.5 49.5M-256 481L171.5 52.5M-256 484L171.5 55.5M-256 487L171.5 58.5M-256 490L171.5 61.5M-256 493L171.5 64.5M-256 496L171.5 67.5M-256 499L171.5 70.5M-256 502L171.5 73.5M-256 505L171.5 76.5M-256 508L171.5 79.5M-256 511L171.5 82.5M-256 514L171.5 85.5M-256 517L171.5 88.5"/></g></g></g><g fill-rule="nonzero" transform="rotate(-90 284 403)"><use fill="#FFF" xlink:href="#D"/><use fill="url(#h)" xlink:href="#D"/><use fill="#000" filter="url(#E)" xlink:href="#D"/></g><path d="M305.581 183.035l224-23.57a4 4 0 014.419 3.978v157.114a4 4 0 01-4.419 3.978l-224-23.57a4 4 0 01-3.581-3.978V187.013a4 4 0 013.581-3.978z" fill="#000" fill-rule="nonzero" opacity=".32" filter="url(#F)" transform="rotate(90 414 246)"/><g filter="url(#G)" transform="translate(265 148)" fill="url(#c)" fill-rule="nonzero" stroke="#636262" stroke-width=".5"><path d="M166.75.25v6.5h-28.5V.25zM28.75.25v6.5H.25V.25z"/></g><path d="M586.581 183.035l224-23.57a4 4 0 014.419 3.978v157.114a4 4 0 01-4.419 3.978l-224-23.57a4 4 0 01-3.581-3.978V187.013a4 4 0 013.581-3.978z" fill="#000" fill-rule="nonzero" opacity=".32" filter="url(#H)" transform="rotate(90 695 246)"/><path d="M726.581 183.035l224-23.57a4 4 0 014.419 3.978v157.114a4 4 0 01-4.419 3.978l-224-23.57a4 4 0 01-3.581-3.978V187.013a4 4 0 013.581-3.978z" fill="#000" fill-rule="nonzero" opacity=".32" filter="url(#I)" transform="rotate(90 835 246)"/><g fill-rule="nonzero" transform="translate(0 8)"><use fill="#FFF" xlink:href="#J"/><use fill="#FFF" xlink:href="#J"/><use fill="#000" filter="url(#K)" xlink:href="#J"/></g><g fill-rule="nonzero" transform="matrix(-1 0 0 1 10 8)"><use fill="#FFF" xlink:href="#L"/><use fill="#FFF" xlink:href="#L"/><use fill="#000" filter="url(#M)" xlink:href="#L"/></g><g filter="url(#N)" transform="translate(403 344)" fill-rule="nonzero"><path fill="url(#e)" transform="rotate(90 15.5 66)" d="M-43.5 58h118v16h-118z"/><path stroke="#636262" stroke-width=".5" fill="url(#c)" transform="rotate(90 15 3.5)" d="M11.75-10.75h6.5v28.5h-6.5z"/><path stroke="#636262" stroke-width=".5" fill="url(#o)" transform="rotate(90 15.5 121.5)" d="M12.25 113.75h6.5v15.5h-6.5z"/></g><g filter="url(#O)" transform="translate(684 344)" fill-rule="nonzero"><path fill="url(#e)" transform="rotate(90 15.5 66)" d="M-43.5 58h118v16h-118z"/><path stroke="#636262" stroke-width=".5" fill="url(#c)" transform="rotate(90 15 3.5)" d="M11.75-10.75h6.5v28.5h-6.5z"/></g><g filter="url(#P)" transform="translate(824 344)" fill-rule="nonzero"><path fill="url(#e)" transform="rotate(90 15.5 66)" d="M-43.5 58h118v16h-118z"/><path stroke="#636262" stroke-width=".5" fill="url(#c)" transform="rotate(90 15 3.5)" d="M11.75-10.75h6.5v28.5h-6.5z"/></g><g fill-rule="nonzero" transform="rotate(-90 422 403)"><use fill="#FFF" xlink:href="#Q"/><use fill="url(#h)" xlink:href="#Q"/><use fill="#000" filter="url(#R)" xlink:href="#Q"/></g><g fill-rule="nonzero" transform="rotate(-90 704 403)"><use fill="#FFF" xlink:href="#S"/><use fill="url(#h)" xlink:href="#S"/><use fill="#000" filter="url(#T)" xlink:href="#S"/></g><g fill-rule="nonzero" transform="rotate(-90 844 403)"><use fill="#FFF" xlink:href="#U"/><use fill="url(#h)" xlink:href="#U"/><use fill="#000" filter="url(#V)" xlink:href="#U"/></g><g fill-rule="nonzero" stroke="#636262" stroke-width=".5"><path d="M22.25 7.25H6.75v15.5h4.75c2.969 0 5.656-1.203 7.601-3.149A10.716 10.716 0 0022.25 12V7.25z" fill="url(#W)" transform="translate(825 462)"/><path fill="url(#o)" transform="rotate(90 196 647.5)" d="M11.25-3.75h6.5v15.5h-6.5z"/><path fill="url(#o)" transform="translate(825 462)" d="M.25 7.25h6.5v15.5H.25z"/></g><path fill="url(#e)" fill-rule="nonzero" transform="rotate(90 695 85)" d="M640 73h118v16H640z"/><path fill="url(#e)" fill-rule="nonzero" transform="rotate(90 835 85)" d="M780 73h118v16H780z"/><path fill="url(#e)" fill-rule="nonzero" transform="rotate(90 554 85)" d="M499 73h118v16H499z"/><path fill="url(#e)" fill-rule="nonzero" transform="rotate(90 414 85)" d="M359 73h118v16H359z"/><path fill="url(#e)" fill-rule="nonzero" transform="rotate(90 275 85)" d="M220 73h118v16H220z"/><g fill-rule="nonzero" transform="rotate(-90 704 82)"><use fill="#FFF" xlink:href="#X"/><use fill="url(#h)" xlink:href="#X"/><use fill="#000" filter="url(#Y)" xlink:href="#X"/></g><g fill-rule="nonzero" transform="rotate(-90 844 82)"><use fill="#FFF" xlink:href="#Z"/><use fill="url(#h)" xlink:href="#Z"/><use fill="#000" filter="url(#aa)" xlink:href="#Z"/></g><g fill-rule="nonzero" transform="rotate(-90 563 82)"><use fill="#FFF" xlink:href="#ab"/><use fill="url(#h)" xlink:href="#ab"/><use fill="#000" filter="url(#ac)" xlink:href="#ab"/></g><g fill-rule="nonzero" transform="rotate(-90 423 82)"><use fill="#FFF" xlink:href="#ad"/><use fill="url(#h)" xlink:href="#ad"/><use fill="#000" filter="url(#ae)" xlink:href="#ad"/></g><g fill-rule="nonzero" transform="rotate(-90 284 82)"><use fill="#FFF" xlink:href="#af"/><use fill="url(#h)" xlink:href="#af"/><use fill="#000" filter="url(#ag)" xlink:href="#af"/></g><g filter="url(#ah)" transform="translate(684 148)" fill="url(#c)" fill-rule="nonzero" stroke="#636262" stroke-width=".5"><path d="M28.75.25v6.5H.25V.25z"/></g><g filter="url(#ai)" transform="translate(824 148)" fill="url(#c)" fill-rule="nonzero" stroke="#636262" stroke-width=".5"><path d="M28.75.25v6.5H.25V.25z"/></g><path d="M825 0v16H16.937C15.646 14.116 15 12.782 15 12c0-3 4.358-2 4.358-6.5 0-1.833-.807-3.667-2.421-5.5H825z" fill="url(#aj)" fill-rule="nonzero" transform="translate(0 8)"/><path d="M825 461v16H36.937c-1.291-1.884-1.937-3.218-1.937-4 0-3 4.358-2 4.358-6.5 0-1.833-.807-3.667-2.421-5.5H825z" fill="url(#ak)" fill-rule="nonzero" transform="translate(0 8)"/><path stroke="#636262" stroke-width=".5" fill="url(#o)" fill-rule="nonzero" transform="rotate(90 414 23)" d="M414.75 11.25h6.5v15.5h-6.5z"/><path stroke="#636262" stroke-width=".5" fill="url(#o)" fill-rule="nonzero" transform="rotate(90 554 23)" d="M554.75 11.25h6.5v15.5h-6.5z"/><path stroke="#636262" stroke-width=".5" fill="url(#o)" fill-rule="nonzero" transform="rotate(90 695 23)" d="M695.75 11.25h6.5v15.5h-6.5z"/><path stroke="#636262" stroke-width=".5" fill="url(#o)" fill-rule="nonzero" transform="rotate(90 275 23)" d="M275.75 11.25h6.5v15.5h-6.5z"/><g transform="translate(207.525 464.525)"><mask id="am" fill="#fff"><use xlink:href="#al"/></mask><use fill="#FFF" xlink:href="#al"/><g mask="url(#am)" fill="#827F83"><path d="M35.71-31.65l.743.742-87.61 87.611-.743-.742L35.71-31.65zm6.138 0l.742.742-87.61 87.611-.743-.742 87.61-87.611zm6.3 0l.742.742-87.61 87.611-.743-.742 87.61-87.611zm6.3 0l.742.742-87.61 87.611-.743-.742 87.61-87.611zm6.3 0l.742.742-87.61 87.611-.743-.742 87.61-87.611zm6.3 0l.742.742-87.61 87.611-.743-.742 87.61-87.611zm6.3 0l.742.742-87.61 87.611-.743-.742 87.61-87.611zm6.3 0l.742.742-87.61 87.611-.743-.742 87.61-87.611zm6.3 0l.742.742L-.92 56.703l-.743-.742 87.61-87.611z"/><path d="M-.92-31.65l-.743.742 87.61 87.611.743-.742L-.92-31.65zm-6.138 0l-.742.742 87.61 87.611.743-.742-87.61-87.611zm-6.3 0l-.742.742 87.61 87.611.743-.742-87.61-87.611zm-6.3 0l-.742.742 87.61 87.611.743-.742-87.61-87.611zm-6.3 0l-.742.742 87.61 87.611.743-.742-87.61-87.611zm-6.3 0l-.742.742 87.61 87.611.743-.742-87.61-87.611zm-6.3 0l-.742.742 87.61 87.611.743-.742-87.61-87.611zm-6.3 0l-.742.742 87.61 87.611.743-.742-87.61-87.611zm-6.3 0l-.742.742 87.61 87.611.743-.742-87.61-87.611z"/></g></g><path d="M14 .25C6.406.25.25 6.406.25 14S6.406 27.75 14 27.75 27.75 21.594 27.75 14 21.594.25 14 .25zm0 1.5c6.765 0 12.25 5.485 12.25 12.25S20.765 26.25 14 26.25 1.75 20.765 1.75 14 7.235 1.75 14 1.75z" fill="url(#an)" fill-rule="nonzero" transform="translate(206 463)"/><path d="M220 463.25c7.594 0 13.75 6.156 13.75 13.75 0 7.49-5.989 13.581-13.439 13.747l-.311.003c-7.594 0-13.75-6.156-13.75-13.75 0-7.49 5.989-13.581 13.439-13.747l.311-.003zm0 .5c-7.318 0-13.25 5.932-13.25 13.25s5.932 13.25 13.25 13.25 13.25-5.932 13.25-13.25-5.932-13.25-13.25-13.25z" fill="#636262" fill-rule="nonzero"/><path stroke="#636262" stroke-width=".5" fill="url(#f)" fill-rule="nonzero" transform="rotate(90 695.5 461.5)" d="M696.25 449.25h6.5v16.5h-6.5z"/><g fill-rule="nonzero" stroke="#636262" stroke-width=".5"><path d="M22.25 7.25H6.75v15.5h4.75c2.969 0 5.656-1.203 7.601-3.149A10.716 10.716 0 0022.25 12V7.25z" fill="url(#W)" transform="matrix(1 0 0 -1 824.5 31)"/><path fill="url(#o)" transform="matrix(0 -1 -1 0 843 41.5)" d="M11.25-3.75h6.5v15.5h-6.5z"/><path fill="url(#o)" transform="matrix(1 0 0 -1 824.5 31)" d="M.25 7.25h6.5v15.5H.25z"/></g><g><g transform="translate(350 154)"><mask id="ap" fill="#fff"><use xlink:href="#ao"/></mask><use fill="url(#q)" fill-rule="nonzero" transform="rotate(90 68 95.5)" xlink:href="#ao"/><path d="M162.932 31.524a4 4 0 01.022.42v127.113a4 4 0 01-4.419 3.978l-181.908-19.158a4 4 0 01-3.581-3.978V51.101a4 4 0 013.58-3.978l181.91-19.158a4 4 0 014.396 3.56zm-.497.053a3.5 3.5 0 00-3.656-3.13l-.191.016L-23.321 47.62a3.5 3.5 0 00-3.128 3.29l-.005.19v88.8a3.5 3.5 0 002.944 3.455l.19.025 181.908 19.157a3.5 3.5 0 003.861-3.288l.005-.192V31.943l-.005-.183-.014-.183z" fill="#2C405A" fill-rule="nonzero" mask="url(#ap)" transform="rotate(90 68 95.5)"/></g><g fill-rule="nonzero" transform="rotate(90 165.25 367.5)"><use fill="url(#s)" xlink:href="#aq"/><use fill="#000" filter="url(#ar)" xlink:href="#aq"/></g><path d="M62.334 21.774L76.25 18.5v93l-13.916-3.274a4 4 0 01-3.084-3.894V25.668a4 4 0 013.084-3.894z" fill="url(#v)" fill-rule="nonzero" transform="rotate(90 165.75 317)"/><g fill-rule="nonzero" transform="rotate(90 165.5 366.99)"><use fill="#000" filter="url(#as)" xlink:href="#at"/><use fill="url(#y)" xlink:href="#at"/></g><path d="M474.554 323.455a5.5 5.5 0 01-4.719 5.983l-.232.027-.267.02-.256.005H365.92a5.5 5.5 0 01-5.5-5.5l.007-.28.021-.278 11.237-110a5.5 5.5 0 015.244-4.937l.227-.005h81.155a5.5 5.5 0 015.447 4.738l.027.227 10.769 110zm-.474.48l-.008-.215-.016-.217-10.768-110a5 5 0 00-4.75-4.508l-.227-.005h-81.155a5 5 0 00-4.946 4.269l-.028.223-11.236 110-.02.254-.006.254.004.217a5 5 0 004.773 4.779l.223.004h103.16l.244-.006.243-.017a5 5 0 004.51-4.82l.003-.213z" fill="#7F7F7F" fill-rule="nonzero"/><g transform="rotate(-90 337.75 -39.75)"><mask id="aw" fill="#fff"><use xlink:href="#au"/></mask><g fill-rule="nonzero"><use fill="url(#A)" xlink:href="#au"/><use fill="#000" filter="url(#av)" xlink:href="#au"/></g><g opacity=".603"><g opacity=".148" mask="url(#aw)" stroke="#FFF" stroke-linecap="square" stroke-width=".5"><path d="M-256 88l427.5-428.5M-256 91l427.5-428.5M-256 94l427.5-428.5M-256 97l427.5-428.5M-256 100l427.5-428.5M-256 103l427.5-428.5M-256 106l427.5-428.5M-256 109l427.5-428.5M-256 112l427.5-428.5M-256 115l427.5-428.5M-256 118l427.5-428.5M-256 121l427.5-428.5M-256 124l427.5-428.5M-256 127l427.5-428.5M-256 130l427.5-428.5M-256 133l427.5-428.5M-256 136l427.5-428.5M-256 139l427.5-428.5M-256 142l427.5-428.5M-256 145l427.5-428.5M-256 148l427.5-428.5M-256 151l427.5-428.5M-256 154l427.5-428.5M-256 157l427.5-428.5M-256 160l427.5-428.5M-256 163l427.5-428.5M-256 166l427.5-428.5M-256 169l427.5-428.5M-256 172l427.5-428.5M-256 175l427.5-428.5M-256 178l427.5-428.5M-256 181l427.5-428.5M-256 184l427.5-428.5M-256 187l427.5-428.5M-256 190l427.5-428.5M-256 193l427.5-428.5M-256 196l427.5-428.5M-256 199l427.5-428.5M-256 202l427.5-428.5M-256 205l427.5-428.5M-256 208l427.5-428.5M-256 211l427.5-428.5M-256 214l427.5-428.5M-256 217l427.5-428.5M-256 220l427.5-428.5M-256 223l427.5-428.5M-256 226l427.5-428.5M-256 229l427.5-428.5M-256 232l427.5-428.5M-256 235l427.5-428.5M-256 238l427.5-428.5M-256 241l427.5-428.5M-256 244l427.5-428.5M-256 247l427.5-428.5M-256 250l427.5-428.5M-256 253l427.5-428.5M-256 256l427.5-428.5M-256 259l427.5-428.5M-256 262l427.5-428.5M-256 265l427.5-428.5M-256 268l427.5-428.5M-256 271l427.5-428.5M-256 274l427.5-428.5M-256 277l427.5-428.5M-256 280l427.5-428.5M-256 283l427.5-428.5M-256 286l427.5-428.5M-256 289l427.5-428.5M-256 292l427.5-428.5M-256 295l427.5-428.5M-256 298l427.5-428.5M-256 301l427.5-428.5M-256 304l427.5-428.5M-256 307l427.5-428.5M-256 310l427.5-428.5M-256 313l427.5-428.5M-256 316l427.5-428.5M-256 319l427.5-428.5M-256 322l427.5-428.5M-256 325l427.5-428.5M-256 328l427.5-428.5M-256 331L171.5-97.5M-256 334L171.5-94.5M-256 337L171.5-91.5M-256 340L171.5-88.5M-256 343L171.5-85.5M-256 346L171.5-82.5M-256 349L171.5-79.5M-256 352L171.5-76.5M-256 355L171.5-73.5M-256 358L171.5-70.5M-256 361L171.5-67.5M-256 364L171.5-64.5M-256 367L171.5-61.5M-256 370L171.5-58.5M-256 373L171.5-55.5M-256 376L171.5-52.5M-256 379L171.5-49.5M-256 382L171.5-46.5M-256 385L171.5-43.5M-256 388L171.5-40.5M-256 391L171.5-37.5M-256 394L171.5-34.5M-256 397L171.5-31.5M-256 400L171.5-28.5M-256 403L171.5-25.5M-256 406L171.5-22.5M-256 409L171.5-19.5M-256 412L171.5-16.5M-256 415L171.5-13.5M-256 418L171.5-10.5M-256 421L171.5-7.5M-256 424L171.5-4.5M-256 427L171.5-1.5M-256 430L171.5 1.5M-256 433L171.5 4.5M-256 436L171.5 7.5M-256 439L171.5 10.5M-256 442L171.5 13.5M-256 445L171.5 16.5M-256 448L171.5 19.5M-256 451L171.5 22.5M-256 454L171.5 25.5M-256 457L171.5 28.5M-256 460L171.5 31.5M-256 463L171.5 34.5M-256 466L171.5 37.5M-256 469L171.5 40.5M-256 472L171.5 43.5M-256 475L171.5 46.5M-256 478L171.5 49.5M-256 481L171.5 52.5M-256 484L171.5 55.5M-256 487L171.5 58.5M-256 490L171.5 61.5M-256 493L171.5 64.5M-256 496L171.5 67.5M-256 499L171.5 70.5M-256 502L171.5 73.5M-256 505L171.5 76.5M-256 508L171.5 79.5M-256 511L171.5 82.5M-256 514L171.5 85.5M-256 517L171.5 88.5"/></g></g></g></g><g><g transform="translate(490 154)"><mask id="ay" fill="#fff"><use xlink:href="#ax"/></mask><use fill="url(#q)" fill-rule="nonzero" transform="rotate(90 68 95.5)" xlink:href="#ax"/><path d="M162.932 31.524a4 4 0 01.022.42v127.113a4 4 0 01-4.419 3.978l-181.908-19.158a4 4 0 01-3.581-3.978V51.101a4 4 0 013.58-3.978l181.91-19.158a4 4 0 014.396 3.56zm-.497.053a3.5 3.5 0 00-3.656-3.13l-.191.016L-23.321 47.62a3.5 3.5 0 00-3.128 3.29l-.005.19v88.8a3.5 3.5 0 002.944 3.455l.19.025 181.908 19.157a3.5 3.5 0 003.861-3.288l.005-.192V31.943l-.005-.183-.014-.183z" fill="#2C405A" fill-rule="nonzero" mask="url(#ay)" transform="rotate(90 68 95.5)"/></g><g fill-rule="nonzero" transform="rotate(90 235.25 437.5)"><use fill="url(#s)" xlink:href="#az"/><use fill="#000" filter="url(#aA)" xlink:href="#az"/></g><path d="M62.334 21.774L76.25 18.5v93l-13.916-3.274a4 4 0 01-3.084-3.894V25.668a4 4 0 013.084-3.894z" fill="url(#v)" fill-rule="nonzero" transform="rotate(90 235.75 387)"/><g fill-rule="nonzero" transform="rotate(90 235.5 436.99)"><use fill="#000" filter="url(#aB)" xlink:href="#aC"/><use fill="url(#y)" xlink:href="#aC"/></g><path d="M614.554 323.455a5.5 5.5 0 01-4.719 5.983l-.232.027-.267.02-.256.005H505.92a5.5 5.5 0 01-5.5-5.5l.007-.28.021-.278 11.237-110a5.5 5.5 0 015.244-4.937l.227-.005h81.155a5.5 5.5 0 015.447 4.738l.027.227 10.769 110zm-.474.48l-.008-.215-.016-.217-10.768-110a5 5 0 00-4.75-4.508l-.227-.005h-81.155a5 5 0 00-4.946 4.269l-.028.223-11.236 110-.02.254-.006.254.004.217a5 5 0 004.773 4.779l.223.004h103.16l.244-.006.243-.017a5 5 0 004.51-4.82l.003-.213z" fill="#7F7F7F" fill-rule="nonzero"/><g transform="rotate(-90 407.75 -109.75)"><mask id="aF" fill="#fff"><use xlink:href="#aD"/></mask><g fill-rule="nonzero"><use fill="url(#A)" xlink:href="#aD"/><use fill="#000" filter="url(#aE)" xlink:href="#aD"/></g><g opacity=".603"><g opacity=".148" mask="url(#aF)" stroke="#FFF" stroke-linecap="square" stroke-width=".5"><path d="M-256 88l427.5-428.5M-256 91l427.5-428.5M-256 94l427.5-428.5M-256 97l427.5-428.5M-256 100l427.5-428.5M-256 103l427.5-428.5M-256 106l427.5-428.5M-256 109l427.5-428.5M-256 112l427.5-428.5M-256 115l427.5-428.5M-256 118l427.5-428.5M-256 121l427.5-428.5M-256 124l427.5-428.5M-256 127l427.5-428.5M-256 130l427.5-428.5M-256 133l427.5-428.5M-256 136l427.5-428.5M-256 139l427.5-428.5M-256 142l427.5-428.5M-256 145l427.5-428.5M-256 148l427.5-428.5M-256 151l427.5-428.5M-256 154l427.5-428.5M-256 157l427.5-428.5M-256 160l427.5-428.5M-256 163l427.5-428.5M-256 166l427.5-428.5M-256 169l427.5-428.5M-256 172l427.5-428.5M-256 175l427.5-428.5M-256 178l427.5-428.5M-256 181l427.5-428.5M-256 184l427.5-428.5M-256 187l427.5-428.5M-256 190l427.5-428.5M-256 193l427.5-428.5M-256 196l427.5-428.5M-256 199l427.5-428.5M-256 202l427.5-428.5M-256 205l427.5-428.5M-256 208l427.5-428.5M-256 211l427.5-428.5M-256 214l427.5-428.5M-256 217l427.5-428.5M-256 220l427.5-428.5M-256 223l427.5-428.5M-256 226l427.5-428.5M-256 229l427.5-428.5M-256 232l427.5-428.5M-256 235l427.5-428.5M-256 238l427.5-428.5M-256 241l427.5-428.5M-256 244l427.5-428.5M-256 247l427.5-428.5M-256 250l427.5-428.5M-256 253l427.5-428.5M-256 256l427.5-428.5M-256 259l427.5-428.5M-256 262l427.5-428.5M-256 265l427.5-428.5M-256 268l427.5-428.5M-256 271l427.5-428.5M-256 274l427.5-428.5M-256 277l427.5-428.5M-256 280l427.5-428.5M-256 283l427.5-428.5M-256 286l427.5-428.5M-256 289l427.5-428.5M-256 292l427.5-428.5M-256 295l427.5-428.5M-256 298l427.5-428.5M-256 301l427.5-428.5M-256 304l427.5-428.5M-256 307l427.5-428.5M-256 310l427.5-428.5M-256 313l427.5-428.5M-256 316l427.5-428.5M-256 319l427.5-428.5M-256 322l427.5-428.5M-256 325l427.5-428.5M-256 328l427.5-428.5M-256 331L171.5-97.5M-256 334L171.5-94.5M-256 337L171.5-91.5M-256 340L171.5-88.5M-256 343L171.5-85.5M-256 346L171.5-82.5M-256 349L171.5-79.5M-256 352L171.5-76.5M-256 355L171.5-73.5M-256 358L171.5-70.5M-256 361L171.5-67.5M-256 364L171.5-64.5M-256 367L171.5-61.5M-256 370L171.5-58.5M-256 373L171.5-55.5M-256 376L171.5-52.5M-256 379L171.5-49.5M-256 382L171.5-46.5M-256 385L171.5-43.5M-256 388L171.5-40.5M-256 391L171.5-37.5M-256 394L171.5-34.5M-256 397L171.5-31.5M-256 400L171.5-28.5M-256 403L171.5-25.5M-256 406L171.5-22.5M-256 409L171.5-19.5M-256 412L171.5-16.5M-256 415L171.5-13.5M-256 418L171.5-10.5M-256 421L171.5-7.5M-256 424L171.5-4.5M-256 427L171.5-1.5M-256 430L171.5 1.5M-256 433L171.5 4.5M-256 436L171.5 7.5M-256 439L171.5 10.5M-256 442L171.5 13.5M-256 445L171.5 16.5M-256 448L171.5 19.5M-256 451L171.5 22.5M-256 454L171.5 25.5M-256 457L171.5 28.5M-256 460L171.5 31.5M-256 463L171.5 34.5M-256 466L171.5 37.5M-256 469L171.5 40.5M-256 472L171.5 43.5M-256 475L171.5 46.5M-256 478L171.5 49.5M-256 481L171.5 52.5M-256 484L171.5 55.5M-256 487L171.5 58.5M-256 490L171.5 61.5M-256 493L171.5 64.5M-256 496L171.5 67.5M-256 499L171.5 70.5M-256 502L171.5 73.5M-256 505L171.5 76.5M-256 508L171.5 79.5M-256 511L171.5 82.5M-256 514L171.5 85.5M-256 517L171.5 88.5"/></g></g></g></g><g><g transform="translate(632 154)"><mask id="aH" fill="#fff"><use xlink:href="#aG"/></mask><use fill="url(#q)" fill-rule="nonzero" transform="rotate(90 68 95.5)" xlink:href="#aG"/><path d="M162.932 31.524a4 4 0 01.022.42v127.113a4 4 0 01-4.419 3.978l-181.908-19.158a4 4 0 01-3.581-3.978V51.101a4 4 0 013.58-3.978l181.91-19.158a4 4 0 014.396 3.56zm-.497.053a3.5 3.5 0 00-3.656-3.13l-.191.016L-23.321 47.62a3.5 3.5 0 00-3.128 3.29l-.005.19v88.8a3.5 3.5 0 002.944 3.455l.19.025 181.908 19.157a3.5 3.5 0 003.861-3.288l.005-.192V31.943l-.005-.183-.014-.183z" fill="#2C405A" fill-rule="nonzero" mask="url(#aH)" transform="rotate(90 68 95.5)"/></g><g fill-rule="nonzero" transform="rotate(90 306.25 508.5)"><use fill="url(#s)" xlink:href="#aI"/><use fill="#000" filter="url(#aJ)" xlink:href="#aI"/></g><path d="M62.334 21.774L76.25 18.5v93l-13.916-3.274a4 4 0 01-3.084-3.894V25.668a4 4 0 013.084-3.894z" fill="url(#v)" fill-rule="nonzero" transform="rotate(90 306.75 458)"/><g fill-rule="nonzero" transform="rotate(90 306.5 507.99)"><use fill="#000" filter="url(#aK)" xlink:href="#aL"/><use fill="url(#y)" xlink:href="#aL"/></g><path d="M756.554 323.455a5.5 5.5 0 01-4.719 5.983l-.232.027-.267.02-.256.005H647.92a5.5 5.5 0 01-5.5-5.5l.007-.28.021-.278 11.237-110a5.5 5.5 0 015.244-4.937l.227-.005h81.155a5.5 5.5 0 015.447 4.738l.027.227 10.769 110zm-.474.48l-.008-.215-.016-.217-10.768-110a5 5 0 00-4.75-4.508l-.227-.005h-81.155a5 5 0 00-4.946 4.269l-.028.223-11.236 110-.02.254-.006.254.004.217a5 5 0 004.773 4.779l.223.004h103.16l.244-.006.243-.017a5 5 0 004.51-4.82l.003-.213z" fill="#7F7F7F" fill-rule="nonzero"/><g transform="rotate(-90 478.75 -180.75)"><mask id="aO" fill="#fff"><use xlink:href="#aM"/></mask><g fill-rule="nonzero"><use fill="url(#A)" xlink:href="#aM"/><use fill="#000" filter="url(#aN)" xlink:href="#aM"/></g><g opacity=".603"><g opacity=".148" mask="url(#aO)" stroke="#FFF" stroke-linecap="square" stroke-width=".5"><path d="M-256 88l427.5-428.5M-256 91l427.5-428.5M-256 94l427.5-428.5M-256 97l427.5-428.5M-256 100l427.5-428.5M-256 103l427.5-428.5M-256 106l427.5-428.5M-256 109l427.5-428.5M-256 112l427.5-428.5M-256 115l427.5-428.5M-256 118l427.5-428.5M-256 121l427.5-428.5M-256 124l427.5-428.5M-256 127l427.5-428.5M-256 130l427.5-428.5M-256 133l427.5-428.5M-256 136l427.5-428.5M-256 139l427.5-428.5M-256 142l427.5-428.5M-256 145l427.5-428.5M-256 148l427.5-428.5M-256 151l427.5-428.5M-256 154l427.5-428.5M-256 157l427.5-428.5M-256 160l427.5-428.5M-256 163l427.5-428.5M-256 166l427.5-428.5M-256 169l427.5-428.5M-256 172l427.5-428.5M-256 175l427.5-428.5M-256 178l427.5-428.5M-256 181l427.5-428.5M-256 184l427.5-428.5M-256 187l427.5-428.5M-256 190l427.5-428.5M-256 193l427.5-428.5M-256 196l427.5-428.5M-256 199l427.5-428.5M-256 202l427.5-428.5M-256 205l427.5-428.5M-256 208l427.5-428.5M-256 211l427.5-428.5M-256 214l427.5-428.5M-256 217l427.5-428.5M-256 220l427.5-428.5M-256 223l427.5-428.5M-256 226l427.5-428.5M-256 229l427.5-428.5M-256 232l427.5-428.5M-256 235l427.5-428.5M-256 238l427.5-428.5M-256 241l427.5-428.5M-256 244l427.5-428.5M-256 247l427.5-428.5M-256 250l427.5-428.5M-256 253l427.5-428.5M-256 256l427.5-428.5M-256 259l427.5-428.5M-256 262l427.5-428.5M-256 265l427.5-428.5M-256 268l427.5-428.5M-256 271l427.5-428.5M-256 274l427.5-428.5M-256 277l427.5-428.5M-256 280l427.5-428.5M-256 283l427.5-428.5M-256 286l427.5-428.5M-256 289l427.5-428.5M-256 292l427.5-428.5M-256 295l427.5-428.5M-256 298l427.5-428.5M-256 301l427.5-428.5M-256 304l427.5-428.5M-256 307l427.5-428.5M-256 310l427.5-428.5M-256 313l427.5-428.5M-256 316l427.5-428.5M-256 319l427.5-428.5M-256 322l427.5-428.5M-256 325l427.5-428.5M-256 328l427.5-428.5M-256 331L171.5-97.5M-256 334L171.5-94.5M-256 337L171.5-91.5M-256 340L171.5-88.5M-256 343L171.5-85.5M-256 346L171.5-82.5M-256 349L171.5-79.5M-256 352L171.5-76.5M-256 355L171.5-73.5M-256 358L171.5-70.5M-256 361L171.5-67.5M-256 364L171.5-64.5M-256 367L171.5-61.5M-256 370L171.5-58.5M-256 373L171.5-55.5M-256 376L171.5-52.5M-256 379L171.5-49.5M-256 382L171.5-46.5M-256 385L171.5-43.5M-256 388L171.5-40.5M-256 391L171.5-37.5M-256 394L171.5-34.5M-256 397L171.5-31.5M-256 400L171.5-28.5M-256 403L171.5-25.5M-256 406L171.5-22.5M-256 409L171.5-19.5M-256 412L171.5-16.5M-256 415L171.5-13.5M-256 418L171.5-10.5M-256 421L171.5-7.5M-256 424L171.5-4.5M-256 427L171.5-1.5M-256 430L171.5 1.5M-256 433L171.5 4.5M-256 436L171.5 7.5M-256 439L171.5 10.5M-256 442L171.5 13.5M-256 445L171.5 16.5M-256 448L171.5 19.5M-256 451L171.5 22.5M-256 454L171.5 25.5M-256 457L171.5 28.5M-256 460L171.5 31.5M-256 463L171.5 34.5M-256 466L171.5 37.5M-256 469L171.5 40.5M-256 472L171.5 43.5M-256 475L171.5 46.5M-256 478L171.5 49.5M-256 481L171.5 52.5M-256 484L171.5 55.5M-256 487L171.5 58.5M-256 490L171.5 61.5M-256 493L171.5 64.5M-256 496L171.5 67.5M-256 499L171.5 70.5M-256 502L171.5 73.5M-256 505L171.5 76.5M-256 508L171.5 79.5M-256 511L171.5 82.5M-256 514L171.5 85.5M-256 517L171.5 88.5"/></g></g></g></g><g><g transform="translate(772 154)"><mask id="aQ" fill="#fff"><use xlink:href="#aP"/></mask><use fill="url(#q)" fill-rule="nonzero" transform="rotate(90 68 95.5)" xlink:href="#aP"/><path d="M162.932 31.524a4 4 0 01.022.42v127.113a4 4 0 01-4.419 3.978l-181.908-19.158a4 4 0 01-3.581-3.978V51.101a4 4 0 013.58-3.978l181.91-19.158a4 4 0 014.396 3.56zm-.497.053a3.5 3.5 0 00-3.656-3.13l-.191.016L-23.321 47.62a3.5 3.5 0 00-3.128 3.29l-.005.19v88.8a3.5 3.5 0 002.944 3.455l.19.025 181.908 19.157a3.5 3.5 0 003.861-3.288l.005-.192V31.943l-.005-.183-.014-.183z" fill="#2C405A" fill-rule="nonzero" mask="url(#aQ)" transform="rotate(90 68 95.5)"/></g><g fill-rule="nonzero" transform="rotate(90 376.25 578.5)"><use fill="url(#s)" xlink:href="#aR"/><use fill="#000" filter="url(#aS)" xlink:href="#aR"/></g><path d="M62.334 21.774L76.25 18.5v93l-13.916-3.274a4 4 0 01-3.084-3.894V25.668a4 4 0 013.084-3.894z" fill="url(#v)" fill-rule="nonzero" transform="rotate(90 376.75 528)"/><g fill-rule="nonzero" transform="rotate(90 376.5 577.99)"><use fill="#000" filter="url(#aT)" xlink:href="#aU"/><use fill="url(#y)" xlink:href="#aU"/></g><path d="M896.554 323.455a5.5 5.5 0 01-4.719 5.983l-.232.027-.267.02-.256.005H787.92a5.5 5.5 0 01-5.5-5.5l.007-.28.021-.278 11.237-110a5.5 5.5 0 015.244-4.937l.227-.005h81.155a5.5 5.5 0 015.447 4.738l.027.227 10.769 110zm-.474.48l-.008-.215-.016-.217-10.768-110a5 5 0 00-4.75-4.508l-.227-.005h-81.155a5 5 0 00-4.946 4.269l-.028.223-11.236 110-.02.254-.006.254.004.217a5 5 0 004.773 4.779l.223.004h103.16l.244-.006.243-.017a5 5 0 004.51-4.82l.003-.213z" fill="#7F7F7F" fill-rule="nonzero"/><g transform="rotate(-90 548.75 -250.75)"><mask id="aX" fill="#fff"><use xlink:href="#aV"/></mask><g fill-rule="nonzero"><use fill="url(#A)" xlink:href="#aV"/><use fill="#000" filter="url(#aW)" xlink:href="#aV"/></g><g opacity=".603"><g opacity=".148" mask="url(#aX)" stroke="#FFF" stroke-linecap="square" stroke-width=".5"><path d="M-256 88l427.5-428.5M-256 91l427.5-428.5M-256 94l427.5-428.5M-256 97l427.5-428.5M-256 100l427.5-428.5M-256 103l427.5-428.5M-256 106l427.5-428.5M-256 109l427.5-428.5M-256 112l427.5-428.5M-256 115l427.5-428.5M-256 118l427.5-428.5M-256 121l427.5-428.5M-256 124l427.5-428.5M-256 127l427.5-428.5M-256 130l427.5-428.5M-256 133l427.5-428.5M-256 136l427.5-428.5M-256 139l427.5-428.5M-256 142l427.5-428.5M-256 145l427.5-428.5M-256 148l427.5-428.5M-256 151l427.5-428.5M-256 154l427.5-428.5M-256 157l427.5-428.5M-256 160l427.5-428.5M-256 163l427.5-428.5M-256 166l427.5-428.5M-256 169l427.5-428.5M-256 172l427.5-428.5M-256 175l427.5-428.5M-256 178l427.5-428.5M-256 181l427.5-428.5M-256 184l427.5-428.5M-256 187l427.5-428.5M-256 190l427.5-428.5M-256 193l427.5-428.5M-256 196l427.5-428.5M-256 199l427.5-428.5M-256 202l427.5-428.5M-256 205l427.5-428.5M-256 208l427.5-428.5M-256 211l427.5-428.5M-256 214l427.5-428.5M-256 217l427.5-428.5M-256 220l427.5-428.5M-256 223l427.5-428.5M-256 226l427.5-428.5M-256 229l427.5-428.5M-256 232l427.5-428.5M-256 235l427.5-428.5M-256 238l427.5-428.5M-256 241l427.5-428.5M-256 244l427.5-428.5M-256 247l427.5-428.5M-256 250l427.5-428.5M-256 253l427.5-428.5M-256 256l427.5-428.5M-256 259l427.5-428.5M-256 262l427.5-428.5M-256 265l427.5-428.5M-256 268l427.5-428.5M-256 271l427.5-428.5M-256 274l427.5-428.5M-256 277l427.5-428.5M-256 280l427.5-428.5M-256 283l427.5-428.5M-256 286l427.5-428.5M-256 289l427.5-428.5M-256 292l427.5-428.5M-256 295l427.5-428.5M-256 298l427.5-428.5M-256 301l427.5-428.5M-256 304l427.5-428.5M-256 307l427.5-428.5M-256 310l427.5-428.5M-256 313l427.5-428.5M-256 316l427.5-428.5M-256 319l427.5-428.5M-256 322l427.5-428.5M-256 325l427.5-428.5M-256 328l427.5-428.5M-256 331L171.5-97.5M-256 334L171.5-94.5M-256 337L171.5-91.5M-256 340L171.5-88.5M-256 343L171.5-85.5M-256 346L171.5-82.5M-256 349L171.5-79.5M-256 352L171.5-76.5M-256 355L171.5-73.5M-256 358L171.5-70.5M-256 361L171.5-67.5M-256 364L171.5-64.5M-256 367L171.5-61.5M-256 370L171.5-58.5M-256 373L171.5-55.5M-256 376L171.5-52.5M-256 379L171.5-49.5M-256 382L171.5-46.5M-256 385L171.5-43.5M-256 388L171.5-40.5M-256 391L171.5-37.5M-256 394L171.5-34.5M-256 397L171.5-31.5M-256 400L171.5-28.5M-256 403L171.5-25.5M-256 406L171.5-22.5M-256 409L171.5-19.5M-256 412L171.5-16.5M-256 415L171.5-13.5M-256 418L171.5-10.5M-256 421L171.5-7.5M-256 424L171.5-4.5M-256 427L171.5-1.5M-256 430L171.5 1.5M-256 433L171.5 4.5M-256 436L171.5 7.5M-256 439L171.5 10.5M-256 442L171.5 13.5M-256 445L171.5 16.5M-256 448L171.5 19.5M-256 451L171.5 22.5M-256 454L171.5 25.5M-256 457L171.5 28.5M-256 460L171.5 31.5M-256 463L171.5 34.5M-256 466L171.5 37.5M-256 469L171.5 40.5M-256 472L171.5 43.5M-256 475L171.5 46.5M-256 478L171.5 49.5M-256 481L171.5 52.5M-256 484L171.5 55.5M-256 487L171.5 58.5M-256 490L171.5 61.5M-256 493L171.5 64.5M-256 496L171.5 67.5M-256 499L171.5 70.5M-256 502L171.5 73.5M-256 505L171.5 76.5M-256 508L171.5 79.5M-256 511L171.5 82.5M-256 514L171.5 85.5M-256 517L171.5 88.5"/></g></g></g></g></g></svg>