<svg xmlns="http://www.w3.org/2000/svg" xmlns:xlink="http://www.w3.org/1999/xlink" width="118" height="10"><defs><path id="a" d="M1.126 8.948a.583.583 0 01-.074-.821l2.61-3.133-2.516-3.128a.584.584 0 01.909-.732l2.816 3.5a.584.584 0 01-.006.74l-2.917 3.5a.583.583 0 01-.822.074z"/><path id="b" d="M5.21 8.948a.583.583 0 01-.075-.821l2.611-3.133-2.517-3.128a.584.584 0 01.91-.732l2.816 3.5a.584.584 0 01-.007.74l-2.916 3.5a.583.583 0 01-.822.074z"/></defs><g fill="#314863"><path d="M1.395 9c.03-.887.064-1.8.104-2.739.04-.939.101-1.848.182-2.728.08.161.176.361.286.6l.352.764c.125.271.251.554.38.847l.373.853c.121.274.233.533.336.775.103.242.19.447.264.616h1.034l.264-.61c.103-.239.214-.495.335-.77l.374-.853a70.674 70.674 0 011.018-2.222c.08.88.141 1.79.181 2.728.04.939.076 1.852.105 2.739h1.364a168.178 168.178 0 00-.237-3.921 92.91 92.91 0 00-.159-1.926 72.864 72.864 0 00-.187-1.776H6.51c-.161.279-.341.62-.539 1.023a61.55 61.55 0 00-1.21 2.624l-.55 1.27a274.95 274.95 0 00-.556-1.27 74.95 74.95 0 00-.61-1.354A61.55 61.55 0 002.44 2.4a17.247 17.247 0 00-.539-1.023H.614a57.21 57.21 0 00-.187 1.727 87.548 87.548 0 00-.16 1.93A167.82 167.82 0 00.031 9h1.364zm9.152 0l.313-.886c.107-.296.211-.599.314-.907h3.212c.103.308.209.609.319.902.11.293.216.59.319.891h1.496a103.802 103.802 0 00-1.579-4.213 56.355 56.355 0 00-1.48-3.41h.001-1.309a56.355 56.355 0 00-1.48 3.41 91.23 91.23 0 00-.753 1.958c-.257.69-.528 1.441-.814 2.255h1.441zm3.487-2.915h-2.508c.235-.653.46-1.258.676-1.815.217-.557.41-1.03.578-1.419.161.374.352.843.572 1.408.22.565.447 1.173.682 1.826zM23.324 9V7.823h-4.092c.271-.47.585-.966.94-1.49.356-.525.717-1.035 1.084-1.53.367-.494.722-.953 1.067-1.375.345-.421.638-.764.88-1.028V1.377h-5.456v1.177h3.663c-.198.227-.409.486-.633.776a41.816 41.816 0 00-2.085 2.931c-.219.337-.426.666-.62.984-.195.32-.365.615-.512.886V9h5.764zm2.035 0l.313-.886c.107-.296.211-.599.314-.907h3.212c.103.308.209.609.319.902.11.293.216.59.319.891h1.496a103.802 103.802 0 00-1.579-4.213 56.355 56.355 0 00-1.48-3.41h.001-1.309a56.355 56.355 0 00-1.48 3.41 91.23 91.23 0 00-.753 1.958c-.257.69-.528 1.441-.814 2.255h1.441zm3.487-2.915h-2.508c.235-.653.46-1.258.676-1.815.217-.557.41-1.03.578-1.419.161.374.352.843.572 1.408.22.565.447 1.173.682 1.826zM33.686 9V6.118h.88c.073 0 .161-.004.264-.011a18.47 18.47 0 01.94 1.315c.165.253.329.513.49.78.161.268.312.534.451.798h1.551a11.716 11.716 0 00-.451-.874 18.077 18.077 0 00-1.067-1.655 12.83 12.83 0 00-.473-.617c1.02-.367 1.529-1.067 1.529-2.101 0-.829-.292-1.445-.875-1.848S35.501 1.3 34.401 1.3c-.3 0-.642.013-1.023.038-.381.026-.74.076-1.078.149V9h1.386zm.605-4.004h-.605V2.532a9.3 9.3 0 01.814-.033c.271 0 .52.02.748.06.227.04.423.109.588.204a.982.982 0 01.38.385c.088.161.132.36.132.594 0 .25-.044.455-.132.616a.963.963 0 01-.39.385 1.874 1.874 0 01-.644.198 6.37 6.37 0 01-.891.055zM40.198 9l.313-.886c.107-.296.211-.599.314-.907h3.212c.103.308.209.609.319.902.11.293.216.59.319.891h1.496a103.802 103.802 0 00-1.579-4.213 56.355 56.355 0 00-1.48-3.41h.001-1.309a56.355 56.355 0 00-1.48 3.41 91.23 91.23 0 00-.753 1.958c-.257.69-.528 1.441-.814 2.255h1.441zm3.487-2.915h-2.508c.235-.653.46-1.258.676-1.815.217-.557.41-1.03.578-1.419.161.374.352.843.572 1.408.22.565.447 1.173.682 1.826zm8.173 3.003c.645 0 1.234-.079 1.765-.236.532-.158.987-.4 1.364-.726a3.26 3.26 0 00.875-1.221c.205-.488.308-1.062.308-1.722 0-.675-.103-1.256-.308-1.744a3.16 3.16 0 00-.875-1.21 3.603 3.603 0 00-1.358-.704A6.375 6.375 0 0051.88 1.3c-.308 0-.66.011-1.056.033-.396.022-.77.073-1.122.154V8.89c.352.08.722.134 1.111.16.389.025.737.038 1.045.038zm.088-1.21c-.227 0-.407-.002-.539-.005a5.31 5.31 0 01-.319-.017V2.532a8.08 8.08 0 01.88-.033c.939 0 1.632.231 2.079.693.447.462.671 1.126.671 1.991 0 .85-.23 1.512-.688 1.986-.458.473-1.153.709-2.084.709zM62.847 9V7.823h-3.773V5.59h3.124V4.435h-3.124V2.554h3.509V1.377h-4.895V9h5.159zm6.105 0V7.801H65.52V1.377h-1.386V9h4.818zm7.128 0a65.523 65.523 0 001.584-3.729c.506-1.298.983-2.596 1.43-3.894h-1.485a132.918 132.918 0 01-1.084 3.157c-.187.52-.372 1.021-.555 1.502-.183.48-.36.922-.528 1.325a29.23 29.23 0 01-.539-1.331 75.08 75.08 0 01-.55-1.502 148.85 148.85 0 01-.55-1.578l-.539-1.573h-1.529c.44 1.298.915 2.596 1.424 3.894A68.263 68.263 0 0074.75 9h1.331zm3.982 0l.313-.886c.107-.296.211-.599.314-.907h3.212c.103.308.209.609.319.902.11.293.216.59.319.891h1.496a103.802 103.802 0 00-1.579-4.213 56.355 56.355 0 00-1.48-3.41h.001-1.309a56.355 56.355 0 00-1.48 3.41 91.23 91.23 0 00-.753 1.958c-.257.69-.528 1.441-.814 2.255h1.441zm3.487-2.915h-2.508c.235-.653.46-1.258.676-1.815.217-.557.41-1.03.578-1.419.161.374.352.843.572 1.408.22.565.447 1.173.682 1.826zM91.821 9V7.801h-3.432V1.377h-1.386V9h4.818zm5.874 0V7.801h-3.432V1.377h-1.386V9h4.818zm4.015.165a4.02 4.02 0 001.43-.253c.447-.169.838-.42 1.171-.754a3.56 3.56 0 00.792-1.248c.195-.499.292-1.074.292-1.727s-.099-1.226-.297-1.721a3.707 3.707 0 00-.798-1.249 3.232 3.232 0 00-1.171-.759 3.988 3.988 0 00-1.419-.253c-.499 0-.972.084-1.419.253a3.338 3.338 0 00-1.183.759 3.62 3.62 0 00-.808 1.248c-.198.496-.297 1.07-.297 1.722 0 .653.099 1.228.297 1.727.198.499.464.915.797 1.248.334.334.726.585 1.177.754.451.169.93.253 1.436.253zm-.011-1.221c-.352 0-.667-.066-.946-.198a2.02 2.02 0 01-.71-.556 2.496 2.496 0 01-.445-.869 3.94 3.94 0 01-.154-1.138c0-.418.051-.796.154-1.133.103-.337.251-.627.445-.869.195-.242.431-.429.71-.561.279-.132.594-.198.946-.198.345 0 .656.066.935.198s.515.317.71.556c.194.238.342.527.445.869.103.34.154.72.154 1.138 0 .418-.051.798-.154 1.139-.103.34-.251.63-.446.869a2.02 2.02 0 01-.709.555c-.279.132-.59.198-.935.198z"/><g transform="translate(108)"><use xlink:href="#a"/><use xlink:href="#b"/></g></g></svg>