<svg width="117" height="103" xmlns="http://www.w3.org/2000/svg" xmlns:xlink="http://www.w3.org/1999/xlink"><defs><linearGradient x1="50.034%" y1="114.901%" x2="50.034%" y2="-16.677%" id="e"><stop stop-color="#363D43" offset="0%"/><stop stop-color="#82888D" offset="52.238%"/><stop stop-color="#363D43" offset="100%"/></linearGradient><linearGradient x1=".453%" y1="50.403%" x2="99.615%" y2="50.403%" id="i"><stop stop-color="#AFACB1" offset="0%"/><stop stop-color="#BAB9BC" offset="28.499%"/><stop stop-color="#D9D8DA" offset="42.07%"/><stop stop-color="#F3F4F4" offset="58.437%"/><stop stop-color="#958F95" offset="100%"/></linearGradient><linearGradient x1="50.034%" y1="110.504%" x2="50.034%" y2="-7.852%" id="c"><stop stop-color="#383F48" offset="0%"/><stop stop-color="#9FA4A8" offset="46.806%"/><stop stop-color="#3D434B" offset="100%"/></linearGradient><linearGradient x1="50.034%" y1="99.984%" x2="50.034%" y2="-.004%" id="j"><stop stop-color="#8B878D" offset="0%"/><stop stop-color="#9F9CA1" offset="13.66%"/><stop stop-color="#D9D8DA" offset="42.07%"/><stop stop-color="#F3F4F4" offset="51.52%"/><stop stop-color="#807B80" offset="100%"/></linearGradient><linearGradient x1="50.034%" y1="99.984%" x2="50.034%" y2="-.004%" id="l"><stop stop-color="#8B878D" offset="0%"/><stop stop-color="#9F9CA1" offset="13.66%"/><stop stop-color="#D9D8DA" offset="42.07%"/><stop stop-color="#F3F4F4" offset="51.52%"/><stop stop-color="#807B80" offset="100%"/></linearGradient><linearGradient x1="50.034%" y1="99.984%" x2="50.034%" y2="-.004%" id="n"><stop stop-color="#8B878D" offset="0%"/><stop stop-color="#9F9CA1" offset="13.66%"/><stop stop-color="#D9D8DA" offset="42.07%"/><stop stop-color="#F3F4F4" offset="51.52%"/><stop stop-color="#807B80" offset="100%"/></linearGradient><linearGradient x1="50.034%" y1="99.984%" x2="50.034%" y2="-.004%" id="p"><stop stop-color="#8B878D" offset="0%"/><stop stop-color="#9F9CA1" offset="13.66%"/><stop stop-color="#D9D8DA" offset="42.07%"/><stop stop-color="#F3F4F4" offset="51.52%"/><stop stop-color="#807B80" offset="100%"/></linearGradient><path id="a" d="M0 0h117v103H0z"/><path d="M682.185 77.7h102.9v94.5h-102.9V77.7zm4.2 4.2V168h94.5V81.9h-94.5z" id="h"/><path id="k" d="M0 2.1l12.36-.308v25.2L0 27.3z"/><path id="d" d="M.415 0H102.9v94.5H0z"/><path id="o" d="M0 0h12.6v42H0z"/><filter x="-10.2%" y="-9%" width="118.5%" height="120.1%" filterUnits="objectBoundingBox" id="g"><feOffset dx="-1" dy="1" in="SourceAlpha" result="shadowOffsetOuter1"/><feGaussianBlur stdDeviation="3" in="shadowOffsetOuter1" result="shadowBlurOuter1"/><feColorMatrix values="0 0 0 0 0 0 0 0 0 0 0 0 0 0 0 0 0 0 0.230550699 0" in="shadowBlurOuter1"/></filter></defs><g fill="none" fill-rule="evenodd" opacity=".1"><mask id="b" fill="#fff"><use xlink:href="#a"/></mask><g mask="url(#b)"><path fill="url(#c)" fill-rule="nonzero" d="M682.185 77.7h102.9v94.5h-102.9z" transform="translate(-675.1 -75)"/><g transform="translate(7.085 2.7)"><mask id="f" fill="#fff"><use xlink:href="#d"/></mask><use fill="url(#e)" fill-rule="nonzero" xlink:href="#d"/><g opacity=".603"><g opacity=".148" mask="url(#f)" stroke="#FFF" stroke-linecap="square" stroke-width=".5"><path d="M-658.56 222.847L441.184-862.266M-658.56 230.444L441.184-854.67M-658.56 238.042L441.184-847.072M-658.56 245.639L441.184-839.475M-658.56 253.236L441.184-831.878M-658.56 260.833L441.184-824.281M-658.56 268.43L441.184-816.683M-658.56 276.027L441.184-809.086M-658.56 283.624L441.184-801.49M-658.56 291.22L441.184-793.891M-658.56 298.818L441.184-786.295M-658.56 306.415L441.184-778.698M-658.56 314.012L441.184-771.101M-658.56 321.609L441.184-763.504M-658.56 329.206L441.184-755.907M-658.56 336.803L441.184-748.31M-658.56 344.4L441.184-740.713M-658.56 351.997L441.184-733.116M-658.56 359.594L441.184-725.52M-658.56 367.192L441.184-717.922M-658.56 374.789L441.184-710.325M-658.56 382.386L441.184-702.728M-658.56 389.983L441.184-695.131M-658.56 397.58L441.184-687.533M-658.56 405.177L441.184-679.936M-658.56 412.774L441.184-672.34M-658.56 420.37L441.184-664.741M-658.56 427.968L441.184-657.145M-658.56 435.565L441.184-649.548M-658.56 443.162L441.184-641.951M-658.56 450.759L441.184-634.354M-658.56 458.356L441.184-626.757M-658.56 465.953L441.184-619.16M-658.56 473.55L441.184-611.563M-658.56 481.147L441.184-603.966M-658.56 488.744L441.184-596.37M-658.56 496.342L441.184-588.772M-658.56 503.939L441.184-581.175M-658.56 511.536L441.184-573.578M-658.56 519.133L441.184-565.981M-658.56 526.73L441.184-558.383M-658.56 534.327L441.184-550.786M-658.56 541.924L441.184-543.19M-658.56 549.52L441.184-535.591M-658.56 557.118L441.184-527.995M-658.56 564.715L441.184-520.398M-658.56 572.312L441.184-512.801M-658.56 579.909L441.184-505.204M-658.56 587.506L441.184-497.607M-658.56 595.103L441.184-490.01M-658.56 602.7L441.184-482.413M-658.56 610.297L441.184-474.816M-658.56 617.894L441.184-467.22M-658.56 625.492L441.184-459.622M-658.56 633.089L441.184-452.025M-658.56 640.686L441.184-444.428M-658.56 648.283L441.184-436.831M-658.56 655.88L441.184-429.233M-658.56 663.477L441.184-421.636M-658.56 671.074L441.184-414.04M-658.56 678.67L441.184-406.441M-658.56 686.268L441.184-398.845M-658.56 693.865L441.184-391.248M-658.56 701.462L441.184-383.651M-658.56 709.059L441.184-376.054M-658.56 716.656L441.184-368.457M-658.56 724.253L441.184-360.86M-658.56 731.85L441.184-353.263M-658.56 739.447L441.184-345.666M-658.56 747.044L441.184-338.07M-658.56 754.642L441.184-330.472M-658.56 762.239L441.184-322.875M-658.56 769.836L441.184-315.278M-658.56 777.433L441.184-307.681M-658.56 785.03L441.184-300.083M-658.56 792.627L441.184-292.486M-658.56 800.224L441.184-284.89M-658.56 807.82L441.184-277.291M-658.56 815.418L441.184-269.695M-658.56 823.015L441.184-262.098M-658.56 830.612L441.184-254.501M-658.56 838.209L441.184-246.904M-658.56 845.806L441.184-239.307M-658.56 853.403L441.184-231.71M-658.56 861L441.184-224.113M-658.56 868.597L441.184-216.516M-658.56 876.194L441.184-208.92M-658.56 883.792L441.184-201.322M-658.56 891.389L441.184-193.725M-658.56 898.986L441.184-186.128M-658.56 906.583L441.184-178.531M-658.56 914.18L441.184-170.933M-658.56 921.777L441.184-163.336M-658.56 929.374L441.184-155.74M-658.56 936.97L441.184-148.141M-658.56 944.568L441.184-140.545M-658.56 952.165L441.184-132.948M-658.56 959.762L441.184-125.351M-658.56 967.359L441.184-117.754M-658.56 974.956L441.184-110.157M-658.56 982.553L441.184-102.56M-658.56 990.15L441.184-94.963M-658.56 997.747L441.184-87.366M-658.56 1005.344L441.184-79.77M-658.56 1012.942L441.184-72.172M-658.56 1020.539L441.184-64.575M-658.56 1028.136L441.184-56.978M-658.56 1035.733L441.184-49.381M-658.56 1043.33L441.184-41.783M-658.56 1050.927L441.184-34.186M-658.56 1058.524L441.184-26.59M-658.56 1066.12L441.184-18.991M-658.56 1073.718L441.184-11.395M-658.56 1081.315L441.184-3.798M-658.56 1088.912L441.184 3.799M-658.56 1096.509L441.184 11.396M-658.56 1104.106L441.184 18.993M-658.56 1111.703L441.184 26.59M-658.56 1119.3L441.184 34.187M-658.56 1126.897L441.184 41.784M-658.56 1134.494L441.184 49.38M-658.56 1142.092L441.184 56.978M-658.56 1149.689L441.184 64.575M-658.56 1157.286L441.184 72.172M-658.56 1164.883L441.184 79.769M-658.56 1172.48L441.184 87.367M-658.56 1180.077L441.184 94.964"/></g></g></g><g fill-rule="nonzero" transform="translate(-675.1 -75)"><use fill="#000" filter="url(#g)" xlink:href="#h"/><use fill="url(#i)" xlink:href="#h"/></g><path d="M1151.535 94.499V93.8a3.5 3.5 0 013.5-3.5h7.7a3.5 3.5 0 013.5 3.5v.699l10.5.001v16.8l-10.5-.001V112a3.5 3.5 0 01-3.5 3.5h-7.7a3.5 3.5 0 01-3.5-3.5v-.701h-191.1V112a3.5 3.5 0 01-3.5 3.5h-7.7a3.5 3.5 0 01-3.5-3.5v-.701l-264.6.001V94.5l264.6-.001V93.8a3.5 3.5 0 013.5-3.5h7.7a3.5 3.5 0 013.5 3.5v.699h191.1z" stroke="#636262" stroke-width=".5" fill="url(#j)" fill-rule="nonzero" transform="translate(-675.1 -75)"/><path fill="#0F436B" d="M14.435 17.4h10.5v6.3h-10.5zM14.435 32.1h10.5v6.3h-10.5zM54.335 17.4h10.5v6.3h-10.5zM54.335 32.1h10.5v6.3h-10.5z"/><g transform="translate(33.335 13.2)"><mask id="m" fill="#fff"><use xlink:href="#k"/></mask><use fill="url(#l)" fill-rule="nonzero" xlink:href="#k"/><path fill="#7F7F7F" fill-rule="nonzero" mask="url(#m)" d="M-6.423-6.3L-7-5.558l24.517 31.522.577-.742zM-6.423-2.1L-7-1.358l24.517 31.522.577-.742zM-6.423 2.1L-7 2.842l24.517 31.522.577-.742zM-6.423 6.3L-7 7.042l24.517 31.522.577-.742zM-6.423 10.5l-.577.742 24.517 31.522.577-.742zM-6.423 14.7l-.577.742 24.517 31.522.577-.742zM-6.423 18.9l-.577.742 24.517 31.522.577-.742zM-6.423 23.1l-.577.742 24.517 31.522.577-.742zM-6.423-10.5L-7-9.758l24.517 31.522.577-.742zM-6.423-14.7l-.577.742 24.517 31.522.577-.742zM-6.423-18.9l-.577.742 24.517 31.522.577-.742zM-6.423-23.1l-.577.742L17.517 9.164l.577-.742z"/></g><path stroke="#636262" stroke-width=".5" d="M33.335 15.3h12.6v25.2h-12.6z"/><path d="M584.85 90.3l6.3 8.4 7.35-.001V94.5h14.7l-.001 4.199h107.1l.001-4.199H735l-.001 4.199 4.401.001a4 4 0 014 4v8.8a4 4 0 01-4 4l-4.401-.001.001 4.201h-14.7l-.001-4.201h-107.1l.001 4.201h-14.7v-4.201l-7.35.001-6.3 8.4h-46.2l-6.3-8.4H505.9a4 4 0 01-4-4v-8.8a4 4 0 014-4h26.45l6.3-8.4h46.2z" stroke="#636262" stroke-width=".5" fill="url(#n)" fill-rule="nonzero" transform="translate(-642.865 -45.6)"/><path d="M92.135 48.9v8.4h-4.2v-8.4h4.2zm-10.5 0v8.4h-4.2v-8.4h4.2zM92.135 65.7v8.4h-4.2v-8.4h4.2zm-10.5 0v8.4h-4.2v-8.4h4.2zM14.435 51h10.5v6.3h-10.5zM14.435 65.7h10.5V72h-10.5zM54.335 51h10.5v6.3h-10.5zM54.335 65.7h10.5V72h-10.5z" fill="#004C97"/><g transform="translate(33.335 40.5)"><mask id="q" fill="#fff"><use xlink:href="#o"/></mask><use fill="url(#p)" fill-rule="nonzero" xlink:href="#o"/><path fill="#7F7F7F" fill-rule="nonzero" mask="url(#q)" transform="matrix(-1 0 0 1 11.487 0)" d="M-7.081-2.1l-.619.742 26.268 31.522.619-.742zM-7.081 2.1l-.619.742 26.268 31.522.619-.742zM-7.081 6.3l-.619.742 26.268 31.522.619-.742zM-7.081 10.5l-.619.742 26.268 31.522.619-.742zM-7.081 14.7l-.619.742 26.268 31.522.619-.742zM-7.081 18.9l-.619.742 26.268 31.522.619-.742zM-7.081 23.1l-.619.742 26.268 31.522.619-.742zM-7.081 27.3l-.619.742 26.268 31.522.619-.742zM-7.081-6.3l-.619.742 26.268 31.522.619-.742zM-7.081-10.5l-.619.742 26.268 31.522.619-.742zM-7.081-14.7l-.619.742 26.268 31.522.619-.742zM-7.081-18.9l-.619.742 26.268 31.522.619-.742z"/></g><path stroke="#636262" stroke-width=".5" d="M33.335 40.5h12.6v42h-12.6z"/></g></g></svg>