<svg width="117" height="103" xmlns="http://www.w3.org/2000/svg" xmlns:xlink="http://www.w3.org/1999/xlink"><defs><linearGradient x1="50.034%" y1="99.984%" x2="50.034%" y2="-.004%" id="c"><stop stop-color="#8B878D" offset="0%"/><stop stop-color="#9F9CA1" offset="13.66%"/><stop stop-color="#D9D8DA" offset="42.07%"/><stop stop-color="#F3F4F4" offset="51.52%"/><stop stop-color="#807B80" offset="100%"/></linearGradient><linearGradient x1="50.034%" y1="99.984%" x2="50.034%" y2="-.004%" id="e"><stop stop-color="#8B878D" offset="0%"/><stop stop-color="#9F9CA1" offset="13.66%"/><stop stop-color="#D9D8DA" offset="42.07%"/><stop stop-color="#F3F4F4" offset="51.52%"/><stop stop-color="#807B80" offset="100%"/></linearGradient><linearGradient x1="50.034%" y1="99.984%" x2="50.034%" y2="-.004%" id="g"><stop stop-color="#8B878D" offset="0%"/><stop stop-color="#9F9CA1" offset="13.66%"/><stop stop-color="#D9D8DA" offset="42.07%"/><stop stop-color="#F3F4F4" offset="51.52%"/><stop stop-color="#807B80" offset="100%"/></linearGradient><linearGradient x1="50.034%" y1="99.984%" x2="50.034%" y2="-.004%" id="i"><stop stop-color="#8B878D" offset="0%"/><stop stop-color="#9F9CA1" offset="13.66%"/><stop stop-color="#D9D8DA" offset="42.07%"/><stop stop-color="#F3F4F4" offset="51.52%"/><stop stop-color="#807B80" offset="100%"/></linearGradient><path id="a" d="M0 0h117v273H0z"/><path id="d" d="M0 2.1l12.36-.308v25.2L0 27.3z"/><path id="h" d="M0 0h12.6v42H0z"/></defs><g transform="translate(0 -75)" fill="none" fill-rule="evenodd"><mask id="b" fill="#fff"><use xlink:href="#a"/></mask><g mask="url(#b)"><path d="M1119.535 65.499V64.8a3.5 3.5 0 013.5-3.5h7.7a3.5 3.5 0 013.5 3.5v.699l10.5.001v16.8l-10.5-.001V83a3.5 3.5 0 01-3.5 3.5h-7.7a3.5 3.5 0 01-3.5-3.5v-.701h-191.1V83a3.5 3.5 0 01-3.5 3.5h-7.7a3.5 3.5 0 01-3.5-3.5v-.701l-264.6.001V65.5l264.6-.001V64.8a3.5 3.5 0 013.5-3.5h7.7a3.5 3.5 0 013.5 3.5v.699h191.1z" stroke="#636262" stroke-width=".5" fill="url(#c)" fill-rule="nonzero" transform="translate(-643.1 29)"/><path fill="#004C97" d="M14.435 92.4h10.5v6.3h-10.5zM14.435 107.1h10.5v6.3h-10.5zM54.335 92.4h10.5v6.3h-10.5zM54.335 107.1h10.5v6.3h-10.5z"/><g transform="translate(33.335 88.2)"><mask id="f" fill="#fff"><use xlink:href="#d"/></mask><use fill="url(#e)" fill-rule="nonzero" xlink:href="#d"/><path fill="#7F7F7F" fill-rule="nonzero" mask="url(#f)" d="M-6.423-6.3L-7-5.558l24.517 31.522.577-.742zM-6.423-2.1L-7-1.358l24.517 31.522.577-.742zM-6.423 2.1L-7 2.842l24.517 31.522.577-.742zM-6.423 6.3L-7 7.042l24.517 31.522.577-.742zM-6.423 10.5l-.577.742 24.517 31.522.577-.742zM-6.423 14.7l-.577.742 24.517 31.522.577-.742zM-6.423 18.9l-.577.742 24.517 31.522.577-.742zM-6.423 23.1l-.577.742 24.517 31.522.577-.742zM-6.423-10.5L-7-9.758l24.517 31.522.577-.742zM-6.423-14.7l-.577.742 24.517 31.522.577-.742zM-6.423-18.9l-.577.742 24.517 31.522.577-.742zM-6.423-23.1l-.577.742L17.517 9.164l.577-.742z"/></g><path stroke="#636262" stroke-width=".5" d="M33.335 90.3h12.6v25.2h-12.6z"/><path d="M584.85 90.3l6.3 8.4 7.35-.001V94.5h14.7l-.001 4.199h107.1l.001-4.199H735l-.001 4.199 4.401.001a4 4 0 014 4v8.8a4 4 0 01-4 4l-4.401-.001.001 4.201h-14.7l-.001-4.201h-107.1l.001 4.201h-14.7v-4.201l-7.35.001-6.3 8.4h-46.2l-6.3-8.4H505.9a4 4 0 01-4-4v-8.8a4 4 0 014-4h26.45l6.3-8.4h46.2z" stroke="#636262" stroke-width=".5" fill="url(#g)" fill-rule="nonzero" transform="translate(-642.865 29.4)"/><path d="M92.135 123.9v8.4h-4.2v-8.4h4.2zm-10.5 0v8.4h-4.2v-8.4h4.2zM92.135 140.7v8.4h-4.2v-8.4h4.2zm-10.5 0v8.4h-4.2v-8.4h4.2zM14.435 126h10.5v6.3h-10.5zM14.435 140.7h10.5v6.3h-10.5zM54.335 126h10.5v6.3h-10.5zM54.335 140.7h10.5v6.3h-10.5z" fill="#004C97"/><g transform="translate(33.335 115.5)"><mask id="j" fill="#fff"><use xlink:href="#h"/></mask><use fill="url(#i)" fill-rule="nonzero" xlink:href="#h"/><path fill="#7F7F7F" fill-rule="nonzero" mask="url(#j)" transform="matrix(-1 0 0 1 11.487 0)" d="M-7.081-2.1l-.619.742 26.268 31.522.619-.742zM-7.081 2.1l-.619.742 26.268 31.522.619-.742zM-7.081 6.3l-.619.742 26.268 31.522.619-.742zM-7.081 10.5l-.619.742 26.268 31.522.619-.742zM-7.081 14.7l-.619.742 26.268 31.522.619-.742zM-7.081 18.9l-.619.742 26.268 31.522.619-.742zM-7.081 23.1l-.619.742 26.268 31.522.619-.742zM-7.081 27.3l-.619.742 26.268 31.522.619-.742zM-7.081-6.3l-.619.742 26.268 31.522.619-.742zM-7.081-10.5l-.619.742 26.268 31.522.619-.742zM-7.081-14.7l-.619.742 26.268 31.522.619-.742zM-7.081-18.9l-.619.742 26.268 31.522.619-.742z"/></g><path stroke="#636262" stroke-width=".5" d="M33.335 115.5h12.6v42h-12.6z"/></g></g></svg>