<svg width="31" height="31" xmlns="http://www.w3.org/2000/svg"><defs><linearGradient x1="50.034%" y1="99.984%" x2="50.034%" y2="-.004%" id="a"><stop stop-color="#8B878D" offset="0%"/><stop stop-color="#9F9CA1" offset="13.66%"/><stop stop-color="#D9D8DA" offset="42.07%"/><stop stop-color="#F3F4F4" offset="51.52%"/><stop stop-color="#807B80" offset="100%"/></linearGradient><linearGradient x1=".04%" y1="49.99%" x2="100.028%" y2="49.99%" id="b"><stop stop-color="#8B878D" offset="0%"/><stop stop-color="#9F9CA1" offset="13.66%"/><stop stop-color="#D9D8DA" offset="42.07%"/><stop stop-color="#F3F4F4" offset="51.52%"/><stop stop-color="#807B80" offset="100%"/></linearGradient></defs><g fill="none" fill-rule="evenodd"><g transform="matrix(-1 0 0 1 24 6)"><circle stroke="#636262" stroke-width=".5" fill="url(#a)" fill-rule="nonzero" cx="8.5" cy="15.5" r="8.5"/><path d="M9.713 20.825c-.259 0-.498-.052-.72-.156a7.32 7.32 0 01-.643-.344c-.208-.125-.408-.24-.6-.344a1.217 1.217 0 00-.588-.156c-.2 0-.362.077-.487.231-.125.154-.233.39-.325.706l-1.037-.287c.041-.2.102-.415.18-.644.08-.229.192-.441.338-.637.146-.196.327-.36.544-.494.217-.133.48-.2.787-.2.259 0 .498.052.72.156.22.104.435.221.643.35.208.13.408.246.6.35.192.104.387.156.588.156.208 0 .374-.079.5-.237.125-.158.229-.396.312-.712l1.037.287c-.041.2-.102.415-.18.644-.08.229-.192.441-.338.637-.146.196-.327.36-.544.494-.217.133-.48.2-.787.2z" fill="#595959" fill-rule="nonzero"/><path stroke="#9FA9B5" fill="#FFF" d="M8.5 1v5h-1V1z"/><path d="M6.5 10.07c.147.253.31.563.49.93.18.367.363.752.55 1.155.187.403.372.813.555 1.23.183.417.352.802.505 1.155l.5-1.155A52.49 52.49 0 0110.2 11c.18-.367.343-.677.49-.93h1.14c.06.507.117 1.045.17 1.615.053.57.102 1.153.145 1.75A152.89 152.89 0 0112.36 17h-1.24c-.027-.807-.058-1.637-.095-2.49a51.313 51.313 0 00-.165-2.48 79.885 79.885 0 00-.58 1.245c-.113.25-.228.508-.345.775l-.34.775c-.11.25-.212.483-.305.7l-.24.555h-.94c-.067-.153-.147-.34-.24-.56-.093-.22-.195-.455-.305-.705l-.34-.775a46.194 46.194 0 00-.345-.77l-.32-.695c-.1-.217-.187-.398-.26-.545-.073.8-.128 1.627-.165 2.48-.037.853-.068 1.683-.095 2.49H4.8a134.816 134.816 0 01.36-5.36c.053-.567.11-1.09.17-1.57H6.5z" fill="#595959" fill-rule="nonzero"/></g><path d="M22.326.185c-3.679 0-6.75 1.74-8.107 2.652C12.862 1.925 9.79.185 6.112.185c-3.25 0-5.893 1.57-5.893 3.5s2.643 3.5 5.893 3.5c3.714 0 6.75-1.739 8.107-2.651 1.357.912 4.428 2.651 8.107 2.651 3.25 0 5.893-1.57 5.893-3.5s-2.643-3.5-5.893-3.5z" transform="translate(1.3 1)" fill="url(#b)" fill-rule="nonzero" stroke="#636262" stroke-width=".5"/></g></svg>