<svg xmlns="http://www.w3.org/2000/svg" width="30" height="29"><defs><linearGradient id="a" x1="0%" y1="0%" y2="0%"><stop offset="0%" stop-color="#0B6D2D"/><stop offset="49.556%" stop-color="#80EAA5"/><stop offset="100%" stop-color="#0B6D2D"/></linearGradient></defs><g fill="none" fill-rule="evenodd"><g transform="matrix(-1 0 0 1 24 6)"><circle cx="15.5" cy="8.5" r="8.5" fill="#42B86B"/><path fill="#FFF" fill-rule="nonzero" d="M16.712 13.825c-.258 0-.497-.052-.718-.156a7.32 7.32 0 01-.644-.344c-.208-.125-.408-.24-.6-.344a1.217 1.217 0 00-.588-.156c-.2 0-.362.077-.487.231-.125.154-.233.39-.325.707l-1.037-.288c.041-.2.102-.415.18-.644.08-.229.192-.441.338-.637a1.94 1.94 0 01.544-.494c.217-.133.48-.2.787-.2.259 0 .498.052.72.156.22.104.435.221.643.35.208.13.408.246.6.35.192.104.387.156.587.156a.604.604 0 00.5-.237c.126-.158.23-.396.313-.713l1.038.288c-.042.2-.103.415-.182.644a2.333 2.333 0 01-.337.637 1.94 1.94 0 01-.544.494c-.217.133-.48.2-.788.2z"/><path fill="#FFF" stroke="#9FA9B5" d="M.5 8.5h5v1h-5z"/><path fill="#FFF" fill-rule="nonzero" d="M13.5 3.07c.147.253.31.563.49.93a59.545 59.545 0 011.105 2.385c.183.417.352.802.505 1.155l.5-1.155A52.49 52.49 0 0117.2 4c.18-.367.343-.677.49-.93h1.14c.06.507.117 1.045.17 1.615.053.57.102 1.153.145 1.75A152.89 152.89 0 0119.36 10h-1.24c-.027-.807-.058-1.637-.095-2.49a51.313 51.313 0 00-.165-2.48 79.885 79.885 0 00-.58 1.245c-.113.25-.228.508-.345.775l-.34.775c-.11.25-.212.483-.305.7l-.24.555h-.94c-.067-.153-.147-.34-.24-.56-.093-.22-.195-.455-.305-.705l-.34-.775a46.194 46.194 0 00-.345-.77l-.32-.695c-.1-.217-.187-.398-.26-.545-.073.8-.128 1.627-.165 2.48-.037.853-.068 1.683-.095 2.49H11.8a134.815 134.815 0 01.36-5.36c.053-.567.11-1.09.17-1.57h1.17z"/></g><path fill="url(#a)" stroke="#636262" stroke-width=".5" d="M22.326.435c-2.942 0-5.694 1.081-7.968 2.61l-.14.093-.139-.094C11.806 1.516 9.054.435 6.112.435 2.982.435.469 1.928.469 3.685c0 1.758 2.513 3.25 5.643 3.25 2.967 0 5.67-1.065 7.967-2.609l.14-.093.14.093c2.273 1.529 5.025 2.61 7.967 2.61 3.13 0 5.643-1.493 5.643-3.25 0-1.758-2.513-3.25-5.643-3.25z" transform="rotate(90 14.5 15)"/></g></svg>