<svg xmlns="http://www.w3.org/2000/svg" width="30" height="29"><defs><linearGradient id="a" x1="1.431%" y1="0%" y2="0%"><stop offset="0%" stop-color="#A80E02"/><stop offset="49.556%" stop-color="#E1736A"/><stop offset="99.425%" stop-color="#A80E02"/></linearGradient></defs><g fill="none" fill-rule="evenodd"><g transform="translate(6 6)"><circle cx="15.5" cy="8.5" r="8.5" fill="#F04450"/><path fill="#FFF" stroke="#9FA9B5" d="M.5 8.5h5v1h-5z"/><path fill="#FFF" fill-rule="nonzero" d="M13.5 3.07c.147.253.31.563.49.93a59.545 59.545 0 011.105 2.385c.183.417.352.802.505 1.155l.5-1.155A52.49 52.49 0 0117.2 4c.18-.367.343-.677.49-.93h1.14c.06.507.117 1.045.17 1.615.053.57.102 1.153.145 1.75A152.89 152.89 0 0119.36 10h-1.24c-.027-.807-.058-1.637-.095-2.49a51.313 51.313 0 00-.165-2.48 79.885 79.885 0 00-.58 1.245c-.113.25-.228.508-.345.775l-.34.775c-.11.25-.212.483-.305.7l-.24.555h-.94c-.067-.153-.147-.34-.24-.56-.093-.22-.195-.455-.305-.705l-.34-.775a46.194 46.194 0 00-.345-.77l-.32-.695c-.1-.217-.187-.398-.26-.545-.073.8-.128 1.627-.165 2.48-.037.853-.068 1.683-.095 2.49H11.8a134.815 134.815 0 01.36-5.36c.053-.567.11-1.09.17-1.57h1.17z"/><path fill="#FFF" d="M11.5 11h8v1h-8zm0 2h8v1h-8z"/></g><path fill="url(#a)" stroke="#636262" stroke-width=".5" d="M22.326.435c-2.942 0-5.694 1.081-7.968 2.61l-.14.093-.139-.094C11.806 1.516 9.054.435 6.112.435 2.982.435.469 1.928.469 3.685c0 1.758 2.513 3.25 5.643 3.25 2.967 0 5.67-1.065 7.967-2.609l.14-.093.14.093c2.273 1.529 5.025 2.61 7.967 2.61 3.13 0 5.643-1.493 5.643-3.25 0-1.758-2.513-3.25-5.643-3.25z" transform="matrix(0 1 1 0 .5 .5)"/></g></svg>