<svg xmlns="http://www.w3.org/2000/svg" width="27" height="18"><g fill="none" fill-rule="evenodd"><g transform="matrix(-1 0 0 1 17 .5)"><circle cx="8.5" cy="8.5" r="8.5" fill="#D73530"/><path fill="#FFF" fill-rule="nonzero" d="M6.5 3.07c.147.253.31.563.49.93a59.545 59.545 0 011.105 2.385c.183.417.352.802.505 1.155l.5-1.155c.18-.417.363-.827.55-1.23.187-.403.37-.788.55-1.155.18-.367.343-.677.49-.93h1.14c.06.507.117 1.045.17 1.615.053.57.102 1.153.145 1.75s.083 1.197.12 1.8c.037.603.068 1.192.095 1.765h-1.24c-.027-.807-.058-1.637-.095-2.49a52.208 52.208 0 00-.165-2.48l-.26.55a53.152 53.152 0 00-.665 1.47l-.34.775c-.11.25-.212.483-.305.7l-.24.555h-.94c-.067-.153-.147-.34-.24-.56-.093-.22-.195-.455-.305-.705l-.34-.775a52.4 52.4 0 00-.345-.77l-.32-.695c-.1-.217-.187-.398-.26-.545-.073.8-.128 1.627-.165 2.48-.037.853-.068 1.683-.095 2.49H4.8a134.816 134.816 0 01.36-5.36c.053-.567.11-1.09.17-1.57H6.5z"/><path fill="#FFF" d="M4.5 11h8v1h-8zm0 2h8v1h-8z"/></g><path fill="#FFF" stroke="#9FA9B5" d="M21.5 8.5h5v1h-5z"/></g></svg>