<svg xmlns="http://www.w3.org/2000/svg" width="43" height="19"><defs><linearGradient id="a" x1="50.034%" x2="50.034%" y1="-.004%" y2="99.984%"><stop offset="0%" stop-color="#8B878D"/><stop offset="13.66%" stop-color="#9F9CA1"/><stop offset="42.07%" stop-color="#D9D8DA"/><stop offset="51.52%" stop-color="#F3F4F4"/><stop offset="100%" stop-color="#807B80"/></linearGradient><linearGradient id="b" x1="50.034%" x2="50.034%" y1="99.725%" y2="-.004%"><stop offset="0%" stop-color="#656266"/><stop offset="13.66%" stop-color="#9F9CA1"/><stop offset="42.07%" stop-color="#D9D8DA"/><stop offset="51.52%" stop-color="#F3F4F4"/><stop offset="100%" stop-color="#807B80"/></linearGradient><linearGradient id="c" x1="50.034%" x2="50.034%" y1="99.725%" y2="-.004%"><stop offset="0%" stop-color="#656266"/><stop offset="13.66%" stop-color="#9F9CA1"/><stop offset="42.07%" stop-color="#D9D8DA"/><stop offset="51.52%" stop-color="#F3F4F4"/><stop offset="100%" stop-color="#807B80"/></linearGradient></defs><g fill="none" fill-rule="evenodd"><g fill-rule="nonzero" transform="translate(25 1)"><circle cx="8.5" cy="8.5" r="8.5" fill="url(#a)" stroke="#636262" stroke-width=".5"/><path fill="#595959" d="M9.713 13.825c-.259 0-.498-.052-.72-.156a7.336 7.336 0 01-.643-.344c-.208-.125-.408-.24-.6-.344a1.218 1.218 0 00-.588-.156c-.2 0-.362.077-.487.231-.125.154-.233.39-.325.707l-1.037-.288c.041-.2.102-.415.18-.644.08-.229.192-.441.338-.637a1.94 1.94 0 01.544-.494c.217-.133.48-.2.787-.2.259 0 .498.052.72.156.22.104.435.221.643.35.208.13.408.246.6.35.192.104.387.156.588.156a.607.607 0 00.5-.237c.125-.158.229-.396.312-.713l1.037.288c-.041.2-.102.415-.18.644-.08.229-.192.441-.338.637a1.94 1.94 0 01-.544.494c-.217.133-.48.2-.787.2zM6.5 3.07c.147.253.31.563.49.93a59.545 59.545 0 011.105 2.385c.183.417.352.802.505 1.155l.5-1.155c.18-.417.363-.827.55-1.23.187-.403.37-.788.55-1.155.18-.367.343-.677.49-.93h1.14c.06.507.117 1.045.17 1.615.053.57.102 1.153.145 1.75s.083 1.197.12 1.8c.037.603.068 1.192.095 1.765h-1.24c-.027-.807-.058-1.637-.095-2.49a52.208 52.208 0 00-.165-2.48l-.26.55a53.152 53.152 0 00-.665 1.47l-.34.775c-.11.25-.212.483-.305.7l-.24.555h-.94c-.067-.153-.147-.34-.24-.56-.093-.22-.195-.455-.305-.705l-.34-.775a52.4 52.4 0 00-.345-.77l-.32-.695c-.1-.217-.187-.398-.26-.545-.073.8-.128 1.627-.165 2.48-.037.853-.068 1.683-.095 2.49H4.8a134.816 134.816 0 01.36-5.36c.053-.567.11-1.09.17-1.57H6.5z"/></g><path fill="#FFF" stroke="#9FA9B5" d="M18.5 9.5h5v1h-5z"/><g fill-rule="nonzero" stroke="#2C405A" stroke-width=".5"><path fill="url(#b)" d="M.25.25h7.5v12.5H.25zm10 0h7.5v12.5h-7.5z" transform="translate(0 3)"/><path fill="url(#c)" d="M7.25.25h3.5v12.5h-3.5z" transform="translate(0 3)"/></g></g></svg>