<svg xmlns="http://www.w3.org/2000/svg" width="32" height="17"><defs><linearGradient id="a" x1="50.034%" x2="50.034%" y1="99.725%" y2="-.004%"><stop offset="0%" stop-color="#656266"/><stop offset="13.66%" stop-color="#9F9CA1"/><stop offset="42.07%" stop-color="#D9D8DA"/><stop offset="51.52%" stop-color="#F3F4F4"/><stop offset="100%" stop-color="#807B80"/></linearGradient></defs><g fill="none" fill-rule="evenodd" transform="matrix(-1 0 0 1 32 0)"><circle cx="4" cy="5" r="3.75" fill="url(#a)" fill-rule="nonzero" stroke="#2C405A" stroke-width=".5"/><circle cx="23.5" cy="8.5" r="8.5" fill="#42B86B"/><circle cx="4" cy="12" r="3.75" fill="url(#a)" fill-rule="nonzero" stroke="#2C405A" stroke-width=".5"/><path fill="#FFF" stroke="#9FA9B5" d="M8.5 8.5h5v1h-5z"/><path fill="#FFF" fill-rule="nonzero" d="M21.5 3.07c.147.253.31.563.49.93a59.545 59.545 0 011.105 2.385c.183.417.352.802.505 1.155l.5-1.155A52.49 52.49 0 0125.2 4c.18-.367.343-.677.49-.93h1.14c.06.507.117 1.045.17 1.615.053.57.102 1.153.145 1.75A152.89 152.89 0 0127.36 10h-1.24c-.027-.807-.058-1.637-.095-2.49a51.313 51.313 0 00-.165-2.48 79.885 79.885 0 00-.58 1.245c-.113.25-.228.508-.345.775l-.34.775c-.11.25-.212.483-.305.7l-.24.555h-.94c-.067-.153-.147-.34-.24-.56-.093-.22-.195-.455-.305-.705l-.34-.775a46.194 46.194 0 00-.345-.77l-.32-.695c-.1-.217-.187-.398-.26-.545-.073.8-.128 1.627-.165 2.48-.037.853-.068 1.683-.095 2.49H19.8a134.815 134.815 0 01.36-5.36c.053-.567.11-1.09.17-1.57h1.17z"/><path fill="#FFF" d="M19.5 11h8v1h-8zm0 2h8v1h-8z"/></g></svg>