<svg xmlns="http://www.w3.org/2000/svg" width="56" height="17"><defs><linearGradient id="a" x1="50.034%" x2="50.034%" y1="99.984%" y2="-.004%"><stop offset="0%" stop-color="#8B878D"/><stop offset="13.66%" stop-color="#9F9CA1"/><stop offset="42.07%" stop-color="#D9D8DA"/><stop offset="51.52%" stop-color="#F3F4F4"/><stop offset="100%" stop-color="#807B80"/></linearGradient></defs><g fill="none" fill-rule="evenodd"><g fill-rule="nonzero" stroke-width=".5" transform="translate(25 1)"><rect width="30" height="15" fill="url(#a)" stroke="#636262" rx="4"/><circle cx="7.5" cy="7.5" r="4.5" fill="#E2E2E2" stroke="#7F7F7F"/><circle cx="22.5" cy="7.5" r="4.5" fill="#E2E2E2" stroke="#7F7F7F"/></g><g transform="matrix(-1 0 0 1 24 0)"><circle cx="15.5" cy="8.5" r="8.5" fill="#D73530"/><path fill="#FFF" fill-rule="nonzero" d="M16.65 13.325c-.258 0-.498-.052-.719-.156a7.336 7.336 0 01-.643-.344c-.209-.125-.409-.24-.6-.344a1.221 1.221 0 00-.588-.156c-.2 0-.362.077-.487.231-.126.154-.234.39-.325.707l-1.038-.288c.042-.2.102-.415.181-.644.08-.229.192-.441.338-.637a1.95 1.95 0 01.543-.494c.217-.133.48-.2.788-.2.258 0 .498.052.719.156.22.104.435.221.643.35.209.13.409.246.6.35.192.104.388.156.588.156a.606.606 0 00.5-.237c.125-.158.23-.396.313-.713l1.037.288c-.042.2-.102.415-.181.644-.08.229-.192.441-.338.637a1.94 1.94 0 01-.544.494c-.216.133-.479.2-.787.2z"/><path fill="#FFF" stroke="#9FA9B5" d="M.5 8.5h5v1h-5z"/><path fill="#FFF" fill-rule="nonzero" d="M13.5 3.07c.147.253.31.563.49.93a59.545 59.545 0 011.105 2.385c.183.417.352.802.505 1.155l.5-1.155c.18-.417.363-.827.55-1.23.187-.403.37-.788.55-1.155.18-.367.343-.677.49-.93h1.14c.06.507.117 1.045.17 1.615.053.57.102 1.153.145 1.75s.083 1.197.12 1.8c.037.603.068 1.192.095 1.765h-1.24c-.027-.807-.058-1.637-.095-2.49a52.208 52.208 0 00-.165-2.48l-.26.55a53.152 53.152 0 00-.665 1.47l-.34.775c-.11.25-.212.483-.305.7l-.24.555h-.94c-.067-.153-.147-.34-.24-.56-.093-.22-.195-.455-.305-.705l-.34-.775a52.4 52.4 0 00-.345-.77l-.32-.695c-.1-.217-.187-.398-.26-.545-.073.8-.128 1.627-.165 2.48-.037.853-.068 1.683-.095 2.49H11.8a134.816 134.816 0 01.36-5.36c.053-.567.11-1.09.17-1.57h1.17z"/><path fill="#FFF" d="M12.3 14h6v1h-6z"/></g></g></svg>