<svg xmlns="http://www.w3.org/2000/svg" width="37" height="21"><defs><linearGradient id="a" x1=".04%" x2="100.028%" y1="49.99%" y2="49.99%"><stop offset="0%" stop-color="#8B878D"/><stop offset="51.52%" stop-color="#F3F4F4"/><stop offset="100%" stop-color="#807B80"/></linearGradient><linearGradient id="b" x1="50.034%" x2="50.034%" y1="99.984%" y2="-.004%"><stop offset="0%" stop-color="#8B878D"/><stop offset="13.66%" stop-color="#9F9CA1"/><stop offset="42.07%" stop-color="#D9D8DA"/><stop offset="51.52%" stop-color="#F3F4F4"/><stop offset="100%" stop-color="#807B80"/></linearGradient><linearGradient id="c" x1="0%" y1="0%" y2="0%"><stop offset="0%" stop-color="#0B6D2D"/><stop offset="49.556%" stop-color="#80EAA5"/><stop offset="100%" stop-color="#0B6D2D"/></linearGradient></defs><g fill="none" fill-rule="evenodd"><path fill="url(#a)" fill-rule="nonzero" stroke="#636262" stroke-width=".5" d="M.25.25h36.5v13.5H.25z"/><path fill="url(#b)" fill-rule="nonzero" d="M9.985 4.262h1V.41h-1z" transform="translate(8 14)"/><path fill="url(#c)" stroke="#636262" stroke-width=".5" d="M16.097 2.077c-2.067 0-4.004.76-5.603 1.836l-.14.093-.14-.093C8.616 2.838 6.68 2.077 4.613 2.077 2.43 2.077.687 3.112.687 4.307c0 1.194 1.743 2.228 3.925 2.228 2.084 0 3.987-.75 5.603-1.835l.14-.094.139.094c1.6 1.075 3.536 1.835 5.603 1.835 2.182 0 3.924-1.034 3.924-2.229 0-1.194-1.742-2.229-3.924-2.229z" transform="translate(8 14)"/></g></svg>