<svg xmlns="http://www.w3.org/2000/svg" width="37" height="22"><defs><linearGradient id="a" x1=".04%" x2="100.028%" y1="49.99%" y2="49.99%"><stop offset="0%" stop-color="#8B878D"/><stop offset="51.52%" stop-color="#F3F4F4"/><stop offset="100%" stop-color="#807B80"/></linearGradient><linearGradient id="b" x1="50.034%" x2="50.034%" y1="99.984%" y2="-.004%"><stop offset="0%" stop-color="#8B878D"/><stop offset="13.66%" stop-color="#9F9CA1"/><stop offset="42.07%" stop-color="#D9D8DA"/><stop offset="51.52%" stop-color="#F3F4F4"/><stop offset="100%" stop-color="#807B80"/></linearGradient><linearGradient id="c" x1=".04%" x2="100.028%" y1="49.99%" y2="49.99%"><stop offset="0%" stop-color="#8B878D"/><stop offset="13.66%" stop-color="#9F9CA1"/><stop offset="42.07%" stop-color="#D9D8DA"/><stop offset="51.52%" stop-color="#F3F4F4"/><stop offset="100%" stop-color="#807B80"/></linearGradient></defs><g fill="none"><path fill="url(#a)" stroke="#636262" stroke-width=".5" d="M.25.25h36.5v13.5H.25z"/><path fill="url(#b)" d="M9.985 4.262h1V.41h-1z" transform="translate(8 14)"/><path fill="url(#c)" stroke="#636262" stroke-width=".5" d="M16.097 1.827c-2.606 0-4.782 1.232-5.743 1.878-.961-.646-3.137-1.878-5.742-1.878-2.302 0-4.175 1.112-4.175 2.48 0 1.366 1.873 2.478 4.175 2.478 2.63 0 4.78-1.232 5.742-1.878.961.646 3.137 1.878 5.743 1.878 2.302 0 4.174-1.112 4.174-2.479s-1.872-2.479-4.174-2.479z" transform="translate(8 14)"/></g></svg>