<svg xmlns="http://www.w3.org/2000/svg" xmlns:xlink="http://www.w3.org/1999/xlink" width="87" height="10"><defs><path id="a" d="M1.126 8.948a.583.583 0 01-.074-.821l2.61-3.133-2.516-3.128a.584.584 0 01.909-.732l2.816 3.5a.584.584 0 01-.006.74l-2.917 3.5a.583.583 0 01-.822.074z"/><path id="b" d="M5.21 8.948a.583.583 0 01-.075-.821l2.611-3.133-2.517-3.128a.584.584 0 01.91-.732l2.816 3.5a.584.584 0 01-.007.74l-2.916 3.5a.583.583 0 01-.822.074z"/></defs><g fill="#314863"><path d="M2.347 9V6.316h.693a6.94 6.94 0 001.485-.143 3.19 3.19 0 001.1-.446c.3-.201.53-.462.688-.78.157-.32.236-.703.236-1.15 0-.858-.295-1.489-.885-1.892-.59-.403-1.44-.605-2.547-.605-.33 0-.691.013-1.083.038a6.96 6.96 0 00-1.073.149V9h1.386zm.671-3.872h-.671V2.532c.227-.022.517-.033.869-.033.264 0 .512.02.743.06.23.04.43.109.599.204.169.095.3.227.396.396.095.169.143.378.143.627 0 .52-.18.874-.539 1.062-.36.187-.873.28-1.54.28zM7.902 9c.103-.293.207-.588.314-.886.106-.296.21-.599.313-.907h3.212c.103.308.209.609.319.902.11.293.216.59.319.891h1.496a103.802 103.802 0 00-1.578-4.213 56.355 56.355 0 00-1.48-3.41H9.508a56.355 56.355 0 00-1.48 3.41 91.23 91.23 0 00-.753 1.958c-.257.69-.528 1.441-.814 2.255h1.441zm3.487-2.915H8.881c.235-.653.46-1.258.677-1.815.216-.557.408-1.03.577-1.419.161.374.352.843.572 1.408.22.565.447 1.173.682 1.826zM16.207 9V3.544c.308.367.633.78.974 1.238.34.458.676.93 1.006 1.418.33.488.649.972.957 1.452.308.48.587.93.836 1.348h1.177V1.377h-1.375v5.06a34.89 34.89 0 00-.852-1.282 53.236 53.236 0 00-2.007-2.684 16.946 16.946 0 00-.947-1.094h-1.133V9h1.364zm8.162 0V1.377h-1.386V9h1.386zm5.192.154a8.35 8.35 0 001.573-.132c.455-.088.777-.169.968-.242V5.117h-1.386v2.739c-.103.03-.242.053-.418.072a6.157 6.157 0 01-.627.027c-.389 0-.728-.068-1.017-.204a2.01 2.01 0 01-.726-.566 2.485 2.485 0 01-.44-.875 4.034 4.034 0 01-.149-1.127c0-.865.207-1.542.622-2.03.414-.487 1.013-.731 1.798-.731.36 0 .702.046 1.029.137.326.092.599.204.819.336l.418-1.133a8.015 8.015 0 00-.27-.143 2.87 2.87 0 00-.489-.187 6.351 6.351 0 00-.71-.16 5.548 5.548 0 00-.94-.071 3.99 3.99 0 00-1.452.264 3.37 3.37 0 00-1.188.775 3.667 3.667 0 00-.797 1.249c-.195.491-.292 1.056-.292 1.694 0 .638.088 1.203.264 1.694a3.5 3.5 0 00.743 1.243c.319.337.705.594 1.16.77.455.176.957.264 1.507.264zM38.526 9V7.801h-3.432V1.377h-1.386V9h4.818zm2.442 0V1.377h-1.386V9h1.386zm2.409 0c.103-.293.207-.588.314-.886.106-.296.21-.599.313-.907h3.212c.103.308.209.609.319.902.11.293.216.59.319.891h1.496a103.802 103.802 0 00-1.578-4.213 56.355 56.355 0 00-1.48-3.41h-1.309a56.355 56.355 0 00-1.48 3.41 91.23 91.23 0 00-.753 1.958c-.257.69-.528 1.441-.814 2.255h1.441zm3.487-2.915h-2.508c.235-.653.46-1.258.677-1.815.216-.557.408-1.03.577-1.419.161.374.352.843.572 1.408.22.565.447 1.173.682 1.826zm9.405 3.08c.293 0 .568-.016.825-.05a5.307 5.307 0 001.227-.302 1.91 1.91 0 00.357-.176l-.374-1.133a4.763 4.763 0 01-.715.28c-.308.1-.708.149-1.199.149-.41 0-.763-.068-1.056-.204a1.927 1.927 0 01-.726-.571 2.46 2.46 0 01-.423-.875 4.23 4.23 0 01-.138-1.111c0-.455.059-.854.176-1.199.117-.345.28-.63.49-.858a2 2 0 01.742-.511c.286-.114.594-.171.924-.171.381 0 .735.05 1.062.149.326.099.577.203.753.313l.407-1.133c-.051-.03-.14-.077-.264-.143a2.76 2.76 0 00-.473-.187 6.084 6.084 0 00-.671-.16 4.717 4.717 0 00-.858-.071c-.52 0-1.008.088-1.463.264a3.37 3.37 0 00-1.188.775 3.667 3.667 0 00-.797 1.249c-.195.491-.292 1.056-.292 1.694 0 .638.084 1.203.253 1.694.169.491.41.907.726 1.249.315.34.7.599 1.155.775a4.24 4.24 0 001.54.264zM61.263 9V3.544c.308.367.633.78.974 1.238.34.458.676.93 1.006 1.418.33.488.649.972.957 1.452.308.48.587.93.836 1.348h1.177V1.377h-1.375v5.06a34.89 34.89 0 00-.852-1.282 53.236 53.236 0 00-2.008-2.684 16.946 16.946 0 00-.946-1.094h-1.133V9h1.364zm11.594 0V7.801h-3.432V1.377h-1.386V9h4.818z"/><g transform="translate(77)"><use xlink:href="#a"/><use xlink:href="#b"/></g></g></svg>