<svg xmlns="http://www.w3.org/2000/svg" width="40" height="40" viewBox="0 0 40 40">
    <defs>
        <filter id="4tvq3aav3a">
            <feColorMatrix in="SourceGraphic" values="0 0 0 0 1.000000 0 0 0 0 1.000000 0 0 0 0 1.000000 0 0 0 1.000000 0"/>
        </filter>
    </defs>
    <g fill="none" fill-rule="evenodd">
        <g>
            <g>
                <g>
                    <g filter="url(#4tvq3aav3a)" transform="translate(-38 -962) translate(-1) translate(6 955) translate(33 7)">
                        <path fill="#FFF" d="M20.614 20.965l.303.004c6.642.16 11.978 5.595 11.978 12.277l-.006.144c-.073.901-.828 1.61-1.749 1.61-.969 0-1.754-.785-1.754-1.754l-.004-.259c-.137-4.725-4.01-8.513-8.768-8.513-4.845 0-8.772 3.927-8.772 8.772l-.006.144c-.073.901-.828 1.61-1.748 1.61-.97 0-1.755-.785-1.755-1.754l.004-.303c.16-6.643 5.596-11.978 12.277-11.978zm0-15.965c3.876 0 7.018 3.142 7.018 7.018 0 3.875-3.142 7.017-7.018 7.017l-.241-.004c-3.764-.127-6.777-3.219-6.777-7.013l.005-.242C13.728 8.012 16.819 5 20.614 5zm0 3.86l-.18.005c-1.66.093-2.978 1.469-2.978 3.153l.005.179c.093 1.66 1.47 2.978 3.153 2.978 1.744 0 3.158-1.413 3.158-3.157 0-1.745-1.414-3.158-3.158-3.158z"/>
                    </g>
                </g>
            </g>
        </g>
    </g>
</svg>
