<svg xmlns="http://www.w3.org/2000/svg" xmlns:xlink="http://www.w3.org/1999/xlink" width="419" height="167"><defs><linearGradient id="a" x1="50.034%" x2="50.034%" y1="100%" y2="0%"><stop offset="0%" stop-color="#363D43"/><stop offset="38.975%" stop-color="#798085"/><stop offset="63.704%" stop-color="#82888D"/><stop offset="100%" stop-color="#363D43"/></linearGradient><path id="b" d="M414.056 0a4 4 0 014 4v150.167c0 6.628-5.372 12-12 12h-26.114c-6.627 0-12-5.372-12-12V4a4 4 0 014-4h42.114zm-46.123 21.1v123.967l-149.014-13.188-15.618-11.87H101.626L0 148.365c5.16-20.886 7.795-41.767 7.903-62.643C8.012 64.845 5.377 43.965 0 23.08l101.626 23.079 99.581 1.244L217.6 34.289 367.933 21.1z"/></defs><use fill="url(#a)" transform="translate(.01)" xlink:href="#b"/></svg>