<svg xmlns="http://www.w3.org/2000/svg" xmlns:xlink="http://www.w3.org/1999/xlink" width="757" height="419"><defs><linearGradient id="bo" x1="50.034%" x2="50.034%" y1="99.984%" y2="-.004%"><stop offset="0%" stop-color="#8B878D"/><stop offset="13.66%" stop-color="#9F9CA1"/><stop offset="42.07%" stop-color="#D9D8DA"/><stop offset="51.52%" stop-color="#F3F4F4"/><stop offset="100%" stop-color="#807B80"/></linearGradient><linearGradient id="a" x1="50.034%" x2="50.034%" y1="99.984%" y2="-.004%"><stop offset="0%" stop-color="#8B878D"/><stop offset="13.66%" stop-color="#9F9CA1"/><stop offset="42.07%" stop-color="#D9D8DA"/><stop offset="51.52%" stop-color="#F3F4F4"/><stop offset="100%" stop-color="#807B80"/></linearGradient><linearGradient id="c" x1="50.034%" x2="50.034%" y1="99.984%" y2="-.004%"><stop offset="0%" stop-color="#8B878D"/><stop offset="13.66%" stop-color="#9F9CA1"/><stop offset="42.07%" stop-color="#D9D8DA"/><stop offset="51.52%" stop-color="#F3F4F4"/><stop offset="100%" stop-color="#807B80"/></linearGradient><linearGradient id="d" x1="50.034%" x2="50.034%" y1="99.984%" y2="-.004%"><stop offset="0%" stop-color="#8B878D"/><stop offset="13.66%" stop-color="#9F9CA1"/><stop offset="42.07%" stop-color="#D9D8DA"/><stop offset="51.52%" stop-color="#F3F4F4"/><stop offset="100%" stop-color="#807B80"/></linearGradient><linearGradient id="e" x1="50.034%" x2="50.034%" y1="99.984%" y2="-.004%"><stop offset="0%" stop-color="#8B878D"/><stop offset="13.66%" stop-color="#9F9CA1"/><stop offset="42.07%" stop-color="#D9D8DA"/><stop offset="51.52%" stop-color="#F3F4F4"/><stop offset="100%" stop-color="#807B80"/></linearGradient><linearGradient id="f" x1="50.034%" x2="50.034%" y1="99.725%" y2="-.004%"><stop offset="0%" stop-color="#656266"/><stop offset="13.66%" stop-color="#9F9CA1"/><stop offset="42.07%" stop-color="#D9D8DA"/><stop offset="51.52%" stop-color="#F3F4F4"/><stop offset="100%" stop-color="#807B80"/></linearGradient><linearGradient id="g" x1="50.034%" x2="50.034%" y1="99.725%" y2="-.004%"><stop offset="0%" stop-color="#656266"/><stop offset="13.66%" stop-color="#9F9CA1"/><stop offset="42.07%" stop-color="#D9D8DA"/><stop offset="51.52%" stop-color="#F3F4F4"/><stop offset="100%" stop-color="#807B80"/></linearGradient><linearGradient id="h" x1="50.034%" x2="50.034%" y1="99.725%" y2="-.004%"><stop offset="0%" stop-color="#656266"/><stop offset="13.66%" stop-color="#9F9CA1"/><stop offset="42.07%" stop-color="#D9D8DA"/><stop offset="51.52%" stop-color="#F3F4F4"/><stop offset="100%" stop-color="#807B80"/></linearGradient><linearGradient id="i" x1="50.034%" x2="50.034%" y1="99.984%" y2="-.004%"><stop offset="0%" stop-color="#212F42"/><stop offset="13.66%" stop-color="#004C97"/><stop offset="42.07%" stop-color="#004C97"/><stop offset="51.52%" stop-color="#004C97"/><stop offset="100%" stop-color="#213042"/></linearGradient><linearGradient id="j" x1="50.034%" x2="50.034%" y1="99.725%" y2="-.004%"><stop offset="0%" stop-color="#656266"/><stop offset="13.66%" stop-color="#9F9CA1"/><stop offset="42.07%" stop-color="#D9D8DA"/><stop offset="51.52%" stop-color="#F3F4F4"/><stop offset="100%" stop-color="#807B80"/></linearGradient><linearGradient id="k" x1="50.034%" x2="50.034%" y1="99.725%" y2="-.004%"><stop offset="0%" stop-color="#656266"/><stop offset="13.66%" stop-color="#9F9CA1"/><stop offset="42.07%" stop-color="#D9D8DA"/><stop offset="51.52%" stop-color="#F3F4F4"/><stop offset="100%" stop-color="#807B80"/></linearGradient><linearGradient id="l" x1="50%" x2="50%" y1="100%" y2="0%"><stop offset="0%" stop-color="#223247" stop-opacity="0"/><stop offset="100%" stop-color="#223247"/></linearGradient><linearGradient id="m" x1="50%" x2="50%" y1="100%" y2="0%"><stop offset="0%" stop-color="#223247" stop-opacity="0"/><stop offset="100%" stop-color="#223247"/></linearGradient><linearGradient id="n" x1="50.034%" x2="50.034%" y1="-.004%" y2="99.725%"><stop offset="0%" stop-color="#8C8C8C"/><stop offset="100%" stop-color="#F3F4F4"/></linearGradient><linearGradient id="o" x1="50.034%" x2="50.034%" y1="-.004%" y2="99.725%"><stop offset="0%" stop-color="#8C8C8C"/><stop offset="100%" stop-color="#F3F4F4"/></linearGradient><linearGradient id="p" x1="50.034%" x2="50.034%" y1="-.004%" y2="99.725%"><stop offset="0%" stop-color="#8C8C8C"/><stop offset="100%" stop-color="#F3F4F4"/></linearGradient><linearGradient id="q" x1="50.034%" x2="50.034%" y1="-.004%" y2="99.725%"><stop offset="0%" stop-color="#8C8C8C"/><stop offset="100%" stop-color="#D2D2D2"/></linearGradient><linearGradient id="r" x1="100%" x2="1.138%" y1="50.001%" y2="50%"><stop offset="0%" stop-color="#2F3236"/><stop offset="50.176%" stop-color="#D9D8DA"/><stop offset="100%" stop-color="#2F3236"/></linearGradient><linearGradient id="s" x1="50.034%" x2="50.034%" y1="99.984%" y2="-.004%"><stop offset="0%" stop-color="#8B878D"/><stop offset="13.66%" stop-color="#9F9CA1"/><stop offset="42.07%" stop-color="#D9D8DA"/><stop offset="51.52%" stop-color="#F3F4F4"/><stop offset="100%" stop-color="#807B80"/></linearGradient><linearGradient id="t" x1="50.034%" x2="50.034%" y1="99.984%" y2="-.004%"><stop offset="0%" stop-color="#8B878D"/><stop offset="13.66%" stop-color="#9F9CA1"/><stop offset="42.07%" stop-color="#D9D8DA"/><stop offset="51.52%" stop-color="#F3F4F4"/><stop offset="100%" stop-color="#807B80"/></linearGradient><linearGradient id="w" x1=".453%" x2="99.615%" y1="50.403%" y2="50.403%"><stop offset="0%" stop-color="#AFACB1"/><stop offset="47.376%" stop-color="#C2C2C2"/><stop offset="100%" stop-color="#958F95"/></linearGradient><linearGradient id="x" x1="50.034%" x2="50.034%" y1="-.004%" y2="99.725%"><stop offset="0%" stop-color="#8C8C8C"/><stop offset="100%" stop-color="#F3F4F4"/></linearGradient><linearGradient id="y" x1="50.034%" x2="50.034%" y1="-.004%" y2="99.725%"><stop offset="0%" stop-color="#8C8C8C"/><stop offset="100%" stop-color="#F3F4F4"/></linearGradient><linearGradient id="z" x1="50.034%" x2="50.034%" y1="-.004%" y2="99.725%"><stop offset="0%" stop-color="#8C8C8C"/><stop offset="100%" stop-color="#F3F4F4"/></linearGradient><linearGradient id="A" x1="50.034%" x2="50.034%" y1="-.004%" y2="99.725%"><stop offset="0%" stop-color="#8C8C8C"/><stop offset="100%" stop-color="#F3F4F4"/></linearGradient><linearGradient id="B" x1="100%" x2="1.138%" y1="50.001%" y2="50%"><stop offset="0%" stop-color="#2F3236"/><stop offset="50.176%" stop-color="#D9D8DA"/><stop offset="100%" stop-color="#2F3236"/></linearGradient><linearGradient id="D" x1="50%" x2="50%" y1="100%" y2="0%"><stop offset="0%" stop-color="#223247" stop-opacity="0"/><stop offset="100%" stop-color="#223247"/></linearGradient><linearGradient id="G" x1="50.034%" x2="50.034%" y1=".822%" y2="99.984%"><stop offset="0%" stop-color="#AFACB1" stop-opacity=".701"/><stop offset="100%" stop-color="#958F95" stop-opacity=".1"/></linearGradient><linearGradient id="J" x1="50.034%" x2="50.034%" y1=".822%" y2="99.984%"><stop offset="0%" stop-color="#AFACB1" stop-opacity=".701"/><stop offset="100%" stop-color="#958F95" stop-opacity=".1"/></linearGradient><linearGradient id="O" x1="50.034%" x2="50.034%" y1=".822%" y2="99.984%"><stop offset="0%" stop-color="#AFACB1" stop-opacity=".701"/><stop offset="100%" stop-color="#958F95" stop-opacity=".1"/></linearGradient><linearGradient id="R" x1="50.034%" x2="50.034%" y1=".822%" y2="99.984%"><stop offset="0%" stop-color="#AFACB1" stop-opacity=".701"/><stop offset="100%" stop-color="#958F95" stop-opacity=".1"/></linearGradient><linearGradient id="U" x1="50.034%" x2="50.034%" y1=".822%" y2="99.984%"><stop offset="0%" stop-color="#AFACB1" stop-opacity=".701"/><stop offset="100%" stop-color="#958F95" stop-opacity=".1"/></linearGradient><linearGradient id="X" x1="50.034%" x2="50.034%" y1=".822%" y2="99.984%"><stop offset="0%" stop-color="#AFACB1" stop-opacity=".701"/><stop offset="100%" stop-color="#958F95" stop-opacity=".1"/></linearGradient><linearGradient id="aa" x1="50.034%" x2="50.034%" y1=".822%" y2="99.984%"><stop offset="0%" stop-color="#AFACB1" stop-opacity=".701"/><stop offset="100%" stop-color="#958F95" stop-opacity=".1"/></linearGradient><linearGradient id="al" x1="50.034%" x2="50.034%" y1=".822%" y2="99.984%"><stop offset="0%" stop-color="#AFACB1" stop-opacity=".701"/><stop offset="100%" stop-color="#958F95" stop-opacity=".1"/></linearGradient><linearGradient id="ao" x1="50.034%" x2="50.034%" y1=".822%" y2="99.984%"><stop offset="0%" stop-color="#AFACB1" stop-opacity=".701"/><stop offset="100%" stop-color="#958F95" stop-opacity=".1"/></linearGradient><linearGradient id="ar" x1="50.034%" x2="50.034%" y1=".822%" y2="99.984%"><stop offset="0%" stop-color="#AFACB1" stop-opacity=".701"/><stop offset="100%" stop-color="#958F95" stop-opacity=".1"/></linearGradient><linearGradient id="au" x1="50.034%" x2="50.034%" y1=".822%" y2="99.984%"><stop offset="0%" stop-color="#AFACB1" stop-opacity=".701"/><stop offset="100%" stop-color="#958F95" stop-opacity=".1"/></linearGradient><linearGradient id="az" x1="50.034%" x2="50.034%" y1=".822%" y2="99.984%"><stop offset="0%" stop-color="#AFACB1" stop-opacity=".701"/><stop offset="100%" stop-color="#958F95" stop-opacity=".1"/></linearGradient><linearGradient id="aC" x1="50.034%" x2="50.034%" y1=".822%" y2="99.984%"><stop offset="0%" stop-color="#AFACB1" stop-opacity=".701"/><stop offset="100%" stop-color="#958F95" stop-opacity=".1"/></linearGradient><linearGradient id="aF" x1="50.034%" x2="50.034%" y1=".822%" y2="99.984%"><stop offset="0%" stop-color="#AFACB1" stop-opacity=".701"/><stop offset="100%" stop-color="#958F95" stop-opacity=".1"/></linearGradient><linearGradient id="aL" x1="50.034%" x2="50.034%" y1="114.901%" y2="-16.677%"><stop offset="0%" stop-color="#363D43"/><stop offset="52.238%" stop-color="#82888D"/><stop offset="100%" stop-color="#363D43"/></linearGradient><linearGradient id="aP" x1="1.504%" x2="98.496%" y1="0%" y2="127.532%"><stop offset="0%" stop-color="#5E5D5E"/><stop offset="47.838%" stop-color="#BEBEBE"/><stop offset="100%" stop-color="#5E5D5E"/></linearGradient><linearGradient id="aQ" x1="50%" x2="50%" y1="0%" y2="100%"><stop offset="0%" stop-color="#BDD3EB"/><stop offset="100%" stop-color="#93C5DE"/></linearGradient><linearGradient id="aT" x1="50%" x2="50%" y1="0%" y2="100%"><stop offset="0%" stop-color="#BDD3EB"/><stop offset="100%" stop-color="#93C5DE"/></linearGradient><linearGradient id="aV" x1="50%" x2="50%" y1="0%" y2="100%"><stop offset="0%" stop-color="#BDD3EB"/><stop offset="100%" stop-color="#93C5DE"/></linearGradient><linearGradient id="aZ" x1=".453%" x2="99.615%" y1="50.403%" y2="50.403%"><stop offset="0%" stop-color="#AFACB1"/><stop offset="28.499%" stop-color="#BAB9BC"/><stop offset="42.07%" stop-color="#D9D8DA"/><stop offset="58.437%" stop-color="#F3F4F4"/><stop offset="100%" stop-color="#958F95"/></linearGradient><linearGradient id="ba" x1="50.034%" x2="50.034%" y1="99.984%" y2="-.004%"><stop offset="0%" stop-color="#8B878D"/><stop offset="13.66%" stop-color="#9F9CA1"/><stop offset="42.07%" stop-color="#D9D8DA"/><stop offset="51.52%" stop-color="#F3F4F4"/><stop offset="100%" stop-color="#807B80"/></linearGradient><linearGradient id="bb" x1="50.034%" x2="50.034%" y1="99.984%" y2="-.004%"><stop offset="0%" stop-color="#8B878D"/><stop offset="13.66%" stop-color="#9F9CA1"/><stop offset="42.07%" stop-color="#D9D8DA"/><stop offset="51.52%" stop-color="#F3F4F4"/><stop offset="100%" stop-color="#807B80"/></linearGradient><linearGradient id="bc" x1="50.034%" x2="50.034%" y1="99.984%" y2="-.004%"><stop offset="0%" stop-color="#8B878D"/><stop offset="13.66%" stop-color="#9F9CA1"/><stop offset="42.07%" stop-color="#D9D8DA"/><stop offset="51.52%" stop-color="#F3F4F4"/><stop offset="100%" stop-color="#807B80"/></linearGradient><linearGradient id="bd" x1="50%" x2="50%" y1="0%" y2="100%"><stop offset="0%" stop-color="#636262" stop-opacity=".4"/><stop offset="46.746%" stop-color="#636262"/><stop offset="100%" stop-color="#636262" stop-opacity=".4"/></linearGradient><linearGradient id="be" x1="50%" x2="50%" y1="0%" y2="100%"><stop offset="0%" stop-color="#636262" stop-opacity=".401"/><stop offset="46.746%" stop-color="#636262"/><stop offset="100%" stop-color="#636262" stop-opacity=".4"/></linearGradient><linearGradient id="bg" x1="50.034%" x2="50.034%" y1="99.984%" y2="-.004%"><stop offset="0%" stop-color="#8B878D"/><stop offset="13.66%" stop-color="#9F9CA1"/><stop offset="42.07%" stop-color="#D9D8DA"/><stop offset="51.52%" stop-color="#F3F4F4"/><stop offset="100%" stop-color="#807B80"/></linearGradient><linearGradient id="bh" x1="50.034%" x2="50.034%" y1="99.984%" y2="-.004%"><stop offset="0%" stop-color="#623E2E"/><stop offset="49.72%" stop-color="#BE6941"/><stop offset="100%" stop-color="#623E2E"/></linearGradient><linearGradient id="bi" x1="50.034%" x2="50.034%" y1="99.984%" y2="-.004%"><stop offset="0%" stop-color="#8B878D"/><stop offset="13.66%" stop-color="#9F9CA1"/><stop offset="42.07%" stop-color="#D9D8DA"/><stop offset="51.52%" stop-color="#F3F4F4"/><stop offset="100%" stop-color="#807B80"/></linearGradient><linearGradient id="bj" x1="50.034%" x2="50.034%" y1="99.984%" y2="-.004%"><stop offset="0%" stop-color="#8B878D"/><stop offset="13.66%" stop-color="#9F9CA1"/><stop offset="42.07%" stop-color="#D9D8DA"/><stop offset="51.52%" stop-color="#F3F4F4"/><stop offset="100%" stop-color="#807B80"/></linearGradient><linearGradient id="bk" x1="50.034%" x2="50.034%" y1="99.984%" y2="-.004%"><stop offset="0%" stop-color="#8B878D"/><stop offset="42.07%" stop-color="#D9D8DA"/><stop offset="51.52%" stop-color="#F3F4F4"/><stop offset="100%" stop-color="#807B80"/></linearGradient><linearGradient id="bm" x1="50.034%" x2="50.034%" y1="99.984%" y2="-.004%"><stop offset="0%" stop-color="#8B878D"/><stop offset="13.66%" stop-color="#9F9CA1"/><stop offset="42.07%" stop-color="#D9D8DA"/><stop offset="51.52%" stop-color="#F3F4F4"/><stop offset="100%" stop-color="#807B80"/></linearGradient><linearGradient id="bn" x1="50.034%" x2="50.034%" y1="99.984%" y2="-.004%"><stop offset="0%" stop-color="#8B878D"/><stop offset="13.66%" stop-color="#9F9CA1"/><stop offset="42.07%" stop-color="#D9D8DA"/><stop offset="51.52%" stop-color="#F3F4F4"/><stop offset="100%" stop-color="#807B80"/></linearGradient><linearGradient id="b" x1="50.034%" x2="50.034%" y1="99.984%" y2="-.004%"><stop offset="0%" stop-color="#8B878D"/><stop offset="13.66%" stop-color="#9F9CA1"/><stop offset="42.07%" stop-color="#D9D8DA"/><stop offset="51.52%" stop-color="#F3F4F4"/><stop offset="100%" stop-color="#807B80"/></linearGradient><linearGradient id="bp" x1="50.034%" x2="50.034%" y1="99.984%" y2="-.004%"><stop offset="0%" stop-color="#8B878D"/><stop offset="13.66%" stop-color="#9F9CA1"/><stop offset="42.07%" stop-color="#D9D8DA"/><stop offset="51.52%" stop-color="#F3F4F4"/><stop offset="100%" stop-color="#807B80"/></linearGradient><filter id="ap" width="340.1%" height="161.3%" x="-132.7%" y="-28%" filterUnits="objectBoundingBox"><feOffset dx="-1" dy="1" in="SourceAlpha" result="shadowOffsetOuter1"/><feGaussianBlur in="shadowOffsetOuter1" result="shadowBlurOuter1" stdDeviation="3"/><feColorMatrix in="shadowBlurOuter1" values="0 0 0 0 0 0 0 0 0 0 0 0 0 0 0 0 0 0 0.230550699 0"/></filter><filter id="u" width="104.5%" height="111.1%" x="-2.5%" y="-5%" filterUnits="objectBoundingBox"><feOffset dx="-1" dy="1" in="SourceAlpha" result="shadowOffsetOuter1"/><feGaussianBlur in="shadowOffsetOuter1" result="shadowBlurOuter1" stdDeviation="3"/><feColorMatrix in="shadowBlurOuter1" values="0 0 0 0 0 0 0 0 0 0 0 0 0 0 0 0 0 0 0.230550699 0"/></filter><filter id="K" width="460.2%" height="187.3%" x="-199%" y="-39.1%" filterUnits="objectBoundingBox"><feOffset dx="-1" dy="1" in="SourceAlpha" result="shadowOffsetOuter1"/><feGaussianBlur in="shadowOffsetOuter1" result="shadowBlurOuter1" stdDeviation="3"/><feColorMatrix in="shadowBlurOuter1" values="0 0 0 0 0 0 0 0 0 0 0 0 0 0 0 0 0 0 0.230550699 0"/></filter><filter id="M" width="460.2%" height="199.4%" x="-199%" y="-44.5%" filterUnits="objectBoundingBox"><feOffset dx="-1" dy="1" in="SourceAlpha" result="shadowOffsetOuter1"/><feGaussianBlur in="shadowOffsetOuter1" result="shadowBlurOuter1" stdDeviation="3"/><feColorMatrix in="shadowBlurOuter1" values="0 0 0 0 0 0 0 0 0 0 0 0 0 0 0 0 0 0 0.230550699 0"/></filter><filter id="P" width="460.2%" height="206.7%" x="-199%" y="-47.7%" filterUnits="objectBoundingBox"><feOffset dx="-1" dy="1" in="SourceAlpha" result="shadowOffsetOuter1"/><feGaussianBlur in="shadowOffsetOuter1" result="shadowBlurOuter1" stdDeviation="3"/><feColorMatrix in="shadowBlurOuter1" values="0 0 0 0 0 0 0 0 0 0 0 0 0 0 0 0 0 0 0.230550699 0"/></filter><filter id="S" width="460.2%" height="215.3%" x="-199%" y="-51.6%" filterUnits="objectBoundingBox"><feOffset dx="-1" dy="1" in="SourceAlpha" result="shadowOffsetOuter1"/><feGaussianBlur in="shadowOffsetOuter1" result="shadowBlurOuter1" stdDeviation="3"/><feColorMatrix in="shadowBlurOuter1" values="0 0 0 0 0 0 0 0 0 0 0 0 0 0 0 0 0 0 0.230550699 0"/></filter><filter id="V" width="460.2%" height="237%" x="-199%" y="-55.8%" filterUnits="objectBoundingBox"><feOffset dx="-1" dy="1" in="SourceAlpha" result="shadowOffsetOuter1"/><feGaussianBlur in="shadowOffsetOuter1" result="shadowBlurOuter1" stdDeviation="3"/><feColorMatrix in="shadowBlurOuter1" values="0 0 0 0 0 0 0 0 0 0 0 0 0 0 0 0 0 0 0.230550699 0"/></filter><filter id="Y" width="460.2%" height="232.1%" x="-199%" y="-59.1%" filterUnits="objectBoundingBox"><feOffset dx="-1" dy="1" in="SourceAlpha" result="shadowOffsetOuter1"/><feGaussianBlur in="shadowOffsetOuter1" result="shadowBlurOuter1" stdDeviation="3"/><feColorMatrix in="shadowBlurOuter1" values="0 0 0 0 0 0 0 0 0 0 0 0 0 0 0 0 0 0 0.230550699 0"/></filter><filter id="ab" width="460.2%" height="192.9%" x="-199%" y="-41.6%" filterUnits="objectBoundingBox"><feOffset dx="-1" dy="1" in="SourceAlpha" result="shadowOffsetOuter1"/><feGaussianBlur in="shadowOffsetOuter1" result="shadowBlurOuter1" stdDeviation="3"/><feColorMatrix in="shadowBlurOuter1" values="0 0 0 0 0 0 0 0 0 0 0 0 0 0 0 0 0 0 0.230550699 0"/></filter><filter id="ad" width="460.2%" height="199.4%" x="-199%" y="-44.5%" filterUnits="objectBoundingBox"><feOffset dx="-1" dy="1" in="SourceAlpha" result="shadowOffsetOuter1"/><feGaussianBlur in="shadowOffsetOuter1" result="shadowBlurOuter1" stdDeviation="3"/><feColorMatrix in="shadowBlurOuter1" values="0 0 0 0 0 0 0 0 0 0 0 0 0 0 0 0 0 0 0.230550699 0"/></filter><filter id="af" width="460.2%" height="206.7%" x="-199%" y="-47.7%" filterUnits="objectBoundingBox"><feOffset dx="-1" dy="1" in="SourceAlpha" result="shadowOffsetOuter1"/><feGaussianBlur in="shadowOffsetOuter1" result="shadowBlurOuter1" stdDeviation="3"/><feColorMatrix in="shadowBlurOuter1" values="0 0 0 0 0 0 0 0 0 0 0 0 0 0 0 0 0 0 0.230550699 0"/></filter><filter id="ah" width="460.2%" height="215.3%" x="-199%" y="-51.6%" filterUnits="objectBoundingBox"><feOffset dx="-1" dy="1" in="SourceAlpha" result="shadowOffsetOuter1"/><feGaussianBlur in="shadowOffsetOuter1" result="shadowBlurOuter1" stdDeviation="3"/><feColorMatrix in="shadowBlurOuter1" values="0 0 0 0 0 0 0 0 0 0 0 0 0 0 0 0 0 0 0.230550699 0"/></filter><filter id="aj" width="460.2%" height="237.7%" x="-199%" y="-56%" filterUnits="objectBoundingBox"><feOffset dx="-1" dy="1" in="SourceAlpha" result="shadowOffsetOuter1"/><feGaussianBlur in="shadowOffsetOuter1" result="shadowBlurOuter1" stdDeviation="3"/><feColorMatrix in="shadowBlurOuter1" values="0 0 0 0 0 0 0 0 0 0 0 0 0 0 0 0 0 0 0.230550699 0"/></filter><filter id="am" width="460.2%" height="237.2%" x="-199%" y="-61.4%" filterUnits="objectBoundingBox"><feOffset dx="-1" dy="1" in="SourceAlpha" result="shadowOffsetOuter1"/><feGaussianBlur in="shadowOffsetOuter1" result="shadowBlurOuter1" stdDeviation="3"/><feColorMatrix in="shadowBlurOuter1" values="0 0 0 0 0 0 0 0 0 0 0 0 0 0 0 0 0 0 0.230550699 0"/></filter><filter id="H" width="460.2%" height="187.3%" x="-199%" y="-39.1%" filterUnits="objectBoundingBox"><feOffset dx="-1" dy="1" in="SourceAlpha" result="shadowOffsetOuter1"/><feGaussianBlur in="shadowOffsetOuter1" result="shadowBlurOuter1" stdDeviation="3"/><feColorMatrix in="shadowBlurOuter1" values="0 0 0 0 0 0 0 0 0 0 0 0 0 0 0 0 0 0 0.230550699 0"/></filter><filter id="as" width="460.2%" height="156.8%" x="-199%" y="-25.8%" filterUnits="objectBoundingBox"><feOffset dx="-1" dy="1" in="SourceAlpha" result="shadowOffsetOuter1"/><feGaussianBlur in="shadowOffsetOuter1" result="shadowBlurOuter1" stdDeviation="3"/><feColorMatrix in="shadowBlurOuter1" values="0 0 0 0 0 0 0 0 0 0 0 0 0 0 0 0 0 0 0.230550699 0"/></filter><filter id="av" width="460.2%" height="156.8%" x="-199%" y="-25.8%" filterUnits="objectBoundingBox"><feOffset dx="-1" dy="1" in="SourceAlpha" result="shadowOffsetOuter1"/><feGaussianBlur in="shadowOffsetOuter1" result="shadowBlurOuter1" stdDeviation="3"/><feColorMatrix in="shadowBlurOuter1" values="0 0 0 0 0 0 0 0 0 0 0 0 0 0 0 0 0 0 0.230550699 0"/></filter><filter id="ax" width="340.1%" height="211.8%" x="-132.7%" y="-51.6%" filterUnits="objectBoundingBox"><feOffset dx="-1" dy="1" in="SourceAlpha" result="shadowOffsetOuter1"/><feGaussianBlur in="shadowOffsetOuter1" result="shadowBlurOuter1" stdDeviation="3"/><feColorMatrix in="shadowBlurOuter1" values="0 0 0 0 0 0 0 0 0 0 0 0 0 0 0 0 0 0 0.230550699 0"/></filter><filter id="aA" width="340.1%" height="171.1%" x="-132.7%" y="-34.8%" filterUnits="objectBoundingBox"><feOffset dx="-1" dy="1" in="SourceAlpha" result="shadowOffsetOuter1"/><feGaussianBlur in="shadowOffsetOuter1" result="shadowBlurOuter1" stdDeviation="3"/><feColorMatrix in="shadowBlurOuter1" values="0 0 0 0 0 0 0 0 0 0 0 0 0 0 0 0 0 0 0.230550699 0"/></filter><filter id="aD" width="361.6%" height="161.3%" x="-144.6%" y="-28%" filterUnits="objectBoundingBox"><feOffset dx="-1" dy="1" in="SourceAlpha" result="shadowOffsetOuter1"/><feGaussianBlur in="shadowOffsetOuter1" result="shadowBlurOuter1" stdDeviation="3"/><feColorMatrix in="shadowBlurOuter1" values="0 0 0 0 0 0 0 0 0 0 0 0 0 0 0 0 0 0 0.230550699 0"/></filter><filter id="aG" width="340.1%" height="211.8%" x="-132.7%" y="-51.6%" filterUnits="objectBoundingBox"><feOffset dx="-1" dy="1" in="SourceAlpha" result="shadowOffsetOuter1"/><feGaussianBlur in="shadowOffsetOuter1" result="shadowBlurOuter1" stdDeviation="3"/><feColorMatrix in="shadowBlurOuter1" values="0 0 0 0 0 0 0 0 0 0 0 0 0 0 0 0 0 0 0.230550699 0"/></filter><filter id="aI" width="340.1%" height="171.1%" x="-132.7%" y="-34.8%" filterUnits="objectBoundingBox"><feOffset dx="-1" dy="1" in="SourceAlpha" result="shadowOffsetOuter1"/><feGaussianBlur in="shadowOffsetOuter1" result="shadowBlurOuter1" stdDeviation="3"/><feColorMatrix in="shadowBlurOuter1" values="0 0 0 0 0 0 0 0 0 0 0 0 0 0 0 0 0 0 0.230550699 0"/></filter><filter id="aN" width="125.1%" height="124.7%" x="-13.9%" y="-11.1%" filterUnits="objectBoundingBox"><feOffset dx="-1" dy="1" in="SourceAlpha" result="shadowOffsetOuter1"/><feGaussianBlur in="shadowOffsetOuter1" result="shadowBlurOuter1" stdDeviation="3"/><feColorMatrix in="shadowBlurOuter1" values="0 0 0 0 0 0 0 0 0 0 0 0 0 0 0 0 0 0 0.230550699 0"/></filter><filter id="aR" width="100%" height="100%" x="0%" y="0%" filterUnits="objectBoundingBox"><feGaussianBlur in="SourceGraphic"/></filter><filter id="aS" width="100%" height="100%" x="0%" y="0%" filterUnits="objectBoundingBox"><feGaussianBlur in="SourceGraphic"/></filter><filter id="aU" width="100%" height="100%" x="0%" y="0%" filterUnits="objectBoundingBox"><feGaussianBlur in="SourceGraphic"/></filter><filter id="aW" width="100%" height="100%" x="0%" y="0%" filterUnits="objectBoundingBox"><feGaussianBlur in="SourceGraphic"/></filter><filter id="aX" width="124.3%" height="124.7%" x="-13.5%" y="-11.1%" filterUnits="objectBoundingBox"><feOffset dx="-1" dy="1" in="SourceAlpha" result="shadowOffsetOuter1"/><feGaussianBlur in="shadowOffsetOuter1" result="shadowBlurOuter1" stdDeviation="3"/><feComposite in="shadowBlurOuter1" in2="SourceAlpha" operator="out" result="shadowBlurOuter1"/><feColorMatrix in="shadowBlurOuter1" values="0 0 0 0 0 0 0 0 0 0 0 0 0 0 0 0 0 0 0.230550699 0"/></filter><filter id="E" width="460.2%" height="192.9%" x="-199%" y="-41.6%" filterUnits="objectBoundingBox"><feOffset dx="-1" dy="1" in="SourceAlpha" result="shadowOffsetOuter1"/><feGaussianBlur in="shadowOffsetOuter1" result="shadowBlurOuter1" stdDeviation="3"/><feColorMatrix in="shadowBlurOuter1" values="0 0 0 0 0 0 0 0 0 0 0 0 0 0 0 0 0 0 0.230550699 0"/></filter><path id="v" d="M615.32 128.376a7.913 7.913 0 017.908 7.616l.005.297v145.066c0 10.06-8.044 18.24-18.05 18.459l-.413.004h-22.42c-10.058 0-18.239-8.044-18.458-18.05l-.004-.413v-1.768l-147.444-12.82-15.604-13.106h-96.316l-105.078 29.317.475-3.918a541.327 541.327 0 003.937-62.339 458.832 458.832 0 00-3.6-59.69l-.334-2.595-.493-3.755 105.033 23.852h95.627l16.387-13.108 147.41-12.819v-12.317a7.914 7.914 0 017.322-7.892l.294-.016.296-.005h43.52zm0 5.275H571.8a2.637 2.637 0 00-2.637 2.638v17.154l-150.637 13.099-16.584 13.267H303.87l-98.238-22.31a463.678 463.678 0 013.501 59.25 546.446 546.446 0 01-3.515 59.031l98.187-27.394h97.871l1.057-.024 15.827 13.294 150.603 13.095v6.604c0 7.284 5.904 13.188 13.188 13.188h22.42c7.283 0 13.187-5.904 13.187-13.188V136.29a2.637 2.637 0 00-2.638-2.638z"/><path id="F" d="M330.453 177.171h5.275v20.177l-2.638.264v-9.89c0-3.517-.88-7.034-2.637-10.551z"/><path id="I" d="M319.902 177.171h5.275v21.496l-2.637.264v-11.21c0-3.516-.88-7.033-2.638-10.55z"/><path id="L" d="M319.902 229.263h5.275v21.496l-2.637.264v-11.21c0-3.516-.88-7.033-2.638-10.55z"/><path id="N" d="M341.003 177.171h5.275v18.859l-2.638.263v-8.572c0-3.516-.879-7.033-2.637-10.55z"/><path id="Q" d="M351.553 177.171h5.275v17.54l-2.637.264v-7.254c0-3.516-.88-7.033-2.638-10.55z"/><path id="T" d="M362.103 177.171h5.276v16.221l-2.638.264v-5.935c0-3.516-.88-7.033-2.638-10.55z"/><path id="W" d="M372.654 177.171h5.275v14.902l-2.272.228a1 1 0 11-.365.109v-4.689c0-3.516-.88-7.033-2.638-10.55z"/><path id="Z" d="M383.204 177.171h5.275v13.584l-2.637.263v-3.297c0-3.516-.88-7.033-2.638-10.55z"/><path id="ac" d="M330.453 230.582h5.275v20.177l-2.638.264v-9.89c0-3.517-.88-7.034-2.637-10.551z"/><path id="ae" d="M341.003 231.9h5.275v18.86l-2.638.263v-8.572c0-3.517-.879-7.033-2.637-10.55z"/><path id="ag" d="M351.553 233.22h5.275v17.54l-2.637.263v-7.253c0-3.517-.88-7.034-2.638-10.55z"/><path id="ai" d="M362.103 234.538h5.276v16.221l-2.638.264v-5.934c0-3.517-.88-7.034-2.638-10.55z"/><path id="ak" d="M372.654 235.857h5.275v14.83l-2.272.226a1 1 0 11-.365.11v-4.689c0-3.517-.88-7.009-2.638-10.477z"/><path id="an" d="M383.204 237.176h5.275v13.044l-2.637.264v-3.297c0-3.517-.88-6.854-2.638-10.011z"/><path id="aq" d="M477.498 160.027h7.912c-1.758 1.758-2.637 4.835-2.637 9.231v18.78c0 .837-.53 1.583-1.32 1.86a.991.991 0 01-1.318-.936v-19.704c0-3.516-.879-6.594-2.637-9.231z"/><path id="at" d="M464.3 161.346h5.275c-1.758 1.758-2.637 4.835-2.637 9.231v22.298a.999.999 0 01-.758.97l-.637.16a1 1 0 01-1.243-.97v-31.689z"/><path id="aw" d="M463.65 235.198h5.275c-1.758 1.758-2.637 4.835-2.637 9.231v22.298c0 .46-.312.86-.758.97l-.637.16a1 1 0 01-1.243-.97v-31.689z"/><path id="ay" d="M517.061 156.07h7.913c-1.758 1.759-2.638 4.836-2.638 9.232v5.316a1 1 0 01-.552.895l-.766.383a.912.912 0 01-1.319-.815v-5.78c0-3.516-.88-6.593-2.638-9.23z"/><path id="aB" d="M497.28 158.708l7.912-1.319c-1.758 1.759-2.637 4.836-2.637 9.232v10.907c0 .197-.059.39-.168.554l-1.151 1.727a.72.72 0 01-1.319-.4v-11.47c0-3.516-.88-6.593-2.638-9.231z"/><path id="aE" d="M477.498 240.473l7.262-1.319c-1.758 1.759-2.637 4.836-2.637 9.232v18.78c0 .837-.53 1.582-1.32 1.859a.992.992 0 01-1.318-.936v-19.703c0-3.517-.662-6.155-1.987-7.913z"/><path id="aH" d="M516.411 256.298h7.913c-1.758 1.759-2.638 4.836-2.638 9.232v5.316a1 1 0 01-.552.895l-.766.383a.912.912 0 01-1.319-.815v-5.78c0-3.516-.88-6.593-2.638-9.23z"/><path id="aJ" d="M496.63 248.386l7.912-1.32c-1.758 1.76-2.637 4.836-2.637 9.232v10.605c0 .394-.117.78-.336 1.109l-.983 1.474a.72.72 0 01-1.319-.399v-11.47c0-3.517-.88-6.594-2.638-9.231z"/><path id="aK" d="M1.365 1.023h75.402v76.872H1.06z"/><path id="aO" d="M666.306 221.564l.002 1.32 8.628.001c-.743.937-1.504 2.044-2.33 3.344-1.536 2.412-2.3 5.468-2.343 9.135l-.026 2.19.074.005.02.196.04.299c.722 4.949 4.984 8.749 10.134 8.749 5.657 0 10.242-4.586 10.242-10.242l-.007-.391-.024-.413a10.21 10.21 0 00-2.202-5.583l-.152-.184-.109-.154c-.746-1.026-1.665-1.802-3.028-2.717-.196-.132-.93-.614-1.095-.726l-.366-.251c-.823-.58-.972-.801-.946-1.028.025-.207.1-.29.606-.459.667-.222 1.664-.32 2.97-.272l.003 3.118h7.04l.03.07.05.127c.066.182.135.408.202.676.317 1.268.513 3.17.571 5.676l.019 1.809v2.192h2.108l.143.147.12.137c.256.307.353.535.353.684v2.325h.724l.055.133.136.302a9.583 9.583 0 008.668 5.504l.363-.007.406-.024a9.56 9.56 0 002.72-.625l.11-.046.05.154.123.354c.29.804.614 1.457.982 1.93.94 1.21 2.242 1.733 3.665 1.552.474-.06.924-.188 1.427-.382.174-.066.35-.14.562-.23l.73-.317c.661-.277 1.047-.381 1.39-.381.384 0 .818.13 1.622.481l.883.383.176.07c.504.195.955.324 1.43.385 1.429.182 2.734-.35 3.671-1.57 1.288-1.677 2.46-7.275 2.46-9.991 0-5.657-4.585-10.243-10.242-10.243-5.656 0-10.242 4.586-10.242 10.243l.004.245.01.267c.01.184.024.382.043.59l.026.292-.067.06-.195.152a3.587 3.587 0 01-2.107.68l-.208-.006-.225-.02a3.61 3.61 0 01-3.008-2.498l-.036-.127.059-.094.081-.115c.09-.119.203-.25.344-.393l1.939-.001v-4l-.002-12.486h.119v1.32h11.254l-.002-1.32h.616l.002 2.639h13.89l-.001-2.639h6.299v30.882l-75.707-.583v-30.3h4.276zm52.838 9.542a7.913 7.913 0 017.913 7.913c0 1.811-.954 7.238-1.978 8.572-.35.456-.73.653-1.14.688l-.154.006c-1.252-.009-2.78-1.354-4.64-1.354-1.749 0-3.214 1.193-4.43 1.333l-.164.012c-.488.016-.934-.161-1.341-.685-.518-.666-1.01-2.337-1.373-4.073l-.13-.652a7.227 7.227 0 01-4.743 2.079l-.348.008-.295-.006a7.256 7.256 0 01-6.784-5.656l-.055-.272h-.12l-.009-.222c-.062-.738-.433-1.475-1.114-2.213l-.195-.203H702l-.224.235c-.428.47-.73.939-.907 1.409l-.078.235a2.435 2.435 0 00-.057.235 5.937 5.937 0 005.882 5.14c1.98 0 3.734-.97 4.81-2.463-.124-.882-.195-1.652-.195-2.153a7.913 7.913 0 017.913-7.913zm-37.32-10.22c2.198-.44 4.396-.44 6.594 0v1.318l-.467-.049a25.43 25.43 0 00-1.726-.108l-.331-.005-.321.001c-3.164.037-4.853.97-5.068 2.799-.363 3.082 4.073 3.691 5.998 6.555a7.914 7.914 0 01-5.72 13.072l-.278.005-.278-.005a7.914 7.914 0 01-7.55-9.071l-.085-.006c.039-3.263.698-5.9 1.978-7.913 1.523-2.393 3.12-4.723 5.36-5.914l.295-.148a6.86 6.86 0 011.599-.532zm36.738-39.894a7.913 7.913 0 01.278 15.82l-.278.005-.278-.005a7.912 7.912 0 01-7.367-9.957 5.92 5.92 0 00-4.596-2.56l-.288-.006-.272.006a5.937 5.937 0 00-5.61 5.134c.14.704.562 1.408 1.267 2.113h1.814v17.143h4.776v-1.317h6.594v1.317h5.275v-2.636h2.638v.386l.23-.1a4.083 4.083 0 011.505-.286h1.078l.295.01c.293.021.577.073.849.152v-.162h2.637l.001 2.552.034.085h8.593v10.55h-8.593l-.036.086.001 2.552h-2.638v-.162l-.275.07a4.14 4.14 0 01-.573.082l-.295.01h-1.078l-.316-.012a4.068 4.068 0 01-1.19-.275l-.229-.1v.387h-2.637l-.001-2.637h-5.275v1.318h-6.594v-1.318h-4.776v16.485h-6.593l-.002-.445c-.036-6.737-.915-10.106-2.636-10.106h-5.275l-.001-5.935h-13.496v1.32h-6.593l-.001-1.32h-6.605v-10.55h6.605v-1.318h6.595v1.317h13.495v-4.614h5.276l.1-.005c1.592-.148 2.435-3.855 2.529-11.12l.009-1.404h.822l.195-.203c.75-.811 1.124-1.623 1.124-2.434h.12l.055-.273a7.256 7.256 0 0112.506-3.22 7.908 7.908 0 017.1-4.42zm-38.057 2.637a7.913 7.913 0 015.998 13.077c-1.925 2.864-6.36 3.473-5.998 6.555.222 1.89 2.018 2.823 5.389 2.8l.33-.005.342-.012c.46-.019.948-.053 1.462-.104l.39-.041v1.319l-.508.093a16.609 16.609 0 01-6.086-.093 7.019 7.019 0 01-2.248-.88c-1.815-1.094-3.202-2.942-4.493-4.918l-.513-.796c-1.28-2.012-1.94-4.65-1.978-7.913l.085-.006a7.913 7.913 0 017.828-9.076zm57.232-8.054v30.782h-6.3v-2.638H717.55l-.002 2.636h-.616l.002-1.317H705.68v1.317h-.119l.002-17.142-2.99-.001.02-.07.069-.198a3.61 3.61 0 013.372-2.326l.239.008.261.027c.69.095 1.329.388 1.846.833l.035.03-.007.046-.048.444c-.026.298-.04.597-.04.899 0 5.656 4.586 10.242 10.243 10.242 5.656 0 10.242-4.586 10.242-10.242 0-5.657-4.586-10.243-10.242-10.243l-.347.006-.376.02a10.227 10.227 0 00-6.752 3.214l-.105.114-.222-.13-.33-.18a9.567 9.567 0 00-4.397-1.065l-.301.004-.345.017a9.59 9.59 0 00-8.191 5.85l-.028.065-.717.002v2.326l-.005.061-.016.07a.873.873 0 01-.067.164l-.007.012h-2.047l-.001 2.873c-.018 3.755-.227 6.562-.608 8.374l-.057.256-.058.236a6.294 6.294 0 01-.234.748l-.017.041-6.937.001-.002 1.98c-1.347.05-2.368-.058-3.03-.293-.456-.163-.523-.239-.547-.439-.026-.227.123-.449.946-1.028l.366-.251c.11-.075.473-.314.76-.504l.667-.448.344-.243c1.003-.725 1.737-1.402 2.352-2.248l.106-.152.155-.186a10.22 10.22 0 002.233-6.387c0-5.656-4.585-10.242-10.242-10.242l-.302.004-.312.014c-4.973.294-8.991 4.136-9.56 9.03l-.02.195-.074.006.026 2.19.012.545c.11 3.426.872 6.299 2.33 8.59.775 1.219 1.492 2.268 2.19 3.166l-8.487-.002-.002 1.317h-4.276v-30.78h75.707z"/><path id="aY" d="M738.901 175.575h-78.036v76.872H738.9v-76.872zm-3.494 3.548v69.776H664.36v-69.776h71.048z"/><radialGradient id="C" cx="-17.256%" cy="121.436%" r="141.011%" fx="-17.256%" fy="121.436%"><stop offset="0%" stop-color="#8B878D"/><stop offset="13.66%" stop-color="#9F9CA1"/><stop offset="42.07%" stop-color="#D9D8DA"/><stop offset="51.52%" stop-color="#F3F4F4"/><stop offset="100%" stop-color="#807B80"/></radialGradient><radialGradient id="bf" cx="50%" cy="54.424%" r="45.576%" fx="50%" fy="54.424%" gradientTransform="matrix(0 1 -.78087 0 .925 .044)"><stop offset="0%" stop-color="#172942" stop-opacity=".993"/><stop offset="100%" stop-color="#162841" stop-opacity="0"/></radialGradient><radialGradient id="bl" cx="-20.177%" cy="-21.812%" r="141.011%" fx="-20.177%" fy="-21.812%"><stop offset="0%" stop-color="#8B878D"/><stop offset="13.66%" stop-color="#9F9CA1"/><stop offset="42.07%" stop-color="#D9D8DA"/><stop offset="51.52%" stop-color="#F3F4F4"/><stop offset="100%" stop-color="#807B80"/></radialGradient></defs><g fill="none" fill-rule="evenodd"><g fill-rule="nonzero" stroke="#636262" stroke-width=".5"><path fill="url(#a)" d="M-33.544 34.862h75v6.594h-75z" transform="rotate(90 56.568 340.477)"/><path fill="url(#b)" d="M185.775 57.367h29.013v6.594h-29.013z" transform="rotate(90 252.894 362.98)"/><path fill="url(#c)" d="M59.985 75.171h137v6.594h-137z" transform="translate(354.929 249.704)"/><path fill="url(#d)" d="M6.985 75.171h32v6.594h-32z" transform="translate(354.929 249.704)"/><path fill="url(#e)" d="M37.253 83.084v-9.232h3.957l7.912 4.616v.462l-7.912 4.154h-3.957z" transform="translate(354.929 249.704)"/><path fill="url(#e)" d="M49.782 83.084v-9.232h3.956l7.913 4.616v.462l-7.913 4.154h-3.956z" transform="matrix(-1 0 0 1 466.362 249.704)"/></g><path fill="url(#f)" fill-rule="nonzero" stroke="#2C405A" stroke-width=".5" d="M73.039 126.648h-28.72c-1.036 0-1.973.42-2.652 1.098a3.741 3.741 0 00-1.098 2.652v171.355c0 1.036.42 1.973 1.098 2.652a3.741 3.741 0 002.652 1.098h28.72V126.648z" transform="translate(-39)"/><path fill="url(#g)" fill-rule="nonzero" stroke="#2C405A" stroke-width=".5" d="M81.451 126.648h33.789v178.855H81.451z" transform="translate(-39)"/><path fill="url(#h)" fill-rule="nonzero" stroke="#2C405A" d="M132.634 126.398h18.463v179.355h-18.463z" transform="translate(-39)"/><path fill="url(#i)" fill-rule="nonzero" stroke="#2C405A" d="M113.352 126.898h20.101v178.355h-20.101z" transform="translate(-39)"/><path fill="url(#j)" fill-rule="nonzero" stroke="#2C405A" d="M172.241 126.398h20.88a4 4 0 013.961 3.44l9.365 66.177c.026.185.04.373.04.56v39c0 .188-.014.375-.04.561l-9.365 66.177a4 4 0 01-3.96 3.44h-20.88c-2.21 0-4-1.79-4-4V130.398c0-2.21 1.79-4 4-4z" transform="translate(-39)"/><path fill="url(#i)" fill-rule="nonzero" stroke="#2C405A" d="M150.278 126.898h20.101v178.355h-20.101z" transform="translate(-39)"/><path fill="url(#k)" fill-rule="nonzero" stroke="#2C405A" stroke-width=".5" d="M71.72 148.567h11.05v22.919H71.72z" transform="translate(-39)"/><path fill="url(#k)" fill-rule="nonzero" stroke="#2C405A" stroke-width=".5" d="M71.72 170.986h11.05v22.919H71.72z" transform="translate(-39)"/><path fill="url(#k)" fill-rule="nonzero" stroke="#2C405A" stroke-width=".5" d="M71.72 193.406h11.05v22.919H71.72z" transform="translate(-39)"/><path fill="url(#k)" fill-rule="nonzero" stroke="#2C405A" stroke-width=".5" d="M71.72 215.825h11.05v22.919H71.72z" transform="translate(-39)"/><path fill="url(#k)" fill-rule="nonzero" stroke="#2C405A" stroke-width=".5" d="M71.72 238.245h11.05v22.919H71.72z" transform="translate(-39)"/><path fill="url(#k)" fill-rule="nonzero" stroke="#2C405A" stroke-width=".5" d="M71.72 260.664h11.05v22.919H71.72z" transform="translate(-39)"/><path fill="url(#k)" fill-rule="nonzero" stroke="#2C405A" stroke-width=".5" d="M71.72 283.084h11.05v22.919H71.72zm0-156.936h11.05v22.919H71.72z" transform="translate(-39)"/><path fill="url(#l)" d="M39 258.277l154.298.659c1.679.766 2.778 1.865 3.297 3.297 1.852 5.098 2.499 13.095 3.297 17.144 1.135 5.754 2.014 14.546 2.638 26.376H39v-47.476z" opacity=".4" transform="matrix(1 0 0 -1 -39 564.03)"/><g transform="translate(47 306)"><path stroke="#FFF" d="M51 0v20H2" opacity=".4"/><circle cx="41.5" cy="20.5" r="4.5" fill="#33A7DF" transform="rotate(-90 41.5 20.5)"/><circle cx="2" cy="20" r="2" fill="#EF3340" transform="rotate(-90 2 20)"/></g><g transform="translate(111 306)"><path stroke="#FFF" d="M20 0v20H0V0h0" opacity=".4"/><circle cx="9.5" cy="20.5" r="4.5" fill="#33A7DF" transform="rotate(-90 9.5 20.5)"/></g><path fill="url(#m)" d="M39 126.398l154.298-.66c2.385.682 3.704 1.781 3.957 3.297 1.319 7.913 1.978 13.847 2.637 17.804.885 5.309 2.204 14.1 3.957 26.376L39 173.874v-47.476z" opacity=".4" transform="translate(-39)"/><g fill-rule="nonzero" stroke="#7F7F7F" stroke-width=".5" transform="translate(42.201 102)"><path fill="url(#n)" d="M10.55-9.891l9.232 15.166-9.232 15.166z" transform="rotate(90 13.188 8.572)"/><path fill="url(#o)" d="M11.21-1.319l7.912 15.166-7.912 15.166z" transform="matrix(0 -1 -1 0 30.332 34.288)"/><path fill="url(#p)" d="M-.989 1.648h17.144L6.924 16.815z" transform="rotate(-90 10.88 11.21)"/><path fill="url(#p)" d="M14.177 1.648h17.144L22.09 16.815z" transform="matrix(0 -1 -1 0 33.299 37.255)"/><rect width="32.97" height="2.638" y="22.419" fill="#C0BEC0" rx="1.319"/><rect width="32.97" height="6.594" fill="url(#q)" rx="2"/><rect width="32.97" height="7.913" fill="url(#r)" rx="1"/></g><g fill-rule="nonzero" stroke="#636262" stroke-width=".5"><path fill="url(#s)" d="M-16.398 23.716H30.31v6.594h-52.708z" transform="rotate(90 60.8 336.243)"/><path fill="url(#t)" d="M6.594 39.52h5.275v13.188H6.594z" transform="translate(366.073 252.386)"/></g><g fill-rule="nonzero" transform="translate(-39)"><use fill="#000" filter="url(#u)" xlink:href="#v"/><use fill="url(#w)" xlink:href="#v"/></g><g fill-rule="nonzero" stroke="#7F7F7F" stroke-width=".5" transform="translate(531.472 108.594)"><path fill="url(#x)" d="M17.144-17.144l9.232 21.1-9.232 22.42z" transform="rotate(90 19.122 8.572)"/><path fill="url(#y)" d="M18.793-8.902l7.253 21.76-7.253 21.76z" transform="matrix(0 -1 -1 0 36.597 41.872)"/><path fill="url(#z)" d="M2.638-2.638h17.144l-9.232 22.42z" transform="rotate(-90 15.167 11.21)"/><path fill="url(#A)" d="M24.398-1.978h17.144l-9.232 21.1z" transform="matrix(0 -1 -1 0 42.861 48.136)"/><rect width="46.158" height="2.638" y="22.419" fill="#C0BEC0" rx="1.319"/><rect width="32.97" height="6.594" x="6.594" fill="url(#q)" rx="2"/><rect width="46.158" height="7.913" fill="url(#B)" rx="1"/></g><path fill="url(#C)" fill-rule="nonzero" stroke="#636262" stroke-width=".5" d="M590.913 324.875h3.594a3 3 0 013 3v3.594h0-6.594v-6.594z" transform="matrix(1 0 0 -1 -39 656.345)"/><path fill="url(#C)" fill-rule="nonzero" stroke="#636262" stroke-width=".5" d="M394.5 324.875h3.594a3 3 0 013 3v3.594h0-6.594v-6.594z" transform="rotate(-180 378.297 328.172)"/><path fill="url(#D)" d="M80.542 116.507h32.31c1.657.062 2.512.268 2.566.62.285 1.837-1.563 1.565-1.42 2.483.19 1.232.19 3.714 0 7.447l-32.691-.62c.157-3.59.157-5.866 0-6.827-.249-1.52-1.39-1.648-1.421-1.862-.06-.418.159-.832.656-1.241z" opacity=".4" transform="matrix(1 0 0 -1 -39 243.564)"/><g fill-rule="nonzero" transform="translate(-39)"><use fill="#000" filter="url(#E)" xlink:href="#F"/><use fill="url(#G)" xlink:href="#F"/></g><g fill-rule="nonzero" transform="translate(-39)"><use fill="#000" filter="url(#H)" xlink:href="#I"/><use fill="url(#J)" xlink:href="#I"/></g><g fill-rule="nonzero" transform="matrix(1 0 0 -1 -39 480.286)"><use fill="#000" filter="url(#K)" xlink:href="#L"/><use fill="url(#J)" xlink:href="#L"/></g><g fill-rule="nonzero" transform="translate(-39)"><use fill="#000" filter="url(#M)" xlink:href="#N"/><use fill="url(#O)" xlink:href="#N"/></g><g fill-rule="nonzero" transform="translate(-39)"><use fill="#000" filter="url(#P)" xlink:href="#Q"/><use fill="url(#R)" xlink:href="#Q"/></g><g fill-rule="nonzero" transform="translate(-39)"><use fill="#000" filter="url(#S)" xlink:href="#T"/><use fill="url(#U)" xlink:href="#T"/></g><g fill-rule="nonzero" transform="translate(-39)"><use fill="#000" filter="url(#V)" xlink:href="#W"/><use fill="url(#X)" xlink:href="#W"/></g><g fill-rule="nonzero" transform="translate(-39)"><use fill="#000" filter="url(#Y)" xlink:href="#Z"/><use fill="url(#aa)" xlink:href="#Z"/></g><g fill-rule="nonzero" transform="matrix(1 0 0 -1 -39 481.605)"><use fill="#000" filter="url(#ab)" xlink:href="#ac"/><use fill="url(#G)" xlink:href="#ac"/></g><g fill-rule="nonzero" transform="matrix(1 0 0 -1 -39 482.924)"><use fill="#000" filter="url(#ad)" xlink:href="#ae"/><use fill="url(#O)" xlink:href="#ae"/></g><g fill-rule="nonzero" transform="matrix(1 0 0 -1 -39 484.243)"><use fill="#000" filter="url(#af)" xlink:href="#ag"/><use fill="url(#R)" xlink:href="#ag"/></g><g fill-rule="nonzero" transform="matrix(1 0 0 -1 -39 485.562)"><use fill="#000" filter="url(#ah)" xlink:href="#ai"/><use fill="url(#U)" xlink:href="#ai"/></g><g fill-rule="nonzero" transform="matrix(1 0 0 -1 -39 486.88)"><use fill="#000" filter="url(#aj)" xlink:href="#ak"/><use fill="url(#al)" xlink:href="#ak"/></g><g fill-rule="nonzero" transform="matrix(1 0 0 -1 -39 488.2)"><use fill="#000" filter="url(#am)" xlink:href="#an"/><use fill="url(#ao)" xlink:href="#an"/></g><g fill-rule="nonzero" transform="translate(-39)"><use fill="#000" filter="url(#ap)" xlink:href="#aq"/><use fill="url(#ar)" xlink:href="#aq"/></g><g fill-rule="nonzero" transform="translate(-39)"><use fill="#000" filter="url(#as)" xlink:href="#at"/><use fill="url(#au)" xlink:href="#at"/></g><g fill-rule="nonzero" transform="matrix(1 0 0 -1 -39 503.365)"><use fill="#000" filter="url(#av)" xlink:href="#aw"/><use fill="url(#au)" xlink:href="#aw"/></g><g fill-rule="nonzero" transform="translate(-39)"><use fill="#000" filter="url(#ax)" xlink:href="#ay"/><use fill="url(#az)" xlink:href="#ay"/></g><g fill-rule="nonzero" transform="translate(-39)"><use fill="#000" filter="url(#aA)" xlink:href="#aB"/><use fill="url(#aC)" xlink:href="#aB"/></g><g fill-rule="nonzero" transform="matrix(1 0 0 -1 -39 508.64)"><use fill="#000" filter="url(#aD)" xlink:href="#aE"/><use fill="url(#aF)" xlink:href="#aE"/></g><g fill-rule="nonzero" transform="matrix(1 0 0 -1 -39 529.082)"><use fill="#000" filter="url(#aG)" xlink:href="#aH"/><use fill="url(#az)" xlink:href="#aH"/></g><g fill-rule="nonzero" transform="matrix(1 0 0 -1 -39 518.531)"><use fill="#000" filter="url(#aI)" xlink:href="#aJ"/><use fill="url(#aC)" xlink:href="#aJ"/></g><g transform="translate(621.865 174.41)"><mask id="aM" fill="#fff"><use xlink:href="#aK"/></mask><use fill="url(#aL)" fill-rule="nonzero" xlink:href="#aK"/><g stroke="#FFF" stroke-linecap="square" stroke-width=".5" mask="url(#aM)" opacity=".603"><path d="M-335.28 118.383l563.783-565.102M-335.28 122.339l563.783-565.101M-335.28 126.296l563.783-565.102M-335.28 130.252l563.783-565.101M-335.28 134.208l563.783-565.101M-335.28 138.165l563.783-565.102M-335.28 142.121L228.503-422.98M-335.28 146.077l563.783-565.101M-335.28 150.034l563.783-565.102M-335.28 153.99l563.783-565.101M-335.28 157.946l563.783-565.101M-335.28 161.903l563.783-565.102M-335.28 165.859l563.783-565.101M-335.28 169.816l563.783-565.102M-335.28 173.772l563.783-565.101M-335.28 177.728l563.783-565.101M-335.28 181.685l563.783-565.102M-335.28 185.641L228.503-379.46M-335.28 189.597l563.783-565.101M-335.28 193.554l563.783-565.102M-335.28 197.51l563.783-565.101M-335.28 201.467l563.783-565.102M-335.28 205.423l563.783-565.101M-335.28 209.379l563.783-565.101M-335.28 213.336l563.783-565.102M-335.28 217.292l563.783-565.101M-335.28 221.248l563.783-565.101M-335.28 225.205l563.783-565.102M-335.28 229.161L228.503-335.94M-335.28 233.117l563.783-565.101M-335.28 237.074l563.783-565.102M-335.28 241.03l563.783-565.101M-335.28 244.987l563.783-565.102M-335.28 248.943l563.783-565.101M-335.28 252.899l563.783-565.101M-335.28 256.856l563.783-565.102M-335.28 260.812l563.783-565.101M-335.28 264.768l563.783-565.101M-335.28 268.725l563.783-565.102M-335.28 272.681L228.503-292.42M-335.28 276.638l563.783-565.102M-335.28 280.594l563.783-565.101M-335.28 284.55l563.783-565.101M-335.28 288.507l563.783-565.102M-335.28 292.463l563.783-565.101M-335.28 296.419l563.783-565.101M-335.28 300.376l563.783-565.102M-335.28 304.332l563.783-565.101M-335.28 308.288l563.783-565.101M-335.28 312.245l563.783-565.102M-335.28 316.201L228.503-248.9M-335.28 320.158l563.783-565.102M-335.28 324.114l563.783-565.101M-335.28 328.07l563.783-565.101M-335.28 332.027l563.783-565.102M-335.28 335.983l563.783-565.101M-335.28 339.939l563.783-565.101M-335.28 343.896l563.783-565.102M-335.28 347.852l563.783-565.101M-335.28 351.809l563.783-565.102M-335.28 355.765l563.783-565.101M-335.28 359.721L228.503-205.38M-335.28 363.678l563.783-565.102M-335.28 367.634l563.783-565.101M-335.28 371.59l563.783-565.101M-335.28 375.547l563.783-565.102M-335.28 379.503l563.783-565.101M-335.28 383.459l563.783-565.101M-335.28 387.416l563.783-565.102M-335.28 391.372l563.783-565.101M-335.28 395.329l563.783-565.102M-335.28 399.285l563.783-565.101M-335.28 403.241L228.503-161.86M-335.28 407.198l563.783-565.102M-335.28 411.154l563.783-565.101M-335.28 415.11l563.783-565.101M-335.28 419.067l563.783-565.102M-335.28 423.023l563.783-565.101M-335.28 426.98l563.783-565.102M-335.28 430.936l563.783-565.101M-335.28 434.892l563.783-565.101M-335.28 438.849l563.783-565.102M-335.28 442.805l563.783-565.101M-335.28 446.761L228.503-118.34M-335.28 450.718l563.783-565.102M-335.28 454.674l563.783-565.101M-335.28 458.631l563.783-565.102M-335.28 462.587l563.783-565.102M-335.28 466.543L228.503-98.558M-335.28 470.5L228.503-94.602M-335.28 474.456L228.503-90.645M-335.28 478.412L228.503-86.689M-335.28 482.369L228.503-82.733M-335.28 486.325L228.503-78.776M-335.28 490.281L228.503-74.82M-335.28 494.238L228.503-70.864M-335.28 498.194L228.503-66.907M-335.28 502.151L228.503-62.951M-335.28 506.107L228.503-58.994M-335.28 510.063L228.503-55.038M-335.28 514.02L228.503-51.082M-335.28 517.976L228.503-47.125M-335.28 521.932L228.503-43.169M-335.28 525.889L228.503-39.213M-335.28 529.845L228.503-35.256M-335.28 533.802L228.503-31.3M-335.28 537.758L228.503-27.343M-335.28 541.714L228.503-23.387M-335.28 545.671L228.503-19.431M-335.28 549.627L228.503-15.474M-335.28 553.583L228.503-11.518M-335.28 557.54L228.503-7.562M-335.28 561.496L228.503-3.605M-335.28 565.452L228.503.351M-335.28 569.409L228.503 4.307M-335.28 573.365L228.503 8.264M-335.28 577.322L228.503 12.22M-335.28 581.278L228.503 16.177M-335.28 585.234L228.503 20.133M-335.28 589.191L228.503 24.089M-335.28 593.147L228.503 28.046M-335.28 597.103L228.503 32.002M-335.28 601.06L228.503 35.958M-335.28 605.016L228.503 39.915M-335.28 608.973L228.503 43.871M-335.28 612.929L228.503 47.828M-335.28 616.885L228.503 51.784M-335.28 620.842L228.503 55.74M-335.28 624.798L228.503 59.697M-335.28 628.754L228.503 63.653M-335.28 632.711L228.503 67.609M-335.28 636.667L228.503 71.566M-335.28 640.623L228.503 75.522M-335.28 644.58L228.503 79.478M-335.28 648.536L228.503 83.435M-335.28 652.493L228.503 87.391M-335.28 656.449L228.503 91.348M-335.28 660.405L228.503 95.304M-335.28 664.362L228.503 99.26M-335.28 668.318l563.783-565.101M-335.28 672.274l563.783-565.101M-335.28 676.231l563.783-565.102M-335.28 680.187l563.783-565.101M-335.28 684.144l563.783-565.102" opacity=".148"/></g></g><g fill-rule="nonzero" transform="translate(-39)"><use fill="#000" filter="url(#aN)" xlink:href="#aO"/><use fill="url(#aP)" xlink:href="#aO"/></g><path fill="url(#aQ)" d="M688.51 220.885v1.319c-5.003-.557-7.64.322-7.913 2.638-.363 3.085 4.082 3.693 6.004 6.563a7.914 7.914 0 11-13.832 3.993l-.084-.006c.038-3.263.697-5.9 1.978-7.913 1.92-3.018 3.956-5.934 7.253-6.594 2.198-.44 4.396-.44 6.594 0z" filter="url(#aR)" transform="translate(-39)"/><path fill="url(#aQ)" d="M688.51 183.96v1.318c-5.003-.558-7.64.322-7.913 2.637-.363 3.086 4.082 3.693 6.004 6.564a7.913 7.913 0 11-13.832 3.993l-.084-.006c.038-3.263.697-5.901 1.978-7.913 1.92-3.018 3.956-5.935 7.253-6.594 2.198-.44 4.396-.44 6.594 0z" filter="url(#aS)" transform="matrix(1 0 0 -1 -39 391.177)"/><path fill="url(#aT)" d="M725.171 231.8c1.025 1.334 1.978 6.76 1.978 8.573a7.912 7.912 0 01-15.825 0c0-.502.07-1.273.194-2.155a5.919 5.919 0 00-4.81-2.461 5.936 5.936 0 00-5.882 5.14c.14.704.562 1.409 1.266 2.113h-3.956c.88-.879 1.319-1.758 1.319-2.637l.12-.001a7.255 7.255 0 0112.224-3.847c.371-1.955.921-3.975 1.503-4.724 1.448-1.864 3.392.659 5.935.659 2.558 0 4.488-2.543 5.934-.66z" filter="url(#aU)" transform="matrix(1 0 0 -1 -39 479.391)"/><path fill="url(#aV)" d="M718.654 180.992a7.913 7.913 0 11-7.644 5.861 5.936 5.936 0 00-10.766 2.574c.139.705.561 1.41 1.266 2.115h-3.956c.879-.88 1.318-1.758 1.318-2.637h.12a7.255 7.255 0 0112.561-3.495 7.912 7.912 0 017.101-4.418z" filter="url(#aW)" transform="translate(-39)"/><g fill-rule="nonzero" transform="translate(-39)"><use fill="#000" filter="url(#aX)" xlink:href="#aY"/><path fill="url(#aZ)" fill-rule="evenodd" stroke="#636262" stroke-linejoin="square" stroke-width=".5" d="M738.651 175.825v76.372h-77.536v-76.372h77.536zm-2.994 3.048H664.11v70.276h71.548v-70.276z"/></g><path fill="url(#ba)" fill-rule="nonzero" stroke="#636262" stroke-width=".5" d="M712.967 239.346v25.721l14.006-3.82v-18.081l-14.006-3.82z" transform="matrix(0 -1 -1 0 933.176 972.176)"/><path fill="url(#ba)" fill-rule="nonzero" stroke="#636262" stroke-width=".5" d="M672.935 168.45v25.721l14.006-3.82V172.27l-14.006-3.82z" transform="rotate(90 660.438 161.81)"/><path fill="url(#bb)" fill-rule="nonzero" stroke="#636262" stroke-width=".5" d="M725.997 206.049a3.502 3.502 0 013.394 2.639l9.603-.002v10.55l-9.604.003a3.501 3.501 0 01-3.393 2.635h-2.231a3.501 3.501 0 01-3.392-2.634l-70.874.012v-10.55l70.872-.013a3.503 3.503 0 013.394-2.64h2.231z" transform="translate(-39)"/><g stroke-width=".5"><path fill="url(#bc)" fill-rule="nonzero" stroke="#636262" d="M7.913 0h6.594v44.18H7.913c0-7.034-.88-10.55-2.638-10.55H0V12.528h5.275c1.759 0 2.638-4.177 2.638-12.529z" transform="translate(649.818 191.542)"/><path fill="#000" fill-opacity=".04" stroke="#636262" d="M657.731 205.389h6.594v7.913h-6.594zm0 7.913h6.594v7.913h-6.594z" opacity=".5"/><path fill="#000" fill-opacity=".06" stroke="#636262" d="M657.731 200.114h6.594v5.275h-6.594zm0 21.101h6.594v5.275h-6.594z" opacity=".5"/><path fill="#000" fill-opacity=".08" stroke="#636262" d="M657.731 196.158h6.594v3.956h-6.594zm0 30.332h6.594v3.956h-6.594z" opacity=".5"/><path fill="#000" fill-opacity=".104" stroke="#636262" d="M657.731 193.52h6.594v2.638h-6.594z" opacity=".5"/><path fill="#000" fill-opacity=".1" stroke="#636262" d="M657.731 230.446h6.594v3.297h-6.594z" opacity=".7"/><path stroke="url(#bd)" stroke-linecap="square" d="M1.319 33.629v-21.1m1.319 21.1v-21.1m1.318 21.1v-21.1" transform="translate(649.818 191.542)"/><path stroke="url(#be)" stroke-linecap="square" d="M5.275 33.629v-21.1" transform="translate(649.818 191.542)"/></g><path fill="#0F436B" d="M690.202 206.049v5.275h-2.638v-5.275h2.638zm-6.594 0v5.275h-2.638v-5.275h2.638zm6.594 15.825V216.6h-2.638v5.275h2.638zm-6.594 0V216.6h-2.638v5.275h2.638zm-53.88-14.506h6.594v3.956h-6.594zm0 9.231h6.594v3.956h-6.594zm39.373-9.231h6.594v3.956h-6.594zm0 9.231h6.594v3.956h-6.594z"/><path fill="url(#bf)" style="mix-blend-mode:darken" d="M0 328h792v91H0z" transform="translate(-39)"/><path stroke="#B36D49" stroke-linecap="square" stroke-width="1.5" d="M653.362 273.706L584.5 273.5"/><g fill-rule="nonzero"><path fill="url(#bg)" d="M4 0h47.481c2.21 0 4 1.79 4 4v24.836c0 2.21-1.79 4-4 4H4c-2.21 0-4-1.79-4-4V4c0-2.21 1.79-4 4-4z" transform="translate(596 280)"/><path fill="url(#bh)" d="M20.381-11.323h14.72v55.482h-14.72z" transform="rotate(90 185.74 454.418)"/></g><path stroke="#B36D49" stroke-linecap="square" stroke-width="1.5" d="M653.5 273.5v-21m-29 27.5v-5"/><path stroke="#FFF" stroke-dasharray="2" d="M142 126.704V21m16-15h595.999l1.797 273.51m.204 1.5l-94.845-.239L661.5 354m0 0l-519.5-.216v-49.44" opacity=".4"/><g fill-rule="nonzero" stroke-width=".5"><path fill="url(#bi)" stroke="#636262" d="M42.524 77.069h6.793v18.116h-6.793z" transform="rotate(90 322.42 440.627)"/><path fill="url(#bj)" stroke="#7F7F7F" d="M41.392 66.878h7.925v24.91h-7.925z" transform="rotate(90 321.854 433.833)"/><path fill="url(#bk)" stroke="#636262" d="M18.746 8h18.116v18.116H18.746z" transform="rotate(-180 343.304 56.058)"/><path fill="url(#bi)" stroke="#636262" d="M42.524 20.455h6.793v18.116h-6.793z" transform="rotate(90 322.42 384.013)"/><path fill="url(#bl)" stroke="#636262" d="M36.862 8H54.98v7.116c0 6.076-4.925 11-11 11h-7.117 0V8z" transform="matrix(1 0 0 -1 631 112.116)"/><path fill="url(#bj)" stroke="#636262" d="M41.392 23.852h7.925v24.91h-7.925z" transform="rotate(90 321.854 390.807)"/><path fill="url(#bm)" stroke="#636262" d="M57.438 39.266h-95.5v17.616h95.5V39.266z" transform="rotate(90 286.188 402.574)"/></g><path fill="#FFF" fill-rule="nonzero" d="M553.625 105v-4.564l-2.096 2.097L551 102l3-3 3 3-.529.529-2.096-2.093V105zM58.625 93v4.564l-2.096-2.096L56 96l3 3 3-3-.529-.529-2.096 2.093V93z" opacity=".5"/><g transform="translate(130)"><path stroke="#FFF" d="M.256 6H27.5" opacity=".5"/><circle cx="12.087" cy="5.815" r="5.095" fill="#33A7DF" transform="rotate(-90 12.087 5.815)"/><circle cx="2.265" cy="5.765" r="2.265" fill="#EF3340" transform="rotate(-90 2.265 5.765)"/><path stroke="#FFF" d="M12 11v10h0" opacity=".5"/></g><path stroke="#FFF" stroke-dasharray="2" d="M157 316.5v-11m0-179.5V63.5M173.5 49h409.702l.556 85.572m1.062 148.705l.082 32.118m-1.42.605H157" opacity=".4"/><g transform="translate(146 43)"><circle cx="2.265" cy="6.065" r="2.265" fill="#EF3340" transform="rotate(-90 2.265 6.065)"/><path stroke="#FFF" d="M4.5 6h22M11 10v10h0" opacity=".5"/><circle cx="11.69" cy="5.153" r="5.095" fill="#33A7DF" transform="rotate(-90 11.69 5.153)"/></g><g fill-rule="nonzero" stroke="#636262" stroke-width=".5"><path fill="url(#bn)" d="M0 18.116h23.778l3 8.704-3 9.413H0z" transform="rotate(-180 357.14 171.66)"/><path fill="url(#bo)" d="M23.381 0h18.116v18.116H23.381z" transform="rotate(90 231.706 497.295)"/><path fill="url(#bl)" d="M23.381 18.116h18.116v7.117c0 6.075-4.925 11-11 11h-7.116 0V18.116z" transform="translate(687.503 288.97)"/><path fill="url(#bp)" d="M47.226 29.192h-75.5v17.616h75.5V29.192z" transform="rotate(90 215.976 503.5)"/></g></g></svg>