<svg xmlns="http://www.w3.org/2000/svg" xmlns:xlink="http://www.w3.org/1999/xlink" width="438" height="163"><defs><linearGradient id="m" x1="50.034%" x2="50.034%" y1="99.984%" y2="-.004%"><stop offset="0%" stop-color="#8B878D"/><stop offset="13.66%" stop-color="#9F9CA1"/><stop offset="42.07%" stop-color="#D9D8DA"/><stop offset="51.52%" stop-color="#F3F4F4"/><stop offset="100%" stop-color="#807B80"/></linearGradient><linearGradient id="b" x1="50.034%" x2="50.034%" y1="114.901%" y2="-16.677%"><stop offset="0%" stop-color="#363D43"/><stop offset="52.238%" stop-color="#82888D"/><stop offset="100%" stop-color="#363D43"/></linearGradient><linearGradient id="f" x1=".453%" x2="99.615%" y1="50.403%" y2="50.403%"><stop offset="0%" stop-color="#AFACB1"/><stop offset="28.499%" stop-color="#BAB9BC"/><stop offset="42.07%" stop-color="#D9D8DA"/><stop offset="58.437%" stop-color="#F3F4F4"/><stop offset="100%" stop-color="#958F95"/></linearGradient><linearGradient id="y" x1="50.034%" x2="50.034%" y1="99.984%" y2="-.004%"><stop offset="0%" stop-color="#212F42"/><stop offset="50.465%" stop-color="#004C97"/><stop offset="100%" stop-color="#213042"/></linearGradient><linearGradient id="x" x1="50.034%" x2="50.034%" y1="99.984%" y2="-.004%"><stop offset="0%" stop-color="#8B878D"/><stop offset="13.66%" stop-color="#9F9CA1"/><stop offset="42.07%" stop-color="#D9D8DA"/><stop offset="51.52%" stop-color="#F3F4F4"/><stop offset="100%" stop-color="#807B80"/></linearGradient><linearGradient id="g" x1="50.034%" x2="50.034%" y1="99.984%" y2="-.004%"><stop offset="0%" stop-color="#8B878D"/><stop offset="13.66%" stop-color="#9F9CA1"/><stop offset="42.07%" stop-color="#D9D8DA"/><stop offset="51.52%" stop-color="#F3F4F4"/><stop offset="100%" stop-color="#807B80"/></linearGradient><linearGradient id="h" x1="50.034%" x2="50.034%" y1="99.984%" y2="-.004%"><stop offset="0%" stop-color="#8B878D"/><stop offset="13.66%" stop-color="#9F9CA1"/><stop offset="42.07%" stop-color="#D9D8DA"/><stop offset="51.52%" stop-color="#F3F4F4"/><stop offset="100%" stop-color="#807B80"/></linearGradient><linearGradient id="i" x1="50.034%" x2="50.034%" y1="99.984%" y2="-.004%"><stop offset="0%" stop-color="#8B878D"/><stop offset="13.66%" stop-color="#9F9CA1"/><stop offset="42.07%" stop-color="#D9D8DA"/><stop offset="51.52%" stop-color="#F3F4F4"/><stop offset="100%" stop-color="#807B80"/></linearGradient><linearGradient id="j" x1="50.034%" x2="50.034%" y1="99.984%" y2="-.004%"><stop offset="0%" stop-color="#8B878D"/><stop offset="13.66%" stop-color="#9F9CA1"/><stop offset="42.07%" stop-color="#D9D8DA"/><stop offset="51.52%" stop-color="#F3F4F4"/><stop offset="100%" stop-color="#807B80"/></linearGradient><linearGradient id="k" x1="50.034%" x2="50.034%" y1="99.984%" y2="-.004%"><stop offset="0%" stop-color="#8B878D"/><stop offset="13.66%" stop-color="#9F9CA1"/><stop offset="42.07%" stop-color="#D9D8DA"/><stop offset="51.52%" stop-color="#F3F4F4"/><stop offset="100%" stop-color="#807B80"/></linearGradient><linearGradient id="l" x1="50.034%" x2="50.034%" y1="110.798%" y2="-15.403%"><stop offset="0%" stop-color="#8B878D"/><stop offset="13.66%" stop-color="#9F9CA1"/><stop offset="39.007%" stop-color="#D9D8DA"/><stop offset="55.749%" stop-color="#F3F4F4"/><stop offset="100%" stop-color="#807B80"/></linearGradient><linearGradient id="w" x1="50.034%" x2="50.034%" y1="99.984%" y2="-.004%"><stop offset="0%" stop-color="#8B878D"/><stop offset="13.66%" stop-color="#9F9CA1"/><stop offset="42.07%" stop-color="#D9D8DA"/><stop offset="51.52%" stop-color="#F3F4F4"/><stop offset="100%" stop-color="#807B80"/></linearGradient><linearGradient id="n" x1="50.034%" x2="50.034%" y1="99.984%" y2="-.004%"><stop offset="0%" stop-color="#8B878D"/><stop offset="13.66%" stop-color="#9F9CA1"/><stop offset="42.07%" stop-color="#D9D8DA"/><stop offset="51.52%" stop-color="#F3F4F4"/><stop offset="100%" stop-color="#807B80"/></linearGradient><linearGradient id="o" x1="50.034%" x2="50.034%" y1="99.984%" y2="-.004%"><stop offset="0%" stop-color="#8B878D"/><stop offset="13.66%" stop-color="#9F9CA1"/><stop offset="42.07%" stop-color="#D9D8DA"/><stop offset="51.52%" stop-color="#F3F4F4"/><stop offset="100%" stop-color="#807B80"/></linearGradient><linearGradient id="p" x1="50.034%" x2="50.034%" y1="99.984%" y2="-.004%"><stop offset="0%" stop-color="#8B878D"/><stop offset="13.66%" stop-color="#9F9CA1"/><stop offset="42.07%" stop-color="#D9D8DA"/><stop offset="51.52%" stop-color="#F3F4F4"/><stop offset="100%" stop-color="#807B80"/></linearGradient><linearGradient id="r" x1="50.034%" x2="50.034%" y1="99.984%" y2="-.004%"><stop offset="0%" stop-color="#8B878D"/><stop offset="13.66%" stop-color="#9F9CA1"/><stop offset="42.07%" stop-color="#D9D8DA"/><stop offset="51.52%" stop-color="#F3F4F4"/><stop offset="100%" stop-color="#807B80"/></linearGradient><linearGradient id="v" x1="50.034%" x2="50.034%" y1="99.984%" y2="-.004%"><stop offset="0%" stop-color="#8B878D"/><stop offset="13.66%" stop-color="#9F9CA1"/><stop offset="42.07%" stop-color="#D9D8DA"/><stop offset="51.52%" stop-color="#F3F4F4"/><stop offset="100%" stop-color="#807B80"/></linearGradient><linearGradient id="z" x1="50.034%" x2="50.034%" y1="99.984%" y2="-.004%"><stop offset="0%" stop-color="#8B878D"/><stop offset="13.66%" stop-color="#9F9CA1"/><stop offset="42.07%" stop-color="#D9D8DA"/><stop offset="51.52%" stop-color="#F3F4F4"/><stop offset="100%" stop-color="#807B80"/></linearGradient><path id="t" d="M0 0h7.913v26.376H0z"/><path id="q" d="M0 0h7.913v26.376H0z"/><path id="a" d="M400.912 134.517c0-11.43-11.002-17.37-33.007-17.818-19.858-.405-38.282 2.62-55.352-3.923-36.396-13.951-51.228-25.113-69.614-26.81l-5.51-.223c-13.844.076-32.323 2.713-55.436 7.911V80.466c-59.899.233-94.847.233-104.844 0-25.978-.604-20.226 8.502-36.84 9.307-2.524.709-5.51 1.138-9.374 1.113C11.097 90.756 0 85.082 0 68.597c0-.246.003-.49.008-.731-.005-.194-.008-.39-.008-.588C0 50.793 11.097 45.12 30.935 44.99c9.384-.061 13.591 2.562 18.56 5.344 6.182 2.624 12.882 5.42 27.654 5.076 9.997-.232 44.945-.232 104.844 0V42.221c22.527 5.067 40.652 7.7 54.374 7.9l7.423-.296c18-1.959 32.93-12.99 68.763-26.726 17.063-6.541 35.489-3.493 55.33-3.922 22.02-.476 33.03-6.868 33.03-19.177z"/><path id="e" d="M400.912 0v134.517c0-11.43-11.002-17.37-33.007-17.818-19.858-.405-38.282 2.62-55.352-3.923-36.395-13.951-51.227-25.112-69.612-26.81l-5.505-.223c-13.341.072-30.988 2.524-52.94 7.354l-2.503.557V80.466l-40.246.13c-35.567.088-57.1.045-64.598-.13-25.976-.604-20.227 8.5-36.837 9.307-2.524.708-5.512 1.138-9.377 1.113C11.097 90.756 0 85.082 0 68.597c0-.251 0-.5.008-.747L0 67.566v-.288C0 50.793 11.097 45.12 30.935 44.99c9.383-.061 13.59 2.561 18.558 5.343l1.616.68c5.672 2.357 12.285 4.624 25.283 4.412l3.223-.06c12.546-.186 46.672-.171 102.378.045V42.221l2.486.553c21.39 4.708 38.693 7.157 51.91 7.348l7.393-.297c18.003-1.955 32.933-12.988 68.771-26.726 17.063-6.541 35.489-3.493 55.33-3.922 22.02-.476 33.03-6.868 33.03-19.177zm-2.638 13.124c-5.585 5.404-15.538 8.271-29.538 8.67l-1.212.029-1.655.026c-2.55.03-5.069.008-8.565-.065l-7.685-.184c-18.197-.402-26.286.267-35.674 3.792l-2.13.816c-9.66 3.728-15.281 6.136-27.97 11.922l-8.55 3.913-2.792 1.266c-9.378 4.22-14.75 6.276-20.503 7.706l-.79.191a57.868 57.868 0 01-7.143 1.242l-.18.013-7.393.296-.143.002c-12.74-.184-29.129-2.421-49.193-6.705l-2.527-.546v12.549l-51.269-.16c-27.901-.055-45.937-.018-54.089.11l-2.9.056c-11.582.203-17.815-1.134-26.632-4.769l-1.278-.535-.258-.126-2.397-1.337c-4.999-2.71-8.553-3.71-14.856-3.67l-1.201.016c-18.801.345-26.943 5.907-27.113 19.213v.675l.007.242-.007.825c0 13.612 8.114 19.288 27.113 19.637l1.201.015c3.409.022 6.185-.325 8.648-1.016l.287-.08.856-.045c4.745-.281 7.154-1.125 10.716-3.3l1.843-1.142c5.849-3.539 11.401-4.999 22.493-4.862l6.542.104c10.196.106 30.01.123 59.422.051l42.872-.14v12.548l2.496-.54c20.645-4.408 37.409-6.651 50.416-6.72l5.504.223.136.009c2.675.247 5.324.689 8.026 1.33l.863.21c6.011 1.5 11.626 3.692 21.856 8.331l11.325 5.176 4.086 1.851c8.45 3.808 13.606 5.982 20.873 8.809l3.728 1.436.909.333c9.053 3.25 17.225 3.863 34.922 3.469l7.63-.185c3.48-.074 5.985-.097 8.526-.07l2.031.033 1.584.042c13.577.453 23.255 3.112 28.732 8.079V13.124z"/><filter id="d" width="104.7%" height="114.1%" x="-2.6%" y="-6.3%" filterUnits="objectBoundingBox"><feOffset dx="-1" dy="1" in="SourceAlpha" result="shadowOffsetOuter1"/><feGaussianBlur in="shadowOffsetOuter1" result="shadowBlurOuter1" stdDeviation="3"/><feColorMatrix in="shadowBlurOuter1" values="0 0 0 0 0 0 0 0 0 0 0 0 0 0 0 0 0 0 0.230550699 0"/></filter></defs><g fill="none" fill-rule="evenodd"><g transform="translate(7 2)"><mask id="c" fill="#fff"><use xlink:href="#a"/></mask><use fill="url(#b)" fill-rule="nonzero" xlink:href="#a"/><g stroke="#FFF" stroke-linecap="square" stroke-width=".5" mask="url(#c)" opacity=".148"><path d="M-100.228 116.054l563.783-565.102M-100.228 120.01l563.783-565.101m-563.783 569.058l563.783-565.102m-563.783 569.058l563.783-565.101m-563.783 569.057l563.783-565.101m-563.783 569.058l563.783-565.102m-563.783 569.058L463.555-425.31m-563.783 569.058l563.783-565.101m-563.783 569.058l563.783-565.102M-100.228 151.66l563.783-565.1m-563.783 569.057l563.783-565.101m-563.783 569.058l563.783-565.102M-100.228 163.53l563.783-565.101m-563.783 569.058l563.783-565.102m-563.783 569.058l563.783-565.101m-563.783 569.057l563.783-565.101m-563.783 569.058l563.783-565.102m-563.783 569.058L463.555-381.79m-563.783 569.058l563.783-565.101m-563.783 569.058l563.783-565.102M-100.228 195.18l563.783-565.1m-563.783 569.058l563.783-565.102m-563.783 569.058l563.783-565.101M-100.228 207.05l563.783-565.101m-563.783 569.058l563.783-565.102m-563.783 569.058l563.783-565.101m-563.783 569.057l563.783-565.101m-563.783 569.058l563.783-565.102m-563.783 569.058L463.555-338.27m-563.783 569.058l563.783-565.101m-563.783 569.058l563.783-565.102M-100.228 238.7l563.783-565.1m-563.783 569.058l563.783-565.102m-563.783 569.058l563.783-565.101M-100.228 250.57l563.783-565.101m-563.783 569.058l563.783-565.102m-563.783 569.058l563.783-565.101m-563.783 569.057l563.783-565.101m-563.783 569.058l563.783-565.102m-563.783 569.058L463.555-294.75m-563.783 569.059l563.783-565.102m-563.783 569.058l563.783-565.101M-100.228 282.22l563.783-565.1m-563.783 569.058l563.783-565.102m-563.783 569.058l563.783-565.101M-100.228 294.09l563.783-565.101m-563.783 569.058l563.783-565.102m-563.783 569.058l563.783-565.101m-563.783 569.057l563.783-565.101m-563.783 569.058l563.783-565.102m-563.783 569.058L463.555-251.23m-563.783 569.059l563.783-565.102m-563.783 569.058l563.783-565.101M-100.228 325.74l563.783-565.1m-563.783 569.058l563.783-565.102m-563.783 569.058l563.783-565.101M-100.228 337.61l563.783-565.101m-563.783 569.058l563.783-565.102m-563.783 569.058l563.783-565.101M-100.228 349.48l563.783-565.102m-563.783 569.058l563.783-565.101m-563.783 569.057L463.555-207.71m-563.783 569.059l563.783-565.102m-563.783 569.058l563.783-565.101M-100.228 369.26l563.783-565.1m-563.783 569.058l563.783-565.102m-563.783 569.058l563.783-565.101M-100.228 381.13l563.783-565.101m-563.783 569.058l563.783-565.102m-563.783 569.058l563.783-565.101M-100.228 393l563.783-565.102m-563.783 569.058l563.783-565.101m-563.783 569.057L463.555-164.19m-563.783 569.059l563.783-565.102m-563.783 569.058l563.783-565.101M-100.228 412.78l563.783-565.1m-563.783 569.058l563.783-565.102m-563.783 569.058l563.783-565.101M-100.228 424.65l563.783-565.1m-563.783 569.057l563.783-565.101m-563.783 569.057l563.783-565.101M-100.228 436.52l563.783-565.102m-563.783 569.058l563.783-565.101m-563.783 569.057L463.555-120.67m-563.783 569.059l563.783-565.102m-563.783 569.058l563.783-565.101m-563.783 569.058L463.555-108.8m-563.783 569.058l563.783-565.102m-563.783 569.058l563.783-565.101M-100.228 468.17l563.783-565.1m-563.783 569.057L463.555-92.974m-563.783 569.057L463.555-89.018M-100.228 480.04L463.555-85.062m-563.783 569.058L463.555-81.105m-563.783 569.057L463.555-77.15m-563.783 569.059L463.555-73.193m-563.783 569.058L463.555-69.236m-563.783 569.058L463.555-65.28m-563.783 569.058L463.555-61.323m-563.783 569.057L463.555-57.367M-100.228 511.69l563.783-565.1m-563.783 569.057L463.555-49.454m-563.783 569.057L463.555-45.498M-100.228 523.56L463.555-41.542m-563.783 569.058L463.555-37.585m-563.783 569.058L463.555-33.63m-563.783 569.059L463.555-29.672m-563.783 569.057L463.555-25.716m-563.783 569.058L463.555-21.76m-563.783 569.058L463.555-17.803m-563.783 569.057L463.555-13.847M-100.228 555.21L463.555-9.89m-563.783 569.057L463.555-5.934m-563.783 569.057L463.555-1.978M-100.228 567.08L463.555 1.978m-563.783 569.058L463.555 5.935m-563.783 569.058L463.555 9.89m-563.783 569.059L463.555 13.848m-563.783 569.057L463.555 17.804m-563.783 569.058L463.555 21.76m-563.783 569.058L463.555 25.717m-563.783 569.057L463.555 29.673M-100.228 598.73l563.783-565.1m-563.783 569.057L463.555 37.586m-563.783 569.058L463.555 41.542M-100.228 610.6L463.555 45.499m-563.783 569.057L463.555 49.455m-563.783 569.058L463.555 53.41m-563.783 569.059L463.555 57.368m-563.783 569.057L463.555 61.324m-563.783 569.058L463.555 65.28m-563.783 569.058L463.555 69.237m-563.783 569.057L463.555 73.193M-100.228 642.25l563.783-565.1m-563.783 569.057L463.555 81.106m-563.783 569.058L463.555 85.062M-100.228 654.12L463.555 89.019m-563.783 569.057L463.555 92.975m-563.783 569.058L463.555 96.93m-563.783 569.059l563.783-565.101m-563.783 569.057l563.783-565.101m-563.783 569.058L463.555 108.8m-563.783 569.058l563.783-565.101m-563.783 569.058l563.783-565.102"/></g></g><g fill-rule="nonzero" transform="translate(7 2)"><use fill="#000" filter="url(#d)" xlink:href="#e"/><use fill="url(#f)" xlink:href="#e"/></g><path fill="url(#g)" fill-rule="nonzero" stroke="#636262" stroke-width=".5" d="M367.283 56.708l3.956 5.275h4.616v-2.637h9.232l-.001 2.637h30.766a4 4 0 014 4v2.55a4 4 0 01-4 4h-30.766v2.638h-9.23l-.001-2.638h-4.616l-3.956 5.276H338.27l-3.957-5.276h-15.122a4 4 0 01-4-4v-2.55a4 4 0 014-4h15.122l3.957-5.275h29.013z" transform="translate(7 2)"/><path fill="#004C97" d="M330.103 62.664h6.594v3.956h-6.594zm0 9.232h6.594v3.956h-6.594zm65.94-9.232h6.594v3.956h-6.594zm-3.956-1.318v5.275h-2.638v-5.275h2.638zm-6.594 0v5.275h-2.638v-5.275h2.638zm6.594 10.55v5.275h-2.638v-5.275h2.638zm-6.594 0v5.275h-2.638v-5.275h2.638zm10.55 0h6.594v3.956h-6.594z"/><path fill="url(#h)" fill-rule="nonzero" stroke="#636262" stroke-width=".5" d="M58.027 59.346v2.637h185.95v10.55H58.026v2.638h-7.913v-2.638H35.606a5.275 5.275 0 010-10.55h14.506l.001-2.637h7.913z" transform="translate(7 2)"/><path fill="url(#i)" fill-rule="nonzero" stroke="#636262" stroke-width=".5" d="M35.607 55.39h6.594l6.594 6.593H35.607z" transform="translate(7 2)"/><path fill="#004C97" d="M240.426 62.664h6.594v3.956h-6.594z"/><path fill="url(#i)" fill-rule="nonzero" stroke="#636262" stroke-width=".5" d="M35.607 72.533h6.594l6.594 6.594H35.607z" transform="matrix(1 0 0 -1 7 153.66)"/><path fill="url(#j)" fill-rule="nonzero" stroke="#636262" stroke-width=".5" d="M315.191 56.708h3.956v21.101h-3.956z" transform="translate(7 2)"/><path fill="#004C97" d="M240.426 71.896h6.594v3.956h-6.594zM72.939 62.664h6.594v3.956h-6.594zm0 9.232h6.594v3.956h-6.594zm-6.593-10.55v5.275h-2.638v-5.275h2.638zm-6.594 0v5.275h-2.638v-5.275h2.638zm6.594 10.55v5.275h-2.638v-5.275h2.638zm-6.594 0v5.275h-2.638v-5.275h2.638z"/><g fill-rule="nonzero" stroke="#636262" stroke-width=".5"><path fill="url(#k)" d="M90.746 9.934L5.42 20.435.25 28.19v10.399l5.17 7.756 85.326 11.814V9.934z" transform="translate(103.272 35.87)"/><path fill="url(#l)" d="M13.478 0l.899.948-1.253 1.259v.625l1.409-1.215.828 1.014-2.237 1.928v1.068l1.624-1.169.739 1.084-2.363 1.7v1.156l1.823-1.08.643 1.146-2.466 1.462v2.55l2.002-.959.544 1.2-2.546 1.219v2.605l2.161-.809.44 1.244-2.6.972v2.645l2.298-.632.334 1.278-2.633.724v2.674l2.415-.437.224 1.304-2.639.478v2.692l2.507-.225.113 1.319-2.62.234v2.703H15.7v1.324h-2.576v2.982l2.682.242-.112 1.318-2.57-.231v2.687l2.701.49-.223 1.303-2.478-.449v2.668l2.696.743-.334 1.278-2.362-.651v2.638l2.665.998-.44 1.244-2.225-.833v2.598l2.61 1.25-.545 1.2-2.065-.991v2.543l2.53 1.501-.644 1.146-1.886-1.119v1.149l2.426 1.746-.739 1.084-1.687-1.215v1.058l2.3 1.984-.828 1.014-1.472-1.27v.326l1.314 1.37-.914.93-.996-1.037a2.576 2.576 0 01-1.978-2.505v-59.7c0-1.19.807-2.191 1.903-2.487L13.478 0zm10.55 0l.899.948-1.252 1.259v.625l1.408-1.215.828 1.014-2.236 1.928v1.068l1.624-1.169.738 1.084-2.362 1.7v1.156l1.822-1.08.644 1.146-2.466 1.462v2.55l2.001-.959.545 1.2-2.546 1.219v2.605l2.16-.809.441 1.244-2.601.972v2.645l2.299-.632.333 1.278-2.632.724v2.674l2.414-.437.224 1.304-2.638.478v2.692l2.507-.225.112 1.319-2.62.234v2.703h2.576v1.324h-2.575v2.982l2.682.242-.112 1.318-2.57-.231v2.687l2.7.49-.223 1.303-2.477-.449v2.668l2.695.743-.333 1.278-2.362-.651v2.638l2.664.998-.44 1.244-2.224-.833v2.598l2.608 1.25-.544 1.2-2.064-.991v2.543l2.529 1.501-.644 1.146-1.885-1.119v1.149l2.425 1.746-.738 1.084-1.687-1.215v1.058l2.299 1.984-.828 1.014-1.471-1.27v.326l1.314 1.37-.915.93-.996-1.037a2.576 2.576 0 01-1.977-2.505v-59.7c0-1.19.806-2.191 1.902-2.487L24.028 0zm10.551 0l.898.948-1.252 1.259v.625l1.409-1.215.827 1.014-2.236 1.928v1.068l1.624-1.169.739 1.084-2.363 1.7v1.156l1.822-1.08.644 1.146-2.466 1.462v2.55l2.002-.959.544 1.2-2.546 1.219v2.605l2.161-.809.44 1.244-2.601.972v2.645l2.3-.632.332 1.278-2.632.724v2.674l2.415-.437.223 1.304-2.638.478v2.692l2.507-.225.112 1.319-2.619.234v2.703H36.8v1.324h-2.575v2.982l2.682.242-.112 1.318-2.57-.231v2.687l2.701.49-.223 1.303-2.478-.449v2.668l2.695.743-.333 1.278-2.362-.651v2.638l2.664.998-.44 1.244-2.224-.833v2.598l2.609 1.25-.544 1.2-2.065-.991v2.543l2.529 1.501-.644 1.146-1.885-1.119v1.149l2.425 1.746-.738 1.084-1.687-1.215v1.058l2.299 1.984-.827 1.014-1.472-1.27v.326l1.314 1.37-.915.93-.996-1.037a2.576 2.576 0 01-1.977-2.505v-59.7c0-1.19.806-2.191 1.902-2.487L34.58 0zm10.55 0l.899.948-1.253 1.259v.625l1.409-1.215.827 1.014-2.236 1.928v1.068L46.4 4.458l.739 1.084-2.363 1.7v1.156l1.823-1.08.643 1.146-2.466 1.462v2.55l2.002-.959.544 1.2-2.546 1.219v2.605l2.161-.809.44 1.244-2.6.972v2.645l2.298-.632.334 1.278-2.633.724v2.674l2.415-.437.224 1.304-2.639.478v2.692l2.507-.225.113 1.319-2.62.234v2.703h2.576v1.324h-2.576v2.982l2.682.242-.112 1.318-2.57-.231v2.687l2.701.49-.223 1.303-2.478-.449v2.668l2.695.743-.333 1.278-2.362-.651v2.638l2.665.998-.44 1.244-2.225-.833v2.598l2.609 1.25-.544 1.2-2.065-.991v2.543l2.53 1.501-.644 1.146-1.886-1.119v1.149l2.426 1.746-.739 1.084-1.687-1.215v1.058l2.3 1.984-.828 1.014-1.472-1.27v.326l1.314 1.37-.914.93-.996-1.037a2.576 2.576 0 01-1.978-2.505v-59.7c0-1.19.807-2.191 1.903-2.487L45.129 0zM55.68 0l.898.948-1.252 1.259v.625l1.408-1.215.828 1.014-2.236 1.928v1.068l1.624-1.169.738 1.084-2.362 1.7v1.156l1.822-1.08.644 1.146-2.466 1.462v2.55l2.001-.959.544 1.2-2.545 1.219v2.605l2.16-.809.441 1.244-2.601.972v2.645l2.299-.632.333 1.278-2.632.724v2.674l2.414-.437.224 1.304-2.638.478v2.692l2.507-.225.112 1.319-2.62.234v2.703h2.576v1.324h-2.575v2.982l2.682.242-.112 1.318-2.57-.231v2.687l2.7.49-.223 1.303-2.477-.449v2.668l2.695.743-.333 1.278-2.362-.651v2.638l2.664.998-.44 1.244-2.224-.833v2.598l2.608 1.25-.544 1.2-2.064-.991v2.543l2.529 1.501-.644 1.146-1.885-1.119v1.149l2.425 1.746-.738 1.084-1.687-1.215v1.058l2.299 1.984-.828 1.014-1.471-1.27v.326l1.314 1.37-.915.93-.996-1.037a2.576 2.576 0 01-1.977-2.505v-59.7c0-1.19.806-2.191 1.902-2.487L55.679 0zm10.55 0l.898.948-1.252 1.259v.625l1.409-1.215.827 1.014-2.236 1.928v1.068L67.5 4.458l.738 1.084-2.362 1.7v1.156l1.822-1.08.644 1.146-2.466 1.462v2.55l2.002-.959.544 1.2-2.546 1.219v2.605l2.161-.809.44 1.244-2.601.972v2.645l2.299-.632.333 1.278-2.632.724v2.674l2.415-.437.223 1.304-2.638.478v2.692l2.507-.225.112 1.319-2.62.234v2.703h2.576v1.324h-2.575v2.982l2.682.242-.112 1.318-2.57-.231v2.687l2.701.49-.223 1.303-2.478-.449v2.668l2.695.743-.333 1.278-2.362-.651v2.638l2.664.998-.44 1.244-2.224-.833v2.598l2.609 1.25-.544 1.2-2.065-.991v2.543l2.529 1.501-.644 1.146-1.885-1.119v1.149l2.425 1.746-.738 1.084-1.687-1.215v1.058l2.299 1.984-.828 1.014-1.471-1.27v.326l1.314 1.37-.915.93-.996-1.037a2.576 2.576 0 01-1.977-2.505v-59.7c0-1.19.806-2.191 1.902-2.487L66.23 0zm10.55 0l.898.948-1.252 1.259v.625l1.409-1.215.827 1.014-2.236 1.928v1.068l1.624-1.169.739 1.084-2.363 1.7v1.156l1.823-1.08.643 1.146-2.466 1.462v2.55l2.002-.959.544 1.2-2.546 1.219v2.605l2.161-.809.44 1.244-2.6.972v2.645l2.298-.632.334 1.278-2.633.724v2.674l2.415-.437.224 1.304-2.639.478v2.692l2.507-.225.112 1.319-2.619.234v2.703h2.576v1.324h-2.576v2.982l2.682.242-.112 1.318-2.57-.231v2.687l2.701.49-.223 1.303-2.478-.449v2.668l2.695.743-.333 1.278-2.362-.651v2.638l2.665.998-.44 1.244-2.225-.833v2.598l2.609 1.25-.544 1.2-2.065-.991v2.543l2.53 1.501-.645 1.146-1.885-1.119v1.149l2.426 1.746-.739 1.084-1.687-1.215v1.058l2.3 1.984-.828 1.014-1.472-1.27v.326l1.314 1.37-.914.93-.996-1.037a2.576 2.576 0 01-1.978-2.505v-59.7c0-1.19.807-2.191 1.903-2.487L76.78 0z" transform="translate(103.272 35.87)"/></g><g stroke="#636262" stroke-width=".5"><path fill="url(#m)" fill-rule="nonzero" d="M4.536 0h2.797A2 2 0 019.33 1.896l2.534 48.775a2 2 0 010 .205l-2.536 50.09a2 2 0 01-1.998 1.9H4.54a2 2 0 01-1.998-1.9L.005 50.877a2 2 0 010-.205L2.54 1.896A2 2 0 014.536 0z" transform="translate(270.758 17.825)"/><path fill="#000" fill-opacity=".04" d="M282.627 75.852h-11.87m0-13.188h11.87m-1.319 30.332h-9.231m0-7.912h9.231m.66-31.651h-10.55m.659-7.913h9.231m-9.891 7.913h10.55l.66 9.231h-11.87zm9.232 54.07h-7.913m0-6.594h7.913m0-63.302h-7.913m0-6.594h7.913m0 81.765h-7.913m0-5.275h7.913m0-76.49h-7.913m.66-5.275h6.593m.001 90.997h-6.594m-.66-3.957h7.913m-.659 6.594h-6.594m0-2.637h6.593m.001-94.953h-6.594m.659-2.638h5.275"/></g><g stroke="#636262" stroke-width=".5"><path fill="url(#n)" fill-rule="nonzero" d="M4.534 0h2.801a2 2 0 011.998 1.893l2.53 47.456a2 2 0 010 .21L9.33 98.333a2 2 0 01-1.997 1.896H4.536a2 2 0 01-1.997-1.896L.005 49.56a2 2 0 010-.21L2.538 1.892A2 2 0 014.534 0z" transform="translate(254.932 19.144)"/><path fill="#000" fill-opacity=".04" d="M266.802 75.852h-11.87m0-13.188h11.87m-1.319 30.332h-9.232m0-7.912h9.232m.659-31.651h-10.55m.66-7.913h9.23m-9.89 7.913h10.55l.66 9.231h-11.87zm9.231 54.07h-7.912m0-6.594h7.912m0-63.302h-7.912m0-6.594h7.912m0 81.765h-7.912m0-5.275h7.912m0-76.49h-7.912m.659-5.275h6.594m0 90.997h-6.594m-.66-3.957h7.913m-7.253 3.957h6.594m0-94.953h-6.594"/></g><g stroke="#636262" stroke-width=".5"><path fill="url(#o)" fill-rule="nonzero" d="M4.541 0h2.787a2 2 0 011.997 1.901l2.54 51.379a2 2 0 010 .195l-2.542 52.762a2 2 0 01-1.997 1.904H4.544a2 2 0 01-1.998-1.904L.005 53.475a2 2 0 010-.195L2.544 1.9A2 2 0 014.54 0z" transform="translate(294.496 15.188)"/><path fill="#000" fill-opacity=".04" d="M306.365 75.852h-11.869m0-13.188h11.87m-1.32 32.97h-9.231m0-7.913h9.231m.66-36.926h-10.55m.659-7.913h9.231m-.659 67.258h-7.913m0-6.593h7.913m0-68.577h-7.913m0-6.594h7.913m0 87.04h-7.913m0-5.275h7.913m0-81.765h-7.913m.66-5.275h6.594m0 96.271h-6.594m-.66-3.956h7.913m-.659 6.594h-6.594m0-2.638h6.594m0-100.228h-6.594m.66-2.637h5.274"/></g><g stroke="#636262" stroke-width=".5"><path fill="url(#p)" fill-rule="nonzero" d="M4.543 0h2.783a2 2 0 011.997 1.904l2.542 52.68a2 2 0 010 .19L9.32 108.872a2 2 0 01-1.998 1.906H4.546a2 2 0 01-1.998-1.906L.004 54.774a2 2 0 010-.19l2.542-52.68A2 2 0 014.543 0z" transform="translate(310.322 13.87)"/><path fill="#000" fill-opacity=".04" d="M322.19 75.852h-11.868m0-13.188h11.869m-1.319 34.289h-9.232m0-7.913h9.232m.659-39.564h-10.55m.66-7.912h9.23m-.658 69.896H312.3m0-6.594h7.913m0-71.215H312.3m0-6.594h7.913m0 89.678H312.3m0-5.275h7.913m0-84.403H312.3m.66-5.275h6.593m0 98.909h-6.594m-.66-3.956h7.914m-.66 6.594h-6.594m0-2.638h6.594m0-102.866h-6.594m.66-2.637h5.275"/></g><path fill="url(#j)" fill-rule="nonzero" stroke="#636262" stroke-width=".5" d="M243.976 56.708h3.956v21.101h-3.956zm15.826 0h3.956v21.101h-3.956zm39.563 0h3.956v21.101h-3.956z" transform="translate(7 2)"/><g transform="translate(421.826 56.07)"><mask id="s" fill="#fff"><use xlink:href="#q"/></mask><use fill="url(#r)" fill-rule="nonzero" xlink:href="#q"/><path fill="#7F7F7F" fill-rule="nonzero" d="M-4.447-1.319l-.389.466 16.497 19.796.388-.466zm0 2.638l-.389.466 16.497 19.796.388-.467zm0 2.637l-.389.467 16.497 19.795.388-.466zm0 2.638l-.389.466 16.497 19.796.388-.466zm0 2.638l-.389.466 16.497 19.795.388-.466zm0 2.638l-.389.465 16.497 19.796.388-.466zm0 2.637l-.389.466 16.497 19.796.388-.467zm0 2.637l-.389.467 16.497 19.795.388-.466zm0-21.1l-.389.466 16.497 19.795.388-.466zm0-2.638l-.389.466 16.497 19.796.388-.466zm0-2.638l-.389.467L11.661 11.03l.388-.466zm0-2.638l-.389.467L11.661 8.393l.388-.467z" mask="url(#s)" transform="matrix(-1 0 0 1 7.214 0)"/></g><path stroke="#636262" stroke-width=".5" d="M421.826 56.07h7.913v26.376h-7.913z"/><g transform="translate(429.048 56.07)"><mask id="u" fill="#fff"><use xlink:href="#t"/></mask><use fill="url(#r)" fill-rule="nonzero" xlink:href="#t"/><path fill="#7F7F7F" fill-rule="nonzero" d="M-4.447-1.319l-.389.466 16.497 19.796.388-.466zm0 2.638l-.389.466 16.497 19.796.388-.467zm0 2.637l-.389.467 16.497 19.795.388-.466zm0 2.638l-.389.466 16.497 19.796.388-.466zm0 2.638l-.389.466 16.497 19.795.388-.466zm0 2.638l-.389.465 16.497 19.796.388-.466zm0 2.637l-.389.466 16.497 19.796.388-.467zm0 2.637l-.389.467 16.497 19.795.388-.466zm0-21.1l-.389.466 16.497 19.795.388-.466zm0-2.638l-.389.466 16.497 19.796.388-.466zm0-2.638l-.389.467L11.661 11.03l.388-.466zm0-2.638l-.389.467L11.661 8.393l.388-.467z" mask="url(#u)" transform="matrix(-1 0 0 1 7.214 0)"/></g><path stroke="#636262" stroke-width=".5" d="M429.048 56.07h7.913v26.376h-7.913z"/><path fill="url(#v)" fill-rule="nonzero" stroke="#636262" stroke-width=".5" d="M196.389 14.923L180.925 27.69l.73 79.318 14.764 12.603 2.453-4.906c-4.827-19.102-7.238-34.918-7.238-47.448 0-13.067 2.193-28.887 6.583-47.46l-1.828-4.875z" transform="translate(7 2)"/><g fill-rule="nonzero"><path fill="url(#w)" stroke="#636262" stroke-width=".5" d="M0 11.323h4.529v11.323H0z" transform="translate(48.987 127.894)"/><path fill="url(#x)" stroke="#636262" stroke-width=".5" d="M8.53 0h62.2a4 4 0 014 4v25.968a4 4 0 01-4 4H8.53a4 4 0 01-4-4V4a4 4 0 014-4z" transform="translate(48.987 127.894)"/><path fill="url(#y)" d="M33-18h13.587v70.201H33z" transform="rotate(90 .34 105.541)"/><path fill="url(#z)" stroke="#636262" stroke-width=".5" d="M-32.99 33.49h71.642v5.662H-32.99z" transform="rotate(90 -15.837 98.315)"/></g></g></svg>