<svg xmlns="http://www.w3.org/2000/svg" xmlns:xlink="http://www.w3.org/1999/xlink" width="30" height="34"><defs><linearGradient id="a" x1="94.802%" x2="41.203%" y1="57.757%" y2="6.237%"><stop offset="0%" stop-color="#656266"/><stop offset="51.52%" stop-color="#F3F4F4"/><stop offset="100%" stop-color="#807B80"/></linearGradient><linearGradient id="b" x1="96.046%" x2="4.922%" y1="50%" y2="50%"><stop offset="0%" stop-color="#9D98A0"/><stop offset="51.52%" stop-color="#F3F4F4"/><stop offset="100%" stop-color="#9D98A0"/></linearGradient><linearGradient id="d" x1=".034%" x2="100.034%" y1="50%" y2="50%"><stop offset="0%" stop-color="#363D43"/><stop offset="49.388%" stop-color="#798085"/><stop offset="100%" stop-color="#363D43"/></linearGradient><filter id="e" width="292.9%" height="253.5%" x="-96.5%" y="-76.7%" filterUnits="objectBoundingBox"><feGaussianBlur in="SourceAlpha" result="shadowBlurInner1" stdDeviation="4.5"/><feOffset dy="1" in="shadowBlurInner1" result="shadowOffsetInner1"/><feComposite in="shadowOffsetInner1" in2="SourceAlpha" k2="-1" k3="1" operator="arithmetic" result="shadowInnerInner1"/><feColorMatrix in="shadowInnerInner1" values="0 0 0 0 0 0 0 0 0 0 0 0 0 0 0 0 0 0 0.301737325 0"/></filter><path id="c" d="M5.807 20.635a3.94 3.94 0 001.026-.126c.312-.084.582-.209.81-.373.228-.165.405-.374.531-.626s.189-.546.189-.882c0-.24-.037-.445-.112-.616-.075-.172-.176-.323-.302-.455s-.271-.249-.436-.351a11.735 11.735 0 00-.527-.306 15.094 15.094 0 00-.351-.194 1.54 1.54 0 01-.284-.189.768.768 0 01-.189-.238.763.763 0 01-.067-.342c0-.15.032-.28.095-.391a.755.755 0 01.26-.27c.111-.07.24-.12.388-.153a2.418 2.418 0 011.205.058c.226.072.401.159.527.261l.495-.864a1.724 1.724 0 00-.27-.153 2.824 2.824 0 00-.396-.149 4.42 4.42 0 00-.481-.112 3.1 3.1 0 00-.536-.045c-.402 0-.754.048-1.058.144a2.29 2.29 0 00-.764.396 1.635 1.635 0 00-.468.598 1.822 1.822 0 00-.158.761c0 .228.031.426.095.594.063.168.148.315.256.441.108.126.232.238.373.337.141.1.29.188.446.266.144.078.28.152.41.22.128.07.244.143.346.221a.962.962 0 01.243.265c.06.1.09.218.09.356 0 .186-.039.34-.117.463a.855.855 0 01-.31.293c-.13.072-.274.123-.433.153a2.586 2.586 0 01-1.372-.112 2.496 2.496 0 01-.576-.293l-.504.891c.066.048.158.102.275.162a3 3 0 00.418.171 3.969 3.969 0 001.233.189z"/></defs><g fill="none" fill-rule="evenodd"><path d="M5.81 3.996L16.987 8.69 5.811 13.385v-9.39zm22.5 0L17.136 8.69l11.176 4.695v-9.39z" fill="url(#a)" fill-rule="nonzero" stroke="#2C405A" stroke-width=".5" transform="matrix(0 1 1 0 12 0)"/><path fill="#FFF" stroke="#9FA9B5" d="M14.5 17h5v1h-5z"/><rect width="12.5" height="12.5" x=".25" y="11.25" fill="url(#b)" fill-rule="nonzero" stroke="#2C405A" stroke-width=".5" rx="2"/><g fill-rule="nonzero"><use fill="#FFF" xlink:href="#c"/><use fill="url(#d)" xlink:href="#c"/><use fill="#000" filter="url(#e)" xlink:href="#c"/></g></g></svg>