<svg width="753" height="453" xmlns="http://www.w3.org/2000/svg" xmlns:xlink="http://www.w3.org/1999/xlink"><defs><linearGradient x1="50.034%" y1="99.725%" x2="50.034%" y2="-.004%" id="aI"><stop stop-color="#656266" offset="0%"/><stop stop-color="#F3F4F4" offset="49.306%"/><stop stop-color="#807B80" offset="100%"/></linearGradient><linearGradient x1="50.034%" y1="99.984%" x2="50.034%" y2="-.004%" id="bX"><stop stop-color="#8B878D" offset="0%"/><stop stop-color="#9F9CA1" offset="13.66%"/><stop stop-color="#D9D8DA" offset="42.07%"/><stop stop-color="#F3F4F4" offset="51.52%"/><stop stop-color="#807B80" offset="100%"/></linearGradient><linearGradient x1=".034%" y1="50%" x2="100.034%" y2="50%" id="bR"><stop stop-color="#363D43" offset="0%"/><stop stop-color="#798085" offset="49.388%"/><stop stop-color="#363D43" offset="100%"/></linearGradient><linearGradient x1="50.034%" y1=".822%" x2="50.034%" y2="99.984%" id="j"><stop stop-color="#AFACB1" stop-opacity=".701" offset="0%"/><stop stop-color="#958F95" stop-opacity=".1" offset="100%"/></linearGradient><linearGradient x1="50.034%" y1="99.725%" x2="50.034%" y2="-.004%" id="bQ"><stop stop-color="#656266" offset="0%"/><stop stop-color="#9F9CA1" offset="13.66%"/><stop stop-color="#D9D8DA" offset="42.07%"/><stop stop-color="#F3F4F4" offset="51.52%"/><stop stop-color="#807B80" offset="100%"/></linearGradient><linearGradient x1="50.034%" y1=".822%" x2="50.034%" y2="99.984%" id="m"><stop stop-color="#AFACB1" stop-opacity=".701" offset="0%"/><stop stop-color="#958F95" stop-opacity=".1" offset="100%"/></linearGradient><linearGradient x1="50.034%" y1="99.984%" x2="50.034%" y2="-.004%" id="bP"><stop stop-color="#8B878D" offset="0%"/><stop stop-color="#9F9CA1" offset="13.66%"/><stop stop-color="#D9D8DA" offset="42.07%"/><stop stop-color="#F3F4F4" offset="51.52%"/><stop stop-color="#807B80" offset="100%"/></linearGradient><linearGradient x1="50.034%" y1=".822%" x2="50.034%" y2="99.984%" id="p"><stop stop-color="#AFACB1" stop-opacity=".701" offset="0%"/><stop stop-color="#958F95" stop-opacity=".1" offset="100%"/></linearGradient><linearGradient x1="50.034%" y1="99.984%" x2="50.034%" y2="-.004%" id="bO"><stop stop-color="#8B878D" offset="0%"/><stop stop-color="#9F9CA1" offset="13.66%"/><stop stop-color="#D9D8DA" offset="42.07%"/><stop stop-color="#F3F4F4" offset="51.52%"/><stop stop-color="#807B80" offset="100%"/></linearGradient><linearGradient x1="50.034%" y1=".822%" x2="50.034%" y2="99.984%" id="s"><stop stop-color="#AFACB1" stop-opacity=".701" offset="0%"/><stop stop-color="#958F95" stop-opacity=".1" offset="100%"/></linearGradient><linearGradient x1="50.034%" y1="99.984%" x2="50.034%" y2="-.004%" id="bN"><stop stop-color="#623E2E" offset="0%"/><stop stop-color="#BE6941" offset="49.72%"/><stop stop-color="#623E2E" offset="100%"/></linearGradient><linearGradient x1="50.034%" y1=".822%" x2="50.034%" y2="99.984%" id="v"><stop stop-color="#AFACB1" stop-opacity=".701" offset="0%"/><stop stop-color="#958F95" stop-opacity=".1" offset="100%"/></linearGradient><linearGradient x1="50.034%" y1="99.984%" x2="50.034%" y2="-.004%" id="bM"><stop stop-color="#212F42" offset="0%"/><stop stop-color="#004C97" offset="50.465%"/><stop stop-color="#213042" offset="100%"/></linearGradient><linearGradient x1="50.034%" y1=".822%" x2="50.034%" y2="99.984%" id="y"><stop stop-color="#AFACB1" stop-opacity=".701" offset="0%"/><stop stop-color="#958F95" stop-opacity=".1" offset="100%"/></linearGradient><linearGradient x1="50.034%" y1="99.984%" x2="50.034%" y2="-.004%" id="bL"><stop stop-color="#8B878D" offset="0%"/><stop stop-color="#9F9CA1" offset="13.66%"/><stop stop-color="#D9D8DA" offset="42.07%"/><stop stop-color="#F3F4F4" offset="51.52%"/><stop stop-color="#807B80" offset="100%"/></linearGradient><linearGradient x1="50.034%" y1=".822%" x2="50.034%" y2="99.984%" id="B"><stop stop-color="#AFACB1" stop-opacity=".701" offset="0%"/><stop stop-color="#958F95" stop-opacity=".1" offset="100%"/></linearGradient><linearGradient x1="50.034%" y1="99.984%" x2="50.034%" y2="-.004%" id="bK"><stop stop-color="#8B878D" offset="0%"/><stop stop-color="#9F9CA1" offset="13.66%"/><stop stop-color="#D9D8DA" offset="42.07%"/><stop stop-color="#F3F4F4" offset="51.52%"/><stop stop-color="#807B80" offset="100%"/></linearGradient><linearGradient x1="50.034%" y1=".822%" x2="50.034%" y2="99.984%" id="E"><stop stop-color="#AFACB1" stop-opacity=".701" offset="0%"/><stop stop-color="#958F95" stop-opacity=".1" offset="100%"/></linearGradient><linearGradient x1="50.034%" y1="99.984%" x2="50.034%" y2="-.004%" id="bG"><stop stop-color="#8B878D" offset="0%"/><stop stop-color="#9F9CA1" offset="13.66%"/><stop stop-color="#D9D8DA" offset="42.07%"/><stop stop-color="#F3F4F4" offset="51.52%"/><stop stop-color="#807B80" offset="100%"/></linearGradient><linearGradient x1="50.034%" y1="99.984%" x2="50.034%" y2="-.004%" id="bE"><stop stop-color="#8B878D" offset="0%"/><stop stop-color="#9F9CA1" offset="13.66%"/><stop stop-color="#D9D8DA" offset="42.07%"/><stop stop-color="#F3F4F4" offset="51.52%"/><stop stop-color="#807B80" offset="100%"/></linearGradient><linearGradient x1="50.034%" y1="99.984%" x2="50.034%" y2="-.004%" id="bD"><stop stop-color="#8B878D" offset="0%"/><stop stop-color="#9F9CA1" offset="13.66%"/><stop stop-color="#D9D8DA" offset="42.07%"/><stop stop-color="#F3F4F4" offset="51.52%"/><stop stop-color="#807B80" offset="100%"/></linearGradient><linearGradient x1="50.034%" y1="99.984%" x2="50.034%" y2="-.004%" id="bC"><stop stop-color="#8B878D" offset="0%"/><stop stop-color="#9F9CA1" offset="13.66%"/><stop stop-color="#D9D8DA" offset="42.07%"/><stop stop-color="#F3F4F4" offset="51.52%"/><stop stop-color="#807B80" offset="100%"/></linearGradient><linearGradient x1="50.034%" y1="99.984%" x2="50.034%" y2="-.004%" id="bB"><stop stop-color="#8B878D" offset="0%"/><stop stop-color="#9F9CA1" offset="13.66%"/><stop stop-color="#D9D8DA" offset="42.07%"/><stop stop-color="#F3F4F4" offset="51.52%"/><stop stop-color="#807B80" offset="100%"/></linearGradient><linearGradient x1="50.034%" y1="99.984%" x2="50.034%" y2="-.004%" id="bA"><stop stop-color="#8B878D" offset="0%"/><stop stop-color="#9F9CA1" offset="13.66%"/><stop stop-color="#D9D8DA" offset="42.07%"/><stop stop-color="#F3F4F4" offset="51.52%"/><stop stop-color="#807B80" offset="100%"/></linearGradient><linearGradient x1="50.034%" y1="99.984%" x2="50.034%" y2="-.004%" id="bz"><stop stop-color="#8B878D" offset="0%"/><stop stop-color="#9F9CA1" offset="13.66%"/><stop stop-color="#D9D8DA" offset="42.07%"/><stop stop-color="#F3F4F4" offset="51.52%"/><stop stop-color="#807B80" offset="100%"/></linearGradient><linearGradient x1="50.034%" y1="110.798%" x2="50.034%" y2="-15.403%" id="by"><stop stop-color="#8B878D" offset="0%"/><stop stop-color="#9F9CA1" offset="13.66%"/><stop stop-color="#D9D8DA" offset="39.007%"/><stop stop-color="#F3F4F4" offset="55.749%"/><stop stop-color="#807B80" offset="100%"/></linearGradient><linearGradient x1="50.034%" y1="99.984%" x2="50.034%" y2="-.004%" id="bx"><stop stop-color="#8B878D" offset="0%"/><stop stop-color="#9F9CA1" offset="13.66%"/><stop stop-color="#D9D8DA" offset="42.07%"/><stop stop-color="#F3F4F4" offset="51.52%"/><stop stop-color="#807B80" offset="100%"/></linearGradient><linearGradient x1="50.034%" y1="99.984%" x2="50.034%" y2="-.004%" id="bw"><stop stop-color="#8B878D" offset="0%"/><stop stop-color="#9F9CA1" offset="13.66%"/><stop stop-color="#D9D8DA" offset="42.07%"/><stop stop-color="#F3F4F4" offset="51.52%"/><stop stop-color="#807B80" offset="100%"/></linearGradient><linearGradient x1="50.034%" y1="-.004%" x2="50.034%" y2="99.984%" id="X"><stop stop-color="#8B878D" offset="0%"/><stop stop-color="#F3F4F4" offset="52.507%"/><stop stop-color="#807B80" offset="100%"/></linearGradient><linearGradient x1="50.034%" y1="-.004%" x2="50.034%" y2="99.984%" id="Y"><stop stop-color="#8B878D" offset="0%"/><stop stop-color="#F3F4F4" offset="53.011%"/><stop stop-color="#807B80" offset="100%"/></linearGradient><linearGradient x1=".04%" y1="49.99%" x2="100.028%" y2="49.99%" id="Z"><stop stop-color="#8B878D" offset="0%"/><stop stop-color="#F3F4F4" offset="49.121%"/><stop stop-color="#807B80" offset="100%"/></linearGradient><linearGradient x1=".04%" y1="49.99%" x2="100.028%" y2="49.99%" id="aa"><stop stop-color="#8B878D" offset="0%"/><stop stop-color="#F3F4F4" offset="49.121%"/><stop stop-color="#807B80" offset="100%"/></linearGradient><linearGradient x1="50.034%" y1="-.004%" x2="50.034%" y2="99.725%" id="ab"><stop stop-color="#8C8C8C" offset="0%"/><stop stop-color="#F3F4F4" offset="100%"/></linearGradient><linearGradient x1="50.034%" y1="-.004%" x2="50.034%" y2="99.725%" id="ac"><stop stop-color="#8C8C8C" offset="0%"/><stop stop-color="#F3F4F4" offset="100%"/></linearGradient><linearGradient x1="50.034%" y1="-.004%" x2="50.034%" y2="99.725%" id="ad"><stop stop-color="#8C8C8C" offset="0%"/><stop stop-color="#F3F4F4" offset="100%"/></linearGradient><linearGradient x1="50.034%" y1="-.004%" x2="50.034%" y2="99.725%" id="ae"><stop stop-color="#8C8C8C" offset="0%"/><stop stop-color="#F3F4F4" offset="100%"/></linearGradient><linearGradient x1="50.034%" y1="-.004%" x2="50.034%" y2="99.725%" id="af"><stop stop-color="#8C8C8C" offset="0%"/><stop stop-color="#D2D2D2" offset="100%"/></linearGradient><linearGradient x1="100%" y1="50.001%" x2="1.138%" y2="50%" id="ag"><stop stop-color="#2F3236" offset="0%"/><stop stop-color="#D9D8DA" offset="50.176%"/><stop stop-color="#2F3236" offset="100%"/></linearGradient><linearGradient x1="50.034%" y1="114.901%" x2="50.034%" y2="-16.677%" id="ai"><stop stop-color="#363D43" offset="0%"/><stop stop-color="#82888D" offset="49.943%"/><stop stop-color="#363D43" offset="100%"/></linearGradient><linearGradient x1="50.034%" y1=".822%" x2="50.034%" y2="99.984%" id="am"><stop stop-color="#AFACB1" stop-opacity=".701" offset="0%"/><stop stop-color="#958F95" stop-opacity=".1" offset="100%"/></linearGradient><linearGradient x1="50.034%" y1="99.984%" x2="50.034%" y2="-.004%" id="bv"><stop stop-color="#8B878D" offset="0%"/><stop stop-color="#9F9CA1" offset="13.66%"/><stop stop-color="#D9D8DA" offset="42.07%"/><stop stop-color="#F3F4F4" offset="51.52%"/><stop stop-color="#807B80" offset="100%"/></linearGradient><linearGradient x1="50.034%" y1=".822%" x2="50.034%" y2="99.984%" id="ap"><stop stop-color="#AFACB1" stop-opacity=".701" offset="0%"/><stop stop-color="#958F95" stop-opacity=".1" offset="100%"/></linearGradient><linearGradient x1="50.034%" y1="99.984%" x2="50.034%" y2="-.004%" id="bu"><stop stop-color="#8B878D" offset="0%"/><stop stop-color="#9F9CA1" offset="13.66%"/><stop stop-color="#D9D8DA" offset="42.07%"/><stop stop-color="#F3F4F4" offset="51.52%"/><stop stop-color="#807B80" offset="100%"/></linearGradient><linearGradient x1="50.034%" y1=".822%" x2="50.034%" y2="99.984%" id="as"><stop stop-color="#AFACB1" stop-opacity=".701" offset="0%"/><stop stop-color="#958F95" stop-opacity=".1" offset="100%"/></linearGradient><linearGradient x1="50.034%" y1="99.984%" x2="50.034%" y2="-.004%" id="bt"><stop stop-color="#8B878D" offset="0%"/><stop stop-color="#9F9CA1" offset="13.66%"/><stop stop-color="#D9D8DA" offset="42.07%"/><stop stop-color="#F3F4F4" offset="51.52%"/><stop stop-color="#807B80" offset="100%"/></linearGradient><linearGradient x1="50.034%" y1=".822%" x2="50.034%" y2="99.984%" id="av"><stop stop-color="#AFACB1" stop-opacity=".701" offset="0%"/><stop stop-color="#958F95" stop-opacity=".1" offset="100%"/></linearGradient><linearGradient x1="50%" y1="0%" x2="50%" y2="100%" id="bs"><stop stop-color="#BDD3EB" offset="0%"/><stop stop-color="#93C5DE" offset="100%"/></linearGradient><linearGradient x1="50%" y1="0%" x2="50%" y2="100%" id="br"><stop stop-color="#636262" stop-opacity=".401" offset="0%"/><stop stop-color="#636262" offset="46.746%"/><stop stop-color="#636262" stop-opacity=".4" offset="100%"/></linearGradient><linearGradient x1="50.034%" y1="114.901%" x2="50.034%" y2="-16.677%" id="c"><stop stop-color="#363D43" offset="0%"/><stop stop-color="#82888D" offset="52.238%"/><stop stop-color="#363D43" offset="100%"/></linearGradient><linearGradient x1="50%" y1="0%" x2="50%" y2="100%" id="bq"><stop stop-color="#636262" stop-opacity=".4" offset="0%"/><stop stop-color="#636262" offset="46.746%"/><stop stop-color="#636262" stop-opacity=".4" offset="100%"/></linearGradient><linearGradient x1="50.034%" y1="99.984%" x2="50.034%" y2="-.004%" id="bp"><stop stop-color="#8B878D" offset="0%"/><stop stop-color="#9F9CA1" offset="13.66%"/><stop stop-color="#D9D8DA" offset="42.07%"/><stop stop-color="#F3F4F4" offset="51.52%"/><stop stop-color="#807B80" offset="100%"/></linearGradient><linearGradient x1="50.034%" y1="99.984%" x2="50.034%" y2="-.004%" id="bo"><stop stop-color="#8B878D" offset="0%"/><stop stop-color="#9F9CA1" offset="13.66%"/><stop stop-color="#D9D8DA" offset="42.07%"/><stop stop-color="#F3F4F4" offset="51.52%"/><stop stop-color="#807B80" offset="100%"/></linearGradient><linearGradient x1="50.034%" y1="99.725%" x2="50.034%" y2="-.004%" id="aE"><stop stop-color="#656266" offset="0%"/><stop stop-color="#F3F4F4" offset="49.306%"/><stop stop-color="#807B80" offset="100%"/></linearGradient><linearGradient x1="50.034%" y1="99.725%" x2="50.034%" y2="-.004%" id="aF"><stop stop-color="#656266" offset="0%"/><stop stop-color="#F3F4F4" offset="49.306%"/><stop stop-color="#807B80" offset="100%"/></linearGradient><linearGradient x1="50.034%" y1="99.725%" x2="50.034%" y2="-.004%" id="aG"><stop stop-color="#656266" offset="0%"/><stop stop-color="#F3F4F4" offset="49.306%"/><stop stop-color="#807B80" offset="100%"/></linearGradient><linearGradient x1="50.034%" y1="99.984%" x2="50.034%" y2="-.004%" id="aH"><stop stop-color="#212F42" offset="0%"/><stop stop-color="#004C97" offset="13.66%"/><stop stop-color="#004C97" offset="42.07%"/><stop stop-color="#004C97" offset="51.52%"/><stop stop-color="#213042" offset="100%"/></linearGradient><linearGradient x1="50.034%" y1=".822%" x2="50.034%" y2="99.984%" id="g"><stop stop-color="#AFACB1" stop-opacity=".701" offset="0%"/><stop stop-color="#958F95" stop-opacity=".1" offset="100%"/></linearGradient><linearGradient x1="50.034%" y1="99.725%" x2="50.034%" y2="-.004%" id="aJ"><stop stop-color="#656266" offset="0%"/><stop stop-color="#9F9CA1" offset="13.66%"/><stop stop-color="#D9D8DA" offset="42.07%"/><stop stop-color="#F3F4F4" offset="51.52%"/><stop stop-color="#807B80" offset="100%"/></linearGradient><linearGradient x1="50.034%" y1="-.004%" x2="50.034%" y2="99.725%" id="aK"><stop stop-color="#8C8C8C" offset="0%"/><stop stop-color="#F3F4F4" offset="100%"/></linearGradient><linearGradient x1="50.034%" y1="-.004%" x2="50.034%" y2="99.725%" id="aL"><stop stop-color="#8C8C8C" offset="0%"/><stop stop-color="#F3F4F4" offset="100%"/></linearGradient><linearGradient x1="50.034%" y1="-.004%" x2="50.034%" y2="99.725%" id="aM"><stop stop-color="#8C8C8C" offset="0%"/><stop stop-color="#F3F4F4" offset="100%"/></linearGradient><linearGradient x1="100%" y1="50.001%" x2="1.138%" y2="50%" id="aN"><stop stop-color="#2F3236" offset="0%"/><stop stop-color="#D9D8DA" offset="50.176%"/><stop stop-color="#2F3236" offset="100%"/></linearGradient><linearGradient x1="50%" y1="100%" x2="50%" y2="0%" id="aO"><stop stop-color="#223247" stop-opacity="0" offset="0%"/><stop stop-color="#223247" offset="100%"/></linearGradient><linearGradient x1="50.034%" y1="114.901%" x2="50.034%" y2="-16.677%" id="aQ"><stop stop-color="#363D43" offset="0%"/><stop stop-color="#82888D" offset="52.238%"/><stop stop-color="#363D43" offset="100%"/></linearGradient><linearGradient x1="0%" y1="14.543%" x2="100%" y2="104.981%" id="aU"><stop stop-color="#5E5D5E" offset="0%"/><stop stop-color="#BEBEBE" offset="47.838%"/><stop stop-color="#5E5D5E" offset="100%"/></linearGradient><linearGradient x1="50.034%" y1="99.984%" x2="50.034%" y2="-.004%" id="bn"><stop stop-color="#8B878D" offset="0%"/><stop stop-color="#9F9CA1" offset="13.66%"/><stop stop-color="#D9D8DA" offset="42.07%"/><stop stop-color="#F3F4F4" offset="51.52%"/><stop stop-color="#807B80" offset="100%"/></linearGradient><linearGradient x1=".453%" y1="50.403%" x2="99.615%" y2="50.403%" id="aX"><stop stop-color="#AFACB1" offset="0%"/><stop stop-color="#BAB9BC" offset="28.499%"/><stop stop-color="#D9D8DA" offset="42.07%"/><stop stop-color="#F3F4F4" offset="58.437%"/><stop stop-color="#958F95" offset="100%"/></linearGradient><linearGradient x1="50.034%" y1="99.984%" x2="50.034%" y2="-.004%" id="bm"><stop stop-color="#8B878D" offset="0%"/><stop stop-color="#D9D8DA" offset="42.07%"/><stop stop-color="#F3F4F4" offset="51.52%"/><stop stop-color="#807B80" offset="100%"/></linearGradient><linearGradient x1="50%" y1="0%" x2="50%" y2="100%" id="aY"><stop stop-color="#BDD3EB" offset="0%"/><stop stop-color="#93C5DE" offset="100%"/></linearGradient><linearGradient x1="50.034%" y1="99.984%" x2="50.034%" y2="-.004%" id="bl"><stop stop-color="#8B878D" offset="0%"/><stop stop-color="#9F9CA1" offset="13.66%"/><stop stop-color="#D9D8DA" offset="42.07%"/><stop stop-color="#F3F4F4" offset="51.52%"/><stop stop-color="#807B80" offset="100%"/></linearGradient><linearGradient x1="50.034%" y1="99.984%" x2="50.034%" y2="-.004%" id="bk"><stop stop-color="#8B878D" offset="0%"/><stop stop-color="#9F9CA1" offset="13.66%"/><stop stop-color="#D9D8DA" offset="42.07%"/><stop stop-color="#F3F4F4" offset="51.52%"/><stop stop-color="#807B80" offset="100%"/></linearGradient><linearGradient x1="50%" y1="0%" x2="50%" y2="100%" id="bb"><stop stop-color="#BDD3EB" offset="0%"/><stop stop-color="#93C5DE" offset="100%"/></linearGradient><linearGradient x1="50.034%" y1="99.984%" x2="50.034%" y2="-.004%" id="bj"><stop stop-color="#8B878D" offset="0%"/><stop stop-color="#9F9CA1" offset="13.66%"/><stop stop-color="#D9D8DA" offset="42.07%"/><stop stop-color="#F3F4F4" offset="51.52%"/><stop stop-color="#807B80" offset="100%"/></linearGradient><linearGradient x1="50%" y1="0%" x2="50%" y2="100%" id="bd"><stop stop-color="#BDD3EB" offset="0%"/><stop stop-color="#93C5DE" offset="100%"/></linearGradient><linearGradient x1="50.034%" y1="99.984%" x2="50.034%" y2="-.004%" id="bh"><stop stop-color="#8B878D" offset="0%"/><stop stop-color="#9F9CA1" offset="13.66%"/><stop stop-color="#D9D8DA" offset="42.07%"/><stop stop-color="#F3F4F4" offset="51.52%"/><stop stop-color="#807B80" offset="100%"/></linearGradient><linearGradient x1="50.034%" y1="99.984%" x2="50.034%" y2="-.004%" id="bf"><stop stop-color="#8B878D" offset="0%"/><stop stop-color="#9F9CA1" offset="13.66%"/><stop stop-color="#D9D8DA" offset="42.07%"/><stop stop-color="#F3F4F4" offset="51.52%"/><stop stop-color="#807B80" offset="100%"/></linearGradient><linearGradient x1="50.034%" y1="99.984%" x2="50.034%" y2="-.004%" id="bg"><stop stop-color="#8B878D" offset="0%"/><stop stop-color="#9F9CA1" offset="13.66%"/><stop stop-color="#D9D8DA" offset="42.07%"/><stop stop-color="#F3F4F4" offset="51.52%"/><stop stop-color="#807B80" offset="100%"/></linearGradient><linearGradient x1=".453%" y1="50.403%" x2="99.615%" y2="50.403%" id="bW"><stop stop-color="#AFACB1" offset="0%"/><stop stop-color="#BAB9BC" offset="28.499%"/><stop stop-color="#D9D8DA" offset="42.07%"/><stop stop-color="#F3F4F4" offset="58.437%"/><stop stop-color="#958F95" offset="100%"/></linearGradient><filter x="0%" y="0%" width="100%" height="100%" filterUnits="objectBoundingBox" id="be"><feGaussianBlur in="SourceGraphic"/></filter><filter x="0%" y="0%" width="100%" height="100%" filterUnits="objectBoundingBox" id="bc"><feGaussianBlur in="SourceGraphic"/></filter><filter x="0%" y="0%" width="100%" height="100%" filterUnits="objectBoundingBox" id="ba"><feGaussianBlur in="SourceGraphic"/></filter><filter x="0%" y="0%" width="100%" height="100%" filterUnits="objectBoundingBox" id="aZ"><feGaussianBlur in="SourceGraphic"/></filter><filter x="-10.7%" y="-10.6%" width="119.4%" height="123.8%" filterUnits="objectBoundingBox" id="aV"><feOffset dx="-1" dy="1" in="SourceAlpha" result="shadowOffsetOuter1"/><feGaussianBlur stdDeviation="3" in="shadowOffsetOuter1" result="shadowBlurOuter1"/><feComposite in="shadowBlurOuter1" in2="SourceAlpha" operator="out" result="shadowBlurOuter1"/><feColorMatrix values="0 0 0 0 0 0 0 0 0 0 0 0 0 0 0 0 0 0 0.230550699 0" in="shadowBlurOuter1"/></filter><filter x="-11.1%" y="-10.6%" width="120%" height="123.8%" filterUnits="objectBoundingBox" id="aS"><feOffset dx="-1" dy="1" in="SourceAlpha" result="shadowOffsetOuter1"/><feGaussianBlur stdDeviation="3" in="shadowOffsetOuter1" result="shadowBlurOuter1"/><feColorMatrix values="0 0 0 0 0 0 0 0 0 0 0 0 0 0 0 0 0 0 0.230550699 0" in="shadowBlurOuter1"/></filter><filter x="-140%" y="-57.8%" width="353.3%" height="226.3%" filterUnits="objectBoundingBox" id="aC"><feOffset dx="-1" dy="1" in="SourceAlpha" result="shadowOffsetOuter1"/><feGaussianBlur stdDeviation="3" in="shadowOffsetOuter1" result="shadowBlurOuter1"/><feColorMatrix values="0 0 0 0 0 0 0 0 0 0 0 0 0 0 0 0 0 0 0.230550699 0" in="shadowBlurOuter1"/></filter><filter x="-155.8%" y="-65.5%" width="381.9%" height="245.3%" filterUnits="objectBoundingBox" id="aA"><feOffset dx="-1" dy="1" in="SourceAlpha" result="shadowOffsetOuter1"/><feGaussianBlur stdDeviation="3" in="shadowOffsetOuter1" result="shadowBlurOuter1"/><feColorMatrix values="0 0 0 0 0 0 0 0 0 0 0 0 0 0 0 0 0 0 0.230550699 0" in="shadowBlurOuter1"/></filter><filter x="-175%" y="-47.8%" width="416.7%" height="204.5%" filterUnits="objectBoundingBox" id="ay"><feOffset dx="-1" dy="1" in="SourceAlpha" result="shadowOffsetOuter1"/><feGaussianBlur stdDeviation="3" in="shadowOffsetOuter1" result="shadowBlurOuter1"/><feColorMatrix values="0 0 0 0 0 0 0 0 0 0 0 0 0 0 0 0 0 0 0.230550699 0" in="shadowBlurOuter1"/></filter><filter x="-134.6%" y="-57.1%" width="343.5%" height="227.2%" filterUnits="objectBoundingBox" id="aw"><feOffset dx="-1" dy="1" in="SourceAlpha" result="shadowOffsetOuter1"/><feGaussianBlur stdDeviation="3" in="shadowOffsetOuter1" result="shadowBlurOuter1"/><feColorMatrix values="0 0 0 0 0 0 0 0 0 0 0 0 0 0 0 0 0 0 0.230550699 0" in="shadowBlurOuter1"/></filter><filter x="-140%" y="-57.8%" width="353.3%" height="226.3%" filterUnits="objectBoundingBox" id="at"><feOffset dx="-1" dy="1" in="SourceAlpha" result="shadowOffsetOuter1"/><feGaussianBlur stdDeviation="3" in="shadowOffsetOuter1" result="shadowBlurOuter1"/><feColorMatrix values="0 0 0 0 0 0 0 0 0 0 0 0 0 0 0 0 0 0 0.230550699 0" in="shadowBlurOuter1"/></filter><filter x="-155.8%" y="-65.5%" width="381.9%" height="245.3%" filterUnits="objectBoundingBox" id="aq"><feOffset dx="-1" dy="1" in="SourceAlpha" result="shadowOffsetOuter1"/><feGaussianBlur stdDeviation="3" in="shadowOffsetOuter1" result="shadowBlurOuter1"/><feColorMatrix values="0 0 0 0 0 0 0 0 0 0 0 0 0 0 0 0 0 0 0.230550699 0" in="shadowBlurOuter1"/></filter><filter x="-175%" y="-47.8%" width="416.7%" height="204.5%" filterUnits="objectBoundingBox" id="an"><feOffset dx="-1" dy="1" in="SourceAlpha" result="shadowOffsetOuter1"/><feGaussianBlur stdDeviation="3" in="shadowOffsetOuter1" result="shadowBlurOuter1"/><feColorMatrix values="0 0 0 0 0 0 0 0 0 0 0 0 0 0 0 0 0 0 0.230550699 0" in="shadowBlurOuter1"/></filter><filter x="-134.6%" y="-57.1%" width="343.5%" height="227.2%" filterUnits="objectBoundingBox" id="ak"><feOffset dx="-1" dy="1" in="SourceAlpha" result="shadowOffsetOuter1"/><feGaussianBlur stdDeviation="3" in="shadowOffsetOuter1" result="shadowBlurOuter1"/><feColorMatrix values="0 0 0 0 0 0 0 0 0 0 0 0 0 0 0 0 0 0 0.230550699 0" in="shadowBlurOuter1"/></filter><filter x="-190.9%" y="-99.4%" width="445.5%" height="322.2%" filterUnits="objectBoundingBox" id="V"><feOffset dx="-1" dy="1" in="SourceAlpha" result="shadowOffsetOuter1"/><feGaussianBlur stdDeviation="3" in="shadowOffsetOuter1" result="shadowBlurOuter1"/><feColorMatrix values="0 0 0 0 0 0 0 0 0 0 0 0 0 0 0 0 0 0 0.230550699 0" in="shadowBlurOuter1"/></filter><filter x="-190.9%" y="-80.6%" width="445.5%" height="280.1%" filterUnits="objectBoundingBox" id="T"><feOffset dx="-1" dy="1" in="SourceAlpha" result="shadowOffsetOuter1"/><feGaussianBlur stdDeviation="3" in="shadowOffsetOuter1" result="shadowBlurOuter1"/><feColorMatrix values="0 0 0 0 0 0 0 0 0 0 0 0 0 0 0 0 0 0 0.230550699 0" in="shadowBlurOuter1"/></filter><filter x="-23.4%" y="-34.6%" width="142.6%" height="176.9%" filterUnits="objectBoundingBox" id="bU"><feMorphology radius=".5" operator="dilate" in="SourceAlpha" result="shadowSpreadOuter1"/><feOffset dx="-1" dy="1" in="shadowSpreadOuter1" result="shadowOffsetOuter1"/><feGaussianBlur stdDeviation="3" in="shadowOffsetOuter1" result="shadowBlurOuter1"/><feComposite in="shadowBlurOuter1" in2="SourceAlpha" operator="out" result="shadowBlurOuter1"/><feColorMatrix values="0 0 0 0 0 0 0 0 0 0 0 0 0 0 0 0 0 0 0.230550699 0" in="shadowBlurOuter1"/></filter><filter x="-208.9%" y="-61.9%" width="478%" height="252%" filterUnits="objectBoundingBox" id="P"><feOffset dx="-1" dy="1" in="SourceAlpha" result="shadowOffsetOuter1"/><feGaussianBlur stdDeviation="3" in="shadowOffsetOuter1" result="shadowBlurOuter1"/><feColorMatrix values="0 0 0 0 0 0 0 0 0 0 0 0 0 0 0 0 0 0 0.230550699 0" in="shadowBlurOuter1"/></filter><filter x="-199%" y="-58.7%" width="460.2%" height="231.2%" filterUnits="objectBoundingBox" id="N"><feOffset dx="-1" dy="1" in="SourceAlpha" result="shadowOffsetOuter1"/><feGaussianBlur stdDeviation="3" in="shadowOffsetOuter1" result="shadowBlurOuter1"/><feColorMatrix values="0 0 0 0 0 0 0 0 0 0 0 0 0 0 0 0 0 0 0.230550699 0" in="shadowBlurOuter1"/></filter><filter x="-199%" y="-57.4%" width="460.2%" height="228.3%" filterUnits="objectBoundingBox" id="L"><feOffset dx="-1" dy="1" in="SourceAlpha" result="shadowOffsetOuter1"/><feGaussianBlur stdDeviation="3" in="shadowOffsetOuter1" result="shadowBlurOuter1"/><feColorMatrix values="0 0 0 0 0 0 0 0 0 0 0 0 0 0 0 0 0 0 0.230550699 0" in="shadowBlurOuter1"/></filter><filter x="-199%" y="-54.4%" width="460.2%" height="221.6%" filterUnits="objectBoundingBox" id="J"><feOffset dx="-1" dy="1" in="SourceAlpha" result="shadowOffsetOuter1"/><feGaussianBlur stdDeviation="3" in="shadowOffsetOuter1" result="shadowBlurOuter1"/><feColorMatrix values="0 0 0 0 0 0 0 0 0 0 0 0 0 0 0 0 0 0 0.230550699 0" in="shadowBlurOuter1"/></filter><filter x="-199%" y="-52.3%" width="460.2%" height="216.9%" filterUnits="objectBoundingBox" id="H"><feOffset dx="-1" dy="1" in="SourceAlpha" result="shadowOffsetOuter1"/><feGaussianBlur stdDeviation="3" in="shadowOffsetOuter1" result="shadowBlurOuter1"/><feColorMatrix values="0 0 0 0 0 0 0 0 0 0 0 0 0 0 0 0 0 0 0.230550699 0" in="shadowBlurOuter1"/></filter><filter x="-199%" y="-53.3%" width="460.2%" height="219.2%" filterUnits="objectBoundingBox" id="F"><feOffset dx="-1" dy="1" in="SourceAlpha" result="shadowOffsetOuter1"/><feGaussianBlur stdDeviation="3" in="shadowOffsetOuter1" result="shadowBlurOuter1"/><feColorMatrix values="0 0 0 0 0 0 0 0 0 0 0 0 0 0 0 0 0 0 0.230550699 0" in="shadowBlurOuter1"/></filter><filter x="-190.9%" y="-99.4%" width="445.5%" height="322.2%" filterUnits="objectBoundingBox" id="C"><feOffset dx="-1" dy="1" in="SourceAlpha" result="shadowOffsetOuter1"/><feGaussianBlur stdDeviation="3" in="shadowOffsetOuter1" result="shadowBlurOuter1"/><feColorMatrix values="0 0 0 0 0 0 0 0 0 0 0 0 0 0 0 0 0 0 0.230550699 0" in="shadowBlurOuter1"/></filter><filter x="-190.9%" y="-80.6%" width="445.5%" height="280.1%" filterUnits="objectBoundingBox" id="z"><feOffset dx="-1" dy="1" in="SourceAlpha" result="shadowOffsetOuter1"/><feGaussianBlur stdDeviation="3" in="shadowOffsetOuter1" result="shadowBlurOuter1"/><feColorMatrix values="0 0 0 0 0 0 0 0 0 0 0 0 0 0 0 0 0 0 0.230550699 0" in="shadowBlurOuter1"/></filter><filter x="-199%" y="-59.1%" width="460.2%" height="232.1%" filterUnits="objectBoundingBox" id="w"><feOffset dx="-1" dy="1" in="SourceAlpha" result="shadowOffsetOuter1"/><feGaussianBlur stdDeviation="3" in="shadowOffsetOuter1" result="shadowBlurOuter1"/><feColorMatrix values="0 0 0 0 0 0 0 0 0 0 0 0 0 0 0 0 0 0 0.230550699 0" in="shadowBlurOuter1"/></filter><filter x="-208.9%" y="-61.9%" width="478%" height="252%" filterUnits="objectBoundingBox" id="t"><feOffset dx="-1" dy="1" in="SourceAlpha" result="shadowOffsetOuter1"/><feGaussianBlur stdDeviation="3" in="shadowOffsetOuter1" result="shadowBlurOuter1"/><feColorMatrix values="0 0 0 0 0 0 0 0 0 0 0 0 0 0 0 0 0 0 0.230550699 0" in="shadowBlurOuter1"/></filter><filter x="-199%" y="-58.7%" width="460.2%" height="231.2%" filterUnits="objectBoundingBox" id="q"><feOffset dx="-1" dy="1" in="SourceAlpha" result="shadowOffsetOuter1"/><feGaussianBlur stdDeviation="3" in="shadowOffsetOuter1" result="shadowBlurOuter1"/><feColorMatrix values="0 0 0 0 0 0 0 0 0 0 0 0 0 0 0 0 0 0 0.230550699 0" in="shadowBlurOuter1"/></filter><filter x="-199%" y="-57.4%" width="460.2%" height="228.3%" filterUnits="objectBoundingBox" id="n"><feOffset dx="-1" dy="1" in="SourceAlpha" result="shadowOffsetOuter1"/><feGaussianBlur stdDeviation="3" in="shadowOffsetOuter1" result="shadowBlurOuter1"/><feColorMatrix values="0 0 0 0 0 0 0 0 0 0 0 0 0 0 0 0 0 0 0.230550699 0" in="shadowBlurOuter1"/></filter><filter x="-199%" y="-54.4%" width="460.2%" height="221.6%" filterUnits="objectBoundingBox" id="k"><feOffset dx="-1" dy="1" in="SourceAlpha" result="shadowOffsetOuter1"/><feGaussianBlur stdDeviation="3" in="shadowOffsetOuter1" result="shadowBlurOuter1"/><feColorMatrix values="0 0 0 0 0 0 0 0 0 0 0 0 0 0 0 0 0 0 0.230550699 0" in="shadowBlurOuter1"/></filter><filter x="-199%" y="-52.3%" width="460.2%" height="216.9%" filterUnits="objectBoundingBox" id="h"><feOffset dx="-1" dy="1" in="SourceAlpha" result="shadowOffsetOuter1"/><feGaussianBlur stdDeviation="3" in="shadowOffsetOuter1" result="shadowBlurOuter1"/><feColorMatrix values="0 0 0 0 0 0 0 0 0 0 0 0 0 0 0 0 0 0 0.230550699 0" in="shadowBlurOuter1"/></filter><filter x="-199%" y="-53.3%" width="460.2%" height="219.2%" filterUnits="objectBoundingBox" id="e"><feOffset dx="-1" dy="1" in="SourceAlpha" result="shadowOffsetOuter1"/><feGaussianBlur stdDeviation="3" in="shadowOffsetOuter1" result="shadowBlurOuter1"/><feColorMatrix values="0 0 0 0 0 0 0 0 0 0 0 0 0 0 0 0 0 0 0.230550699 0" in="shadowBlurOuter1"/></filter><filter x="-11.1%" y="-20.8%" width="122.2%" height="141.7%" filterUnits="objectBoundingBox" id="bT"><feGaussianBlur stdDeviation="4.5" in="SourceAlpha" result="shadowBlurInner1"/><feOffset dy="1" in="shadowBlurInner1" result="shadowOffsetInner1"/><feComposite in="shadowOffsetInner1" in2="SourceAlpha" operator="arithmetic" k2="-1" k3="1" result="shadowInnerInner1"/><feColorMatrix values="0 0 0 0 0 0 0 0 0 0 0 0 0 0 0 0 0 0 0.301737325 0" in="shadowInnerInner1"/></filter><filter x="-199%" y="-59.1%" width="460.2%" height="232.1%" filterUnits="objectBoundingBox" id="R"><feOffset dx="-1" dy="1" in="SourceAlpha" result="shadowOffsetOuter1"/><feGaussianBlur stdDeviation="3" in="shadowOffsetOuter1" result="shadowBlurOuter1"/><feColorMatrix values="0 0 0 0 0 0 0 0 0 0 0 0 0 0 0 0 0 0 0.230550699 0" in="shadowBlurOuter1"/></filter><path d="M.5 4.5h5.275l-.5 15.996-2.637.264c.091-5.106.091-8.843 0-11.21C2.546 7.183 1.833 5.5.5 4.5z" id="i"/><path d="M22.225 4.5H27.5l-.124 15.359-2.638.263V11.55c0-3.516-.838-5.867-2.513-7.05z" id="K"/><path d="M32.725 3H38l-.074 14.54-2.637.264V10.55c0-3.516-.855-6.033-2.564-7.55z" id="o"/><path d="M32.725 4H38l-.074 14.54-2.637.264V11.55c0-3.516-.855-6.033-2.564-7.55z" id="M"/><path d="M64.302 1h5.275v13.584l-2.638.263V11.55c0-3.516-.879-7.033-2.637-10.55z" id="x"/><path d="M43.225 3H48.5l-.024 14.221-2.637.264V11.55c0-3.516-.871-6.367-2.614-8.55z" id="O"/><path d="M108.5 53.305c-17.925 1.874-35.85 5.08-53.774 9.621C36.802 67.466 18.56 73.754 0 81.79l3-22.5V23.017L0 .517C18.56 8.55 36.802 14.839 54.726 19.379c17.925 4.54 35.85 7.08 53.774 7.621z" id="ah"/><path d="M11.725 4.5H17l-.175 15.677-2.637.264v-9.89c0-3.517-.821-5.534-2.463-6.051z" id="f"/><path d="M15.197 3.456L23 3c-1.685 1.396-2.528 4.292-2.528 8.688v5.148a1 1 0 01-1.029 1l-.637-.02a1 1 0 01-.971-.999v-5.13c0-3.516-.88-6.26-2.638-8.23z" id="al"/><path d="M54 2.5h5l.027 13.402-2.272.228a1 1 0 11-.366.11v-4.69c0-3.516-.796-6.533-2.389-9.05z" id="Q"/><path d="M149.14 128.224c-2-16.096-14.002-24.369-36.007-24.818-19.858-.405-38.282 1.621-55.352-4.922C18.217 83.318 24.135 86.449 3.27 86.449H.22V52.435h.006l.001-6.594H3.27c9.041-.366 14.947.131 54.511-15.035 17.063-6.54 35.489-3.493 55.33-3.922 22.02-.476 34.03-9.201 36.03-26.177z" id="b"/><path id="aP" d="M.443.023H95.06v80h-95z"/><path d="M0 4.5L6 4c-1.685 1.396-2.528 4.292-2.528 8.688v7.468a1 1 0 01-.67.944l-.648.227a.991.991 0 01-1.32-.936v-7.703C.835 9.17.558 6.442 0 4.5z" id="ao"/><path d="M96 47.245V80H1V47.258l4.728-.001v1.307l9-.002c-.877 1.03-1.765 2.3-2.753 3.852-1.498 2.355-2.248 5.352-2.29 8.963l-.022 1.88.046.002.01.137.026.271c.546 4.958 4.749 8.815 9.852 8.815 5.475 0 9.913-4.438 9.913-9.913l-.006-.342-.018-.359a9.875 9.875 0 00-2.154-5.5l-.138-.167-.095-.135c-.722-1.002-1.62-1.762-2.965-2.666l-1.283-.853c-1.08-.742-1.314-1.067-1.267-1.464.084-.717 1.326-1.21 4.415-1L26 53.179h6.917l.067.13c.107.232.222.565.33.993l.051.22.053.245c.26 1.262.42 3.005.474 5.213l.002.078.016 1.153.003 2.519 2.411-.001.04.045c.292.348.41.625.41.832l.006.237.006.111.015.179.03.226c.395 2.553 2.557 4.433 5.128 4.433l.228-.005.245-.017a5.19 5.19 0 004.12-2.755l.07-.141.522-.018V53.18h4.773l.067.13c.107.232.222.565.33.993.337 1.352.538 3.392.587 6.087l.011 1.35v1.99h1.92l.228.237.128.145c.319.377.449.682.449.916l.613 1.991.083.209.112.26a9.255 9.255 0 008.445 5.474l.32-.005.39-.022a9.222 9.222 0 002.96-.73l.137-.062.055.182.102.318c.309.933.656 1.677 1.05 2.184.868 1.116 2.055 1.593 3.364 1.427.444-.057.87-.178 1.35-.363l.171-.067.378-.159.702-.305c.72-.302 1.148-.42 1.55-.42.367 0 .755.098 1.362.344l.392.166.497.219.377.16.171.067c.482.187.908.31 1.354.366 1.313.167 2.502-.317 3.367-1.444 1.233-1.605 2.392-7.14 2.392-9.79 0-5.475-4.438-9.913-9.913-9.913-5.474 0-9.912 4.438-9.912 9.913l.003.211.008.228c.007.158.018.327.033.505l.055.581-.114.108-.18.15a3.915 3.915 0 01-2.421.833l-.203-.006-.201-.015a3.942 3.942 0 01-3.424-2.996l.02-.042.064-.115c.118-.196.296-.419.542-.666l.074-.074h1.745l-.001-3.34-.001-13.139.495-.001v1.315h10.595l-.001-1.315 1.405-.001.001 2.634h13.232l-.001-2.635L96 47.245zm-18.582 9.869a7.913 7.913 0 017.913 7.913c0 1.812-.954 7.238-1.978 8.572-.362.47-.753.665-1.178.691l-.142.003c-1.2-.026-2.65-1.253-4.403-1.348l-.212-.006-.345.016c-1.592.138-2.941 1.18-4.074 1.316l-.15.012H72.7c-.44-.016-.845-.205-1.217-.684-.524-.674-1.021-2.378-1.386-4.138l-.117-.587a7.229 7.229 0 01-4.78 2.08l-.311.007-.26-.004a7.257 7.257 0 01-6.825-5.69l-.049-.24h-.12l-.01-.232a2.935 2.935 0 00-.243-.926l-.065-.14-.134-.247a5.212 5.212 0 00-.685-.904l-.181-.189h3.956l-.203.212a4.935 4.935 0 00-.76 1.057l-.036.071a3.123 3.123 0 00-.267.774A5.936 5.936 0 0069.7 67.181c-.124-.882-.194-1.653-.194-2.154a7.913 7.913 0 017.912-7.913zm-56.502-10.22a16.65 16.65 0 016.594 0v1.318l-.448-.047a23.39 23.39 0 00-2.046-.114h-.279c-3.21.024-4.923.957-5.14 2.799-.363 3.086 4.082 3.693 6.004 6.564a7.913 7.913 0 01-5.757 13.064l-.247.004-.246-.004a7.913 7.913 0 01-7.582-9.072l-.084-.006c.038-3.263.697-5.9 1.978-7.913 1.672-2.628 3.433-5.18 6.04-6.231l.293-.11a6.81 6.81 0 01.92-.253zM76.836 7a7.913 7.913 0 01.247 15.822l-.247.003-.246-.003a7.913 7.913 0 01-7.398-9.96 5.925 5.925 0 00-4.622-2.56l-.262-.005-.237.005a5.936 5.936 0 00-5.645 5.133c.139.706.561 1.41 1.266 2.115h1.815L61.506 34.7 66 34.698v-1.322h6.594l-.001 1.322L78 34.697v-2.64h2.638l-.001.107.21-.046c.211-.04.43-.061.653-.061h2.232l.221.007c.22.014.434.048.641.1v-.107h2.638l-.001 2.639L96 34.695v10.551l-8.769.002v2.634h-2.637v-.107l-.209.047a3.504 3.504 0 01-.432.054l-.221.006H81.5l-.222-.006a3.494 3.494 0 01-.64-.1v.106H78V45.25l-5.407.001v1.314H66V45.25l-4.494.001V61.73h-6.593l-.004-.796c-.065-6.503-.943-9.755-2.634-9.755H47v-2.496l-.094.004-.154.018c-.86.137-1.53.85-1.601 1.73l-.007.157v14.333h-.016l-.023.185a3.186 3.186 0 01-2.964 2.676l-.182.006-.18-.006a3.186 3.186 0 01-2.985-2.82l-.015-.179-.013-.377c-.055-.718-.414-1.437-1.078-2.156l-.188-.196h3.822l-.188.196c-.664.72-1.023 1.438-1.078 2.156l-.008.196.006.15.018.154a1.912 1.912 0 003.792-.154l.006-.15V50.47l.004-.107.037-.281A3.186 3.186 0 0147 47.407v-2.154l-4.494.001V61.73h-6.593l-.004-.796c-.065-6.503-.943-9.755-2.634-9.755H28v-5.924l-13.678.002v1.307H7.728v-1.306L1 45.259V34.707l6.728-.001v-1.33h6.594v1.329L28 34.703v-4.624h5.275l.094-.004c1.634-.141 2.48-4.023 2.54-11.646l.004-.879h6.594l-.001 17.152L47 34.701V31.89l-.127-.002-.186-.016a3.186 3.186 0 01-2.8-2.835l-.013-.1-.004-.108V14.693l-.006-.15a1.911 1.911 0 00-3.81 0l-.006.15.008.196c.055.719.414 1.438 1.078 2.156l.188.196H37.5l.188-.196c.724-.784 1.086-1.568 1.086-2.352l.005-.18.015-.179a3.186 3.186 0 016.334.04h.016v14.334l.007.157a1.911 1.911 0 001.755 1.748l.094.003v-.537h5.275l.094-.004c1.634-.141 2.48-4.023 2.54-11.646l.004-.879h.822l.182-.188c.758-.816 1.137-1.633 1.137-2.45h.12l.048-.24a7.256 7.256 0 0112.513-3.253A7.913 7.913 0 0176.836 7zM19.597 9.638a7.913 7.913 0 016.004 13.068c-1.922 2.87-6.367 3.478-6.004 6.564.222 1.886 2.013 2.819 5.372 2.799l.292-.004c.238-.005.484-.015.737-.029l.507-.034c.217-.016.44-.036.668-.06l.337-.035v1.319l-.47.087c-2.042.35-4.083.321-6.124-.087-3.084-.617-5.065-3.21-6.88-6.012l-.373-.582c-1.28-2.012-1.94-4.65-1.978-7.913l.084-.006a7.913 7.913 0 017.828-9.076zM96 0v32.695l-6.769.001v-2.639H76l-.001 2.64-1.405.001.001-1.322H64v1.322l-.495.001.002-17.149h-2.892l-.051-.08-.064-.115-.02-.042.053-.197a3.939 3.939 0 013.775-2.819l.23.007.247.022c.82.099 1.575.451 2.172.997l.081.077-.052.396a10 10 0 00-.063 1.117c0 5.474 4.438 9.912 9.913 9.912 5.475 0 9.913-4.438 9.913-9.912C86.749 9.438 82.31 5 76.836 5l-.308.005-.331.015a9.903 9.903 0 00-6.754 3.288l-.125.142-.238-.148-.286-.165a9.23 9.23 0 00-4.486-1.159l-.274.004-.301.014a9.261 9.261 0 00-8.005 5.762l-.062.158-.612.003v1.994l-.005.082-.015.087c-.028.12-.086.256-.18.408l-.041.06h-1.9v2l-.005.991c-.032 3.553-.24 6.229-.612 7.994l-.053.241-.055.226c-.11.437-.226.778-.339 1.02l-.029.056h-4.676V12.443l-.522-.018-.07-.14-.108-.196a5.186 5.186 0 00-9.662 2.312l-.007.237-.005.087-.018.106c-.042.18-.143.381-.323.613l-.088.106h-2.428l-.002 2.451-.012 1.24-.015.755c-.07 2.837-.269 5.024-.588 6.539l-.053.241-.055.226c-.11.437-.226.778-.339 1.02l-.029.056H26v1.957c-3.107.209-4.332-.285-4.416-1-.044-.373.163-.684 1.095-1.343l.36-.248 1.024-.678.374-.253.313-.22c1.013-.728 1.743-1.399 2.35-2.24l.096-.139.136-.163a9.881 9.881 0 002.178-6.2c0-5.475-4.438-9.913-9.913-9.913l-.277.003-.276.012a9.914 9.914 0 00-9.325 9.07l-.01.137-.046.003.022 1.88.01.488c.102 3.393.85 6.226 2.28 8.475.93 1.461 1.773 2.674 2.6 3.67H5.73l-.001 1.33L1 32.707V0h95z" id="aT"/><path d="M64.302 1h5.275v13.584l-2.638.263V11.55c0-3.516-.879-7.033-2.637-10.55z" id="S"/><path d="M75 1h5.275l.225 10-2.862.55c.14-2.108-.017-4.065-.468-5.87C76.719 3.875 75.995 2.315 75 1z" id="A"/><path d="M98 0H0v80h98V0zm-3 3v74H3V3h92z" id="aW"/><path d="M54.76.5L61.5 0c-.976.092-1.464 2.336-1.464 6.732v5.048a1 1 0 01-.88.992l-.638.078a1 1 0 01-1.12-.993V6.732c0-3.517-.879-5.594-2.637-6.232z" id="ar"/><path d="M75 1h5.275l.225 10-2.862.55c.14-2.108-.017-4.065-.468-5.87C76.719 3.875 75.995 2.315 75 1z" id="U"/><path d="M43.225 2H48.5l-.024 14.221-2.637.264V10.55c0-3.516-.871-6.367-2.614-8.55z" id="r"/><path d="M35 2l7.5-.5c-1.497.638-2.246 3.154-2.246 7.55v5.509a1 1 0 01-.659.94l-.66.24a.984.984 0 01-1.318-.925v-4.445c0-3.517-.873-6.306-2.617-8.369z" id="au"/><path id="bF" d="M0 0h7.913v26.376H0z"/><path id="bI" d="M0 0h7.913v26.376H0z"/><path d="M86 0h5.275l.225 8-2.862.55c.14-.775-.017-2.065-.468-3.87C87.719 2.875 86.995 1.315 86 0z" id="W"/><path d="M15.197 3.456L23 3c-1.685 1.396-2.528 4.292-2.528 8.688v5.148a1 1 0 01-1.029 1l-.637-.02a1 1 0 01-.971-.999v-5.13c0-3.516-.88-6.26-2.638-8.23z" id="ax"/><path d="M22.225 3.5H27.5l-.124 15.359-2.638.263V10.55c0-3.516-.838-5.867-2.513-7.05z" id="l"/><path d="M86 0h5.275l.225 8-2.862.55c.14-.775-.017-2.065-.468-3.87C87.719 2.875 86.995 1.315 86 0z" id="D"/><path d="M0 4.5L6 4c-1.685 1.396-2.528 4.292-2.528 8.688v7.468a1 1 0 01-.67.944l-.648.227a.991.991 0 01-1.32-.936v-7.703C.835 9.17.558 6.442 0 4.5z" id="az"/><path d="M54.76.5L61.5 0c-.976.092-1.464 2.336-1.464 6.732v5.048a1 1 0 01-.88.992l-.638.078a1 1 0 01-1.12-.993V6.732c0-3.517-.879-5.594-2.637-6.232z" id="aB"/><path d="M11.725 5.5H17l-.175 15.677-2.637.264v-9.89c0-3.517-.821-5.534-2.463-6.051z" id="G"/><path d="M35 2l7.5-.5c-1.497.638-2.246 3.154-2.246 7.55v5.509a1 1 0 01-.659.94l-.66.24a.984.984 0 01-1.318-.925v-4.445c0-3.517-.873-6.306-2.617-8.369z" id="aD"/><path d="M131 66H94a5 5 0 00-5 5v16a5 5 0 005 5h37a5 5 0 005-5V71a5 5 0 00-5-5zm-37 2h37a3 3 0 013 3v16a3 3 0 01-3 3H94a3 3 0 01-3-3V71a3 3 0 013-3z" id="bV"/><path d="M54 1.5h5l.027 13.402-2.272.228a1 1 0 11-.366.11v-4.69c0-3.516-.796-6.533-2.389-9.05z" id="u"/><path d="M.5 5.5h5.275l-.5 15.996-2.637.264c.091-5.106.091-8.843 0-11.21C2.546 8.183 1.833 6.5.5 5.5z" id="I"/><radialGradient cx="-20.177%" cy="-21.812%" fx="-20.177%" fy="-21.812%" r="141.011%" id="bi"><stop stop-color="#8B878D" offset="0%"/><stop stop-color="#9F9CA1" offset="13.66%"/><stop stop-color="#D9D8DA" offset="42.07%"/><stop stop-color="#F3F4F4" offset="51.52%"/><stop stop-color="#807B80" offset="100%"/></radialGradient><radialGradient cx="50%" cy="54.424%" fx="50%" fy="54.424%" r="45.576%" gradientTransform="matrix(0 1 -.78087 0 .925 .044)" id="a"><stop stop-color="#172942" stop-opacity=".993" offset="0%"/><stop stop-color="#162841" stop-opacity="0" offset="100%"/></radialGradient><rect id="bS" x="90" y="67" width="45" height="24" rx="4"/></defs><g fill="none" fill-rule="evenodd"><path fill="url(#a)" style="mix-blend-mode:darken" d="M0 317h792v91H0z" transform="translate(-13)"/><path fill="#FFF" fill-rule="nonzero" opacity=".5" d="M57.625 92v4.564l-2.096-2.096L55 95l3 3 3-3-.529-.529-2.096 2.093V92z"/><path d="M138 126.704V21m16-15h595.999l1.797 273.51m.204 1.5l-94.845-.239L657.5 354m0 0l-519.5-.216v-49.44" stroke="#FFF" opacity=".4" stroke-dasharray="2"/><g transform="translate(126)"><path stroke="#FFF" opacity=".5" d="M.256 6H27.5"/><circle fill="#33A7DF" transform="rotate(-90 12.087 5.815)" cx="12.087" cy="5.815" r="5.095"/><circle fill="#EF3340" transform="rotate(-90 2.265 5.765)" cx="2.265" cy="5.765" r="2.265"/></g><path stroke="#FFF" opacity=".5" d="M138 11v10h0"/><path d="M153 342v-36.062m0-179.806V63.525M169.504 49H575.3l.556 79.708m1.062 161.981l.082 50.204m-.42.606H153" stroke="#FFF" opacity=".4" stroke-dasharray="2"/><g transform="translate(142 43)"><circle fill="#EF3340" transform="rotate(-90 2.265 6.065)" cx="2.265" cy="6.065" r="2.265"/><path stroke="#FFF" opacity=".5" d="M4.5 6h22M11 10v10h0"/><circle fill="#33A7DF" transform="rotate(-90 11.69 5.153)" cx="11.69" cy="5.153" r="5.095"/></g><g transform="translate(426 148)"><mask id="d" fill="#fff"><use xlink:href="#b"/></mask><use fill="url(#c)" fill-rule="nonzero" xlink:href="#b"/><g opacity=".6"><g opacity=".148" mask="url(#d)" stroke="#FFF" stroke-linecap="square" stroke-width=".5"><path d="M-355 115.761l563.783-565.102M-355 119.717l563.783-565.101M-355 123.674l563.783-565.102M-355 127.63l563.783-565.101M-355 131.586l563.783-565.101M-355 135.543l563.783-565.102M-355 139.499l563.783-565.101M-355 143.455l563.783-565.101M-355 147.412L208.783-417.69M-355 151.368l563.783-565.101M-355 155.324l563.783-565.101M-355 159.281l563.783-565.102M-355 163.237l563.783-565.101M-355 167.194l563.783-565.102M-355 171.15l563.783-565.101M-355 175.106l563.783-565.101M-355 179.063l563.783-565.102M-355 183.019l563.783-565.101M-355 186.975l563.783-565.101M-355 190.932L208.783-374.17M-355 194.888l563.783-565.101M-355 198.845l563.783-565.102M-355 202.801L208.783-362.3M-355 206.757l563.783-565.101M-355 210.714l563.783-565.102M-355 214.67l563.783-565.101M-355 218.626l563.783-565.101M-355 222.583l563.783-565.102M-355 226.539l563.783-565.101M-355 230.495l563.783-565.101M-355 234.452L208.783-330.65M-355 238.408l563.783-565.101M-355 242.365l563.783-565.102M-355 246.321L208.783-318.78M-355 250.277l563.783-565.101M-355 254.234l563.783-565.102M-355 258.19l563.783-565.101M-355 262.146l563.783-565.101M-355 266.103l563.783-565.102M-355 270.059l563.783-565.101M-355 274.016l563.783-565.102M-355 277.972l563.783-565.101M-355 281.928l563.783-565.101M-355 285.885l563.783-565.102M-355 289.841L208.783-275.26M-355 293.797l563.783-565.101M-355 297.754l563.783-565.102M-355 301.71l563.783-565.101M-355 305.666l563.783-565.101M-355 309.623l563.783-565.102M-355 313.579l563.783-565.101M-355 317.536l563.783-565.102M-355 321.492l563.783-565.101M-355 325.448l563.783-565.101M-355 329.405l563.783-565.102M-355 333.361L208.783-231.74M-355 337.317l563.783-565.101M-355 341.274l563.783-565.102M-355 345.23l563.783-565.101M-355 349.187l563.783-565.102M-355 353.143l563.783-565.101M-355 357.099l563.783-565.101M-355 361.056l563.783-565.102M-355 365.012l563.783-565.101M-355 368.968l563.783-565.101M-355 372.925l563.783-565.102M-355 376.881L208.783-188.22M-355 380.837l563.783-565.101M-355 384.794l563.783-565.102M-355 388.75l563.783-565.101M-355 392.707l563.783-565.102M-355 396.663l563.783-565.101M-355 400.619l563.783-565.101M-355 404.576l563.783-565.102M-355 408.532l563.783-565.101M-355 412.488l563.783-565.101M-355 416.445l563.783-565.102M-355 420.401L208.783-144.7M-355 424.358l563.783-565.102M-355 428.314l563.783-565.101M-355 432.27l563.783-565.101M-355 436.227l563.783-565.102M-355 440.183l563.783-565.101M-355 444.139l563.783-565.101M-355 448.096l563.783-565.102M-355 452.052l563.783-565.101M-355 456.009l563.783-565.102M-355 459.965l563.783-565.102M-355 463.921L208.783-101.18M-355 467.878L208.783-97.224M-355 471.834L208.783-93.267M-355 475.79L208.783-89.311M-355 479.747L208.783-85.355M-355 483.703L208.783-81.398M-355 487.659L208.783-77.442M-355 491.616L208.783-73.486M-355 495.572L208.783-69.529M-355 499.529L208.783-65.573M-355 503.485L208.783-61.616M-355 507.441L208.783-57.66M-355 511.398L208.783-53.704M-355 515.354L208.783-49.747M-355 519.31L208.783-45.791M-355 523.267L208.783-41.835M-355 527.223L208.783-37.878M-355 531.18L208.783-33.922M-355 535.136L208.783-29.965M-355 539.092L208.783-26.009M-355 543.049L208.783-22.053M-355 547.005L208.783-18.096M-355 550.961L208.783-14.14M-355 554.918L208.783-10.184M-355 558.874L208.783-6.227M-355 562.83L208.783-2.271M-355 566.787L208.783 1.685M-355 570.743L208.783 5.642M-355 574.7L208.783 9.598M-355 578.656L208.783 13.555M-355 582.612L208.783 17.511M-355 586.569L208.783 21.467M-355 590.525L208.783 25.424M-355 594.481L208.783 29.38M-355 598.438L208.783 33.336M-355 602.394L208.783 37.293M-355 606.351L208.783 41.249M-355 610.307L208.783 45.206M-355 614.263L208.783 49.162M-355 618.22L208.783 53.118M-355 622.176L208.783 57.075M-355 626.132L208.783 61.031M-355 630.089L208.783 64.987M-355 634.045L208.783 68.944M-355 638.001L208.783 72.9M-355 641.958L208.783 76.856M-355 645.914L208.783 80.813M-355 649.871L208.783 84.769M-355 653.827L208.783 88.726M-355 657.783L208.783 92.682M-355 661.74L208.783 96.638M-355 665.696l563.783-565.101M-355 669.652l563.783-565.101M-355 673.609l563.783-565.102M-355 677.565l563.783-565.101M-355 681.522L208.783 116.42"/></g></g></g><path d="M423.536 123H369.57v47.058l-103.886 5.876L155 148.954v129.093l110.662-27.029 103.907 8.177v25.624c0 7.732 6.268 14 14 14h26.494l.312-.004c7.59-.177 13.681-6.388 13.67-14.016l-.016-11.361 88.97 3.957.001.006 9.892.5V285c0 7.732 6.269 14 14 14H563c7.732 0 14-6.268 14-14V135.007a6 6 0 00-6-6h-42.107l-.226.005a6.002 6.002 0 00-5.754 6.026l.078 15.188-98.993 7.666-.462-34.892zm-49.967 4h46.019l.467 35.21 104.983-8.13-.007-.08h1.98l-.098-18.983a2 2 0 011.99-2.01H571a2 2 0 012 2V285c0 5.523-4.477 10-10 10h-26.107c-5.523 0-10-4.477-10-10v-10.901l-9.893-.501v-.029l-96.977-4.313.022 15.55c.008 5.522-4.462 10.005-9.985 10.013h-26.49c-5.523 0-10-4.477-10-10l-.001-29.32-108.232-8.518L159 272.953V154.046l106.316 25.916 108.253-6.123V127z" fill="#C2C2C2" fill-rule="nonzero"/><g fill-rule="nonzero"><g transform="translate(274 174)"><use fill="#000" filter="url(#e)" xlink:href="#f"/><use fill="url(#g)" xlink:href="#f"/></g><g transform="translate(274 174)"><use fill="#000" filter="url(#h)" xlink:href="#i"/><use fill="url(#j)" xlink:href="#i"/></g><g transform="translate(274 174)"><use fill="#000" filter="url(#k)" xlink:href="#l"/><use fill="url(#m)" xlink:href="#l"/></g><g transform="translate(274 174)"><use fill="#000" filter="url(#n)" xlink:href="#o"/><use fill="url(#p)" xlink:href="#o"/></g><g transform="translate(274 174)"><use fill="#000" filter="url(#q)" xlink:href="#r"/><use fill="url(#s)" xlink:href="#r"/></g><g transform="translate(274 174)"><use fill="#000" filter="url(#t)" xlink:href="#u"/><use fill="url(#v)" xlink:href="#u"/></g><g transform="translate(274 174)"><use fill="#000" filter="url(#w)" xlink:href="#x"/><use fill="url(#y)" xlink:href="#x"/></g><g transform="translate(274 174)"><use fill="#000" filter="url(#z)" xlink:href="#A"/><use fill="url(#B)" xlink:href="#A"/></g><g transform="translate(274 174)"><use fill="#000" filter="url(#C)" xlink:href="#D"/><use fill="url(#E)" xlink:href="#D"/></g></g><g fill-rule="nonzero"><g transform="matrix(1 0 0 -1 274 255)"><use fill="#000" filter="url(#F)" xlink:href="#G"/><use fill="url(#g)" xlink:href="#G"/></g><g transform="matrix(1 0 0 -1 274 255)"><use fill="#000" filter="url(#H)" xlink:href="#I"/><use fill="url(#j)" xlink:href="#I"/></g><g transform="matrix(1 0 0 -1 274 255)"><use fill="#000" filter="url(#J)" xlink:href="#K"/><use fill="url(#m)" xlink:href="#K"/></g><g transform="matrix(1 0 0 -1 274 255)"><use fill="#000" filter="url(#L)" xlink:href="#M"/><use fill="url(#p)" xlink:href="#M"/></g><g transform="matrix(1 0 0 -1 274 255)"><use fill="#000" filter="url(#N)" xlink:href="#O"/><use fill="url(#s)" xlink:href="#O"/></g><g transform="matrix(1 0 0 -1 274 255)"><use fill="#000" filter="url(#P)" xlink:href="#Q"/><use fill="url(#v)" xlink:href="#Q"/></g><g transform="matrix(1 0 0 -1 274 255)"><use fill="#000" filter="url(#R)" xlink:href="#S"/><use fill="url(#y)" xlink:href="#S"/></g><g transform="matrix(1 0 0 -1 274 255)"><use fill="#000" filter="url(#T)" xlink:href="#U"/><use fill="url(#B)" xlink:href="#U"/></g><g transform="matrix(1 0 0 -1 274 255)"><use fill="#000" filter="url(#V)" xlink:href="#W"/><use fill="url(#E)" xlink:href="#W"/></g></g><g fill-rule="nonzero" stroke="#636262" stroke-width=".5"><path fill="url(#X)" transform="rotate(90 160 259.5)" d="M24 5l8 10v15l-8 10z"/><path fill="url(#Y)" transform="rotate(90 159.5 242)" d="M23-4h9v18h-9z"/><path d="M4 9h47a4 4 0 014 4v9h0H0v-9a4 4 0 014-4z" fill="url(#Z)" transform="translate(369 105)"/><path fill="url(#aa)" d="M0 15h55v2H0z" transform="translate(369 105)"/></g><g transform="translate(526 108.222)" fill-rule="nonzero" stroke="#7F7F7F" stroke-width=".5"><path fill="url(#ab)" transform="rotate(90 19.122 8.572)" d="M17.144-17.144l9.232 21.1-9.232 22.42z"/><path fill="url(#ac)" transform="matrix(0 -1 -1 0 36.596 41.872)" d="M18.793-8.902l7.253 21.76-7.253 21.76z"/><path fill="url(#ad)" transform="rotate(-90 15.166 11.21)" d="M2.638-2.638h17.144l-9.232 22.42z"/><path fill="url(#ae)" transform="matrix(0 -1 -1 0 42.86 48.136)" d="M24.398-1.978h17.144l-9.232 21.1z"/><rect fill="#B6B6B6" y="22.419" width="46.158" height="2.638" rx="1.319"/><rect fill="url(#af)" x="6.594" width="32.97" height="6.594" rx="2"/><rect fill="url(#ag)" width="46.158" height="7.913" rx="1"/></g><path d="M413 141v10.938c0 3.218.574 4.756 1.561 5.392.793.512 1.84.661 4.602.671L420.5 158v4l-1.423.001c-3.56-.013-5.02-.236-6.684-1.309-2.276-1.468-3.328-4.146-3.39-8.355l-.003-.399V141h4z" fill="#C2C2C2" fill-rule="nonzero"/><g transform="translate(162 173)"><mask id="aj" fill="#fff"><use xlink:href="#ah"/></mask><use fill="url(#ai)" fill-rule="nonzero" xlink:href="#ah"/><g opacity=".6"><g opacity=".148" mask="url(#aj)" stroke="#FFF" stroke-linecap="square" stroke-width=".5"><path d="M-97.228 102.054l563.783-565.102M-97.228 106.01l563.783-565.101M-97.228 109.967l563.783-565.102M-97.228 113.923l563.783-565.101M-97.228 117.879l563.783-565.101M-97.228 121.836l563.783-565.102M-97.228 125.792L466.555-439.31M-97.228 129.748l563.783-565.101M-97.228 133.705l563.783-565.102M-97.228 137.66l563.783-565.1M-97.228 141.617l563.783-565.101M-97.228 145.574l563.783-565.102M-97.228 149.53l563.783-565.101M-97.228 153.487l563.783-565.102M-97.228 157.443l563.783-565.101M-97.228 161.399l563.783-565.101M-97.228 165.356l563.783-565.102M-97.228 169.312L466.555-395.79M-97.228 173.268l563.783-565.101M-97.228 177.225l563.783-565.102M-97.228 181.18l563.783-565.1M-97.228 185.138l563.783-565.102M-97.228 189.094l563.783-565.101M-97.228 193.05l563.783-565.101M-97.228 197.007l563.783-565.102M-97.228 200.963l563.783-565.101M-97.228 204.919l563.783-565.101M-97.228 208.876l563.783-565.102M-97.228 212.832L466.555-352.27M-97.228 216.788l563.783-565.101M-97.228 220.745l563.783-565.102M-97.228 224.7l563.783-565.1M-97.228 228.658l563.783-565.102M-97.228 232.614l563.783-565.101M-97.228 236.57l563.783-565.101M-97.228 240.527l563.783-565.102M-97.228 244.483l563.783-565.101M-97.228 248.439l563.783-565.101M-97.228 252.396l563.783-565.102M-97.228 256.352L466.555-308.75M-97.228 260.309l563.783-565.102M-97.228 264.265l563.783-565.101M-97.228 268.22l563.783-565.1M-97.228 272.178l563.783-565.102M-97.228 276.134l563.783-565.101M-97.228 280.09l563.783-565.101M-97.228 284.047l563.783-565.102M-97.228 288.003l563.783-565.101M-97.228 291.959l563.783-565.101M-97.228 295.916l563.783-565.102M-97.228 299.872L466.555-265.23M-97.228 303.829l563.783-565.102M-97.228 307.785l563.783-565.101M-97.228 311.74l563.783-565.1M-97.228 315.698l563.783-565.102M-97.228 319.654l563.783-565.101M-97.228 323.61l563.783-565.101M-97.228 327.567l563.783-565.102M-97.228 331.523l563.783-565.101M-97.228 335.48l563.783-565.102M-97.228 339.436l563.783-565.101M-97.228 343.392L466.555-221.71M-97.228 347.349l563.783-565.102M-97.228 351.305l563.783-565.101M-97.228 355.26l563.783-565.1M-97.228 359.218l563.783-565.102M-97.228 363.174l563.783-565.101M-97.228 367.13l563.783-565.101M-97.228 371.087l563.783-565.102M-97.228 375.043l563.783-565.101M-97.228 379l563.783-565.102M-97.228 382.956l563.783-565.101M-97.228 386.912L466.555-178.19M-97.228 390.869l563.783-565.102M-97.228 394.825l563.783-565.101M-97.228 398.78l563.783-565.1M-97.228 402.738l563.783-565.102M-97.228 406.694l563.783-565.101M-97.228 410.65L466.555-154.45M-97.228 414.607l563.783-565.101M-97.228 418.563l563.783-565.101M-97.228 422.52l563.783-565.102M-97.228 426.476l563.783-565.101M-97.228 430.432L466.555-134.67M-97.228 434.389l563.783-565.102M-97.228 438.345l563.783-565.101M-97.228 442.302L466.555-122.8M-97.228 446.258l563.783-565.102M-97.228 450.214l563.783-565.101M-97.228 454.17L466.555-110.93M-97.228 458.127l563.783-565.101M-97.228 462.083l563.783-565.101M-97.228 466.04L466.555-99.062M-97.228 469.996L466.555-95.105M-97.228 473.952L466.555-91.15M-97.228 477.909L466.555-87.193M-97.228 481.865L466.555-83.236M-97.228 485.822L466.555-79.28M-97.228 489.778L466.555-75.323M-97.228 493.734L466.555-71.367M-97.228 497.69L466.555-67.41M-97.228 501.647L466.555-63.454M-97.228 505.603L466.555-59.498M-97.228 509.56L466.555-55.542M-97.228 513.516L466.555-51.585M-97.228 517.473L466.555-47.63M-97.228 521.429L466.555-43.672M-97.228 525.385L466.555-39.716M-97.228 529.342L466.555-35.76M-97.228 533.298L466.555-31.803M-97.228 537.254L466.555-27.847M-97.228 541.21L466.555-23.89M-97.228 545.167L466.555-19.934M-97.228 549.123L466.555-15.978M-97.228 553.08L466.555-12.022M-97.228 557.036L466.555-8.065M-97.228 560.993L466.555-4.11M-97.228 564.949L466.555-.152M-97.228 568.905L466.555 3.804M-97.228 572.862L466.555 7.76M-97.228 576.818L466.555 11.717M-97.228 580.774L466.555 15.673M-97.228 584.73L466.555 19.63M-97.228 588.687L466.555 23.586M-97.228 592.644L466.555 27.542M-97.228 596.6L466.555 31.499M-97.228 600.556L466.555 35.455M-97.228 604.513L466.555 39.41M-97.228 608.469L466.555 43.368M-97.228 612.425L466.555 47.324M-97.228 616.382L466.555 51.28M-97.228 620.338L466.555 55.237M-97.228 624.294L466.555 59.193M-97.228 628.25L466.555 63.15M-97.228 632.207L466.555 67.106M-97.228 636.164L466.555 71.062M-97.228 640.12L466.555 75.019M-97.228 644.076L466.555 78.975M-97.228 648.033L466.555 82.93M-97.228 651.989L466.555 86.888M-97.228 655.945L466.555 90.844M-97.228 659.902L466.555 94.8M-97.228 663.858L466.555 98.757M-97.228 667.815l563.783-565.102"/></g></g></g><g fill-rule="nonzero"><g transform="translate(420 157)"><use fill="#000" filter="url(#ak)" xlink:href="#al"/><use fill="url(#am)" xlink:href="#al"/></g><g transform="translate(420 157)"><use fill="#000" filter="url(#an)" xlink:href="#ao"/><use fill="url(#ap)" xlink:href="#ao"/></g><g transform="translate(420 157)"><use fill="#000" filter="url(#aq)" xlink:href="#ar"/><use fill="url(#as)" xlink:href="#ar"/></g><g transform="translate(420 157)"><use fill="#000" filter="url(#at)" xlink:href="#au"/><use fill="url(#av)" xlink:href="#au"/></g><g><g transform="matrix(1 0 0 -1 420 274)"><use fill="#000" filter="url(#aw)" xlink:href="#ax"/><use fill="url(#am)" xlink:href="#ax"/></g><g transform="matrix(1 0 0 -1 420 274)"><use fill="#000" filter="url(#ay)" xlink:href="#az"/><use fill="url(#ap)" xlink:href="#az"/></g><g transform="matrix(1 0 0 -1 420 274)"><use fill="#000" filter="url(#aA)" xlink:href="#aB"/><use fill="url(#as)" xlink:href="#aB"/></g><g transform="matrix(1 0 0 -1 420 274)"><use fill="#000" filter="url(#aC)" xlink:href="#aD"/><use fill="url(#av)" xlink:href="#aD"/></g></g></g><path d="M425.686 233H444v4l-19.023.004c-7.572.041-10.289.502-28.48 4.33l-.585.123c-15.526 3.269-22.267 10.67-22.41 20.23l-.002.313h-4c0-11.685 8.114-20.778 25.588-24.457l5.478-1.148c14.647-3.048 17.42-3.376 25.12-3.394z" fill="#C2C2C2" fill-rule="nonzero"/><path d="M573 281l4-.003c-.016-20.642-15.378-30.999-45.015-30.999l-2.691-.002c-27.826-.062-37.55-1.117-46.145-4.342l-.541-.207c-1.21-.469-5.843-2.394-6.87-2.805l-2.066-.822c-14.678-5.8-24.202-8.732-30.389-8.82l-.283-.002v4c5.482 0 14.831 2.866 29.226 8.552l2.29.912c1.37.557 5.472 2.26 6.646 2.715l.865.328c9.363 3.457 19.911 4.493 49.958 4.493 27.409 0 40.733 8.799 41.01 26.464L573 281zM469.363 186.924c-16.08 6.467-21.037 8.076-26.37 8.076l-5.324-.008c-6.171-.02-11.249-.082-16.778-.233l-2.381-.07c-5.075-.162-9.51-.39-13.179-.696-7.744-.645-12.7-1.79-16.674-4.38-4.953-3.228-7.552-8.475-7.654-16.14L381 173v-32h4v32c0 11.897 5.636 15.688 20.219 16.969l.444.038c3.971.33 8.894.571 14.585.733l2.978.077c5.648.133 11.04.176 17.934.182l1.833.001c4.735 0 9.886-1.738 26.482-8.434l5.036-2.03c1.37-.557 5.472-2.26 6.646-2.714l.865-.328c9.363-3.458 19.912-4.494 49.96-4.494 27.411 0 40.736-8.798 41.014-26.464l.004-.538 4 .004C576.984 166.643 561.621 177 531.982 177l-2.69.003c-27.828.061-37.552 1.116-46.148 4.342l-.541.206c-.986.382-4.244 1.731-5.996 2.449l-7.244 2.924zM165.873 171.717l-3.347-1.624 3.474 26.06v35.999l-3.472 26.046 4.847-2.333a268.138 268.138 0 0149.842-18 772.368 772.368 0 0153.635-11.591l1.648-.295V200.2l-1.792-.188c-17.829-1.864-35.659-5.054-53.49-9.57a268.134 268.134 0 01-51.345-18.724zm1.596 5.192l1.225.57a272.217 272.217 0 0047.541 16.839l2.002.501c16.015 3.969 32.032 6.879 48.05 8.73l2.213.248v18.837l1.648-.298a776.367 776.367 0 00-53.913 11.651l-1.64.421a272.103 272.103 0 00-45.901 16.417l-1.225.571L170 232.421v-36.537l-2.531-18.975z" fill="#C2C2C2" fill-rule="nonzero"/><g><path d="M33.039 24.648H4.319c-1.036 0-1.973.42-2.652 1.098A3.738 3.738 0 00.57 28.398v171.355c0 1.036.42 1.973 1.098 2.652a3.738 3.738 0 002.652 1.098h28.72V24.648z" stroke="#2C405A" stroke-width=".5" fill="url(#aE)" fill-rule="nonzero" transform="translate(0 102)"/><path stroke="#2C405A" stroke-width=".5" fill="url(#aF)" fill-rule="nonzero" d="M41.451 24.648H75.24v178.855H41.451z" transform="translate(0 102)"/><path stroke="#2C405A" stroke-width=".5" fill="url(#aG)" fill-rule="nonzero" d="M92.884 24.648h17.963v178.855H92.884z" transform="translate(0 102)"/><path stroke="#2C405A" fill="url(#aH)" fill-rule="nonzero" d="M73.5 24.5h20.101v178.355H73.5z" transform="translate(0 102)"/><path d="M152.887 24.25H132c-1.036 0-1.973.42-2.652 1.098A3.738 3.738 0 00128.25 28v170.355c0 1.036.42 1.973 1.098 2.652a3.738 3.738 0 002.652 1.098h20.88c.934 0 1.797-.343 2.459-.918a3.742 3.742 0 001.254-2.306l9.365-66.178a3.75 3.75 0 00.037-.525V93.182a3.75 3.75 0 00-.038-.533l-9.358-65.182a3.742 3.742 0 00-1.256-2.3 3.742 3.742 0 00-2.456-.917z" stroke="#2C405A" stroke-width=".5" fill="url(#aI)" fill-rule="nonzero" transform="translate(0 102)"/><path stroke="#2C405A" fill="url(#aH)" fill-rule="nonzero" d="M110.5 24.5h20.101v178.355H110.5z" transform="translate(0 102)"/><path stroke="#2C405A" stroke-width=".5" fill="url(#aJ)" fill-rule="nonzero" d="M31.72 46.567h11.05v22.919H31.72z" transform="translate(0 102)"/><path stroke="#2C405A" stroke-width=".5" fill="url(#aJ)" fill-rule="nonzero" d="M31.72 68.986h11.05v22.919H31.72z" transform="translate(0 102)"/><path stroke="#2C405A" stroke-width=".5" fill="url(#aJ)" fill-rule="nonzero" d="M31.72 91.406h11.05v22.919H31.72z" transform="translate(0 102)"/><path stroke="#2C405A" stroke-width=".5" fill="url(#aJ)" fill-rule="nonzero" d="M31.72 113.825h11.05v22.919H31.72z" transform="translate(0 102)"/><path stroke="#2C405A" stroke-width=".5" fill="url(#aJ)" fill-rule="nonzero" d="M31.72 136.245h11.05v22.919H31.72z" transform="translate(0 102)"/><path stroke="#2C405A" stroke-width=".5" fill="url(#aJ)" fill-rule="nonzero" d="M31.72 158.664h11.05v22.919H31.72z" transform="translate(0 102)"/><path stroke="#2C405A" stroke-width=".5" fill="url(#aJ)" fill-rule="nonzero" d="M31.72 181.084h11.05v22.919H31.72zM31.72 24.148h11.05v22.919H31.72z" transform="translate(0 102)"/><g transform="translate(46 306)"><path stroke="#FFF" opacity=".4" d="M51 0v20H2"/><circle fill="#33A7DF" transform="rotate(-90 41.5 20.5)" cx="41.5" cy="20.5" r="4.5"/><circle fill="#EF3340" transform="rotate(-90 2 20)" cx="2" cy="20" r="2"/></g><g transform="translate(110 306)"><path stroke="#FFF" opacity=".4" d="M20 0v20H0V0h0"/><circle fill="#33A7DF" transform="rotate(-90 9.5 20.5)" cx="9.5" cy="20.5" r="4.5"/></g><g transform="translate(41.201 102)" fill-rule="nonzero" stroke="#7F7F7F" stroke-width=".5"><path fill="url(#aK)" transform="rotate(90 13.188 8.572)" d="M10.55-9.89l9.232 15.165-9.232 15.166z"/><path fill="url(#aL)" transform="matrix(0 -1 -1 0 30.332 34.289)" d="M11.21-1.319l7.912 15.166-7.912 15.166z"/><path fill="url(#aM)" transform="rotate(-90 10.88 11.21)" d="M-.99 1.648h17.145L6.924 16.815z"/><path fill="url(#aM)" transform="matrix(0 -1 -1 0 33.3 37.256)" d="M14.177 1.648h17.144L22.09 16.815z"/><rect fill="#C0BEC0" y="22.419" width="32.97" height="2.638" rx="1.319"/><rect fill="url(#af)" width="32.97" height="6.594" rx="2"/><rect fill="url(#aN)" width="32.97" height="7.913" rx="1"/></g><path d="M40.542 14.507h32.31c1.657.062 2.512.268 2.566.62.285 1.837-1.563 1.565-1.42 2.483.19 1.232.19 3.714 0 7.447l-32.691-.62c.157-3.59.157-5.866 0-6.827-.249-1.52-1.39-1.648-1.421-1.862-.06-.418.159-.832.656-1.241z" fill="url(#aO)" opacity=".4" transform="matrix(1 0 0 -1 0 141.564)"/></g><g><g transform="translate(615.5 174)"><mask id="aR" fill="#fff"><use xlink:href="#aP"/></mask><use fill="url(#aQ)" fill-rule="nonzero" xlink:href="#aP"/><g opacity=".603"><g opacity=".148" mask="url(#aR)" stroke="#FFF" stroke-linecap="square" stroke-width=".5"><path d="M-336.28 117.383l563.782-565.102M-336.28 121.34l563.782-565.102M-336.28 125.296l563.782-565.102M-336.28 129.252l563.782-565.1M-336.28 133.208l563.782-565.1M-336.28 137.165l563.782-565.102M-336.28 141.121l563.782-565.1M-336.28 145.077l563.782-565.1M-336.28 149.034l563.782-565.102M-336.28 152.99l563.782-565.1M-336.28 156.946l563.782-565.1M-336.28 160.903l563.782-565.102M-336.28 164.86l563.782-565.102M-336.28 168.816l563.782-565.102M-336.28 172.772l563.782-565.1M-336.28 176.728l563.782-565.1M-336.28 180.685l563.782-565.102M-336.28 184.641l563.782-565.1M-336.28 188.597l563.782-565.1M-336.28 192.554l563.782-565.102M-336.28 196.51l563.782-565.1M-336.28 200.467l563.782-565.102M-336.28 204.423l563.782-565.1M-336.28 208.38l563.782-565.102M-336.28 212.336l563.782-565.102M-336.28 216.292l563.782-565.1M-336.28 220.248l563.782-565.1M-336.28 224.205l563.782-565.102M-336.28 228.161l563.782-565.1M-336.28 232.117l563.782-565.1M-336.28 236.074l563.782-565.102M-336.28 240.03l563.782-565.1M-336.28 243.987l563.782-565.102M-336.28 247.943l563.782-565.1M-336.28 251.9l563.782-565.102M-336.28 255.856l563.782-565.102M-336.28 259.812l563.782-565.1M-336.28 263.768l563.782-565.1M-336.28 267.725l563.782-565.102M-336.28 271.681l563.782-565.1M-336.28 275.638l563.782-565.102M-336.28 279.594l563.782-565.1M-336.28 283.55l563.782-565.1M-336.28 287.507l563.782-565.102M-336.28 291.463l563.782-565.1M-336.28 295.42l563.782-565.102M-336.28 299.376l563.782-565.102M-336.28 303.332l563.782-565.1M-336.28 307.288l563.782-565.1M-336.28 311.245l563.782-565.102M-336.28 315.201l563.782-565.1M-336.28 319.158l563.782-565.102M-336.28 323.114l563.782-565.1M-336.28 327.07l563.782-565.1M-336.28 331.027l563.782-565.102M-336.28 334.983l563.782-565.1M-336.28 338.94l563.782-565.102M-336.28 342.896l563.782-565.102M-336.28 346.852l563.782-565.1M-336.28 350.81l563.782-565.103M-336.28 354.765l563.782-565.1M-336.28 358.721l563.782-565.1M-336.28 362.678l563.782-565.102M-336.28 366.634l563.782-565.1M-336.28 370.59l563.782-565.1M-336.28 374.547l563.782-565.102M-336.28 378.503l563.782-565.1M-336.28 382.46l563.782-565.102M-336.28 386.416l563.782-565.102M-336.28 390.372l563.782-565.1M-336.28 394.33l563.782-565.103M-336.28 398.285l563.782-565.1M-336.28 402.241l563.782-565.1M-336.28 406.198l563.782-565.102M-336.28 410.154l563.782-565.1M-336.28 414.11l563.782-565.1M-336.28 418.067l563.782-565.102M-336.28 422.023l563.782-565.1M-336.28 425.98l563.782-565.102M-336.28 429.936l563.782-565.1M-336.28 433.892l563.782-565.1M-336.28 437.85l563.782-565.103M-336.28 441.805l563.782-565.1M-336.28 445.761l563.782-565.1M-336.28 449.718l563.782-565.102M-336.28 453.674l563.782-565.1M-336.28 457.631L227.501-107.47M-336.28 461.587l563.782-565.102M-336.28 465.543l563.782-565.1M-336.28 469.5L227.501-95.602M-336.28 473.456l563.782-565.1M-336.28 477.412l563.782-565.1M-336.28 481.37L227.501-83.734M-336.28 485.325l563.782-565.1M-336.28 489.281l563.782-565.1M-336.28 493.238L227.501-71.864M-336.28 497.194l563.782-565.1M-336.28 501.151L227.501-63.95M-336.28 505.107l563.782-565.1M-336.28 509.063l563.782-565.1M-336.28 513.02L227.501-52.082M-336.28 516.976l563.782-565.1M-336.28 520.932l563.782-565.1M-336.28 524.89L227.501-40.214M-336.28 528.845l563.782-565.1M-336.28 532.802L227.501-32.3M-336.28 536.758l563.782-565.1M-336.28 540.714l563.782-565.1M-336.28 544.671L227.501-20.43M-336.28 548.627l563.782-565.1M-336.28 552.583l563.782-565.1M-336.28 556.54L227.501-8.562M-336.28 560.496l563.782-565.1M-336.28 564.452L227.501-.648M-336.28 568.41L227.501 3.306M-336.28 572.365l563.782-565.1M-336.28 576.322L227.501 11.22M-336.28 580.278l563.782-565.1M-336.28 584.234l563.782-565.1M-336.28 588.191L227.501 23.09M-336.28 592.147l563.782-565.1M-336.28 596.103l563.782-565.1M-336.28 600.06L227.501 34.958M-336.28 604.016l563.782-565.1M-336.28 607.973L227.501 42.871M-336.28 611.93L227.501 46.827M-336.28 615.885l563.782-565.1M-336.28 619.842L227.501 54.74M-336.28 623.798l563.782-565.1M-336.28 627.754l563.782-565.1M-336.28 631.711L227.501 66.61M-336.28 635.667l563.782-565.1M-336.28 639.623l563.782-565.1M-336.28 643.58L227.501 78.478M-336.28 647.536l563.782-565.1M-336.28 651.493L227.501 86.391M-336.28 655.45L227.501 90.347M-336.28 659.405l563.782-565.1M-336.28 663.362L227.501 98.26M-336.28 667.318l563.782-565.1M-336.28 671.274l563.782-565.1M-336.28 675.231L227.501 110.13M-336.28 679.187l563.782-565.1M-336.28 683.144l563.782-565.102"/></g></g></g><g fill-rule="nonzero" transform="translate(615.5 174)"><use fill="#000" filter="url(#aS)" xlink:href="#aT"/><use fill="url(#aU)" xlink:href="#aT"/></g><g fill-rule="nonzero" transform="translate(615.5 174)"><use fill="#000" filter="url(#aV)" xlink:href="#aW"/><path stroke="#636262" stroke-width=".5" d="M97.75.25v79.5H.25V.25h97.5zm-2.5 2.5H2.75v74.5h92.5V2.75z" stroke-linejoin="square" fill="url(#aX)" fill-rule="evenodd"/></g><path d="M45.01 142.885v1.319c-5.003-.557-7.64.322-7.913 2.638-.363 3.085 4.082 3.693 6.004 6.563a7.913 7.913 0 11-13.832 3.993 22.092 22.092 0 01-.084-.006c.038-3.263.697-5.9 1.978-7.913 1.92-3.018 3.956-5.934 7.253-6.594a16.65 16.65 0 016.594 0z" fill="url(#aY)" filter="url(#aZ)" transform="translate(598 78)"/><path d="M45.01 105.96v1.318c-5.003-.558-7.64.322-7.913 2.637-.363 3.086 4.082 3.693 6.004 6.564a7.913 7.913 0 11-13.832 3.993 22.092 22.092 0 01-.084-.006c.038-3.263.697-5.901 1.978-7.913 1.92-3.018 3.956-5.935 7.253-6.594a16.65 16.65 0 016.594 0z" fill="url(#aY)" filter="url(#ba)" transform="matrix(1 0 0 -1 598 313.177)"/><path d="M100.853 153.8c1.024 1.334 1.978 6.76 1.978 8.573a7.913 7.913 0 11-15.825 0c0-.502.07-1.273.194-2.155a5.936 5.936 0 00-10.692 2.678c.14.705.561 1.41 1.266 2.114h-3.956c.879-.879 1.319-1.758 1.319-2.637l.12-.001a7.256 7.256 0 0112.224-3.847c.371-1.955.921-3.975 1.503-4.724 1.448-1.864 3.392.659 5.934.659 2.559 0 4.489-2.543 5.935-.66z" fill="url(#bb)" filter="url(#bc)" transform="matrix(1 0 0 -1 598 401.391)"/><path d="M94.336 102.992a7.913 7.913 0 11-7.644 5.861 5.936 5.936 0 00-10.766 2.574c.139.705.561 1.41 1.266 2.115h-3.957c.88-.88 1.32-1.758 1.32-2.637h.119a7.256 7.256 0 0112.56-3.494 7.913 7.913 0 017.102-4.42z" fill="url(#bd)" filter="url(#be)" transform="translate(598 78)"/><g fill-rule="nonzero" stroke="#636262" stroke-width=".5"><path d="M6.967-4.673v25.721l14.006-3.82V-.852L6.967-4.673z" fill="url(#bf)" transform="matrix(0 -1 -1 0 701.658 266.158)"/><path fill="url(#bg)" transform="rotate(-180 363.39 171.65)" d="M0 18.116h23.778l3 8.704-3 9.413H0z"/><path fill="url(#bh)" transform="rotate(90 237.964 503.536)" d="M23.381 0h18.116v18.116H23.381z"/><path d="M23.381 18.116h18.116v7.117c0 6.075-4.925 11-11 11h-7.116 0V18.116z" fill="url(#bi)" transform="translate(700.003 288.952)"/><path d="M47.226 29.192h-75.5v17.616h75.5V29.192z" fill="url(#bj)" transform="rotate(90 222.235 509.74)"/></g><g fill-rule="nonzero" stroke-width=".5"><path stroke="#636262" fill="url(#bk)" transform="rotate(90 319.17 436.377)" d="M42.524 76.069h6.793v18.116h-6.793z"/><path stroke="#7F7F7F" fill="url(#bl)" transform="rotate(90 318.604 429.583)" d="M41.392 65.878h7.925v24.91h-7.925z"/><path stroke="#636262" fill="url(#bm)" transform="rotate(-180 340.054 59.058)" d="M18.746 11h18.116v18.116H18.746z"/><path stroke="#636262" fill="url(#bk)" transform="rotate(90 319.17 383.763)" d="M42.524 23.455h6.793v18.116h-6.793z"/><path d="M36.862 11H54.98v7.116c0 6.076-4.925 11-11 11h-7.117 0V11z" stroke="#636262" fill="url(#bi)" transform="matrix(1 0 0 -1 624.5 118.116)"/><path stroke="#636262" fill="url(#bl)" transform="rotate(90 318.604 390.557)" d="M41.392 26.852h7.925v24.91h-7.925z"/><path d="M57.938 39.766h-96.5v17.616h96.5V39.766z" stroke="#636262" fill="url(#bn)" transform="rotate(90 282.938 399.824)"/><path d="M6.935 90.45v25.721l14.006-3.82V94.27L6.935 90.45z" stroke="#636262" fill="url(#bf)" transform="rotate(90 285.188 452.56)"/></g><path d="M101.232 128.049a3.501 3.501 0 013.393 2.638h10.869v10.55l-10.87.002a3.501 3.501 0 01-3.392 2.635H99a3.501 3.501 0 01-3.392-2.634L0 141.252v-10.55l95.606-.013a3.501 3.501 0 013.394-2.64h2.232z" stroke="#636262" stroke-width=".5" fill="url(#bo)" fill-rule="nonzero" transform="translate(598 78)"/><g stroke-width=".5"><path d="M7.913 0h6.594v44.18H7.913c0-7.034-.88-10.55-2.638-10.55H0V12.528h5.275c1.759 0 2.638-4.177 2.638-12.529z" stroke="#636262" fill="url(#bp)" fill-rule="nonzero" transform="translate(662.5 191.542)"/><path stroke="#636262" fill-opacity=".04" fill="#000" opacity=".5" d="M670.413 205.39h6.594v7.912h-6.594zM670.413 213.302h6.594v7.913h-6.594z"/><path stroke="#636262" fill-opacity=".06" fill="#000" opacity=".5" d="M670.413 200.114h6.594v5.275h-6.594zM670.413 221.215h6.594v5.275h-6.594z"/><path stroke="#636262" fill-opacity=".08" fill="#000" opacity=".5" d="M670.413 196.158h6.594v3.956h-6.594zM670.413 226.49h6.594v3.956h-6.594z"/><path stroke="#636262" fill-opacity=".104" fill="#000" opacity=".5" d="M670.413 193.52h6.594v2.638h-6.594z"/><path stroke="#636262" fill-opacity=".1" fill="#000" opacity=".7" d="M670.413 230.446h6.594v3.297h-6.594z"/><path stroke="url(#bq)" stroke-linecap="square" d="M1.319 33.629v-21.1M2.638 33.629v-21.1M3.956 33.629v-21.1" transform="translate(662.5 191.542)"/><path stroke="url(#br)" stroke-linecap="square" d="M5.275 33.629v-21.1" transform="translate(662.5 191.542)"/></g><path d="M702.732 206.049v5.275h-2.638v-5.275h2.638zm-6.594 0v5.275H693.5v-5.275h2.638zM702.732 221.874V216.6h-2.638v5.275h2.638zm-6.594 0V216.6H693.5v5.275h2.638zM623.228 207.368h6.594v3.956h-6.594zM623.228 216.599h6.594v3.956h-6.594zM681.5 207.368h6.594v3.956H681.5zM681.5 216.599h6.594v3.956H681.5z" fill="#004C97"/><g><g transform="translate(653 185)" fill="url(#bs)"><path d="M4.46.5a3.185 3.185 0 013.168 2.866h.016V17.7c0 1.056.856 1.911 1.911 1.911v1.274a3.185 3.185 0 01-3.168-2.856 1.21 1.21 0 01-.017-.207V3.685a1.911 1.911 0 10-3.822 0c0 .85.425 1.699 1.274 2.548H0c.85-.85 1.274-1.699 1.274-2.548l.005-.18A3.185 3.185 0 014.46.5zM4.46 56.783a3.185 3.185 0 003.168-2.866h.016V39.584c0-1.056.856-1.911 1.911-1.911v-1.274a3.185 3.185 0 00-3.168 2.856 1.21 1.21 0 00-.017.207v14.136a1.911 1.911 0 11-3.822 0c0-.85.425-1.698 1.274-2.548H0c.85.85 1.274 1.699 1.274 2.548l.005.181a3.185 3.185 0 003.18 3.004z"/></g><g stroke-width=".5"><path d="M7.913 0h6.594v44.18H7.913c0-7.034-.88-10.55-2.638-10.55H0V12.528h5.275c1.759 0 2.638-4.177 2.638-12.529z" stroke="#636262" fill="url(#bp)" fill-rule="nonzero" transform="translate(643.5 191.542)"/><path stroke="#636262" fill-opacity=".04" fill="#000" opacity=".5" d="M651.413 205.39h6.594v7.912h-6.594zM651.413 213.302h6.594v7.913h-6.594z"/><path stroke="#636262" fill-opacity=".06" fill="#000" opacity=".5" d="M651.413 200.114h6.594v5.275h-6.594zM651.413 221.215h6.594v5.275h-6.594z"/><path stroke="#636262" fill-opacity=".08" fill="#000" opacity=".5" d="M651.413 196.158h6.594v3.956h-6.594zM651.413 226.49h6.594v3.956h-6.594z"/><path stroke="#636262" fill-opacity=".104" fill="#000" opacity=".5" d="M651.413 193.52h6.594v2.638h-6.594z"/><path stroke="#636262" fill-opacity=".1" fill="#000" opacity=".7" d="M651.413 230.446h6.594v3.297h-6.594z"/><path stroke="url(#bq)" stroke-linecap="square" d="M1.319 33.629v-21.1M2.638 33.629v-21.1M3.956 33.629v-21.1" transform="translate(643.5 191.542)"/><path stroke="url(#br)" stroke-linecap="square" d="M5.275 33.629v-21.1" transform="translate(643.5 191.542)"/></g></g><g><g transform="translate(193 180)"><path d="M39.232 1.049a3.501 3.501 0 013.394 2.643l30.868-.006v10.55l-30.871.008a3.501 3.501 0 01-3.391 2.63H37a3.501 3.501 0 01-3.39-2.628L0 14.252V3.702l33.605-.008A3.501 3.501 0 0137 1.049h2.232z" stroke="#636262" stroke-width=".5" fill="url(#bt)" fill-rule="nonzero" transform="translate(14 25)"/><path d="M56.732 26.476v5.276h-2.638v-5.276h2.638zm-6.594 0v5.276H47.5v-5.276h2.638zM56.732 37.027v5.275h-2.638v-5.275h2.638zm-6.594 0v5.275H47.5v-5.275h2.638zM61 27.795h6.594v3.956H61zM61 37.027h6.594v3.956H61z" fill="#004C97"/><path stroke="#636262" stroke-width=".5" fill="url(#bu)" fill-rule="nonzero" d="M16 0h4v18h-4zM20 0h4v18h-4z" transform="translate(14 25)"/><rect stroke="#636262" stroke-width=".5" fill="url(#bv)" fill-rule="nonzero" transform="rotate(90 9.5 33.5)" x="2" y="24" width="15" height="19" rx="1.5"/><path d="M176.25 9.343V61.64l44.705-16.76h6.795V23.75h-6.79L176.25 9.343z" stroke="#636262" stroke-width=".5" fill="url(#bw)" fill-rule="nonzero"/><path fill="#004C97" d="M221 23.5h7v4h-7zM221 41h7v4h-7z"/><g fill-rule="nonzero" stroke="#636262" stroke-width=".5"><path d="M104.25 8.28L5.609 19.74.25 24.61v16.78l5.363 4.875 98.637 15.443V8.28z" fill="url(#bx)" transform="translate(72)"/><g transform="translate(89 .5)" fill="url(#by)"><path d="M2.928 0l.898.948-1.252 1.259v.625l1.409-1.215.827 1.014L2.574 4.56v1.068l1.624-1.169.739 1.084-2.363 1.7v1.156l1.822-1.08.644 1.146-2.466 1.462v2.55l2.002-.959.544 1.2-2.546 1.219v2.605l2.161-.809.44 1.244-2.601.972v2.645l2.3-.632.332 1.278-2.632.724v2.674l2.415-.437.223 1.304-2.638.478v2.692l2.507-.225.112 1.319-2.619.234v2.703h2.575v1.324H2.574v2.982l2.682.242-.112 1.318-2.57-.231v2.687l2.701.49-.223 1.303-2.478-.449v2.668l2.695.743-.333 1.278-2.362-.651v2.638l2.664.998-.44 1.244-2.224-.833v2.598l2.609 1.25-.544 1.2-2.065-.991v2.543l2.529 1.501-.644 1.146-1.885-1.119v1.149l2.425 1.746-.738 1.084-1.687-1.215v1.058l2.3 1.984-.828 1.014-1.472-1.27v.326l1.314 1.37-.915.93-.996-1.037A2.576 2.576 0 010 63.218v-59.7c0-1.19.806-2.191 1.902-2.487L2.928 0zM12.928 0l.898.948-1.252 1.259v.625l1.409-1.215.827 1.014-2.236 1.928v1.068l1.624-1.169.739 1.084-2.363 1.7v1.156l1.822-1.08.644 1.146-2.466 1.462v2.55l2.002-.959.544 1.2-2.546 1.219v2.605l2.161-.809.44 1.244-2.601.972v2.645l2.3-.632.332 1.278-2.632.724v2.674l2.415-.437.223 1.304-2.638.478v2.692l2.507-.225.112 1.319-2.619.234v2.703h2.575v1.324h-2.575v2.982l2.682.242-.112 1.318-2.57-.231v2.687l2.701.49-.223 1.303-2.478-.449v2.668l2.695.743-.333 1.278-2.362-.651v2.638l2.664.998-.44 1.244-2.224-.833v2.598l2.609 1.25-.544 1.2-2.065-.991v2.543l2.529 1.501-.644 1.146-1.885-1.119v1.149l2.425 1.746-.738 1.084-1.687-1.215v1.058l2.3 1.984-.828 1.014-1.472-1.27v.326l1.314 1.37-.915.93-.996-1.037A2.576 2.576 0 0110 63.218v-59.7c0-1.19.806-2.191 1.902-2.487L12.928 0zM23.928 0l.898.948-1.252 1.259v.625l1.409-1.215.827 1.014-2.236 1.928v1.068l1.624-1.169.739 1.084-2.363 1.7v1.156l1.822-1.08.644 1.146-2.466 1.462v2.55l2.002-.959.544 1.2-2.546 1.219v2.605l2.161-.809.44 1.244-2.601.972v2.645l2.3-.632.332 1.278-2.632.724v2.674l2.415-.437.223 1.304-2.638.478v2.692l2.507-.225.112 1.319-2.619.234v2.703h2.575v1.324h-2.575v2.982l2.682.242-.112 1.318-2.57-.231v2.687l2.701.49-.223 1.303-2.478-.449v2.668l2.695.743-.333 1.278-2.362-.651v2.638l2.664.998-.44 1.244-2.224-.833v2.598l2.609 1.25-.544 1.2-2.065-.991v2.543l2.529 1.501-.644 1.146-1.885-1.119v1.149l2.425 1.746-.738 1.084-1.687-1.215v1.058l2.3 1.984-.828 1.014-1.472-1.27v.326l1.314 1.37-.915.93-.996-1.037A2.576 2.576 0 0121 63.218v-59.7c0-1.19.806-2.191 1.902-2.487L23.928 0zM34.928 0l.898.948-1.252 1.259v.625l1.409-1.215.827 1.014-2.236 1.928v1.068l1.624-1.169.739 1.084-2.363 1.7v1.156l1.822-1.08.644 1.146-2.466 1.462v2.55l2.002-.959.544 1.2-2.546 1.219v2.605l2.161-.809.44 1.244-2.601.972v2.645l2.3-.632.332 1.278-2.632.724v2.674l2.415-.437.223 1.304-2.638.478v2.692l2.507-.225.112 1.319-2.619.234v2.703h2.575v1.324h-2.575v2.982l2.682.242-.112 1.318-2.57-.231v2.687l2.701.49-.223 1.303-2.478-.449v2.668l2.695.743-.333 1.278-2.362-.651v2.638l2.664.998-.44 1.244-2.224-.833v2.598l2.609 1.25-.544 1.2-2.065-.991v2.543l2.529 1.501-.644 1.146-1.885-1.119v1.149l2.425 1.746-.738 1.084-1.687-1.215v1.058l2.3 1.984-.828 1.014-1.472-1.27v.326l1.314 1.37-.915.93-.996-1.037A2.576 2.576 0 0132 63.218v-59.7c0-1.19.806-2.191 1.902-2.487L34.928 0zM44.928 0l.898.948-1.252 1.259v.625l1.409-1.215.827 1.014-2.236 1.928v1.068l1.624-1.169.739 1.084-2.363 1.7v1.156l1.822-1.08.644 1.146-2.466 1.462v2.55l2.002-.959.544 1.2-2.546 1.219v2.605l2.161-.809.44 1.244-2.601.972v2.645l2.3-.632.332 1.278-2.632.724v2.674l2.415-.437.223 1.304-2.638.478v2.692l2.507-.225.112 1.319-2.619.234v2.703h2.575v1.324h-2.575v2.982l2.682.242-.112 1.318-2.57-.231v2.687l2.701.49-.223 1.303-2.478-.449v2.668l2.695.743-.333 1.278-2.362-.651v2.638l2.664.998-.44 1.244-2.224-.833v2.598l2.609 1.25-.544 1.2-2.065-.991v2.543l2.529 1.501-.644 1.146-1.885-1.119v1.149l2.425 1.746-.738 1.084-1.687-1.215v1.058l2.3 1.984-.828 1.014-1.472-1.27v.326l1.314 1.37-.915.93-.996-1.037A2.576 2.576 0 0142 63.218v-59.7c0-1.19.806-2.191 1.902-2.487L44.928 0zM55.928 0l.898.948-1.252 1.259v.625l1.409-1.215.827 1.014-2.236 1.928v1.068l1.624-1.169.739 1.084-2.363 1.7v1.156l1.822-1.08.644 1.146-2.466 1.462v2.55l2.002-.959.544 1.2-2.546 1.219v2.605l2.161-.809.44 1.244-2.601.972v2.645l2.3-.632.332 1.278-2.632.724v2.674l2.415-.437.223 1.304-2.638.478v2.692l2.507-.225.112 1.319-2.619.234v2.703h2.575v1.324h-2.575v2.982l2.682.242-.112 1.318-2.57-.231v2.687l2.701.49-.223 1.303-2.478-.449v2.668l2.695.743-.333 1.278-2.362-.651v2.638l2.664.998-.44 1.244-2.224-.833v2.598l2.609 1.25-.544 1.2-2.065-.991v2.543l2.529 1.501-.644 1.146-1.885-1.119v1.149l2.425 1.746-.738 1.084-1.687-1.215v1.058l2.3 1.984-.828 1.014-1.472-1.27v.326l1.314 1.37-.915.93-.996-1.037A2.576 2.576 0 0153 63.218v-59.7c0-1.19.806-2.191 1.902-2.487L55.928 0zM66.928 0l.898.948-1.252 1.259v.625l1.409-1.215.827 1.014-2.236 1.928v1.068l1.624-1.169.739 1.084-2.363 1.7v1.156l1.822-1.08.644 1.146-2.466 1.462v2.55l2.002-.959.544 1.2-2.546 1.219v2.605l2.161-.809.44 1.244-2.601.972v2.645l2.3-.632.332 1.278-2.632.724v2.674l2.415-.437.223 1.304-2.638.478v2.692l2.507-.225.112 1.319-2.619.234v2.703h2.575v1.324h-2.575v2.982l2.682.242-.112 1.318-2.57-.231v2.687l2.701.49-.223 1.303-2.478-.449v2.668l2.695.743-.333 1.278-2.362-.651v2.638l2.664.998-.44 1.244-2.224-.833v2.598l2.609 1.25-.544 1.2-2.065-.991v2.543l2.529 1.501-.644 1.146-1.885-1.119v1.149l2.425 1.746-.738 1.084-1.687-1.215v1.058l2.3 1.984-.828 1.014-1.472-1.27v.326l1.314 1.37-.915.93-.996-1.037A2.576 2.576 0 0164 63.218v-59.7c0-1.19.806-2.191 1.902-2.487L66.928 0zM76.928 0l.898.948-1.252 1.259v.625l1.409-1.215.827 1.014-2.236 1.928v1.068l1.624-1.169.739 1.084-2.363 1.7v1.156l1.822-1.08.644 1.146-2.466 1.462v2.55l2.002-.959.544 1.2-2.546 1.219v2.605l2.161-.809.44 1.244-2.601.972v2.645l2.3-.632.332 1.278-2.632.724v2.674l2.415-.437.223 1.304-2.638.478v2.692l2.507-.225.112 1.319-2.619.234v2.703h2.575v1.324h-2.575v2.982l2.682.242-.112 1.318-2.57-.231v2.687l2.701.49-.223 1.303-2.478-.449v2.668l2.695.743-.333 1.278-2.362-.651v2.638l2.664.998-.44 1.244-2.224-.833v2.598l2.609 1.25-.544 1.2-2.065-.991v2.543l2.529 1.501-.644 1.146-1.885-1.119v1.149l2.425 1.746-.738 1.084-1.687-1.215v1.058l2.3 1.984-.828 1.014-1.472-1.27v.326l1.314 1.37-.915.93-.996-1.037A2.576 2.576 0 0174 63.218v-59.7c0-1.19.806-2.191 1.902-2.487L76.928 0zM87.928 0l.898.948-1.252 1.259v.625l1.409-1.215.827 1.014-2.236 1.928v1.068l1.624-1.169.739 1.084-2.363 1.7v1.156l1.822-1.08.644 1.146-2.466 1.462v2.55l2.002-.959.544 1.2-2.546 1.219v2.605l2.161-.809.44 1.244-2.601.972v2.645l2.3-.632.332 1.278-2.632.724v2.674l2.415-.437.223 1.304-2.638.478v2.692l2.507-.225.112 1.319-2.619.234v2.703h2.575v1.324h-2.575v2.982l2.682.242-.112 1.318-2.57-.231v2.687l2.701.49-.223 1.303-2.478-.449v2.668l2.695.743-.333 1.278-2.362-.651v2.638l2.664.998-.44 1.244-2.224-.833v2.598l2.609 1.25-.544 1.2-2.065-.991v2.543l2.529 1.501-.644 1.146-1.885-1.119v1.149l2.425 1.746-.738 1.084-1.687-1.215v1.058l2.3 1.984-.828 1.014-1.472-1.27v.326l1.314 1.37-.915.93-.996-1.037A2.576 2.576 0 0185 63.218v-59.7c0-1.19.806-2.191 1.902-2.487L87.928 0z"/></g></g></g><path d="M123.307 44.839l3.956 5.275h4.616v-2.638h9.231v2.638h30.765a4 4 0 014 4v2.55a4 4 0 01-4 4H141.11v2.638h-9.231v-2.638h-4.616l-3.956 5.275H94.293l-3.956-5.275H75.215a4 4 0 01-4-4v-2.55a4 4 0 014-4h15.122l3.956-5.275h29.014z" stroke="#636262" stroke-width=".5" fill="url(#bz)" fill-rule="nonzero" transform="translate(421 159)"/><path fill="#004C97" d="M500.127 207.795h6.594v3.956h-6.594zM500.127 217.027h6.594v3.956h-6.594zM566.067 207.795h6.594v3.956h-6.594zM562.11 206.476v5.276h-2.637v-5.276h2.637zm-6.593 0v5.276h-2.638v-5.276h2.638zM562.11 217.027v5.275h-2.637v-5.275h2.637zm-6.593 0v5.275h-2.638v-5.275h2.638zM566.067 217.027h6.594v3.956h-6.594z"/><path stroke="#636262" stroke-width=".5" fill="url(#bA)" fill-rule="nonzero" d="M71.215 44.839h3.956V65.94h-3.956z" transform="translate(421 159)"/><g stroke="#636262" stroke-width=".5"><path d="M4.536 0h2.797A2 2 0 019.33 1.896l2.534 48.775a2 2 0 010 .205l-2.536 50.09a2 2 0 01-1.998 1.9H4.54a2 2 0 01-1.998-1.9L.005 50.877a2 2 0 010-.205L2.54 1.896A2 2 0 014.536 0z" fill="url(#bB)" fill-rule="nonzero" transform="translate(440.782 163.5)"/><path d="M452.651 221.527h-11.87m0-13.188h11.87M451.332 238.671h-9.231m0-7.913h9.231M451.992 199.107h-10.55m.659-7.912h9.231M441.441 199.107h10.55l.66 9.232h-11.87zM450.673 253.178h-7.913m0-6.594h7.913M450.673 183.282h-7.913m0-6.594h7.913M450.673 258.453h-7.913m0-5.275h7.913M450.673 176.688h-7.913m.66-5.275h6.593M450.013 262.41h-6.594m-.659-3.957h7.913M450.013 265.047h-6.594m0-2.638h6.594M450.013 167.456h-6.594m.66-2.637h5.275" fill-opacity=".04" fill="#000"/></g><g stroke="#636262" stroke-width=".5"><path d="M4.534 0h2.801a2 2 0 011.998 1.893l2.53 47.456a2 2 0 010 .21L9.33 98.333a2 2 0 01-1.997 1.896H4.536a2 2 0 01-1.997-1.896L.005 49.56a2 2 0 010-.21L2.538 1.892A2 2 0 014.534 0z" fill="url(#bC)" fill-rule="nonzero" transform="translate(424.956 165)"/><path d="M436.825 221.708h-11.869m0-13.188h11.87M435.507 238.852h-9.232m0-7.913h9.232M436.166 199.289h-10.55m.66-7.913h9.23M425.616 199.289h10.55l.66 9.231h-11.87zM434.847 253.359h-7.912m0-6.594h7.912M434.847 183.463h-7.912m0-6.594h7.912M434.847 258.634h-7.912m0-5.275h7.912M434.847 176.87h-7.912m.659-5.276h6.594M434.188 262.59h-6.594m-.66-3.956h7.913M427.594 262.59h6.594M434.188 167.638h-6.594" fill-opacity=".04" fill="#000"/></g><g stroke="#636262" stroke-width=".5"><path d="M4.541 0h2.787a2 2 0 011.997 1.901l2.54 51.379a2 2 0 010 .195l-2.542 52.762a2 2 0 01-1.997 1.904H4.544a2 2 0 01-1.998-1.904L.005 53.475a2 2 0 010-.195L2.544 1.9A2 2 0 014.54 0z" fill="url(#bD)" fill-rule="nonzero" transform="translate(464.52 160.5)"/><path d="M476.39 221.164h-11.87m0-13.188h11.87M475.07 240.946h-9.231m0-7.913h9.231M475.73 196.107h-10.55m.659-7.912h9.231M474.411 255.453h-7.913m0-6.594h7.913M474.411 180.282h-7.913m0-6.594h7.913M474.411 260.728h-7.913m0-5.275h7.913M474.411 173.688h-7.913m.66-5.275h6.594M473.752 264.684h-6.594m-.66-3.956h7.913M473.752 267.322h-6.594m0-2.638h6.594M473.752 164.456h-6.594m.659-2.637h5.275" fill-opacity=".04" fill="#000"/></g><g stroke="#636262" stroke-width=".5"><path d="M4.543 0h2.783a2 2 0 011.997 1.904l2.542 52.68a2 2 0 010 .19L9.32 108.872a2 2 0 01-1.998 1.906H4.546a2 2 0 01-1.998-1.906L.004 54.774a2 2 0 010-.19l2.542-52.68A2 2 0 014.543 0z" fill="url(#bE)" fill-rule="nonzero" transform="translate(480.346 159.5)"/><path d="M492.215 221.483h-11.87m0-13.188h11.87M490.896 242.584h-9.232m0-7.913h9.232M491.555 195.107h-10.55m.66-7.912h9.23M490.236 257.09h-7.912m0-6.594h7.912M490.236 179.282h-7.912m0-6.594h7.912M490.236 262.366h-7.912m0-5.276h7.912M490.236 172.688h-7.912m.66-5.275h6.593M489.577 266.322h-6.594m-.66-3.956h7.913M489.577 268.96h-6.594m0-2.638h6.594M489.577 163.456h-6.594m.66-2.637h5.275" fill-opacity=".04" fill="#000"/></g><path stroke="#636262" stroke-width=".5" fill="url(#bA)" fill-rule="nonzero" d="M0 44.839h3.956V65.94H0zM15.825 44.839h3.956V65.94h-3.956zM55.389 44.839h3.956V65.94h-3.956z" transform="translate(421 159)"/><g transform="translate(587.85 201.201)"><mask id="bH" fill="#fff"><use xlink:href="#bF"/></mask><use fill="url(#bG)" fill-rule="nonzero" xlink:href="#bF"/><path fill="#7F7F7F" fill-rule="nonzero" mask="url(#bH)" transform="matrix(-1 0 0 1 7.214 0)" d="M-4.447-1.319l-.389.466 16.497 19.796.388-.466zM-4.447 1.319l-.389.466 16.497 19.796.388-.467zM-4.447 3.956l-.389.467 16.497 19.795.388-.466zM-4.447 6.594l-.389.466 16.497 19.796.388-.466zM-4.447 9.232l-.389.466 16.497 19.795.388-.466zM-4.447 11.87l-.389.465 16.497 19.796.388-.466zM-4.447 14.507l-.389.466 16.497 19.796.388-.467zM-4.447 17.144l-.389.467 16.497 19.795.388-.466zM-4.447-3.956l-.389.466 16.497 19.795.388-.466zM-4.447-6.594l-.389.466 16.497 19.796.388-.466zM-4.447-9.232l-.389.467L11.661 11.03l.388-.466zM-4.447-11.87l-.389.467L11.661 8.393l.388-.467z"/></g><path stroke="#636262" stroke-width=".5" fill-rule="nonzero" d="M587.85 201.201h7.913v26.376h-7.913z"/><g><g transform="translate(595.072 201.201)"><mask id="bJ" fill="#fff"><use xlink:href="#bI"/></mask><use fill="url(#bG)" fill-rule="nonzero" xlink:href="#bI"/><path fill="#7F7F7F" fill-rule="nonzero" mask="url(#bJ)" transform="matrix(-1 0 0 1 7.214 0)" d="M-4.447-1.319l-.389.466 16.497 19.796.388-.466zM-4.447 1.319l-.389.466 16.497 19.796.388-.467zM-4.447 3.956l-.389.467 16.497 19.795.388-.466zM-4.447 6.594l-.389.466 16.497 19.796.388-.466zM-4.447 9.232l-.389.466 16.497 19.795.388-.466zM-4.447 11.87l-.389.465 16.497 19.796.388-.466zM-4.447 14.507l-.389.466 16.497 19.796.388-.467zM-4.447 17.144l-.389.467 16.497 19.795.388-.466zM-4.447-3.956l-.389.466 16.497 19.795.388-.466zM-4.447-6.594l-.389.466 16.497 19.796.388-.466zM-4.447-9.232l-.389.467L11.661 11.03l.388-.466zM-4.447-11.87l-.389.467L11.661 8.393l.388-.467z"/></g><path stroke="#636262" stroke-width=".5" fill-rule="nonzero" d="M595.072 201.201h7.913v26.376h-7.913z"/></g></g><g fill-rule="nonzero"><path stroke="#636262" stroke-width=".5" fill="url(#bK)" transform="rotate(90 7.25 231.25)" d="M-3 31h72v10H-3z"/><path d="M5 0h57a4 4 0 014 4v12a4 4 0 01-4 4H5a4 4 0 01-4-4V4a4 4 0 014-4zM3.63 20h59a3 3 0 013 3v13a4 4 0 01-4 4h-57a4 4 0 01-4-4V23a3 3 0 013-3z" stroke="#636262" stroke-width=".5" fill="url(#bL)" transform="translate(169.5 290)"/><path fill="url(#bM)" transform="rotate(90 -26.75 240.25)" d="M27-22h13v65H27z"/><path fill="url(#bN)" transform="rotate(90 -27 259.75)" d="M26.75-2.25h12.5l.5 64.5h-13z"/><path stroke="#636262" stroke-width=".5" fill="url(#bu)" transform="rotate(90 7.25 262.25)" d="M31 58h4v18h-4z"/><path stroke="#636262" stroke-width=".5" fill="url(#bO)" d="M80 74h4v10h-4z" transform="translate(169.5 221)"/><path stroke="#636262" stroke-width=".5" fill="url(#bP)" d="M141 67l4 10v5l-4 10z" transform="translate(169.5 221)"/><path d="M137 62.25H88c-1.036 0-1.973.42-2.652 1.098A3.738 3.738 0 0084.25 66v26c0 1.036.42 1.973 1.098 2.652A3.738 3.738 0 0088 95.75h49c1.036 0 1.973-.42 2.652-1.098A3.738 3.738 0 00140.75 92V66c0-1.036-.42-1.973-1.098-2.652A3.738 3.738 0 00137 62.25z" stroke="#2C405A" stroke-width=".5" fill="url(#bQ)" transform="translate(169.5 221)"/><g transform="translate(169.5 221)"><use fill="url(#bR)" xlink:href="#bS"/><use fill="#000" filter="url(#bT)" xlink:href="#bS"/></g><g transform="translate(169.5 221)"><use fill="#000" filter="url(#bU)" xlink:href="#bV"/><path stroke="#7F7F7F" stroke-width=".5" d="M94 65.75c17.404 0 27.625.43 33.617 1.143 3.422.407 5.478.91 6.71 1.475.742.341 1.197.71 1.478 1.09.362.489.445 1.005.445 1.542h0v16c0 1.45-.588 2.762-1.538 3.712A5.234 5.234 0 01131 92.25h0-37a5.234 5.234 0 01-3.712-1.538A5.234 5.234 0 0188.75 87h0V71c0-1.45.588-2.762 1.538-3.712A5.234 5.234 0 0194 65.75h0zm37 2.5H94c-.76 0-1.447.308-1.945.805A2.741 2.741 0 0091.25 71v16c0 .76.308 1.447.805 1.945A2.741 2.741 0 0094 89.75h37c.76 0 1.447-.308 1.945-.805A2.741 2.741 0 00133.75 87V71c0-.76-.308-1.447-.805-1.945A2.741 2.741 0 00131 68.25z" fill="url(#bW)" fill-rule="evenodd"/></g><path stroke="#636262" stroke-width=".5" fill="url(#bX)" transform="translate(169.5 221)" d="M66 77h14v4H66z"/></g></g></g></svg>