<?xml version="1.0" encoding="UTF-8"?>
<svg width="560px" height="414px" viewBox="0 0 560 414" version="1.1" xmlns="http://www.w3.org/2000/svg" xmlns:xlink="http://www.w3.org/1999/xlink">
    <title>Schema-Gas-Cobustibile-Messina-TC4</title>
    <defs>
        <linearGradient x1="50.0338387%" y1="3.06287114e-15%" x2="50.0338387%" y2="100%" id="linearGradient-1">
            <stop stop-color="#363D43" offset="0%"></stop>
            <stop stop-color="#61676C" offset="49.5565878%"></stop>
            <stop stop-color="#363D43" offset="100%"></stop>
        </linearGradient>
        <circle id="path-2" cx="170" cy="170" r="167"></circle>
        <filter x="-1.5%" y="-1.5%" width="103.0%" height="103.0%" filterUnits="objectBoundingBox" id="filter-3">
            <feGaussianBlur stdDeviation="4.5" in="SourceAlpha" result="shadowBlurInner1"></feGaussianBlur>
            <feOffset dx="0" dy="1" in="shadowBlurInner1" result="shadowOffsetInner1"></feOffset>
            <feComposite in="shadowOffsetInner1" in2="SourceAlpha" operator="arithmetic" k2="-1" k3="1" result="shadowInnerInner1"></feComposite>
            <feColorMatrix values="0 0 0 0 0   0 0 0 0 0   0 0 0 0 0  0 0 0 0.301737325 0" type="matrix" in="shadowInnerInner1"></feColorMatrix>
        </filter>
        <linearGradient x1="0.452788603%" y1="50.4025862%" x2="99.6148889%" y2="50.4025862%" id="linearGradient-4">
            <stop stop-color="#AFACB1" offset="0%"></stop>
            <stop stop-color="#BAB9BC" offset="28.4987728%"></stop>
            <stop stop-color="#D9D8DA" offset="42.07%"></stop>
            <stop stop-color="#F3F4F4" offset="58.4371217%"></stop>
            <stop stop-color="#958F95" offset="100%"></stop>
        </linearGradient>
        <path d="M170,0 C76.1115925,0 0,76.1115925 0,170 C0,263.888407 76.1115925,340 170,340 C263.888407,340 340,263.888407 340,170 C340,76.1115925 263.888407,0 170,0 Z M170.5,3 C262.455411,3 337,77.5445892 337,169.5 C337,261.455411 262.455411,336 170.5,336 C78.5445892,336 4,261.455411 4,169.5 C4,77.5445892 78.5445892,3 170.5,3 Z" id="path-5"></path>
        <filter x="-3.2%" y="-2.6%" width="105.9%" height="105.9%" filterUnits="objectBoundingBox" id="filter-6">
            <feMorphology radius="0.5" operator="dilate" in="SourceAlpha" result="shadowSpreadOuter1"></feMorphology>
            <feOffset dx="-1" dy="1" in="shadowSpreadOuter1" result="shadowOffsetOuter1"></feOffset>
            <feGaussianBlur stdDeviation="3" in="shadowOffsetOuter1" result="shadowBlurOuter1"></feGaussianBlur>
            <feComposite in="shadowBlurOuter1" in2="SourceAlpha" operator="out" result="shadowBlurOuter1"></feComposite>
            <feColorMatrix values="0 0 0 0 0   0 0 0 0 0   0 0 0 0 0  0 0 0 0.230550699 0" type="matrix" in="shadowBlurOuter1"></feColorMatrix>
        </filter>
        <circle id="path-7" cx="170.5" cy="168.5" r="65.5"></circle>
        <filter x="-3.8%" y="-3.8%" width="107.6%" height="107.6%" filterUnits="objectBoundingBox" id="filter-8">
            <feGaussianBlur stdDeviation="4.5" in="SourceAlpha" result="shadowBlurInner1"></feGaussianBlur>
            <feOffset dx="0" dy="1" in="shadowBlurInner1" result="shadowOffsetInner1"></feOffset>
            <feComposite in="shadowOffsetInner1" in2="SourceAlpha" operator="arithmetic" k2="-1" k3="1" result="shadowInnerInner1"></feComposite>
            <feColorMatrix values="0 0 0 0 0   0 0 0 0 0   0 0 0 0 0  0 0 0 0.301737325 0" type="matrix" in="shadowInnerInner1"></feColorMatrix>
        </filter>
        <path d="M170.5,102 C133.773064,102 104,131.773064 104,168.5 C104,205.226936 133.773064,235 170.5,235 C207.226936,235 237,205.226936 237,168.5 C237,131.773064 207.226936,102 170.5,102 Z M170.5,104 C206.122366,104 235,132.877634 235,168.5 C235,204.122366 206.122366,233 170.5,233 C134.877634,233 106,204.122366 106,168.5 C106,132.877634 134.877634,104 170.5,104 Z" id="path-9"></path>
        <filter x="-8.3%" y="-6.8%" width="115.0%" height="115.0%" filterUnits="objectBoundingBox" id="filter-10">
            <feMorphology radius="0.5" operator="dilate" in="SourceAlpha" result="shadowSpreadOuter1"></feMorphology>
            <feOffset dx="-1" dy="1" in="shadowSpreadOuter1" result="shadowOffsetOuter1"></feOffset>
            <feGaussianBlur stdDeviation="3" in="shadowOffsetOuter1" result="shadowBlurOuter1"></feGaussianBlur>
            <feComposite in="shadowBlurOuter1" in2="SourceAlpha" operator="out" result="shadowBlurOuter1"></feComposite>
            <feColorMatrix values="0 0 0 0 0   0 0 0 0 0   0 0 0 0 0  0 0 0 0.230550699 0" type="matrix" in="shadowBlurOuter1"></feColorMatrix>
        </filter>
    </defs>
    <g id="Page-1" stroke="none" stroke-width="1" fill="none" fill-rule="evenodd">
        <g id="Assets-Messina" transform="translate(-370.000000, -8590.000000)">
            <g id="Group-28" transform="translate(370.000000, 8597.000000)">
                <g id="Group" transform="translate(366.044392, 187.000000) rotate(6.000000) translate(-366.044392, -187.000000) translate(196.044392, 17.000000)">
                    <g id="Oval" fill-rule="nonzero">
                        <use fill="url(#linearGradient-1)" xlink:href="#path-2"></use>
                        <use fill="black" fill-opacity="1" filter="url(#filter-3)" xlink:href="#path-2"></use>
                    </g>
                    <g id="Oval" fill-rule="nonzero">
                        <use fill="black" fill-opacity="1" filter="url(#filter-6)" xlink:href="#path-5"></use>
                        <path stroke="#7F7F7F" stroke-width="0.5" d="M170,-0.25 C217.013239,-0.25 259.575739,18.8058803 290.384929,49.6150705 C321.19412,80.4242607 340.25,122.986761 340.25,170 C340.25,217.013239 321.19412,259.575739 290.384929,290.384929 C259.575739,321.19412 217.013239,340.25 170,340.25 C122.986761,340.25 80.4242607,321.19412 49.6150705,290.384929 C18.8058803,259.575739 -0.25,217.013239 -0.25,170 C-0.25,122.986761 18.8058803,80.4242607 49.6150705,49.6150705 C80.4242607,18.8058803 122.986761,-0.25 170,-0.25 Z M170.5,3.25 C124.59133,3.25 83.0288302,21.8581651 52.9434976,51.9434976 C22.8581651,82.0288302 4.25,123.59133 4.25,169.5 C4.25,215.40867 22.8581651,256.97117 52.9434976,287.056502 C83.0288302,317.141835 124.59133,335.75 170.5,335.75 C216.40867,335.75 257.97117,317.141835 288.056502,287.056502 C318.141835,256.97117 336.75,215.40867 336.75,169.5 C336.75,123.59133 318.141835,82.0288302 288.056502,51.9434976 C257.97117,21.8581651 216.40867,3.25 170.5,3.25 Z" fill="url(#linearGradient-4)" fill-rule="evenodd"></path>
                    </g>
                    <g id="Oval" fill-rule="nonzero">
                        <use fill="url(#linearGradient-1)" xlink:href="#path-7"></use>
                        <use fill="black" fill-opacity="1" filter="url(#filter-8)" xlink:href="#path-7"></use>
                    </g>
                    <g id="Oval" fill-rule="nonzero">
                        <use fill="black" fill-opacity="1" filter="url(#filter-10)" xlink:href="#path-9"></use>
                        <path stroke="#7F7F7F" stroke-width="0.5" d="M170.5,101.75 C188.932504,101.75 205.620004,109.221248 217.699378,121.300622 C229.778752,133.379996 237.25,150.067496 237.25,168.5 C237.25,186.932504 229.778752,203.620004 217.699378,215.699378 C205.620004,227.778752 188.932504,235.25 170.5,235.25 C152.067496,235.25 135.379996,227.778752 123.300622,215.699378 C111.221248,203.620004 103.75,186.932504 103.75,168.5 C103.75,150.067496 111.221248,133.379996 123.300622,121.300622 C135.379996,109.221248 152.067496,101.75 170.5,101.75 Z M170.5,104.25 C152.757852,104.25 136.695352,111.441426 125.068389,123.068389 C113.441426,134.695352 106.25,150.757852 106.25,168.5 C106.25,186.242148 113.441426,202.304648 125.068389,213.931611 C136.695352,225.558574 152.757852,232.75 170.5,232.75 C188.242148,232.75 204.304648,225.558574 215.931611,213.931611 C227.558574,202.304648 234.75,186.242148 234.75,168.5 C234.75,150.757852 227.558574,134.695352 215.931611,123.068389 C204.304648,111.441426 188.242148,104.25 170.5,104.25 Z" fill="url(#linearGradient-4)" fill-rule="evenodd"></path>
                    </g>
                    <path d="M169.5,38 L169.518461,47.7288797 M169.985549,293.884467 L170,301.5" id="Shape" stroke="#9EA1A4"></path>
                    <path d="M169.552442,38.0055622 L169.570111,47.3172372 M170.037333,293.542948 L170.052442,301.505562" id="Shape" stroke="#9EA1A4" transform="translate(170.052442, 169.755562) rotate(12.108721) translate(-170.052442, -169.755562) "></path>
                    <path d="M169.602117,38.021807 L169.619482,47.1728384 M170.086478,293.279869 L170.102117,301.521807" id="Shape" stroke="#9EA1A4" transform="translate(170.102117, 169.771807) rotate(24.108721) translate(-170.102117, -169.771807) "></path>
                    <path d="M169.64733,38.048025 L169.66434,47.0124507 M170.130624,292.744031 L170.14733,301.548025" id="Shape" stroke="#9EA1A4" transform="translate(170.147330, 169.798025) rotate(36.108721) translate(-170.147330, -169.798025) "></path>
                    <path d="M169.686103,38.0830702 L169.703337,47.1650336 M170.168863,292.497576 L170.186103,301.58307" id="Shape" stroke="#9EA1A4" transform="translate(170.186103, 169.833070) rotate(48.108721) translate(-170.186103, -169.833070) "></path>
                    <path d="M169.716743,38.1254111 L169.732541,46.4508828 M170.200887,293.268964 L170.216743,301.625411" id="Shape" stroke="#9EA1A4" transform="translate(170.216743, 169.875411) rotate(60.108721) translate(-170.216743, -169.875411) "></path>
                    <path d="M169.73791,38.1731971 L169.752906,46.0761795 M170.221862,293.21595 L170.23791,301.673197" id="Shape" stroke="#9EA1A4" transform="translate(170.237910, 169.923197) rotate(72.108721) translate(-170.237910, -169.923197) "></path>
                    <path d="M169.74868,38.2243397 L169.763917,46.2542746 M170.232489,293.191852 L170.24868,301.72434" id="Shape" stroke="#9EA1A4" transform="translate(170.248680, 169.974340) rotate(84.108721) translate(-170.248680, -169.974340) "></path>
                    <path d="M169.74858,38.2766039 L169.764385,46.6055478 M170.231677,292.868323 L170.24858,301.776604" id="Shape" stroke="#9EA1A4" transform="translate(170.248580, 170.026604) rotate(96.108721) translate(-170.248580, -170.026604) "></path>
                    <path d="M169.737617,38.3277053 L169.752404,46.1204659 M170.219965,292.524941 L170.237617,301.827705" id="Shape" stroke="#9EA1A4" transform="translate(170.237617, 170.077705) rotate(108.108721) translate(-170.237617, -170.077705) "></path>
                    <path d="M169.716269,38.3754106 L169.730241,45.739029 M170.198588,292.557522 L170.216269,301.875411" id="Shape" stroke="#9EA1A4" transform="translate(170.216269, 170.125411) rotate(120.108721) translate(-170.216269, -170.125411) "></path>
                    <path d="M169.685468,38.4176349 L169.699861,46.0025114 M170.166447,291.893299 L170.185468,301.917635" id="Shape" stroke="#9EA1A4" transform="translate(170.185468, 170.167635) rotate(132.108721) translate(-170.185468, -170.167635) "></path>
                    <path d="M169.646562,38.4525327 L169.662211,46.6993851 M170.128491,292.429061 L170.146562,301.952533" id="Shape" stroke="#9EA1A4" transform="translate(170.146562, 170.202533) rotate(144.108721) translate(-170.146562, -170.202533) "></path>
                    <path d="M169.601251,38.4785789 L169.618147,47.3832268 M170.083717,292.738143 L170.101251,301.978579" id="Shape" stroke="#9EA1A4" transform="translate(170.101251, 170.228579) rotate(156.108721) translate(-170.101251, -170.228579) "></path>
                    <path d="M169.551514,38.4946351 L169.56833,47.3565927 M170.033334,292.413717 L170.051514,301.994635" id="Shape" stroke="#9EA1A4" transform="translate(170.051514, 170.244635) rotate(168.108721) translate(-170.051514, -170.244635) "></path>
                    <ellipse id="Oval" stroke="#F0F0F0" stroke-width="1.5" cx="170.5" cy="170.5" rx="132.5" ry="132"></ellipse>
                </g>
                <g id="Group-2" transform="translate(366.044392, 401.000000)" stroke="#9EA1A4">
                    <line x1="0.5" y1="5" x2="0.5" y2="5.79758463e-12" id="Path-Copy-9"></line>
                </g>
                <polyline id="Path-Copy-10" stroke="#FFFFFF" opacity="0.5" stroke-linecap="square" points="70.0443922 306 10.0443922 305.908408 10.5443922 184"></polyline>
                <polyline id="Path-Copy-4" stroke="#9EA1A4" points="12.0443922 66 70.5422645 66 71.0443922 406.5"></polyline>
                <polygon id="Rectangle-Copy-114" fill="#FFFFFF" opacity="0.5" transform="translate(6.180949, 66.073045) scale(-1, 1) rotate(-315.000000) translate(-6.180949, -66.073045) " points="3.19032493 61.8893001 10.3618978 69.060873 3.10141157 70.2567889 2 69.1158435"></polygon>
                <polygon id="Rectangle-Copy-115" fill="#FFFFFF" opacity="0.5" transform="translate(10.337285, 181.771068) scale(1, -1) rotate(-45.000000) translate(-10.337285, -181.771068) " points="7.45860573 177.478175 14.6301786 184.649747 6.04439216 186.063961"></polygon>
                <line x1="71.5443922" y1="406" x2="367.044392" y2="406.5" id="Path-Copy" stroke="#9EA1A4"></line>
                <path d="M366.044392,367 L366.044392,319.5" id="Shape" stroke="#F0F0F0" stroke-width="1.5"></path>
            </g>
        </g>
    </g>
</svg>