<svg xmlns="http://www.w3.org/2000/svg" xmlns:xlink="http://www.w3.org/1999/xlink" width="414" height="142"><defs><linearGradient id="r" x1="50.034%" x2="50.034%" y1="99.984%" y2="-.004%"><stop offset="0%" stop-color="#8B878D"/><stop offset="13.66%" stop-color="#9F9CA1"/><stop offset="42.07%" stop-color="#D9D8DA"/><stop offset="51.52%" stop-color="#F3F4F4"/><stop offset="100%" stop-color="#807B80"/></linearGradient><linearGradient id="b" x1="50.034%" x2="50.034%" y1="114.901%" y2="-16.677%"><stop offset="0%" stop-color="#363D43"/><stop offset="52.238%" stop-color="#82888D"/><stop offset="100%" stop-color="#363D43"/></linearGradient><linearGradient id="g" x1="50.034%" x2="50.034%" y1="99.984%" y2="-.004%"><stop offset="0%" stop-color="#8B878D"/><stop offset="13.66%" stop-color="#9F9CA1"/><stop offset="42.07%" stop-color="#D9D8DA"/><stop offset="51.52%" stop-color="#F3F4F4"/><stop offset="100%" stop-color="#807B80"/></linearGradient><linearGradient id="h" x1="50.034%" x2="50.034%" y1="99.984%" y2="-.004%"><stop offset="0%" stop-color="#8B878D"/><stop offset="13.66%" stop-color="#9F9CA1"/><stop offset="42.07%" stop-color="#D9D8DA"/><stop offset="51.52%" stop-color="#F3F4F4"/><stop offset="100%" stop-color="#807B80"/></linearGradient><linearGradient id="i" x1="50.034%" x2="50.034%" y1="99.984%" y2="-.004%"><stop offset="0%" stop-color="#8B878D"/><stop offset="13.66%" stop-color="#9F9CA1"/><stop offset="42.07%" stop-color="#D9D8DA"/><stop offset="51.52%" stop-color="#F3F4F4"/><stop offset="100%" stop-color="#807B80"/></linearGradient><linearGradient id="j" x1="50.034%" x2="50.034%" y1="99.984%" y2="-.004%"><stop offset="0%" stop-color="#8B878D"/><stop offset="13.66%" stop-color="#9F9CA1"/><stop offset="42.07%" stop-color="#D9D8DA"/><stop offset="51.52%" stop-color="#F3F4F4"/><stop offset="100%" stop-color="#807B80"/></linearGradient><linearGradient id="k" x1="50.034%" x2="50.034%" y1="99.984%" y2="-.004%"><stop offset="0%" stop-color="#8B878D"/><stop offset="13.66%" stop-color="#9F9CA1"/><stop offset="42.07%" stop-color="#D9D8DA"/><stop offset="51.52%" stop-color="#F3F4F4"/><stop offset="100%" stop-color="#807B80"/></linearGradient><linearGradient id="l" x1="50.034%" x2="50.034%" y1="99.984%" y2="-.004%"><stop offset="0%" stop-color="#212F42"/><stop offset="50.465%" stop-color="#004C97"/><stop offset="100%" stop-color="#213042"/></linearGradient><linearGradient id="m" x1="50.034%" x2="50.034%" y1="99.984%" y2="-.004%"><stop offset="0%" stop-color="#8B878D"/><stop offset="13.66%" stop-color="#9F9CA1"/><stop offset="42.07%" stop-color="#D9D8DA"/><stop offset="51.52%" stop-color="#F3F4F4"/><stop offset="100%" stop-color="#807B80"/></linearGradient><linearGradient id="n" x1="50.034%" x2="50.034%" y1="99.984%" y2="-.004%"><stop offset="0%" stop-color="#8B878D"/><stop offset="13.66%" stop-color="#9F9CA1"/><stop offset="42.07%" stop-color="#D9D8DA"/><stop offset="51.52%" stop-color="#F3F4F4"/><stop offset="100%" stop-color="#807B80"/></linearGradient><linearGradient id="p" x1="50.034%" x2="50.034%" y1="99.984%" y2="-.004%"><stop offset="0%" stop-color="#8B878D"/><stop offset="13.66%" stop-color="#9F9CA1"/><stop offset="42.07%" stop-color="#D9D8DA"/><stop offset="51.52%" stop-color="#F3F4F4"/><stop offset="100%" stop-color="#807B80"/></linearGradient><linearGradient id="f" x1=".453%" x2="99.615%" y1="50.403%" y2="50.403%"><stop offset="0%" stop-color="#AFACB1"/><stop offset="28.499%" stop-color="#BAB9BC"/><stop offset="42.07%" stop-color="#D9D8DA"/><stop offset="58.437%" stop-color="#F3F4F4"/><stop offset="100%" stop-color="#958F95"/></linearGradient><linearGradient id="s" x1="50.034%" x2="50.034%" y1="110.798%" y2="-15.403%"><stop offset="0%" stop-color="#8B878D"/><stop offset="13.66%" stop-color="#9F9CA1"/><stop offset="39.007%" stop-color="#D9D8DA"/><stop offset="55.749%" stop-color="#F3F4F4"/><stop offset="100%" stop-color="#807B80"/></linearGradient><linearGradient id="t" x1="50.034%" x2="50.034%" y1="99.984%" y2="-.004%"><stop offset="0%" stop-color="#8B878D"/><stop offset="13.66%" stop-color="#9F9CA1"/><stop offset="42.07%" stop-color="#D9D8DA"/><stop offset="51.52%" stop-color="#F3F4F4"/><stop offset="100%" stop-color="#807B80"/></linearGradient><linearGradient id="u" x1="50.034%" x2="50.034%" y1="99.984%" y2="-.004%"><stop offset="0%" stop-color="#8B878D"/><stop offset="13.66%" stop-color="#9F9CA1"/><stop offset="42.07%" stop-color="#D9D8DA"/><stop offset="51.52%" stop-color="#F3F4F4"/><stop offset="100%" stop-color="#807B80"/></linearGradient><linearGradient id="v" x1="50.034%" x2="50.034%" y1="99.984%" y2="-.004%"><stop offset="0%" stop-color="#8B878D"/><stop offset="13.66%" stop-color="#9F9CA1"/><stop offset="42.07%" stop-color="#D9D8DA"/><stop offset="51.52%" stop-color="#F3F4F4"/><stop offset="100%" stop-color="#807B80"/></linearGradient><linearGradient id="w" x1="50.034%" x2="50.034%" y1="99.984%" y2="-.004%"><stop offset="0%" stop-color="#8B878D"/><stop offset="13.66%" stop-color="#9F9CA1"/><stop offset="42.07%" stop-color="#D9D8DA"/><stop offset="51.52%" stop-color="#F3F4F4"/><stop offset="100%" stop-color="#807B80"/></linearGradient><linearGradient id="x" x1="50.034%" x2="50.034%" y1="99.984%" y2="-.004%"><stop offset="0%" stop-color="#8B878D"/><stop offset="13.66%" stop-color="#9F9CA1"/><stop offset="42.07%" stop-color="#D9D8DA"/><stop offset="51.52%" stop-color="#F3F4F4"/><stop offset="100%" stop-color="#807B80"/></linearGradient><path id="a" d="M348.575 116.956c0-9.937-9.566-15.101-28.699-15.492-17.265-.352-33.284 2.28-48.125-3.41-31.646-12.13-44.542-21.836-60.528-23.311l-4.787-.193c-12.038.065-28.105 2.358-48.201 6.878V69.962c-52.08.202-82.465.202-91.157 0-22.587-.526-17.586 7.391-32.03 8.091-2.195.617-4.792.99-8.151.968C9.648 78.908 0 73.975 0 59.642c0-.211.002-.42.007-.628-.005-.17-.007-.344-.007-.519C0 44.163 9.648 39.23 26.897 39.116c8.159-.054 11.817 2.227 16.137 4.646 5.374 2.281 11.2 4.712 24.044 4.414 8.692-.202 39.077-.202 91.157 0V36.709c19.594 4.407 35.357 6.697 47.29 6.87l6.432-.258c15.653-1.7 28.634-11.293 59.794-23.238 14.835-5.687 30.856-3.037 48.106-3.41 19.145-.413 28.718-5.971 28.718-16.673z"/><path id="e" d="M348.575 0v116.956c0-9.937-9.566-15.101-28.699-15.492-17.265-.352-33.284 2.28-48.125-3.41-31.644-12.13-44.54-21.834-60.525-23.311l-4.786-.193c-11.6.062-26.943 2.194-46.029 6.394l-2.176.484V69.962l-34.992.113c-30.925.076-49.646.038-56.165-.113-22.586-.526-17.587 7.39-32.028 8.091-2.195.616-4.793.99-8.153.968C9.648 78.908 0 73.975 0 59.642c0-.218 0-.435.007-.65L0 58.747v-.25c0-14.333 9.648-19.267 26.897-19.38 8.157-.054 11.816 2.227 16.135 4.645l1.405.592c4.932 2.05 10.681 4.02 21.983 3.836l2.802-.053c10.908-.161 40.579-.148 89.013.04V36.709l2.161.481c18.598 4.093 33.642 6.223 45.133 6.389l6.428-.258c15.653-1.7 28.634-11.293 59.794-23.238 14.835-5.687 30.856-3.037 48.106-3.41 19.145-.413 28.718-5.971 28.718-16.673zm-2.293 11.41c-4.856 4.7-13.51 7.192-25.683 7.539l-1.054.025-1.438.022c-2.218.026-4.408.008-7.447-.056l-6.682-.16c-15.822-.349-22.855.233-31.017 3.297l-1.851.71c-8.4 3.241-13.287 5.335-24.319 10.365l-7.435 3.403-2.427 1.1c-8.153 3.669-12.824 5.457-17.827 6.7l-.687.167a50.352 50.352 0 01-6.21 1.079l-.156.011-6.428.258-.125.002c-11.077-.16-25.326-2.105-42.77-5.83l-2.198-.475v10.91l-44.575-.138c-24.26-.048-39.941-.016-47.028.095l-2.521.05c-10.071.175-15.49-.987-23.157-4.147l-1.11-.465-.225-.11-2.084-1.162c-4.346-2.356-7.436-3.227-12.916-3.19l-1.045.012c-16.347.3-23.426 5.136-23.574 16.706v.586l.006.21-.006.718c0 11.835 7.055 16.77 23.574 17.073l1.045.013c2.963.02 5.377-.282 7.518-.883l.25-.07.744-.039c4.126-.244 6.22-.978 9.317-2.868l1.603-.994c5.085-3.077 9.912-4.346 19.556-4.227l5.689.09c8.865.093 26.091.108 51.664.045l37.275-.123V78.57l2.17-.469c17.95-3.833 32.526-5.784 43.834-5.843l4.786.194.119.007a49.99 49.99 0 016.978 1.157l.75.182c5.226 1.304 10.108 3.21 19.003 7.244l9.846 4.5 3.553 1.61c7.347 3.31 11.83 5.201 18.148 7.658l3.242 1.249.79.29c7.871 2.825 14.976 3.358 30.363 3.015l6.634-.16a220.85 220.85 0 017.413-.06l1.766.028 1.377.036c11.805.394 20.22 2.706 24.982 7.024V11.411z"/><path id="o" d="M0 0h6.88v22.933H0z"/><filter id="d" width="105.5%" height="116.2%" x="-3%" y="-7.3%" filterUnits="objectBoundingBox"><feOffset dx="-1" dy="1" in="SourceAlpha" result="shadowOffsetOuter1"/><feGaussianBlur in="shadowOffsetOuter1" result="shadowBlurOuter1" stdDeviation="3"/><feColorMatrix in="shadowBlurOuter1" values="0 0 0 0 0 0 0 0 0 0 0 0 0 0 0 0 0 0 0.230550699 0"/></filter></defs><g fill="none" fill-rule="evenodd"><g transform="translate(7 3)"><mask id="c" fill="#fff"><use xlink:href="#a"/></mask><use fill="url(#b)" fill-rule="nonzero" xlink:href="#a"/><g stroke="#FFF" stroke-linecap="square" stroke-width=".5" mask="url(#c)" opacity=".6"><path d="M-87.144 100.903l490.183-491.33m-490.183 494.77l490.183-491.33m-490.183 494.77l490.183-491.33m-490.183 494.77l490.183-491.33m-490.183 494.77l490.183-491.33m-490.183 494.77l490.183-491.33m-490.183 494.77l490.183-491.33M-87.144 124.982l490.183-491.33m-490.183 494.77l490.183-491.33m-490.183 494.77l490.183-491.33m-490.183 494.77l490.183-491.33m-490.183 494.77l490.183-491.33m-490.183 494.77l490.183-491.33m-490.183 494.77l490.183-491.33m-490.183 494.77l490.183-491.33M-87.144 152.501l490.183-491.329M-87.144 155.941l490.183-491.33m-490.183 494.77l490.183-491.33m-490.183 494.77l490.183-491.33m-490.183 494.77l490.183-491.33m-490.183 494.77l490.183-491.33m-490.183 494.77l490.183-491.33m-490.183 494.77l490.183-491.33m-490.183 494.77l490.183-491.33M-87.144 183.46l490.183-491.33M-87.144 186.9l490.183-491.33M-87.144 190.34l490.183-491.33M-87.144 193.78l490.183-491.33M-87.144 197.22l490.183-491.33M-87.144 200.66l490.183-491.33M-87.144 204.1l490.183-491.33M-87.144 207.54l490.183-491.33M-87.144 210.979L403.039-280.35M-87.144 214.419l490.183-491.33m-490.183 494.77l490.183-491.33m-490.183 494.77l490.183-491.33m-490.183 494.77l490.183-491.33m-490.183 494.77l490.183-491.33m-490.183 494.77l490.183-491.33m-490.183 494.77l490.183-491.33m-490.183 494.77l490.183-491.33M-87.144 241.938l490.183-491.329M-87.144 245.378l490.183-491.33m-490.183 494.77l490.183-491.33m-490.183 494.77l490.183-491.33m-490.183 494.77l490.183-491.33m-490.183 494.77l490.183-491.33m-490.183 494.77l490.183-491.33m-490.183 494.77l490.183-491.33M-87.144 269.457l490.183-491.329M-87.144 272.897l490.183-491.33m-490.183 494.77l490.183-491.33m-490.183 494.77l490.183-491.33m-490.183 494.77l490.183-491.33m-490.183 494.77l490.183-491.33m-490.183 494.77l490.183-491.33m-490.183 494.77l490.183-491.33m-490.183 494.77l490.183-491.33M-87.144 300.416l490.183-491.329M-87.144 303.856l490.183-491.33m-490.183 494.77l490.183-491.33m-490.183 494.77l490.183-491.33m-490.183 494.77l490.183-491.33m-490.183 494.77l490.183-491.33m-490.183 494.77l490.183-491.33m-490.183 494.77l490.183-491.33M-87.144 327.935l490.183-491.329M-87.144 331.375l490.183-491.33m-490.183 494.77l490.183-491.33m-490.183 494.77l490.183-491.33m-490.183 494.77l490.183-491.33m-490.183 494.77l490.183-491.33m-490.183 494.77l490.183-491.33m-490.183 494.77l490.183-491.33m-490.183 494.77l490.183-491.33M-87.144 358.894l490.183-491.329M-87.144 362.334l490.183-491.33m-490.183 494.77l490.183-491.33m-490.183 494.77l490.183-491.33m-490.183 494.77l490.183-491.33m-490.183 494.77l490.183-491.33m-490.183 494.77l490.183-491.33m-490.183 494.77l490.183-491.33M-87.144 386.413l490.183-491.329M-87.144 389.853l490.183-491.33m-490.183 494.77l490.183-491.33m-490.183 494.77l490.183-491.33m-490.183 494.77l490.183-491.33m-490.183 494.77l490.183-491.33m-490.183 494.77l490.183-491.33m-490.183 494.77l490.183-491.33m-490.183 494.77l490.183-491.33M-87.144 417.372L403.039-73.957M-87.144 420.812l490.183-491.33m-490.183 494.77l490.183-491.33m-490.183 494.77l490.183-491.33m-490.183 494.77l490.183-491.33m-490.183 494.77l490.183-491.33m-490.183 494.77l490.183-491.33m-490.183 494.77l490.183-491.33M-87.144 444.891L403.039-46.438M-87.144 448.331l490.183-491.33m-490.183 494.77l490.183-491.33m-490.183 494.77l490.183-491.33m-490.183 494.77l490.183-491.33m-490.183 494.77l490.183-491.33m-490.183 494.77l490.183-491.33m-490.183 494.77l490.183-491.33m-490.183 494.77l490.183-491.33M-87.144 475.85L403.039-15.479M-87.144 479.29L403.039-12.04M-87.144 482.73L403.039-8.6M-87.144 486.17L403.039-5.16M-87.144 489.61L403.039-1.72M-87.144 493.05L403.039 1.72M-87.144 496.49L403.039 5.16M-87.144 499.93L403.039 8.6M-87.144 503.37L403.039 12.04M-87.144 506.809l490.183-491.33m-490.183 494.77l490.183-491.33m-490.183 494.77l490.183-491.33m-490.183 494.77l490.183-491.33m-490.183 494.77l490.183-491.33m-490.183 494.77l490.183-491.33m-490.183 494.77l490.183-491.33m-490.183 494.77l490.183-491.33M-87.144 534.328L403.039 42.999M-87.144 537.768l490.183-491.33m-490.183 494.77l490.183-491.33m-490.183 494.77l490.183-491.33m-490.183 494.77l490.183-491.33m-490.183 494.77l490.183-491.33m-490.183 494.77l490.183-491.33m-490.183 494.77l490.183-491.33m-490.183 494.77l490.183-491.33M-87.144 565.287l490.183-491.33m-490.183 494.77l490.183-491.33m-490.183 494.77l490.183-491.33m-490.183 494.77l490.183-491.33m-490.183 494.77l490.183-491.33m-490.183 494.77l490.183-491.33m-490.183 494.77l490.183-491.33m-490.183 494.77l490.183-491.33M-87.144 592.806l490.183-491.329" opacity=".148"/></g><g fill-rule="nonzero"><use fill="#000" filter="url(#d)" xlink:href="#e"/><use fill="url(#f)" xlink:href="#e"/></g><path fill="url(#g)" fill-rule="nonzero" stroke="#636262" stroke-width=".5" d="M319.336 49.305l3.44 4.586h4.012v-2.293h8.027v2.293h58.478v-2.293h8.027l-.001 2.293h.587a4 4 0 014 4v1.174a4 4 0 01-4 4l-.587-.001v2.294h-8.026v-2.294h-58.478v2.294h-8.026l-.001-2.294h-4.012l-3.44 4.587H294.11l-3.44-4.586h-12.626a4 4 0 01-4-4V57.89a4 4 0 014-4h12.626l3.44-4.586h25.226z"/><path fill="#004C97" d="M280.924 52.745h5.733v3.44h-5.733zm0 8.026h5.733v3.44h-5.733zm57.331-8.026h5.733v3.44h-5.733zm-3.44-1.147v4.587h-2.293v-4.587h2.293zm-5.733 0v4.587h-2.293v-4.587h2.293zm72.238 0v4.587h-2.294v-4.587h2.294zm-5.733 0v4.587h-2.294v-4.587h2.294zm-60.772 9.173v4.587h-2.293V60.77h2.293zm-5.733 0v4.587h-2.293V60.77h2.293zm72.238 0v4.587h-2.294V60.77h2.294zm-5.733 0v4.587h-2.294V60.77h2.294zm-57.332 0h5.733v3.44h-5.733zm20.639-8.026h5.733v3.44h-5.733zm0 8.026h5.733v3.44h-5.733zm21.786-8.026h5.733v3.44h-5.733zm0 8.026h5.733v3.44h-5.733z"/><path fill="url(#h)" fill-rule="nonzero" stroke="#636262" stroke-width=".5" d="M50.452 51.598v2.293h161.674v9.174H50.451v2.293h-6.88v-2.294H30.96a4.587 4.587 0 110-9.173h12.61v-2.293h6.88z"/><path fill="url(#i)" fill-rule="nonzero" stroke="#636262" stroke-width=".5" d="M30.959 48.158h5.733l5.733 5.733H30.959z"/><path fill="#004C97" d="M202.953 52.745h5.733v3.44h-5.733z"/><g fill-rule="nonzero"><path fill="url(#j)" stroke="#636262" stroke-width=".5" d="M0 11.466h4.587v11.466H0z" transform="translate(36.692 104.343)"/><path fill="url(#k)" stroke="#636262" stroke-width=".5" d="M8.587 0h63.09a4 4 0 014 4v26.399a4 4 0 01-4 4H8.587a4 4 0 01-4-4V4a4 4 0 014-4z" transform="translate(36.692 104.343)"/><path fill="url(#l)" d="M33.252-18.346h13.76v71.091h-13.76z" transform="rotate(90 6.307 87.718)"/><path fill="url(#m)" stroke="#636262" stroke-width=".5" d="M-28.092 28.092h61.918v5.734h-61.918z" transform="rotate(90 -15.479 80.264)"/></g><path fill="url(#i)" fill-rule="nonzero" stroke="#636262" stroke-width=".5" d="M30.959 63.065h5.733l5.733 5.733H30.959z" transform="matrix(1 0 0 -1 0 131.862)"/><path fill="url(#n)" fill-rule="nonzero" stroke="#636262" stroke-width=".5" d="M274.044 49.305h3.44v18.346h-3.44z"/><path fill="#004C97" d="M202.953 60.771h5.733v3.44h-5.733zM57.331 52.745h5.733v3.44h-5.733zm0 8.026h5.733v3.44h-5.733zm-5.733-9.173v4.587h-2.293v-4.587h2.293zm-5.733 0v4.587h-2.293v-4.587h2.293zm5.733 9.173v4.587h-2.293V60.77h2.293zm-5.733 0v4.587h-2.293V60.77h2.293z"/><g transform="translate(369.214 47.012)"><mask id="q" fill="#fff"><use xlink:href="#o"/></mask><use fill="url(#p)" fill-rule="nonzero" xlink:href="#o"/><path fill="#7F7F7F" fill-rule="nonzero" d="M-3.866-1.147l-.338.406L10.138 16.47l.338-.405zm0 2.294l-.338.405 14.342 17.211.338-.405zm0 2.293l-.338.405 14.342 17.212.338-.406zm0 2.293l-.338.406L10.138 23.35l.338-.406zm0 2.293l-.338.406 14.342 17.211.338-.405zm0 2.294l-.338.405 14.342 17.211.338-.405zm0 2.293l-.338.405L10.138 30.23l.338-.406zm0 2.293l-.338.406 14.342 17.211.338-.405zm0-18.346l-.338.406 14.342 17.211.338-.406zm0-2.293l-.338.405 14.342 17.212.338-.406zm0-2.293l-.338.405L10.138 9.59l.338-.405zm0-2.294l-.338.406L10.138 7.297l.338-.405z" mask="url(#q)" transform="matrix(-1 0 0 1 6.272 0)"/><path stroke="#636262" stroke-width=".5" d="M0 0h6.88v22.933H0z"/></g><g fill-rule="nonzero" stroke="#636262" stroke-width=".5"><path fill="url(#r)" d="M78.867 8.674L4.731 17.798.25 24.52v9.022l4.482 6.723L78.867 50.53V8.674z" transform="translate(83.704 29.448)"/><path fill="url(#s)" d="M11.719 0l.78.824-1.088 1.095v.543l1.225-1.056.72.882-1.945 1.676v.928l1.412-1.016.642.943-2.054 1.477v1.006l1.584-.94.56.997-2.144 1.272v2.216l1.74-.833.474 1.043-2.214 1.06v2.264l1.879-.702.383 1.08-2.262.846v2.3l1.999-.55.29 1.111-2.289.63v2.325l2.1-.38.194 1.133-2.294.415v2.342l2.18-.195.097 1.146-2.277.204v2.35h2.24v1.15h-2.24v2.593l2.332.21-.098 1.147-2.234-.201v2.336l2.349.426-.195 1.133-2.154-.391v2.32l2.343.646-.29 1.112-2.053-.566v2.294l2.317.867-.383 1.081-1.934-.724v2.259l2.268 1.087-.473 1.043-1.795-.861v2.21l2.199 1.306-.56.996-1.639-.973v.998l2.109 1.519-.642.942-1.467-1.055v.919l1.999 1.725-.72.881-1.279-1.103v.283l1.142 1.19-.795.81-.867-.902a2.24 2.24 0 01-1.718-2.178V3.058A2.24 2.24 0 0110.827.896L11.72 0zm9.173 0l.78.824-1.088 1.095v.543l1.225-1.056.72.882-1.945 1.676v.928l1.412-1.016.642.943-2.054 1.477v1.006l1.584-.94.56.997-2.144 1.272v2.216l1.74-.833.474 1.043-2.214 1.06v2.264l1.879-.702.383 1.08-2.262.846v2.3l1.999-.55.29 1.111-2.289.63v2.325l2.1-.38.194 1.133-2.294.415v2.342l2.18-.195.097 1.146-2.277.204v2.35h2.24v1.15h-2.24v2.593l2.332.21-.098 1.147-2.234-.201v2.336l2.349.426-.195 1.133-2.154-.391v2.32l2.343.646-.29 1.112-2.053-.566v2.294l2.317.867-.383 1.081-1.934-.724v2.259l2.268 1.087-.473 1.043-1.795-.861v2.21l2.199 1.306-.56.996-1.639-.973v.998l2.109 1.519-.642.942-1.467-1.055v.919l1.999 1.725-.72.881-1.279-1.103v.283l1.142 1.19-.795.81-.867-.902a2.24 2.24 0 01-1.718-2.178V3.058A2.24 2.24 0 0120 .896L20.892 0zm9.173 0l.78.824-1.088 1.095v.543l1.225-1.056.72.882-1.945 1.676v.928l1.412-1.016.642.943-2.054 1.477v1.006l1.585-.94.56.997-2.145 1.272v2.216l1.74-.833.474 1.043-2.214 1.06v2.264l1.88-.702.382 1.08-2.262.846v2.3l1.999-.55.29 1.111-2.289.63v2.325l2.1-.38.194 1.133-2.294.415v2.342l2.18-.195.097 1.146-2.277.204v2.35h2.24v1.15h-2.24v2.593l2.332.21-.098 1.147-2.234-.201v2.336l2.349.426-.195 1.133-2.154-.391v2.32l2.343.646-.29 1.112-2.053-.566v2.294l2.317.867-.383 1.081-1.934-.724v2.259l2.268 1.087-.473 1.043-1.795-.861v2.21l2.199 1.306-.56.996-1.639-.973v.998l2.109 1.519-.642.942-1.467-1.055v.919l1.999 1.725-.72.881-1.279-1.103v.283l1.142 1.19-.795.81-.867-.902a2.24 2.24 0 01-1.718-2.178V3.058A2.24 2.24 0 0129.173.896L30.065 0zm9.173 0l.78.824L38.93 1.92v.543l1.225-1.056.72.882-1.945 1.676v.928l1.412-1.016.642.943-2.054 1.477v1.006l1.585-.94.56.997-2.145 1.27v2.216l1.74-.833.474 1.043-2.214 1.06v2.264l1.88-.702.382 1.08-2.262.846v2.3l2-.55.289 1.111-2.289.63v2.325l2.1-.38.194 1.133-2.294.415v2.342l2.18-.195.097 1.146-2.277.204v2.35h2.24v1.15h-2.24v2.593l2.332.21-.098 1.147-2.234-.201v2.336l2.349.426-.195 1.133-2.154-.391v2.32l2.343.646-.29 1.112-2.053-.566v2.294l2.317.867-.383 1.081-1.934-.724v2.259l2.268 1.087-.473 1.043-1.795-.861v2.21l2.199 1.306-.56.996-1.639-.973v.998l2.109 1.519-.642.942-1.467-1.055v.919l1.999 1.725-.72.881-1.279-1.103v.283l1.142 1.19-.795.81-.867-.902a2.24 2.24 0 01-1.718-2.178V3.058A2.24 2.24 0 0138.346.896L39.238 0zm9.172 0l.782.824-1.089 1.095v.543l1.225-1.056.72.882-1.945 1.676v.928l1.412-1.016.642.943-2.054 1.477v1.006l1.585-.94.56.997-2.145 1.272v2.216l1.74-.833.474 1.043-2.214 1.06v2.264l1.88-.702.382 1.08-2.262.846v2.3l2-.55.289 1.111-2.289.63v2.325l2.1-.38.194 1.133-2.294.415v2.342l2.18-.195.097 1.146-2.277.204v2.35h2.24v1.15h-2.24v2.593l2.332.21-.097 1.147-2.235-.201v2.336l2.349.426-.195 1.133-2.154-.391v2.32l2.343.646-.29 1.112-2.053-.566v2.294l2.317.867-.383 1.081-1.934-.724v2.259l2.268 1.087-.473 1.043-1.795-.861v2.21l2.199 1.306-.56.996-1.639-.973v.998l2.109 1.519-.642.942-1.467-1.055v.919l1.999 1.725-.72.881-1.279-1.103v.283l1.142 1.19-.795.81-.867-.902a2.24 2.24 0 01-1.718-2.178V3.058A2.24 2.24 0 0147.52.896L48.411 0zm9.174 0l.78.824-1.088 1.095v.543l1.225-1.056.72.882-1.945 1.676v.928l1.412-1.016.642.943-2.054 1.477v1.006l1.585-.94.56.997-2.145 1.272v2.216l1.74-.833.474 1.043-2.214 1.06v2.264l1.88-.702.382 1.08-2.262.846v2.3l2-.55.289 1.111-2.289.63v2.325l2.1-.38.194 1.133-2.294.415v2.342l2.18-.195.097 1.146-2.277.204v2.35h2.24v1.15h-2.24v2.593l2.332.21-.097 1.147-2.235-.201v2.336l2.349.426-.195 1.133-2.154-.391v2.32l2.343.646-.29 1.112-2.053-.566v2.294l2.317.867-.383 1.081-1.934-.724v2.259l2.268 1.087-.473 1.043-1.795-.861v2.21l2.199 1.306-.56.996-1.639-.973v.998l2.109 1.519-.642.942-1.467-1.055v.919l1.999 1.725-.72.881-1.279-1.103v.283l1.143 1.19-.796.81-.867-.902a2.24 2.24 0 01-1.718-2.178V3.058A2.24 2.24 0 0156.692.896L57.584 0zm9.173 0l.78.824L66.45 1.92v.543l1.225-1.056.72.882-1.945 1.676v.928l1.412-1.016.642.943-2.054 1.477v1.006l1.585-.94.56.997-2.145 1.272v2.216l1.74-.833.474 1.043-2.214 1.06v2.264l1.88-.702.382 1.08-2.262.846v2.3l2-.55.289 1.111-2.289.63v2.325l2.1-.38.194 1.133-2.294.415v2.342l2.18-.195.097 1.146-2.277.204v2.35h2.24v1.15h-2.24v2.593l2.332.21-.097 1.147-2.235-.201v2.336l2.349.426-.195 1.133-2.154-.391v2.32l2.343.646-.29 1.112-2.053-.566v2.294l2.317.867-.383 1.081-1.934-.724v2.259l2.268 1.087-.473 1.043-1.795-.861v2.21l2.199 1.306-.56.996-1.639-.973v.998l2.109 1.519-.642.942-1.467-1.055v.919l2 1.725-.72.881-1.28-1.103v.283l1.143 1.19-.796.81-.867-.902a2.24 2.24 0 01-1.718-2.178V3.058A2.24 2.24 0 0165.866.896l.89-.896z" transform="translate(83.704 29.448)"/></g><g stroke="#636262" stroke-width=".5"><path fill="url(#t)" fill-rule="nonzero" d="M4.192 0h1.936a2 2 0 011.997 1.896l2.19 42.147a2 2 0 010 .205l-2.192 43.29a2 2 0 01-1.998 1.899h-1.93a2 2 0 01-1.998-1.899L.005 44.248a2 2 0 010-.205l2.19-42.147A2 2 0 014.192 0z" transform="translate(229.326 13.76)"/><path fill="#000" fill-opacity=".04" d="M239.646 64.212h-10.32m0-11.467h10.32m-1.147 26.373h-8.026m0-6.88h8.026m.573-27.519h-9.173m.574-6.88h8.026m-8.6 6.88h9.173l.574 8.026h-10.32zm8.027 47.011h-6.88m0-5.732h6.88m0-55.038h-6.88m0-5.734h6.88m0 71.091h-6.88m0-4.586h6.88m0-66.505h-6.88m.573-4.586h5.733m0 79.117h-5.733m-.573-3.44h6.88m-.574 5.733h-5.733m0-2.293h5.733m0-82.557h-5.733m.574-2.293h4.586"/></g><g stroke="#636262" stroke-width=".5"><path fill="url(#u)" fill-rule="nonzero" d="M4.19 0h1.94a2 2 0 011.997 1.893l2.187 41a2 2 0 010 .21l-2.19 42.144a2 2 0 01-1.996 1.897H4.192a2 2 0 01-1.997-1.897L.005 43.104a2 2 0 010-.21l2.187-41A2 2 0 014.19 0z" transform="translate(215.566 14.906)"/><path fill="#000" fill-opacity=".04" d="M225.886 64.211h-10.32m0-11.466h10.32m-1.147 26.372h-8.026m0-6.88h8.026m.573-27.519h-9.173m.574-6.88h8.026m-8.6 6.88h9.173l.574 8.027h-10.32zm8.027 47.012h-6.88m0-5.733h6.88m0-55.038h-6.88m0-5.733h6.88m0 71.09h-6.88m0-4.586h6.88m0-66.504h-6.88m.573-4.587h5.733m0 79.117h-5.733m-.573-3.44h6.88m-6.307 3.44h5.733m0-82.557h-5.733"/></g><g stroke="#636262" stroke-width=".5"><path fill="url(#v)" fill-rule="nonzero" d="M4.197 0h1.926A2 2 0 018.12 1.901l2.195 44.41a2 2 0 010 .195L8.118 92.12a2 2 0 01-1.998 1.903H4.2a2 2 0 01-1.998-1.903L.005 46.506a2 2 0 010-.194l2.194-44.41A2 2 0 014.197 0z" transform="translate(249.965 11.466)"/><path fill="#000" fill-opacity=".04" d="M260.285 64.211h-10.32m0-11.466h10.32m-1.147 28.665h-8.026m0-6.88h8.026m.573-32.105h-9.173m.574-6.88h8.026m-.573 58.478h-6.88m0-5.733h6.88m0-59.624h-6.88m0-5.734h6.88m0 75.678h-6.88m0-4.587h6.88m0-71.091h-6.88m.573-4.586h5.733m0 83.704h-5.733m-.573-3.44h6.88m-.574 5.733h-5.733m0-2.293h5.733m0-87.144h-5.733m.574-2.293h4.586"/></g><g stroke="#636262" stroke-width=".5"><path fill="url(#w)" fill-rule="nonzero" d="M4.2 0h1.92a2 2 0 011.998 1.904l2.197 45.542a2 2 0 010 .19L8.116 94.411a2 2 0 01-1.998 1.906H4.201a2 2 0 01-1.997-1.906l-2.2-46.775a2 2 0 010-.19L2.202 1.904A2 2 0 014.2 0z" transform="translate(263.724 10.32)"/><path fill="#000" fill-opacity=".04" d="M274.044 64.211h-10.32m0-11.466h10.32m-1.147 29.813h-8.026m0-6.88h8.026m.573-34.399h-9.173m.574-6.88h8.026m-.573 60.771h-6.88m0-5.733h6.88m0-61.917h-6.88m0-5.734h6.88m0 77.971h-6.88m0-4.587h6.88m0-73.384h-6.88m.573-4.586h5.733m0 85.997h-5.733m-.573-3.44h6.88m-.574 5.733h-5.733m0-2.293h5.733m0-89.437h-5.733m.574-2.293h4.586"/></g><path fill="url(#n)" fill-rule="nonzero" stroke="#636262" stroke-width=".5" d="M212.126 49.305h3.44v18.346h-3.44zm13.76 0h3.44v18.346h-3.44zm34.398 0h3.44v18.346h-3.44z"/></g><path fill="url(#x)" fill-rule="nonzero" stroke="#636262" stroke-width=".5" d="M13.648.416L.251 11.478l.635 68.933 12.793 10.922 2.109-4.218c-4.196-16.607-6.292-30.357-6.292-41.25 0-11.361 1.907-25.115 5.723-41.262L13.649.416z" transform="translate(164.088 15.613)"/></g></svg>