<svg width="487" height="273" xmlns="http://www.w3.org/2000/svg" xmlns:xlink="http://www.w3.org/1999/xlink"><defs><linearGradient x1="50.034%" y1="99.984%" x2="50.034%" y2="-.004%" id="e"><stop stop-color="#8B878D" offset="0%"/><stop stop-color="#9F9CA1" offset="13.66%"/><stop stop-color="#D9D8DA" offset="42.07%"/><stop stop-color="#F3F4F4" offset="51.52%"/><stop stop-color="#807B80" offset="100%"/></linearGradient><linearGradient x1="50.034%" y1="99.984%" x2="50.034%" y2="-.004%" id="f"><stop stop-color="#8B878D" offset="0%"/><stop stop-color="#9F9CA1" offset="13.66%"/><stop stop-color="#D9D8DA" offset="42.07%"/><stop stop-color="#F3F4F4" offset="51.52%"/><stop stop-color="#807B80" offset="100%"/></linearGradient><linearGradient x1="50.034%" y1="99.984%" x2="50.034%" y2="-.004%" id="g"><stop stop-color="#8B878D" offset="0%"/><stop stop-color="#9F9CA1" offset="13.66%"/><stop stop-color="#D9D8DA" offset="42.07%"/><stop stop-color="#F3F4F4" offset="51.52%"/><stop stop-color="#807B80" offset="100%"/></linearGradient><linearGradient x1="50.034%" y1="110.798%" x2="50.034%" y2="-15.403%" id="h"><stop stop-color="#8B878D" offset="0%"/><stop stop-color="#9F9CA1" offset="13.66%"/><stop stop-color="#D9D8DA" offset="39.007%"/><stop stop-color="#F3F4F4" offset="55.749%"/><stop stop-color="#807B80" offset="100%"/></linearGradient><linearGradient x1="50.034%" y1="99.984%" x2="50.034%" y2="-.004%" id="i"><stop stop-color="#8B878D" offset="0%"/><stop stop-color="#9F9CA1" offset="13.66%"/><stop stop-color="#D9D8DA" offset="42.07%"/><stop stop-color="#F3F4F4" offset="51.52%"/><stop stop-color="#807B80" offset="100%"/></linearGradient><linearGradient x1="50.034%" y1="99.984%" x2="50.034%" y2="-.004%" id="j"><stop stop-color="#8B878D" offset="0%"/><stop stop-color="#9F9CA1" offset="13.66%"/><stop stop-color="#D9D8DA" offset="42.07%"/><stop stop-color="#F3F4F4" offset="51.52%"/><stop stop-color="#807B80" offset="100%"/></linearGradient><linearGradient x1="50.034%" y1="99.984%" x2="50.034%" y2="-.004%" id="k"><stop stop-color="#8B878D" offset="0%"/><stop stop-color="#9F9CA1" offset="13.66%"/><stop stop-color="#D9D8DA" offset="42.07%"/><stop stop-color="#F3F4F4" offset="51.52%"/><stop stop-color="#807B80" offset="100%"/></linearGradient><path id="a" d="M0 0h487v272.731H0z"/><path id="c" d="M.766 0h480v273h-480z"/></defs><g fill="none" fill-rule="evenodd"><mask id="b" fill="#fff"><use xlink:href="#a"/></mask><g mask="url(#b)"><g transform="translate(6.234)"><mask id="d" fill="#fff"><use xlink:href="#c"/></mask><g mask="url(#d)"><path d="M44.397 76.407v4.195h296.091v16.784H44.397v4.196h-12.6v-4.196H8.69a8.392 8.392 0 010-16.783l23.108-.001v-4.195h12.6z" stroke="#636262" stroke-width=".5" fill="url(#e)" fill-rule="nonzero" transform="translate(81 47.371)"/><path stroke="#636262" stroke-width=".5" fill="url(#f)" fill-rule="nonzero" d="M8.698 70.113h10.5l10.5 10.49h-21z" transform="translate(81 47.371)"/><path fill="#004C97" d="M404.689 125.876h10.5v6.294h-10.5z"/><path stroke="#636262" stroke-width=".5" fill="url(#f)" fill-rule="nonzero" transform="matrix(1 0 0 -1 81 252.633)" d="M8.698 97.386h10.5l10.5 10.49h-21z"/><path fill="#004C97" d="M404.689 140.561h10.5v6.294h-10.5zM137.997 125.876h10.5v6.294h-10.5zM137.997 140.561h10.5v6.294h-10.5zM127.497 123.778v8.392h-4.2v-8.392h4.2zm-10.5 0v8.392h-4.2v-8.392h4.2zM127.497 140.561v8.392h-4.2v-8.392h4.2zm-10.5 0v8.392h-4.2v-8.392h4.2z"/><g stroke="#636262" stroke-width=".5" fill-rule="nonzero"><path d="M144.646 15.635L8.544 32.37.25 44.8V61.43l8.295 12.431 136.1 18.827V15.635z" fill="url(#g)" transform="translate(186.295 83.25)"/><path d="M21.461 0l1.431 1.508-1.994 2.003v.993l2.243-1.931 1.318 1.613-3.56 3.067v1.698l2.585-1.859 1.176 1.725-3.762 2.704v1.839l2.902-1.72 1.025 1.824-3.927 2.328v4.056l3.188-1.526.866 1.908-4.054 1.941v4.142l3.441-1.286.701 1.978-4.142 1.548v4.207l3.661-1.007.53 2.034-4.19 1.153v4.254l3.844-.696.356 2.073-4.2.761v4.283l3.991-.358.179 2.098-4.17.374v4.299h4.1v2.106l-4.1-.001v4.745l4.27.384-.179 2.097-4.092-.368v4.275l4.301.78-.356 2.073-3.945-.715v4.244l4.292 1.182-.53 2.033-3.762-1.035v4.197l4.243 1.586-.701 1.979-3.542-1.325v4.132l4.154 1.99-.866 1.908-3.288-1.575v4.045l4.027 2.388-1.025 1.823-3.002-1.779v1.826L24.76 97.8l-1.176 1.725-2.686-1.932v1.684l3.661 3.154-1.318 1.613-2.343-2.019v.518l2.092 2.178-1.456 1.482-1.586-1.65a4.101 4.101 0 01-3.149-3.99V5.6a4.102 4.102 0 013.03-3.959L21.46 0zM38.26 0l1.432 1.508-1.994 2.003v.993l2.243-1.931 1.317 1.613-3.56 3.067v1.698l2.586-1.859 1.176 1.725-3.762 2.704v1.839l2.901-1.72 1.025 1.824-3.926 2.328v4.056l3.187-1.526.866 1.908-4.053 1.941v4.142l3.44-1.286.702 1.978-4.142 1.548v4.207l3.66-1.007.531 2.034-4.191 1.153v4.254l3.845-.696.356 2.073-4.201.761v4.283l3.992-.358.178 2.098-4.17.374v4.299h4.1v2.106l-4.1-.001v4.745l4.27.384-.178 2.097-4.092-.368v4.275l4.3.78-.355 2.073-3.945-.715v4.244l4.291 1.182-.53 2.033-3.761-1.035v4.197l4.242 1.586-.701 1.979-3.541-1.325v4.132l4.154 1.99-.867 1.908-3.287-1.575v4.045l4.026 2.388-1.024 1.823-3.002-1.779v1.826L41.56 97.8l-1.176 1.725-2.686-1.932v1.684l3.66 3.154-1.317 1.613-2.343-2.019v.518l2.092 2.178-1.456 1.482-1.586-1.65a4.101 4.101 0 01-3.149-3.99V5.6a4.102 4.102 0 013.03-3.959L38.26 0zM55.06 0l1.431 1.508-1.994 2.003v.993l2.243-1.931 1.318 1.613-3.56 3.067v1.698l2.585-1.859 1.176 1.725-3.762 2.704v1.839l2.902-1.72 1.025 1.824-3.927 2.328v4.056l3.188-1.526.866 1.908-4.054 1.941v4.142l3.441-1.286.701 1.978-4.142 1.548v4.207l3.661-1.007.53 2.034-4.19 1.153v4.254l3.844-.696.356 2.073-4.2.761v4.283l3.991-.358.179 2.098-4.17.374v4.299h4.1v2.106l-4.1-.001v4.745l4.27.384-.179 2.097-4.092-.368v4.275l4.301.78-.356 2.073-3.945-.715v4.244l4.292 1.182-.53 2.033-3.762-1.035v4.197l4.243 1.586-.702 1.979-3.54-1.325v4.132l4.153 1.99-.866 1.908-3.288-1.575v4.045l4.027 2.388-1.025 1.823-3.002-1.779v1.826L58.36 97.8l-1.176 1.725-2.686-1.932v1.684l3.66 3.154-1.317 1.613-2.343-2.019v.518l2.092 2.178-1.456 1.482-1.586-1.65a4.101 4.101 0 01-3.149-3.99V5.6a4.102 4.102 0 013.03-3.959L55.06 0zM71.86 0l1.43 1.508-1.993 2.003v.993l2.243-1.931 1.317 1.613-3.56 3.067v1.698l2.586-1.859 1.176 1.725-3.762 2.704v1.839l2.901-1.72 1.025 1.824-3.926 2.328v4.056l3.187-1.526.866 1.908-4.053 1.941v4.142l3.44-1.286.702 1.978-4.142 1.548v4.207l3.66-1.007.531 2.034-4.191 1.153v4.254l3.845-.696.356 2.073-4.201.761v4.283l3.992-.358.178 2.098-4.17.374v4.299h4.1v2.106l-4.1-.001v4.745l4.27.384-.178 2.097-4.092-.368v4.275l4.3.78-.355 2.073-3.945-.715v4.244l4.291 1.182-.53 2.033-3.761-1.035v4.197l4.242 1.586-.701 1.979-3.541-1.325v4.132l4.154 1.99-.867 1.908-3.287-1.575v4.045l4.026 2.388-1.024 1.823-3.002-1.779v1.826l3.862 2.777-1.176 1.725-2.686-1.932v1.684l3.66 3.154-1.317 1.613-2.343-2.019v.518l2.092 2.178-1.456 1.482-1.586-1.65a4.101 4.101 0 01-3.15-3.99V5.6a4.102 4.102 0 013.03-3.959L71.86 0zM88.66 0l1.43 1.508-1.994 2.003v.993l2.243-1.931 1.318 1.613-3.56 3.067v1.698l2.585-1.859 1.176 1.725-3.762 2.704v1.839l2.902-1.72 1.025 1.824-3.927 2.328v4.056l3.188-1.526.866 1.908-4.054 1.941v4.142l3.441-1.286.701 1.978-4.142 1.548v4.207l3.661-1.007.53 2.034-4.19 1.153v4.254l3.844-.696.356 2.073-4.2.761v4.283l3.991-.358.179 2.098-4.17.374v4.299h4.1v2.106l-4.1-.001v4.745l4.27.384-.179 2.097-4.092-.368v4.275l4.301.78-.356 2.073-3.945-.715v4.244l4.292 1.182-.53 2.033-3.762-1.035v4.197l4.243 1.586-.702 1.979-3.54-1.325v4.132l4.153 1.99-.866 1.908-3.288-1.575v4.045l4.027 2.388-1.025 1.823-3.002-1.779v1.826l3.862 2.777-1.176 1.725-2.686-1.932v1.684l3.66 3.154-1.317 1.613-2.343-2.019v.518l2.092 2.178-1.456 1.482-1.586-1.65a4.101 4.101 0 01-3.149-3.99V5.6a4.102 4.102 0 013.03-3.959L88.659 0zM105.459 0l1.43 1.508-1.993 2.003v.993l2.243-1.931 1.317 1.613-3.56 3.067v1.698l2.586-1.859 1.176 1.725-3.762 2.704v1.839l2.901-1.72 1.025 1.824-3.926 2.328v4.056l3.187-1.526.866 1.908-4.053 1.941v4.142l3.44-1.286.702 1.978-4.142 1.548v4.207l3.66-1.007.531 2.034-4.191 1.153v4.254l3.845-.696.356 2.073-4.201.761v4.283l3.992-.358.178 2.098-4.17.374v4.299h4.1v2.106l-4.1-.001v4.745l4.27.384-.178 2.097-4.092-.368v4.275l4.3.78-.355 2.073-3.945-.715v4.244l4.291 1.182-.53 2.033-3.761-1.035v4.197l4.242 1.586-.701 1.979-3.541-1.325v4.132l4.154 1.99-.867 1.908-3.287-1.575v4.045l4.026 2.388-1.025 1.823-3.001-1.779v1.826l3.862 2.777-1.176 1.725-2.686-1.932v1.684l3.66 3.154-1.317 1.613-2.343-2.019v.518l2.092 2.178-1.456 1.482-1.586-1.65a4.101 4.101 0 01-3.15-3.99V5.6a4.102 4.102 0 013.03-3.959L105.46 0zM122.258 0l1.431 1.508-1.994 2.003v.993l2.243-1.931 1.318 1.613-3.56 3.067v1.698l2.585-1.859 1.176 1.725-3.762 2.704v1.839l2.902-1.72 1.025 1.824-3.927 2.328v4.056l3.188-1.526.866 1.908-4.054 1.941v4.142l3.441-1.286.701 1.978-4.142 1.548v4.207l3.661-1.007.53 2.034-4.19 1.153v4.254l3.844-.696.356 2.073-4.2.761v4.283l3.991-.358.179 2.098-4.17.374v4.299h4.1v2.106l-4.1-.001v4.745l4.27.384-.179 2.097-4.092-.368v4.275l4.301.78-.356 2.073-3.945-.715v4.244l4.292 1.182-.53 2.033-3.762-1.035v4.197l4.243 1.586-.702 1.979-3.54-1.325v4.132l4.153 1.99-.866 1.908-3.288-1.575v4.045l4.027 2.388-1.025 1.823-3.002-1.779v1.826l3.862 2.777-1.176 1.725-2.686-1.932v1.684l3.66 3.154-1.317 1.613-2.343-2.019v.518l2.092 2.178-1.456 1.482-1.586-1.65a4.101 4.101 0 01-3.149-3.99V5.6a4.102 4.102 0 013.03-3.959L122.258 0z" fill="url(#h)" transform="translate(186.295 83.25)"/></g><g stroke="#636262" stroke-width=".5"><path d="M6.099 0H12.8a2 2 0 011.997 1.896l4.096 78.772a2 2 0 010 .205l-4.098 80.867a2 2 0 01-1.998 1.899H6.101a2 2 0 01-1.997-1.9L.005 80.874a2 2 0 010-.205L4.101 1.896A2 2 0 016.1 0z" fill="url(#i)" fill-rule="nonzero" transform="translate(452.987 54.546)"/><path d="M471.887 146.855h-18.9m0-20.98h18.9M469.787 174.128h-14.7m0-12.587h14.7M470.837 111.19h-16.8m1.05-12.587h14.7M454.037 111.19h16.8l1.05 14.686h-18.9zM468.737 197.206h-12.6m0-10.49h12.6M468.737 86.015h-12.6m0-10.49h12.6M468.737 205.597h-12.6m0-8.391h12.6M468.737 75.526h-12.6m1.05-8.392h10.5M467.687 211.891h-10.5m-1.05-6.294h12.6M467.687 216.087h-10.5m0-4.196h10.5M467.687 60.84h-10.5m1.05-4.196h8.4" fill-opacity=".04" fill="#000"/></g><g stroke="#636262" stroke-width=".5"><path d="M6.096 0h6.707a2 2 0 011.998 1.893l4.093 76.674a2 2 0 010 .21l-4.096 78.77a2 2 0 01-1.997 1.896H6.099a2 2 0 01-1.998-1.896L.005 78.777a2 2 0 010-.21L4.1 1.893A2 2 0 016.096 0z" fill="url(#j)" fill-rule="nonzero" transform="translate(427.788 56.644)"/><path d="M446.687 146.855h-18.9m0-20.98h18.9M444.587 174.128h-14.7m0-12.587h14.7M445.637 111.19h-16.8m1.05-12.587h14.7M428.838 111.19h16.8l1.05 14.686h-18.9zM443.537 197.206h-12.6m0-10.49h12.6M443.537 86.015h-12.6m0-10.49h12.6M443.537 205.597h-12.6m0-8.391h12.6M443.537 75.526h-12.6m1.05-8.392h10.5M442.487 211.891h-10.5m-1.05-6.294h12.6M431.988 211.891h10.5M442.487 60.84h-10.5" fill-opacity=".04" fill="#000"/></g><path stroke="#636262" stroke-width=".5" fill="url(#k)" fill-rule="nonzero" d="M340.488 72.211h6.3v33.567h-6.3zM365.687 72.211h6.3v33.567h-6.3z" transform="translate(81 47.371)"/></g></g></g></g></svg>