<svg width="770" height="478" xmlns="http://www.w3.org/2000/svg" xmlns:xlink="http://www.w3.org/1999/xlink"><defs><linearGradient x1="50.034%" y1="99.984%" x2="50.034%" y2="-.004%" id="a"><stop stop-color="#8B878D" offset="0%"/><stop stop-color="#9F9CA1" offset="13.66%"/><stop stop-color="#D9D8DA" offset="42.07%"/><stop stop-color="#F3F4F4" offset="51.52%"/><stop stop-color="#807B80" offset="100%"/></linearGradient><linearGradient x1="50.034%" y1="100%" x2="50.034%" y2="0%" id="c"><stop stop-color="#363D43" offset="0%"/><stop stop-color="#798085" offset="38.975%"/><stop stop-color="#82888D" offset="63.704%"/><stop stop-color="#363D43" offset="100%"/></linearGradient><linearGradient x1=".453%" y1="50.403%" x2="99.615%" y2="50.403%" id="g"><stop stop-color="#AFACB1" offset="0%"/><stop stop-color="#BAB9BC" offset="28.499%"/><stop stop-color="#D9D8DA" offset="42.07%"/><stop stop-color="#F3F4F4" offset="58.437%"/><stop stop-color="#958F95" offset="100%"/></linearGradient><linearGradient x1="50.034%" y1="99.725%" x2="50.034%" y2="-.004%" id="j"><stop stop-color="#656266" offset="0%"/><stop stop-color="#9F9CA1" offset="13.66%"/><stop stop-color="#D9D8DA" offset="42.07%"/><stop stop-color="#F3F4F4" offset="51.52%"/><stop stop-color="#807B80" offset="100%"/></linearGradient><linearGradient x1="50.034%" y1="99.725%" x2="50.034%" y2="-.004%" id="l"><stop stop-color="#656266" offset="0%"/><stop stop-color="#9F9CA1" offset="13.66%"/><stop stop-color="#D9D8DA" offset="42.07%"/><stop stop-color="#F3F4F4" offset="51.52%"/><stop stop-color="#807B80" offset="100%"/></linearGradient><linearGradient x1="50.034%" y1="99.725%" x2="50.034%" y2="-.004%" id="o"><stop stop-color="#656266" offset="0%"/><stop stop-color="#9F9CA1" offset="13.66%"/><stop stop-color="#D9D8DA" offset="42.07%"/><stop stop-color="#F3F4F4" offset="51.52%"/><stop stop-color="#807B80" offset="100%"/></linearGradient><linearGradient x1="50.034%" y1="99.725%" x2="50.034%" y2="-.004%" id="y"><stop stop-color="#656266" offset="0%"/><stop stop-color="#9F9CA1" offset="13.66%"/><stop stop-color="#D9D8DA" offset="42.07%"/><stop stop-color="#F3F4F4" offset="51.52%"/><stop stop-color="#807B80" offset="100%"/></linearGradient><linearGradient x1="50.034%" y1="99.725%" x2="50.034%" y2="-.004%" id="z"><stop stop-color="#656266" offset="0%"/><stop stop-color="#9F9CA1" offset="13.66%"/><stop stop-color="#D9D8DA" offset="42.07%"/><stop stop-color="#F3F4F4" offset="51.52%"/><stop stop-color="#807B80" offset="100%"/></linearGradient><linearGradient x1="50.034%" y1="99.725%" x2="50.034%" y2="-.004%" id="A"><stop stop-color="#656266" offset="0%"/><stop stop-color="#9F9CA1" offset="13.66%"/><stop stop-color="#D9D8DA" offset="42.07%"/><stop stop-color="#F3F4F4" offset="51.52%"/><stop stop-color="#807B80" offset="100%"/></linearGradient><linearGradient x1="50.034%" y1="99.725%" x2="50.034%" y2="-.004%" id="B"><stop stop-color="#656266" offset="0%"/><stop stop-color="#9F9CA1" offset="13.66%"/><stop stop-color="#D9D8DA" offset="42.07%"/><stop stop-color="#F3F4F4" offset="51.52%"/><stop stop-color="#807B80" offset="100%"/></linearGradient><linearGradient x1="50.034%" y1="99.725%" x2="50.034%" y2="-.004%" id="C"><stop stop-color="#656266" offset="0%"/><stop stop-color="#9F9CA1" offset="13.66%"/><stop stop-color="#D9D8DA" offset="42.07%"/><stop stop-color="#F3F4F4" offset="51.52%"/><stop stop-color="#807B80" offset="100%"/></linearGradient><linearGradient x1="50.034%" y1="99.984%" x2="50.034%" y2="-.004%" id="D"><stop stop-color="#212F42" offset="0%"/><stop stop-color="#004C97" offset="51.52%"/><stop stop-color="#213042" offset="100%"/><stop stop-color="#213042" offset="100%"/></linearGradient><linearGradient x1="50.034%" y1="99.725%" x2="50.034%" y2="-.004%" id="G"><stop stop-color="#656266" offset="0%"/><stop stop-color="#9F9CA1" offset="13.66%"/><stop stop-color="#D9D8DA" offset="42.07%"/><stop stop-color="#F3F4F4" offset="51.52%"/><stop stop-color="#807B80" offset="100%"/></linearGradient><linearGradient x1="50.034%" y1="99.43%" x2="50.034%" y2="-.004%" id="I"><stop stop-color="#514E52" offset="0%"/><stop stop-color="#F3F4F4" offset="50.723%"/><stop stop-color="#514E52" offset="100%"/></linearGradient><linearGradient x1="50.034%" y1="99.984%" x2="50.034%" y2="-.004%" id="K"><stop stop-color="#8B878D" offset="0%"/><stop stop-color="#F3F4F4" offset="50.57%"/><stop stop-color="#807B80" offset="100%"/></linearGradient><linearGradient x1=".034%" y1="50%" x2="100.034%" y2="50%" id="L"><stop stop-color="#363D43" offset="0%"/><stop stop-color="#798085" offset="49.388%"/><stop stop-color="#363D43" offset="100%"/></linearGradient><linearGradient x1=".453%" y1="50.403%" x2="99.615%" y2="50.403%" id="Q"><stop stop-color="#AFACB1" offset="0%"/><stop stop-color="#BAB9BC" offset="28.499%"/><stop stop-color="#D9D8DA" offset="42.07%"/><stop stop-color="#F3F4F4" offset="58.437%"/><stop stop-color="#958F95" offset="100%"/></linearGradient><path id="b" d="M4 0h5.5v37.5l4 3.5h62l4-3.5V0H85v37.5l4 3.5v98.5H77.5v-11h-23v10h-40v-10l-5 3.5v37.5H4V132l-4-3.5V41l4-3.5z"/><path id="d" d="M4 0h5.5v37.5l4 3.5h62l4-3.5V0H85v37.5l4 3.5v98.5H77.5v-11h-23v10h-40v-10l-5 3.5v37.5H4V132l-4-3.5V41l4-3.5z"/><path d="M510 121.5h7.5v38.157l3.376 2.963h61.248l3.376-2.963V121.5h7.5v38.157l4 3.51v100.246h-13.5V252.38h-21v10.03h-42v-9.106l-3 2.106v38.09H510v-38.157l-4-3.51v-88.666l4-3.51V121.5zm75.841 37.857l-.341.755v-.455l.341-.3zm-3.341 3.263l-.659.248.283-.248h.376zM512 123.506v37.061l-4 3.51v86.845l4 3.51v37.062h3.5v-37.128l7-4.915v10.953h38v-10.03h25v11.033h9.5v-97.33l-4-3.51v-37.061h-3.5v37.061l-4.624 4.058h-62.752l-4.624-4.058v-37.061H512z" id="f"/><path id="h" d="M0 0h24v7H0z"/><path id="i" d="M0 0h24v8H0z"/><path id="m" d="M0 0h24v7H0z"/><path id="n" d="M0 0h24v8H0z"/><path d="M155 121.5h7.5v38.157l3.376 2.963h61.248l3.376-2.963V121.5h7.5v38.157l4 3.51v100.246h-13.5V252.38h-21v10.03h-42v-9.106l-3 2.106v38.09H155v-38.157l-4-3.51v-88.666l4-3.51V121.5zm2 2.006v37.061l-4 3.51v86.845l4 3.51v37.062h3.5v-37.128l7-4.915v10.953h38v-10.03h25v11.033h9.5v-97.33l-4-3.51v-37.061h-3.5v37.061l-4.624 4.058h-62.752l-4.624-4.058v-37.061H157z" id="F"/><path d="M3.289 29.406l158-28.555A4 4 0 01166 4.788v109.424a4 4 0 01-4.711 3.937l-158-28.555A4 4 0 010 85.658V33.342a4 4 0 013.289-3.936z" id="H"/><path d="M52-27c11.598 0 21 9.402 21 21v58c0 11.598-9.402 21-21 21s-21-9.402-21-21V-6c0-11.598 9.402-21 21-21z" id="M"/><path d="M52-28c-12.15 0-22 9.85-22 22v58c0 12.15 9.85 22 22 22s22-9.85 22-22V-6c0-12.15-9.85-22-22-22zm0 2c11.046 0 20 8.954 20 20v58c0 11.046-8.954 20-20 20s-20-8.954-20-20V-6c0-11.046 8.954-20 20-20z" id="P"/><path id="R" d="M0 0h24v7H0z"/><path id="S" d="M0 0h24v8H0z"/><path id="U" d="M0 0h24v7H0z"/><path id="V" d="M0 0h24v8H0z"/><filter x="-11.5%" y="-4.9%" width="120.9%" height="111%" filterUnits="objectBoundingBox" id="e"><feOffset dx="-1" dy="1" in="SourceAlpha" result="shadowOffsetOuter1"/><feGaussianBlur stdDeviation="3" in="shadowOffsetOuter1" result="shadowBlurOuter1"/><feColorMatrix values="0 0 0 0 0 0 0 0 0 0 0 0 0 0 0 0 0 0 0.230550699 0" in="shadowBlurOuter1"/></filter><filter x="-11.5%" y="-4.9%" width="120.9%" height="111%" filterUnits="objectBoundingBox" id="E"><feOffset dx="-1" dy="1" in="SourceAlpha" result="shadowOffsetOuter1"/><feGaussianBlur stdDeviation="3" in="shadowOffsetOuter1" result="shadowBlurOuter1"/><feColorMatrix values="0 0 0 0 0 0 0 0 0 0 0 0 0 0 0 0 0 0 0.230550699 0" in="shadowBlurOuter1"/></filter><filter x="-11.9%" y="-5%" width="123.8%" height="110%" filterUnits="objectBoundingBox" id="N"><feGaussianBlur stdDeviation="4.5" in="SourceAlpha" result="shadowBlurInner1"/><feOffset dy="1" in="shadowBlurInner1" result="shadowOffsetInner1"/><feComposite in="shadowOffsetInner1" in2="SourceAlpha" operator="arithmetic" k2="-1" k3="1" result="shadowInnerInner1"/><feColorMatrix values="0 0 0 0 0 0 0 0 0 0 0 0 0 0 0 0 0 0 0.301737325 0" in="shadowInnerInner1"/></filter><filter x="-23.9%" y="-8.3%" width="143.2%" height="118.6%" filterUnits="objectBoundingBox" id="O"><feOffset dx="-1" dy="1" in="SourceAlpha" result="shadowOffsetOuter1"/><feGaussianBlur stdDeviation="3" in="shadowOffsetOuter1" result="shadowBlurOuter1"/><feColorMatrix values="0 0 0 0 0 0 0 0 0 0 0 0 0 0 0 0 0 0 0.230550699 0" in="shadowBlurOuter1"/></filter><circle id="q" cx="12.5" cy="12.5" r="12.5"/><circle id="s" cx="12.5" cy="12.5" r="12.5"/><circle id="u" cx="12.5" cy="12.5" r="12.5"/><circle id="w" cx="12.5" cy="12.5" r="12.5"/></defs><g transform="translate(1.5 .5)" fill="none" fill-rule="evenodd"><path d="M708.5 122.5V290.53h-669V122.5h669z" stroke="#364B65" fill="#526C91" opacity=".4"/><path stroke="#636262" stroke-width=".5" fill="url(#a)" fill-rule="nonzero" d="M59 203.5h630v8H59z"/><path stroke="#607C99" stroke-linecap="square" d="M88 163.5v30l3.69 8 3.69-8 3.69 8 4.099-8 3.69 8 3.69-8 4.099 8 3.28-8v-30H122M275 163.5v12.09l3.699 7.91 3.698-7.91 3.699 7.91 4.11-7.91 3.698 7.91 3.699-7.91 4.11 7.91 3.287-7.91V163.5M275 289.5v-49.09l3.699-7.91 3.698 7.91 3.699-7.91 4.11 7.91 3.698-7.91 3.699 7.91 4.11-7.91 3.287 7.91v10.09M88 250.89v-30.308l3.699-8.082 3.698 8.082 3.699-8.082 4.11 8.082 3.698-8.082 3.699 8.082 4.11-8.082 3.287 8.082V290.5"/><use fill="url(#c)" fill-rule="nonzero" xlink:href="#b" transform="translate(507 122.5)"/><use fill="url(#c)" fill-rule="nonzero" xlink:href="#d" transform="matrix(-1 0 0 1 241 122.5)"/><path stroke="#FFCC01" stroke-width="1.5" stroke-linecap="square" d="M514 292.5v23H235v-23"/><path stroke="#50B4E4" stroke-width="1.5" stroke-linecap="square" d="M716.5 319V105h-596v58"/><path stroke="#FFCC01" stroke-width="1.5" stroke-linecap="square" d="M356 354.5h40v79h-40"/><path stroke="#50B4E4" stroke-width="1.5" stroke-linecap="square" d="M626 425.5v17h-49v-17M601 442.5v12h-62M626 425.5v-55h-49v55M729.5 357v14H680m-24.5 0l-29.5-.5"/><path stroke="#607C99" stroke-linecap="square" d="M122 164.298v29.16l3.637 8.042 3.637-8.042 3.637 8.042 4.041-8.042 3.637 8.042 3.637-8.042 4.041 8.042 3.233-8.042v-30.16l4-3.482V122.5h5.5v37.316l4 3.482h31M122 290.5v-69.918l3.637-8.082 3.637 8.082 3.637-8.082 4.041 8.082 3.637-8.082 3.637 8.082 4.041-8.082 3.233 8.082V262H163v-11.11l23 .11v10M270 163.298v30.16l-3.637 8.042-3.637-8.042-3.637 8.042-4.041-8.042-3.637 8.042-3.637-8.042-4.041 8.042-3.233-8.042v-30.16l-4-3.482V122.5H231v37.316l-4 3.482h-31M275 289.81l-5-.108v-69.16l-3.637-8.042-3.637 8.042-3.637-8.042-4.041 8.042-3.637-8.042-3.637 8.042-4.041-8.042-3.233 8.042v30.16l-4 3.482V291.5H231v-37.316l-5-3.373v9.841h-40M660 163.5v30l-3.69 8-3.69-8-3.69 8-4.099-8-3.69 8-3.69-8-4.099 8-3.28-8v-30H626M660 250.89v-30.308l-3.699-8.082-3.698 8.082-3.699-8.082-4.11 8.082-3.698-8.082-3.699 8.082-4.11-8.082-3.287 8.082V290.5M626 164.298v29.16l-3.637 8.042-3.637-8.042-3.637 8.042-4.041-8.042-3.637 8.042-3.637-8.042-4.041 8.042-3.233-8.042v-30.16l-4-3.482V122.5H587v37.316l-4 3.482h-31M626 290.5v-69.918l-3.637-8.082-3.637 8.082-3.637-8.082-4.041 8.082-3.637-8.082-3.637 8.082-4.041-8.082-3.233 8.082V262H585v-11.11l-23 .11v10M478 163.298v30.16l3.637 8.042 3.637-8.042 3.637 8.042 4.041-8.042 3.637 8.042 3.637-8.042 4.041 8.042 3.233-8.042v-30.16l4-3.482V122.5h5.5v37.316l4 3.482h31M474 263.5v26h4v-68.958l3.637-8.042 3.637 8.042 3.637-8.042 4.041 8.042 3.637-8.042 3.637 8.042 4.041-8.042 3.233 8.042v30.16l4 3.482V291.5h5.5v-37.316l5-3.373v9.841h40"/><g fill-rule="nonzero"><use fill="#000" filter="url(#e)" xlink:href="#f"/><use fill="url(#g)" xlink:href="#f"/></g><g transform="matrix(1 0 0 -1 655.49 364.01)"><mask id="k" fill="#fff"><use xlink:href="#i"/></mask><path d="M23.426-6.75c.212.882.324 1.803.324 2.75 0 3.245-1.315 6.182-3.441 8.308A11.713 11.713 0 0112 7.75a11.713 11.713 0 01-8.309-3.442A11.713 11.713 0 01.25-4c0-.947.112-1.868.324-2.75h0z" stroke="#2C405A" stroke-width=".5" fill="url(#j)" fill-rule="nonzero" mask="url(#k)"/></g><path fill="#A1A9B4" d="M667 345h-19v15.25l19 9.25v-21h1v23l-21-10.75V344h21v4.5h-1z"/><path d="M27.95 3.073l6.639 6.64-11.222 4.582 4.582-11.222z" stroke="#2C405A" stroke-width=".5" fill="url(#l)" fill-rule="nonzero" transform="scale(1 -1) rotate(45 810.568 599.938)"/><path d="M10.95 3.073l6.639 6.64-11.222 4.582 4.582-11.222z" stroke="#2C405A" stroke-width=".5" fill="url(#l)" fill-rule="nonzero" transform="rotate(-135 410.468 55.752)"/><path fill="#9AA9B7" fill-rule="nonzero" d="M666.99 370.51v-7h1v7z"/><path d="M234.5 122.5l.188-42.843m.108-24.633L235 8.5" stroke="#FCFCFC" stroke-width="1.5" stroke-linecap="square"/><path stroke="#FFCC01" stroke-width="1.5" stroke-linecap="square" d="M158.5 122.5l.5-114M589.25 121.5l.5-113"/><path stroke="#50B4E4" stroke-width="1.5" stroke-linecap="square" d="M628.25 162.5l.5-57"/><path d="M37 327.5H13v36m0 11v3h24M37 395.5H13V432m0 13v3.5h24" stroke="#FFCC01" stroke-width="1.5" stroke-linecap="square"/><path d="M27 327.5h24V363m0 11v3.5H27M27 395.5h24v36m0 13.5v3.5H27" stroke="#FFCC01" stroke-width="1.5" stroke-linecap="square"/><path d="M356.381 315.5v68m0 23.5v64.5H31v-23" stroke="#FFCC01" stroke-width="1.5" stroke-linecap="square"/><path fill="#FFCB00" d="M164.142 7.793H154l5.071-7.071z"/><path fill="#FCFCFC" d="M240.142 7.793H230l5.071-7.071zM518.364 7.793h-10.142l5.07-7.071z"/><path fill="#FFCB00" d="M595.142 7.793H585l5.071-7.071z"/><path fill="#FFDA00" d="M36.364 304.429H26.222l5.07 7.071z"/><path fill="#FFCB00" d="M361.142 455.793H351l5.071-7.071zM189.293 475.864v-10.142l7.071 5.07zM361.142 338.793H351l5.071-7.071z"/><path fill="#50B4E4" d="M721.364 302.793h-10.142l5.07-7.071zM536.071 459.642V449.5l7.071 5.071z"/><g transform="matrix(0 -1 -1 0 349.01 406.51)"><mask id="p" fill="#fff"><use xlink:href="#n"/></mask><path d="M23.426-6.75c.212.882.324 1.803.324 2.75 0 3.245-1.315 6.182-3.441 8.308A11.713 11.713 0 0112 7.75a11.713 11.713 0 01-8.309-3.442A11.713 11.713 0 01.25-4c0-.947.112-1.868.324-2.75h0z" stroke="#2C405A" stroke-width=".5" fill="url(#o)" fill-rule="nonzero" mask="url(#p)"/></g><path d="M24.529 3.073l6.64 6.64-11.223 4.582 4.583-11.222z" stroke="#2C405A" stroke-width=".5" fill="url(#l)" fill-rule="nonzero" transform="scale(-1 1) rotate(-45 290.866 657.912)"/><path d="M8.039 3.073l6.64 6.64-11.223 4.582L8.04 3.073z" stroke="#2C405A" stroke-width=".5" fill="url(#l)" fill-rule="nonzero" transform="rotate(135 100.784 277.629)"/><path fill="#A1A9B4" d="M356 395.01h-7v-1h7z"/><g transform="translate(0 334.5)"><g transform="translate(.525 .525)"><mask id="r" fill="#fff"><use xlink:href="#q"/></mask><use fill="#FFF" xlink:href="#q"/><g mask="url(#r)" fill="#FFCB00"><path d="M35.71-31.65l.743.742-87.61 87.611-.743-.742L35.71-31.65zm6.138 0l.742.742-87.61 87.611-.743-.742 87.61-87.611zm6.3 0l.742.742-87.61 87.611-.743-.742 87.61-87.611zm6.3 0l.742.742-87.61 87.611-.743-.742 87.61-87.611zm6.3 0l.742.742-87.61 87.611-.743-.742 87.61-87.611zm6.3 0l.742.742-87.61 87.611-.743-.742 87.61-87.611zm6.3 0l.742.742-87.61 87.611-.743-.742 87.61-87.611zm6.3 0l.742.742-87.61 87.611-.743-.742 87.61-87.611zm6.3 0l.742.742L-.92 56.703l-.743-.742 87.61-87.611z"/><path d="M-.92-31.65l-.743.742 87.61 87.611.743-.742L-.92-31.65zm-6.138 0l-.742.742 87.61 87.611.743-.742-87.61-87.611zm-6.3 0l-.742.742 87.61 87.611.743-.742-87.61-87.611zm-6.3 0l-.742.742 87.61 87.611.743-.742-87.61-87.611zm-6.3 0l-.742.742 87.61 87.611.743-.742-87.61-87.611zm-6.3 0l-.742.742 87.61 87.611.743-.742-87.61-87.611zm-6.3 0l-.742.742 87.61 87.611.743-.742-87.61-87.611zm-6.3 0l-.742.742 87.61 87.611.743-.742-87.61-87.611zm-6.3 0l-.742.742 87.61 87.611.743-.742-87.61-87.611z"/></g></g><circle stroke="#FFCB00" stroke-width="1.5" cx="13" cy="13" r="13"/></g><g transform="translate(0 402.5)"><g transform="translate(.525 .525)"><mask id="t" fill="#fff"><use xlink:href="#s"/></mask><use fill="#FFF" xlink:href="#s"/><g mask="url(#t)" fill="#FFCB00"><path d="M35.71-31.65l.743.742-87.61 87.611-.743-.742L35.71-31.65zm6.138 0l.742.742-87.61 87.611-.743-.742 87.61-87.611zm6.3 0l.742.742-87.61 87.611-.743-.742 87.61-87.611zm6.3 0l.742.742-87.61 87.611-.743-.742 87.61-87.611zm6.3 0l.742.742-87.61 87.611-.743-.742 87.61-87.611zm6.3 0l.742.742-87.61 87.611-.743-.742 87.61-87.611zm6.3 0l.742.742-87.61 87.611-.743-.742 87.61-87.611zm6.3 0l.742.742-87.61 87.611-.743-.742 87.61-87.611zm6.3 0l.742.742L-.92 56.703l-.743-.742 87.61-87.611z"/><path d="M-.92-31.65l-.743.742 87.61 87.611.743-.742L-.92-31.65zm-6.138 0l-.742.742 87.61 87.611.743-.742-87.61-87.611zm-6.3 0l-.742.742 87.61 87.611.743-.742-87.61-87.611zm-6.3 0l-.742.742 87.61 87.611.743-.742-87.61-87.611zm-6.3 0l-.742.742 87.61 87.611.743-.742-87.61-87.611zm-6.3 0l-.742.742 87.61 87.611.743-.742-87.61-87.611zm-6.3 0l-.742.742 87.61 87.611.743-.742-87.61-87.611zm-6.3 0l-.742.742 87.61 87.611.743-.742-87.61-87.611zm-6.3 0l-.742.742 87.61 87.611.743-.742-87.61-87.611z"/></g></g><circle stroke="#FFCB00" stroke-width="1.5" cx="13" cy="13" r="13"/></g><g transform="translate(38 334.5)"><g transform="translate(.525 .525)"><mask id="v" fill="#fff"><use xlink:href="#u"/></mask><use fill="#FFF" xlink:href="#u"/><g mask="url(#v)" fill="#FFCB00"><path d="M35.71-31.65l.743.742-87.61 87.611-.743-.742L35.71-31.65zm6.138 0l.742.742-87.61 87.611-.743-.742 87.61-87.611zm6.3 0l.742.742-87.61 87.611-.743-.742 87.61-87.611zm6.3 0l.742.742-87.61 87.611-.743-.742 87.61-87.611zm6.3 0l.742.742-87.61 87.611-.743-.742 87.61-87.611zm6.3 0l.742.742-87.61 87.611-.743-.742 87.61-87.611zm6.3 0l.742.742-87.61 87.611-.743-.742 87.61-87.611zm6.3 0l.742.742-87.61 87.611-.743-.742 87.61-87.611zm6.3 0l.742.742L-.92 56.703l-.743-.742 87.61-87.611z"/><path d="M-.92-31.65l-.743.742 87.61 87.611.743-.742L-.92-31.65zm-6.138 0l-.742.742 87.61 87.611.743-.742-87.61-87.611zm-6.3 0l-.742.742 87.61 87.611.743-.742-87.61-87.611zm-6.3 0l-.742.742 87.61 87.611.743-.742-87.61-87.611zm-6.3 0l-.742.742 87.61 87.611.743-.742-87.61-87.611zm-6.3 0l-.742.742 87.61 87.611.743-.742-87.61-87.611zm-6.3 0l-.742.742 87.61 87.611.743-.742-87.61-87.611zm-6.3 0l-.742.742 87.61 87.611.743-.742-87.61-87.611zm-6.3 0l-.742.742 87.61 87.611.743-.742-87.61-87.611z"/></g></g><circle stroke="#FFCA00" stroke-width="1.5" cx="13" cy="13" r="13"/></g><g transform="translate(38 402.5)"><g transform="translate(.525 .525)"><mask id="x" fill="#fff"><use xlink:href="#w"/></mask><use fill="#FFF" xlink:href="#w"/><g mask="url(#x)" fill="#FFCB00"><path d="M35.71-31.65l.743.742-87.61 87.611-.743-.742L35.71-31.65zm6.138 0l.742.742-87.61 87.611-.743-.742 87.61-87.611zm6.3 0l.742.742-87.61 87.611-.743-.742 87.61-87.611zm6.3 0l.742.742-87.61 87.611-.743-.742 87.61-87.611zm6.3 0l.742.742-87.61 87.611-.743-.742 87.61-87.611zm6.3 0l.742.742-87.61 87.611-.743-.742 87.61-87.611zm6.3 0l.742.742-87.61 87.611-.743-.742 87.61-87.611zm6.3 0l.742.742-87.61 87.611-.743-.742 87.61-87.611zm6.3 0l.742.742L-.92 56.703l-.743-.742 87.61-87.611z"/><path d="M-.92-31.65l-.743.742 87.61 87.611.743-.742L-.92-31.65zm-6.138 0l-.742.742 87.61 87.611.743-.742-87.61-87.611zm-6.3 0l-.742.742 87.61 87.611.743-.742-87.61-87.611zm-6.3 0l-.742.742 87.61 87.611.743-.742-87.61-87.611zm-6.3 0l-.742.742 87.61 87.611.743-.742-87.61-87.611zm-6.3 0l-.742.742 87.61 87.611.743-.742-87.61-87.611zm-6.3 0l-.742.742 87.61 87.611.743-.742-87.61-87.611zm-6.3 0l-.742.742 87.61 87.611.743-.742-87.61-87.611zm-6.3 0l-.742.742 87.61 87.611.743-.742-87.61-87.611z"/></g></g><circle stroke="#FFCA00" stroke-width="1.5" cx="13" cy="13" r="13"/></g><path d="M309.75 184.75v46.5h-34.146l14.646-14.646v-18.715l-14.599-13.139h34.099z" stroke="#2C405A" stroke-width=".5" fill="url(#y)" fill-rule="nonzero"/><path d="M190.75 176.75v21.5h-13.5v-21.5h13.5z" stroke="#2C405A" stroke-width=".5" fill="url(#z)" fill-rule="nonzero"/><path d="M531.75 176.75v21.5h-13.5v-21.5h13.5z" stroke="#2C405A" stroke-width=".5" fill="url(#z)" fill-rule="nonzero" transform="matrix(-1 0 0 1 1050 0)"/><path d="M190.75 216.75v21.5h-13.5v-21.5h13.5z" stroke="#2C405A" stroke-width=".5" fill="url(#z)" fill-rule="nonzero" transform="matrix(1 0 0 -1 0 455)"/><path d="M232.75 176.75v21.5h-13.5v-21.5h13.5z" stroke="#2C405A" stroke-width=".5" fill="url(#z)" fill-rule="nonzero"/><path d="M573.75 176.75v21.5h-13.5v-21.5h13.5z" stroke="#2C405A" stroke-width=".5" fill="url(#z)" fill-rule="nonzero" transform="matrix(-1 0 0 1 1134 0)"/><path d="M232.75 216.75v21.5h-13.5v-21.5h13.5z" stroke="#2C405A" stroke-width=".5" fill="url(#z)" fill-rule="nonzero" transform="matrix(1 0 0 -1 0 455)"/><path d="M168.574 173.75v3h6.176v24.5h-6.912v-3.5h-6.588v-24h7.324z" stroke="#2C405A" stroke-width=".5" fill="url(#A)" fill-rule="nonzero"/><path d="M536.574 173.75v3h6.176v24.5h-6.912v-3.5h-6.588v-24h7.324z" stroke="#2C405A" stroke-width=".5" fill="url(#A)" fill-rule="nonzero" transform="matrix(-1 0 0 1 1072 0)"/><path d="M168.574 213.75v3h6.176v24.5h-6.912v-3.5h-6.588v-24h7.324z" stroke="#2C405A" stroke-width=".5" fill="url(#A)" fill-rule="nonzero" transform="matrix(1 0 0 -1 0 455)"/><path d="M210.574 173.75v3h6.176v24.5h-6.912v-3.5h-6.588v-24h7.324z" stroke="#2C405A" stroke-width=".5" fill="url(#A)" fill-rule="nonzero"/><path d="M579.574 173.75v3h6.176v24.5h-6.912v-3.5h-6.588v-24h7.324z" stroke="#2C405A" stroke-width=".5" fill="url(#A)" fill-rule="nonzero" transform="matrix(-1 0 0 1 1158 0)"/><path d="M210.574 213.75v3h6.176v24.5h-6.912v-3.5h-6.588v-24h7.324z" stroke="#2C405A" stroke-width=".5" fill="url(#A)" fill-rule="nonzero" transform="matrix(1 0 0 -1 0 455)"/><path d="M428 324.5h339v147H428v-147z" stroke="#FFF" opacity=".2" stroke-dasharray="2"/><path fill="#193D59" d="M572 377.5h8v9h-8z"/><path fill="#A1A9B4" d="M571 377.5h10v1.5h-10zM571 385h10v1.5h-10z"/><path d="M571.696 379.897l.607-.795 8.365 6.383.157.135-.629.777-8.5-6.5zm.804-.897l8.5 6.5-.5.5-.325.38-.136-.118-8.342-6.364.803-.898z" fill="#A1A9B4" fill-rule="nonzero"/><path fill="#A1A9B4" d="M571 378.5h3l-3 3z"/><path fill="#193D59" d="M621 377.5h8v9h-8z"/><path fill="#A1A9B4" d="M620 377.5h10v1.5h-10zM620 385h10v1.5h-10z"/><path d="M620.696 379.897l.607-.795 8.365 6.383.157.135-.629.777-8.5-6.5zm.804-.897l8.5 6.5-.5.5-.325.38-.136-.118-8.342-6.364.803-.898z" fill="#A1A9B4" fill-rule="nonzero"/><path fill="#A1A9B4" d="M620 378.5h3l-3 3z"/><g fill-rule="nonzero"><path d="M36.75 12.604v35.792l-6.5-6.5V19.104l6.5-6.5z" stroke="#2C405A" stroke-width=".5" fill="url(#B)" transform="matrix(0 -1 -1 0 759 393.5)"/><path d="M60 .25c1.036 0 1.973.42 2.652 1.098A3.738 3.738 0 0163.75 4h0v21c0 1.036-.42 1.973-1.098 2.652A3.738 3.738 0 0160 28.75h0H4a3.738 3.738 0 01-2.652-1.098A3.738 3.738 0 01.25 25h0V4c0-1.036.42-1.973 1.098-2.652A3.738 3.738 0 014 .25h0z" stroke="#2C405A" stroke-width=".5" fill="url(#C)" transform="rotate(-180 379.5 179.25)"/><path fill="url(#D)" transform="rotate(90 214.75 526.75)" d="M23.5-17.5h17v64h-17z"/></g><path stroke="#2C405A" stroke-linecap="square" d="M155 184.5l1.174 2 1.174-2 1.174 2 1.304-2 1.174 2M155 227.5l1.174 2 1.174-2 1.174 2 1.304-2 1.174 2M197 184.5l1.174 2 1.174-2 1.174 2 1.304-2 1.174 2M543 186.5l1.174 2 1.174-2 1.174 2 1.304-2 1.174 2M586 186.5l1.174 2 1.174-2 1.174 2 1.304-2 1.174 2M197 227.5l1.174 2 1.174-2 1.174 2 1.304-2 1.174 2"/><path d="M531.75 216.75v21.5h-13.5v-21.5h13.5z" stroke="#2C405A" stroke-width=".5" fill="url(#z)" fill-rule="nonzero" transform="matrix(-1 0 0 1 1050 0)"/><path d="M536.574 213.75v3h6.176v24.5h-6.912v-3.5h-6.588v-24h7.324z" stroke="#2C405A" stroke-width=".5" fill="url(#A)" fill-rule="nonzero" transform="rotate(180 536 227.5)"/><path d="M573.75 216.75v21.5h-13.5v-21.5h13.5z" stroke="#2C405A" stroke-width=".5" fill="url(#z)" fill-rule="nonzero" transform="matrix(-1 0 0 1 1134 0)"/><path d="M578.574 213.75v3h6.176v24.5h-6.912v-3.5h-6.588v-24h7.324z" stroke="#2C405A" stroke-width=".5" fill="url(#A)" fill-rule="nonzero" transform="rotate(180 578 227.5)"/><path stroke="#2C405A" stroke-linecap="square" d="M585 227.5l1.174 2 1.174-2 1.174 2 1.304-2 1.174 2M543 227.5l1.174 2 1.174-2 1.174 2 1.304-2 1.174 2"/><g fill-rule="nonzero" transform="matrix(-1 0 0 1 393 0)"><use fill="#000" filter="url(#E)" xlink:href="#F"/><use fill="url(#g)" xlink:href="#F"/></g><path stroke="#4F556D" stroke-linecap="square" d="M151.5 194.5v32M240.5 194.5v32M507.5 194.5v32M596.5 194.5v32"/><path d="M513.5 121V79.5m0-24.5V8.5" stroke="#FCFCFC" stroke-width="1.5" stroke-linecap="square"/><g transform="translate(220 22.5)"><rect stroke="#2C405A" stroke-width=".5" fill="url(#G)" fill-rule="nonzero" x=".25" y=".25" width="29.5" height="22.5" rx="4"/><path stroke="#162842" fill="#A8AEC0" d="M25.5 4.5h-9v14h9z"/><path stroke="#162842" fill="#FFF" d="M16.5 4.5h-12v14h12z"/><g fill-rule="nonzero"><path fill="#50556B" d="M9.5 11v1h-3v-1z"/><path fill="#F04450" d="M16 11v1h-4v-1z"/><path fill="#50556B" d="M10.5 9v1h-4V9z"/><path fill="#F04450" d="M11.5 7v1h-5V7z"/><path fill="#50556B" d="M10.5 13v1h-4v-1zM11.5 15v1h-5v-1z"/></g></g><g transform="translate(499 22.5)"><rect stroke="#2C405A" stroke-width=".5" fill="url(#G)" fill-rule="nonzero" x=".25" y=".25" width="29.5" height="22.5" rx="4"/><path stroke="#162842" fill="#A8AEC0" d="M4.5 4.5h9v14h-9z"/><path stroke="#162842" fill="#FFF" d="M13.5 4.5h12v14h-12z"/><g fill-rule="nonzero"><path fill="#50556B" d="M20.5 11v1h3v-1z"/><path fill="#F04450" d="M14 11v1h4v-1z"/><path fill="#50556B" d="M19.5 9v1h4V9z"/><path fill="#F04450" d="M18.5 7v1h5V7z"/><path fill="#50556B" d="M19.5 13v1h4v-1zM18.5 15v1h5v-1z"/></g></g><path stroke="#50B4E4" stroke-width="1.5" stroke-linecap="square" d="M601.5 370v-51"/><path d="M343.377 171.278l.25-31.278m-.03-20.939l.03-7.061-88.897-.5L31 112v215.5m0 50V395M433.25 171.5l-.25-32.278" stroke="#FFCC01" stroke-width="1.5" stroke-linecap="square"/><path fill="#FFCB00" d="M348.642 141.793H338.5l5.071-7.071zM438.142 134.793H428l5.071 7.071z"/><g transform="translate(308 148.5)"><mask id="J" fill="#fff"><use xlink:href="#H"/></mask><use fill="url(#I)" fill-rule="nonzero" xlink:href="#H"/><path d="M165.936 4.076a4 4 0 01.064.712v109.424a4 4 0 01-4.711 3.937l-158-28.555A4 4 0 010 85.658V33.342a4 4 0 013.289-3.936l158-28.555a4 4 0 014.647 3.225zm-.492.09a3.5 3.5 0 00-3.877-2.852l-.19.03-158 28.554a3.5 3.5 0 00-2.872 3.257l-.005.187v52.316a3.5 3.5 0 002.694 3.406l.184.038 158 28.555a3.5 3.5 0 004.117-3.253l.005-.192V4.788a3.5 3.5 0 00-.025-.416l-.03-.207z" fill="#2C405A" fill-rule="nonzero" mask="url(#J)"/></g><g transform="translate(342 185.5)" fill-rule="nonzero"><rect stroke="#636262" stroke-width=".5" fill="url(#K)" x="2" y="2" width="100" height="41" rx="20.5"/><g transform="rotate(90 52 23)"><use fill="url(#L)" xlink:href="#M"/><use fill="#000" filter="url(#N)" xlink:href="#M"/></g><g transform="rotate(90 52 23)"><use fill="#000" filter="url(#O)" xlink:href="#P"/><use fill="url(#Q)" xlink:href="#P"/></g><path d="M103.5 23c0 12.302-9.873 22.298-22.128 22.497L81 45.5H23C10.574 45.5.5 35.426.5 23 .5 10.698 10.373.702 22.628.503L23 .5h58c12.426 0 22.5 10.074 22.5 22.5zm-.5 0c0-12.029-9.654-21.803-21.636-21.997L81 1H23l-.364.003C10.774 1.195 1.193 10.777 1.003 22.64L1 23l.003.364c.192 11.862 9.774 21.443 21.637 21.633L23 45h58l.364-.003C93.346 44.803 103 35.03 103 23z" fill="#7F7F7F"/></g><path stroke="#FFCC01" stroke-width="1.5" stroke-linecap="square" d="M476 290.5v14H272v-14"/><path d="M285 316.5v23h-13v-20c-1.333-1.47-2-2.803-2-4s.667-2.363 2-3.5v-7.5" stroke="#FFF" opacity=".5"/><circle fill="#62B5E5" transform="rotate(-90 272.5 331)" cx="272.5" cy="331" r="4.5"/><path stroke="#FFF" opacity=".5" d="M688 211.5v84h-58v-5M60 211.5v84h58v-5M52 327.5h25v50H52"/><path d="M230 338.5V397h68.5" stroke="#FFF" opacity=".5" stroke-dasharray="2"/><path fill="#8C9EAC" d="M235.364 366.793h-10.142l5.07 7.071z"/><path stroke="#FFF" opacity=".5" d="M52 395.5h25v53H52"/><circle fill="#62B5E5" transform="rotate(-90 659.5 295)" cx="659.5" cy="295" r="4.5"/><path fill="#E8EBEE" fill-rule="nonzero" opacity=".9" d="M649.333 297.945v-2.035h1.837v-1.375h-1.837V292.5h-1.496v2.035H646v1.375h1.837v2.035z"/><circle fill="#62B5E5" transform="matrix(0 -1 -1 0 384.5 384.5)" cx="89.5" cy="295" r="4.5"/><circle fill="#62B5E5" transform="matrix(0 -1 -1 0 429.5 429.5)" cx="76.5" cy="353" r="4.5"/><circle fill="#62B5E5" transform="matrix(0 -1 -1 0 498.5 498.5)" cx="76.5" cy="422" r="4.5"/><path stroke="#50B4E4" stroke-width="1.5" stroke-linecap="square" d="M601.5 319H716"/><path fill="#E8EBEE" fill-rule="nonzero" opacity=".9" d="M77.333 344.945v-2.035h1.837v-1.375h-1.837V339.5h-1.496v2.035H74v1.375h1.837v2.035zM101.333 297.945v-2.035h1.837v-1.375h-1.837V292.5h-1.496v2.035H98v1.375h1.837v2.035zM77.333 413.945v-2.035h1.837v-1.375h-1.837V408.5h-1.496v2.035H74v1.375h1.837v2.035z"/><path fill="#FFF" fill-rule="nonzero" opacity=".9" d="M273.333 341.945v-2.035h1.837v-1.375h-1.837V336.5h-1.496v2.035H270v1.375h1.837v2.035z"/><g><path fill="#193D59" d="M392 389.5h8v9h-8z"/><path fill="#A1A9B4" d="M391 389.5h10v1.5h-10zM391 397h10v1.5h-10zM391 393.5h4v1.5h-4zM397 393.5h4v1.5h-4z"/></g><g><path d="M8.039 20.443l6.64 6.64-11.223 4.582L8.04 20.443z" stroke="#2C405A" stroke-width=".5" fill="url(#l)" fill-rule="nonzero" transform="scale(1 -1) rotate(-45 -.665 -297.58)"/><path d="M8.039 3.443l6.64 6.64-11.223 4.582L8.04 3.443z" stroke="#2C405A" stroke-width=".5" fill="url(#l)" fill-rule="nonzero" transform="scale(-1 1) rotate(-45 -53.19 328.515)"/><g transform="matrix(0 1 1 0 241.86 55.127)"><mask id="T" fill="#fff"><use xlink:href="#S"/></mask><path d="M23.426-6.75c.212.882.324 1.803.324 2.75 0 3.245-1.315 6.182-3.441 8.308A11.713 11.713 0 0112 7.75a11.713 11.713 0 01-8.309-3.442A11.713 11.713 0 01.25-4c0-.947.112-1.868.324-2.75h0z" stroke="#2C405A" stroke-width=".5" fill="url(#j)" fill-rule="nonzero" mask="url(#T)"/></g><path d="M246.574 59.064L254.37 53v14H250m-8.5 0h-5.13l5.523-4.295" stroke="#9AA9B7"/></g><g><path d="M8.039 20.443l6.64 6.64-11.223 4.582L8.04 20.443z" stroke="#2C405A" stroke-width=".5" fill="url(#l)" fill-rule="nonzero" transform="rotate(135 250.998 155.27)"/><path d="M8.039 3.443l6.64 6.64-11.223 4.582L8.04 3.443z" stroke="#2C405A" stroke-width=".5" fill="url(#l)" fill-rule="nonzero" transform="rotate(-45 321.002 -575.028)"/><g transform="rotate(90 225.78 280.86)"><mask id="W" fill="#fff"><use xlink:href="#V"/></mask><path d="M23.426-6.75c.212.882.324 1.803.324 2.75 0 3.245-1.315 6.182-3.441 8.308A11.713 11.713 0 0112 7.75a11.713 11.713 0 01-8.309-3.442A11.713 11.713 0 01.25-4c0-.947.112-1.868.324-2.75h0z" stroke="#2C405A" stroke-width=".5" fill="url(#j)" fill-rule="nonzero" mask="url(#W)"/></g><path d="M501.926 59.016l-7.796-6.064v14H499m8 0h5.13l-5.523-4.295" stroke="#9AA9B7"/></g></g></svg>