<svg width="113" height="137" xmlns="http://www.w3.org/2000/svg" xmlns:xlink="http://www.w3.org/1999/xlink"><defs><linearGradient x1="50.034%" y1="99.984%" x2="50.034%" y2="-.004%" id="c"><stop stop-color="#8B878D" offset="0%"/><stop stop-color="#9F9CA1" offset="13.66%"/><stop stop-color="#D9D8DA" offset="42.07%"/><stop stop-color="#F3F4F4" offset="51.52%"/><stop stop-color="#807B80" offset="100%"/></linearGradient><linearGradient x1="50.034%" y1="110.504%" x2="50.034%" y2="-7.852%" id="d"><stop stop-color="#383F48" offset="0%"/><stop stop-color="#9FA4A8" offset="46.806%"/><stop stop-color="#3D434B" offset="100%"/></linearGradient><linearGradient x1="50.034%" y1="114.901%" x2="50.034%" y2="-16.677%" id="f"><stop stop-color="#363D43" offset="0%"/><stop stop-color="#82888D" offset="52.238%"/><stop stop-color="#363D43" offset="100%"/></linearGradient><linearGradient x1=".453%" y1="50.403%" x2="99.615%" y2="50.403%" id="j"><stop stop-color="#AFACB1" offset="0%"/><stop stop-color="#BAB9BC" offset="28.499%"/><stop stop-color="#D9D8DA" offset="42.07%"/><stop stop-color="#F3F4F4" offset="58.437%"/><stop stop-color="#958F95" offset="100%"/></linearGradient><linearGradient x1="50.034%" y1="99.984%" x2="50.034%" y2="-.004%" id="k"><stop stop-color="#8B878D" offset="0%"/><stop stop-color="#9F9CA1" offset="13.66%"/><stop stop-color="#D9D8DA" offset="42.07%"/><stop stop-color="#F3F4F4" offset="51.52%"/><stop stop-color="#807B80" offset="100%"/></linearGradient><linearGradient x1="50.034%" y1="99.984%" x2="50.034%" y2="-.004%" id="l"><stop stop-color="#8B878D" offset="0%"/><stop stop-color="#9F9CA1" offset="13.66%"/><stop stop-color="#D9D8DA" offset="42.07%"/><stop stop-color="#F3F4F4" offset="51.52%"/><stop stop-color="#807B80" offset="100%"/></linearGradient><linearGradient x1="50.034%" y1="99.984%" x2="50.034%" y2="-.004%" id="n"><stop stop-color="#8B878D" offset="0%"/><stop stop-color="#9F9CA1" offset="13.66%"/><stop stop-color="#D9D8DA" offset="42.07%"/><stop stop-color="#F3F4F4" offset="51.52%"/><stop stop-color="#807B80" offset="100%"/></linearGradient><linearGradient x1="50.034%" y1="99.984%" x2="50.034%" y2="-.004%" id="q"><stop stop-color="#8B878D" offset="0%"/><stop stop-color="#9F9CA1" offset="13.66%"/><stop stop-color="#D9D8DA" offset="42.07%"/><stop stop-color="#F3F4F4" offset="51.52%"/><stop stop-color="#807B80" offset="100%"/></linearGradient><linearGradient x1="50.034%" y1="110.504%" x2="50.034%" y2="-7.852%" id="u"><stop stop-color="#383F48" offset="0%"/><stop stop-color="#9FA4A8" offset="46.806%"/><stop stop-color="#3D434B" offset="100%"/></linearGradient><linearGradient x1="50.034%" y1="114.901%" x2="50.034%" y2="-16.677%" id="w"><stop stop-color="#363D43" offset="0%"/><stop stop-color="#82888D" offset="52.238%"/><stop stop-color="#363D43" offset="100%"/></linearGradient><linearGradient x1=".453%" y1="50.403%" x2="99.615%" y2="50.403%" id="A"><stop stop-color="#AFACB1" offset="0%"/><stop stop-color="#BAB9BC" offset="28.499%"/><stop stop-color="#D9D8DA" offset="42.07%"/><stop stop-color="#F3F4F4" offset="58.437%"/><stop stop-color="#958F95" offset="100%"/></linearGradient><linearGradient x1="50.034%" y1="99.984%" x2="50.034%" y2="-.004%" id="B"><stop stop-color="#8B878D" offset="0%"/><stop stop-color="#9F9CA1" offset="13.66%"/><stop stop-color="#D9D8DA" offset="42.07%"/><stop stop-color="#F3F4F4" offset="51.52%"/><stop stop-color="#807B80" offset="100%"/></linearGradient><path id="a" d="M0 0h361v309H0z"/><path id="e" d="M.416 0H103.06v94.648H0z"/><path d="M0 0h103.06v94.648H0V0zm4.207 4.207V90.44h94.647V4.207H4.207z" id="i"/><path id="m" d="M0 0h12.62v42.066H0z"/><path id="p" d="M0 2.103l12.38-.308v25.24L0 27.343z"/><path id="s" d="M0 0h113v309H0z"/><path id="v" d="M.608.775h102.585v83h-103z"/><path d="M0 0h103.06v85.648H0V0zm4.207 4.207V81.44h94.647V4.207H4.207z" id="z"/><path id="C" d="M0 0h12.62v42.066H0z"/><path id="E" d="M0 2.103l12.38-.308v25.24L0 27.343z"/><filter x="-10.2%" y="-9%" width="118.4%" height="120.1%" filterUnits="objectBoundingBox" id="h"><feOffset dx="-1" dy="1" in="SourceAlpha" result="shadowOffsetOuter1"/><feGaussianBlur stdDeviation="3" in="shadowOffsetOuter1" result="shadowBlurOuter1"/><feColorMatrix values="0 0 0 0 0 0 0 0 0 0 0 0 0 0 0 0 0 0 0.230550699 0" in="shadowBlurOuter1"/></filter><filter x="-10.2%" y="-9.9%" width="118.4%" height="122.2%" filterUnits="objectBoundingBox" id="y"><feOffset dx="-1" dy="1" in="SourceAlpha" result="shadowOffsetOuter1"/><feGaussianBlur stdDeviation="3" in="shadowOffsetOuter1" result="shadowBlurOuter1"/><feColorMatrix values="0 0 0 0 0 0 0 0 0 0 0 0 0 0 0 0 0 0 0.230550699 0" in="shadowBlurOuter1"/></filter></defs><g fill="none" fill-rule="evenodd"><g transform="translate(113 -87)"><mask id="b" fill="#fff"><use xlink:href="#a"/></mask><g mask="url(#b)" opacity=".2"><path d="M-356.285 29.453l.732 55.315 156.935-12.153-.123-24.079c-.026-5.133 4.02-9.338 9.122-9.552l.358-.008h66.753a9.512 9.512 0 019.512 9.512v237.786c0 12.258-9.937 22.195-22.195 22.195h-41.388c-12.258 0-22.194-9.937-22.194-22.195l-.002-11.254-15.682-.792-.001-.01-141.046-6.273.026 18.011c.018 12.092-9.638 21.94-21.671 22.22l-.496.006h-42c-12.258 0-22.194-9.937-22.194-22.194l-.002-36.176h-.109c0-.98.036-1.947.109-2.903v-1.544l-164.725-12.963L-782 275.252V70.598l175.468 42.772 164.692-9.315V29.453h85.555zm31.216 180.726l-28.932.006c-12.004.066-16.311.797-45.148 6.864l-.93.196c-23.432 4.933-34.24 15.805-35.42 29.913v38.83c0 8.755 7.098 15.853 15.854 15.853h41.996c8.755-.013 15.843-7.12 15.83-15.876l-.035-24.65 153.739 6.837v.046l15.683.794v17.282c0 8.756 7.098 15.853 15.853 15.853h41.388c8.756 0 15.853-7.097 15.853-15.853v-6.341l-.007-.853c-.44-28.005-21.563-41.953-65.015-41.953-47.633 0-64.356-1.643-79.198-7.124l-1.373-.52c-1.86-.721-8.363-3.42-10.534-4.303l-3.631-1.447c-22.509-8.89-37.235-13.432-45.973-13.554zm-37.475-174.385H-435.5v74.254l-171.616 9.708-168.544-41.085v188.505l168.578-41.174 166.723 13.12c4.213-13.31 16.869-23.429 38.974-28.082l8.684-1.82c23.22-4.832 27.617-5.352 39.823-5.38l27.448-.003v-.002l.312.002h1.274v.037c9.825.461 24.65 5.1 47.039 13.947l3.274 1.302c1.63.652 8.975 3.704 10.892 4.448l.858.327c13.627 5.113 29.042 6.785 73.154 6.883l4.266.005c33.115 0 54.987 8.155 65.024 24.427V90.632c-10.037 16.272-31.91 24.428-65.028 24.428l-4.266.005c-44.115.097-59.53 1.77-73.158 6.882l-.858.328c-1.562.606-6.728 2.745-9.504 3.882l-11.484 4.636c-25.494 10.251-33.351 12.803-41.806 12.803l-8.44-.012c-9.783-.032-17.833-.131-26.599-.37l-3.774-.11c-8.046-.258-15.077-.62-20.893-1.105-12.277-1.023-20.132-2.838-26.433-6.943-7.853-5.117-11.973-13.436-12.134-25.588l-.005-.75v-50.73h6.34v50.73c0 18.861 8.935 24.871 32.054 26.902l.705.06c6.295.525 14.1.906 23.12 1.162l4.723.123c8.953.21 17.503.278 28.43.288l2.906.001c7.506 0 15.672-2.755 41.983-13.37l7.983-3.218c2.171-.883 8.675-3.582 10.536-4.303l1.372-.52c14.843-5.481 31.566-7.124 79.202-7.124 43.455 0 64.58-13.948 65.02-41.953l.006-.853V48.488a3.17 3.17 0 00-3.17-3.17h-66.737a3.17 3.17 0 00-3.155 3.186l.154 30.094h-3.138l.011.126-166.431 12.89-.005-.333-1.546.001c-5.644-.02-7.957-.374-10.595-2.075-3.61-2.328-5.277-6.573-5.375-13.246l-.005-.632v-17.34h6.342v17.34c0 5.102.91 7.54 2.475 8.548 1.257.811 2.917 1.048 7.294 1.064l1.326-.001-.651-49.146z" fill="#C2C2C2" fill-rule="nonzero"/><path d="M195.48 71.084l6.273 8.363 7.317-.001v-4.18h14.635v4.18h51.113a4 4 0 014 4v8.726a4 4 0 01-4 4h-51.113v4.182H209.07v-4.182h-7.317l-6.273 8.363h-45.995l-6.272-8.363h-26.315a4 4 0 01-4-4v-8.725a4 4 0 014-4h26.315l6.272-8.363h45.995z" transform="translate(-360.306 86.524)" fill="url(#c)" fill-rule="nonzero" stroke="#636262" stroke-width=".5"/><path fill="url(#d)" fill-rule="nonzero" d="M0 0h103.061v94.648H0z" transform="translate(-105.193 108.225)"/><g transform="translate(-105.193 108.225)"><mask id="g" fill="#fff"><use xlink:href="#e"/></mask><use fill="url(#f)" fill-rule="nonzero" xlink:href="#e"/><g opacity=".603"><g opacity=".148" mask="url(#g)" stroke="#FFF" stroke-linecap="square" stroke-width=".5"><path d="M-659.589 223.195L441.873-863.614M-659.589 230.804L441.873-856.005M-659.589 238.413L441.873-848.396M-659.589 246.022L441.873-840.787M-659.589 253.631L441.873-833.178M-659.589 261.24L441.873-825.569M-659.589 268.848L441.873-817.96M-659.589 276.457L441.873-810.35M-659.589 284.066L441.873-802.742M-659.589 291.675L441.873-795.133M-659.589 299.284L441.873-787.525M-659.589 306.893L441.873-779.916M-659.589 314.502L441.873-772.307M-659.589 322.111L441.873-764.698M-659.589 329.72L441.873-757.089M-659.589 337.33L441.873-749.48M-659.589 344.938L441.873-741.87M-659.589 352.547L441.873-734.262M-659.589 360.156L441.873-726.653M-659.589 367.765L441.873-719.044M-659.589 375.374L441.873-711.435M-659.589 382.982L441.873-703.826M-659.589 390.591L441.873-696.217M-659.589 398.2L441.873-688.608M-659.589 405.81L441.873-681M-659.589 413.418L441.873-673.39M-659.589 421.027L441.873-665.782M-659.589 428.636L441.873-658.173M-659.589 436.245L441.873-650.564M-659.589 443.854L441.873-642.955M-659.589 451.463L441.873-635.346M-659.589 459.072L441.873-627.737M-659.589 466.681L441.873-620.128M-659.589 474.29L441.873-612.519M-659.589 481.9L441.873-604.91M-659.589 489.507L441.873-597.3M-659.589 497.116L441.873-589.692M-659.589 504.725L441.873-582.083M-659.589 512.334L441.873-574.475M-659.589 519.943L441.873-566.866M-659.589 527.552L441.873-559.257M-659.589 535.161L441.873-551.648M-659.589 542.77L441.873-544.039M-659.589 550.38L441.873-536.43M-659.589 557.988L441.873-528.82M-659.589 565.597L441.873-521.212M-659.589 573.206L441.873-513.603M-659.589 580.815L441.873-505.994M-659.589 588.424L441.873-498.385M-659.589 596.032L441.873-490.776M-659.589 603.641L441.873-483.167M-659.589 611.25L441.873-475.558M-659.589 618.86L441.873-467.95M-659.589 626.468L441.873-460.34M-659.589 634.077L441.873-452.732M-659.589 641.686L441.873-445.123M-659.589 649.295L441.873-437.514M-659.589 656.904L441.873-429.905M-659.589 664.513L441.873-422.296M-659.589 672.122L441.873-414.687M-659.589 679.731L441.873-407.078M-659.589 687.34L441.873-399.469M-659.589 694.95L441.873-391.86M-659.589 702.557L441.873-384.25M-659.589 710.166L441.873-376.642M-659.589 717.775L441.873-369.033M-659.589 725.384L441.873-361.424M-659.589 732.993L441.873-353.816M-659.589 740.602L441.873-346.207M-659.589 748.211L441.873-338.598M-659.589 755.82L441.873-330.989M-659.589 763.43L441.873-323.38M-659.589 771.038L441.873-315.77M-659.589 778.647L441.873-308.162M-659.589 786.256L441.873-300.553M-659.589 793.865L441.873-292.944M-659.589 801.474L441.873-285.335M-659.589 809.083L441.873-277.726M-659.589 816.691L441.873-270.117M-659.589 824.3L441.873-262.508M-659.589 831.91L441.873-254.9M-659.589 839.518L441.873-247.29M-659.589 847.127L441.873-239.682M-659.589 854.736L441.873-232.073M-659.589 862.345L441.873-224.464M-659.589 869.954L441.873-216.855M-659.589 877.563L441.873-209.246M-659.589 885.172L441.873-201.637M-659.589 892.781L441.873-194.028M-659.589 900.39L441.873-186.419M-659.589 908L441.873-178.81M-659.589 915.608L441.873-171.2M-659.589 923.216L441.873-163.592M-659.589 930.825L441.873-155.983M-659.589 938.434L441.873-148.374M-659.589 946.043L441.873-140.766M-659.589 953.652L441.873-133.157M-659.589 961.261L441.873-125.548M-659.589 968.87L441.873-117.939M-659.589 976.48L441.873-110.33M-659.589 984.088L441.873-102.72M-659.589 991.697L441.873-95.112M-659.589 999.306L441.873-87.503M-659.589 1006.915L441.873-79.894M-659.589 1014.524L441.873-72.285M-659.589 1022.133L441.873-64.676M-659.589 1029.741L441.873-57.067M-659.589 1037.35L441.873-49.458M-659.589 1044.96L441.873-41.85M-659.589 1052.568L441.873-34.24M-659.589 1060.177L441.873-26.632M-659.589 1067.786L441.873-19.023M-659.589 1075.395L441.873-11.414M-659.589 1083.004L441.873-3.805M-659.589 1090.613L441.873 3.804M-659.589 1098.222L441.873 11.413M-659.589 1105.831L441.873 19.022M-659.589 1113.44L441.873 26.631M-659.589 1121.05L441.873 34.24M-659.589 1128.658L441.873 41.85M-659.589 1136.266L441.873 49.458M-659.589 1143.875L441.873 57.067M-659.589 1151.484L441.873 64.676M-659.589 1159.093L441.873 72.284M-659.589 1166.702L441.873 79.893M-659.589 1174.311L441.873 87.502M-659.589 1181.92L441.873 95.111M-659.589 1189.53L441.873 102.72M-659.589 1197.138L441.873 110.33"/></g></g></g><g fill-rule="nonzero" transform="translate(-105.193 108.225)"><use fill="#000" filter="url(#h)" xlink:href="#i"/><use fill="url(#j)" xlink:href="#i"/></g><path d="M676.756 149.87v-16.825h439.951v-.707a3.5 3.5 0 013.5-3.5h7.723a3.5 3.5 0 013.5 3.5v.706h10.517v16.827h-10.517v.706a3.5 3.5 0 01-3.5 3.5h-7.723a3.5 3.5 0 01-3.5-3.5v-.707H676.756z" stroke="#636262" stroke-width=".5" fill="url(#k)" fill-rule="nonzero" transform="translate(-783)"/><path fill="#004C97" d="M-97.831 130.941h10.516v6.31h-10.516zM-97.831 145.664h10.516v6.31h-10.516zM-57.869 130.941h10.516v6.31h-10.516zM-57.869 145.664h10.516v6.31h-10.516z"/><g><path d="M0 5.282h74.321l.001-4.206h14.723l-.002 4.206h1.078a7.337 7.337 0 017.337 7.338v2.151a7.337 7.337 0 01-7.337 7.338h-1.078l.002 4.206H74.322v-4.207H0" stroke="#636262" stroke-width=".5" fill="url(#l)" fill-rule="nonzero" transform="translate(-109.055 160.686)"/><path d="M-20.01 161.762v8.413h-4.206v-8.413h4.206zm-10.516 0v8.413h-4.207v-8.413h4.207zM-20.01 178.588v8.414h-4.206v-8.414h4.206zm-10.516 0v8.414h-4.207v-8.414h4.207zM-97.83 163.865h10.515v6.31H-97.83zM-97.83 178.588h10.515v6.31H-97.83zM-57.869 163.865h10.516v6.31h-10.516zM-57.869 178.588h10.516v6.31h-10.516z" fill="#004C97"/></g><g><g transform="translate(-78.905 121.065)"><mask id="o" fill="#fff"><use xlink:href="#m"/></mask><use fill="url(#n)" fill-rule="nonzero" xlink:href="#m"/><path fill="#7F7F7F" fill-rule="nonzero" mask="url(#o)" transform="matrix(-1 0 0 1 11.505 0)" d="M-7.092-2.103l-.62.743 26.31 31.571.619-.743zM-7.092 2.103l-.62.744 26.31 31.571.619-.744zM-7.092 6.31l-.62.743 26.31 31.572.619-.744zM-7.092 10.516l-.62.744 26.31 31.571.619-.743zM-7.092 14.723l-.62.744 26.31 31.57.619-.743zM-7.092 18.93l-.62.743 26.31 31.571.619-.743zM-7.092 23.136l-.62.744 26.31 31.57.619-.743zM-7.092 27.343l-.62.743 26.31 31.571.619-.743zM-7.092-6.31l-.62.744 26.31 31.57.619-.743zM-7.092-10.516l-.62.743 26.31 31.571.619-.743zM-7.092-14.723l-.62.744 26.31 31.57.619-.743zM-7.092-18.93l-.62.744 26.31 31.571.619-.743z"/></g><path stroke="#636262" stroke-width=".5" d="M-78.905 121.065h12.62v42.066h-12.62z"/></g><g><g transform="translate(-78.902 159.586)"><mask id="r" fill="#fff"><use xlink:href="#p"/></mask><use fill="url(#q)" fill-rule="nonzero" xlink:href="#p"/><path fill="#7F7F7F" fill-rule="nonzero" mask="url(#r)" d="M-6.433-6.31l-.578.744 24.555 31.57.579-.743zM-6.433-2.103l-.578.743 24.555 31.571.579-.743zM-6.433 2.103l-.578.744 24.555 31.571.579-.744zM-6.433 6.31l-.578.743 24.555 31.572.579-.744zM-6.433 10.516l-.578.744 24.555 31.571.579-.743zM-6.433 14.723l-.578.744 24.555 31.57.579-.743zM-6.433 18.93l-.578.743 24.555 31.571.579-.743zM-6.433 23.136l-.578.744 24.555 31.57.579-.743zM-6.433-10.516l-.578.743 24.555 31.571.579-.743zM-6.433-14.723l-.578.744 24.555 31.57.579-.743zM-6.433-18.93l-.578.744 24.555 31.571.579-.743zM-6.433-23.136l-.578.744 24.555 31.57.579-.743z"/></g><path stroke="#636262" stroke-width=".5" d="M-78.902 161.689h12.62v25.239h-12.62z"/></g></g></g><g opacity=".2" transform="translate(0 -87)"><mask id="t" fill="#fff"><use xlink:href="#s"/></mask><g mask="url(#t)"><path fill="url(#u)" fill-rule="nonzero" d="M0 1.648h103.061v84H0z" transform="translate(7.807 117.225)"/><g transform="translate(7.807 119.225)"><mask id="x" fill="#fff"><use xlink:href="#v"/></mask><use fill="url(#w)" fill-rule="nonzero" xlink:href="#v"/><g opacity=".603"><g opacity=".148" mask="url(#x)" stroke="#FFF" stroke-linecap="square" stroke-width=".5"><path d="M-659.589 212.195L441.873-874.614M-659.589 219.804L441.873-867.005M-659.589 227.413L441.873-859.396M-659.589 235.022L441.873-851.787M-659.589 242.631L441.873-844.178M-659.589 250.24L441.873-836.569M-659.589 257.848L441.873-828.96M-659.589 265.457L441.873-821.35M-659.589 273.066L441.873-813.742M-659.589 280.675L441.873-806.133M-659.589 288.284L441.873-798.525M-659.589 295.893L441.873-790.916M-659.589 303.502L441.873-783.307M-659.589 311.111L441.873-775.698M-659.589 318.72L441.873-768.089M-659.589 326.33L441.873-760.48M-659.589 333.938L441.873-752.87M-659.589 341.547L441.873-745.262M-659.589 349.156L441.873-737.653M-659.589 356.765L441.873-730.044M-659.589 364.374L441.873-722.435M-659.589 371.982L441.873-714.826M-659.589 379.591L441.873-707.217M-659.589 387.2L441.873-699.608M-659.589 394.81L441.873-692M-659.589 402.418L441.873-684.39M-659.589 410.027L441.873-676.782M-659.589 417.636L441.873-669.173M-659.589 425.245L441.873-661.564M-659.589 432.854L441.873-653.955M-659.589 440.463L441.873-646.346M-659.589 448.072L441.873-638.737M-659.589 455.681L441.873-631.128M-659.589 463.29L441.873-623.519M-659.589 470.9L441.873-615.91M-659.589 478.507L441.873-608.3M-659.589 486.116L441.873-600.692M-659.589 493.725L441.873-593.083M-659.589 501.334L441.873-585.475M-659.589 508.943L441.873-577.866M-659.589 516.552L441.873-570.257M-659.589 524.161L441.873-562.648M-659.589 531.77L441.873-555.039M-659.589 539.38L441.873-547.43M-659.589 546.988L441.873-539.82M-659.589 554.597L441.873-532.212M-659.589 562.206L441.873-524.603M-659.589 569.815L441.873-516.994M-659.589 577.424L441.873-509.385M-659.589 585.032L441.873-501.776M-659.589 592.641L441.873-494.167M-659.589 600.25L441.873-486.558M-659.589 607.86L441.873-478.95M-659.589 615.468L441.873-471.34M-659.589 623.077L441.873-463.732M-659.589 630.686L441.873-456.123M-659.589 638.295L441.873-448.514M-659.589 645.904L441.873-440.905M-659.589 653.513L441.873-433.296M-659.589 661.122L441.873-425.687M-659.589 668.731L441.873-418.078M-659.589 676.34L441.873-410.469M-659.589 683.95L441.873-402.86M-659.589 691.557L441.873-395.25M-659.589 699.166L441.873-387.642M-659.589 706.775L441.873-380.033M-659.589 714.384L441.873-372.424M-659.589 721.993L441.873-364.816M-659.589 729.602L441.873-357.207M-659.589 737.211L441.873-349.598M-659.589 744.82L441.873-341.989M-659.589 752.43L441.873-334.38M-659.589 760.038L441.873-326.77M-659.589 767.647L441.873-319.162M-659.589 775.256L441.873-311.553M-659.589 782.865L441.873-303.944M-659.589 790.474L441.873-296.335M-659.589 798.083L441.873-288.726M-659.589 805.691L441.873-281.117M-659.589 813.3L441.873-273.508M-659.589 820.91L441.873-265.9M-659.589 828.518L441.873-258.29M-659.589 836.127L441.873-250.682M-659.589 843.736L441.873-243.073M-659.589 851.345L441.873-235.464M-659.589 858.954L441.873-227.855M-659.589 866.563L441.873-220.246M-659.589 874.172L441.873-212.637M-659.589 881.781L441.873-205.028M-659.589 889.39L441.873-197.419M-659.589 897L441.873-189.81M-659.589 904.608L441.873-182.2M-659.589 912.216L441.873-174.592M-659.589 919.825L441.873-166.983M-659.589 927.434L441.873-159.374M-659.589 935.043L441.873-151.766M-659.589 942.652L441.873-144.157M-659.589 950.261L441.873-136.548M-659.589 957.87L441.873-128.939M-659.589 965.48L441.873-121.33M-659.589 973.088L441.873-113.72M-659.589 980.697L441.873-106.112M-659.589 988.306L441.873-98.503M-659.589 995.915L441.873-90.894M-659.589 1003.524L441.873-83.285M-659.589 1011.133L441.873-75.676M-659.589 1018.741L441.873-68.067M-659.589 1026.35L441.873-60.458M-659.589 1033.96L441.873-52.85M-659.589 1041.568L441.873-45.24M-659.589 1049.177L441.873-37.632M-659.589 1056.786L441.873-30.023M-659.589 1064.395L441.873-22.414M-659.589 1072.004L441.873-14.805M-659.589 1079.613L441.873-7.196M-659.589 1087.222L441.873.413M-659.589 1094.831L441.873 8.022M-659.589 1102.44L441.873 15.631M-659.589 1110.05L441.873 23.24M-659.589 1117.658L441.873 30.85M-659.589 1125.266L441.873 38.458M-659.589 1132.875L441.873 46.067M-659.589 1140.484L441.873 53.676M-659.589 1148.093L441.873 61.284M-659.589 1155.702L441.873 68.893M-659.589 1163.311L441.873 76.502M-659.589 1170.92L441.873 84.111M-659.589 1178.53L441.873 91.72M-659.589 1186.138L441.873 99.33"/></g></g></g><g fill-rule="nonzero" transform="translate(7.807 117.225)"><use fill="#000" filter="url(#y)" xlink:href="#z"/><use fill="url(#A)" xlink:href="#z"/></g></g><g mask="url(#t)"><path d="M83.175 31.69l6.272 8.364 7.317-.001v-4.18H111.4v4.18h27.546v-.001h74.321l.001-4.207h14.723l-.001 4.206h1.077a7.337 7.337 0 017.337 7.338v2.152a7.337 7.337 0 01-7.337 7.337h-1.077l.001 4.206h-14.723v-4.207h-74.322v-.098H111.4v4.182H96.764v-4.182h-7.317l-6.272 8.363H37.179l-6.272-8.363H4.592a4 4 0 01-4-4v-8.725a4 4 0 014-4h26.315l6.272-8.363h45.996z" stroke="#636262" stroke-width=".5" fill="url(#B)" fill-rule="nonzero" transform="translate(-135 125.917)"/><path d="M141.756 23.954V7.127h439.951V6.42a3.5 3.5 0 013.5-3.5h7.723a3.5 3.5 0 013.5 3.5v.706h10.517v16.827l-10.517-.001v.707a3.5 3.5 0 01-3.5 3.5h-7.723a3.5 3.5 0 01-3.5-3.5v-.707H141.756z" stroke="#636262" stroke-width=".5" fill="url(#k)" fill-rule="nonzero" transform="translate(-135 125.917)"/><g fill="#004C97"><path d="M15.169 130.941h10.516v6.31H15.169zM15.169 145.664h10.516v6.31H15.169zM55.13 130.941h10.517v6.31H55.13zM55.13 145.664h10.517v6.31H55.13z"/></g><g transform="translate(34.095 152.065)"><mask id="D" fill="#fff"><use xlink:href="#C"/></mask><use fill="url(#n)" fill-rule="nonzero" xlink:href="#C"/><path fill="#7F7F7F" fill-rule="nonzero" mask="url(#D)" transform="matrix(-1 0 0 1 11.505 0)" d="M-7.092-2.103l-.62.743 26.31 31.571.619-.743zM-7.092 2.103l-.62.744 26.31 31.571.619-.744zM-7.092 6.31l-.62.743 26.31 31.572.619-.744zM-7.092 10.516l-.62.744 26.31 31.571.619-.743zM-7.092 14.723l-.62.744 26.31 31.57.619-.743zM-7.092 18.93l-.62.743 26.31 31.571.619-.743zM-7.092 23.136l-.62.744 26.31 31.57.619-.743zM-7.092 27.343l-.62.743 26.31 31.571.619-.743zM-7.092-6.31l-.62.744 26.31 31.57.619-.743zM-7.092-10.516l-.62.743 26.31 31.571.619-.743zM-7.092-14.723l-.62.744 26.31 31.57.619-.743zM-7.092-18.93l-.62.744 26.31 31.571.619-.743z"/></g><path stroke="#636262" stroke-width=".5" d="M34.095 152.065h12.62v42.066h-12.62z"/><g fill="#004C97"><path d="M92.99 161.762v8.413h-4.206v-8.413h4.206zm-10.516 0v8.413h-4.207v-8.413h4.207zM92.99 178.588v8.414h-4.206v-8.414h4.206zm-10.516 0v8.414h-4.207v-8.414h4.207zM15.17 163.865h10.515v6.31H15.17zM15.17 178.588h10.515v6.31H15.17zM55.131 163.865h10.516v6.31H55.131zM55.131 178.588h10.516v6.31H55.131z"/></g><g><g transform="translate(34.098 126.586)"><mask id="F" fill="#fff"><use xlink:href="#E"/></mask><use fill="url(#q)" fill-rule="nonzero" xlink:href="#E"/><path fill="#7F7F7F" fill-rule="nonzero" mask="url(#F)" d="M-6.433-6.31l-.578.744 24.555 31.57.579-.743zM-6.433-2.103l-.578.743 24.555 31.571.579-.743zM-6.433 2.103l-.578.744 24.555 31.571.579-.744zM-6.433 6.31l-.578.743 24.555 31.572.579-.744zM-6.433 10.516l-.578.744 24.555 31.571.579-.743zM-6.433 14.723l-.578.744 24.555 31.57.579-.743zM-6.433 18.93l-.578.743 24.555 31.571.579-.743zM-6.433 23.136l-.578.744 24.555 31.57.579-.743zM-6.433-10.516l-.578.743 24.555 31.571.579-.743zM-6.433-14.723l-.578.744 24.555 31.57.579-.743zM-6.433-18.93l-.578.744 24.555 31.571.579-.743zM-6.433-23.136l-.578.744 24.555 31.57.579-.743z"/></g><path stroke="#636262" stroke-width=".5" d="M34.098 128.689h12.62v25.239h-12.62z"/></g></g></g></g></svg>