<svg width="361" height="179" xmlns="http://www.w3.org/2000/svg" xmlns:xlink="http://www.w3.org/1999/xlink"><defs><linearGradient x1="50.034%" y1="99.984%" x2="50.034%" y2="-.004%" id="c"><stop stop-color="#8B878D" offset="0%"/><stop stop-color="#9F9CA1" offset="13.66%"/><stop stop-color="#D9D8DA" offset="42.07%"/><stop stop-color="#F3F4F4" offset="51.52%"/><stop stop-color="#807B80" offset="100%"/></linearGradient><linearGradient x1="50.034%" y1="99.984%" x2="50.034%" y2="-.004%" id="d"><stop stop-color="#8B878D" offset="0%"/><stop stop-color="#9F9CA1" offset="13.66%"/><stop stop-color="#D9D8DA" offset="42.07%"/><stop stop-color="#F3F4F4" offset="51.52%"/><stop stop-color="#807B80" offset="100%"/></linearGradient><linearGradient x1="50%" y1="0%" x2="50%" y2="100%" id="e"><stop stop-color="#636262" stop-opacity=".4" offset="0%"/><stop stop-color="#636262" offset="46.746%"/><stop stop-color="#636262" stop-opacity=".4" offset="100%"/></linearGradient><linearGradient x1="50%" y1="0%" x2="50%" y2="100%" id="f"><stop stop-color="#636262" stop-opacity=".401" offset="0%"/><stop stop-color="#636262" offset="46.746%"/><stop stop-color="#636262" stop-opacity=".4" offset="100%"/></linearGradient><path id="a" d="M0 0h361v309H0z"/></defs><g transform="translate(0 -57)" fill="none" fill-rule="evenodd"><mask id="b" fill="#fff"><use xlink:href="#a"/></mask><g mask="url(#b)"><path d="M569.656 63.658V46.832h439.951v-.707a3.5 3.5 0 013.5-3.5h7.723a3.5 3.5 0 013.5 3.5v.706h10.517v16.827h-10.517v.706a3.5 3.5 0 01-3.5 3.5h-7.723a3.5 3.5 0 01-3.5-3.5v-.707H569.656z" stroke="#636262" stroke-width=".5" fill="url(#c)" fill-rule="nonzero" transform="translate(-675.61 86.213)"/><path d="M348.72 128.838v8.413h-4.206v-8.413h4.207zm-10.516 0v8.413h-4.206v-8.413h4.206zM348.72 154.077v-8.413h-4.206v8.413h4.207zm-10.516 0v-8.413h-4.206v8.413h4.206z" fill="#004C97"/><path fill="#0F436B" d="M222.159 130.941h10.516v6.31h-10.516z"/><g stroke-width=".5"><path d="M12.62 0h10.516v70.46H12.62c0-11.218-1.402-16.826-4.207-16.826H0V19.98h8.413c2.805 0 4.207-6.66 4.207-19.981z" stroke="#636262" fill="url(#d)" fill-rule="nonzero" transform="translate(47.586 105.702)"/><path stroke="#636262" fill-opacity=".04" fill="#000" opacity=".5" d="M60.206 127.786h10.516v12.62H60.206zM60.206 140.406h10.516v12.62H60.206z"/><path stroke="#636262" fill-opacity=".06" fill="#000" opacity=".5" d="M60.206 119.373h10.516v8.413H60.206zM60.206 153.026h10.516v8.413H60.206z"/><path stroke="#636262" fill-opacity=".08" fill="#000" opacity=".5" d="M60.206 113.063h10.516v6.31H60.206zM60.206 161.439h10.516v6.31H60.206z"/><path stroke="#636262" fill-opacity=".104" fill="#000" opacity=".5" d="M60.206 108.857h10.516v4.207H60.206z"/><path stroke="#636262" fill-opacity=".1" fill="#000" opacity=".7" d="M60.206 167.749h10.516v5.258H60.206z"/><path stroke="url(#e)" stroke-linecap="square" d="M2.103 53.634V19.981M4.207 53.634V19.981M6.31 53.634V19.981" transform="translate(47.586 105.702)"/><path stroke="url(#f)" stroke-linecap="square" d="M8.413 53.634V19.981" transform="translate(47.586 105.702)"/></g><path fill="#0F436B" d="M222.159 145.664h10.516v6.31h-10.516z"/><path fill="#004C97" d="M315.069 130.941h10.516v6.31h-10.516zM315.069 145.664h10.516v6.31h-10.516z"/><path fill="#0F436B" d="M16.037 130.941h10.516v6.31H16.037zM16.037 145.664h10.516v6.31H16.037z"/><path fill="#004C97" d="M16.037 130.941h10.516v6.31H16.037zM16.037 145.664h10.516v6.31H16.037z"/><g stroke-width=".5"><path d="M12.62 0h10.516v70.46H12.62c0-11.218-1.402-16.826-4.207-16.826H0V19.98h8.413c2.805 0 4.207-6.66 4.207-19.981z" stroke="#636262" fill="url(#d)" fill-rule="nonzero" transform="translate(110.684 105.702)"/><path stroke="#636262" fill-opacity=".04" fill="#000" opacity=".5" d="M123.304 127.786h10.516v12.62h-10.516zM123.304 140.406h10.516v12.62h-10.516z"/><path stroke="#636262" fill-opacity=".06" fill="#000" opacity=".5" d="M123.304 119.373h10.516v8.413h-10.516zM123.304 153.026h10.516v8.413h-10.516z"/><path stroke="#636262" fill-opacity=".08" fill="#000" opacity=".5" d="M123.304 113.063h10.516v6.31h-10.516zM123.304 161.439h10.516v6.31h-10.516z"/><path stroke="#636262" fill-opacity=".104" fill="#000" opacity=".5" d="M123.304 108.857h10.516v4.207h-10.516z"/><path stroke="#636262" fill-opacity=".1" fill="#000" opacity=".7" d="M123.304 167.749h10.516v5.258h-10.516z"/><path stroke="url(#e)" stroke-linecap="square" d="M2.103 53.634V19.981M4.207 53.634V19.981M6.31 53.634V19.981" transform="translate(110.684 105.702)"/><path stroke="url(#f)" stroke-linecap="square" d="M8.413 53.634V19.981" transform="translate(110.684 105.702)"/></g><g stroke-width=".5"><path d="M12.62 0h10.516v70.46H12.62c0-11.218-1.402-16.826-4.207-16.826H0V19.98h8.413c2.805 0 4.207-6.66 4.207-19.981z" stroke="#636262" fill="url(#d)" fill-rule="nonzero" transform="translate(285.622 105.702)"/><path stroke="#636262" fill-opacity=".04" fill="#000" opacity=".5" d="M298.242 127.786h10.516v12.62h-10.516zM298.242 140.406h10.516v12.62h-10.516z"/><path stroke="#636262" fill-opacity=".06" fill="#000" opacity=".5" d="M298.242 119.373h10.516v8.413h-10.516zM298.242 153.026h10.516v8.413h-10.516z"/><path stroke="#636262" fill-opacity=".08" fill="#000" opacity=".5" d="M298.242 113.063h10.516v6.31h-10.516zM298.242 161.439h10.516v6.31h-10.516z"/><path stroke="#636262" fill-opacity=".104" fill="#000" opacity=".5" d="M298.242 108.857h10.516v4.207h-10.516z"/><path stroke="#636262" fill-opacity=".1" fill="#000" opacity=".7" d="M298.242 167.749h10.516v5.258h-10.516z"/><path stroke="url(#e)" stroke-linecap="square" d="M2.103 53.634V19.981M4.207 53.634V19.981M6.31 53.634V19.981" transform="translate(285.622 105.702)"/><path stroke="url(#f)" stroke-linecap="square" d="M8.413 53.634V19.981" transform="translate(285.622 105.702)"/></g><g stroke-width=".5"><path d="M12.62 0h10.516v70.46H12.62c0-11.218-1.402-16.826-4.207-16.826H0V19.98h8.413c2.805 0 4.207-6.66 4.207-19.981z" stroke="#636262" fill="url(#d)" fill-rule="nonzero" transform="translate(79.135 105.702)"/><path stroke="#636262" fill-opacity=".04" fill="#000" opacity=".5" d="M91.755 127.786h10.516v12.62H91.755zM91.755 140.406h10.516v12.62H91.755z"/><path stroke="#636262" fill-opacity=".06" fill="#000" opacity=".5" d="M91.755 119.373h10.516v8.413H91.755zM91.755 153.026h10.516v8.413H91.755z"/><path stroke="#636262" fill-opacity=".08" fill="#000" opacity=".5" d="M91.755 113.063h10.516v6.31H91.755zM91.755 161.439h10.516v6.31H91.755z"/><path stroke="#636262" fill-opacity=".104" fill="#000" opacity=".5" d="M91.755 108.857h10.516v4.207H91.755z"/><path stroke="#636262" fill-opacity=".1" fill="#000" opacity=".7" d="M91.755 167.749h10.516v5.258H91.755z"/><path stroke="url(#e)" stroke-linecap="square" d="M2.103 53.634V19.981M4.207 53.634V19.981M6.31 53.634V19.981" transform="translate(79.135 105.702)"/><path stroke="url(#f)" stroke-linecap="square" d="M8.413 53.634V19.981" transform="translate(79.135 105.702)"/></g><g stroke-width=".5"><path d="M12.62 0h10.516v70.46H12.62c0-11.218-1.402-16.826-4.207-16.826H0V19.98h8.413c2.805 0 4.207-6.66 4.207-19.981z" stroke="#636262" fill="url(#d)" fill-rule="nonzero" transform="translate(254.073 105.702)"/><path stroke="#636262" fill-opacity=".04" fill="#000" opacity=".5" d="M266.693 127.786h10.516v12.62h-10.516zM266.693 140.406h10.516v12.62h-10.516z"/><path stroke="#636262" fill-opacity=".06" fill="#000" opacity=".5" d="M266.693 119.373h10.516v8.413h-10.516zM266.693 153.026h10.516v8.413h-10.516z"/><path stroke="#636262" fill-opacity=".08" fill="#000" opacity=".5" d="M266.693 113.063h10.516v6.31h-10.516zM266.693 161.439h10.516v6.31h-10.516z"/><path stroke="#636262" fill-opacity=".104" fill="#000" opacity=".5" d="M266.693 108.857h10.516v4.207h-10.516z"/><path stroke="#636262" fill-opacity=".1" fill="#000" opacity=".7" d="M266.693 167.749h10.516v5.258h-10.516z"/><path stroke="url(#e)" stroke-linecap="square" d="M2.103 53.634V19.981M4.207 53.634V19.981M6.31 53.634V19.981" transform="translate(254.073 105.702)"/><path stroke="url(#f)" stroke-linecap="square" d="M8.413 53.634V19.981" transform="translate(254.073 105.702)"/></g><g stroke-width=".5"><path d="M12.62 0h10.516v70.46H12.62c0-11.218-1.402-16.826-4.207-16.826H0V19.98h8.413c2.805 0 4.207-6.66 4.207-19.981z" stroke="#636262" fill="url(#d)" fill-rule="nonzero" transform="translate(222.524 105.702)"/><path stroke="#636262" fill-opacity=".04" fill="#000" opacity=".5" d="M235.144 127.786h10.516v12.62h-10.516zM235.144 140.406h10.516v12.62h-10.516z"/><path stroke="#636262" fill-opacity=".06" fill="#000" opacity=".5" d="M235.144 119.373h10.516v8.413h-10.516zM235.144 153.026h10.516v8.413h-10.516z"/><path stroke="#636262" fill-opacity=".08" fill="#000" opacity=".5" d="M235.144 113.063h10.516v6.31h-10.516zM235.144 161.439h10.516v6.31h-10.516z"/><path stroke="#636262" fill-opacity=".104" fill="#000" opacity=".5" d="M235.144 108.857h10.516v4.207h-10.516z"/><path stroke="#636262" fill-opacity=".1" fill="#000" opacity=".7" d="M235.144 167.749h10.516v5.258h-10.516z"/><path stroke="url(#e)" stroke-linecap="square" d="M2.103 53.634V19.981M4.207 53.634V19.981M6.31 53.634V19.981" transform="translate(222.524 105.702)"/><path stroke="url(#f)" stroke-linecap="square" d="M8.413 53.634V19.981" transform="translate(222.524 105.702)"/></g></g></g></svg>