<svg width="298" height="273" xmlns="http://www.w3.org/2000/svg" xmlns:xlink="http://www.w3.org/1999/xlink"><defs><linearGradient x1="50.034%" y1="99.984%" x2="50.034%" y2="-.004%" id="c"><stop stop-color="#8B878D" offset="0%"/><stop stop-color="#9F9CA1" offset="13.66%"/><stop stop-color="#D9D8DA" offset="42.07%"/><stop stop-color="#F3F4F4" offset="51.52%"/><stop stop-color="#807B80" offset="100%"/></linearGradient><linearGradient x1="50.034%" y1="99.984%" x2="50.034%" y2="-.004%" id="d"><stop stop-color="#8B878D" offset="0%"/><stop stop-color="#9F9CA1" offset="13.66%"/><stop stop-color="#D9D8DA" offset="42.07%"/><stop stop-color="#F3F4F4" offset="51.52%"/><stop stop-color="#807B80" offset="100%"/></linearGradient><linearGradient x1="50.034%" y1="99.984%" x2="50.034%" y2="-.004%" id="e"><stop stop-color="#8B878D" offset="0%"/><stop stop-color="#9F9CA1" offset="13.66%"/><stop stop-color="#D9D8DA" offset="42.07%"/><stop stop-color="#F3F4F4" offset="51.52%"/><stop stop-color="#807B80" offset="100%"/></linearGradient><path id="a" d="M0 0h298v273H0z"/></defs><g fill="none" fill-rule="evenodd"><mask id="b" fill="#fff"><use xlink:href="#a"/></mask><g mask="url(#b)"><path d="M640.749 70.246l6.33 8.381h7.383v-4.19h14.77l-.001 4.19h51.617a4 4 0 014 4v8.763a4 4 0 01-4 4H669.23v4.191h-14.768l-.001-4.191h-7.384l-6.329 8.382h-46.415l-6.33-8.382H459.026a4 4 0 01-4-4v-8.763a4 4 0 014-4h128.978l6.33-8.381h46.415z" stroke="#636262" stroke-width=".5" fill="url(#c)" fill-rule="nonzero" transform="translate(-398.574 49.491)"/><path fill="#004C97" d="M171.405 126.123h11.176v6.386h-11.176zM171.405 140.491h11.176v6.386h-11.176zM276.78 126.123h11.176v6.386H276.78zM270.393 122.93v7.982h-4.105v-7.982h4.105zm-10.264 0v7.982h-4.105v-7.982h4.105zM270.393 141.491v7.983h-4.105v-7.983h4.105zm-10.264 0v7.983h-4.105v-7.983h4.105zM276.78 140.491h11.176v6.386H276.78z"/><path stroke="#636262" stroke-width=".5" fill="url(#d)" fill-rule="nonzero" d="M429.48 70.246h134.113v33.526H429.48z" transform="translate(-398.574 49.491)"/><g stroke="#636262" stroke-width=".5"><path d="M6.117 0h6.716a2 2 0 011.998 1.904l4.114 85.295a2 2 0 010 .19l-4.116 87.562a2 2 0 01-1.998 1.906H6.119a2 2 0 01-1.998-1.906L.004 87.39a2 2 0 010-.19L4.12 1.903A2 2 0 016.117 0z" fill="url(#e)" fill-rule="nonzero" transform="translate(11.747 49.491)"/><path d="M30.697 148.447h-18.95m0-21.055h18.95M28.591 182.134H13.853m0-12.633H28.59M29.644 106.338H12.8m1.053-12.633H28.59M27.539 205.294H14.905m0-10.528H27.54M27.539 81.073H14.905m0-10.527H27.54M27.539 213.715H14.905m0-8.421H27.54M27.539 70.546H14.905m1.053-8.422h10.528M26.486 220.032H15.958m-1.053-6.317H27.54M26.486 224.242H15.958m0-4.21h10.528M26.486 55.808H15.958m1.053-4.211h8.422" fill-opacity=".04" fill="#000"/></g><g stroke="#636262" stroke-width=".5"><path d="M6.117 0h6.716a2 2 0 011.998 1.904l4.114 85.295a2 2 0 010 .19l-4.116 87.562a2 2 0 01-1.998 1.906H6.119a2 2 0 01-1.998-1.906L.004 87.39a2 2 0 010-.19L4.12 1.903A2 2 0 016.117 0z" fill="url(#e)" fill-rule="nonzero" transform="translate(37.292 49.491)"/><path d="M56.242 148.447h-18.95m0-21.055h18.95M54.137 182.134h-14.74m0-12.633h14.74M55.19 106.338H38.345m1.053-12.633h14.739M53.084 205.294H40.451m0-10.528h12.633M53.084 81.073H40.451m0-10.527h12.633M53.084 213.715H40.451m0-8.421h12.633M53.084 70.546H40.451m1.052-8.422h10.528M52.031 220.032H41.503m-1.052-6.317h12.633M52.031 224.242H41.503m0-4.21h10.528M52.031 55.808H41.503m1.053-4.211h8.422" fill-opacity=".04" fill="#000"/></g><g stroke="#636262" stroke-width=".5"><path d="M6.117 0h6.716a2 2 0 011.998 1.904l4.114 85.295a2 2 0 010 .19l-4.116 87.562a2 2 0 01-1.998 1.906H6.119a2 2 0 01-1.998-1.906L.004 87.39a2 2 0 010-.19L4.12 1.903A2 2 0 016.117 0z" fill="url(#e)" fill-rule="nonzero" transform="translate(62.838 49.491)"/><path d="M81.788 148.447h-18.95m0-21.055h18.95M79.682 182.134H64.943m0-12.633h14.739M80.735 106.338H63.89m1.053-12.633h14.739M78.63 205.294H65.995m0-10.528h12.633M78.63 81.073H65.995m0-10.527h12.633M78.63 213.715H65.995m0-8.421h12.633M78.63 70.546H65.995m1.053-8.422h10.527M77.576 220.032H67.05m-1.053-6.317h12.633M77.576 224.242H67.05m0-4.21h10.527M77.576 55.808H67.05m1.052-4.211h8.423" fill-opacity=".04" fill="#000"/></g><g stroke="#636262" stroke-width=".5"><path d="M6.117 0h6.716a2 2 0 011.998 1.904l4.114 85.295a2 2 0 010 .19l-4.116 87.562a2 2 0 01-1.998 1.906H6.119a2 2 0 01-1.998-1.906L.004 87.39a2 2 0 010-.19L4.12 1.903A2 2 0 016.117 0z" fill="url(#e)" fill-rule="nonzero" transform="translate(88.383 49.491)"/><path d="M107.333 148.447h-18.95m0-21.055h18.95M105.227 182.134H90.488m0-12.633h14.74M106.28 106.338H89.436m1.052-12.633h14.74M104.175 205.294H91.54m0-10.528h12.634M104.175 81.073H91.54m0-10.527h12.634M104.175 213.715H91.54m0-8.421h12.634M104.175 70.546H91.54m1.053-8.422h10.528M103.122 220.032H92.594m-1.053-6.317h12.634M103.122 224.242H92.594m0-4.21h10.528M103.122 55.808H92.594m1.053-4.211h8.422" fill-opacity=".04" fill="#000"/></g><g stroke="#636262" stroke-width=".5"><path d="M6.117 0h6.716a2 2 0 011.998 1.904l4.114 85.295a2 2 0 010 .19l-4.116 87.562a2 2 0 01-1.998 1.906H6.119a2 2 0 01-1.998-1.906L.004 87.39a2 2 0 010-.19L4.12 1.903A2 2 0 016.117 0z" fill="url(#e)" fill-rule="nonzero" transform="translate(113.928 49.491)"/><path d="M132.878 148.447h-18.95m0-21.055h18.95M130.773 182.134h-14.74m0-12.633h14.74M131.825 106.338h-16.844m1.053-12.633h14.739M129.72 205.294h-12.633m0-10.528h12.633M129.72 81.073h-12.633m0-10.527h12.633M129.72 213.715h-12.633m0-8.421h12.633M129.72 70.546h-12.633m1.052-8.422h10.528M128.667 220.032H118.14m-1.052-6.317h12.633M128.667 224.242H118.14m0-4.21h10.528M128.667 55.808H118.14m1.053-4.211h8.422" fill-opacity=".04" fill="#000"/></g><g stroke="#636262" stroke-width=".5"><path d="M6.117 0h6.716a2 2 0 011.998 1.904l4.114 85.295a2 2 0 010 .19l-4.116 87.562a2 2 0 01-1.998 1.906H6.119a2 2 0 01-1.998-1.906L.004 87.39a2 2 0 010-.19L4.12 1.903A2 2 0 016.117 0z" fill="url(#e)" fill-rule="nonzero" transform="translate(139.474 49.491)"/><path d="M158.423 148.447h-18.95m0-21.055h18.95M156.318 182.134h-14.739m0-12.633h14.739M157.37 106.338h-16.844m1.053-12.633h14.739M155.265 205.294h-12.633m0-10.528h12.633M155.265 81.073h-12.633m0-10.527h12.633M155.265 213.715h-12.633m0-8.421h12.633M155.265 70.546h-12.633m1.053-8.422h10.527M154.212 220.032h-10.527m-1.053-6.317h12.633M154.212 224.242h-10.527m0-4.21h10.527M154.212 55.808h-10.527m1.052-4.211h8.423" fill-opacity=".04" fill="#000"/></g></g></g></svg>