<svg width="686" height="487" xmlns="http://www.w3.org/2000/svg" xmlns:xlink="http://www.w3.org/1999/xlink"><defs><filter x="-1.3%" y="-1.3%" width="102.6%" height="102.6%" filterUnits="objectBoundingBox" id="c"><feGaussianBlur stdDeviation="4.5" in="SourceAlpha" result="shadowBlurInner1"/><feOffset dy="1" in="shadowBlurInner1" result="shadowOffsetInner1"/><feComposite in="shadowOffsetInner1" in2="SourceAlpha" operator="arithmetic" k2="-1" k3="1" result="shadowInnerInner1"/><feColorMatrix values="0 0 0 0 0 0 0 0 0 0 0 0 0 0 0 0 0 0 0.301737325 0" in="shadowInnerInner1"/></filter><filter x="-2.8%" y="-2.3%" width="105.2%" height="105.2%" filterUnits="objectBoundingBox" id="d"><feMorphology radius=".5" operator="dilate" in="SourceAlpha" result="shadowSpreadOuter1"/><feOffset dx="-1" dy="1" in="shadowSpreadOuter1" result="shadowOffsetOuter1"/><feGaussianBlur stdDeviation="3" in="shadowOffsetOuter1" result="shadowBlurOuter1"/><feComposite in="shadowBlurOuter1" in2="SourceAlpha" operator="out" result="shadowBlurOuter1"/><feColorMatrix values="0 0 0 0 0 0 0 0 0 0 0 0 0 0 0 0 0 0 0.230550699 0" in="shadowBlurOuter1"/></filter><filter x="-3.8%" y="-3.8%" width="107.6%" height="107.6%" filterUnits="objectBoundingBox" id="h"><feGaussianBlur stdDeviation="4.5" in="SourceAlpha" result="shadowBlurInner1"/><feOffset dy="1" in="shadowBlurInner1" result="shadowOffsetInner1"/><feComposite in="shadowOffsetInner1" in2="SourceAlpha" operator="arithmetic" k2="-1" k3="1" result="shadowInnerInner1"/><feColorMatrix values="0 0 0 0 0 0 0 0 0 0 0 0 0 0 0 0 0 0 0.301737325 0" in="shadowInnerInner1"/></filter><filter x="-8.3%" y="-6.8%" width="115%" height="115%" filterUnits="objectBoundingBox" id="i"><feMorphology radius=".5" operator="dilate" in="SourceAlpha" result="shadowSpreadOuter1"/><feOffset dx="-1" dy="1" in="shadowSpreadOuter1" result="shadowOffsetOuter1"/><feGaussianBlur stdDeviation="3" in="shadowOffsetOuter1" result="shadowBlurOuter1"/><feComposite in="shadowBlurOuter1" in2="SourceAlpha" operator="out" result="shadowBlurOuter1"/><feColorMatrix values="0 0 0 0 0 0 0 0 0 0 0 0 0 0 0 0 0 0 0.230550699 0" in="shadowBlurOuter1"/></filter><linearGradient x1="50.034%" y1="0%" x2="50.034%" y2="100%" id="a"><stop stop-color="#363D43" offset="0%"/><stop stop-color="#61676C" offset="49.557%"/><stop stop-color="#363D43" offset="100%"/></linearGradient><linearGradient x1=".453%" y1="50.403%" x2="99.615%" y2="50.403%" id="f"><stop stop-color="#AFACB1" offset="0%"/><stop stop-color="#BAB9BC" offset="28.499%"/><stop stop-color="#D9D8DA" offset="42.07%"/><stop stop-color="#F3F4F4" offset="58.437%"/><stop stop-color="#958F95" offset="100%"/></linearGradient><circle id="b" cx="436.044" cy="194" r="190"/><circle id="g" cx="436.544" cy="192.5" r="65.5"/><path d="M436.044 0c-107.143 0-194 86.857-194 194s86.857 194 194 194c107.144 0 194-86.857 194-194s-86.856-194-194-194zm0 4c104.934 0 190 85.066 190 190s-85.066 190-190 190-190-85.066-190-190 85.066-190 190-190z" id="e"/><path d="M436.544 126c-36.727 0-66.5 29.773-66.5 66.5 0 36.727 29.773 66.5 66.5 66.5 36.727 0 66.5-29.773 66.5-66.5 0-36.727-29.773-66.5-66.5-66.5zm0 2c35.623 0 64.5 28.878 64.5 64.5s-28.877 64.5-64.5 64.5c-35.622 0-64.5-28.878-64.5-64.5s28.878-64.5 64.5-64.5z" id="j"/></defs><g transform="translate(.956 6)" fill="none" fill-rule="evenodd"><g fill-rule="nonzero"><use fill="url(#a)" xlink:href="#b"/><use fill="#000" filter="url(#c)" xlink:href="#b"/></g><g fill-rule="nonzero"><use fill="#000" filter="url(#d)" xlink:href="#e"/><path stroke="#7F7F7F" stroke-width=".5" d="M436.044-.25c53.641 0 102.204 21.742 137.356 56.895 35.152 35.152 56.894 83.714 56.894 137.355 0 53.64-21.742 102.203-56.894 137.355-35.152 35.153-83.715 56.895-137.356 56.895-53.64 0-102.203-21.742-137.355-56.895-35.152-35.152-56.895-83.714-56.895-137.355 0-53.64 21.743-102.203 56.895-137.355C333.84 21.492 382.404-.25 436.044-.25zm0 4.5c-52.398 0-99.835 21.238-134.173 55.576-34.338 34.338-55.577 81.776-55.577 134.174 0 52.398 21.239 99.836 55.577 134.174 34.338 34.338 81.775 55.576 134.173 55.576 52.398 0 99.836-21.238 134.174-55.576 34.338-34.338 55.576-81.776 55.576-134.174 0-52.398-21.238-99.836-55.576-134.174C535.88 25.488 488.442 4.25 436.044 4.25z" fill="url(#f)" fill-rule="evenodd"/></g><circle stroke="#F0F0F0" stroke-width="1.5" cx="436.544" cy="194.5" r="108.5"/><path d="M471.281 116.351c-10.614-4.725-22.369-7.351-34.737-7.351-12.13 0-23.671 2.526-34.124 7.082m-29.21 20.98c-13.773 15.179-22.166 35.328-22.166 57.438 0 2.987.154 5.939.453 8.847m10.988 33.907c11.89 20.553 32.09 35.696 56.007 40.837m36.12-.004c24.1-5.184 44.427-20.528 56.276-41.327m10.786-34.247c.245-2.638.37-5.31.37-8.013 0-21.938-8.262-41.946-21.845-57.083" stroke="#9EA1A4"/><path d="M302.24 160.624a138.033 138.033 0 00-4.196 33.871c0 76.496 62.376 138.509 139.32 138.509 6.828 0 13.541-.489 20.107-1.432m74.731-36.432c26.996-25.31 43.842-61.174 43.842-100.942 0-15.948-2.709-31.268-7.695-45.531m-26.183-45.835C518.983 76.546 485.827 59.028 448.503 56m-61.778 8.968a139.99 139.99 0 00-44.838 27.9" stroke="#9EA1A4"/><circle stroke="#F0F0F0" stroke-width="1.5" cx="436.544" cy="194.5" r="152.5"/><path d="M469.72 36.41A162.188 162.188 0 00436.544 33c-47.627 0-90.44 20.617-119.999 53.413m-20.035 27.58c-13.655 23.7-21.466 51.191-21.466 80.507 0 29.313 7.81 56.801 21.461 80.5m19.763 27.28c29.569 32.974 72.5 53.72 120.276 53.72 3.321 0 4.619-.1 7.89-.298 1.44-.087 2.94-.193 4.478-.317 6.922-.56 14.588-1.498 20.785-2.791M501.9 342.23c51.708-22.91 89.14-72.17 95.262-130.747m.039-33.594c-6.008-58.793-43.551-108.25-95.441-131.18" stroke="#9EA1A4"/><path d="M436.544 377c100.792 0 182.5-81.708 182.5-182.5S537.336 12 436.544 12c-54.013 0-102.547 23.465-135.961 60.757a183.07 183.07 0 00-22.104 30.46c-15.54 26.851-24.435 58.028-24.435 91.283 0 100.792 81.708 182.5 182.5 182.5z" stroke="#F0F0F0" stroke-width="1.5"/><g fill-rule="nonzero"><use fill="url(#a)" xlink:href="#g"/><use fill="#000" filter="url(#h)" xlink:href="#g"/></g><g fill-rule="nonzero"><use fill="#000" filter="url(#i)" xlink:href="#j"/><path stroke="#7F7F7F" stroke-width=".5" d="M436.544 125.75c18.433 0 35.12 7.471 47.2 19.55 12.08 12.08 19.55 28.767 19.55 47.2 0 18.433-7.47 35.12-19.55 47.2-12.08 12.079-28.767 19.55-47.2 19.55-18.432 0-35.12-7.471-47.199-19.55-12.08-12.08-19.55-28.767-19.55-47.2 0-18.433 7.47-35.12 19.55-47.2 12.08-12.079 28.767-19.55 47.2-19.55zm0 2.5c-17.742 0-33.804 7.191-45.431 18.818-11.627 11.627-18.819 27.69-18.819 45.432s7.192 33.805 18.819 45.432c11.627 11.627 27.69 18.818 45.431 18.818 17.743 0 33.805-7.191 45.432-18.818 11.627-11.627 18.818-27.69 18.818-45.432s-7.191-33.805-18.818-45.432c-11.627-11.627-27.69-18.818-45.432-18.818z" fill="url(#f)" fill-rule="evenodd"/></g><path d="M448.544 55.5l-.867 6.012m-22.394 255.974l-1.193 19.996M476.044 56.5l-3.16 9.454-2.779 9.692m-70.767 246.795l-1.794 5.059M499.544 70l-2.435 4.533m-117.078 229.78l-8.487 18.187M524.044 81l-11.86 15.873M354.183 299.107L351.044 303M542.544 102.5l-4.98 3.523M343.01 275.146L328.044 288M560.544 122l-17.295 10.317M321.09 260.58l-4.547 2.92M569.044 149l-7.074 1.784m-242.36 83.45l-19.066 6.266M578.544 173.5l-19.771 3.317M304.55 212.546l-5.507.454M576.044 201l-6.997-.057M313.24 187.537l-20.196-1.037M575.544 229l-19.047-5.108m-249.499-62.207l-5.454-.685M563.044 253.5l-6.053-3.386m-232.164-108.26l-17.22-8.03M552.044 279l-15.292-12.313M532.544 295.5l-5.408-4.585M345.936 96.6l-4.392-4.101M371.523 89.501L361.044 73.5M352.044 84l-7.402-10.684M488.079 327.356l-6.81-17.738M388.924 69.047l-2.379-4.547M457.044 332l-1.513-5.998m-35.68-253.87L417.045 52.5M177.544 460v-5M177.544 480v-5M293.544 460v-5M293.544 480v-5M421.544 460v-5M421.544 480v-5M552.544 460v-5M552.544 480v-5M683.544 460v-5M683.544 480v-5" stroke="#9EA1A4"/><path stroke="#FFF" opacity=".5" stroke-linecap="square" d="M70.044 363l-60-.092.5-121.908"/><path stroke="#9EA1A4" d="M12.044 73h58.498l.502 408"/><path fill="#FFF" opacity=".5" d="M5.337 68v10.142l5.98-4.288-.028-1.586zM5.266 239.771h10.142l-5.07-7.071z"/><path d="M176.544 422v-6.04m0-14.594v-5.536l97.5-117.83M292.544 422v-6.04m0-14.594v-5.536l28.5-56.83c-1.091-1.814-1.424-3.147-1-4 .425-.853 1.592-1.186 3.5-1l7.246-14.956c-.95-1.12-1.198-2.135-.746-3.044.453-.909 1.405-1.305 2.855-1.19l2.645-5.31M420.544 422v-6.04m0-14.594V379.5c-1.333-.916-2-1.916-2-3s.667-2.25 2-3.5v-15c-1.333-.916-2-1.916-2-3s.667-2.25 2-3.5v-2c-1.333-1.167-2-2.333-2-3.5 0-1.167.667-2.333 2-3.5v-5M551.544 422v-6.04m0-14.594v-5.536l-24-39.83c1.214-1.172 1.464-2.359.75-3.56-.715-1.2-1.798-1.68-3.25-1.44l-.237-.39m-6.947-11.375l-1.082-1.772c.96-1.291 1.198-2.346.71-3.164-.487-.818-1.512-1.086-3.073-.803l-2.187-3.67c1.16-1.516 1.433-2.791.816-3.826-.616-1.035-1.837-1.352-3.663-.952L507.544 322c1.128-1.56 1.461-2.726 1-3.5-.46-.774-1.652-1.06-3.574-.857l-8.426-14.143M683.044 422v-6.04m0-14.594v-5.536l-104-83.83c.466-1.36.299-2.36-.5-3-.798-.64-1.798-.473-3 .5l-13-10.5c.345-1.457.178-2.457-.5-3-.677-.543-1.677-.376-3 .5l-3.493-2.858c.33-1.56.16-2.607-.507-3.142-.667-.535-1.667-.702-3-.5l-3-2.5c.206-1.235.04-2.068-.5-2.5-.808-.648-2.575.89-3.5 0-.924-.89.276-2.378-.5-3-.775-.622-2.5 1-3.5 0-.666-.667-1.833-1.667-3.5-3l-4.703-3.92c.237-1.365.138-2.226-.297-2.58-.434-.354-1.29-.273-2.569.245L519.045 264" stroke="#F0F0F0" stroke-width="1.5"/><path stroke="#9EA1A4" d="M71.544 480.5h612.5"/><circle stroke="#F0F0F0" stroke-width="1.5" cx="436.544" cy="194.5" r="123.5"/><circle stroke="#F0F0F0" stroke-width="1.5" cx="436.544" cy="194.5" r="143.5"/><path stroke="#979797" d="M576.044 192h13"/></g></svg>