<?xml version="1.0" encoding="UTF-8"?>
<svg width="769px" height="477px" viewBox="0 0 769 477" version="1.1" xmlns="http://www.w3.org/2000/svg" xmlns:xlink="http://www.w3.org/1999/xlink">
    <title>Schema-Tenuta-Gas-COCE-Messina-TC4</title>
    <defs>
        <linearGradient x1="50.0338387%" y1="99.9836364%" x2="50.0338387%" y2="-0.00448484849%" id="linearGradient-1">
            <stop stop-color="#8B878D" offset="0%"></stop>
            <stop stop-color="#9F9CA1" offset="13.66%"></stop>
            <stop stop-color="#D9D8DA" offset="42.07%"></stop>
            <stop stop-color="#F3F4F4" offset="51.52%"></stop>
            <stop stop-color="#807B80" offset="100%"></stop>
        </linearGradient>
        <linearGradient x1="50.0338387%" y1="100%" x2="50.0338387%" y2="0%" id="linearGradient-2">
            <stop stop-color="#363D43" offset="0%"></stop>
            <stop stop-color="#798085" offset="38.9754012%"></stop>
            <stop stop-color="#82888D" offset="63.7035473%"></stop>
            <stop stop-color="#363D43" offset="100%"></stop>
        </linearGradient>
        <polygon id="path-3" points="4 0 9 0 9.5 0 9.5 37 9.5 37.5 13.5 41 75.5 41 79.5 37.5 79.5 0 85 0 85 37.5 89 41 89 139.5 77.5 139.5 77.5 128.5 54.5 128.5 54.5 138.5 14.5 138.5 14.5 128.5 9.5 132 9.5 169.5 4 169.5 4 132 -1.13686838e-13 128.5 -1.13686838e-13 41 4 37.5"></polygon>
        <polygon id="path-5" points="4 0 9 0 9.5 0 9.5 37 9.5 37.5 13.5 41 75.5 41 79.5 37.5 79.5 0 85 0 85 37.5 89 41 89 139.5 77.5 139.5 77.5 128.5 54.5 128.5 54.5 138.5 14.5 138.5 14.5 128.5 9.5 132 9.5 169.5 4 169.5 4 132 -1.13686838e-13 128.5 -1.13686838e-13 41 4 37.5"></polygon>
        <linearGradient x1="0.452788603%" y1="50.4025862%" x2="99.6148889%" y2="50.4025862%" id="linearGradient-7">
            <stop stop-color="#AFACB1" offset="0%"></stop>
            <stop stop-color="#BAB9BC" offset="28.4987728%"></stop>
            <stop stop-color="#D9D8DA" offset="42.07%"></stop>
            <stop stop-color="#F3F4F4" offset="58.4371217%"></stop>
            <stop stop-color="#958F95" offset="100%"></stop>
        </linearGradient>
        <path d="M510,121 L517.5,121 L517.5,159.157154 L520.875735,162.119534 L582.124265,162.119534 L585.5,159.157154 L585.5,121 L593,121 L593,159.157154 L597,162.667358 L597,262.912536 L583.5,262.912536 L583.5,251.880466 L562.5,251.880466 L562.5,261.909621 L520.5,261.909621 L520.5,252.803806 L517.5,254.909929 L517.5,293 L510,293 L510,254.842846 L506,251.332642 L506,162.667358 L510,159.157154 L510,121 Z M585.841495,158.857474 L585.5,159.612245 L585.5,159.157154 L585.841495,158.857474 Z M582.5,162.119534 L581.841495,162.367678 L582.124265,162.119534 L582.5,162.119534 Z M512,123.005831 L512,160.067336 L508,163.57754 L508,250.42246 L512,253.932664 L512,290.994169 L515.5,290.994169 L515.5,253.865582 L522.5,248.951296 L522.5,259.90379 L560.5,259.90379 L560.5,249.874636 L585.5,249.874636 L585.5,260.906706 L595,260.906706 L595,163.57754 L591,160.067336 L591,123.005831 L587.5,123.005831 L587.5,160.067336 L582.875735,164.125364 L520.124265,164.125364 L515.5,160.067336 L515.5,123.005831 L512,123.005831 Z" id="path-8"></path>
        <filter x="-11.5%" y="-4.9%" width="120.9%" height="111.0%" filterUnits="objectBoundingBox" id="filter-9">
            <feOffset dx="-1" dy="1" in="SourceAlpha" result="shadowOffsetOuter1"></feOffset>
            <feGaussianBlur stdDeviation="3" in="shadowOffsetOuter1" result="shadowBlurOuter1"></feGaussianBlur>
            <feColorMatrix values="0 0 0 0 0   0 0 0 0 0   0 0 0 0 0  0 0 0 0.230550699 0" type="matrix" in="shadowBlurOuter1"></feColorMatrix>
        </filter>
        <rect id="path-10" x="0" y="0" width="24" height="7"></rect>
        <rect id="path-12" x="0" y="0" width="24" height="8"></rect>
        <linearGradient x1="50.0338387%" y1="99.72501%" x2="50.0338387%" y2="-0.00448484849%" id="linearGradient-14">
            <stop stop-color="#656266" offset="0%"></stop>
            <stop stop-color="#9F9CA1" offset="13.66%"></stop>
            <stop stop-color="#D9D8DA" offset="42.07%"></stop>
            <stop stop-color="#F3F4F4" offset="51.52%"></stop>
            <stop stop-color="#807B80" offset="100%"></stop>
        </linearGradient>
        <linearGradient x1="50.0338387%" y1="99.72501%" x2="50.0338387%" y2="-0.00448484849%" id="linearGradient-15">
            <stop stop-color="#656266" offset="0%"></stop>
            <stop stop-color="#9F9CA1" offset="13.66%"></stop>
            <stop stop-color="#D9D8DA" offset="42.07%"></stop>
            <stop stop-color="#F3F4F4" offset="51.52%"></stop>
            <stop stop-color="#807B80" offset="100%"></stop>
        </linearGradient>
        <rect id="path-16" x="0" y="0" width="24" height="7"></rect>
        <rect id="path-18" x="0" y="0" width="24" height="8"></rect>
        <linearGradient x1="50.0338387%" y1="99.72501%" x2="50.0338387%" y2="-0.00448484849%" id="linearGradient-20">
            <stop stop-color="#656266" offset="0%"></stop>
            <stop stop-color="#9F9CA1" offset="13.66%"></stop>
            <stop stop-color="#D9D8DA" offset="42.07%"></stop>
            <stop stop-color="#F3F4F4" offset="51.52%"></stop>
            <stop stop-color="#807B80" offset="100%"></stop>
        </linearGradient>
        <circle id="path-21" cx="12.5" cy="12.5" r="12.5"></circle>
        <circle id="path-23" cx="12.5" cy="12.5" r="12.5"></circle>
        <linearGradient x1="50.0338387%" y1="99.72501%" x2="50.0338387%" y2="-0.00448484849%" id="linearGradient-25">
            <stop stop-color="#656266" offset="0%"></stop>
            <stop stop-color="#9F9CA1" offset="13.66%"></stop>
            <stop stop-color="#D9D8DA" offset="42.07%"></stop>
            <stop stop-color="#F3F4F4" offset="51.52%"></stop>
            <stop stop-color="#807B80" offset="100%"></stop>
        </linearGradient>
        <linearGradient x1="50.0338387%" y1="99.72501%" x2="50.0338387%" y2="-0.00448484849%" id="linearGradient-26">
            <stop stop-color="#656266" offset="0%"></stop>
            <stop stop-color="#9F9CA1" offset="13.66%"></stop>
            <stop stop-color="#D9D8DA" offset="42.07%"></stop>
            <stop stop-color="#F3F4F4" offset="51.52%"></stop>
            <stop stop-color="#807B80" offset="100%"></stop>
        </linearGradient>
        <linearGradient x1="50.0338387%" y1="99.72501%" x2="50.0338387%" y2="-0.00448484849%" id="linearGradient-27">
            <stop stop-color="#656266" offset="0%"></stop>
            <stop stop-color="#9F9CA1" offset="13.66%"></stop>
            <stop stop-color="#D9D8DA" offset="42.07%"></stop>
            <stop stop-color="#F3F4F4" offset="51.52%"></stop>
            <stop stop-color="#807B80" offset="100%"></stop>
        </linearGradient>
        <linearGradient x1="50.0338387%" y1="99.72501%" x2="50.0338387%" y2="-0.00448484849%" id="linearGradient-28">
            <stop stop-color="#656266" offset="0%"></stop>
            <stop stop-color="#9F9CA1" offset="13.66%"></stop>
            <stop stop-color="#D9D8DA" offset="42.07%"></stop>
            <stop stop-color="#F3F4F4" offset="51.52%"></stop>
            <stop stop-color="#807B80" offset="100%"></stop>
        </linearGradient>
        <linearGradient x1="50.0338387%" y1="99.72501%" x2="50.0338387%" y2="-0.00448484849%" id="linearGradient-29">
            <stop stop-color="#656266" offset="0%"></stop>
            <stop stop-color="#9F9CA1" offset="13.66%"></stop>
            <stop stop-color="#D9D8DA" offset="42.07%"></stop>
            <stop stop-color="#F3F4F4" offset="51.52%"></stop>
            <stop stop-color="#807B80" offset="100%"></stop>
        </linearGradient>
        <linearGradient x1="50.0338387%" y1="99.9836364%" x2="50.0338387%" y2="-0.00448484849%" id="linearGradient-30">
            <stop stop-color="#212F42" offset="0%"></stop>
            <stop stop-color="#004C97" offset="51.52%"></stop>
            <stop stop-color="#213042" offset="100%"></stop>
        </linearGradient>
        <path d="M155,121 L162.5,121 L162.5,159.157154 L165.875735,162.119534 L227.124265,162.119534 L230.5,159.157154 L230.5,121 L238,121 L238,159.157154 L242,162.667358 L242,262.912536 L228.5,262.912536 L228.5,251.880466 L207.5,251.880466 L207.5,261.909621 L165.5,261.909621 L165.5,252.803806 L162.5,254.909929 L162.5,293 L155,293 L155,254.842846 L151,251.332642 L151,162.667358 L155,159.157154 L155,121 Z M157,123.005831 L157,160.067336 L153,163.57754 L153,250.42246 L157,253.932664 L157,290.994169 L160.5,290.994169 L160.5,253.865582 L167.5,248.951296 L167.5,259.90379 L205.5,259.90379 L205.5,249.874636 L230.5,249.874636 L230.5,260.906706 L240,260.906706 L240,163.57754 L236,160.067336 L236,123.005831 L232.5,123.005831 L232.5,160.067336 L227.875735,164.125364 L165.124265,164.125364 L160.5,160.067336 L160.5,123.005831 L157,123.005831 Z" id="path-31"></path>
        <filter x="-11.5%" y="-4.9%" width="120.9%" height="111.0%" filterUnits="objectBoundingBox" id="filter-32">
            <feOffset dx="-1" dy="1" in="SourceAlpha" result="shadowOffsetOuter1"></feOffset>
            <feGaussianBlur stdDeviation="3" in="shadowOffsetOuter1" result="shadowBlurOuter1"></feGaussianBlur>
            <feColorMatrix values="0 0 0 0 0   0 0 0 0 0   0 0 0 0 0  0 0 0 0.230550699 0" type="matrix" in="shadowBlurOuter1"></feColorMatrix>
        </filter>
        <linearGradient x1="50.0338387%" y1="99.4302015%" x2="50.0338387%" y2="-0.00448484849%" id="linearGradient-33">
            <stop stop-color="#514E52" offset="0%"></stop>
            <stop stop-color="#F3F4F4" offset="50.7232466%"></stop>
            <stop stop-color="#514E52" offset="100%"></stop>
        </linearGradient>
        <path d="M3.28863201,29.4056689 L161.288632,0.851452047 C163.462555,0.458574353 165.543359,1.90239704 165.936236,4.07632028 C165.97866,4.3110672 166,4.54913864 166,4.78768827 L166,114.212312 C166,116.421451 164.209139,118.212312 162,118.212312 C161.76145,118.212312 161.523379,118.190972 161.288632,118.148548 L3.28863201,89.5943311 C1.38472924,89.2502523 2.36937856e-16,87.5928393 0,85.6580949 L0,33.3419051 C-2.36937856e-16,31.4071607 1.38472924,29.7497477 3.28863201,29.4056689 Z" id="path-34"></path>
        <linearGradient x1="50.0338387%" y1="99.9836364%" x2="50.0338387%" y2="-0.00448484849%" id="linearGradient-36">
            <stop stop-color="#8B878D" offset="0%"></stop>
            <stop stop-color="#F3F4F4" offset="50.5701014%"></stop>
            <stop stop-color="#807B80" offset="100%"></stop>
        </linearGradient>
        <linearGradient x1="0.0338387319%" y1="50%" x2="100.033839%" y2="50%" id="linearGradient-37">
            <stop stop-color="#363D43" offset="0%"></stop>
            <stop stop-color="#798085" offset="49.3876689%"></stop>
            <stop stop-color="#363D43" offset="100%"></stop>
        </linearGradient>
        <path d="M52,-27 C63.5979797,-27 73,-17.5979797 73,-6 L73,52 C73,63.5979797 63.5979797,73 52,73 C40.4020203,73 31,63.5979797 31,52 L31,-6 C31,-17.5979797 40.4020203,-27 52,-27 Z" id="path-38"></path>
        <filter x="-11.9%" y="-5.0%" width="123.8%" height="110.0%" filterUnits="objectBoundingBox" id="filter-39">
            <feGaussianBlur stdDeviation="4.5" in="SourceAlpha" result="shadowBlurInner1"></feGaussianBlur>
            <feOffset dx="0" dy="1" in="shadowBlurInner1" result="shadowOffsetInner1"></feOffset>
            <feComposite in="shadowOffsetInner1" in2="SourceAlpha" operator="arithmetic" k2="-1" k3="1" result="shadowInnerInner1"></feComposite>
            <feColorMatrix values="0 0 0 0 0   0 0 0 0 0   0 0 0 0 0  0 0 0 0.301737325 0" type="matrix" in="shadowInnerInner1"></feColorMatrix>
        </filter>
        <linearGradient x1="0.452788603%" y1="50.4025862%" x2="99.6148889%" y2="50.4025862%" id="linearGradient-40">
            <stop stop-color="#AFACB1" offset="0%"></stop>
            <stop stop-color="#BAB9BC" offset="28.4987728%"></stop>
            <stop stop-color="#D9D8DA" offset="42.07%"></stop>
            <stop stop-color="#F3F4F4" offset="58.4371217%"></stop>
            <stop stop-color="#958F95" offset="100%"></stop>
        </linearGradient>
        <path d="M52,-28 C39.8497355,-28 30,-18.1502645 30,-6 L30,52 C30,64.1502645 39.8497355,74 52,74 C64.1502645,74 74,64.1502645 74,52 L74,-6 C74,-18.1502645 64.1502645,-28 52,-28 Z M52,-26 C63.045695,-26 72,-17.045695 72,-6 L72,52 C72,63.045695 63.045695,72 52,72 C40.954305,72 32,63.045695 32,52 L32,-6 C32,-17.045695 40.954305,-26 52,-26 Z" id="path-41"></path>
        <filter x="-23.9%" y="-8.3%" width="143.2%" height="118.6%" filterUnits="objectBoundingBox" id="filter-42">
            <feOffset dx="-1" dy="1" in="SourceAlpha" result="shadowOffsetOuter1"></feOffset>
            <feGaussianBlur stdDeviation="3" in="shadowOffsetOuter1" result="shadowBlurOuter1"></feGaussianBlur>
            <feColorMatrix values="0 0 0 0 0   0 0 0 0 0   0 0 0 0 0  0 0 0 0.230550699 0" type="matrix" in="shadowBlurOuter1"></feColorMatrix>
        </filter>
        <linearGradient x1="50.0338387%" y1="99.72501%" x2="50.0338387%" y2="-0.00448484849%" id="linearGradient-43">
            <stop stop-color="#656266" offset="0%"></stop>
            <stop stop-color="#9F9CA1" offset="13.66%"></stop>
            <stop stop-color="#D9D8DA" offset="42.07%"></stop>
            <stop stop-color="#F3F4F4" offset="51.52%"></stop>
            <stop stop-color="#807B80" offset="100%"></stop>
        </linearGradient>
        <linearGradient x1="100%" y1="63.6781473%" x2="39.9235865%" y2="0%" id="linearGradient-44">
            <stop stop-color="#656266" offset="0%"></stop>
            <stop stop-color="#F3F4F4" offset="48.5213688%"></stop>
            <stop stop-color="#807B80" offset="100%"></stop>
        </linearGradient>
        <rect id="path-45" x="0" y="0" width="24" height="7"></rect>
        <rect id="path-47" x="0" y="0" width="24" height="8"></rect>
        <rect id="path-49" x="0" y="0" width="24" height="7"></rect>
        <rect id="path-51" x="0" y="0" width="24" height="8"></rect>
    </defs>
    <g id="Page-1" stroke="none" stroke-width="1" fill="none" fill-rule="evenodd">
        <g id="Assets-Messina" transform="translate(-251.000000, -5049.000000)">
            <g id="Schema-Tenuta-Gas-COCE-Messina-TC4" transform="translate(252.000000, 5049.000000)">
                <path d="M708.5,122.5 L708.5,290.5 L39.5,290.5 L39.5,122.5 L708.5,122.5 Z" id="Combined-Shape" stroke="#364B65" fill="#526C91" opacity="0.400000006"></path>
                <rect id="Combined-Shape" stroke="#636262" stroke-width="0.5" fill="url(#linearGradient-1)" fill-rule="nonzero" x="59" y="203" width="630" height="8"></rect>
                <polyline id="Path-3" stroke="#607C99" stroke-linecap="square" points="88 163 88 193 91.6896962 201 95.3793925 193 99.0690887 201 103.168751 193 106.858447 201 110.548144 193 114.647806 201 117.927536 193 117.927536 163 122 163"></polyline>
                <polyline id="Path-3-Copy-4" stroke="#607C99" stroke-linecap="square" points="275 163 275 175.089385 278.69863 183 282.39726 175.089385 286.09589 183 290.205479 175.089385 293.90411 183 297.60274 175.089385 301.712329 183 305 175.089385 305 163"></polyline>
                <polyline id="Path-3-Copy-6" stroke="#607C99" stroke-linecap="square" transform="translate(290.000000, 260.500000) scale(1, -1) translate(-290.000000, -260.500000) " points="275 232 275 281.089385 278.69863 289 282.39726 281.089385 286.09589 289 290.205479 281.089385 293.90411 289 297.60274 281.089385 301.712329 289 305 281.089385 305 271"></polyline>
                <polyline id="Path-3-Copy-2" stroke="#607C99" stroke-linecap="square" transform="translate(103.000000, 251.000000) scale(1, -1) translate(-103.000000, -251.000000) " points="88 251.609589 88 281.917808 91.6986301 290 95.3972603 281.917808 99.0958904 290 103.205479 281.917808 106.90411 290 110.60274 281.917808 114.712329 290 118 281.917808 118 212"></polyline>
                <g id="Combined-Shape" transform="translate(507.000000, 122.000000)">
                    <mask id="mask-4" fill="white">
                        <use xlink:href="#path-3"></use>
                    </mask>
                    <use id="Mask" fill="url(#linearGradient-2)" fill-rule="nonzero" xlink:href="#path-3"></use>
                </g>
                <g id="Combined-Shape-Copy" transform="translate(196.500000, 207.000000) scale(-1, 1) translate(-196.500000, -207.000000) translate(152.000000, 122.000000)">
                    <mask id="mask-6" fill="white">
                        <use xlink:href="#path-5"></use>
                    </mask>
                    <use id="Mask" fill="url(#linearGradient-2)" fill-rule="nonzero" xlink:href="#path-5"></use>
                </g>
                <polyline id="Shape-Copy-5" stroke="#FFCC01" stroke-width="1.5" stroke-linecap="square" transform="translate(374.500000, 303.500000) rotate(-270.000000) translate(-374.500000, -303.500000) " points="363 164 386 164 386 443 363 443"></polyline>
                <polyline id="Shape-Copy-11" stroke="#50B4E4" stroke-width="1.5" stroke-linecap="square" transform="translate(419.000000, 211.000000) scale(1, -1) rotate(-270.000000) translate(-419.000000, -211.000000) " points="312 -87 423.5 -87 526 -87 526 509 468 509"></polyline>
                <polyline id="Shape-Copy-6" stroke="#FFCC01" stroke-width="1.5" stroke-linecap="square" transform="translate(376.000000, 393.500000) rotate(-360.000000) translate(-376.000000, -393.500000) " points="356 354 396 354 396 433 356 433"></polyline>
                <polyline id="Shape-Copy-7" stroke="#50B4E4" stroke-width="1.5" stroke-linecap="square" transform="translate(601.500000, 433.500000) rotate(-270.000000) translate(-601.500000, -433.500000) " points="593 409 610 409 610 458 593 458"></polyline>
                <polyline id="Shape-Copy-9" stroke="#50B4E4" stroke-width="1.5" stroke-linecap="square" transform="translate(570.000000, 448.000000) rotate(-270.000000) translate(-570.000000, -448.000000) " points="564 417 576 417 576 479"></polyline>
                <polyline id="Shape-Copy-8" stroke="#50B4E4" stroke-width="1.5" stroke-linecap="square" transform="translate(601.500000, 397.500000) scale(1, -1) rotate(-270.000000) translate(-601.500000, -397.500000) " points="574 373 629 373 629 422 574 422"></polyline>
                <path d="M671,312 L685,312 L685,361.5 M685,385.5 L685,415" id="Shape-Copy-10" stroke="#50B4E4" stroke-width="1.5" stroke-linecap="square" transform="translate(678.000000, 363.500000) rotate(-270.000000) translate(-678.000000, -363.500000) "></path>
                <polyline id="Path-3-Copy" stroke="#607C99" stroke-linecap="square" points="122 163.798378 122 192.957553 125.636986 201 129.273973 192.957553 132.910959 201 136.952055 192.957553 140.589041 201 144.226027 192.957553 148.267123 201 151.5 192.957553 151.5 162.798378 155.5 159.31559 155.5 122 161 122 161 159.31559 165 162.798378 196 162.798378"></polyline>
                <polyline id="Path-3-Copy-3" stroke="#607C99" stroke-linecap="square" transform="translate(154.000000, 251.000000) scale(1, -1) translate(-154.000000, -251.000000) " points="122 212 122 281.917808 125.636986 290 129.273973 281.917808 132.910959 290 136.952055 281.917808 140.589041 290 144.226027 281.917808 148.267123 290 151.5 281.917808 151.5 251.609589 151.5 240.5 163 240.5 163 251.609589 186 251.5 186 241.5"></polyline>
                <polyline id="Path-3-Copy" stroke="#607C99" stroke-linecap="square" transform="translate(233.000000, 161.500000) scale(-1, 1) translate(-233.000000, -161.500000) " points="196 162.798378 196 192.957553 199.636986 201 203.273973 192.957553 206.910959 201 210.952055 192.957553 214.589041 201 218.226027 192.957553 222.267123 201 225.5 192.957553 225.5 162.798378 229.5 159.31559 229.5 122 235 122 235 159.31559 239 162.798378 270 162.798378"></polyline>
                <polyline id="Path-3-Copy-5" stroke="#607C99" stroke-linecap="square" transform="translate(230.500000, 251.500000) scale(-1, -1) translate(-230.500000, -251.500000) " points="186 213.689328 191 213.798378 191 282.957553 194.636986 291 198.273973 282.957553 201.910959 291 205.952055 282.957553 209.589041 291 213.226027 282.957553 217.267123 291 220.5 282.957553 220.5 252.798378 224.5 249.31559 224.5 212 230 212 230 249.31559 235 252.689328 235 242.847554 275 242.847554"></polyline>
                <polyline id="Path-3" stroke="#607C99" stroke-linecap="square" transform="translate(643.000000, 182.000000) scale(-1, 1) translate(-643.000000, -182.000000) " points="626 163 626 193 629.689696 201 633.379392 193 637.069089 201 641.168751 193 644.858447 201 648.548144 193 652.647806 201 655.927536 193 655.927536 163 660 163"></polyline>
                <polyline id="Path-3-Copy-2" stroke="#607C99" stroke-linecap="square" transform="translate(645.000000, 251.000000) scale(-1, -1) translate(-645.000000, -251.000000) " points="630 251.609589 630 281.917808 633.69863 290 637.39726 281.917808 641.09589 290 645.205479 281.917808 648.90411 290 652.60274 281.917808 656.712329 290 660 281.917808 660 212"></polyline>
                <polyline id="Path-3-Copy" stroke="#607C99" stroke-linecap="square" transform="translate(589.000000, 161.500000) scale(-1, 1) translate(-589.000000, -161.500000) " points="552 163.798378 552 192.957553 555.636986 201 559.273973 192.957553 562.910959 201 566.952055 192.957553 570.589041 201 574.226027 192.957553 578.267123 201 581.5 192.957553 581.5 162.798378 585.5 159.31559 585.5 122 591 122 591 159.31559 595 162.798378 626 162.798378"></polyline>
                <polyline id="Path-3-Copy-3" stroke="#607C99" stroke-linecap="square" transform="translate(594.000000, 251.000000) scale(-1, -1) translate(-594.000000, -251.000000) " points="562 212 562 281.917808 565.636986 290 569.273973 281.917808 572.910959 290 576.952055 281.917808 580.589041 290 584.226027 281.917808 588.267123 290 591.5 281.917808 591.5 251.609589 591.5 240.5 603 240.5 603 251.609589 626 251.5 626 241.5"></polyline>
                <polyline id="Path-3-Copy" stroke="#607C99" stroke-linecap="square" points="478 162.798378 478 192.957553 481.636986 201 485.273973 192.957553 488.910959 201 492.952055 192.957553 496.589041 201 500.226027 192.957553 504.267123 201 507.5 192.957553 507.5 162.798378 511.5 159.31559 511.5 122 517 122 517 159.31559 521 162.798378 552 162.798378"></polyline>
                <polyline id="Path-3-Copy-5" stroke="#607C99" stroke-linecap="square" transform="translate(518.000000, 251.500000) scale(1, -1) translate(-518.000000, -251.500000) " points="474 240 474 214 478 214 478 282.957553 481.636986 291 485.273973 282.957553 488.910959 291 492.952055 282.957553 496.589041 291 500.226027 282.957553 504.267123 291 507.5 282.957553 507.5 252.798378 511.5 249.31559 511.5 212 517 212 517 249.31559 522 252.689328 522 242.847554 562 242.847554"></polyline>
                <g id="Mask" fill-rule="nonzero">
                    <use fill="black" fill-opacity="1" filter="url(#filter-9)" xlink:href="#path-8"></use>
                    <use fill="url(#linearGradient-7)" xlink:href="#path-8"></use>
                </g>
                <g id="Group-10" transform="translate(666.000000, 361.000000) scale(1, -1) translate(-666.000000, -361.000000) translate(647.000000, 343.000000)">
                    <g id="Group-8" transform="translate(8.489592, 8.489592)">
                        <g id="Combined-Shape-Copy-5">
                            <mask id="mask-11" fill="white">
                                <use xlink:href="#path-10"></use>
                            </mask>
                            <g id="Mask"></g>
                        </g>
                        <g id="Combined-Shape-Copy-4" transform="translate(0.000000, 7.000000)">
                            <mask id="mask-13" fill="white">
                                <use xlink:href="#path-12"></use>
                            </mask>
                            <g id="Mask"></g>
                            <path d="M23.426468,-6.75016079 C23.6379998,-5.86798442 23.75,-4.94710862 23.75,-4.00007175 C23.75,-0.755398847 22.4348365,2.18210115 20.3085047,4.30843293 C18.1821729,6.4347647 15.2446729,7.74992825 12,7.74992825 C8.75532709,7.74992825 5.81782709,6.4347647 3.69149532,4.30843293 C1.56516355,2.18210115 0.25,-0.755398847 0.25,-4.00007175 C0.25,-4.94710862 0.362000151,-5.86798442 0.573531962,-6.75016079 L0.573531962,-6.75016079 Z" stroke="#2C405A" stroke-width="0.5" fill="url(#linearGradient-14)" fill-rule="nonzero" mask="url(#mask-13)"></path>
                        </g>
                    </g>
                    <polygon id="Path" fill="#A1A9B4" points="20 34.5 1 34.5 1 19.25 20 10 20 31 21 31 21 8 0 18.75 0 35.5 21 35.5 21 31 20 31"></polygon>
                    <path d="M27.9493849,3.072509 L34.5889448,9.71206891 L23.3668274,14.2946264 L27.9493849,3.072509 Z" id="Rectangle" stroke="#2C405A" stroke-width="0.5" fill="url(#linearGradient-15)" fill-rule="nonzero" transform="translate(28.971068, 8.690386) rotate(-315.000000) translate(-28.971068, -8.690386) "></path>
                    <path d="M10.9493849,3.072509 L17.5889448,9.71206891 L6.36682742,14.2946264 L10.9493849,3.072509 Z" id="Rectangle-Copy-3" stroke="#2C405A" stroke-width="0.5" fill="url(#linearGradient-15)" fill-rule="nonzero" transform="translate(11.971068, 8.690386) scale(-1, 1) rotate(-315.000000) translate(-11.971068, -8.690386) "></path>
                    <polygon id="Line-5" fill="#9AA9B7" fill-rule="nonzero" points="19.9895924 8.98959236 19.9895924 15.9895924 20.9895924 15.9895924 20.9895924 8.98959236"></polygon>
                </g>
                <path d="M235,122 L235.18995,78.6913399 M235.295405,54.6476558 L235.5,8" id="Shape" stroke="#FCFCFC" stroke-width="1.5" stroke-linecap="square"></path>
                <polyline id="Line-12-Copy-8" stroke="#FFCC01" stroke-width="1.5" stroke-linecap="square" points="159 121 159 93.5 109 93.5 109 8"></polyline>
                <polyline id="Line-12-Copy-10" stroke="#FFCC01" stroke-width="1.5" stroke-linecap="square" transform="translate(614.000000, 64.500000) scale(-1, 1) translate(-614.000000, -64.500000) " points="639 121 639 93.5 589 93.5 589 8"></polyline>
                <line x1="628.25" y1="162" x2="628.75" y2="105" id="Line-12-Copy-7" stroke="#50B4E4" stroke-width="1.5" stroke-linecap="square"></line>
                <path d="M13,395 L37,395 L37,431.5 M37,444.5 L37,448 L13,448" id="Shape-Copy-13" stroke="#FFCC01" stroke-width="1.5" stroke-linecap="square" transform="translate(25.000000, 421.500000) scale(-1, 1) translate(-25.000000, -421.500000) "></path>
                <path d="M27,395 L51,395 L51,431 M51,444.5 L51,448 L27,448" id="Shape-Copy-14" stroke="#FFCC01" stroke-width="1.5" stroke-linecap="square"></path>
                <path d="M116,230 L184,230 M207.5,230 L272,230 L272,555 L249,555" id="Shape-Copy-4" stroke="#FFCC01" stroke-width="1.5" stroke-linecap="square" transform="translate(194.000000, 392.500000) rotate(-270.000000) translate(-194.000000, -392.500000) "></path>
                <polygon id="Rectangle-Copy-21" fill="#FFCB00" transform="translate(109.071068, 6.292893) rotate(-585.000000) translate(-109.071068, -6.292893) " points="106.192388 2 113.363961 9.17157288 104.778175 10.5857864"></polygon>
                <polygon id="Rectangle-Copy-36" fill="#FCFCFC" transform="translate(235.071068, 6.292893) rotate(-585.000000) translate(-235.071068, -6.292893) " points="232.192388 2 239.363961 9.17157288 230.778175 10.5857864"></polygon>
                <polygon id="Rectangle-Copy-38" fill="#FCFCFC" transform="translate(513.292893, 6.292893) rotate(-585.000000) translate(-513.292893, -6.292893) " points="510.414214 2 517.585786 9.17157288 509 10.5857864"></polygon>
                <polygon id="Rectangle-Copy-22" fill="#FFCB00" transform="translate(639.071068, 6.292893) rotate(-585.000000) translate(-639.071068, -6.292893) " points="636.192388 2 643.363961 9.17157288 634.778175 10.5857864"></polygon>
                <polygon id="Rectangle" fill="#FFDA00" transform="translate(31.292893, 304.928932) scale(1, -1) rotate(-585.000000) translate(-31.292893, -304.928932) " points="28.4142136 300.636039 35.5857864 307.807612 27 309.221825"></polygon>
                <polygon id="Rectangle-Copy-13" fill="#FFCB00" transform="translate(356.071068, 454.292893) rotate(-585.000000) translate(-356.071068, -454.292893) " points="353.192388 450 360.363961 457.171573 351.778175 458.585786"></polygon>
                <polygon id="Rectangle-Copy-17" fill="#FFCB00" transform="translate(190.292893, 470.292893) rotate(-135.000000) translate(-190.292893, -470.292893) " points="187.414214 466 194.585786 473.171573 186 474.585786"></polygon>
                <polygon id="Rectangle-Copy-16" fill="#FFCB00" transform="translate(356.071068, 337.292893) rotate(-585.000000) translate(-356.071068, -337.292893) " points="353.192388 333 360.363961 340.171573 351.778175 341.585786"></polygon>
                <polygon id="Rectangle-Copy-20" fill="#50B4E4" transform="translate(716.292893, 301.292893) rotate(-585.000000) translate(-716.292893, -301.292893) " points="713.414214 297 720.585786 304.171573 712 305.585786"></polygon>
                <polygon id="Rectangle-Copy-19" fill="#50B4E4" transform="translate(537.071068, 454.071068) rotate(-135.000000) translate(-537.071068, -454.071068) " points="534.192388 449.778175 541.363961 456.949747 532.778175 458.363961"></polygon>
                <g id="Group-10-Copy" transform="translate(352.500000, 394.000000) scale(1, -1) rotate(-270.000000) translate(-352.500000, -394.000000) translate(335.000000, 382.000000)">
                    <g id="Group-8" transform="translate(5.489592, 8.489592)">
                        <g id="Combined-Shape-Copy-5">
                            <mask id="mask-17" fill="white">
                                <use xlink:href="#path-16"></use>
                            </mask>
                            <g id="Mask"></g>
                        </g>
                        <g id="Combined-Shape-Copy-4" transform="translate(0.000000, 7.000000)">
                            <mask id="mask-19" fill="white">
                                <use xlink:href="#path-18"></use>
                            </mask>
                            <g id="Mask"></g>
                            <path d="M23.426468,-6.75016079 C23.6379998,-5.86798442 23.75,-4.94710862 23.75,-4.00007175 C23.75,-0.755398847 22.4348365,2.18210115 20.3085047,4.30843293 C18.1821729,6.4347647 15.2446729,7.74992825 12,7.74992825 C8.75532709,7.74992825 5.81782709,6.4347647 3.69149532,4.30843293 C1.56516355,2.18210115 0.25,-0.755398847 0.25,-4.00007175 C0.25,-4.94710862 0.362000151,-5.86798442 0.573531962,-6.75016079 L0.573531962,-6.75016079 Z" stroke="#2C405A" stroke-width="0.5" fill="url(#linearGradient-20)" fill-rule="nonzero" mask="url(#mask-19)"></path>
                        </g>
                    </g>
                    <path d="M24.5285696,3.072509 L31.1681295,9.71206891 L19.9460121,14.2946264 L24.5285696,3.072509 Z" id="Rectangle" stroke="#2C405A" stroke-width="0.5" fill="url(#linearGradient-15)" fill-rule="nonzero" transform="translate(25.550253, 8.690386) rotate(-315.000000) translate(-25.550253, -8.690386) "></path>
                    <path d="M8.03897725,3.072509 L14.6785372,9.71206891 L3.45641978,14.2946264 L8.03897725,3.072509 Z" id="Rectangle-Copy-3" stroke="#2C405A" stroke-width="0.5" fill="url(#linearGradient-15)" fill-rule="nonzero" transform="translate(9.060660, 8.690386) scale(-1, 1) rotate(-315.000000) translate(-9.060660, -8.690386) "></path>
                    <polygon id="Line-5" fill="#A1A9B4" points="16.9895924 8.5 16.9895924 15.5 17.9895924 15.5 17.9895924 8.5"></polygon>
                </g>
                <g id="Group-11-Copy-5" transform="translate(0.000000, 402.000000)">
                    <g id="Group-3" transform="translate(0.525000, 0.525000)">
                        <mask id="mask-22" fill="white">
                            <use xlink:href="#path-21"></use>
                        </mask>
                        <use id="Mask" fill="#FFFFFF" xlink:href="#path-21"></use>
                        <g mask="url(#mask-22)" fill="#FFCB00" id="Combined-Shape">
                            <g transform="translate(-51.900000, -31.650000)">
                                <path d="M87.6105302,-1.70530257e-13 L88.3529923,0.74246212 L0.74246212,88.3529923 L2.27373675e-13,87.6105302 L87.6105302,-1.70530257e-13 Z M93.7475282,-1.70530257e-13 L94.4899904,0.74246212 L6.87946017,88.3529923 L6.13699805,87.6105302 L93.7475282,-1.70530257e-13 Z M100.047528,-1.70530257e-13 L100.78999,0.74246212 L13.1794602,88.3529923 L12.436998,87.6105302 L100.047528,-1.70530257e-13 Z M106.347528,-1.70530257e-13 L107.08999,0.74246212 L19.4794602,88.3529923 L18.736998,87.6105302 L106.347528,-1.70530257e-13 Z M112.647528,-1.70530257e-13 L113.38999,0.74246212 L25.7794602,88.3529923 L25.036998,87.6105302 L112.647528,-1.70530257e-13 Z M118.947528,-1.70530257e-13 L119.68999,0.74246212 L32.0794602,88.3529923 L31.336998,87.6105302 L118.947528,-1.70530257e-13 Z M125.247528,-1.70530257e-13 L125.98999,0.74246212 L38.3794602,88.3529923 L37.636998,87.6105302 L125.247528,-1.70530257e-13 Z M131.547528,-1.70530257e-13 L132.28999,0.74246212 L44.6794602,88.3529923 L43.936998,87.6105302 L131.547528,-1.70530257e-13 Z M137.847528,-1.70530257e-13 L138.58999,0.74246212 L50.9794602,88.3529923 L50.236998,87.6105302 L137.847528,-1.70530257e-13 Z"></path>
                                <path d="M87.6105302,7.88702437e-13 L88.3529923,0.74246212 L0.74246212,88.3529923 L1.98951966e-13,87.6105302 L87.6105302,7.88702437e-13 Z M93.7475282,7.88702437e-13 L94.4899904,0.74246212 L6.87946017,88.3529923 L6.13699805,87.6105302 L93.7475282,7.88702437e-13 Z M100.047528,7.88702437e-13 L100.78999,0.74246212 L13.1794602,88.3529923 L12.436998,87.6105302 L100.047528,7.88702437e-13 Z M106.347528,7.88702437e-13 L107.08999,0.74246212 L19.4794602,88.3529923 L18.736998,87.6105302 L106.347528,7.88702437e-13 Z M112.647528,7.88702437e-13 L113.38999,0.74246212 L25.7794602,88.3529923 L25.036998,87.6105302 L112.647528,7.88702437e-13 Z M118.947528,7.88702437e-13 L119.68999,0.74246212 L32.0794602,88.3529923 L31.336998,87.6105302 L118.947528,7.88702437e-13 Z M125.247528,7.88702437e-13 L125.98999,0.74246212 L38.3794602,88.3529923 L37.636998,87.6105302 L125.247528,7.88702437e-13 Z M131.547528,7.88702437e-13 L132.28999,0.74246212 L44.6794602,88.3529923 L43.936998,87.6105302 L131.547528,7.88702437e-13 Z M137.847528,7.88702437e-13 L138.58999,0.74246212 L50.9794602,88.3529923 L50.236998,87.6105302 L137.847528,7.88702437e-13 Z" transform="translate(69.294995, 44.176496) scale(-1, 1) translate(-69.294995, -44.176496) "></path>
                            </g>
                        </g>
                    </g>
                    <circle id="Oval" stroke="#FFCB00" stroke-width="1.5" cx="13" cy="13" r="13"></circle>
                </g>
                <g id="Group-11-Copy-6" transform="translate(38.000000, 402.000000)">
                    <g id="Group-3" transform="translate(0.525000, 0.525000)">
                        <mask id="mask-24" fill="white">
                            <use xlink:href="#path-23"></use>
                        </mask>
                        <use id="Mask" fill="#FFFFFF" xlink:href="#path-23"></use>
                        <g mask="url(#mask-24)" fill="#FFCB00" id="Combined-Shape">
                            <g transform="translate(-51.900000, -31.650000)">
                                <path d="M87.6105302,-1.70530257e-13 L88.3529923,0.74246212 L0.74246212,88.3529923 L2.27373675e-13,87.6105302 L87.6105302,-1.70530257e-13 Z M93.7475282,-1.70530257e-13 L94.4899904,0.74246212 L6.87946017,88.3529923 L6.13699805,87.6105302 L93.7475282,-1.70530257e-13 Z M100.047528,-1.70530257e-13 L100.78999,0.74246212 L13.1794602,88.3529923 L12.436998,87.6105302 L100.047528,-1.70530257e-13 Z M106.347528,-1.70530257e-13 L107.08999,0.74246212 L19.4794602,88.3529923 L18.736998,87.6105302 L106.347528,-1.70530257e-13 Z M112.647528,-1.70530257e-13 L113.38999,0.74246212 L25.7794602,88.3529923 L25.036998,87.6105302 L112.647528,-1.70530257e-13 Z M118.947528,-1.70530257e-13 L119.68999,0.74246212 L32.0794602,88.3529923 L31.336998,87.6105302 L118.947528,-1.70530257e-13 Z M125.247528,-1.70530257e-13 L125.98999,0.74246212 L38.3794602,88.3529923 L37.636998,87.6105302 L125.247528,-1.70530257e-13 Z M131.547528,-1.70530257e-13 L132.28999,0.74246212 L44.6794602,88.3529923 L43.936998,87.6105302 L131.547528,-1.70530257e-13 Z M137.847528,-1.70530257e-13 L138.58999,0.74246212 L50.9794602,88.3529923 L50.236998,87.6105302 L137.847528,-1.70530257e-13 Z"></path>
                                <path d="M87.6105302,7.88702437e-13 L88.3529923,0.74246212 L0.74246212,88.3529923 L1.98951966e-13,87.6105302 L87.6105302,7.88702437e-13 Z M93.7475282,7.88702437e-13 L94.4899904,0.74246212 L6.87946017,88.3529923 L6.13699805,87.6105302 L93.7475282,7.88702437e-13 Z M100.047528,7.88702437e-13 L100.78999,0.74246212 L13.1794602,88.3529923 L12.436998,87.6105302 L100.047528,7.88702437e-13 Z M106.347528,7.88702437e-13 L107.08999,0.74246212 L19.4794602,88.3529923 L18.736998,87.6105302 L106.347528,7.88702437e-13 Z M112.647528,7.88702437e-13 L113.38999,0.74246212 L25.7794602,88.3529923 L25.036998,87.6105302 L112.647528,7.88702437e-13 Z M118.947528,7.88702437e-13 L119.68999,0.74246212 L32.0794602,88.3529923 L31.336998,87.6105302 L118.947528,7.88702437e-13 Z M125.247528,7.88702437e-13 L125.98999,0.74246212 L38.3794602,88.3529923 L37.636998,87.6105302 L125.247528,7.88702437e-13 Z M131.547528,7.88702437e-13 L132.28999,0.74246212 L44.6794602,88.3529923 L43.936998,87.6105302 L131.547528,7.88702437e-13 Z M137.847528,7.88702437e-13 L138.58999,0.74246212 L50.9794602,88.3529923 L50.236998,87.6105302 L137.847528,7.88702437e-13 Z" transform="translate(69.294995, 44.176496) scale(-1, 1) translate(-69.294995, -44.176496) "></path>
                            </g>
                        </g>
                    </g>
                    <circle id="Oval" stroke="#FFCA00" stroke-width="1.5" cx="13" cy="13" r="13"></circle>
                </g>
                <path d="M309.75,184.25 L309.75,230.75 L275.603553,230.75 L290.25,216.103553 L290.25,197.388659 L275.65149,184.25 L309.75,184.25 Z" id="Rectangle-Copy-15" stroke="#2C405A" stroke-width="0.5" fill="url(#linearGradient-25)" fill-rule="nonzero"></path>
                <path d="M190.75,176.25 L190.75,197.75 L177.25,197.75 L177.25,176.25 L190.75,176.25 Z" id="Rectangle-Copy-23" stroke="#2C405A" stroke-width="0.5" fill="url(#linearGradient-26)" fill-rule="nonzero"></path>
                <path d="M531.75,176.25 L531.75,197.75 L518.25,197.75 L518.25,176.25 L531.75,176.25 Z" id="Rectangle-Copy-31" stroke="#2C405A" stroke-width="0.5" fill="url(#linearGradient-26)" fill-rule="nonzero" transform="translate(525.000000, 187.000000) scale(-1, 1) translate(-525.000000, -187.000000) "></path>
                <path d="M190.75,216.25 L190.75,237.75 L177.25,237.75 L177.25,216.25 L190.75,216.25 Z" id="Rectangle-Copy-27" stroke="#2C405A" stroke-width="0.5" fill="url(#linearGradient-26)" fill-rule="nonzero" transform="translate(184.000000, 227.000000) scale(1, -1) translate(-184.000000, -227.000000) "></path>
                <path d="M232.75,176.25 L232.75,197.75 L219.25,197.75 L219.25,176.25 L232.75,176.25 Z" id="Rectangle-Copy-25" stroke="#2C405A" stroke-width="0.5" fill="url(#linearGradient-26)" fill-rule="nonzero"></path>
                <path d="M573.75,176.25 L573.75,197.75 L560.25,197.75 L560.25,176.25 L573.75,176.25 Z" id="Rectangle-Copy-33" stroke="#2C405A" stroke-width="0.5" fill="url(#linearGradient-26)" fill-rule="nonzero" transform="translate(567.000000, 187.000000) scale(-1, 1) translate(-567.000000, -187.000000) "></path>
                <path d="M232.75,216.25 L232.75,237.75 L219.25,237.75 L219.25,216.25 L232.75,216.25 Z" id="Rectangle-Copy-28" stroke="#2C405A" stroke-width="0.5" fill="url(#linearGradient-26)" fill-rule="nonzero" transform="translate(226.000000, 227.000000) scale(1, -1) translate(-226.000000, -227.000000) "></path>
                <path d="M168.573529,173.25 L168.573529,176.25 L174.75,176.25 L174.75,200.75 L167.838235,200.75 L167.838235,197.25 L161.25,197.25 L161.25,173.25 L168.573529,173.25 Z" id="Rectangle-Copy-24" stroke="#2C405A" stroke-width="0.5" fill="url(#linearGradient-27)" fill-rule="nonzero"></path>
                <path d="M536.573529,173.25 L536.573529,176.25 L542.75,176.25 L542.75,200.75 L535.838235,200.75 L535.838235,197.25 L529.25,197.25 L529.25,173.25 L536.573529,173.25 Z" id="Rectangle-Copy-35" stroke="#2C405A" stroke-width="0.5" fill="url(#linearGradient-27)" fill-rule="nonzero" transform="translate(536.000000, 187.000000) scale(-1, 1) translate(-536.000000, -187.000000) "></path>
                <path d="M168.573529,213.25 L168.573529,216.25 L174.75,216.25 L174.75,240.75 L167.838235,240.75 L167.838235,237.25 L161.25,237.25 L161.25,213.25 L168.573529,213.25 Z" id="Rectangle-Copy-29" stroke="#2C405A" stroke-width="0.5" fill="url(#linearGradient-27)" fill-rule="nonzero" transform="translate(168.000000, 227.000000) scale(1, -1) translate(-168.000000, -227.000000) "></path>
                <path d="M210.573529,173.25 L210.573529,176.25 L216.75,176.25 L216.75,200.75 L209.838235,200.75 L209.838235,197.25 L203.25,197.25 L203.25,173.25 L210.573529,173.25 Z" id="Rectangle-Copy-26" stroke="#2C405A" stroke-width="0.5" fill="url(#linearGradient-27)" fill-rule="nonzero"></path>
                <path d="M579.573529,173.25 L579.573529,176.25 L585.75,176.25 L585.75,200.75 L578.838235,200.75 L578.838235,197.25 L572.25,197.25 L572.25,173.25 L579.573529,173.25 Z" id="Rectangle-Copy-37" stroke="#2C405A" stroke-width="0.5" fill="url(#linearGradient-27)" fill-rule="nonzero" transform="translate(579.000000, 187.000000) scale(-1, 1) translate(-579.000000, -187.000000) "></path>
                <path d="M210.573529,213.25 L210.573529,216.25 L216.75,216.25 L216.75,240.75 L209.838235,240.75 L209.838235,237.25 L203.25,237.25 L203.25,213.25 L210.573529,213.25 Z" id="Rectangle-Copy-30" stroke="#2C405A" stroke-width="0.5" fill="url(#linearGradient-27)" fill-rule="nonzero" transform="translate(210.000000, 227.000000) scale(1, -1) translate(-210.000000, -227.000000) "></path>
                <g id="Icon/Porta-Copy-4" transform="translate(391.000000, 389.000000)">
                    <rect id="Rectangle" fill="#193D59" x="1" y="0" width="8" height="9"></rect>
                    <rect id="Rectangle" fill="#A1A9B4" x="0" y="0" width="10" height="1.5"></rect>
                    <rect id="Rectangle-Copy" fill="#A1A9B4" x="0" y="7.5" width="10" height="1.5"></rect>
                    <rect id="Rectangle-Copy-8" fill="#A1A9B4" x="0" y="4" width="4" height="1.5"></rect>
                    <rect id="Rectangle-Copy-9" fill="#A1A9B4" x="6" y="4" width="4" height="1.5"></rect>
                </g>
                <path d="M428,324 L767,324 L767,471 L428,471 L428,324 Z" id="Rectangle" stroke="#FFFFFF" opacity="0.200000003" stroke-dasharray="2"></path>
                <g id="Group" transform="translate(564.000000, 370.000000)">
                    <rect id="Rectangle" fill="#193D59" x="8" y="7" width="8" height="9"></rect>
                    <rect id="Rectangle" fill="#A1A9B4" x="7" y="7" width="10" height="1.5"></rect>
                    <rect id="Rectangle-Copy" fill="#A1A9B4" x="7" y="14.5" width="10" height="1.5"></rect>
                    <path d="M7.69627495,9.39717892 L8.30328606,8.60248577 L16.6675174,14.9850475 L16.8253957,15.1203717 L16.1962749,15.8971789 L7.69627495,9.39717892 Z M8.5,8.5 L17,15 L16.5,15.5 L16.1746043,15.8796283 L16.0388357,15.76219 L7.69671394,9.39751423 L8.5,8.5 Z" id="Line" fill="#A1A9B4" fill-rule="nonzero"></path>
                    <polygon id="Rectangle" fill="#A1A9B4" points="7 8 10 8 7 11"></polygon>
                </g>
                <g id="Group" transform="translate(613.000000, 370.000000)">
                    <rect id="Rectangle" fill="#193D59" x="8" y="7" width="8" height="9"></rect>
                    <rect id="Rectangle" fill="#A1A9B4" x="7" y="7" width="10" height="1.5"></rect>
                    <rect id="Rectangle-Copy" fill="#A1A9B4" x="7" y="14.5" width="10" height="1.5"></rect>
                    <path d="M7.69627495,9.39717892 L8.30328606,8.60248577 L16.6675174,14.9850475 L16.8253957,15.1203717 L16.1962749,15.8971789 L7.69627495,9.39717892 Z M8.5,8.5 L17,15 L16.5,15.5 L16.1746043,15.8796283 L16.0388357,15.76219 L7.69671394,9.39751423 L8.5,8.5 Z" id="Line" fill="#A1A9B4" fill-rule="nonzero"></path>
                    <polygon id="Rectangle" fill="#A1A9B4" points="7 8 10 8 7 11"></polygon>
                </g>
                <g id="Group-7" transform="translate(695.000000, 329.000000)" fill-rule="nonzero">
                    <path d="M36.75,12.6035534 L36.75,48.3964466 L30.25,41.8964466 L30.25,19.1035534 L36.75,12.6035534 Z" id="Rectangle-Copy-86" stroke="#2C405A" stroke-width="0.5" fill="url(#linearGradient-28)" transform="translate(33.500000, 30.500000) scale(1, -1) rotate(-270.000000) translate(-33.500000, -30.500000) "></path>
                    <path d="M60,0.25 C61.0355339,0.25 61.9730339,0.669733047 62.6516504,1.34834957 C63.330267,2.02696609 63.75,2.96446609 63.75,4 L63.75,4 L63.75,25 C63.75,26.0355339 63.330267,26.9730339 62.6516504,27.6516504 C61.9730339,28.330267 61.0355339,28.75 60,28.75 L60,28.75 L4,28.75 C2.96446609,28.75 2.02696609,28.330267 1.34834957,27.6516504 C0.669733047,26.9730339 0.25,26.0355339 0.25,25 L0.25,25 L0.25,4 C0.25,2.96446609 0.669733047,2.02696609 1.34834957,1.34834957 C2.02696609,0.669733047 2.96446609,0.25 4,0.25 L4,0.25 Z" id="Rectangle-Copy-56" stroke="#2C405A" stroke-width="0.5" fill="url(#linearGradient-29)" transform="translate(32.000000, 14.500000) rotate(-540.000000) translate(-32.000000, -14.500000) "></path>
                    <rect id="Rectangle-Copy-79" fill="url(#linearGradient-30)" transform="translate(32.000000, 14.500000) rotate(-270.000000) translate(-32.000000, -14.500000) " x="23.5" y="-17.5" width="17" height="64"></rect>
                </g>
                <polyline id="Path-3-Copy-4" stroke="#2C405A" stroke-linecap="square" points="155 184 156.173913 186 157.347826 184 158.521739 186 159.826087 184 161 186"></polyline>
                <polyline id="Path-3-Copy-8" stroke="#2C405A" stroke-linecap="square" points="155 227 156.173913 229 157.347826 227 158.521739 229 159.826087 227 161 229"></polyline>
                <polyline id="Path-3-Copy-7" stroke="#2C405A" stroke-linecap="square" points="197 184 198.173913 186 199.347826 184 200.521739 186 201.826087 184 203 186"></polyline>
                <polyline id="Path-3-Copy-7" stroke="#2C405A" stroke-linecap="square" points="543 186 544.173913 188 545.347826 186 546.521739 188 547.826087 186 549 188"></polyline>
                <polyline id="Path-3-Copy-10" stroke="#2C405A" stroke-linecap="square" points="586 186 587.173913 188 588.347826 186 589.521739 188 590.826087 186 592 188"></polyline>
                <polyline id="Path-3-Copy-9" stroke="#2C405A" stroke-linecap="square" points="197 227 198.173913 229 199.347826 227 200.521739 229 201.826087 227 203 229"></polyline>
                <path d="M531.75,216.25 L531.75,237.75 L518.25,237.75 L518.25,216.25 L531.75,216.25 Z" id="Rectangle-Copy-39" stroke="#2C405A" stroke-width="0.5" fill="url(#linearGradient-26)" fill-rule="nonzero" transform="translate(525.000000, 227.000000) scale(-1, 1) translate(-525.000000, -227.000000) "></path>
                <path d="M536.573529,213.25 L536.573529,216.25 L542.75,216.25 L542.75,240.75 L535.838235,240.75 L535.838235,237.25 L529.25,237.25 L529.25,213.25 L536.573529,213.25 Z" id="Rectangle-Copy-40" stroke="#2C405A" stroke-width="0.5" fill="url(#linearGradient-27)" fill-rule="nonzero" transform="translate(536.000000, 227.000000) scale(-1, -1) translate(-536.000000, -227.000000) "></path>
                <path d="M573.75,216.25 L573.75,237.75 L560.25,237.75 L560.25,216.25 L573.75,216.25 Z" id="Rectangle-Copy-41" stroke="#2C405A" stroke-width="0.5" fill="url(#linearGradient-26)" fill-rule="nonzero" transform="translate(567.000000, 227.000000) scale(-1, 1) translate(-567.000000, -227.000000) "></path>
                <path d="M578.573529,213.25 L578.573529,216.25 L584.75,216.25 L584.75,240.75 L577.838235,240.75 L577.838235,237.25 L571.25,237.25 L571.25,213.25 L578.573529,213.25 Z" id="Rectangle-Copy-42" stroke="#2C405A" stroke-width="0.5" fill="url(#linearGradient-27)" fill-rule="nonzero" transform="translate(578.000000, 227.000000) scale(-1, -1) translate(-578.000000, -227.000000) "></path>
                <polyline id="Path-3-Copy-11" stroke="#2C405A" stroke-linecap="square" points="585 227 586.173913 229 587.347826 227 588.521739 229 589.826087 227 591 229"></polyline>
                <polyline id="Path-3-Copy-12" stroke="#2C405A" stroke-linecap="square" points="543 227 544.173913 229 545.347826 227 546.521739 229 547.826087 227 549 229"></polyline>
                <g id="Mask" fill-rule="nonzero" transform="translate(196.500000, 207.000000) scale(-1, 1) translate(-196.500000, -207.000000) ">
                    <use fill="black" fill-opacity="1" filter="url(#filter-32)" xlink:href="#path-31"></use>
                    <use fill="url(#linearGradient-7)" xlink:href="#path-31"></use>
                </g>
                <line x1="151.5" y1="194" x2="151.5" y2="226" id="Line" stroke="#4F556D" stroke-linecap="square"></line>
                <line x1="240.5" y1="194" x2="240.5" y2="226" id="Line-Copy" stroke="#4F556D" stroke-linecap="square"></line>
                <line x1="507.5" y1="194" x2="507.5" y2="226" id="Line-Copy-2" stroke="#4F556D" stroke-linecap="square"></line>
                <line x1="596.5" y1="194" x2="596.5" y2="226" id="Line-Copy-3" stroke="#4F556D" stroke-linecap="square"></line>
                <path d="M514,121 L514,79.8177778 M514,53.7022222 L514,8" id="Shape" stroke="#FCFCFC" stroke-width="1.5" stroke-linecap="square"></path>
                <line x1="601.5" y1="369.5" x2="601.5" y2="318.5" id="Line-3" stroke="#50B4E4" stroke-width="1.5" stroke-linecap="square"></line>
                <path d="M343.375149,170.883603 L343.624856,139.550265 M343.595111,118.574692 L343.624856,111.500882 L254.729204,111 L31,111.500882 L31,395" id="Shape" stroke="#FFCC01" stroke-width="1.5" stroke-linecap="square"></path>
                <line x1="433.25" y1="171" x2="433" y2="138.721825" id="Line-12-Copy-11" stroke="#FFCC01" stroke-width="1.5" stroke-linecap="square"></line>
                <polygon id="Rectangle-Copy-44" fill="#FFCB00" transform="translate(343.571068, 140.292893) rotate(-585.000000) translate(-343.571068, -140.292893) " points="340.692388 136 347.863961 143.171573 339.278175 144.585786"></polygon>
                <polygon id="Rectangle-Copy-45" fill="#FFCB00" transform="translate(433.071068, 135.292893) scale(1, -1) rotate(-585.000000) translate(-433.071068, -135.292893) " points="430.192388 131 437.363961 138.171573 428.778175 139.585786"></polygon>
                <g id="Group-13" transform="translate(308.000000, 148.000000)">
                    <mask id="mask-35" fill="white">
                        <use xlink:href="#path-34"></use>
                    </mask>
                    <use id="Rectangle-Copy-14" fill="url(#linearGradient-33)" fill-rule="nonzero" xlink:href="#path-34"></use>
                    <path d="M165.936236,4.07632028 C165.97866,4.3110672 166,4.54913864 166,4.78768827 L166,114.212312 C166,116.421451 164.209139,118.212312 162,118.212312 C161.76145,118.212312 161.523379,118.190972 161.288632,118.148548 L3.28863201,89.5943311 C1.38472924,89.2502523 0,87.5928393 0,85.6580949 L0,33.3419051 C0,31.4071607 1.38472924,29.7497477 3.28863201,29.4056689 L161.288632,0.851452047 C163.462555,0.458574353 165.543359,1.90239704 165.936236,4.07632028 Z M165.444207,4.16524127 C165.111898,2.32646454 163.399475,1.0846464 161.567448,1.31442596 L161.377553,1.34348157 L3.37755301,29.8976984 C1.77333864,30.1876167 0.59037412,31.5431552 0.504947687,33.1548497 L0.5,33.3419051 L0.5,85.6580949 C0.5,87.2882962 1.62354917,88.6934748 3.19435928,89.0641664 L3.37755301,89.1023016 L161.377553,117.656518 C161.582957,117.69364 161.791269,117.712312 162,117.712312 C163.868563,117.712312 165.395126,116.248034 165.494821,114.404347 L165.5,114.212312 L165.5,4.78768827 C165.5,4.64853432 165.491701,4.50956633 165.47517,4.37152224 L165.444207,4.16524127 Z" id="Rectangle-Copy-14" fill="#2C405A" fill-rule="nonzero" mask="url(#mask-35)"></path>
                </g>
                <g id="Group-14" transform="translate(342.000000, 185.000000)" fill-rule="nonzero">
                    <rect id="Rectangle-Copy-112" stroke="#636262" stroke-width="0.5" fill="url(#linearGradient-36)" x="2" y="2" width="100" height="41" rx="20.5"></rect>
                    <g id="Rectangle-Copy-79" transform="translate(52.000000, 23.000000) rotate(-270.000000) translate(-52.000000, -23.000000) ">
                        <use fill="url(#linearGradient-37)" xlink:href="#path-38"></use>
                        <use fill="black" fill-opacity="1" filter="url(#filter-39)" xlink:href="#path-38"></use>
                    </g>
                    <g id="Rectangle-Copy-79" transform="translate(52.000000, 23.000000) rotate(-270.000000) translate(-52.000000, -23.000000) ">
                        <use fill="black" fill-opacity="1" filter="url(#filter-42)" xlink:href="#path-41"></use>
                        <use fill="url(#linearGradient-40)" xlink:href="#path-41"></use>
                    </g>
                    <path d="M52,-28.5 C64.3021428,-28.5 74.2982929,-18.6268714 74.4969856,-6.37207864 L74.5,-6 L74.5,52 C74.5,64.4264069 64.4264069,74.5 52,74.5 C39.6978572,74.5 29.7017071,64.6268714 29.5030144,52.3720786 L29.5,52 L29.5,-6 C29.5,-18.4264069 39.5735931,-28.5 52,-28.5 Z M52,-28 C39.9712381,-28 30.1972248,-18.3462742 30.0029474,-6.36381023 L30,-6 L30,52 L30.0029474,52.3638102 C30.195282,64.2264496 39.7767159,73.8066926 51.6398209,73.9971112 L52,74 L52.3638102,73.9970526 C64.2264496,73.804718 73.8066926,64.2232841 73.9971112,52.3601791 L74,52 L74,-6 L73.9970526,-6.36381023 C73.8027752,-18.3462742 64.0287619,-28 52,-28 Z" id="Rectangle-Copy-79" fill="#7F7F7F" transform="translate(52.000000, 23.000000) rotate(-270.000000) translate(-52.000000, -23.000000) "></path>
                </g>
                <polyline id="Shape-Copy-12" stroke="#FFCC01" stroke-width="1.5" stroke-linecap="square" transform="translate(374.000000, 297.000000) rotate(-270.000000) translate(-374.000000, -297.000000) " points="367 195 381 195 381 399 367 399"></polyline>
                <path d="M285,316 L285,339 L272,339 L272,319 C270.666667,317.529884 270,316.196551 270,315 C270,313.803449 270.666667,312.636783 272,311.5 L272,304" id="Path" stroke="#FFFFFF" opacity="0.5"></path>
                <circle id="Oval-Copy-8" fill="#62B5E5" transform="translate(272.500000, 330.500000) rotate(-90.000000) translate(-272.500000, -330.500000) " cx="272.5" cy="330.5" r="4.5"></circle>
                <polyline id="Path" stroke="#FFFFFF" opacity="0.5" points="688 211 688 295 630 295 630 290"></polyline>
                <polyline id="Path-Copy" stroke="#FFFFFF" opacity="0.5" transform="translate(89.000000, 253.000000) scale(-1, 1) translate(-89.000000, -253.000000) " points="118 211 118 295 60 295 60 290"></polyline>
                <path d="M299,338 L299,397 L230,397" id="Path-Copy-4" stroke="#FFFFFF" opacity="0.5" stroke-dasharray="2" transform="translate(264.500000, 367.500000) scale(-1, 1) translate(-264.500000, -367.500000) "></path>
                <polygon id="Rectangle-Copy-18" fill="#8C9EAC" transform="translate(230.292893, 367.292893) scale(-1, 1) rotate(-45.000000) translate(-230.292893, -367.292893) " points="227.414214 363 234.585786 370.171573 226 371.585786"></polygon>
                <polyline id="Path-Copy-3" stroke="#FFFFFF" opacity="0.5" transform="translate(64.500000, 421.500000) scale(-1, 1) translate(-64.500000, -421.500000) " points="77 395 52 395 52 448 77 448"></polyline>
                <g id="Group-9" transform="translate(220.500000, 67.000000) scale(-1, 1) translate(-220.500000, -67.000000) translate(206.000000, 48.000000)">
                    <polyline id="Path-Copy-5" stroke="#FFFFFF" opacity="0.5" transform="translate(12.500000, 19.000000) scale(-1, 1) translate(-12.500000, -19.000000) " points="25 0 0 0 -6.88338275e-13 38 25 38"></polyline>
                    <circle id="Oval-Copy-12" fill="#62B5E5" transform="translate(24.500000, 21.500000) scale(-1, 1) rotate(-90.000000) translate(-24.500000, -21.500000) " cx="24.5" cy="21.5" r="4.5"></circle>
                    <polygon id="+-copy-3" fill="#E8EBEE" fill-rule="nonzero" opacity="0.900000036" points="25.333 13.445 25.333 11.41 27.17 11.41 27.17 10.035 25.333 10.035 25.333 8 23.837 8 23.837 10.035 22 10.035 22 11.41 23.837 11.41 23.837 13.445"></polygon>
                </g>
                <g id="Group-9" transform="translate(514.000000, 48.000000)">
                    <polyline id="Path-Copy-5" stroke="#FFFFFF" opacity="0.5" transform="translate(12.500000, 19.000000) scale(-1, 1) translate(-12.500000, -19.000000) " points="25 0 0 0 -6.88338275e-13 38 25 38"></polyline>
                    <circle id="Oval-Copy-12" fill="#62B5E5" transform="translate(24.500000, 21.500000) scale(-1, 1) rotate(-90.000000) translate(-24.500000, -21.500000) " cx="24.5" cy="21.5" r="4.5"></circle>
                    <polygon id="+-copy-3" fill="#E8EBEE" fill-rule="nonzero" opacity="0.900000036" points="25.333 13.445 25.333 11.41 27.17 11.41 27.17 10.035 25.333 10.035 25.333 8 23.837 8 23.837 10.035 22 10.035 22 11.41 23.837 11.41 23.837 13.445"></polygon>
                </g>
                <circle id="Oval-Copy-8" fill="#62B5E5" transform="translate(659.500000, 294.500000) rotate(-90.000000) translate(-659.500000, -294.500000) " cx="659.5" cy="294.5" r="4.5"></circle>
                <polygon id="+" fill="#E8EBEE" fill-rule="nonzero" opacity="0.900000036" points="649.223404 297 649.223404 295.131313 651 295.131313 651 293.868687 649.223404 293.868687 649.223404 292 647.776596 292 647.776596 293.868687 646 293.868687 646 295.131313 647.776596 295.131313 647.776596 297"></polygon>
                <circle id="Oval-Copy-9" fill="#62B5E5" transform="translate(89.500000, 294.500000) scale(-1, 1) rotate(-90.000000) translate(-89.500000, -294.500000) " cx="89.5" cy="294.5" r="4.5"></circle>
                <circle id="Oval-Copy-11" fill="#62B5E5" transform="translate(76.500000, 421.500000) scale(-1, 1) rotate(-90.000000) translate(-76.500000, -421.500000) " cx="76.5" cy="421.5" r="4.5"></circle>
                <line x1="601" y1="318.5" x2="716" y2="318.5" id="Line-13" stroke="#50B4E4" stroke-width="1.5" stroke-linecap="square"></line>
                <polygon id="+" fill="#E8EBEE" fill-rule="nonzero" opacity="0.900000036" points="101.223404 297 101.223404 295.131313 103 295.131313 103 293.868687 101.223404 293.868687 101.223404 292 99.7765957 292 99.7765957 293.868687 98 293.868687 98 295.131313 99.7765957 295.131313 99.7765957 297"></polygon>
                <polygon id="+-copy-2" fill="#E8EBEE" fill-rule="nonzero" opacity="0.900000036" points="77.2234043 413 77.2234043 411.131313 79 411.131313 79 409.868687 77.2234043 409.868687 77.2234043 408 75.7765957 408 75.7765957 409.868687 74 409.868687 74 411.131313 75.7765957 411.131313 75.7765957 413"></polygon>
                <polygon id="+-copy" fill="#FFFFFF" fill-rule="nonzero" opacity="0.900000036" points="273.223404 341 273.223404 339.131313 275 339.131313 275 337.868687 273.223404 337.868687 273.223404 336 271.776596 336 271.776596 337.868687 270 337.868687 270 339.131313 271.776596 339.131313 271.776596 341"></polygon>
                <g id="Group-2-Copy" transform="translate(220.000000, 22.000000)">
                    <rect id="Rectangle" stroke="#2C405A" stroke-width="0.5" fill="url(#linearGradient-43)" fill-rule="nonzero" x="0.25" y="0.25" width="29.5" height="22.5" rx="4"></rect>
                    <g id="Group-4" transform="translate(15.000000, 11.500000) scale(-1, 1) translate(-15.000000, -11.500000) translate(4.000000, 4.000000)">
                        <rect id="Rectangle-Copy" stroke="#162842" fill="#A8AEC0" x="0.5" y="0.5" width="9" height="14"></rect>
                        <rect id="Rectangle-Copy-2" stroke="#162842" fill="#FFFFFF" x="9.5" y="0.5" width="12" height="14"></rect>
                        <g id="Group" transform="translate(10.000000, 3.000000)" fill-rule="nonzero">
                            <polygon id="Line-12-Copy" fill="#50556B" points="6.5 4 6.5 5 9.5 5 9.5 4"></polygon>
                            <polygon id="Line-12-Copy-4" fill="#F04450" points="0 4 0 5 4 5 4 4"></polygon>
                            <polygon id="Line-12-Copy" fill="#50556B" points="5.5 2 5.5 3 9.5 3 9.5 2"></polygon>
                            <polygon id="Line-12-Copy" fill="#F04450" points="4.5 0 4.5 1 9.5 1 9.5 0"></polygon>
                            <polygon id="Line-12-Copy-3" fill="#50556B" points="5.5 6 5.5 7 9.5 7 9.5 6"></polygon>
                            <polygon id="Line-12-Copy-2" fill="#50556B" points="4.5 8 4.5 9 9.5 9 9.5 8"></polygon>
                        </g>
                    </g>
                </g>
                <g id="Group-22-Copy" transform="translate(232.000000, 67.500000) scale(-1, 1) translate(-232.000000, -67.500000) translate(220.000000, 50.000000)">
                    <path d="M8.03897725,20.4427832 L14.6785372,27.0823431 L3.45641978,31.6649006 L8.03897725,20.4427832 Z" id="Rectangle" stroke="#2C405A" stroke-width="0.5" fill="url(#linearGradient-44)" fill-rule="nonzero" transform="translate(9.060660, 26.060660) scale(1, -1) rotate(-405.000000) translate(-9.060660, -26.060660) "></path>
                    <path d="M8.03897725,3.44278317 L14.6785372,10.0823431 L3.45641978,14.6649006 L8.03897725,3.44278317 Z" id="Rectangle-Copy-3" stroke="#2C405A" stroke-width="0.5" fill="url(#linearGradient-44)" fill-rule="nonzero" transform="translate(9.060660, 9.060660) scale(-1, 1) rotate(-405.000000) translate(-9.060660, -9.060660) "></path>
                    <g id="Group-8" transform="translate(16.359867, 17.579185) scale(1, -1) rotate(-90.000000) translate(-16.359867, -17.579185) translate(4.359867, 10.079185)">
                        <g id="Combined-Shape-Copy-5">
                            <mask id="mask-46" fill="white">
                                <use xlink:href="#path-45"></use>
                            </mask>
                            <g id="Mask"></g>
                        </g>
                        <g id="Combined-Shape-Copy-4" transform="translate(0.000000, 7.000000)">
                            <mask id="mask-48" fill="white">
                                <use xlink:href="#path-47"></use>
                            </mask>
                            <g id="Mask"></g>
                        </g>
                    </g>
                </g>
                <g id="Group-22-Copy-2" transform="translate(511.000000, 67.500000) scale(-1, 1) translate(-511.000000, -67.500000) translate(499.000000, 50.000000)">
                    <path d="M8.03897725,20.4427832 L14.6785372,27.0823431 L3.45641978,31.6649006 L8.03897725,20.4427832 Z" id="Rectangle" stroke="#2C405A" stroke-width="0.5" fill="url(#linearGradient-44)" fill-rule="nonzero" transform="translate(9.060660, 26.060660) scale(1, -1) rotate(-405.000000) translate(-9.060660, -26.060660) "></path>
                    <path d="M8.03897725,3.44278317 L14.6785372,10.0823431 L3.45641978,14.6649006 L8.03897725,3.44278317 Z" id="Rectangle-Copy-3" stroke="#2C405A" stroke-width="0.5" fill="url(#linearGradient-44)" fill-rule="nonzero" transform="translate(9.060660, 9.060660) scale(-1, 1) rotate(-405.000000) translate(-9.060660, -9.060660) "></path>
                    <g id="Group-8" transform="translate(16.359867, 17.579185) scale(1, -1) rotate(-90.000000) translate(-16.359867, -17.579185) translate(4.359867, 10.079185)">
                        <g id="Combined-Shape-Copy-5">
                            <mask id="mask-50" fill="white">
                                <use xlink:href="#path-49"></use>
                            </mask>
                            <g id="Mask"></g>
                        </g>
                        <g id="Combined-Shape-Copy-4" transform="translate(0.000000, 7.000000)">
                            <mask id="mask-52" fill="white">
                                <use xlink:href="#path-51"></use>
                            </mask>
                            <g id="Mask"></g>
                        </g>
                    </g>
                </g>
                <g id="Group-2" transform="translate(499.000000, 22.000000)">
                    <rect id="Rectangle" stroke="#2C405A" stroke-width="0.5" fill="url(#linearGradient-43)" fill-rule="nonzero" x="0.25" y="0.25" width="29.5" height="22.5" rx="4"></rect>
                    <rect id="Rectangle-Copy" stroke="#162842" fill="#A8AEC0" x="4.5" y="4.5" width="9" height="14"></rect>
                    <rect id="Rectangle-Copy-2" stroke="#162842" fill="#FFFFFF" x="13.5" y="4.5" width="12" height="14"></rect>
                    <g id="Group" transform="translate(14.000000, 7.000000)" fill-rule="nonzero">
                        <polygon id="Line-12-Copy" fill="#50556B" points="6.5 4 6.5 5 9.5 5 9.5 4"></polygon>
                        <polygon id="Line-12-Copy-4" fill="#F04450" points="0 4 0 5 4 5 4 4"></polygon>
                        <polygon id="Line-12-Copy" fill="#50556B" points="5.5 2 5.5 3 9.5 3 9.5 2"></polygon>
                        <polygon id="Line-12-Copy" fill="#F04450" points="4.5 0 4.5 1 9.5 1 9.5 0"></polygon>
                        <polygon id="Line-12-Copy-3" fill="#50556B" points="5.5 6 5.5 7 9.5 7 9.5 6"></polygon>
                        <polygon id="Line-12-Copy-2" fill="#50556B" points="4.5 8 4.5 9 9.5 9 9.5 8"></polygon>
                    </g>
                </g>
            </g>
        </g>
    </g>
</svg>