<svg width="483" height="309" xmlns="http://www.w3.org/2000/svg"><defs><linearGradient x1="50.034%" y1="99.984%" x2="50.034%" y2="-.004%" id="a"><stop stop-color="#8B878D" offset="0%"/><stop stop-color="#9F9CA1" offset="13.66%"/><stop stop-color="#D9D8DA" offset="42.07%"/><stop stop-color="#F3F4F4" offset="51.52%"/><stop stop-color="#807B80" offset="100%"/></linearGradient><linearGradient x1="50.034%" y1="99.984%" x2="50.034%" y2="-.004%" id="b"><stop stop-color="#8B878D" offset="0%"/><stop stop-color="#9F9CA1" offset="13.66%"/><stop stop-color="#D9D8DA" offset="42.07%"/><stop stop-color="#F3F4F4" offset="51.52%"/><stop stop-color="#807B80" offset="100%"/></linearGradient><linearGradient x1="50.034%" y1="99.984%" x2="50.034%" y2="-.004%" id="c"><stop stop-color="#8B878D" offset="0%"/><stop stop-color="#9F9CA1" offset="13.66%"/><stop stop-color="#D9D8DA" offset="42.07%"/><stop stop-color="#F3F4F4" offset="51.52%"/><stop stop-color="#807B80" offset="100%"/></linearGradient><linearGradient x1="50.034%" y1="99.984%" x2="50.034%" y2="-.004%" id="d"><stop stop-color="#8B878D" offset="0%"/><stop stop-color="#9F9CA1" offset="13.66%"/><stop stop-color="#D9D8DA" offset="42.07%"/><stop stop-color="#F3F4F4" offset="51.52%"/><stop stop-color="#807B80" offset="100%"/></linearGradient><linearGradient x1="50.034%" y1="110.798%" x2="50.034%" y2="-15.403%" id="e"><stop stop-color="#8B878D" offset="0%"/><stop stop-color="#9F9CA1" offset="13.66%"/><stop stop-color="#D9D8DA" offset="39.007%"/><stop stop-color="#F3F4F4" offset="55.749%"/><stop stop-color="#807B80" offset="100%"/></linearGradient><linearGradient x1="50.034%" y1="99.984%" x2="50.034%" y2="-.004%" id="f"><stop stop-color="#8B878D" offset="0%"/><stop stop-color="#9F9CA1" offset="13.66%"/><stop stop-color="#D9D8DA" offset="42.07%"/><stop stop-color="#F3F4F4" offset="51.52%"/><stop stop-color="#807B80" offset="100%"/></linearGradient><linearGradient x1="50.034%" y1="99.984%" x2="50.034%" y2="-.004%" id="g"><stop stop-color="#8B878D" offset="0%"/><stop stop-color="#9F9CA1" offset="13.66%"/><stop stop-color="#D9D8DA" offset="42.07%"/><stop stop-color="#F3F4F4" offset="51.52%"/><stop stop-color="#807B80" offset="100%"/></linearGradient><linearGradient x1="50.034%" y1="99.984%" x2="50.034%" y2="-.004%" id="h"><stop stop-color="#8B878D" offset="0%"/><stop stop-color="#9F9CA1" offset="13.66%"/><stop stop-color="#D9D8DA" offset="42.07%"/><stop stop-color="#F3F4F4" offset="51.52%"/><stop stop-color="#807B80" offset="100%"/></linearGradient></defs><g fill="none" fill-rule="evenodd"><path d="M33.397 1.663a3.5 3.5 0 013.5 3.5v.696l48.768-.015V22.57l-48.768.014v.667a3.5 3.5 0 01-3.5 3.5h-7.635a3.5 3.5 0 01-3.5-3.5v-.662l-16.593.005V5.87l16.593-.006v-.7a3.5 3.5 0 013.5-3.5h7.635z" stroke="#636262" stroke-width=".5" fill="url(#a)" fill-rule="nonzero" transform="translate(114.573 159.449)"/><path d="M151.47 161.79v8.362h-4.181v-8.363h4.181zm-10.454 0v8.362h-4.18v-8.363h4.18zM151.47 178.515v8.363h-4.181v-8.363h4.181zm-10.454 0v8.363h-4.18v-8.363h4.18zM158.237 163.88h10.453v6.272h-10.453zM158.237 178.515h10.453v6.272h-10.453z" fill="#004C97"/><path stroke="#636262" stroke-width=".5" fill="url(#b)" fill-rule="nonzero" d="M.86 0h6.341v28.536H.86z" transform="translate(114.573 159.449)"/><path d="M226.408 14.611V97.93l71.044-26.634h10.892v-33.79h-10.886l-71.05-22.894z" stroke="#636262" stroke-width=".5" fill="url(#c)" fill-rule="nonzero" transform="translate(114.39 119.816)"/><path fill="#004C97" d="M411.888 157.07h11.097v6.342h-11.097zM411.888 184.814h11.097v6.34h-11.097z"/><g fill-rule="nonzero" stroke="#636262" stroke-width=".5"><path d="M165.416 12.963L8.828 31.153.25 38.95v26.73l8.582 7.8 156.584 24.516V12.963z" fill="url(#d)" transform="translate(175.675 119.816)"/><g transform="translate(202.626 120.609)" fill="url(#e)"><path d="M4.641 0l1.425 1.503L4.08 3.499v.99l2.233-1.925 1.312 1.607L4.08 7.228V8.92l2.574-1.852 1.171 1.718-3.745 2.695v1.833l2.889-1.713 1.02 1.817-3.909 2.319v4.042l3.173-1.52.863 1.901-4.036 1.934v4.128l3.426-1.281.698 1.971-4.124 1.543v4.193l3.644-1.004.529 2.027-4.173 1.148v4.24l3.828-.694.354 2.067-4.182.757v4.27l3.974-.358.178 2.09-4.152.374v4.284h4.082v2.098H4.081v4.728l4.252.383-.178 2.09-4.074-.367v4.26l4.282.777-.355 2.066-3.927-.713v4.23l4.272 1.178-.528 2.026-3.744-1.031v4.183l4.223 1.58-.698 1.972-3.525-1.32v4.118l4.135 1.982-.862 1.902-3.273-1.569v4.03l4.009 2.38-1.02 1.817-2.989-1.775v1.822l3.845 2.767-1.17 1.719-2.675-1.926v1.678l3.644 3.144-1.311 1.607-2.333-2.012v.517l2.083 2.17-1.45 1.477-1.579-1.645A4.083 4.083 0 010 100.22V5.576a4.083 4.083 0 013.016-3.942L4.641 0zM20.495 0l1.424 1.503-1.985 1.996v.99l2.233-1.925 1.312 1.607-3.545 3.057V8.92l2.575-1.852 1.17 1.718-3.745 2.695v1.833l2.889-1.713 1.02 1.817-3.909 2.319v4.042l3.173-1.52.863 1.901-4.036 1.934v4.128l3.426-1.281.698 1.971-4.124 1.543v4.193l3.645-1.004.528 2.027-4.173 1.148v4.24l3.828-.694.354 2.067-4.182.757v4.27l3.974-.358.178 2.09-4.152.374v4.284h4.083v2.098h-4.083v4.728l4.252.383-.178 2.09-4.074-.367v4.26l4.282.777-.354 2.066-3.928-.713v4.23l4.273 1.178-.529 2.026-3.744-1.031v4.183l4.224 1.58-.698 1.972-3.526-1.32v4.118l4.136 1.982-.863 1.902-3.273-1.569v4.03l4.009 2.38-1.02 1.817-2.989-1.775v1.822l3.845 2.767-1.17 1.719-2.675-1.926v1.678l3.645 3.144-1.312 1.607-2.333-2.012v.517l2.083 2.17-1.45 1.477-1.579-1.645a4.083 4.083 0 01-3.135-3.971V5.576a4.083 4.083 0 013.016-3.942L20.495 0zM37.933 0l1.424 1.503-1.984 1.996v.99l2.232-1.925 1.312 1.607-3.544 3.057V8.92l2.574-1.852 1.17 1.718-3.744 2.695v1.833l2.888-1.713 1.02 1.817-3.908 2.319v4.042l3.173-1.52.862 1.901-4.035 1.934v4.128l3.425-1.281.698 1.971-4.123 1.543v4.193l3.644-1.004.528 2.027-4.172 1.148v4.24l3.827-.694.355 2.067-4.182.757v4.27l3.974-.358.178 2.09-4.152.374v4.284h4.082v2.098h-4.082v4.728l4.251.383-.178 2.09-4.073-.367v4.26l4.281.777-.354 2.066-3.927-.713v4.23l4.272 1.178-.528 2.026-3.744-1.031v4.183l4.223 1.58-.698 1.972-3.525-1.32v4.118l4.135 1.982-.863 1.902-3.272-1.569v4.03l4.008 2.38-1.02 1.817-2.988-1.775v1.822l3.844 2.767-1.17 1.719-2.674-1.926v1.678l3.644 3.144-1.312 1.607-2.332-2.012v.517l2.082 2.17-1.45 1.477-1.578-1.645a4.083 4.083 0 01-3.135-3.971V5.576a4.083 4.083 0 013.016-3.942L37.933 0zM55.371 0l1.425 1.503-1.985 1.996v.99l2.233-1.925 1.312 1.607-3.545 3.057V8.92l2.575-1.852 1.17 1.718-3.745 2.695v1.833l2.889-1.713 1.02 1.817-3.909 2.319v4.042l3.173-1.52.863 1.901-4.036 1.934v4.128l3.426-1.281.698 1.971-4.124 1.543v4.193l3.645-1.004.528 2.027-4.173 1.148v4.24l3.828-.694.354 2.067-4.182.757v4.27l3.974-.358.178 2.09-4.152.374v4.284h4.083v2.098H54.81v4.728l4.252.383-.178 2.09-4.074-.367v4.26l4.282.777-.354 2.066-3.928-.713v4.23l4.273 1.178-.529 2.026-3.744-1.031v4.183l4.224 1.58-.698 1.972-3.526-1.32v4.118l4.135 1.982-.862 1.902-3.273-1.569v4.03l4.009 2.38-1.02 1.817-2.989-1.775v1.822l3.845 2.767-1.17 1.719-2.675-1.926v1.678l3.644 3.144-1.311 1.607-2.333-2.012v.517l2.083 2.17-1.45 1.477-1.579-1.645a4.083 4.083 0 01-3.135-3.971V5.576a4.083 4.083 0 013.016-3.942L55.371 0zM71.225 0l1.424 1.503-1.985 1.996v.99l2.233-1.925 1.312 1.607-3.545 3.057V8.92l2.575-1.852 1.17 1.718-3.745 2.695v1.833l2.889-1.713 1.02 1.817-3.909 2.319v4.042l3.173-1.52.863 1.901-4.036 1.934v4.128l3.426-1.281.698 1.971-4.124 1.543v4.193l3.645-1.004.528 2.027-4.173 1.148v4.24l3.828-.694.354 2.067-4.182.757v4.27l3.974-.358.178 2.09-4.152.374v4.284h4.083v2.098h-4.083v4.728l4.252.383-.178 2.09-4.074-.367v4.26l4.282.777-.354 2.066-3.928-.713v4.23l4.273 1.178-.529 2.026-3.744-1.031v4.183l4.224 1.58-.698 1.972-3.526-1.32v4.118l4.136 1.982-.863 1.902-3.273-1.569v4.03l4.01 2.38-1.021 1.817-2.989-1.775v1.822l3.845 2.767-1.17 1.719-2.675-1.926v1.678l3.645 3.144-1.312 1.607-2.333-2.012v.517l2.083 2.17-1.45 1.477-1.579-1.645a4.083 4.083 0 01-3.135-3.971V5.576A4.083 4.083 0 0169.6 1.634L71.225 0zM88.663 0l1.425 1.503-1.985 1.996v.99l2.233-1.925 1.311 1.607-3.544 3.057V8.92l2.574-1.852 1.17 1.718-3.744 2.695v1.833l2.888-1.713 1.02 1.817-3.908 2.319v4.042l3.173-1.52.862 1.901-4.035 1.934v4.128l3.426-1.281.698 1.971-4.124 1.543v4.193l3.644-1.004.528 2.027-4.172 1.148v4.24l3.828-.694.354 2.067-4.182.757v4.27l3.974-.358.178 2.09-4.152.374v4.284h4.082v2.098h-4.082v4.728l4.251.383-.177 2.09-4.074-.367v4.26l4.282.777-.355 2.066-3.927-.713v4.23l4.272 1.178-.528 2.026-3.744-1.031v4.183l4.223 1.58-.698 1.972-3.525-1.32v4.118l4.135 1.982-.862 1.902-3.273-1.569v4.03l4.009 2.38-1.02 1.817-2.99-1.775v1.822l3.845 2.767-1.17 1.719-2.674-1.926v1.678l3.644 3.144-1.312 1.607-2.332-2.012v.517l2.082 2.17-1.45 1.477-1.578-1.645a4.083 4.083 0 01-3.135-3.971V5.576a4.083 4.083 0 013.016-3.942L88.663 0zM106.102 0l1.424 1.503-1.985 1.996v.99l2.233-1.925 1.312 1.607-3.545 3.057V8.92l2.575-1.852 1.17 1.718-3.745 2.695v1.833l2.889-1.713 1.02 1.817-3.909 2.319v4.042l3.173-1.52.863 1.901-4.036 1.934v4.128l3.426-1.281.698 1.971-4.124 1.543v4.193l3.645-1.004.528 2.027-4.173 1.148v4.24l3.828-.694.354 2.067-4.182.757v4.27l3.974-.358.178 2.09-4.152.374v4.284h4.083v2.098h-4.083v4.728l4.252.383-.178 2.09-4.074-.367v4.26l4.282.777-.354 2.066-3.928-.713v4.23l4.273 1.178-.529 2.026-3.744-1.031v4.183l4.224 1.58-.698 1.972-3.526-1.32v4.118l4.136 1.982-.863 1.902-3.273-1.569v4.03l4.01 2.38-1.021 1.817-2.989-1.775v1.822l3.845 2.767-1.17 1.719-2.675-1.926v1.678l3.645 3.144-1.312 1.607-2.333-2.012v.517l2.083 2.17-1.45 1.477-1.579-1.645a4.083 4.083 0 01-3.135-3.971V5.576a4.083 4.083 0 013.016-3.942L106.102 0zM121.955 0l1.424 1.503-1.985 1.996v.99l2.233-1.925 1.312 1.607-3.545 3.057V8.92l2.575-1.852 1.17 1.718-3.745 2.695v1.833l2.89-1.713 1.02 1.817-3.91 2.319v4.042l3.174-1.52.862 1.901-4.036 1.934v4.128l3.426-1.281.698 1.971-4.124 1.543v4.193l3.645-1.004.528 2.027-4.173 1.148v4.24l3.828-.694.355 2.067-4.183.757v4.27l3.975-.358.177 2.09-4.152.374v4.284h4.083v2.098h-4.083v4.728l4.252.383-.178 2.09-4.074-.367v4.26l4.282.777-.354 2.066-3.928-.713v4.23l4.273 1.178-.528 2.026-3.745-1.031v4.183l4.224 1.58-.698 1.972-3.526-1.32v4.118l4.136 1.982-.863 1.902-3.273-1.569v4.03l4.01 2.38-1.021 1.817-2.989-1.775v1.822l3.845 2.767-1.17 1.719-2.675-1.926v1.678l3.645 3.144-1.312 1.607-2.333-2.012v.517l2.083 2.17-1.45 1.477-1.579-1.645a4.083 4.083 0 01-3.135-3.971V5.576a4.083 4.083 0 013.017-3.942L121.955 0zM139.393 0l1.425 1.503-1.985 1.996v.99l2.233-1.925 1.312 1.607-3.545 3.057V8.92l2.574-1.852 1.17 1.718-3.744 2.695v1.833l2.889-1.713 1.02 1.817-3.91 2.319v4.042l3.174-1.52.863 1.901-4.036 1.934v4.128l3.426-1.281.698 1.971-4.124 1.543v4.193l3.644-1.004.529 2.027-4.173 1.148v4.24l3.828-.694.354 2.067-4.182.757v4.27l3.974-.358.178 2.09-4.152.374v4.284h4.082v2.098h-4.082v4.728l4.252.383-.178 2.09-4.074-.367v4.26l4.282.777-.355 2.066-3.927-.713v4.23l4.272 1.178-.528 2.026-3.744-1.031v4.183l4.223 1.58-.698 1.972-3.525-1.32v4.118l4.135 1.982-.862 1.902-3.273-1.569v4.03l4.009 2.38-1.02 1.817-2.99-1.775v1.822l3.846 2.767-1.171 1.719-2.674-1.926v1.678l3.644 3.144-1.312 1.607-2.332-2.012v.517l2.083 2.17-1.45 1.477-1.58-1.645a4.083 4.083 0 01-3.134-3.971V5.576a4.083 4.083 0 013.016-3.942L139.393 0z"/></g></g><g stroke="#636262" stroke-width=".5"><path d="M6.08 0h6.656a2 2 0 011.997 1.896l4.078 78.493a2 2 0 010 .205l-4.08 80.582a2 2 0 01-1.997 1.899H6.083a2 2 0 01-1.998-1.9l-4.08-80.58a2 2 0 010-.206L4.083 1.896A2 2 0 016.08 0z" fill="url(#f)" fill-rule="nonzero" transform="translate(454.345 93.658)"/><path d="M473.162 185.649h-18.817m0-20.907h18.817M471.07 212.828h-14.634m0-12.544h14.635M472.116 150.107h-16.725m1.045-12.544h14.635M455.39 150.107h16.726l1.046 14.635h-18.817zM470.026 235.826H457.48m0-10.454h12.545M470.026 125.019H457.48m0-10.454h12.545M470.026 244.189H457.48m0-8.363h12.545M470.026 114.565H457.48m1.046-8.363h10.453M468.98 250.46h-10.453m-1.046-6.271h12.545M468.98 254.642h-10.453m0-4.181h10.453M468.98 99.93h-10.453m1.045-4.181h8.363" fill-opacity=".04" fill="#000"/><g><path d="M6.078 0h6.66a2 2 0 011.998 1.893l4.075 76.403a2 2 0 010 .21l-4.078 78.49a2 2 0 01-1.997 1.897H6.08a2 2 0 01-1.997-1.896L.005 78.507a2 2 0 010-.21L4.08 1.892A2 2 0 016.078 0z" fill="url(#g)" fill-rule="nonzero" transform="translate(429.257 96.036)"/><path d="M448.073 185.936h-18.816m0-20.907h18.816M445.982 213.115h-14.634m0-12.544h14.634M447.028 150.394h-16.726m1.046-12.544h14.634M430.302 150.394h16.726l1.045 14.635h-18.816zM444.937 236.113h-12.544m0-10.453h12.544M444.937 125.306h-12.544m0-10.454h12.544M444.937 244.476h-12.544m0-8.363h12.544M444.937 114.852h-12.544m1.045-8.362h10.454M443.892 250.748h-10.454m-1.045-6.272h12.544M433.438 250.748h10.454M443.892 100.218h-10.454" fill-opacity=".04" fill="#000"/></g><path fill="url(#h)" fill-rule="nonzero" d="M0 71.084h6.272v33.451H0zM25.088 71.084h6.272v33.451h-6.272z" transform="translate(422.985 86.524)"/></g></g></svg>