<svg width="187" height="309" xmlns="http://www.w3.org/2000/svg"><defs><linearGradient x1="50.034%" y1="99.984%" x2="50.034%" y2="-.004%" id="a"><stop stop-color="#8B878D" offset="0%"/><stop stop-color="#9F9CA1" offset="13.66%"/><stop stop-color="#D9D8DA" offset="42.07%"/><stop stop-color="#F3F4F4" offset="51.52%"/><stop stop-color="#807B80" offset="100%"/></linearGradient><linearGradient x1="50.034%" y1="99.984%" x2="50.034%" y2="-.004%" id="b"><stop stop-color="#8B878D" offset="0%"/><stop stop-color="#9F9CA1" offset="13.66%"/><stop stop-color="#D9D8DA" offset="42.07%"/><stop stop-color="#F3F4F4" offset="51.52%"/><stop stop-color="#807B80" offset="100%"/></linearGradient><linearGradient x1="50.034%" y1="99.984%" x2="50.034%" y2="-.004%" id="c"><stop stop-color="#8B878D" offset="0%"/><stop stop-color="#9F9CA1" offset="13.66%"/><stop stop-color="#D9D8DA" offset="42.07%"/><stop stop-color="#F3F4F4" offset="51.52%"/><stop stop-color="#807B80" offset="100%"/></linearGradient><linearGradient x1="50.034%" y1="99.984%" x2="50.034%" y2="-.004%" id="d"><stop stop-color="#8B878D" offset="0%"/><stop stop-color="#9F9CA1" offset="13.66%"/><stop stop-color="#D9D8DA" offset="42.07%"/><stop stop-color="#F3F4F4" offset="51.52%"/><stop stop-color="#807B80" offset="100%"/></linearGradient></defs><g fill="none" fill-rule="evenodd"><path d="M195.48 71.084l6.273 8.363 7.317-.001v-4.18h14.635v4.18h51.113a4 4 0 014 4v8.726a4 4 0 01-4 4h-51.113v4.182H209.07v-4.182h-7.317l-6.273 8.363h-45.995l-6.272-8.363h-26.315a4 4 0 01-4-4v-8.725a4 4 0 014-4h26.315l6.272-8.363h45.995z" stroke="#636262" stroke-width=".5" fill="url(#a)" fill-rule="nonzero" transform="translate(-60.015 86.524)"/><path fill="#004C97" d="M65.427 163.88H75.88v6.272H65.427zM65.427 178.515H75.88v6.272H65.427zM169.962 163.88h10.453v6.272h-10.453zM163.69 161.79v8.362h-4.182v-8.363h4.182zm-10.454 0v8.362h-4.181v-8.363h4.181zM163.69 178.515v8.363h-4.182v-8.363h4.182zm-10.454 0v8.363h-4.181v-8.363h4.181zM169.962 178.515h10.453v6.272h-10.453z"/><path stroke="#636262" stroke-width=".5" fill="url(#b)" fill-rule="nonzero" d="M112.898 71.084h6.272v33.451h-6.272z" transform="translate(-60.015 86.524)"/><g stroke="#636262" stroke-width=".5"><path d="M6.085 0h6.646a2 2 0 011.998 1.901l4.082 82.621a2 2 0 010 .195l-4.084 84.817a2 2 0 01-1.998 1.903H6.087a2 2 0 01-1.997-1.903L.005 84.717a2 2 0 010-.195l4.082-82.62A2 2 0 016.085 0z" fill="url(#c)" fill-rule="nonzero" transform="translate(8.978 88.902)"/><path d="M27.794 185.074H8.978m0-20.907h18.816M25.703 216.435H11.07m0-12.544h14.634M26.749 145.351H10.023m1.046-12.544h14.634M24.658 239.433H12.114m0-10.454h12.544M24.658 120.263H12.114m0-10.454h12.544M24.658 247.795H12.114m0-8.362h12.544M24.658 109.81H12.114m1.045-8.364h10.454M23.613 254.068H13.159m-1.045-6.273h12.544M23.613 258.249H13.159m0-4.181h10.454M23.613 95.174H13.159m1.046-4.181h8.362" fill-opacity=".04" fill="#000"/></g><g stroke="#636262" stroke-width=".5"><path d="M6.087 0h6.642a2 2 0 011.998 1.904l4.085 84.684a2 2 0 010 .19l-4.087 86.935a2 2 0 01-1.998 1.906H6.09a2 2 0 01-1.998-1.906L.004 86.779a2 2 0 010-.19L4.09 1.903A2 2 0 016.087 0z" fill="url(#d)" fill-rule="nonzero" transform="translate(34.066 87.317)"/><path d="M52.883 185.58H34.066m0-20.907h18.817M50.792 219.031H36.157m0-12.544h14.635M51.837 143.766H35.112m1.045-12.544h14.635M49.747 242.029H37.202m0-10.454h12.545M49.747 118.677H37.202m0-10.453h12.545M49.747 250.391H37.202m0-8.362h12.545M49.747 108.224H37.202m1.046-8.363H48.7M48.701 256.664H38.248m-1.046-6.273h12.545M48.701 260.845H38.248m0-4.181H48.7M48.701 93.589H38.248m1.045-4.181h8.363" fill-opacity=".04" fill="#000"/></g><path stroke="#636262" stroke-width=".5" fill="url(#b)" fill-rule="nonzero" d="M87.809 71.084h6.272v33.451h-6.272z" transform="translate(-60.015 86.524)"/></g></svg>