<svg width="760" height="496" xmlns="http://www.w3.org/2000/svg" xmlns:xlink="http://www.w3.org/1999/xlink"><defs><filter x="-1.3%" y="-1.3%" width="102.5%" height="102.5%" filterUnits="objectBoundingBox" id="c"><feGaussianBlur stdDeviation="4.5" in="SourceAlpha" result="shadowBlurInner1"/><feOffset dy="1" in="shadowBlurInner1" result="shadowOffsetInner1"/><feComposite in="shadowOffsetInner1" in2="SourceAlpha" operator="arithmetic" k2="-1" k3="1" result="shadowInnerInner1"/><feColorMatrix values="0 0 0 0 0 0 0 0 0 0 0 0 0 0 0 0 0 0 0.301737325 0" in="shadowInnerInner1"/></filter><filter x="-2.8%" y="-2.3%" width="105.1%" height="105.1%" filterUnits="objectBoundingBox" id="d"><feMorphology radius=".5" operator="dilate" in="SourceAlpha" result="shadowSpreadOuter1"/><feOffset dx="-1" dy="1" in="shadowSpreadOuter1" result="shadowOffsetOuter1"/><feGaussianBlur stdDeviation="3" in="shadowOffsetOuter1" result="shadowBlurOuter1"/><feComposite in="shadowBlurOuter1" in2="SourceAlpha" operator="out" result="shadowBlurOuter1"/><feColorMatrix values="0 0 0 0 0 0 0 0 0 0 0 0 0 0 0 0 0 0 0.230550699 0" in="shadowBlurOuter1"/></filter><filter x="-3.2%" y="-3.2%" width="106.5%" height="106.5%" filterUnits="objectBoundingBox" id="h"><feGaussianBlur stdDeviation="4.5" in="SourceAlpha" result="shadowBlurInner1"/><feOffset dy="1" in="shadowBlurInner1" result="shadowOffsetInner1"/><feComposite in="shadowOffsetInner1" in2="SourceAlpha" operator="arithmetic" k2="-1" k3="1" result="shadowInnerInner1"/><feColorMatrix values="0 0 0 0 0 0 0 0 0 0 0 0 0 0 0 0 0 0 0.301737325 0" in="shadowInnerInner1"/></filter><filter x="-7.1%" y="-5.8%" width="112.9%" height="112.9%" filterUnits="objectBoundingBox" id="i"><feMorphology radius=".5" operator="dilate" in="SourceAlpha" result="shadowSpreadOuter1"/><feOffset dx="-1" dy="1" in="shadowSpreadOuter1" result="shadowOffsetOuter1"/><feGaussianBlur stdDeviation="3" in="shadowOffsetOuter1" result="shadowBlurOuter1"/><feComposite in="shadowBlurOuter1" in2="SourceAlpha" operator="out" result="shadowBlurOuter1"/><feColorMatrix values="0 0 0 0 0 0 0 0 0 0 0 0 0 0 0 0 0 0 0.230550699 0" in="shadowBlurOuter1"/></filter><linearGradient x1="50.034%" y1="0%" x2="50.034%" y2="100%" id="a"><stop stop-color="#363D43" offset="0%"/><stop stop-color="#61676C" offset="49.557%"/><stop stop-color="#363D43" offset="100%"/></linearGradient><linearGradient x1=".453%" y1="50.403%" x2="99.615%" y2="50.403%" id="f"><stop stop-color="#AFACB1" offset="0%"/><stop stop-color="#BAB9BC" offset="28.499%"/><stop stop-color="#D9D8DA" offset="42.07%"/><stop stop-color="#F3F4F4" offset="58.437%"/><stop stop-color="#958F95" offset="100%"/></linearGradient><circle id="b" cx="425" cy="198" r="198"/><circle id="g" cx="426.5" cy="198.5" r="77.5"/><path d="M425 0c109.352 0 198 88.648 198 198s-88.648 198-198 198-198-88.648-198-198S315.648 0 425 0zm0 4C317.857 4 231 90.857 231 198s86.857 194 194 194 194-86.857 194-194S532.143 4 425 4z" id="e"/><path d="M426.5 121c42.802 0 77.5 34.698 77.5 77.5S469.302 276 426.5 276 349 241.302 349 198.5s34.698-77.5 77.5-77.5zm0 4c-40.593 0-73.5 32.907-73.5 73.5s32.907 73.5 73.5 73.5 73.5-32.907 73.5-73.5-32.907-73.5-73.5-73.5z" id="j"/></defs><g transform="translate(-5 5)" fill="none" fill-rule="evenodd"><g fill-rule="nonzero"><use fill="url(#a)" xlink:href="#b"/><use fill="#000" filter="url(#c)" xlink:href="#b"/></g><g fill-rule="nonzero"><use fill="#000" filter="url(#d)" xlink:href="#e"/><path stroke="#7F7F7F" stroke-width=".5" d="M425-.25c54.745 0 104.308 22.19 140.184 58.066C601.06 93.692 623.25 143.255 623.25 198c0 54.745-22.19 104.308-58.066 140.184C529.308 374.06 479.745 396.25 425 396.25c-54.745 0-104.308-22.19-140.184-58.066C248.94 302.308 226.75 252.745 226.75 198c0-54.745 22.19-104.308 58.066-140.184C320.692 21.94 370.255-.25 425-.25zm0 4.5c-53.503 0-101.94 21.686-137.002 56.748C252.936 96.06 231.25 144.498 231.25 198c0 53.503 21.686 101.94 56.748 137.002 35.062 35.062 83.5 56.748 137.002 56.748 53.503 0 101.94-21.686 137.002-56.748 35.062-35.062 56.748-83.5 56.748-137.002 0-53.503-21.686-101.94-56.748-137.002C526.94 25.936 478.502 4.25 425 4.25z" fill="url(#f)" fill-rule="evenodd"/></g><g opacity=".4" transform="translate(87 2)" stroke="#FFF"><path d="M339 379.005c46.293 0 88.57-17.189 120.8-45.532.8-.705 4.066-3.68 4.895-4.465a184.088 184.088 0 0017.587-19.153c.789-.991 3.45-.342 4.218-1.35.698-.916-.494-3.488.188-4.418C508.889 273.802 522 236.434 522 196.005c0-41.97-14.13-80.641-37.89-111.515-.596-.773.997-3.222.39-3.985-.55-.691-3.298.302-3.857-.38-20.01-24.431-46.217-43.59-76.22-55.079-1.105-.423-1.308-3.14-2.423-3.541-1.256-.453-3.425 1.41-4.693.985a181.976 181.976 0 00-37.934-8.364c-1.33-.147-2.035-2.002-3.373-2.121-1.189-.106-3.01 1.523-4.205 1.44a185.68 185.68 0 00-12.795-.44c-23.774 0-46.489 4.533-67.328 12.783-1.311.519-3.615-.947-4.911-.399-1.053.446-1.102 2.9-2.145 3.365a183.11 183.11 0 00-44.682 28.278c-1.061.91-3.393.539-4.434 1.473-.88.79-.473 2.884-1.339 3.692a184.117 184.117 0 00-15.57 16.438c-.71.848-3.412.702-4.107 1.563-.712.884.583 2.774-.114 3.671a183.616 183.616 0 00-6.34 8.68c-.806 1.173-3.75.762-4.53 1.956-.66 1.012.84 3.625.2 4.651-16.897 27.037-26.93 58.804-27.657 92.862-.029 1.326-2.043 2.655-2.043 3.987 0 1.448 2.017 2.893 2.05 4.334.7 30.112 8.674 58.426 22.232 83.252.429.785-1.222 3.136-.782 3.914.594 1.051 3.284.527 3.898 1.566 23.52 39.745 61.648 69.823 106.99 82.845 1.182.34 1.92 2.773 3.112 3.089 1.246.33 2.946-1.457 4.202-1.153 13.881 3.368 28.381 5.153 43.298 5.153z" stroke-width="1.5"/><path d="M466.946 81.743a172.522 172.522 0 00-22.044-20.536c-1.016-.792-.042-3.574-1.076-4.344-1.083-.806-4.176.4-5.278-.381a171.077 171.077 0 00-37.72-20.186c-1.26-.483-1.527-2.951-2.802-3.405-.95-.338-2.904 1.332-3.861 1.01a170.14 170.14 0 00-6.356-1.998c-.975-.286-1.327-2.63-2.309-2.898-.94-.257-2.509 1.56-3.455 1.318-13.605-3.472-27.86-5.318-42.545-5.318m-73.913 16.7a171.404 171.404 0 00-26.286 15.6c-1.053.759-3.266-.082-4.301.7-.852.644-.528 2.908-1.368 3.568a172.523 172.523 0 00-20.81 19.324m-34.434 56.69a170.255 170.255 0 00-7.769 28.894c-.173.982-2.338 1.967-2.495 2.955-.157.99 1.695 1.983 1.555 2.979a172.703 172.703 0 00-1.645 20.642c-.023 1.147-2.034 2.296-2.034 3.448 0 .884 2.007 1.767 2.02 2.649.342 22.593 5.053 44.127 13.326 63.794.439 1.044-1.112 3.083-.653 4.117.393.885 2.794.766 3.202 1.644a170.853 170.853 0 004.245 8.505c.483.904-1.026 2.803-.528 3.697.49.878 2.987.752 3.492 1.62 18.48 31.81 46.896 57.135 80.999 71.724.997.426.998 2.843 2.004 3.251.872.353 2.747-1.3 3.625-.961a170.172 170.172 0 0013.13 4.465c1.33.393 1.667 2.77 3.01 3.13 1.002.27 3.008-1.47 4.018-1.218 13.322 3.32 27.26 5.083 41.61 5.083.766 0 1.53-.005 2.294-.015 1.176-.016 2.35 1.957 3.52 1.919 1.295-.044 2.586-2.101 3.873-2.173a171.477 171.477 0 0028.097-3.907m62.738-28.357c29.202-21.16 51.473-51.3 62.76-86.366.248-.767 2.482-.83 2.718-1.601.267-.873-1.465-2.454-1.212-3.332 4.37-15.133 6.712-31.127 6.712-47.668 0-.318 0-.635-.003-.952-.005-.913 1.983-1.825 1.965-2.734-.025-1.158-2.061-2.312-2.108-3.464-.74-18.028-4.262-35.339-10.15-51.513"/><path d="M182.485 224.704a158.316 158.316 0 009.766 33.21c.458 1.098-1.072 3.19-.59 4.274.399.898 2.806.792 3.22 1.68a159.239 159.239 0 0011.608 20.693c.56.844-.872 2.683-.297 3.515.579.837 3.165.669 3.759 1.494a160.336 160.336 0 0015.703 18.646c.757.771-.479 3.534.293 4.29.846.828 3.701-.353 4.566.456a160.27 160.27 0 0017.745 14.384m81.459 28.364a161.967 161.967 0 0011.25.288c1.231-.01 2.46 1.964 3.685 1.925 1.281-.04 2.56-2.096 3.833-2.167a159.634 159.634 0 0022.995-2.958c1.031-.21 3.059 1.57 4.083 1.34 1.15-.257 1.297-2.528 2.438-2.81 7.5-1.86 14.79-4.25 21.828-7.127 1.22-.5 3.432.987 4.637.46 1.29-.566 1.57-3.148 2.842-3.746a159.322 159.322 0 0022.95-13.231m52.858-61.708a158.675 158.675 0 003.01-6.587c.333-.777 2.66-.557 2.982-1.34.376-.915-1.257-2.835-.898-3.759a158.26 158.26 0 006.389-20.419c.287-1.197 2.561-2.398 2.821-3.605.25-1.158-1.514-2.32-1.29-3.487a160.333 160.333 0 002.87-30.744c-.003-.971 1.985-1.94 1.965-2.908-.02-.964-2.049-1.927-2.086-2.887a159.247 159.247 0 00-6.05-37.824m-50.754-78.058c-1.508-1.267-2.52-2.141-4.075-3.353-.976-.761-1.006-3.761-2-4.5-1.04-.773-3.567.35-4.627-.398-6.23-4.398-11.53-7.12-18.373-10.602-.767-.39-1.726-4.122-2.5-4.5-.72-.352-3.274 1.34-4 1-7.147-3.359-13.821-6.135-21.5-8.416-1.123-.334-1.867-2.775-3-3.084-1.163-.318-2.717 1.496-3.89 1.205a159.255 159.255 0 00-28.221-4.372M248.486 65.504c-.907.632-1.808 1.272-2.702 1.922-.887.646-2.768-.7-3.642-.036-.718.545-.431 3.096-1.14 3.653a160.434 160.434 0 00-16.288 14.717c-.65.673-3.294.352-3.932 1.037-.647.695-.147 3.002-.782 3.708-4.882 5.43-8.538 10.59-12.646 16.654-.588.867-3.167.741-3.738 1.62-.565.87.878 2.747.33 3.628-.526.847-1.044 1.699-1.555 2.556-.41.687-2.815.379-3.215 1.073-.378.657 1.248 2.318.878 2.981a158.814 158.814 0 00-8.072 16.726M216.704 132.385a137.892 137.892 0 00-4.082 8.497c-.377.858-2.745.72-3.105 1.588-.307.74 1.393 2.483 1.098 3.23-.073.185-.146.37-.218.557-.358.919-2.707.842-3.045 1.77-.312.854 1.385 2.71 1.09 3.572a137.504 137.504 0 00-5.19 19.893c-.194 1.068-2.377 1.936-2.547 3.013-.127.806 1.752 1.82 1.639 2.63a139.706 139.706 0 00-1.344 19.37c0 7.696.628 15.246 1.835 22.6.124.758-1.745 1.515-1.608 2.27.14.776 2.288 1.552 2.442 2.324a137.454 137.454 0 008.347 27.027c.278.654-1.438 2.305-1.15 2.954.292.658 2.59.314 2.892.967a138.257 138.257 0 0010.07 18.057c.506.768-.98 2.531-.457 3.288.485.705 2.977.405 3.475 1.1 1.627 2.27 3.321 4.49 5.08 6.655m18.452 18.779c2.424 2.04 4.92 3.998 7.482 5.87.652.478.31 2.949.97 3.415.63.443 2.262-1.12 2.9-.686l.32.218c.713.481.43 2.956 1.153 3.425.671.436 2.346-1.134 3.025-.71a138.107 138.107 0 0018.198 9.564c1.017.442 1.041 2.871 2.071 3.289.984.399 2.974-1.213 3.97-.836 15.242 5.771 31.768 8.93 49.033 8.93 1.522 0 3.038 1.975 4.548 1.927 1.195-.039 2.386-2.093 3.573-2.161a138.65 138.65 0 0018.625-2.346c1.273-.25 2.584 1.484 3.844 1.2 1.144-.257 2.237-2.529 3.37-2.814a137.44 137.44 0 005.702-1.568m23.246-9.316a138.387 138.387 0 0013.719-8.033c1.026-.682 4.042.622 5.048-.087 1.083-.763.155-3.542 1.215-4.335 2.868-2.145 5.65-4.4 8.34-6.756.637-.558 3.27.877 3.897.307.674-.613-.657-3.233.006-3.86.697-.659 1.387-1.325 2.07-1.998.675-.665 3.342.664 4.003-.014.793-.814-.425-3.637.348-4.47a139.161 139.161 0 0012.039-14.915c.508-.727 3.009-.459 3.503-1.196.55-.82-.908-2.646-.375-3.479a138.323 138.323 0 006.905-12.079c.393-.776 2.78-.557 3.159-1.342.43-.89-1.15-2.784-.74-3.684.445-.972.878-1.95 1.3-2.934.284-.663 2.564-.33 2.838-.998.284-.692-1.437-2.386-1.164-3.084a137.425 137.425 0 005.787-18.555c.198-.838 2.388-1.678 2.57-2.522.208-.964-1.594-1.932-1.406-2.903.532-2.746.983-5.52 1.35-8.32m.213-34.617c-.79-6.673-2.054-13.2-3.758-19.547-.206-.77 1.944-2.237 1.725-3.001-.24-.834-2.85-.963-3.105-1.791-.44-1.43-.902-2.849-1.386-4.258-.276-.801 1.442-2.6 1.152-3.394-.29-.793-2.586-.583-2.889-1.37a137.89 137.89 0 00-9.32-19.471c-.416-.717 1.163-2.43.735-3.14-.359-.595-2.722-.187-3.09-.777a138.983 138.983 0 00-12.996-17.582c-.554-.637.887-3.269.322-3.896-.63-.7-3.269.606-3.914-.081a139.356 139.356 0 00-10.095-9.727c-.634-.552.726-3.099.082-3.64-.637-.535-3.28.936-3.926.413a139.13 139.13 0 00-2.845-2.242c-.608-.467.779-2.929.163-3.386-.761-.564-3.528.88-4.3.331a138.469 138.469 0 00-17.623-10.636c-.583-.295-.168-2.587-.756-2.874-.58-.283-2.163 1.437-2.748 1.162a137.698 137.698 0 00-7.342-3.202m-25.085-7.4a138.466 138.466 0 00-14.998-2.065c-.633-.053-1.266-2.1-1.902-2.144-.689-.048-1.38 1.91-2.072 1.873-1.682-.09-3.372-.151-5.07-.181-.829-.015-1.66-2.022-2.492-2.022-.807 0-1.612 2.007-2.415 2.02a138.659 138.659 0 00-31.011 4.04c-.626.156-1.651-1.224-2.274-1.06-.61.16-.818 1.863-1.424 2.032a137.489 137.489 0 00-20.42 7.451c-.75.343-2.495-1.308-3.237-.953-.67.321-.337 2.648-1.002 2.98a138.375 138.375 0 00-15.43 8.992c-.712.48-2.42-1.034-3.124-.541-.67.469-.337 2.944-.999 3.425-.418.304-.75.306-1.164.614-.465.346-2.54-.852-3-.5-.547.418.04 2.574-.5 3-5.159 4.061-9.878 8.524-14.294 13.298-.49.529-2.974-.938-3.456-.402-.466.52 1.07 3.042.611 3.567-1.898 2.171-3.742 4.4-5.544 6.678M339.5 87.005c-5.694 0-11.286.434-16.745 1.272m-10.711 2.199a108.662 108.662 0 00-14.953 5.044m-4.502 2.014a109.248 109.248 0 00-10.199 5.525m-9.595 6.602a110.117 110.117 0 00-10.446 9.14m-3.398 3.527a110.062 110.062 0 00-7.311 8.814m-7.422 11.366a109.104 109.104 0 00-4.918 9.769m-2.521 6.213a108.64 108.64 0 00-3.233 10.267m-2.118 10.018a109.802 109.802 0 00-1.417 16.194m.061 5.556c.127 3.499.417 6.956.864 10.363m8.26 29.61a109.207 109.207 0 007.543 14.22m1.977 3.031c1.96 2.9 4.055 5.701 6.277 8.394m7.278 7.99a110.106 110.106 0 0011.476 9.94m6.347 4.432a109.4 109.4 0 008.815 5.138m8.947 4.165c4.834 1.99 9.841 3.643 14.993 4.93m5.149 1.156c3.68.733 7.428 1.282 11.231 1.636m13.54.427a110.05 110.05 0 0014.11-1.324m6.581-1.257a108.668 108.668 0 0010.308-2.84m9.307-3.545a109.166 109.166 0 0013.439-6.981m6.895-4.58a109.982 109.982 0 006.847-5.353m7.133-6.607a110.102 110.102 0 009.716-11.262m2.943-4.11c2.101-3.083 4.049-6.279 5.832-9.576m4.86-10.22a108.659 108.659 0 004.657-13.832m1.02-4.217c.837-3.783 1.478-7.64 1.912-11.56m.659-13.83c-.11-7.439-.96-14.698-2.483-21.707m-3.99-13.86a108.835 108.835 0 00-4.648-10.953m-4.368-8.034a109.803 109.803 0 00-9.656-13.64m-2.779-3.224a110.182 110.182 0 00-7.453-7.55m-8.899-7.362a109.823 109.823 0 00-12.499-8.028m-4.623-2.402A108.843 108.843 0 00377.29 93.7m-9.386-2.975a109.016 109.016 0 00-15.437-2.96M345.911 105.226a92.839 92.839 0 00-6.411-.221c-5.214 0-10.327.436-15.303 1.274m-27.444 9.304a91.51 91.51 0 00-9.96 6.119m-16.585 15.043a91.894 91.894 0 00-5.798 7.46m-9.563 17.509a90.795 90.795 0 00-4.31 13.3m-2.376 26.957a91.65 91.65 0 001.344 11.149m16.41 37.777a91.974 91.974 0 006.742 8.092m13.888 12.144a91.518 91.518 0 0010.176 6.277m28.215 9.442c3.018.483 6.086.818 9.195.998m29.06-2.942a90.785 90.785 0 009.102-2.955m18.553-9.702a91.854 91.854 0 007.325-5.53m18.654-21.274a91.344 91.344 0 004.942-8.84m7.758-23.653a91.608 91.608 0 001.261-10.141m-3.225-31.245a90.874 90.874 0 00-6.151-15.889m-16.676-23.337a92.052 92.052 0 00-6.495-5.996m-21.721-13.544a90.941 90.941 0 00-9.026-3.436"/><circle cx="339.5" cy="196.505" r="77.5"/><path stroke-linecap="square" d="M339.492 25.011l-.042 61.867M350.61 37.409l-4.791 67.85"/><path stroke-width="1.5" stroke-linecap="square" d="M202 43H0v374.5h676V2.5H358l-5 22"/><path stroke-linecap="square" d="M352.64 89.045l-3.784 30.64M365.9 60.481l-2.016 10.337M388 20.005l-20.251 70.824M387.5 45.005l-20 64"/><path stroke-width="1.5" stroke-linecap="square" d="M167 56.556H16V411h644l-1-390H402l-9 25.5"/><path stroke-linecap="square" d="M391.494 67.681l-4.114 10.161M414.751 42.147l-27.374 56.026M392.625 100.51l-15.589 28.077M415.01 80.124l-5.72 8.796M449 49.505l-44.5 58.5M441.998 74.284l-43.374 51.62M435.935 96.56l-7.296 7.545M466.729 81.901l-46.112 41.463"/><path stroke-width="1.5" stroke-linecap="square" d="M32 1v404h612V72.746L495 71.5l-46 39"/><path stroke-linecap="square" d="M453.646 116.515l-8.884 6.211M496.202 102.326l-62.699 37.615M466.824 139.77l-10.011 4.449M500.581 137.86l-57.924 21.037M492.978 152.477l-65.228 18.656"/><path stroke-width="1.5" stroke-linecap="square" d="M675 142H562.5l-56 13.505"/><path stroke-linecap="square" d="M446.5 173.505l-31 7.5M477.36 179.561l-10.359 1.264M522 192.505l-73 2M498.5 207.005l-67.563-4.134M476.5 215.005l-9.195-.531M506.5 232.505l-59.5-12.5M444.933 224.766l-30.433-7.261"/><path stroke-width="1.5" stroke-linecap="square" d="M658.5 262h-96L492 243.505"/><path stroke-linecap="square" d="M470 241.005l-8-3M507.5 265.505l-66.5-27.5M483 265.505l-61.348-28.904M459.223 265.705l-7.58-4.383M482.5 291.505l-52.118-33.629"/><path d="M643 325H509l-59.5-43.995m-22.265-18.303L401 244.005" stroke-width="1.5" stroke-linecap="square"/><path stroke-linecap="square" d="M444.5 286.505l-6.5-5.5M470.5 324.005l-52.5-50.5M426 304.505l-5-6M440.236 335.419l-36.26-49.98M429.5 327.505l-38.5-55M402.5 319.505l-3-7.5M396 290.005l-17.5-26M412.5 363.505l-29-66.5M396.504 345.517l-24.163-63.077"/><path d="M660 380.5H395l-7.5-31.495M330.5 424v-36.505L368 378m11-48.995l-2-8" stroke-width="1.5" stroke-linecap="square"/><path stroke-linecap="square" d="M377 363.505l-13-59.5M356.435 304.55L351 273.505M353 334.005l-.5-8M345.64 379.174l-2.495-72.893M330 355.005l4-67M323 333.505v-8M306.603 364.433l11.783-60.398"/><path d="M32 384.5h257l14.454-54.373m9.046-27.622l5.5-31" stroke-width="1.5" stroke-linecap="square"/><path stroke-linecap="square" d="M296.441 328.261l2.738-8.407M270.761 365.918l27.535-68.017"/><path stroke-width="1.5" stroke-linecap="square" d="M0 349h135l73-41.995"/><path stroke-linecap="square" d="M231.657 283.519l6.785-5.486M198.5 294.005l50.5-36M246.564 254.318l25.936-17.813"/><path stroke-width="1.5" stroke-linecap="square" d="M16 314h119l65-39.995"/><path stroke-linecap="square" d="M217.223 261.253l7.245-3.846M172.267 270.674l66.841-29.704M182.5 225.005l66.5-12M201.865 210.765l8.895-.929M168.5 204.005l61-3"/><path stroke-width="1.5" stroke-linecap="square" d="M32.508 196.281l168.875.031"/><path stroke-linecap="square" d="M230.5 194.505l31.567-.851M201.544 184.252l9.389.828M158.779 167.675l72.472 11.529M206.388 158.172l9.383 2.698M179.053 137.927l58.047 21.172M191.5 135.005l63.072 27.068M239.138 151.693l29.464 13.142M216.5 132.505l7.5 4.5M181.071 104.861l62.429 37.644"/><path stroke-width="1.5" stroke-linecap="square" d="M73 424V74.5h81l119 81.005"/><path stroke-linecap="square" d="M208.594 104.694l55.474 38.899"/><path d="M167 57l46.5 39.505L167 57zm64.5 54.005l6 5.5" stroke-width="1.5" stroke-linecap="square"/><path stroke-linecap="square" d="M214 81.005l44.5 41.5"/><path stroke-width="1.5" stroke-linecap="square" d="M203 43l21.5 26.5"/><path stroke-linecap="square" d="M248.365 91.558l6.851 7.892M229.426 50.281l43.074 59.724M247.846 65.488l39.085 55.9M270.03 76.093l4.988 8.655M292.118 97.548L265.5 42.505"/><path stroke-width="1.5" stroke-linecap="square" d="M32.5.5H255l33 67.005"/><path stroke-linecap="square" d="M295 64.505l3 10M293 19.005l18.5 71.5M320.216 59.347l1.392 9.954M297.5 95.505l13.5 28.5M263 119.005l22 21.5M272.316 317.203l4.517-8.136M245.674 340.49L280 289.005M247.783 327.034l38.823-55.364M273.195 284.115l19.607-25.982M251 302.505l5-7M211.5 327.505l51-53M222.667 305.096l49.563-46.154"/></g><g transform="translate(244 20)" fill="#FFF"><circle cx="113.5" cy="59" r="1.5"/><circle cx="138" cy="47.56" r="1.5"/><circle cx="131" cy="49.5" r="1.5"/><circle cx="163" cy="42" r="1.5"/><circle cx="208.5" cy="43" r="1.5"/><circle cx="193.5" cy="20" r="1.5"/><circle cx="182.5" cy="8" r="1.5"/><circle cx="196" cy="8" r="1.5"/><circle cx="230.5" cy="27" r="1.5"/><circle cx="230.5" cy="27" r="1.5"/><circle cx="231.5" cy="1.5" r="1.5"/><circle cx="236" cy="29" r="1.5"/><circle cx="234.5" cy="50" r="1.5"/><circle cx="257.5" cy="24.5" r="1.5"/><circle cx="292" cy="31.5" r="1.5"/><circle cx="257.5" cy="63" r="1.5"/><circle cx="278.5" cy="79" r="1.5"/><circle cx="284.5" cy="57" r="1.5"/><circle cx="291.5" cy="93" r="1.5"/><circle cx="296.5" cy="99" r="1.5"/><circle cx="309.5" cy="122" r="1.5"/><circle cx="343.5" cy="120.5" r="1.5"/><circle cx="339.5" cy="84.5" r="1.5"/><circle cx="349.5" cy="138" r="1.5"/><circle cx="349.5" cy="215" r="1.5"/><circle cx="364.5" cy="174.5" r="1.5"/><circle cx="341.5" cy="189" r="1.5"/><circle cx="335" cy="226" r="1.5"/><circle cx="326" cy="248" r="1.5"/><circle cx="326" cy="274" r="1.5"/><circle cx="313" cy="306" r="1.5"/><circle cx="287.5" cy="268.5" r="1.5"/><circle cx="283" cy="317" r="1.5"/><circle cx="255.5" cy="346" r="1.5"/><circle cx="239.5" cy="327.5" r="1.5"/><circle cx="212.5" cy="359" r="1.5"/><circle cx="188.5" cy="361" r="1.5"/><circle cx="272" cy="310" r="1.5"/><circle cx="230" cy="331" r="1.5"/><circle cx="220" cy="346" r="1.5"/><circle cx="173" cy="338" r="1.5"/><circle cx="149.5" cy="347" r="1.5"/><circle cx="113.5" cy="348" r="1.5"/><circle cx="351" cy="248" r="1.5"/><circle cx="335.5" cy="135" r="1.5"/><circle cx="320.5" cy="162" r="1.5"/><circle cx="319.5" cy="198" r="1.5"/><circle cx="313.5" cy="224" r="1.5"/><circle cx="302.5" cy="248" r="1.5"/><circle cx="292.5" cy="263" r="1.5"/><circle cx="269.5" cy="288" r="1.5"/><circle cx="245.5" cy="302" r="1.5"/><circle cx="222.5" cy="312" r="1.5"/><circle cx="196" cy="317" r="1.5"/><circle cx="166" cy="317" r="1.5"/><circle cx="146.5" cy="313" r="1.5"/><circle cx="139.5" cy="311" r="1.5"/><circle cx="115.5" cy="300" r="1.5"/><circle cx="88.5" cy="323" r="1.5"/><circle cx="90.5" cy="309" r="1.5"/><circle cx="54.5" cy="310" r="1.5"/><circle cx="51.5" cy="289" r="1.5"/><circle cx="65.5" cy="288" r="1.5"/><circle cx="93.5" cy="285" r="1.5"/><circle cx="74.5" cy="266" r="1.5"/><circle cx="60.5" cy="244" r="1.5"/><circle cx="43.5" cy="256" r="1.5"/><circle cx="14.5" cy="253.5" r="1.5"/><circle cx="41.5" cy="276" r="1.5"/><circle cx="44.5" cy="193" r="1.5"/><circle cx="25.5" cy="208" r="1.5"/><circle cx="11.5" cy="186.5" r="1.5"/><circle cx="1.5" cy="150.5" r="1.5"/><circle cx="44.5" cy="179" r="1.5"/><circle cx="44.5" cy="167" r="1.5"/><circle cx="49.5" cy="140.5" r="1.5"/><circle cx="21.5" cy="120.5" r="1.5"/><circle cx="59.5" cy="115" r="1.5"/><circle cx="34.5" cy="117" r="1.5"/><circle cx="74.5" cy="93" r="1.5"/><circle cx="51.5" cy="87" r="1.5"/><circle cx="23.5" cy="86.5" r="1.5"/><circle cx="91.5" cy="47.5" r="1.5"/><circle cx="57" cy="79" r="1.5"/><circle cx="56.5" cy="63" r="1.5"/><circle cx="67.5" cy="52" r="1.5"/><circle cx="71.5" cy="32" r="1.5"/><circle cx="108.5" cy="25" r="1.5"/><circle cx="136" cy="1.5" r="1.5"/><circle cx="91" cy="74" r="1.5"/></g><g fill-rule="nonzero"><use fill="url(#a)" xlink:href="#g"/><use fill="#000" filter="url(#h)" xlink:href="#g"/></g><g fill-rule="nonzero"><use fill="#000" filter="url(#i)" xlink:href="#j"/><path stroke="#7F7F7F" stroke-width=".5" d="M426.5 120.75c21.47 0 40.908 8.702 54.978 22.772 14.07 14.07 22.772 33.508 22.772 54.978s-8.702 40.908-22.772 54.978c-14.07 14.07-33.508 22.772-54.978 22.772s-40.908-8.702-54.978-22.772c-14.07-14.07-22.772-33.508-22.772-54.978s8.702-40.908 22.772-54.978c14.07-14.07 33.508-22.772 54.978-22.772zm0 4.5c-20.227 0-38.54 8.199-51.796 21.454-13.255 13.256-21.454 31.569-21.454 51.796s8.199 38.54 21.454 51.796c13.256 13.255 31.569 21.454 51.796 21.454s38.54-8.199 51.796-21.454c13.255-13.256 21.454-31.569 21.454-51.796s-8.199-38.54-21.454-51.796C465.04 133.45 446.727 125.25 426.5 125.25z" fill="url(#f)" fill-rule="evenodd"/></g><path stroke="#FFF" stroke-width="1.5" opacity=".5" stroke-linecap="square" d="M690.5 426.5l.5-19.5"/><circle fill="#FFF" cx="289.5" cy="412.5" r="1.5"/><circle fill="#FFF" cx="554.5" cy="419.5" r="1.5"/><circle fill="#FFF" cx="691" cy="406.5" r="1.5"/><circle fill="#FFF" cx="746.5" cy="382.5" r="1.5"/><circle fill="#FFF" cx="730.5" cy="327.5" r="1.5"/><circle fill="#FFF" cx="747.5" cy="264.5" r="1.5"/><circle fill="#FFF" cx="763" cy="144" r="1.5"/><circle fill="#FFF" cx="119.5" cy="386.5" r="1.5"/><circle fill="#FFF" cx="87.5" cy="351" r="1.5"/><circle fill="#FFF" cx="103.5" cy="316.5" r="1.5"/><circle fill="#FFF" cx="119.5" cy="198.5" r="1.5"/><path stroke="#FFF" stroke-width="1.5" opacity=".5" stroke-linecap="square" d="M70 301.5l-60-.092.5-121.908"/><path stroke="#FFF" stroke-width="1.5" opacity=".5" stroke-linecap="square" d="M12 71h58.498L71 489.5"/><path fill="#FFF" opacity=".5" d="M5.293 66v10.142l5.98-4.288-.028-1.586zM5.222 178.771h10.142l-5.071-7.071z"/><path stroke="#FFF" stroke-width="1.5" opacity=".5" stroke-linecap="square" d="M289.5 426v-13M554.5 425.5V419M691.5 466v-5.5M554.5 467v-6.5M417.5 466.75v-6.5M290 466v-6.5M160 466v-6.5M71.5 489h620M691.5 487.5V481M554.5 487.5V481M417.5 487.5V481M290 487.5V481M160 487.5V481"/></g></svg>