<svg width="719" height="267" xmlns="http://www.w3.org/2000/svg" xmlns:xlink="http://www.w3.org/1999/xlink"><defs><filter x="-10.5%" y="-37%" width="119%" height="182.6%" filterUnits="objectBoundingBox" id="d"><feOffset dx="-1" dy="1" in="SourceAlpha" result="shadowOffsetOuter1"/><feGaussianBlur stdDeviation="3" in="shadowOffsetOuter1" result="shadowBlurOuter1"/><feColorMatrix values="0 0 0 0 0 0 0 0 0 0 0 0 0 0 0 0 0 0 0.230550699 0" in="shadowBlurOuter1"/></filter><filter x="-35.7%" y="-7.1%" width="171.4%" height="114.3%" filterUnits="objectBoundingBox" id="j"><feGaussianBlur stdDeviation="1.5" in="SourceAlpha" result="shadowBlurInner1"/><feOffset dy="-1" in="shadowBlurInner1" result="shadowOffsetInner1"/><feComposite in="shadowOffsetInner1" in2="SourceAlpha" operator="arithmetic" k2="-1" k3="1" result="shadowInnerInner1"/><feColorMatrix values="0 0 0 0 0 0 0 0 0 0 0 0 0 0 0 0 0 0 0.319793488 0" in="shadowInnerInner1"/></filter><filter x="-35.7%" y="-7.1%" width="171.4%" height="114.3%" filterUnits="objectBoundingBox" id="l"><feGaussianBlur stdDeviation="1.5" in="SourceAlpha" result="shadowBlurInner1"/><feOffset dy="-1" in="shadowBlurInner1" result="shadowOffsetInner1"/><feComposite in="shadowOffsetInner1" in2="SourceAlpha" operator="arithmetic" k2="-1" k3="1" result="shadowInnerInner1"/><feColorMatrix values="0 0 0 0 0 0 0 0 0 0 0 0 0 0 0 0 0 0 0.319793488 0" in="shadowInnerInner1"/></filter><filter x="-62.5%" y="-7.1%" width="225%" height="114.3%" filterUnits="objectBoundingBox" id="n"><feGaussianBlur stdDeviation="1.5" in="SourceAlpha" result="shadowBlurInner1"/><feOffset dy="-1" in="shadowBlurInner1" result="shadowOffsetInner1"/><feComposite in="shadowOffsetInner1" in2="SourceAlpha" operator="arithmetic" k2="-1" k3="1" result="shadowInnerInner1"/><feColorMatrix values="0 0 0 0 0 0 0 0 0 0 0 0 0 0 0 0 0 0 0.319793488 0" in="shadowInnerInner1"/></filter><filter x="-62.5%" y="-7.1%" width="225%" height="114.3%" filterUnits="objectBoundingBox" id="p"><feGaussianBlur stdDeviation="1.5" in="SourceAlpha" result="shadowBlurInner1"/><feOffset dy="-1" in="shadowBlurInner1" result="shadowOffsetInner1"/><feComposite in="shadowOffsetInner1" in2="SourceAlpha" operator="arithmetic" k2="-1" k3="1" result="shadowInnerInner1"/><feColorMatrix values="0 0 0 0 0 0 0 0 0 0 0 0 0 0 0 0 0 0 0.319793488 0" in="shadowInnerInner1"/></filter><filter x="-31.2%" y="-7.1%" width="162.5%" height="114.3%" filterUnits="objectBoundingBox" id="r"><feGaussianBlur stdDeviation="1.5" in="SourceAlpha" result="shadowBlurInner1"/><feOffset dy="-1" in="shadowBlurInner1" result="shadowOffsetInner1"/><feComposite in="shadowOffsetInner1" in2="SourceAlpha" operator="arithmetic" k2="-1" k3="1" result="shadowInnerInner1"/><feColorMatrix values="0 0 0 0 0 0 0 0 0 0 0 0 0 0 0 0 0 0 0.319793488 0" in="shadowInnerInner1"/></filter><filter x="-31.2%" y="-7.1%" width="162.5%" height="114.3%" filterUnits="objectBoundingBox" id="t"><feGaussianBlur stdDeviation="1.5" in="SourceAlpha" result="shadowBlurInner1"/><feOffset dy="-1" in="shadowBlurInner1" result="shadowOffsetInner1"/><feComposite in="shadowOffsetInner1" in2="SourceAlpha" operator="arithmetic" k2="-1" k3="1" result="shadowInnerInner1"/><feColorMatrix values="0 0 0 0 0 0 0 0 0 0 0 0 0 0 0 0 0 0 0.319793488 0" in="shadowInnerInner1"/></filter><filter x="-27.8%" y="-7.1%" width="155.6%" height="114.3%" filterUnits="objectBoundingBox" id="v"><feGaussianBlur stdDeviation="1.5" in="SourceAlpha" result="shadowBlurInner1"/><feOffset dy="-1" in="shadowBlurInner1" result="shadowOffsetInner1"/><feComposite in="shadowOffsetInner1" in2="SourceAlpha" operator="arithmetic" k2="-1" k3="1" result="shadowInnerInner1"/><feColorMatrix values="0 0 0 0 0 0 0 0 0 0 0 0 0 0 0 0 0 0 0.319793488 0" in="shadowInnerInner1"/></filter><filter x="-27.8%" y="-7.1%" width="155.6%" height="114.3%" filterUnits="objectBoundingBox" id="x"><feGaussianBlur stdDeviation="1.5" in="SourceAlpha" result="shadowBlurInner1"/><feOffset dy="-1" in="shadowBlurInner1" result="shadowOffsetInner1"/><feComposite in="shadowOffsetInner1" in2="SourceAlpha" operator="arithmetic" k2="-1" k3="1" result="shadowInnerInner1"/><feColorMatrix values="0 0 0 0 0 0 0 0 0 0 0 0 0 0 0 0 0 0 0.319793488 0" in="shadowInnerInner1"/></filter><filter x="-25%" y="-7.1%" width="150%" height="114.3%" filterUnits="objectBoundingBox" id="z"><feGaussianBlur stdDeviation="1.5" in="SourceAlpha" result="shadowBlurInner1"/><feOffset dy="-1" in="shadowBlurInner1" result="shadowOffsetInner1"/><feComposite in="shadowOffsetInner1" in2="SourceAlpha" operator="arithmetic" k2="-1" k3="1" result="shadowInnerInner1"/><feColorMatrix values="0 0 0 0 0 0 0 0 0 0 0 0 0 0 0 0 0 0 0.319793488 0" in="shadowInnerInner1"/></filter><filter x="-31.2%" y="-8.8%" width="162.5%" height="117.5%" filterUnits="objectBoundingBox" id="E"><feGaussianBlur stdDeviation="4.5" in="SourceAlpha" result="shadowBlurInner1"/><feOffset dy="1" in="shadowBlurInner1" result="shadowOffsetInner1"/><feComposite in="shadowOffsetInner1" in2="SourceAlpha" operator="arithmetic" k2="-1" k3="1" result="shadowInnerInner1"/><feColorMatrix values="0 0 0 0 0 0 0 0 0 0 0 0 0 0 0 0 0 0 0.301737325 0" in="shadowInnerInner1"/></filter><filter x="-58.3%" y="-14.4%" width="205.6%" height="132.2%" filterUnits="objectBoundingBox" id="F"><feOffset dx="-1" dy="1" in="SourceAlpha" result="shadowOffsetOuter1"/><feGaussianBlur stdDeviation="3" in="shadowOffsetOuter1" result="shadowBlurOuter1"/><feColorMatrix values="0 0 0 0 0 0 0 0 0 0 0 0 0 0 0 0 0 0 0.230550699 0" in="shadowBlurOuter1"/></filter><linearGradient x1=".169%" y1="49.86%" x2="99.899%" y2="49.86%" id="a"><stop stop-color="#6B666B" offset="0%"/><stop stop-color="#F3F4F4" offset="50.303%"/><stop stop-color="#6B666B" offset="100%"/></linearGradient><linearGradient x1=".169%" y1="49.86%" x2="99.899%" y2="49.86%" id="b"><stop stop-color="#524E52" offset="0%"/><stop stop-color="#F3F4F4" offset="50.303%"/><stop stop-color="#524E52" offset="100%"/></linearGradient><linearGradient x1=".169%" y1="49.86%" x2="99.899%" y2="49.86%" id="c"><stop stop-color="#6B666B" offset="0%"/><stop stop-color="#F3F4F4" offset="50.303%"/><stop stop-color="#6B666B" offset="100%"/></linearGradient><linearGradient x1=".453%" y1="50.403%" x2="99.615%" y2="50.403%" id="f"><stop stop-color="#AFACB1" offset="0%"/><stop stop-color="#BAB9BC" offset="28.499%"/><stop stop-color="#D9D8DA" offset="42.07%"/><stop stop-color="#F3F4F4" offset="58.437%"/><stop stop-color="#958F95" offset="100%"/></linearGradient><linearGradient x1="50.034%" y1="-.004%" x2="50.034%" y2="99.984%" id="g"><stop stop-color="#8B878D" offset="0%"/><stop stop-color="#F3F4F4" offset="53.011%"/><stop stop-color="#807B80" offset="100%"/></linearGradient><linearGradient x1=".04%" y1="49.99%" x2="100.028%" y2="49.99%" id="h"><stop stop-color="#8B878D" offset="0%"/><stop stop-color="#F3F4F4" offset="49.93%"/><stop stop-color="#807B80" offset="100%"/></linearGradient><linearGradient x1=".04%" y1="49.99%" x2="100.028%" y2="49.99%" id="i"><stop stop-color="#8B878D" offset="0%"/><stop stop-color="#F3F4F4" offset="49.121%"/><stop stop-color="#807B80" offset="100%"/></linearGradient><linearGradient x1=".04%" y1="49.99%" x2="100.028%" y2="49.99%" id="B"><stop stop-color="#8B878D" offset="0%"/><stop stop-color="#F3F4F4" offset="49.93%"/><stop stop-color="#807B80" offset="100%"/></linearGradient><linearGradient x1="50.034%" y1="0%" x2="50.034%" y2="100%" id="C"><stop stop-color="#363D43" offset="0%"/><stop stop-color="#798085" offset="49.388%"/><stop stop-color="#363D43" offset="100%"/></linearGradient><linearGradient x1=".453%" y1="50.403%" x2="99.615%" y2="50.403%" id="H"><stop stop-color="#AFACB1" offset="0%"/><stop stop-color="#BAB9BC" offset="28.499%"/><stop stop-color="#D9D8DA" offset="42.07%"/><stop stop-color="#F3F4F4" offset="58.437%"/><stop stop-color="#958F95" offset="100%"/></linearGradient><rect id="k" x="10" y="0" width="7" height="35" rx="3.5"/><rect id="m" x="97" y="0" width="7" height="35" rx="3.5"/><rect id="o" x="0" y="0" width="4" height="35" rx="2"/><rect id="q" x="110" y="0" width="4" height="35" rx="2"/><rect id="s" x="23" y="0" width="8" height="35" rx="4"/><rect id="u" x="83" y="0" width="8" height="35" rx="4"/><rect id="w" x="37" y="0" width="9" height="35" rx="4.5"/><rect id="y" x="68" y="0" width="9" height="35" rx="4.5"/><rect id="A" x="52" y="0" width="10" height="35" rx="5"/><path d="M646.722 110c6.351 0 11.5 5.149 11.5 11.5s-5.149 11.5-11.5 11.5h-77c-6.351 0-11.5-5.149-11.5-11.5s5.149-11.5 11.5-11.5h77zm0 1h-77c-5.8 0-10.5 4.701-10.5 10.5 0 5.704 4.548 10.346 10.216 10.496l.284.004h77c5.799 0 10.5-4.701 10.5-10.5 0-5.704-4.548-10.346-10.216-10.496l-.284-.004z" id="e"/><path d="M30-19a8 8 0 018 8v41a8 8 0 11-16 0v-41a8 8 0 018-8z" id="D"/><path d="M30-20a9 9 0 00-9 9v41a9 9 0 0018 0v-41a9 9 0 00-9-9zm0 2a7 7 0 017 7v41a7 7 0 01-14 0v-41a7 7 0 017-7z" id="G"/></defs><g fill="none" fill-rule="evenodd"><path d="M210.722 173.5V11m50.5-1h348v62" stroke="#FFCC01" stroke-width="1.5" stroke-linecap="square"/><path fill="#FFCB00" d="M1.222 5.293h10.142l-5.071 7.071zM130.515 15.364V5.222l7.07 5.07zM220.515 15.364V5.222l7.07 5.07zM205.722 17.293h10.142l-5.071 7.071z"/><path stroke="#FFF" opacity=".5" d="M295.222 105V91h-37v14"/><circle transform="matrix(1 0 0 -1 272.222 95.5)" cx="4.5" cy="4.5" r="4.5" fill="#62B5E5"/><path stroke="#FFF" opacity=".5" d="M295.222 174v-14h-37v14"/><circle transform="matrix(1 0 0 -1 272.222 164.5)" cx="4.5" cy="4.5" r="4.5" fill="#62B5E5"/><path stroke="#FFF" opacity=".5" d="M429.222 231v-14h-37v14"/><circle transform="matrix(1 0 0 -1 406.222 221.5)" cx="4.5" cy="4.5" r="4.5" fill="#62B5E5"/><g fill="#A1A9B4" fill-rule="nonzero"><path d="M272.722 110.5v-10h1.5v10zM280.222 110.5v-10h1.5v10zM276.422 110.5v-4h1.5v4zM276.422 104.5v-4h1.5v4z"/></g><g fill="#A1A9B4" fill-rule="nonzero"><path d="M272.722 179.5v-10h1.5v10zM280.222 179.5v-10h1.5v10zM276.422 179.5v-4h1.5v4zM276.422 173.5v-4h1.5v4z"/></g><g fill="#A1A9B4" fill-rule="nonzero"><path d="M406.722 236.5v-10h1.5v10zM414.222 236.5v-10h1.5v10zM410.422 236.5v-4h1.5v4zM410.422 230.5v-4h1.5v4z"/></g><path fill="#FFCB00" d="M44.929 142.142V132L52 137.071z"/><path d="M6.222 137h10.126m20.254 0h9.62M6.222 10v221.5h113.5V62m0-9V10h141.5" stroke="#FFCC01" stroke-width="1.5" stroke-linecap="square"/><path stroke="#FFF" opacity=".5" d="M120.222 29h14v57h-14"/><circle transform="rotate(-90 95.61 -33.61)" cx="4.5" cy="4.5" r="4.5" fill="#62B5E5"/><g fill="#A1A9B4" fill-rule="nonzero"><path d="M124.722 62h-10v-1.5h10zM124.722 54.5h-10V53h10zM124.722 58.3h-4v-1.5h4zM118.722 58.3h-4v-1.5h4z"/></g><path d="M211.222 105h60m12 0h243M211.222 174h60.5m11 0h243.5M374.222 174.5v57h32m10.5 0h109.5" stroke="#FFCC01" stroke-width="1.5" stroke-linecap="square"/><g fill-rule="nonzero"><path d="M117.75 45.25v118.276c-2.39-14.19-9.486-27.372-19.573-37.118C87.7 116.288 74 109.873 59 109.873c-15.01 0-28.72 6.423-39.161 16.539-9.84 9.53-16.777 22.34-19.17 36.132l-.117.69L.251 45.25H117.75zM15.5 52.75c-1.01 0-1.928.4-2.604 1.075-.661.662-1.092 1.59-1.146 2.669h0V84.5l.007.237a3.738 3.738 0 001.091 2.415A3.738 3.738 0 0015.5 88.25c1.01 0 1.928-.4 2.604-1.075.661-.662 1.092-1.59 1.146-2.669h0V56.5l-.007-.237a3.738 3.738 0 00-1.091-2.415A3.738 3.738 0 0015.5 52.75zm87 0c-1.01 0-1.928.4-2.604 1.075-.661.662-1.092 1.59-1.146 2.669h0V84.5l.007.237a3.738 3.738 0 001.091 2.415 3.738 3.738 0 002.652 1.098c1.01 0 1.928-.4 2.604-1.075.661-.662 1.092-1.59 1.146-2.669h0V56.5l-.007-.237a3.738 3.738 0 00-1.091-2.415 3.738 3.738 0 00-2.652-1.098zm11.5 0h0l-.198.009a2.173 2.173 0 00-1.355.632c-.393.392-.654.945-.697 1.6h0V86l.007.185c.045.547.286 1.04.652 1.406.407.407.97.659 1.591.659.602 0 1.148-.236 1.553-.641.393-.392.654-.945.697-1.6h0V55l-.007-.185a2.243 2.243 0 00-.652-1.406A2.243 2.243 0 00114 52.75h0zm-85 0c-1.148 0-2.19.455-2.955 1.22-.752.752-1.24 1.805-1.295 3.024h0V84l.006.233a4.236 4.236 0 001.239 2.772A4.237 4.237 0 0029 88.25c1.148 0 2.19-.455 2.955-1.22.752-.752 1.24-1.805 1.295-3.024h0V57l-.006-.233a4.236 4.236 0 00-1.239-2.772A4.237 4.237 0 0029 52.75zm60 0c-1.148 0-2.19.455-2.955 1.22-.752.752-1.24 1.805-1.295 3.024h0V84l.006.233a4.236 4.236 0 001.239 2.772A4.237 4.237 0 0089 88.25c1.148 0 2.19-.455 2.955-1.22.752-.752 1.24-1.805 1.295-3.024h0V57l-.006-.233a4.236 4.236 0 00-1.239-2.772A4.237 4.237 0 0089 52.75zm-45.5 0c-1.284 0-2.45.51-3.306 1.366-.841.841-1.385 2.019-1.444 3.379h0V83.5l.007.26a4.735 4.735 0 001.384 3.099A4.735 4.735 0 0043.5 88.25c1.284 0 2.45-.51 3.306-1.366.841-.841 1.385-2.019 1.444-3.379h0V57.5l-.007-.26a4.735 4.735 0 00-1.384-3.099A4.735 4.735 0 0043.5 52.75zm31 0c-1.284 0-2.45.51-3.306 1.366-.841.841-1.385 2.019-1.444 3.379h0V83.5l.007.26a4.735 4.735 0 001.384 3.099A4.735 4.735 0 0074.5 88.25c1.284 0 2.45-.51 3.306-1.366.841-.841 1.385-2.019 1.444-3.379h0V57.5l-.007-.26a4.735 4.735 0 00-1.384-3.099A4.735 4.735 0 0074.5 52.75zm-15.5 0a5.141 5.141 0 00-3.658 1.511c-.932.932-1.532 2.235-1.592 3.734h0V83l.007.27a5.233 5.233 0 001.53 3.442A5.234 5.234 0 0059 88.25a5.141 5.141 0 003.658-1.511c.932-.932 1.532-2.235 1.592-3.734h0V58l-.007-.27a5.233 5.233 0 00-1.53-3.442A5.234 5.234 0 0059 52.75zm-55 0c-.602 0-1.148.236-1.553.641-.393.392-.654.945-.697 1.6h0V86l.007.185c.045.547.286 1.04.652 1.406.407.407.97.659 1.591.659.602 0 1.148-.236 1.553-.641.393-.392.654-.945.697-1.6h0V55l-.007-.185a2.243 2.243 0 00-.652-1.406A2.243 2.243 0 004 52.75z" stroke="#636262" stroke-width=".5" fill="url(#a)" transform="translate(549.222 96)"/><path d="M46.345.25l7.5 15h9.504l-9.445 8.5H10.096L.65 15.25h9.499l8-15h28.195z" transform="translate(576.222 96)" fill="url(#b)" stroke="#605F5F" stroke-width=".5"/><path d="M113 6.25c1.312 0 2.5.532 3.359 1.391a4.735 4.735 0 011.384 3.098l.007.261v34.75H.25V11c0-1.312.532-2.5 1.391-3.359A4.735 4.735 0 014.74 6.257L5 6.25h108zm-15.5 7.5h0-77l-.36.005a11.712 11.712 0 00-7.949 3.436A11.713 11.713 0 008.75 25.5a11.59 11.59 0 003.406 8.236c2.103 2.103 5.028 3.433 8.338 3.514H97.5l.36-.005a11.712 11.712 0 007.949-3.436 11.713 11.713 0 003.441-8.309c0-3.245-1.315-6.182-3.441-8.309A11.713 11.713 0 0097.5 13.75h0z" stroke="#636262" stroke-width=".5" fill="url(#c)" transform="translate(549.222 96)"/><path d="M551.222 263c0-31.48 25.52-57 57-57s57 25.52 57 57" stroke="#C2C2C2" stroke-width="4"/></g><path d="M688.222 95v169h-160V95h160z" stroke="#C2C2C2" stroke-width="4"/><g fill-rule="nonzero"><use fill="#000" filter="url(#d)" xlink:href="#e"/><use fill="url(#f)" xlink:href="#e"/></g><path d="M646.722 109.5c6.627 0 12 5.373 12 12 0 6.525-5.209 11.834-11.695 11.996l-.305.004h-77c-6.628 0-12-5.373-12-12 0-6.525 5.208-11.834 11.695-11.996l.305-.004h77zm0 .5h-77c-6.351 0-11.5 5.149-11.5 11.5 0 6.254 4.991 11.341 11.208 11.496l.292.004h77l.292-.004c6.216-.155 11.208-5.242 11.208-11.496 0-6.254-4.992-11.341-11.208-11.496l-.292-.004z" fill="#7F7F7F" fill-rule="nonzero"/><g fill-rule="nonzero" stroke="#636262" stroke-width=".5"><path fill="url(#g)" transform="rotate(90 319.302 296.492)" d="M85-7h14.381v28.763H85z"/><path d="M4 14h176a4 4 0 014 4v16.773h0H0V18a4 4 0 014-4z" fill="url(#h)" transform="translate(516.222 62)"/><path fill="url(#i)" d="M0 23h184v3.196H0z" transform="translate(516.222 62)"/></g><g fill-rule="nonzero"><g transform="translate(551.222 149)"><use fill="#000" filter="url(#j)" xlink:href="#k"/><rect stroke="#7F7F7F" stroke-width=".5" x="9.75" y="-.25" width="7.5" height="35.5" rx="3.5"/></g><g transform="translate(551.222 149)"><use fill="#000" filter="url(#l)" xlink:href="#m"/><rect stroke="#7F7F7F" stroke-width=".5" x="96.75" y="-.25" width="7.5" height="35.5" rx="3.5"/></g><g transform="translate(551.222 149)"><use fill="#000" filter="url(#n)" xlink:href="#o"/><rect stroke="#7F7F7F" stroke-width=".5" x="-.25" y="-.25" width="4.5" height="35.5" rx="2"/></g><g transform="translate(551.222 149)"><use fill="#000" filter="url(#p)" xlink:href="#q"/><rect stroke="#7F7F7F" stroke-width=".5" x="109.75" y="-.25" width="4.5" height="35.5" rx="2"/></g><g transform="translate(551.222 149)"><use fill="#000" filter="url(#r)" xlink:href="#s"/><rect stroke="#7F7F7F" stroke-width=".5" x="22.75" y="-.25" width="8.5" height="35.5" rx="4"/></g><g transform="translate(551.222 149)"><use fill="#000" filter="url(#t)" xlink:href="#u"/><rect stroke="#7F7F7F" stroke-width=".5" x="82.75" y="-.25" width="8.5" height="35.5" rx="4"/></g><g transform="translate(551.222 149)"><use fill="#000" filter="url(#v)" xlink:href="#w"/><rect stroke="#7F7F7F" stroke-width=".5" x="36.75" y="-.25" width="9.5" height="35.5" rx="4.5"/></g><g transform="translate(551.222 149)"><use fill="#000" filter="url(#x)" xlink:href="#y"/><rect stroke="#7F7F7F" stroke-width=".5" x="67.75" y="-.25" width="9.5" height="35.5" rx="4.5"/></g><g transform="translate(551.222 149)"><use fill="#000" filter="url(#z)" xlink:href="#A"/><rect stroke="#7F7F7F" stroke-width=".5" x="51.75" y="-.25" width="10.5" height="35.5" rx="5"/></g></g><path stroke="#636262" stroke-width=".5" fill="url(#B)" fill-rule="nonzero" d="M549.472 180.25h117.5v4.5h-117.5z"/><g fill-rule="nonzero"><g transform="rotate(90 228.11 387.61)"><use fill="url(#C)" xlink:href="#D"/><use fill="#000" filter="url(#E)" xlink:href="#D"/></g><g transform="rotate(90 228.11 387.61)"><use fill="#000" filter="url(#F)" xlink:href="#G"/><use fill="url(#H)" xlink:href="#G"/></g><path d="M636.222 189.5a9.5 9.5 0 01-9.23 9.496l-.27.004h-41a9.5 9.5 0 01-.27-18.996l.27-.004h41a9.5 9.5 0 019.5 9.5zm-.5 0a9 9 0 00-8.735-8.996l-.265-.004h-41l-.266.004a9 9 0 00-8.73 8.73l-.004.266.004.265a9 9 0 008.73 8.731l.266.004h41l.265-.004a9 9 0 008.735-8.996z" fill="#7F7F7F"/></g><g><path stroke="#FFF" opacity=".5" d="M657.222 139h57v-25h-37"/><circle transform="matrix(0 1 1 0 709.222 122)" cx="4.5" cy="4.5" r="4.5" fill="#62B5E5"/></g></g></svg>