<svg width="359" height="179" xmlns="http://www.w3.org/2000/svg"><defs><linearGradient x1="50.034%" y1="99.984%" x2="50.034%" y2="-.004%" id="a"><stop stop-color="#8B878D" offset="0%"/><stop stop-color="#9F9CA1" offset="13.66%"/><stop stop-color="#D9D8DA" offset="42.07%"/><stop stop-color="#F3F4F4" offset="51.52%"/><stop stop-color="#807B80" offset="100%"/></linearGradient><linearGradient x1="50.034%" y1="99.984%" x2="50.034%" y2="-.004%" id="b"><stop stop-color="#8B878D" offset="0%"/><stop stop-color="#9F9CA1" offset="13.66%"/><stop stop-color="#D9D8DA" offset="42.07%"/><stop stop-color="#F3F4F4" offset="51.52%"/><stop stop-color="#807B80" offset="100%"/></linearGradient><linearGradient x1="50%" y1="0%" x2="50%" y2="100%" id="c"><stop stop-color="#636262" stop-opacity=".4" offset="0%"/><stop stop-color="#636262" offset="46.746%"/><stop stop-color="#636262" stop-opacity=".4" offset="100%"/></linearGradient><linearGradient x1="50%" y1="0%" x2="50%" y2="100%" id="d"><stop stop-color="#636262" stop-opacity=".401" offset="0%"/><stop stop-color="#636262" offset="46.746%"/><stop stop-color="#636262" stop-opacity=".4" offset="100%"/></linearGradient></defs><g fill="none" fill-rule="evenodd"><path d="M562.656 63.658V46.832h439.951v-.707a3.5 3.5 0 013.5-3.5h7.723a3.5 3.5 0 013.5 3.5v.706h10.517v16.827h-10.517v.706a3.5 3.5 0 01-3.5 3.5h-7.723a3.5 3.5 0 01-3.5-3.5v-.707H562.656z" stroke="#636262" stroke-width=".5" fill="url(#a)" fill-rule="nonzero" transform="translate(-673.61 21.213)"/><path d="M343.72 63.838v8.413h-4.206v-8.413h4.207zm-10.516 0v8.413h-4.206v-8.413h4.206zM343.72 89.077v-8.413h-4.206v8.413h4.207zm-10.516 0v-8.413h-4.206v8.413h4.206z" fill="#004C97"/><path fill="#0F436B" d="M217.159 65.941h10.516v6.31h-10.516z"/><g stroke-width=".5"><path d="M12.62 0h10.516v70.46H12.62c0-11.218-1.402-16.826-4.207-16.826H0V19.98h8.413c2.805 0 4.207-6.66 4.207-19.981z" stroke="#636262" fill="url(#b)" fill-rule="nonzero" transform="translate(42.586 40.702)"/><path stroke="#636262" fill-opacity=".04" fill="#000" opacity=".5" d="M55.206 62.786h10.516v12.62H55.206zM55.206 75.406h10.516v12.62H55.206z"/><path stroke="#636262" fill-opacity=".06" fill="#000" opacity=".5" d="M55.206 54.373h10.516v8.413H55.206zM55.206 88.026h10.516v8.413H55.206z"/><path stroke="#636262" fill-opacity=".08" fill="#000" opacity=".5" d="M55.206 48.063h10.516v6.31H55.206zM55.206 96.439h10.516v6.31H55.206z"/><path stroke="#636262" fill-opacity=".104" fill="#000" opacity=".5" d="M55.206 43.857h10.516v4.207H55.206z"/><path stroke="#636262" fill-opacity=".1" fill="#000" opacity=".7" d="M55.206 102.749h10.516v5.258H55.206z"/><path stroke="url(#c)" stroke-linecap="square" d="M2.103 53.634V19.981M4.207 53.634V19.981M6.31 53.634V19.981" transform="translate(42.586 40.702)"/><path stroke="url(#d)" stroke-linecap="square" d="M8.413 53.634V19.981" transform="translate(42.586 40.702)"/></g><path fill="#0F436B" d="M217.159 80.664h10.516v6.31h-10.516z"/><path fill="#004C97" d="M310.069 65.941h10.516v6.31h-10.516zM310.069 80.664h10.516v6.31h-10.516z"/><path fill="#0F436B" d="M11.037 65.941h10.516v6.31H11.037zM11.037 80.664h10.516v6.31H11.037z"/><path fill="#004C97" d="M11.037 65.941h10.516v6.31H11.037zM11.037 80.664h10.516v6.31H11.037z"/><g stroke-width=".5"><path d="M12.62 0h10.516v70.46H12.62c0-11.218-1.402-16.826-4.207-16.826H0V19.98h8.413c2.805 0 4.207-6.66 4.207-19.981z" stroke="#636262" fill="url(#b)" fill-rule="nonzero" transform="translate(105.684 40.702)"/><path stroke="#636262" fill-opacity=".04" fill="#000" opacity=".5" d="M118.304 62.786h10.516v12.62h-10.516zM118.304 75.406h10.516v12.62h-10.516z"/><path stroke="#636262" fill-opacity=".06" fill="#000" opacity=".5" d="M118.304 54.373h10.516v8.413h-10.516zM118.304 88.026h10.516v8.413h-10.516z"/><path stroke="#636262" fill-opacity=".08" fill="#000" opacity=".5" d="M118.304 48.063h10.516v6.31h-10.516zM118.304 96.439h10.516v6.31h-10.516z"/><path stroke="#636262" fill-opacity=".104" fill="#000" opacity=".5" d="M118.304 43.857h10.516v4.207h-10.516z"/><path stroke="#636262" fill-opacity=".1" fill="#000" opacity=".7" d="M118.304 102.749h10.516v5.258h-10.516z"/><path stroke="url(#c)" stroke-linecap="square" d="M2.103 53.634V19.981M4.207 53.634V19.981M6.31 53.634V19.981" transform="translate(105.684 40.702)"/><path stroke="url(#d)" stroke-linecap="square" d="M8.413 53.634V19.981" transform="translate(105.684 40.702)"/></g><g stroke-width=".5"><path d="M12.62 0h10.516v70.46H12.62c0-11.218-1.402-16.826-4.207-16.826H0V19.98h8.413c2.805 0 4.207-6.66 4.207-19.981z" stroke="#636262" fill="url(#b)" fill-rule="nonzero" transform="translate(280.622 40.702)"/><path stroke="#636262" fill-opacity=".04" fill="#000" opacity=".5" d="M293.242 62.786h10.516v12.62h-10.516zM293.242 75.406h10.516v12.62h-10.516z"/><path stroke="#636262" fill-opacity=".06" fill="#000" opacity=".5" d="M293.242 54.373h10.516v8.413h-10.516zM293.242 88.026h10.516v8.413h-10.516z"/><path stroke="#636262" fill-opacity=".08" fill="#000" opacity=".5" d="M293.242 48.063h10.516v6.31h-10.516zM293.242 96.439h10.516v6.31h-10.516z"/><path stroke="#636262" fill-opacity=".104" fill="#000" opacity=".5" d="M293.242 43.857h10.516v4.207h-10.516z"/><path stroke="#636262" fill-opacity=".1" fill="#000" opacity=".7" d="M293.242 102.749h10.516v5.258h-10.516z"/><path stroke="url(#c)" stroke-linecap="square" d="M2.103 53.634V19.981M4.207 53.634V19.981M6.31 53.634V19.981" transform="translate(280.622 40.702)"/><path stroke="url(#d)" stroke-linecap="square" d="M8.413 53.634V19.981" transform="translate(280.622 40.702)"/></g><g stroke-width=".5"><path d="M12.62 0h10.516v70.46H12.62c0-11.218-1.402-16.826-4.207-16.826H0V19.98h8.413c2.805 0 4.207-6.66 4.207-19.981z" stroke="#636262" fill="url(#b)" fill-rule="nonzero" transform="translate(74.135 40.702)"/><path stroke="#636262" fill-opacity=".04" fill="#000" opacity=".5" d="M86.755 62.786h10.516v12.62H86.755zM86.755 75.406h10.516v12.62H86.755z"/><path stroke="#636262" fill-opacity=".06" fill="#000" opacity=".5" d="M86.755 54.373h10.516v8.413H86.755zM86.755 88.026h10.516v8.413H86.755z"/><path stroke="#636262" fill-opacity=".08" fill="#000" opacity=".5" d="M86.755 48.063h10.516v6.31H86.755zM86.755 96.439h10.516v6.31H86.755z"/><path stroke="#636262" fill-opacity=".104" fill="#000" opacity=".5" d="M86.755 43.857h10.516v4.207H86.755z"/><path stroke="#636262" fill-opacity=".1" fill="#000" opacity=".7" d="M86.755 102.749h10.516v5.258H86.755z"/><path stroke="url(#c)" stroke-linecap="square" d="M2.103 53.634V19.981M4.207 53.634V19.981M6.31 53.634V19.981" transform="translate(74.135 40.702)"/><path stroke="url(#d)" stroke-linecap="square" d="M8.413 53.634V19.981" transform="translate(74.135 40.702)"/></g><g stroke-width=".5"><path d="M12.62 0h10.516v70.46H12.62c0-11.218-1.402-16.826-4.207-16.826H0V19.98h8.413c2.805 0 4.207-6.66 4.207-19.981z" stroke="#636262" fill="url(#b)" fill-rule="nonzero" transform="translate(249.073 40.702)"/><path stroke="#636262" fill-opacity=".04" fill="#000" opacity=".5" d="M261.693 62.786h10.516v12.62h-10.516zM261.693 75.406h10.516v12.62h-10.516z"/><path stroke="#636262" fill-opacity=".06" fill="#000" opacity=".5" d="M261.693 54.373h10.516v8.413h-10.516zM261.693 88.026h10.516v8.413h-10.516z"/><path stroke="#636262" fill-opacity=".08" fill="#000" opacity=".5" d="M261.693 48.063h10.516v6.31h-10.516zM261.693 96.439h10.516v6.31h-10.516z"/><path stroke="#636262" fill-opacity=".104" fill="#000" opacity=".5" d="M261.693 43.857h10.516v4.207h-10.516z"/><path stroke="#636262" fill-opacity=".1" fill="#000" opacity=".7" d="M261.693 102.749h10.516v5.258h-10.516z"/><path stroke="url(#c)" stroke-linecap="square" d="M2.103 53.634V19.981M4.207 53.634V19.981M6.31 53.634V19.981" transform="translate(249.073 40.702)"/><path stroke="url(#d)" stroke-linecap="square" d="M8.413 53.634V19.981" transform="translate(249.073 40.702)"/></g><g stroke-width=".5"><path d="M12.62 0h10.516v70.46H12.62c0-11.218-1.402-16.826-4.207-16.826H0V19.98h8.413c2.805 0 4.207-6.66 4.207-19.981z" stroke="#636262" fill="url(#b)" fill-rule="nonzero" transform="translate(217.524 40.702)"/><path stroke="#636262" fill-opacity=".04" fill="#000" opacity=".5" d="M230.144 62.786h10.516v12.62h-10.516zM230.144 75.406h10.516v12.62h-10.516z"/><path stroke="#636262" fill-opacity=".06" fill="#000" opacity=".5" d="M230.144 54.373h10.516v8.413h-10.516zM230.144 88.026h10.516v8.413h-10.516z"/><path stroke="#636262" fill-opacity=".08" fill="#000" opacity=".5" d="M230.144 48.063h10.516v6.31h-10.516zM230.144 96.439h10.516v6.31h-10.516z"/><path stroke="#636262" fill-opacity=".104" fill="#000" opacity=".5" d="M230.144 43.857h10.516v4.207h-10.516z"/><path stroke="#636262" fill-opacity=".1" fill="#000" opacity=".7" d="M230.144 102.749h10.516v5.258h-10.516z"/><path stroke="url(#c)" stroke-linecap="square" d="M2.103 53.634V19.981M4.207 53.634V19.981M6.31 53.634V19.981" transform="translate(217.524 40.702)"/><path stroke="url(#d)" stroke-linecap="square" d="M8.413 53.634V19.981" transform="translate(217.524 40.702)"/></g></g></svg>