<svg width="480" height="273" xmlns="http://www.w3.org/2000/svg" xmlns:xlink="http://www.w3.org/1999/xlink"><defs><linearGradient x1="50.034%" y1="99.984%" x2="50.034%" y2="-.004%" id="c"><stop stop-color="#8B878D" offset="0%"/><stop stop-color="#9F9CA1" offset="13.66%"/><stop stop-color="#D9D8DA" offset="42.07%"/><stop stop-color="#F3F4F4" offset="51.52%"/><stop stop-color="#807B80" offset="100%"/></linearGradient><linearGradient x1="50.034%" y1="99.984%" x2="50.034%" y2="-.004%" id="d"><stop stop-color="#8B878D" offset="0%"/><stop stop-color="#9F9CA1" offset="13.66%"/><stop stop-color="#D9D8DA" offset="42.07%"/><stop stop-color="#F3F4F4" offset="51.52%"/><stop stop-color="#807B80" offset="100%"/></linearGradient><linearGradient x1="50.034%" y1="99.984%" x2="50.034%" y2="-.004%" id="e"><stop stop-color="#8B878D" offset="0%"/><stop stop-color="#9F9CA1" offset="13.66%"/><stop stop-color="#D9D8DA" offset="42.07%"/><stop stop-color="#F3F4F4" offset="51.52%"/><stop stop-color="#807B80" offset="100%"/></linearGradient><linearGradient x1="50.034%" y1="110.798%" x2="50.034%" y2="-15.403%" id="f"><stop stop-color="#8B878D" offset="0%"/><stop stop-color="#9F9CA1" offset="13.66%"/><stop stop-color="#D9D8DA" offset="39.007%"/><stop stop-color="#F3F4F4" offset="55.749%"/><stop stop-color="#807B80" offset="100%"/></linearGradient><linearGradient x1="50.034%" y1="99.984%" x2="50.034%" y2="-.004%" id="g"><stop stop-color="#8B878D" offset="0%"/><stop stop-color="#9F9CA1" offset="13.66%"/><stop stop-color="#D9D8DA" offset="42.07%"/><stop stop-color="#F3F4F4" offset="51.52%"/><stop stop-color="#807B80" offset="100%"/></linearGradient><linearGradient x1="50.034%" y1="99.984%" x2="50.034%" y2="-.004%" id="h"><stop stop-color="#8B878D" offset="0%"/><stop stop-color="#9F9CA1" offset="13.66%"/><stop stop-color="#D9D8DA" offset="42.07%"/><stop stop-color="#F3F4F4" offset="51.52%"/><stop stop-color="#807B80" offset="100%"/></linearGradient><path id="a" d="M0 0h480v273H0z"/></defs><g fill="none" fill-rule="evenodd"><mask id="b" fill="#fff"><use xlink:href="#a"/></mask><g mask="url(#b)"><path d="M44.29 73.439v4.257h297.378v17.03L44.29 94.724v4.257H31.636l-.001-4.257H8.515a8.515 8.515 0 010-17.03h23.12l.001-4.256H44.29z" stroke="#636262" stroke-width=".5" fill="url(#c)" fill-rule="nonzero" transform="translate(81.426 49.491)"/><path stroke="#636262" stroke-width=".5" fill="url(#d)" fill-rule="nonzero" d="M9.58 67.053h10.377l10.378 11.175H9.579z" transform="translate(81.426 49.491)"/><path fill="#004C97" d="M405.532 125.123h11.176v6.386h-11.176z"/><path stroke="#636262" stroke-width=".5" fill="url(#d)" fill-rule="nonzero" transform="matrix(1 0 0 -1 81.426 249.053)" d="M9.58 94.193h10.377l10.378 11.175H9.579z"/><path fill="#004C97" d="M405.532 140.491h11.176v6.386h-11.176zM138.903 125.123h11.176v6.386h-11.176zM138.903 140.491h11.176v6.386h-11.176zM127.726 122.93v7.982h-4.105v-7.982h4.105zm-10.263 0v7.982h-4.106v-7.982h4.106zM127.726 140.491v7.983h-4.105v-7.983h4.105zm-10.263 0v7.983h-4.106v-7.983h4.106z"/><g fill-rule="nonzero" stroke="#636262" stroke-width=".5"><path d="M145.039 15.63v77.033L8.568 73.842.25 61.414V44.787l8.317-12.426 136.472-16.73z" fill="url(#e)" transform="translate(186.8 83.018)"/><path d="M21.52 0l1.434 1.508-1.999 2.002v.993l2.249-1.93 1.321 1.612-3.57 3.066v1.697l2.593-1.858 1.179 1.724-3.772 2.704v1.839l2.91-1.72 1.027 1.823-3.937 2.327v4.055l3.196-1.525.869 1.907-4.065 1.94v4.141l3.45-1.285.703 1.978-4.153 1.547v4.206l3.67-1.006.533 2.033-4.203 1.153v4.252l3.855-.696.357 2.073-4.212.76v4.283l4.003-.358.179 2.097-4.182.374v4.297l4.112.001v2.105l-4.112-.001v4.744l4.282.384-.179 2.096-4.103-.367v4.273l4.313.78-.357 2.072-3.956-.715v4.244l4.303 1.18-.532 2.034-3.77-1.035v4.195l4.253 1.586-.703 1.978-3.55-1.323v4.13l4.164 1.99-.869 1.907-3.296-1.574v4.043l4.038 2.387-1.028 1.823-3.01-1.78v1.827l3.872 2.776-1.179 1.724-2.693-1.931v1.683l3.67 3.154-1.32 1.612-2.35-2.018v.518l2.098 2.177-1.46 1.482L20 104.523a4.113 4.113 0 01-3.156-4V5.61a4.113 4.113 0 013.037-3.97L21.52 0zM38.365 0l1.434 1.508L37.8 3.51v.993l2.25-1.93 1.32 1.612L37.8 7.25v1.697l2.593-1.858 1.18 1.724-3.773 2.704v1.839l2.91-1.72 1.027 1.823-3.937 2.327v4.055l3.196-1.525.869 1.907-4.065 1.94v4.141l3.45-1.285.704 1.978-4.154 1.547v4.206l3.67-1.006.533 2.033L37.8 34.93v4.252l3.855-.696.357 2.073-4.212.76v4.283l4.003-.358.179 2.097-4.182.374v4.297l4.112.001v2.105l-4.112-.001v4.744l4.282.384-.179 2.096-4.103-.367v4.273l4.313.78-.357 2.072-3.956-.715v4.244l4.303 1.18-.532 2.034-3.77-1.035v4.195l4.253 1.586-.703 1.978-3.55-1.323v4.13l4.164 1.99-.868 1.907-3.297-1.574v4.043l4.038 2.387-1.028 1.823-3.01-1.78v1.827l3.872 2.776-1.178 1.724-2.694-1.931v1.683l3.67 3.154-1.32 1.612-2.35-2.018v.518l2.098 2.177-1.46 1.482-1.592-1.651a4.113 4.113 0 01-3.156-4V5.61a4.113 4.113 0 013.037-3.97L38.365 0zM55.21 0l1.434 1.508-1.999 2.002v.993l2.25-1.93 1.32 1.612-3.57 3.066v1.697l2.593-1.858 1.18 1.724-3.773 2.704v1.839l2.91-1.72 1.027 1.823-3.937 2.327v4.055l3.196-1.525.869 1.907-4.065 1.94v4.141l3.45-1.285.704 1.978-4.154 1.547v4.206l3.67-1.006.533 2.033-4.203 1.153v4.252l3.855-.696.357 2.073-4.212.76v4.283l4.003-.358.179 2.097-4.182.374v4.297l4.112.001v2.105l-4.112-.001v4.744l4.282.384-.179 2.096-4.103-.367v4.273l4.313.78L58.6 68.1l-3.956-.715v4.244l4.303 1.18-.532 2.034-3.77-1.035v4.195l4.253 1.586-.703 1.978-3.55-1.323v4.13l4.164 1.99-.868 1.907-3.297-1.574v4.043l4.038 2.387-1.028 1.823-3.01-1.78v1.827l3.873 2.776-1.18 1.724-2.693-1.931v1.683l3.67 3.154-1.32 1.612-2.35-2.018v.518l2.098 2.177-1.46 1.482-1.592-1.651a4.113 4.113 0 01-3.156-4V5.61a4.113 4.113 0 013.037-3.97L55.21 0zM72.055 0l1.435 1.508-2 2.002v.993l2.25-1.93 1.32 1.612-3.57 3.066v1.697l2.593-1.858 1.18 1.724-3.773 2.704v1.839l2.91-1.72 1.028 1.823-3.938 2.327v4.055l3.196-1.525.869 1.907-4.065 1.94v4.141l3.45-1.285.704 1.978-4.154 1.547v4.206l3.671-1.006.532 2.033-4.203 1.153v4.252l3.856-.696.357 2.073-4.213.76v4.283l4.003-.358.18 2.097-4.183.374v4.297l4.112.001v2.105l-4.112-.001v4.744l4.283.384-.18 2.096-4.103-.367v4.273l4.313.78-.357 2.072-3.956-.715v4.244l4.303 1.18-.532 2.034-3.77-1.035v4.195l4.253 1.586-.703 1.978-3.55-1.323v4.13l4.164 1.99-.868 1.907-3.297-1.574v4.043l4.038 2.387L74.5 94.95l-3.01-1.78v1.827l3.873 2.776-1.18 1.724-2.693-1.931v1.683l3.67 3.154-1.32 1.612-2.35-2.018v.518l2.098 2.177-1.46 1.482-1.591-1.651a4.113 4.113 0 01-3.157-4V5.61a4.113 4.113 0 013.037-3.97L72.055 0zM88.9 0l1.435 1.508-2 2.002v.993l2.25-1.93 1.32 1.612-3.57 3.066v1.697l2.593-1.858 1.18 1.724-3.773 2.704v1.839l2.91-1.72 1.028 1.823-3.938 2.327v4.055l3.196-1.525.87 1.907-4.066 1.94v4.141l3.45-1.285.704 1.978-4.154 1.547v4.206l3.671-1.006.532 2.033-4.203 1.153v4.252l3.856-.696.357 2.073-4.213.76v4.283l4.003-.358.18 2.097-4.183.374v4.297l4.112.001v2.105l-4.112-.001v4.744l4.283.384-.18 2.096-4.103-.367v4.273l4.313.78-.357 2.072-3.956-.715v4.244l4.303 1.18-.531 2.034-3.772-1.035v4.195l4.254 1.586-.703 1.978-3.55-1.323v4.13l4.164 1.99-.868 1.907-3.297-1.574v4.043l4.038 2.387-1.028 1.823-3.01-1.78v1.827l3.873 2.776-1.18 1.724-2.693-1.931v1.683l3.671 3.154-1.321 1.612-2.35-2.018v.518l2.098 2.177-1.46 1.482-1.591-1.651a4.113 4.113 0 01-3.157-4V5.61a4.113 4.113 0 013.037-3.97L88.9 0zM105.745 0l1.435 1.508-2 2.002v.993l2.25-1.93 1.32 1.612-3.57 3.066v1.697l2.594-1.858 1.178 1.724-3.771 2.704v1.839l2.909-1.72 1.028 1.823-3.937 2.327v4.055l3.196-1.525.868 1.907-4.064 1.94v4.141l3.45-1.285.703 1.978-4.153 1.547v4.206l3.67-1.006.532 2.033-4.202 1.153v4.252l3.855-.696.357 2.073-4.212.76v4.283l4.002-.358.18 2.097-4.182.374v4.297l4.111.001v2.105l-4.111-.001v4.744l4.282.384-.18 2.096-4.102-.367v4.273l4.312.78-.357 2.072-3.955-.715v4.244l4.303 1.18-.532 2.034-3.771-1.035v4.195l4.253 1.586-.703 1.978-3.55-1.323v4.13l4.165 1.99-.87 1.907-3.295-1.574v4.043l4.037 2.387-1.028 1.823-3.01-1.78v1.827l3.873 2.776-1.18 1.724-2.692-1.931v1.683l3.67 3.154-1.321 1.612-2.35-2.018v.518l2.098 2.177-1.46 1.482-1.591-1.651a4.113 4.113 0 01-3.156-4V5.61a4.113 4.113 0 013.037-3.97L105.745 0zM122.59 0l1.435 1.508-2 2.002v.993l2.25-1.93 1.32 1.612-3.57 3.066v1.697l2.594-1.858 1.179 1.724-3.772 2.704v1.839l2.91-1.72 1.027 1.823-3.937 2.327v4.055l3.196-1.525.868 1.907-4.064 1.94v4.141l3.45-1.285.703 1.978-4.153 1.547v4.206l3.67-1.006.532 2.033-4.202 1.153v4.252l3.855-.696.357 2.073-4.212.76v4.283l4.002-.358.18 2.097-4.182.374v4.297l4.111.001v2.105l-4.111-.001v4.744l4.282.384-.18 2.096-4.102-.367v4.273l4.312.78-.357 2.072-3.955-.715v4.244l4.303 1.18-.532 2.034-3.771-1.035v4.195l4.253 1.586-.703 1.978-3.55-1.323v4.13l4.165 1.99-.869 1.907-3.296-1.574v4.043l4.037 2.387-1.028 1.823-3.01-1.78v1.827l3.873 2.776-1.179 1.724-2.693-1.931v1.683l3.67 3.154-1.321 1.612-2.35-2.018v.518l2.098 2.177-1.46 1.482-1.591-1.651a4.113 4.113 0 01-3.156-4V5.61a4.113 4.113 0 013.037-3.97L122.59 0z" fill="url(#f)" transform="translate(186.8 83.018)"/></g><path stroke="#636262" stroke-width=".5" fill="url(#g)" fill-rule="nonzero" d="M341.668 70.246H373.6v33.526h-31.932z" transform="translate(81.426 49.491)"/><path d="M6.107 0h6.736a2 2 0 011.997 1.893l4.104 76.956a2 2 0 010 .21l-4.107 79.058a2 2 0 01-1.997 1.896H6.11a2 2 0 01-1.997-1.896L.005 79.059a2 2 0 010-.21L4.11 1.893A2 2 0 016.107 0z" stroke="#636262" stroke-width=".5" fill="url(#h)" fill-rule="nonzero" transform="translate(453.43 55.877)"/><path d="M472.38 146.41h-18.95m0-21.053h18.95M470.273 173.782h-14.738m0-12.633h14.738M471.326 110.619h-16.844m1.053-12.633h14.738" stroke="#636262" stroke-width=".5" fill-opacity=".04" fill="#000"/><path fill-opacity=".04" fill="#000" d="M454.482 110.619h16.844l1.053 14.738h-18.95z"/><path d="M469.22 196.941h-12.633m0-10.527h12.634M469.22 85.353h-12.633m0-10.527h12.634M469.22 205.363h-12.633m0-8.422h12.634M469.22 74.826h-12.633m1.053-8.422h10.528M468.168 211.68H457.64m-1.053-6.317h12.634M457.64 211.68h10.528M468.168 60.088H457.64" stroke="#636262" stroke-width=".5" fill-opacity=".04" fill="#000"/><g><path d="M6.107 0h6.736a2 2 0 011.997 1.893l4.104 76.956a2 2 0 010 .21l-4.107 79.058a2 2 0 01-1.997 1.896H6.11a2 2 0 01-1.997-1.896L.005 79.059a2 2 0 010-.21L4.11 1.893A2 2 0 016.107 0z" stroke="#636262" stroke-width=".5" fill="url(#h)" fill-rule="nonzero" transform="translate(429.48 55.877)"/><path d="M448.43 146.41h-18.95m0-21.053h18.95M446.325 173.782h-14.74m0-12.633h14.74M447.378 110.619h-16.845m1.053-12.633h14.739" stroke="#636262" stroke-width=".5" fill-opacity=".04" fill="#000"/><path fill-opacity=".04" fill="#000" d="M430.533 110.619h16.845l1.052 14.738h-18.95z"/><path d="M445.272 196.941h-12.633m0-10.527h12.633M445.272 85.353h-12.633m0-10.527h12.633M445.272 205.363h-12.633m0-8.422h12.633M445.272 74.826h-12.633m1.052-8.422h10.528M444.22 211.68H433.69m-1.052-6.317h12.633M433.691 211.68h10.528M444.22 60.088H433.69" stroke="#636262" stroke-width=".5" fill-opacity=".04" fill="#000"/></g></g></g></svg>