<svg width="419" height="172" xmlns="http://www.w3.org/2000/svg"><defs><linearGradient x1="50.034%" y1="100%" x2="50.034%" y2="0%" id="a"><stop stop-color="#363D43" offset="0%"/><stop stop-color="#798085" offset="38.285%"/><stop stop-color="#82888D" offset="54.637%"/><stop stop-color="#363D43" offset="100%"/></linearGradient></defs><path d="M1088 751.007a4 4 0 014 4V905c0 6.627-5.373 12-12 12h-26.107c-6.628 0-12-5.373-12-12V755.007a4 4 0 014-4H1088zM938.563 745l.463 35.051 102.857-7.965v123.836l-102.857-4.575.02 13.455c.009 6.628-5.356 12.008-11.983 12.017h-26.514c-6.62 0-11.989-5.36-12-11.979L888.5 877l-106-8L673 896V771.5L782.5 798l105.5-6.5.57-46.5h49.993z" transform="translate(-673 -745)" fill="url(#a)" fill-rule="nonzero"/></svg>