<svg width="789" height="482" xmlns="http://www.w3.org/2000/svg" xmlns:xlink="http://www.w3.org/1999/xlink"><defs><linearGradient x1="50.034%" y1="99.984%" x2="50.034%" y2="-.004%" id="a"><stop stop-color="#8B878D" offset="0%"/><stop stop-color="#9F9CA1" offset="13.66%"/><stop stop-color="#D9D8DA" offset="42.07%"/><stop stop-color="#F3F4F4" offset="51.52%"/><stop stop-color="#807B80" offset="100%"/></linearGradient><linearGradient x1="50.034%" y1="100%" x2="50.034%" y2="0%" id="c"><stop stop-color="#363D43" offset="0%"/><stop stop-color="#798085" offset="38.975%"/><stop stop-color="#82888D" offset="63.704%"/><stop stop-color="#363D43" offset="100%"/></linearGradient><linearGradient x1=".453%" y1="50.403%" x2="99.615%" y2="50.403%" id="g"><stop stop-color="#AFACB1" offset="0%"/><stop stop-color="#BAB9BC" offset="28.499%"/><stop stop-color="#D9D8DA" offset="42.07%"/><stop stop-color="#F3F4F4" offset="58.437%"/><stop stop-color="#958F95" offset="100%"/></linearGradient><linearGradient x1="50.034%" y1="99.725%" x2="50.034%" y2="-.004%" id="l"><stop stop-color="#656266" offset="0%"/><stop stop-color="#9F9CA1" offset="13.66%"/><stop stop-color="#D9D8DA" offset="42.07%"/><stop stop-color="#F3F4F4" offset="51.52%"/><stop stop-color="#807B80" offset="100%"/></linearGradient><linearGradient x1="50.034%" y1="99.725%" x2="50.034%" y2="-.004%" id="m"><stop stop-color="#656266" offset="0%"/><stop stop-color="#9F9CA1" offset="13.66%"/><stop stop-color="#D9D8DA" offset="42.07%"/><stop stop-color="#F3F4F4" offset="51.52%"/><stop stop-color="#807B80" offset="100%"/></linearGradient><linearGradient x1="50.034%" y1="99.43%" x2="50.034%" y2="-.004%" id="o"><stop stop-color="#514E52" offset="0%"/><stop stop-color="#F3F4F4" offset="50.723%"/><stop stop-color="#514E52" offset="100%"/></linearGradient><linearGradient x1="50.034%" y1="99.725%" x2="50.034%" y2="-.004%" id="q"><stop stop-color="#656266" offset="0%"/><stop stop-color="#9F9CA1" offset="13.66%"/><stop stop-color="#D9D8DA" offset="42.07%"/><stop stop-color="#F3F4F4" offset="51.52%"/><stop stop-color="#807B80" offset="100%"/></linearGradient><linearGradient x1="50.034%" y1="99.725%" x2="50.034%" y2="-.004%" id="r"><stop stop-color="#656266" offset="0%"/><stop stop-color="#9F9CA1" offset="13.66%"/><stop stop-color="#D9D8DA" offset="42.07%"/><stop stop-color="#F3F4F4" offset="51.52%"/><stop stop-color="#807B80" offset="100%"/></linearGradient><linearGradient x1="50.034%" y1="99.725%" x2="50.034%" y2="-.004%" id="s"><stop stop-color="#656266" offset="0%"/><stop stop-color="#9F9CA1" offset="13.66%"/><stop stop-color="#D9D8DA" offset="42.07%"/><stop stop-color="#F3F4F4" offset="51.52%"/><stop stop-color="#807B80" offset="100%"/></linearGradient><linearGradient x1="50.034%" y1="99.725%" x2="50.034%" y2="-.004%" id="t"><stop stop-color="#656266" offset="0%"/><stop stop-color="#9F9CA1" offset="13.66%"/><stop stop-color="#D9D8DA" offset="42.07%"/><stop stop-color="#F3F4F4" offset="51.52%"/><stop stop-color="#807B80" offset="100%"/></linearGradient><linearGradient x1="50.034%" y1="99.984%" x2="50.034%" y2="-.004%" id="u"><stop stop-color="#212F42" offset="0%"/><stop stop-color="#004C97" offset="51.52%"/><stop stop-color="#213042" offset="100%"/></linearGradient><linearGradient x1="50.034%" y1="99.984%" x2="50.034%" y2="-.004%" id="v"><stop stop-color="#8B878D" offset="0%"/><stop stop-color="#F3F4F4" offset="50.57%"/><stop stop-color="#807B80" offset="100%"/></linearGradient><linearGradient x1=".034%" y1="50%" x2="100.034%" y2="50%" id="w"><stop stop-color="#363D43" offset="0%"/><stop stop-color="#798085" offset="49.388%"/><stop stop-color="#363D43" offset="100%"/></linearGradient><linearGradient x1=".453%" y1="50.403%" x2="99.615%" y2="50.403%" id="B"><stop stop-color="#AFACB1" offset="0%"/><stop stop-color="#BAB9BC" offset="28.499%"/><stop stop-color="#D9D8DA" offset="42.07%"/><stop stop-color="#F3F4F4" offset="58.437%"/><stop stop-color="#958F95" offset="100%"/></linearGradient><linearGradient x1="50.034%" y1="99.725%" x2="50.034%" y2="-.004%" id="G"><stop stop-color="#656266" offset="0%"/><stop stop-color="#9F9CA1" offset="13.66%"/><stop stop-color="#D9D8DA" offset="42.07%"/><stop stop-color="#F3F4F4" offset="51.52%"/><stop stop-color="#807B80" offset="100%"/></linearGradient><linearGradient x1="50.034%" y1="99.725%" x2="50.034%" y2="-.004%" id="I"><stop stop-color="#656266" offset="0%"/><stop stop-color="#9F9CA1" offset="13.66%"/><stop stop-color="#D9D8DA" offset="42.07%"/><stop stop-color="#F3F4F4" offset="51.52%"/><stop stop-color="#807B80" offset="100%"/></linearGradient><linearGradient x1="50.034%" y1="99.725%" x2="50.034%" y2="-.004%" id="J"><stop stop-color="#656266" offset="0%"/><stop stop-color="#9F9CA1" offset="13.66%"/><stop stop-color="#D9D8DA" offset="42.07%"/><stop stop-color="#F3F4F4" offset="51.52%"/><stop stop-color="#807B80" offset="100%"/></linearGradient><linearGradient x1="50.034%" y1="99.725%" x2="50.034%" y2="-.004%" id="M"><stop stop-color="#656266" offset="0%"/><stop stop-color="#9F9CA1" offset="13.66%"/><stop stop-color="#D9D8DA" offset="42.07%"/><stop stop-color="#F3F4F4" offset="51.52%"/><stop stop-color="#807B80" offset="100%"/></linearGradient><path id="b" d="M4 0h5.5v37.5l4 3.5h62l4-3.5V0H85v37.5l4 3.5v98.5H77.5v-11h-23v10h-40v-10l-5 3.5v37.5H4V132l-4-3.5V41l4-3.5z"/><path id="d" d="M4 0h5.5v37.5l4 3.5h62l4-3.5V0H85v37.5l4 3.5v98.5H77.5v-11h-23v10h-40v-10l-5 3.5v37.5H4V132l-4-3.5V41l4-3.5z"/><path d="M531 121h7.5v38.157l3.376 2.963h61.248l3.376-2.963V121h7.5v38.157l4 3.51v100.246h-13.5V251.88h-21v10.03h-42v-9.106l-3 2.106V293H531v-38.157l-4-3.51v-88.666l4-3.51V121zm75.841 37.857l-.341.755v-.455l.341-.3zm-3.341 3.263l-.659.248.283-.248h.376zM533 123.006v37.061l-4 3.51v86.845l4 3.51v37.062h3.5v-37.128l7-4.915v10.953h38v-10.03h25v11.033h9.5v-97.33l-4-3.51v-37.061h-3.5v37.061l-4.624 4.058h-62.752l-4.624-4.058v-37.061H533z" id="f"/><path d="M3.289 29.406l158-28.555A4 4 0 01166 4.788v109.424a4 4 0 01-4.711 3.937l-158-28.555A4 4 0 010 85.658V33.342a4 4 0 013.289-3.936z" id="n"/><path d="M52-27c11.598 0 21 9.402 21 21v58c0 11.598-9.402 21-21 21s-21-9.402-21-21V-6c0-11.598 9.402-21 21-21z" id="x"/><path d="M52-28c-12.15 0-22 9.85-22 22v58c0 12.15 9.85 22 22 22s22-9.85 22-22V-6c0-12.15-9.85-22-22-22zm0 2c11.046 0 20 8.954 20 20v58c0 11.046-8.954 20-20 20s-20-8.954-20-20V-6c0-11.046 8.954-20 20-20z" id="A"/><path d="M176 121h7.5v38.157l3.376 2.963h61.248l3.376-2.963V121h7.5v38.157l4 3.51v100.246h-13.5V251.88h-21v10.03h-42v-9.106l-3 2.106V293H176v-38.157l-4-3.51v-88.666l4-3.51V121zm2 2.006v37.061l-4 3.51v86.845l4 3.51v37.062h3.5v-37.128l7-4.915v10.953h38v-10.03h25v11.033h9.5v-97.33l-4-3.51v-37.061h-3.5v37.061l-4.624 4.058h-62.752l-4.624-4.058v-37.061H178z" id="D"/><path id="E" d="M0 0h24v7H0z"/><path id="F" d="M0 0h24v8H0z"/><path id="K" d="M0 0h24v7H0z"/><path id="L" d="M0 0h24v8H0z"/><path id="S" d="M0 0h24v7H0z"/><path id="T" d="M0 0h24v8H0z"/><path id="V" d="M0 0h24v7H0z"/><path id="W" d="M0 0h24v8H0z"/><filter x="-11.5%" y="-4.9%" width="120.9%" height="111%" filterUnits="objectBoundingBox" id="e"><feOffset dx="-1" dy="1" in="SourceAlpha" result="shadowOffsetOuter1"/><feGaussianBlur stdDeviation="3" in="shadowOffsetOuter1" result="shadowBlurOuter1"/><feColorMatrix values="0 0 0 0 0 0 0 0 0 0 0 0 0 0 0 0 0 0 0.230550699 0" in="shadowBlurOuter1"/></filter><filter x="-11.9%" y="-5%" width="123.8%" height="110%" filterUnits="objectBoundingBox" id="y"><feGaussianBlur stdDeviation="4.5" in="SourceAlpha" result="shadowBlurInner1"/><feOffset dy="1" in="shadowBlurInner1" result="shadowOffsetInner1"/><feComposite in="shadowOffsetInner1" in2="SourceAlpha" operator="arithmetic" k2="-1" k3="1" result="shadowInnerInner1"/><feColorMatrix values="0 0 0 0 0 0 0 0 0 0 0 0 0 0 0 0 0 0 0.301737325 0" in="shadowInnerInner1"/></filter><filter x="-23.9%" y="-8.3%" width="143.2%" height="118.6%" filterUnits="objectBoundingBox" id="z"><feOffset dx="-1" dy="1" in="SourceAlpha" result="shadowOffsetOuter1"/><feGaussianBlur stdDeviation="3" in="shadowOffsetOuter1" result="shadowBlurOuter1"/><feColorMatrix values="0 0 0 0 0 0 0 0 0 0 0 0 0 0 0 0 0 0 0.230550699 0" in="shadowBlurOuter1"/></filter><filter x="-11.5%" y="-4.9%" width="120.9%" height="111%" filterUnits="objectBoundingBox" id="C"><feOffset dx="-1" dy="1" in="SourceAlpha" result="shadowOffsetOuter1"/><feGaussianBlur stdDeviation="3" in="shadowOffsetOuter1" result="shadowBlurOuter1"/><feColorMatrix values="0 0 0 0 0 0 0 0 0 0 0 0 0 0 0 0 0 0 0.230550699 0" in="shadowBlurOuter1"/></filter><circle id="h" cx="12.5" cy="12.5" r="12.5"/><circle id="j" cx="12.5" cy="12.5" r="12.5"/><circle id="O" cx="12.5" cy="12.5" r="12.5"/><circle id="Q" cx="12.5" cy="12.5" r="12.5"/></defs><g fill="none" fill-rule="evenodd"><path d="M729.5 122.5v168h-669v-168h669z" stroke="#364B65" fill="#526C91" opacity=".4"/><path stroke="#636262" stroke-width=".5" fill="url(#a)" fill-rule="nonzero" d="M80 203h630v8H80z"/><path stroke="#607C99" stroke-linecap="square" d="M109 163v30l3.69 8 3.69-8 3.69 8 4.099-8 3.69 8 3.69-8 4.099 8 3.28-8v-30H143M296 163v12.09l3.699 7.91 3.698-7.91 3.699 7.91 4.11-7.91 3.698 7.91 3.699-7.91 4.11 7.91 3.287-7.91V163M296 289v-49.09l3.699-7.91 3.698 7.91 3.699-7.91 4.11 7.91 3.698-7.91 3.699 7.91 4.11-7.91 3.287 7.91V250M109 250.39v-30.308l3.699-8.082 3.698 8.082 3.699-8.082 4.11 8.082 3.698-8.082 3.699 8.082 4.11-8.082 3.287 8.082V290"/><use fill="url(#c)" fill-rule="nonzero" xlink:href="#b" transform="translate(528 122)"/><use fill="url(#c)" fill-rule="nonzero" xlink:href="#d" transform="matrix(-1 0 0 1 262 122)"/><path stroke="#FFCC01" stroke-width="1.5" stroke-linecap="square" d="M535 292v23H256v-23"/><path stroke="#FFCC01" stroke-width="1.5" stroke-linecap="square" d="M497 290v14H293v-14"/><path stroke="#50B4E4" stroke-width="1.5" stroke-linecap="square" d="M738.5 319.5v-221h-596v65"/><path d="M405.995 366H376v62m0 16v11h30.5" stroke="#FFCC01" stroke-width="1.5" stroke-linecap="square"/><path stroke="#50B4E4" stroke-width="1.5" stroke-linecap="square" d="M647 425v17h-49v-17M622 442v12h-52M647 425v-55h-49v55M750.5 356.5v14H701m-24 0h-29.5"/><path stroke="#607C99" stroke-linecap="square" d="M143 163.798v29.16l3.637 8.042 3.637-8.042 3.637 8.042 4.041-8.042L161.59 201l3.637-8.042 4.041 8.042 3.233-8.042v-30.16l4-3.482V122h5.5v37.316l4 3.482h31M143 290v-69.918l3.637-8.082 3.637 8.082 3.637-8.082 4.041 8.082L161.59 212l3.637 8.082 4.041-8.082 3.233 8.082V261.5H184v-11.11l23 .11v10"/><path stroke="#607C99" stroke-linecap="square" d="M291 162.798v30.16L287.363 201l-3.637-8.042-3.637 8.042-4.041-8.042L272.41 201l-3.637-8.042-4.041 8.042-3.233-8.042v-30.16l-4-3.482V122H252v37.316l-4 3.482h-31M296 289.31l-5-.108v-69.16L287.363 212l-3.637 8.042-3.637-8.042-4.041 8.042L272.41 212l-3.637 8.042-4.041-8.042-3.233 8.042v30.16l-4 3.482V291H252v-37.316l-5-3.373v9.841h-40M681 163v30l-3.69 8-3.69-8-3.69 8-4.099-8-3.69 8-3.69-8-4.099 8-3.28-8v-30H647M681 250.39v-30.308L677.301 212l-3.698 8.082-3.699-8.082-4.11 8.082-3.698-8.082-3.699 8.082-4.11-8.082-3.287 8.082V290M647 163.798v29.16L643.363 201l-3.637-8.042-3.637 8.042-4.041-8.042L628.41 201l-3.637-8.042-4.041 8.042-3.233-8.042v-30.16l-4-3.482V122H608v37.316l-4 3.482h-31M647 290v-69.918L643.363 212l-3.637 8.082-3.637-8.082-4.041 8.082L628.41 212l-3.637 8.082-4.041-8.082-3.233 8.082V261.5H606v-11.11l-23 .11v10"/><path stroke="#607C99" stroke-linecap="square" d="M499 162.798v30.16l3.637 8.042 3.637-8.042 3.637 8.042 4.041-8.042L517.59 201l3.637-8.042 4.041 8.042 3.233-8.042v-30.16l4-3.482V122h5.5v37.316l4 3.482h31M494 220.5l.5 68.5 4.5.202v-69.16l3.637-8.042 3.637 8.042 3.637-8.042 4.041 8.042L517.59 212l3.637 8.042 4.041-8.042 3.233 8.042v30.16l4 3.482V291h5.5v-37.316l5-3.373v9.841h40"/><g fill-rule="nonzero"><use fill="#000" filter="url(#e)" xlink:href="#f"/><use fill="url(#g)" xlink:href="#f"/></g><g transform="translate(231 374)"><path d="M.5 41V28h72v13m0-6v43H.5V35" stroke="#FFCC01" stroke-width="1.5" stroke-linecap="square"/><path stroke="#FFF" opacity=".5" d="M.5 4h72v24H.5z"/><g transform="translate(23.5 15)"><g transform="translate(.525 .525)"><mask id="i" fill="#fff"><use xlink:href="#h"/></mask><use fill="#FFF" xlink:href="#h"/><g mask="url(#i)" fill="#FFCB00"><path d="M35.71-31.65l.743.742-87.61 87.611-.743-.742L35.71-31.65zm6.138 0l.742.742-87.61 87.611-.743-.742 87.61-87.611zm6.3 0l.742.742-87.61 87.611-.743-.742 87.61-87.611zm6.3 0l.742.742-87.61 87.611-.743-.742 87.61-87.611zm6.3 0l.742.742-87.61 87.611-.743-.742 87.61-87.611zm6.3 0l.742.742-87.61 87.611-.743-.742 87.61-87.611zm6.3 0l.742.742-87.61 87.611-.743-.742 87.61-87.611zm6.3 0l.742.742-87.61 87.611-.743-.742 87.61-87.611zm6.3 0l.742.742L-.92 56.703l-.743-.742 87.61-87.611z"/><path d="M-.92-31.65l-.743.742 87.61 87.611.743-.742L-.92-31.65zm-6.138 0l-.742.742 87.61 87.611.743-.742-87.61-87.611zm-6.3 0l-.742.742 87.61 87.611.743-.742-87.61-87.611zm-6.3 0l-.742.742 87.61 87.611.743-.742-87.61-87.611zm-6.3 0l-.742.742 87.61 87.611.743-.742-87.61-87.611zm-6.3 0l-.742.742 87.61 87.611.743-.742-87.61-87.611zm-6.3 0l-.742.742 87.61 87.611.743-.742-87.61-87.611zm-6.3 0l-.742.742 87.61 87.611.743-.742-87.61-87.611zm-6.3 0l-.742.742 87.61 87.611.743-.742-87.61-87.611z"/></g></g><circle stroke="#FFCA00" stroke-width="1.5" cx="13" cy="13" r="13"/></g><g transform="translate(23.5 65)"><g transform="translate(.525 .525)"><mask id="k" fill="#fff"><use xlink:href="#j"/></mask><use fill="#FFF" xlink:href="#j"/><g mask="url(#k)" fill="#FFCB00"><path d="M35.71-31.65l.743.742-87.61 87.611-.743-.742L35.71-31.65zm6.138 0l.742.742-87.61 87.611-.743-.742 87.61-87.611zm6.3 0l.742.742-87.61 87.611-.743-.742 87.61-87.611zm6.3 0l.742.742-87.61 87.611-.743-.742 87.61-87.611zm6.3 0l.742.742-87.61 87.611-.743-.742 87.61-87.611zm6.3 0l.742.742-87.61 87.611-.743-.742 87.61-87.611zm6.3 0l.742.742-87.61 87.611-.743-.742 87.61-87.611zm6.3 0l.742.742-87.61 87.611-.743-.742 87.61-87.611zm6.3 0l.742.742L-.92 56.703l-.743-.742 87.61-87.611z"/><path d="M-.92-31.65l-.743.742 87.61 87.611.743-.742L-.92-31.65zm-6.138 0l-.742.742 87.61 87.611.743-.742-87.61-87.611zm-6.3 0l-.742.742 87.61 87.611.743-.742-87.61-87.611zm-6.3 0l-.742.742 87.61 87.611.743-.742-87.61-87.611zm-6.3 0l-.742.742 87.61 87.611.743-.742-87.61-87.611zm-6.3 0l-.742.742 87.61 87.611.743-.742-87.61-87.611zm-6.3 0l-.742.742 87.61 87.611.743-.742-87.61-87.611zm-6.3 0l-.742.742 87.61 87.611.743-.742-87.61-87.611zm-6.3 0l-.742.742 87.61 87.611.743-.742-87.61-87.611z"/></g></g><circle stroke="#FFCA00" stroke-width="1.5" cx="13" cy="13" r="13"/></g><circle fill="#62B5E5" transform="rotate(-90 37 4.5)" cx="37" cy="4.5" r="4.5"/></g><path d="M256 122l.186-42.49m.112-25.48L256.5 8" stroke="#FCFCFC" stroke-width="1.5" stroke-linecap="square"/><path stroke="#FFCC01" stroke-width="1.5" stroke-linecap="square" d="M179.5 122L180 8M610.25 121l.5-113M371.375 170.873l.25-31.328m-.03-20.972l.03-7.072-88.896-.501L52 111.5v213m0 16v9m0 13V427M461.25 171l-.25-32.278"/><path stroke="#50B4E4" stroke-width="1.5" stroke-linecap="square" d="M649.25 162l.25-63.5"/><g transform="translate(240 22)"><rect stroke="#2C405A" stroke-width=".5" fill="url(#l)" fill-rule="nonzero" x=".25" y=".25" width="29.5" height="22.5" rx="4"/><path stroke="#162842" fill="#A8AEC0" d="M25.5 4.5h-9v14h9z"/><path stroke="#162842" fill="#FFF" d="M16.5 4.5h-12v14h12z"/><g fill-rule="nonzero"><path fill="#50556B" d="M9.5 11v1h-3v-1z"/><path fill="#F04450" d="M16 11v1h-4v-1z"/><path fill="#50556B" d="M10.5 9v1h-4V9z"/><path fill="#F04450" d="M11.5 7v1h-5V7z"/><path fill="#50556B" d="M10.5 13v1h-4v-1zM11.5 15v1h-5v-1z"/></g></g><path d="M407.026 316.5l-.052 4.087M406.5 338v85.5m0 24v6m0 2v10H337v-38h-33M99 427H52m178 0h-58" stroke="#FFCC01" stroke-width="1.5" stroke-linecap="square"/><path fill="#FFCB00" d="M185.142 7.293H175l5.071-7.071z"/><path fill="#FCFCFC" d="M261.142 7.293H251l5.071-7.071zM539.364 7.293h-10.142l5.07-7.071z"/><path fill="#FFCB00" d="M616.142 7.293H606l5.071-7.071zM376.642 141.293H366.5l5.071-7.071zM466.142 134.293H456l5.071 7.071z"/><path fill="#FFDA00" d="M57.142 206.293H47l5.071 7.071z"/><path fill="#FFCB00" d="M332.222 444.293h10.142l-5.071 7.071zM198.293 432.364v-10.142l7.071 5.07z"/><path fill="#50B4E4" d="M743.364 300.293h-10.142l5.07-7.071zM567.071 459.142V449l7.071 5.071z"/><path d="M330.75 184.25v46.5h-34.146l14.646-14.646v-18.715l-14.599-13.139h34.099z" stroke="#2C405A" stroke-width=".5" fill="url(#m)" fill-rule="nonzero"/><g transform="translate(329 148)"><mask id="p" fill="#fff"><use xlink:href="#n"/></mask><use fill="url(#o)" fill-rule="nonzero" xlink:href="#n"/><path d="M165.936 4.076a4 4 0 01.064.712v109.424a4 4 0 01-4.711 3.937l-158-28.555A4 4 0 010 85.658V33.342a4 4 0 013.289-3.936l158-28.555a4 4 0 014.647 3.225zm-.492.09a3.5 3.5 0 00-3.877-2.852l-.19.03-158 28.554a3.5 3.5 0 00-2.872 3.257l-.005.187v52.316a3.5 3.5 0 002.694 3.406l.184.038 158 28.555a3.5 3.5 0 004.117-3.253l.005-.192V4.788a3.5 3.5 0 00-.025-.416l-.03-.207z" fill="#2C405A" fill-rule="nonzero" mask="url(#p)"/></g><path d="M211.75 176.25v21.5h-13.5v-21.5h13.5z" stroke="#2C405A" stroke-width=".5" fill="url(#q)" fill-rule="nonzero"/><path d="M552.75 176.25v21.5h-13.5v-21.5h13.5z" stroke="#2C405A" stroke-width=".5" fill="url(#q)" fill-rule="nonzero" transform="matrix(-1 0 0 1 1092 0)"/><path d="M211.75 216.25v21.5h-13.5v-21.5h13.5z" stroke="#2C405A" stroke-width=".5" fill="url(#q)" fill-rule="nonzero" transform="matrix(1 0 0 -1 0 454)"/><path d="M253.75 176.25v21.5h-13.5v-21.5h13.5z" stroke="#2C405A" stroke-width=".5" fill="url(#q)" fill-rule="nonzero"/><path d="M594.75 176.25v21.5h-13.5v-21.5h13.5z" stroke="#2C405A" stroke-width=".5" fill="url(#q)" fill-rule="nonzero" transform="matrix(-1 0 0 1 1176 0)"/><path d="M253.75 216.25v21.5h-13.5v-21.5h13.5z" stroke="#2C405A" stroke-width=".5" fill="url(#q)" fill-rule="nonzero" transform="matrix(1 0 0 -1 0 454)"/><path d="M189.574 173.25v3h6.176v24.5h-6.912v-3.5h-6.588v-24h7.324z" stroke="#2C405A" stroke-width=".5" fill="url(#r)" fill-rule="nonzero"/><path d="M557.574 173.25v3h6.176v24.5h-6.912v-3.5h-6.588v-24h7.324z" stroke="#2C405A" stroke-width=".5" fill="url(#r)" fill-rule="nonzero" transform="matrix(-1 0 0 1 1114 0)"/><path d="M189.574 213.25v3h6.176v24.5h-6.912v-3.5h-6.588v-24h7.324z" stroke="#2C405A" stroke-width=".5" fill="url(#r)" fill-rule="nonzero" transform="matrix(1 0 0 -1 0 454)"/><path d="M231.574 173.25v3h6.176v24.5h-6.912v-3.5h-6.588v-24h7.324z" stroke="#2C405A" stroke-width=".5" fill="url(#r)" fill-rule="nonzero"/><path d="M600.574 173.25v3h6.176v24.5h-6.912v-3.5h-6.588v-24h7.324z" stroke="#2C405A" stroke-width=".5" fill="url(#r)" fill-rule="nonzero" transform="matrix(-1 0 0 1 1200 0)"/><path d="M231.574 213.25v3h6.176v24.5h-6.912v-3.5h-6.588v-24h7.324z" stroke="#2C405A" stroke-width=".5" fill="url(#r)" fill-rule="nonzero" transform="matrix(1 0 0 -1 0 454)"/><path d="M540 324h248v157H540V324z" stroke="#FFF" opacity=".2" stroke-dasharray="2"/><path fill="#193D59" d="M593 377h8v9h-8z"/><path fill="#A1A9B4" d="M592 377h10v1.5h-10zM592 384.5h10v1.5h-10z"/><path d="M592.696 379.397l.607-.795 8.365 6.383.157.135-.629.777-8.5-6.5zm.804-.897l8.5 6.5-.5.5-.325.38-.136-.118-8.342-6.364.803-.898z" fill="#A1A9B4" fill-rule="nonzero"/><path fill="#A1A9B4" d="M592 378h3l-3 3z"/><path fill="#193D59" d="M372 406h8v9h-8z"/><path fill="#A1A9B4" d="M371 406h10v1.5h-10zM371 413.5h10v1.5h-10z"/><path d="M371.696 408.397l.607-.795 8.365 6.383.157.135-.629.777-8.5-6.5zm.804-.897l8.5 6.5-.5.5-.325.38-.136-.118-8.342-6.364.803-.898z" fill="#A1A9B4" fill-rule="nonzero"/><path fill="#A1A9B4" d="M371 407h3l-3 3z"/><path fill="#193D59" d="M642 377h8v9h-8z"/><path fill="#A1A9B4" d="M641 377h10v1.5h-10zM641 384.5h10v1.5h-10z"/><path d="M641.696 379.397l.607-.795 8.365 6.383.157.135-.629.777-8.5-6.5zm.804-.897l8.5 6.5-.5.5-.325.38-.136-.118-8.342-6.364.803-.898z" fill="#A1A9B4" fill-rule="nonzero"/><path fill="#A1A9B4" d="M641 378h3l-3 3z"/><g fill-rule="nonzero"><path d="M36.75 12.604v35.792l-6.5-6.5V19.104l6.5-6.5z" stroke="#2C405A" stroke-width=".5" fill="url(#s)" transform="matrix(0 -1 -1 0 780 393)"/><path d="M60 .25c1.036 0 1.973.42 2.652 1.098A3.738 3.738 0 0163.75 4h0v21c0 1.036-.42 1.973-1.098 2.652A3.738 3.738 0 0160 28.75h0H4a3.738 3.738 0 01-2.652-1.098A3.738 3.738 0 01.25 25h0V4c0-1.036.42-1.973 1.098-2.652A3.738 3.738 0 014 .25h0z" stroke="#2C405A" stroke-width=".5" fill="url(#t)" transform="rotate(-180 390 179)"/><path fill="url(#u)" transform="rotate(90 225.5 537)" d="M23.5-17.5h17v64h-17z"/></g><g transform="translate(363 185)" fill-rule="nonzero"><rect stroke="#636262" stroke-width=".5" fill="url(#v)" x="2" y="2" width="100" height="41" rx="20.5"/><g transform="rotate(90 52 23)"><use fill="url(#w)" xlink:href="#x"/><use fill="#000" filter="url(#y)" xlink:href="#x"/></g><g transform="rotate(90 52 23)"><use fill="#000" filter="url(#z)" xlink:href="#A"/><use fill="url(#B)" xlink:href="#A"/></g><path d="M103.5 23c0 12.302-9.873 22.298-22.128 22.497L81 45.5H23C10.574 45.5.5 35.426.5 23 .5 10.698 10.373.702 22.628.503L23 .5h58c12.426 0 22.5 10.074 22.5 22.5zm-.5 0c0-12.029-9.654-21.803-21.636-21.997L81 1H23l-.364.003C10.774 1.195 1.193 10.777 1.003 22.64L1 23l.003.364c.192 11.862 9.774 21.443 21.637 21.633L23 45h58l.364-.003C93.346 44.803 103 35.03 103 23z" fill="#7F7F7F"/></g><path stroke="#2C405A" stroke-linecap="square" d="M176 184l1.174 2 1.174-2 1.174 2 1.304-2 1.174 2M176 227l1.174 2 1.174-2 1.174 2 1.304-2 1.174 2M218 184l1.174 2 1.174-2 1.174 2 1.304-2 1.174 2M564 186l1.174 2 1.174-2 1.174 2 1.304-2 1.174 2M607 186l1.174 2 1.174-2 1.174 2 1.304-2 1.174 2M218 227l1.174 2 1.174-2 1.174 2 1.304-2 1.174 2"/><path d="M552.75 216.25v21.5h-13.5v-21.5h13.5z" stroke="#2C405A" stroke-width=".5" fill="url(#q)" fill-rule="nonzero" transform="matrix(-1 0 0 1 1092 0)"/><path d="M557.574 213.25v3h6.176v24.5h-6.912v-3.5h-6.588v-24h7.324z" stroke="#2C405A" stroke-width=".5" fill="url(#r)" fill-rule="nonzero" transform="rotate(180 557 227)"/><path d="M594.75 216.25v21.5h-13.5v-21.5h13.5z" stroke="#2C405A" stroke-width=".5" fill="url(#q)" fill-rule="nonzero" transform="matrix(-1 0 0 1 1176 0)"/><path d="M599.574 213.25v3h6.176v24.5h-6.912v-3.5h-6.588v-24h7.324z" stroke="#2C405A" stroke-width=".5" fill="url(#r)" fill-rule="nonzero" transform="rotate(180 599 227)"/><path stroke="#2C405A" stroke-linecap="square" d="M606 227l1.174 2 1.174-2 1.174 2 1.304-2 1.174 2M564 227l1.174 2 1.174-2 1.174 2 1.304-2 1.174 2"/><g fill-rule="nonzero" transform="matrix(-1 0 0 1 435 0)"><use fill="#000" filter="url(#C)" xlink:href="#D"/><use fill="url(#g)" xlink:href="#D"/></g><path stroke="#4F556D" stroke-linecap="square" d="M172.5 194v32M261.5 194v32M528.5 194v32M617.5 194v32"/><path d="M535 121V79.316m0-25.614V8" stroke="#FCFCFC" stroke-width="1.5" stroke-linecap="square"/><path stroke="#50B4E4" stroke-width="1.5" stroke-linecap="square" d="M622.5 369.5v-50"/><g transform="translate(520 22)"><rect stroke="#2C405A" stroke-width=".5" fill="url(#l)" fill-rule="nonzero" x=".25" y=".25" width="29.5" height="22.5" rx="4"/><path stroke="#162842" fill="#A8AEC0" d="M4.5 4.5h9v14h-9z"/><path stroke="#162842" fill="#FFF" d="M13.5 4.5h12v14h-12z"/><g fill-rule="nonzero"><path fill="#50556B" d="M20.5 11v1h3v-1z"/><path fill="#F04450" d="M14 11v1h4v-1z"/><path fill="#50556B" d="M19.5 9v1h4V9z"/><path fill="#F04450" d="M18.5 7v1h5V7z"/><path fill="#50556B" d="M19.5 13v1h4v-1zM18.5 15v1h5v-1z"/></g></g><path stroke="#FFF" opacity=".5" stroke-dasharray="2" d="M73 333h143"/><path d="M407 371h70v40.5m0 0l-70-.008M407 421h70v30h-70" stroke="#FFF" opacity=".5"/><g transform="matrix(0 1 1 0 333 304)"><path d="M.5 4.5h36m13 0H58" stroke="#FFF" opacity=".5"/><circle fill="#62B5E5" transform="rotate(-90 27.5 4.5)" cx="27.5" cy="4.5" r="4.5"/><circle fill="#EF3340" transform="rotate(-90 60.5 4.5)" cx="60.5" cy="4.5" r="2.5"/></g><path d="M306 316v23h-13v-20c-1.333-1.47-2-2.803-2-4s.667-2.363 2-3.5V304" stroke="#FFF" opacity=".5"/><circle fill="#62B5E5" transform="rotate(-90 477.5 390.5)" cx="477.5" cy="390.5" r="4.5"/><circle fill="#62B5E5" transform="rotate(-90 477.5 435.5)" cx="477.5" cy="435.5" r="4.5"/><circle fill="#62B5E5" transform="rotate(-90 293.5 330.5)" cx="293.5" cy="330.5" r="4.5"/><g transform="matrix(0 1 1 0 58.99 319.99)"><mask id="H" fill="#fff"><use xlink:href="#F"/></mask><path d="M23.426-6.75c.212.882.324 1.803.324 2.75 0 3.245-1.315 6.182-3.441 8.308A11.713 11.713 0 0112 7.75a11.713 11.713 0 01-8.309-3.442A11.713 11.713 0 01.25-4c0-.947.112-1.868.324-2.75h0z" stroke="#2C405A" stroke-width=".5" fill="url(#G)" fill-rule="nonzero" mask="url(#H)"/></g><path d="M24.529 3.073l6.64 6.64-11.223 4.582 4.583-11.222z" stroke="#2C405A" stroke-width=".5" fill="url(#I)" fill-rule="nonzero" transform="scale(1 -1) rotate(-45 -382.097 -197.837)"/><path d="M8.039 3.073l6.64 6.64-11.223 4.582L8.04 3.073z" stroke="#2C405A" stroke-width=".5" fill="url(#I)" fill-rule="nonzero" transform="rotate(-45 410.708 114.063)"/><path fill="#A1A9B4" d="M52 331.49h7v1h-7z"/><path fill="#8C9EAC" d="M154.293 338.364v-10.142l-7.071 5.07z"/><g transform="translate(404 339)" fill-rule="nonzero"><path d="M33.769 0l5.092 9.817 2.059-3.326H48v1l-6.799-.001-2.34 4.51-5.092-9.817L28.676 12l-5.093-9.817L18.491 12l-5.093-9.817-2.599 5.01-.06-.029-.164.327H4v-1l6.03-.001L13.398 0l5.093 9.817L23.583 0l5.093 9.817L33.769 0z" fill="url(#J)"/><circle stroke="#2C405A" stroke-width=".5" fill="url(#I)" cx="3" cy="7" r="2.75"/></g><g transform="matrix(1 0 0 -1 678.49 364.51)"><mask id="N" fill="#fff"><use xlink:href="#L"/></mask><path d="M23.426-6.75c.212.882.324 1.803.324 2.75 0 3.245-1.315 6.182-3.441 8.308A11.713 11.713 0 0112 7.75a11.713 11.713 0 01-8.309-3.442A11.713 11.713 0 01.25-4c0-.947.112-1.868.324-2.75h0z" stroke="#2C405A" stroke-width=".5" fill="url(#M)" fill-rule="nonzero" mask="url(#N)"/></g><path fill="#A1A9B4" d="M690 345.5h-19v15.25l19 9.25v-21h1v23l-21-10.75V344.5h21v4.5h-1z"/><path d="M27.95 3.073l6.639 6.64-11.222 4.582 4.582-11.222z" stroke="#2C405A" stroke-width=".5" fill="url(#I)" fill-rule="nonzero" transform="scale(1 -1) rotate(45 822.672 627.452)"/><path d="M10.95 3.073l6.639 6.64-11.222 4.582 4.582-11.222z" stroke="#2C405A" stroke-width=".5" fill="url(#I)" fill-rule="nonzero" transform="rotate(-135 422.072 51.238)"/><path fill="#9AA9B7" fill-rule="nonzero" d="M689.99 371.01v-7h1v7z"/><path stroke="#50B4E4" stroke-width="1.5" stroke-linecap="square" d="M622.5 319.5H738"/><path stroke="#FFF" opacity=".5" d="M709 211v84h-58v-5M81 211v84h58v-5"/><circle fill="#62B5E5" transform="rotate(-90 680.5 294.5)" cx="680.5" cy="294.5" r="4.5"/><circle fill="#62B5E5" transform="matrix(0 -1 -1 0 405 405)" cx="110.5" cy="294.5" r="4.5"/><g transform="translate(100 374)"><path d="M0 41V28h72v13m0-2v39H0V39" stroke="#FFCC01" stroke-width="1.5" stroke-linecap="square"/><path stroke="#FFF" opacity=".5" d="M0 4h72v24H0z"/><g transform="translate(23 15)"><g transform="translate(.525 .525)"><mask id="P" fill="#fff"><use xlink:href="#O"/></mask><use fill="#FFF" xlink:href="#O"/><g mask="url(#P)" fill="#FFCB00"><path d="M35.71-31.65l.743.742-87.61 87.611-.743-.742L35.71-31.65zm6.138 0l.742.742-87.61 87.611-.743-.742 87.61-87.611zm6.3 0l.742.742-87.61 87.611-.743-.742 87.61-87.611zm6.3 0l.742.742-87.61 87.611-.743-.742 87.61-87.611zm6.3 0l.742.742-87.61 87.611-.743-.742 87.61-87.611zm6.3 0l.742.742-87.61 87.611-.743-.742 87.61-87.611zm6.3 0l.742.742-87.61 87.611-.743-.742 87.61-87.611zm6.3 0l.742.742-87.61 87.611-.743-.742 87.61-87.611zm6.3 0l.742.742L-.92 56.703l-.743-.742 87.61-87.611z"/><path d="M-.92-31.65l-.743.742 87.61 87.611.743-.742L-.92-31.65zm-6.138 0l-.742.742 87.61 87.611.743-.742-87.61-87.611zm-6.3 0l-.742.742 87.61 87.611.743-.742-87.61-87.611zm-6.3 0l-.742.742 87.61 87.611.743-.742-87.61-87.611zm-6.3 0l-.742.742 87.61 87.611.743-.742-87.61-87.611zm-6.3 0l-.742.742 87.61 87.611.743-.742-87.61-87.611zm-6.3 0l-.742.742 87.61 87.611.743-.742-87.61-87.611zm-6.3 0l-.742.742 87.61 87.611.743-.742-87.61-87.611zm-6.3 0l-.742.742 87.61 87.611.743-.742-87.61-87.611z"/></g></g><circle stroke="#FFCA00" stroke-width="1.5" cx="13" cy="13" r="13"/></g><g transform="translate(23 65)"><g transform="translate(.525 .525)"><mask id="R" fill="#fff"><use xlink:href="#Q"/></mask><use fill="#FFF" xlink:href="#Q"/><g mask="url(#R)" fill="#FFCB00"><path d="M35.71-31.65l.743.742-87.61 87.611-.743-.742L35.71-31.65zm6.138 0l.742.742-87.61 87.611-.743-.742 87.61-87.611zm6.3 0l.742.742-87.61 87.611-.743-.742 87.61-87.611zm6.3 0l.742.742-87.61 87.611-.743-.742 87.61-87.611zm6.3 0l.742.742-87.61 87.611-.743-.742 87.61-87.611zm6.3 0l.742.742-87.61 87.611-.743-.742 87.61-87.611zm6.3 0l.742.742-87.61 87.611-.743-.742 87.61-87.611zm6.3 0l.742.742-87.61 87.611-.743-.742 87.61-87.611zm6.3 0l.742.742L-.92 56.703l-.743-.742 87.61-87.611z"/><path d="M-.92-31.65l-.743.742 87.61 87.611.743-.742L-.92-31.65zm-6.138 0l-.742.742 87.61 87.611.743-.742-87.61-87.611zm-6.3 0l-.742.742 87.61 87.611.743-.742-87.61-87.611zm-6.3 0l-.742.742 87.61 87.611.743-.742-87.61-87.611zm-6.3 0l-.742.742 87.61 87.611.743-.742-87.61-87.611zm-6.3 0l-.742.742 87.61 87.611.743-.742-87.61-87.611zm-6.3 0l-.742.742 87.61 87.611.743-.742-87.61-87.611zm-6.3 0l-.742.742 87.61 87.611.743-.742-87.61-87.611zm-6.3 0l-.742.742 87.61 87.611.743-.742-87.61-87.611z"/></g></g><circle stroke="#FFCA00" stroke-width="1.5" cx="13" cy="13" r="13"/></g><circle fill="#62B5E5" transform="rotate(-90 36.5 4.5)" cx="36.5" cy="4.5" r="4.5"/></g><g><path d="M8.039 20.443l6.64 6.64-11.223 4.582L8.04 20.443z" stroke="#2C405A" stroke-width=".5" fill="url(#I)" fill-rule="nonzero" transform="scale(1 -1) rotate(-45 10.496 -322.655)"/><path d="M8.039 3.443l6.64 6.64-11.223 4.582L8.04 3.443z" stroke="#2C405A" stroke-width=".5" fill="url(#I)" fill-rule="nonzero" transform="scale(-1 1) rotate(-45 -64.352 353.59)"/><g transform="matrix(0 1 1 0 262.86 54.58)"><mask id="U" fill="#fff"><use xlink:href="#T"/></mask><path d="M23.426-6.75c.212.882.324 1.803.324 2.75 0 3.245-1.315 6.182-3.441 8.308A11.713 11.713 0 0112 7.75a11.713 11.713 0 01-8.309-3.442A11.713 11.713 0 01.25-4c0-.947.112-1.868.324-2.75h0z" stroke="#2C405A" stroke-width=".5" fill="url(#M)" fill-rule="nonzero" mask="url(#U)"/></g><path d="M267.574 58.516l7.796-6.064v14h-4.5m-8 0h-5.5l5.523-4.295" stroke="#9AA9B7"/></g><g><path d="M8.039 20.443l6.64 6.64-11.223 4.582L8.04 20.443z" stroke="#2C405A" stroke-width=".5" fill="url(#I)" fill-rule="nonzero" transform="rotate(135 261.852 159.474)"/><path d="M8.039 3.443l6.64 6.64-11.223 4.582L8.04 3.443z" stroke="#2C405A" stroke-width=".5" fill="url(#I)" fill-rule="nonzero" transform="rotate(-45 331.148 -601.231)"/><g transform="rotate(90 236.78 291.36)"><mask id="X" fill="#fff"><use xlink:href="#W"/></mask><path d="M23.426-6.75c.212.882.324 1.803.324 2.75 0 3.245-1.315 6.182-3.441 8.308A11.713 11.713 0 0112 7.75a11.713 11.713 0 01-8.309-3.442A11.713 11.713 0 01.25-4c0-.947.112-1.868.324-2.75h0z" stroke="#2C405A" stroke-width=".5" fill="url(#M)" fill-rule="nonzero" mask="url(#X)"/></g><path d="M523.426 58.516l-7.796-6.064v14H520m8.5 0h5.13l-5.523-4.295" stroke="#9AA9B7"/></g><path fill="#FFF" fill-rule="nonzero" opacity=".9" d="M293.223 341v-1.869H295v-1.262h-1.777V336h-1.446v1.869H290v1.262h1.777V341zM121.223 297v-1.869H123v-1.262h-1.777V292h-1.446v1.869H118v1.262h1.777V297zM125.223 380.5v-1.869H127v-1.262h-1.777V375.5h-1.446v1.869H122v1.262h1.777v1.869zM257.223 380.5v-1.869H259v-1.262h-1.777V375.5h-1.446v1.869H254v1.262h1.777v1.869zM671.223 297v-1.869H673v-1.262h-1.777V292h-1.446v1.869H668v1.262h1.777V297zM477.723 383v-1.869h1.777v-1.262h-1.777V378h-1.446v1.869H474.5v1.262h1.777V383zM477.723 448v-1.869h1.777v-1.262h-1.777V443h-1.446v1.869H474.5v1.262h1.777V448z"/><path stroke="#FFCC01" stroke-width="1.5" stroke-linecap="square" d="M52 369H5v-73h47"/><g><path fill="#193D59" d="M1 328h8v9H1z"/><path fill="#A1A9B4" d="M0 328h10v1.5H0zM0 335.5h10v1.5H0zM0 332h4v1.5H0zM6 332h4v1.5H6z"/></g><g transform="translate(403 383)"><circle stroke="#2C405A" stroke-width=".5" fill="url(#I)" fill-rule="nonzero" cx="4" cy="4" r="3.75"/><circle stroke="#2C405A" stroke-width=".5" fill="url(#I)" fill-rule="nonzero" cx="4" cy="11" r="3.75"/><path stroke="#9FA9B5" fill="#FFF" d="M8.5 7.5h5v1h-5z"/></g></g></svg>