<svg width="732" height="257" xmlns="http://www.w3.org/2000/svg" xmlns:xlink="http://www.w3.org/1999/xlink"><defs><filter x="-31.2%" y="-8.8%" width="162.5%" height="117.5%" filterUnits="objectBoundingBox" id="C"><feGaussianBlur stdDeviation="4.5" in="SourceAlpha" result="shadowBlurInner1"/><feOffset dy="1" in="shadowBlurInner1" result="shadowOffsetInner1"/><feComposite in="shadowOffsetInner1" in2="SourceAlpha" operator="arithmetic" k2="-1" k3="1" result="shadowInnerInner1"/><feColorMatrix values="0 0 0 0 0 0 0 0 0 0 0 0 0 0 0 0 0 0 0.301737325 0" in="shadowInnerInner1"/></filter><filter x="-27.8%" y="-7.1%" width="155.6%" height="114.3%" filterUnits="objectBoundingBox" id="v"><feGaussianBlur stdDeviation="1.5" in="SourceAlpha" result="shadowBlurInner1"/><feOffset dy="-1" in="shadowBlurInner1" result="shadowOffsetInner1"/><feComposite in="shadowOffsetInner1" in2="SourceAlpha" operator="arithmetic" k2="-1" k3="1" result="shadowInnerInner1"/><feColorMatrix values="0 0 0 0 0 0 0 0 0 0 0 0 0 0 0 0 0 0 0.319793488 0" in="shadowInnerInner1"/></filter><filter x="-35.7%" y="-7.1%" width="171.4%" height="114.3%" filterUnits="objectBoundingBox" id="h"><feGaussianBlur stdDeviation="1.5" in="SourceAlpha" result="shadowBlurInner1"/><feOffset dy="-1" in="shadowBlurInner1" result="shadowOffsetInner1"/><feComposite in="shadowOffsetInner1" in2="SourceAlpha" operator="arithmetic" k2="-1" k3="1" result="shadowInnerInner1"/><feColorMatrix values="0 0 0 0 0 0 0 0 0 0 0 0 0 0 0 0 0 0 0.319793488 0" in="shadowInnerInner1"/></filter><filter x="-58.3%" y="-14.4%" width="205.6%" height="132.2%" filterUnits="objectBoundingBox" id="D"><feOffset dx="-1" dy="1" in="SourceAlpha" result="shadowOffsetOuter1"/><feGaussianBlur stdDeviation="3" in="shadowOffsetOuter1" result="shadowBlurOuter1"/><feColorMatrix values="0 0 0 0 0 0 0 0 0 0 0 0 0 0 0 0 0 0 0.230550699 0" in="shadowBlurOuter1"/></filter><filter x="-35.7%" y="-7.1%" width="171.4%" height="114.3%" filterUnits="objectBoundingBox" id="j"><feGaussianBlur stdDeviation="1.5" in="SourceAlpha" result="shadowBlurInner1"/><feOffset dy="-1" in="shadowBlurInner1" result="shadowOffsetInner1"/><feComposite in="shadowOffsetInner1" in2="SourceAlpha" operator="arithmetic" k2="-1" k3="1" result="shadowInnerInner1"/><feColorMatrix values="0 0 0 0 0 0 0 0 0 0 0 0 0 0 0 0 0 0 0.319793488 0" in="shadowInnerInner1"/></filter><filter x="-62.5%" y="-7.1%" width="225%" height="114.3%" filterUnits="objectBoundingBox" id="l"><feGaussianBlur stdDeviation="1.5" in="SourceAlpha" result="shadowBlurInner1"/><feOffset dy="-1" in="shadowBlurInner1" result="shadowOffsetInner1"/><feComposite in="shadowOffsetInner1" in2="SourceAlpha" operator="arithmetic" k2="-1" k3="1" result="shadowInnerInner1"/><feColorMatrix values="0 0 0 0 0 0 0 0 0 0 0 0 0 0 0 0 0 0 0.319793488 0" in="shadowInnerInner1"/></filter><filter x="-11%" y="-39.1%" width="120%" height="187%" filterUnits="objectBoundingBox" id="e"><feMorphology radius=".5" operator="dilate" in="SourceAlpha" result="shadowSpreadOuter1"/><feOffset dx="-1" dy="1" in="shadowSpreadOuter1" result="shadowOffsetOuter1"/><feGaussianBlur stdDeviation="3" in="shadowOffsetOuter1" result="shadowBlurOuter1"/><feComposite in="shadowBlurOuter1" in2="SourceAlpha" operator="out" result="shadowBlurOuter1"/><feColorMatrix values="0 0 0 0 0 0 0 0 0 0 0 0 0 0 0 0 0 0 0.230550699 0" in="shadowBlurOuter1"/></filter><filter x="-62.5%" y="-7.1%" width="225%" height="114.3%" filterUnits="objectBoundingBox" id="n"><feGaussianBlur stdDeviation="1.5" in="SourceAlpha" result="shadowBlurInner1"/><feOffset dy="-1" in="shadowBlurInner1" result="shadowOffsetInner1"/><feComposite in="shadowOffsetInner1" in2="SourceAlpha" operator="arithmetic" k2="-1" k3="1" result="shadowInnerInner1"/><feColorMatrix values="0 0 0 0 0 0 0 0 0 0 0 0 0 0 0 0 0 0 0.319793488 0" in="shadowInnerInner1"/></filter><filter x="-31.2%" y="-7.1%" width="162.5%" height="114.3%" filterUnits="objectBoundingBox" id="p"><feGaussianBlur stdDeviation="1.5" in="SourceAlpha" result="shadowBlurInner1"/><feOffset dy="-1" in="shadowBlurInner1" result="shadowOffsetInner1"/><feComposite in="shadowOffsetInner1" in2="SourceAlpha" operator="arithmetic" k2="-1" k3="1" result="shadowInnerInner1"/><feColorMatrix values="0 0 0 0 0 0 0 0 0 0 0 0 0 0 0 0 0 0 0.319793488 0" in="shadowInnerInner1"/></filter><filter x="-31.2%" y="-7.1%" width="162.5%" height="114.3%" filterUnits="objectBoundingBox" id="r"><feGaussianBlur stdDeviation="1.5" in="SourceAlpha" result="shadowBlurInner1"/><feOffset dy="-1" in="shadowBlurInner1" result="shadowOffsetInner1"/><feComposite in="shadowOffsetInner1" in2="SourceAlpha" operator="arithmetic" k2="-1" k3="1" result="shadowInnerInner1"/><feColorMatrix values="0 0 0 0 0 0 0 0 0 0 0 0 0 0 0 0 0 0 0.319793488 0" in="shadowInnerInner1"/></filter><filter x="-27.8%" y="-7.1%" width="155.6%" height="114.3%" filterUnits="objectBoundingBox" id="t"><feGaussianBlur stdDeviation="1.5" in="SourceAlpha" result="shadowBlurInner1"/><feOffset dy="-1" in="shadowBlurInner1" result="shadowOffsetInner1"/><feComposite in="shadowOffsetInner1" in2="SourceAlpha" operator="arithmetic" k2="-1" k3="1" result="shadowInnerInner1"/><feColorMatrix values="0 0 0 0 0 0 0 0 0 0 0 0 0 0 0 0 0 0 0.319793488 0" in="shadowInnerInner1"/></filter><filter x="-25%" y="-7.1%" width="150%" height="114.3%" filterUnits="objectBoundingBox" id="x"><feGaussianBlur stdDeviation="1.5" in="SourceAlpha" result="shadowBlurInner1"/><feOffset dy="-1" in="shadowBlurInner1" result="shadowOffsetInner1"/><feComposite in="shadowOffsetInner1" in2="SourceAlpha" operator="arithmetic" k2="-1" k3="1" result="shadowInnerInner1"/><feColorMatrix values="0 0 0 0 0 0 0 0 0 0 0 0 0 0 0 0 0 0 0.319793488 0" in="shadowInnerInner1"/></filter><linearGradient x1=".169%" y1="49.86%" x2="99.899%" y2="49.86%" id="a"><stop stop-color="#6B666B" offset="0%"/><stop stop-color="#F3F4F4" offset="50.303%"/><stop stop-color="#6B666B" offset="100%"/></linearGradient><linearGradient x1=".04%" y1="49.99%" x2="100.028%" y2="49.99%" id="I"><stop stop-color="#8B878D" offset="0%"/><stop stop-color="#F3F4F4" offset="49.121%"/><stop stop-color="#807B80" offset="100%"/></linearGradient><linearGradient x1="50.034%" y1="-.004%" x2="50.034%" y2="99.984%" id="G"><stop stop-color="#8B878D" offset="0%"/><stop stop-color="#F3F4F4" offset="53.011%"/><stop stop-color="#807B80" offset="100%"/></linearGradient><linearGradient x1="50.034%" y1="0%" x2="50.034%" y2="100%" id="A"><stop stop-color="#363D43" offset="0%"/><stop stop-color="#798085" offset="49.388%"/><stop stop-color="#363D43" offset="100%"/></linearGradient><linearGradient x1=".169%" y1="49.86%" x2="99.899%" y2="49.86%" id="c"><stop stop-color="#524E52" offset="0%"/><stop stop-color="#F3F4F4" offset="50.303%"/><stop stop-color="#524E52" offset="100%"/></linearGradient><linearGradient x1=".169%" y1="49.86%" x2="99.899%" y2="49.86%" id="b"><stop stop-color="#6B666B" offset="0%"/><stop stop-color="#F3F4F4" offset="50.303%"/><stop stop-color="#6B666B" offset="100%"/></linearGradient><linearGradient x1=".169%" y1="49.86%" x2="99.899%" y2="49.86%" id="d"><stop stop-color="#6B666B" offset="0%"/><stop stop-color="#F3F4F4" offset="50.303%"/><stop stop-color="#6B666B" offset="100%"/></linearGradient><linearGradient x1=".04%" y1="49.99%" x2="100.028%" y2="49.99%" id="z"><stop stop-color="#8B878D" offset="0%"/><stop stop-color="#F3F4F4" offset="49.93%"/><stop stop-color="#807B80" offset="100%"/></linearGradient><linearGradient x1=".453%" y1="50.403%" x2="99.615%" y2="50.403%" id="g"><stop stop-color="#AFACB1" offset="0%"/><stop stop-color="#BAB9BC" offset="28.499%"/><stop stop-color="#D9D8DA" offset="42.07%"/><stop stop-color="#F3F4F4" offset="58.437%"/><stop stop-color="#958F95" offset="100%"/></linearGradient><linearGradient x1=".453%" y1="50.403%" x2="99.615%" y2="50.403%" id="F"><stop stop-color="#AFACB1" offset="0%"/><stop stop-color="#BAB9BC" offset="28.499%"/><stop stop-color="#D9D8DA" offset="42.07%"/><stop stop-color="#F3F4F4" offset="58.437%"/><stop stop-color="#958F95" offset="100%"/></linearGradient><linearGradient x1=".04%" y1="49.99%" x2="100.028%" y2="49.99%" id="H"><stop stop-color="#8B878D" offset="0%"/><stop stop-color="#F3F4F4" offset="49.93%"/><stop stop-color="#807B80" offset="100%"/></linearGradient><rect id="m" x="0" y="0" width="4" height="35" rx="2"/><rect id="y" x="52" y="0" width="10" height="35" rx="5"/><rect id="u" x="37" y="0" width="9" height="35" rx="4.5"/><rect id="q" x="23" y="0" width="8" height="35" rx="4"/><rect id="i" x="10" y="0" width="7" height="35" rx="3.5"/><rect id="o" x="110" y="0" width="4" height="35" rx="2"/><rect id="w" x="68" y="0" width="9" height="35" rx="4.5"/><rect id="k" x="97" y="0" width="7" height="35" rx="3.5"/><rect id="s" x="83" y="0" width="8" height="35" rx="4"/><path d="M30-20a9 9 0 00-9 9v41a9 9 0 0018 0v-41a9 9 0 00-9-9zm0 2a7 7 0 017 7v41a7 7 0 01-14 0v-41a7 7 0 017-7z" id="E"/><path d="M30-19a8 8 0 018 8v41a8 8 0 11-16 0v-41a8 8 0 018-8z" id="B"/><path d="M660.5 100c6.351 0 11.5 5.149 11.5 11.5s-5.149 11.5-11.5 11.5h-77c-6.351 0-11.5-5.149-11.5-11.5s5.149-11.5 11.5-11.5h77zm0 1h-77c-5.799 0-10.5 4.701-10.5 10.5 0 5.704 4.548 10.346 10.216 10.496l.284.004h77c5.799 0 10.5-4.701 10.5-10.5 0-5.704-4.548-10.346-10.216-10.496L660.5 101z" id="f"/></defs><g fill="none" fill-rule="evenodd"><path d="M702 86H542v169h160V86z" stroke="#C2C2C2" stroke-width="4"/><g fill-rule="nonzero"><path d="M117.75 45.25v118.276c-2.39-14.19-9.486-27.372-19.573-37.118C87.7 116.288 74 109.873 59 109.873c-15.01 0-28.72 6.423-39.161 16.539-10.003 9.69-17.007 22.767-19.287 36.823h0L.251 45.25H117.75zM15.5 52.75c-1.01 0-1.928.4-2.604 1.075-.661.662-1.092 1.59-1.146 2.669V84.5c0 1.036.42 1.973 1.098 2.652A3.738 3.738 0 0015.5 88.25c1.01 0 1.928-.4 2.604-1.075.661-.662 1.092-1.59 1.146-2.669V56.5c0-1.036-.42-1.973-1.098-2.652A3.738 3.738 0 0015.5 52.75zm87 0c-1.01 0-1.928.4-2.604 1.075-.661.662-1.092 1.59-1.146 2.669V84.5c0 1.036.42 1.973 1.098 2.652a3.738 3.738 0 002.652 1.098c1.01 0 1.928-.4 2.604-1.075.661-.662 1.092-1.59 1.146-2.669V56.5c0-1.036-.42-1.973-1.098-2.652a3.738 3.738 0 00-2.652-1.098zm11.5 0c-.602 0-1.148.236-1.553.641-.393.392-.654.945-.697 1.6V86c0 .621.252 1.184.659 1.591.407.407.97.659 1.591.659.602 0 1.148-.236 1.553-.641.393-.392.654-.945.697-1.6V55c0-.621-.252-1.184-.659-1.591a2.243 2.243 0 00-1.406-.652L114 52.75zm-85 0c-1.148 0-2.19.455-2.955 1.22-.752.752-1.24 1.805-1.295 3.024V84c0 1.174.476 2.236 1.245 3.005A4.237 4.237 0 0029 88.25c1.148 0 2.19-.455 2.955-1.22.752-.752 1.24-1.805 1.295-3.024V57a4.237 4.237 0 00-1.245-3.005A4.237 4.237 0 0029 52.75zm60 0c-1.148 0-2.19.455-2.955 1.22-.752.752-1.24 1.805-1.295 3.024V84c0 1.174.476 2.236 1.245 3.005A4.237 4.237 0 0089 88.25c1.148 0 2.19-.455 2.955-1.22.752-.752 1.24-1.805 1.295-3.024V57a4.237 4.237 0 00-1.245-3.005A4.237 4.237 0 0089 52.75zm-45.5 0c-1.284 0-2.45.51-3.306 1.366-.841.841-1.385 2.019-1.444 3.379V83.5c0 1.312.532 2.5 1.391 3.359A4.735 4.735 0 0043.5 88.25c1.284 0 2.45-.51 3.306-1.366.841-.841 1.385-2.019 1.444-3.379V57.5c0-1.312-.532-2.5-1.391-3.359A4.735 4.735 0 0043.5 52.75zm31 0c-1.284 0-2.45.51-3.306 1.366-.841.841-1.385 2.019-1.444 3.379V83.5c0 1.312.532 2.5 1.391 3.359A4.735 4.735 0 0074.5 88.25c1.284 0 2.45-.51 3.306-1.366.841-.841 1.385-2.019 1.444-3.379V57.5c0-1.312-.532-2.5-1.391-3.359A4.735 4.735 0 0074.5 52.75zm-15.5 0a5.141 5.141 0 00-3.658 1.511c-.932.932-1.532 2.235-1.592 3.734V83c0 1.45.588 2.762 1.538 3.712A5.234 5.234 0 0059 88.25a5.141 5.141 0 003.658-1.511c.932-.932 1.532-2.235 1.592-3.734V58c0-1.45-.588-2.762-1.538-3.712A5.234 5.234 0 0059 52.75zm-55 0c-.602 0-1.148.236-1.553.641-.393.392-.654.945-.697 1.6V86c0 .621.252 1.184.659 1.591.407.407.97.659 1.591.659.602 0 1.148-.236 1.553-.641.393-.392.654-.945.697-1.6V55c0-.621-.252-1.184-.659-1.591A2.243 2.243 0 004 52.75z" stroke="#636262" stroke-width=".5" fill="url(#a)" transform="translate(563 87)"/><g stroke="#605F5F" stroke-width=".5"><path fill="url(#b)" d="M15 23h34L39 33H25z" transform="translate(590 87)"/><path d="M46.345.25H18.15l-8 15H.651l9.445 8.5h43.808l9.445-8.5h-9.504l-7.5-15z" fill="url(#c)" transform="translate(590 87)"/></g><path d="M113 6.25c1.312 0 2.5.532 3.359 1.391A4.735 4.735 0 01117.75 11h0v34.75H.25V11c0-1.312.532-2.5 1.391-3.359A4.735 4.735 0 015 6.25h0zm-15.5 7.5h0-77a11.713 11.713 0 00-8.309 3.441A11.713 11.713 0 008.75 25.5a11.59 11.59 0 003.406 8.236c2.103 2.103 5.028 3.433 8.338 3.514H97.5c3.245 0 6.182-1.315 8.309-3.441a11.713 11.713 0 003.441-8.309c0-3.245-1.315-6.182-3.441-8.309A11.713 11.713 0 0097.5 13.75z" stroke="#636262" stroke-width=".5" fill="url(#d)" transform="translate(563 87)"/><path d="M565 254c0-31.48 25.52-57 57-57s57 25.52 57 57" stroke="#C2C2C2" stroke-width="4"/></g><g fill-rule="nonzero" transform="translate(0 1)"><use fill="#000" filter="url(#e)" xlink:href="#f"/><path stroke="#7F7F7F" stroke-width=".5" d="M660.5 99.75c3.245 0 6.182 1.315 8.309 3.441a11.713 11.713 0 013.441 8.309c0 3.245-1.315 6.182-3.441 8.309a11.713 11.713 0 01-8.309 3.441h0-77a11.713 11.713 0 01-8.309-3.441 11.713 11.713 0 01-3.441-8.309c0-3.245 1.315-6.182 3.441-8.309a11.713 11.713 0 018.309-3.441h0zm-.006 1.5H583.5c-2.83 0-5.393 1.147-7.248 3.002a10.218 10.218 0 00-3.002 7.248c0 2.795 1.119 5.328 2.968 7.177 1.836 1.837 4.393 2.998 7.288 3.073H660.5c2.83 0 5.393-1.147 7.248-3.002a10.218 10.218 0 003.002-7.248c0-2.795-1.119-5.328-2.968-7.177-1.836-1.837-4.393-2.998-7.288-3.073z" fill="url(#g)" fill-rule="evenodd"/></g><g fill-rule="nonzero"><g transform="translate(565 140)"><use fill="#000" filter="url(#h)" xlink:href="#i"/><rect stroke="#7F7F7F" stroke-width=".5" x="9.75" y="-.25" width="7.5" height="35.5" rx="3.5"/></g><g transform="translate(565 140)"><use fill="#000" filter="url(#j)" xlink:href="#k"/><rect stroke="#7F7F7F" stroke-width=".5" x="96.75" y="-.25" width="7.5" height="35.5" rx="3.5"/></g><g transform="translate(565 140)"><use fill="#000" filter="url(#l)" xlink:href="#m"/><rect stroke="#7F7F7F" stroke-width=".5" x="-.25" y="-.25" width="4.5" height="35.5" rx="2"/></g><g transform="translate(565 140)"><use fill="#000" filter="url(#n)" xlink:href="#o"/><rect stroke="#7F7F7F" stroke-width=".5" x="109.75" y="-.25" width="4.5" height="35.5" rx="2"/></g><g transform="translate(565 140)"><use fill="#000" filter="url(#p)" xlink:href="#q"/><rect stroke="#7F7F7F" stroke-width=".5" x="22.75" y="-.25" width="8.5" height="35.5" rx="4"/></g><g transform="translate(565 140)"><use fill="#000" filter="url(#r)" xlink:href="#s"/><rect stroke="#7F7F7F" stroke-width=".5" x="82.75" y="-.25" width="8.5" height="35.5" rx="4"/></g><g transform="translate(565 140)"><use fill="#000" filter="url(#t)" xlink:href="#u"/><rect stroke="#7F7F7F" stroke-width=".5" x="36.75" y="-.25" width="9.5" height="35.5" rx="4.5"/></g><g transform="translate(565 140)"><use fill="#000" filter="url(#v)" xlink:href="#w"/><rect stroke="#7F7F7F" stroke-width=".5" x="67.75" y="-.25" width="9.5" height="35.5" rx="4.5"/></g><g transform="translate(565 140)"><use fill="#000" filter="url(#x)" xlink:href="#y"/><rect stroke="#7F7F7F" stroke-width=".5" x="51.75" y="-.25" width="10.5" height="35.5" rx="5"/></g></g><path d="M622.499 103.5v12m-2.506 1h-105.23m-32.57 0H444.61m-10.523 0H394.5m0-.5V56m0-33.5V1m1.503 0H623v62M50.053 117h105.103m34.041 0h55.526m24.54 0h52.516m10.18 0l63.541-.5M6 29v88h10.012" stroke="#FFCC01" stroke-width="1.5" stroke-linecap="square"/><path fill="#FFCB00" d="M110.364 77.293h-10.142l5.07-7.071zM1.222 24.293h10.142l-5.071 7.071z"/><path stroke="#636262" stroke-width=".5" fill="url(#z)" fill-rule="nonzero" d="M563.25 170.25h117.5v4.5h-117.5z" transform="translate(0 1)"/><g fill-rule="nonzero"><g transform="rotate(90 239.5 390)"><use fill="url(#A)" xlink:href="#B"/><use fill="#000" filter="url(#C)" xlink:href="#B"/></g><g transform="rotate(90 239.5 390)"><use fill="#000" filter="url(#D)" xlink:href="#E"/><use fill="url(#F)" xlink:href="#E"/></g><path d="M650 180.5a9.5 9.5 0 01-9.23 9.496l-.27.004h-41a9.5 9.5 0 01-.27-18.996l.27-.004h41a9.5 9.5 0 019.5 9.5zm-.5 0a9 9 0 00-8.735-8.996l-.265-.004h-41l-.265.004a9 9 0 00-8.731 8.73l-.004.266.004.265a9 9 0 008.73 8.731l.266.004h41l.265-.004a9 9 0 008.735-8.996z" fill="#7F7F7F"/></g><path stroke="#FFF" opacity=".5" d="M355.5 117.5v24h-57v-24"/><circle transform="translate(322.5 136.5)" cx="4.5" cy="4.5" r="4.5" fill="#62B5E5"/><path stroke="#FFF" opacity=".5" d="M468.5 115.5v-24h-57v24"/><circle transform="matrix(1 0 0 -1 435.5 96.5)" cx="4.5" cy="4.5" r="4.5" fill="#62B5E5"/><path stroke="#FFF" opacity=".5" d="M671 130h57v-25h-37"/><circle transform="matrix(0 1 1 0 723 113)" cx="4.5" cy="4.5" r="4.5" fill="#62B5E5"/><path d="M106 116v-10.127m0-20.253V76" stroke="#FFCC01" stroke-width="1.5" stroke-linecap="square"/><g fill-rule="nonzero" stroke="#636262" stroke-width=".5"><path fill="url(#G)" transform="rotate(90 330.69 298.881)" d="M85-7h14.381v28.763H85z"/><path d="M4 14h176a4 4 0 014 4v16.773h0H0V18a4 4 0 014-4z" fill="url(#H)" transform="translate(530 53)"/><path fill="url(#I)" d="M0 23h184v3.196H0z" transform="translate(530 53)"/></g><g fill="#A1A9B4" fill-rule="nonzero"><path d="M322.5 121.5v-10h1.5v10zM330 121.5v-10h1.5v10zM326.2 121.5v-4h1.5v4zM326.2 115.5v-4h1.5v4z"/></g><g fill="#A1A9B4" fill-rule="nonzero"><path d="M434.5 121.5v-10h1.5v10zM442 121.5v-10h1.5v10zM438.2 121.5v-4h1.5v4zM438.2 115.5v-4h1.5v4z"/></g></g></svg>