<svg width="489" height="427" xmlns="http://www.w3.org/2000/svg" xmlns:xlink="http://www.w3.org/1999/xlink"><defs><linearGradient x1="50.034%" y1="-.004%" x2="50.034%" y2="99.725%" id="K"><stop stop-color="#4E4D4F" offset="0%"/><stop stop-color="#D2D3D3" offset="51.051%"/><stop stop-color="#4E4D4F" offset="100%"/></linearGradient><linearGradient x1="50.034%" y1="99.725%" x2="50.034%" y2="-.004%" id="au"><stop stop-color="#585858" offset="0%"/><stop stop-color="#9E9E9E" offset="48.184%"/><stop stop-color="#585858" offset="100%"/></linearGradient><linearGradient x1="50.034%" y1="99.725%" x2="50.034%" y2="-.004%" id="ao"><stop stop-color="#656266" offset="0%"/><stop stop-color="#9F9CA1" offset="13.66%"/><stop stop-color="#D9D8DA" offset="42.07%"/><stop stop-color="#F3F4F4" offset="51.52%"/><stop stop-color="#807B80" offset="100%"/></linearGradient><linearGradient x1="50.034%" y1="114.901%" x2="50.034%" y2="-16.677%" id="g"><stop stop-color="#363D43" offset="0%"/><stop stop-color="#82888D" offset="52.238%"/><stop stop-color="#363D43" offset="100%"/></linearGradient><linearGradient x1="50.034%" y1="99.984%" x2="50.034%" y2="-.004%" id="al"><stop stop-color="#8B878D" offset="0%"/><stop stop-color="#9F9CA1" offset="13.66%"/><stop stop-color="#D9D8DA" offset="42.07%"/><stop stop-color="#F3F4F4" offset="51.52%"/><stop stop-color="#807B80" offset="100%"/></linearGradient><linearGradient x1="1.504%" y1="0%" x2="98.496%" y2="127.532%" id="k"><stop stop-color="#5E5D5E" offset="0%"/><stop stop-color="#BEBEBE" offset="47.838%"/><stop stop-color="#5E5D5E" offset="100%"/></linearGradient><linearGradient x1="50.034%" y1="114.901%" x2="50.034%" y2="-16.677%" id="aj"><stop stop-color="#363D43" offset="0%"/><stop stop-color="#82888D" offset="52.238%"/><stop stop-color="#363D43" offset="100%"/></linearGradient><linearGradient x1="50.034%" y1="100%" x2="50.034%" y2="0%" id="ah"><stop stop-color="#363D43" offset="0%"/><stop stop-color="#798085" offset="38.975%"/><stop stop-color="#82888D" offset="63.704%"/><stop stop-color="#363D43" offset="100%"/></linearGradient><linearGradient x1="50%" y1="0%" x2="50%" y2="100%" id="l"><stop stop-color="#BDD3EB" offset="0%"/><stop stop-color="#93C5DE" offset="100%"/></linearGradient><linearGradient x1=".453%" y1="50.403%" x2="99.615%" y2="50.403%" id="ag"><stop stop-color="#AFACB1" offset="0%"/><stop stop-color="#BAB9BC" offset="28.499%"/><stop stop-color="#D9D8DA" offset="42.07%"/><stop stop-color="#F3F4F4" offset="58.437%"/><stop stop-color="#958F95" offset="100%"/></linearGradient><linearGradient x1="50.034%" y1="0%" x2="50.034%" y2="100%" id="ab"><stop stop-color="#363D43" offset="0%"/><stop stop-color="#798085" offset="49.388%"/><stop stop-color="#363D43" offset="100%"/></linearGradient><linearGradient x1="50%" y1="0%" x2="50%" y2="100%" id="o"><stop stop-color="#BDD3EB" offset="0%"/><stop stop-color="#93C5DE" offset="100%"/></linearGradient><linearGradient x1="50.034%" y1="0%" x2="50.034%" y2="100%" id="Y"><stop stop-color="#363D43" offset="0%"/><stop stop-color="#798085" offset="49.388%"/><stop stop-color="#363D43" offset="100%"/></linearGradient><linearGradient x1="50%" y1="0%" x2="50%" y2="100%" id="q"><stop stop-color="#BDD3EB" offset="0%"/><stop stop-color="#93C5DE" offset="100%"/></linearGradient><linearGradient x1=".453%" y1="50.403%" x2="99.615%" y2="50.403%" id="W"><stop stop-color="#AFACB1" offset="0%"/><stop stop-color="#BAB9BC" offset="28.499%"/><stop stop-color="#D9D8DA" offset="42.07%"/><stop stop-color="#F3F4F4" offset="58.437%"/><stop stop-color="#958F95" offset="100%"/></linearGradient><linearGradient x1="50.034%" y1="99.984%" x2="50.034%" y2="-.004%" id="s"><stop stop-color="#8B878D" offset="0%"/><stop stop-color="#9F9CA1" offset="13.66%"/><stop stop-color="#D9D8DA" offset="42.07%"/><stop stop-color="#F3F4F4" offset="51.52%"/><stop stop-color="#807B80" offset="100%"/></linearGradient><linearGradient x1=".453%" y1="50.403%" x2="99.615%" y2="50.403%" id="v"><stop stop-color="#AFACB1" offset="0%"/><stop stop-color="#BAB9BC" offset="28.499%"/><stop stop-color="#D9D8DA" offset="42.07%"/><stop stop-color="#F3F4F4" offset="58.437%"/><stop stop-color="#958F95" offset="100%"/></linearGradient><linearGradient x1=".034%" y1="50%" x2="100.034%" y2="50%" id="R"><stop stop-color="#363D43" offset="0%"/><stop stop-color="#798085" offset="49.388%"/><stop stop-color="#363D43" offset="100%"/></linearGradient><linearGradient x1=".453%" y1="50.403%" x2="99.615%" y2="50.403%" id="Q"><stop stop-color="#AFACB1" offset="0%"/><stop stop-color="#BAB9BC" offset="28.499%"/><stop stop-color="#D9D8DA" offset="42.07%"/><stop stop-color="#F3F4F4" offset="58.437%"/><stop stop-color="#958F95" offset="100%"/></linearGradient><linearGradient x1="50.034%" y1="99.984%" x2="50.034%" y2="-.004%" id="w"><stop stop-color="#8B878D" offset="0%"/><stop stop-color="#9F9CA1" offset="13.66%"/><stop stop-color="#D9D8DA" offset="42.07%"/><stop stop-color="#F3F4F4" offset="51.52%"/><stop stop-color="#807B80" offset="100%"/></linearGradient><linearGradient x1="50.034%" y1="99.984%" x2="50.034%" y2="-.004%" id="x"><stop stop-color="#8B878D" offset="0%"/><stop stop-color="#9F9CA1" offset="13.66%"/><stop stop-color="#D9D8DA" offset="42.07%"/><stop stop-color="#F3F4F4" offset="51.52%"/><stop stop-color="#807B80" offset="100%"/></linearGradient><linearGradient x1="50.034%" y1="99.984%" x2="50.034%" y2="-.004%" id="y"><stop stop-color="#8B878D" offset="0%"/><stop stop-color="#9F9CA1" offset="13.66%"/><stop stop-color="#D9D8DA" offset="42.07%"/><stop stop-color="#F3F4F4" offset="51.52%"/><stop stop-color="#807B80" offset="100%"/></linearGradient><linearGradient x1="50%" y1="0%" x2="50%" y2="100%" id="z"><stop stop-color="#636262" stop-opacity=".4" offset="0%"/><stop stop-color="#636262" offset="46.746%"/><stop stop-color="#636262" stop-opacity=".4" offset="100%"/></linearGradient><linearGradient x1="50%" y1="0%" x2="50%" y2="100%" id="A"><stop stop-color="#636262" stop-opacity=".401" offset="0%"/><stop stop-color="#636262" offset="46.746%"/><stop stop-color="#636262" stop-opacity=".4" offset="100%"/></linearGradient><linearGradient x1=".034%" y1="50%" x2="100.034%" y2="50%" id="L"><stop stop-color="#363D43" offset="0%"/><stop stop-color="#798085" offset="49.388%"/><stop stop-color="#363D43" offset="100%"/></linearGradient><linearGradient x1="50.034%" y1="99.984%" x2="50.034%" y2="-.004%" id="d"><stop stop-color="#8B878D" offset="0%"/><stop stop-color="#9F9CA1" offset="13.66%"/><stop stop-color="#D9D8DA" offset="42.07%"/><stop stop-color="#F3F4F4" offset="51.52%"/><stop stop-color="#807B80" offset="100%"/></linearGradient><linearGradient x1="50.034%" y1="-.004%" x2="50.034%" y2="99.725%" id="J"><stop stop-color="#1B1A1B" offset="0%"/><stop stop-color="#D2D3D3" offset="51.051%"/><stop stop-color="#1B1A1B" offset="100%"/></linearGradient><linearGradient x1="50.034%" y1="99.725%" x2="50.034%" y2="-.004%" id="F"><stop stop-color="#656266" offset="0%"/><stop stop-color="#9F9CA1" offset="13.66%"/><stop stop-color="#D9D8DA" offset="42.07%"/><stop stop-color="#F3F4F4" offset="51.52%"/><stop stop-color="#807B80" offset="100%"/></linearGradient><linearGradient x1="50.034%" y1="99.725%" x2="50.034%" y2="-.004%" id="H"><stop stop-color="#656266" offset="0%"/><stop stop-color="#9F9CA1" offset="13.66%"/><stop stop-color="#D9D8DA" offset="42.07%"/><stop stop-color="#F3F4F4" offset="51.52%"/><stop stop-color="#807B80" offset="100%"/></linearGradient><linearGradient x1="50.034%" y1="99.725%" x2="50.034%" y2="-.004%" id="I"><stop stop-color="#6B666B" offset="0%"/><stop stop-color="#9F9CA1" offset="22.807%"/><stop stop-color="#F3F4F4" offset="51.051%"/><stop stop-color="#9F9CA1" offset="80.103%"/><stop stop-color="#6B666B" offset="100%"/></linearGradient><path id="E" d="M0 0h24v8H0z"/><path id="a" d="M0 0h151v300H0z"/><path id="B" d="M0 0h12.881v42.937H0z"/><path d="M318.5 264.75c20.158 0 36.5 16.342 36.5 36.5v142c0 20.158-16.342 36.5-36.5 36.5s-36.5-16.342-36.5-36.5v-142c0-20.158 16.342-36.5 36.5-36.5z" id="M"/><path id="c" d="M0 0h12.881v42.937H0z"/><path id="an" d="M0 0h24v8H0z"/><path d="M318.5 263.75c-20.71 0-37.5 16.79-37.5 37.5v142c0 20.71 16.79 37.5 37.5 37.5s37.5-16.79 37.5-37.5v-142c0-20.71-16.79-37.5-37.5-37.5zm0 2c19.606 0 35.5 15.894 35.5 35.5v142c0 19.606-15.894 35.5-35.5 35.5s-35.5-15.894-35.5-35.5v-142c0-19.606 15.894-35.5 35.5-35.5z" id="P"/><path id="am" d="M0 0h24v7H0z"/><path d="M878.91 77.448H751.872v125.14h127.036V77.448zm-5.689 5.775v113.59h-115.66V83.222h115.66z" id="u"/><path d="M30-19a8 8 0 018 8v41a8 8 0 11-16 0v-41a8 8 0 018-8z" id="S"/><path id="f" d="M2.222 1.665H124.97v125.14H1.726z"/><path d="M4.399 0h100.635a4 4 0 014 4v39a4 4 0 01-4 4h-101a4 4 0 01-4-4.037l.365-39A4 4 0 014.4 0z" id="ai"/><path d="M30-20a9 9 0 00-9 9v41a9 9 0 0018 0v-41a9 9 0 00-9-9zm0 2a7 7 0 017 7v41a7 7 0 01-14 0v-41a7 7 0 017-7z" id="V"/><path d="M760.731 152.314l.003 2.15h14.045c-1.21 1.525-2.447 3.327-3.794 5.443-2.499 3.926-3.743 8.902-3.813 14.872l-.042 3.564.12.01.034.318.064.486c1.176 8.057 8.114 14.243 16.497 14.243 9.209 0 16.674-7.465 16.674-16.673l-.012-.637-.04-.672a16.625 16.625 0 00-3.584-9.088l-.248-.3-.176-.25c-1.215-1.67-2.711-2.934-4.93-4.424-.32-.215-1.513-1-1.783-1.18l-.596-.41c-1.34-.943-1.582-1.304-1.539-1.674.04-.336.164-.472.986-.746 1.085-.362 2.71-.522 4.836-.443l.003 5.075h11.462l.05.114.079.208c.108.295.22.662.33 1.1.516 2.064.834 5.161.93 9.24l.03 2.944v3.569h3.431l.233.24.195.222c.418.5.575.871.575 1.113v3.785l1.18.002.088.214.223.493c2.534 5.37 7.956 8.959 14.11 8.959l.59-.011.66-.039a15.554 15.554 0 004.428-1.017l.181-.075.081.251.2.576c.472 1.31 1 2.372 1.599 3.143 1.529 1.969 3.65 2.82 5.966 2.526.772-.098 1.504-.307 2.323-.622.284-.109.569-.227.914-.376l1.188-.516c1.078-.45 1.706-.62 2.264-.62.625 0 1.332.211 2.641.784l1.438.622.285.114c.821.318 1.555.53 2.33.628 2.325.296 4.45-.57 5.975-2.557 2.096-2.73 4.005-11.841 4.005-16.264 0-9.209-7.465-16.673-16.674-16.673-9.208 0-16.673 7.464-16.673 16.673l.006.4.018.433c.015.3.038.622.068.963l.044.474-.11.098-.318.248a5.837 5.837 0 01-3.43 1.106l-.338-.01-.366-.032a5.878 5.878 0 01-4.897-4.066l-.06-.207.097-.153.133-.187c.145-.194.33-.408.56-.64l3.156-.002-.002-3.156v-3.356l-.001-20.325h.193v2.148h18.32l-.002-2.148h1.003l.002 4.295h22.612l-.002-4.295h10.254v50.272l-123.244-.948v-49.325l6.962-.001zm86.015 15.533c7.114 0 12.882 5.767 12.882 12.88 0 2.95-1.553 11.784-3.22 13.956-.572.743-1.189 1.063-1.855 1.12l-.253.01c-2.037-.014-4.525-2.204-7.554-2.204-2.845 0-5.23 1.941-7.21 2.169l-.267.02c-.794.026-1.52-.262-2.184-1.115-.842-1.085-1.642-3.805-2.234-6.63l-.212-1.062a11.768 11.768 0 01-7.721 3.384l-.567.014-.48-.01c-5.418-.217-9.896-4.083-11.043-9.208l-.09-.443h-.195l-.015-.36c-.1-1.201-.705-2.403-1.814-3.604l-.317-.33h6.44l-.365.382c-.696.765-1.189 1.53-1.476 2.294l-.127.382a4.677 4.677 0 00-.093.383c.632 4.724 4.678 8.367 9.575 8.367a9.633 9.633 0 007.83-4.008c-.201-1.436-.316-2.69-.316-3.506 0-7.114 5.767-12.881 12.881-12.881zm-60.754-16.639a27.104 27.104 0 0110.734 0v2.147l-.76-.079a39.512 39.512 0 00-2.81-.176l-.538-.008-.523.001c-5.15.061-7.9 1.58-8.25 4.556-.59 5.019 6.631 6.01 9.764 10.672a12.848 12.848 0 013.117 8.406c0 6.963-5.524 12.635-12.429 12.873l-.452.008-.452-.008c-6.905-.238-12.429-5.91-12.429-12.873 0-.643.047-1.275.138-1.893l-.138-.01c.063-5.312 1.136-9.606 3.22-12.881 2.48-3.897 5.078-7.69 8.724-9.627l.481-.243c.813-.385 1.678-.68 2.603-.865zm59.806-64.942c7.114 0 12.882 5.767 12.882 12.88 0 6.964-5.525 12.636-12.43 12.874l-.452.008-.452-.008c-6.905-.238-12.429-5.91-12.429-12.873 0-1.154.152-2.273.437-3.338a9.64 9.64 0 00-7.482-4.165l-.469-.011-.443.01c-4.696.212-8.519 3.776-9.132 8.357.227 1.146.914 2.294 2.061 3.44h2.955l-.002 27.908h7.776v-2.145h10.735l-.001 2.145h8.587l.001-4.292h4.294v.63l.373-.162a6.619 6.619 0 012.451-.468h1.756l.48.017c.476.034.938.119 1.381.248v-.265h4.293l.002 4.154.055.14h13.988v17.175h-13.988l-.058.138.001 4.156h-4.293v-.265l-.449.114c-.303.066-.615.11-.932.133l-.48.018h-1.756l-.515-.02a6.6 6.6 0 01-1.936-.448l-.373-.162v.63h-4.294l-.001-4.294h-8.587v2.147h-10.734v-2.147h-7.776l.002 26.836h-10.735l-.002-.723c-.06-10.968-1.49-16.452-4.292-16.452h-8.587l-.001-9.663h-21.97v2.149h-10.734l-.001-2.149h-10.753V131.35h10.753l.001-2.146h10.735v2.145h21.969l.001-7.512h8.587l.164-.008c2.591-.241 3.963-6.275 4.116-18.102l.014-2.285h1.34l.317-.33c1.22-1.322 1.83-2.643 1.83-3.964h.194l.09-.443c1.18-5.276 5.892-9.218 11.523-9.218 3.516 0 6.673 1.537 8.836 3.975a12.874 12.874 0 0111.56-7.195zm-61.953 4.293c7.114 0 12.881 5.768 12.881 12.882 0 3.21-1.175 6.148-3.117 8.406-3.133 4.661-10.354 5.653-9.764 10.672.362 3.075 3.286 4.594 8.773 4.557l.539-.009.555-.018c.75-.03 1.544-.087 2.38-.17l.634-.067v2.147l-.825.153a27.074 27.074 0 01-9.909-.153 11.35 11.35 0 01-3.66-1.433c-2.953-1.78-5.21-4.789-7.314-8.006l-.834-1.295c-2.084-3.275-3.157-7.57-3.22-12.881l.138-.01a12.987 12.987 0 01-.138-1.893c0-7.114 5.767-12.882 12.881-12.882zm93.168-13.111v50.11l-10.254-.001v-4.293h-22.61l-.002 4.29h-1.003l.003-2.143h-18.32l-.001 2.144h-.193l.003-27.906-4.867-.002.033-.114.111-.322a5.877 5.877 0 015.49-3.786l.389.013.425.043a5.832 5.832 0 013.005 1.357l.056.05-.01.073-.08.724c-.042.484-.063.972-.063 1.462 0 9.208 7.465 16.673 16.673 16.673 9.209 0 16.674-7.465 16.674-16.673 0-9.208-7.465-16.673-16.674-16.673l-.564.01-.612.03a16.652 16.652 0 00-10.993 5.234l-.17.185-.361-.212-.538-.292a15.566 15.566 0 00-7.157-1.735l-.491.008-.562.027a15.614 15.614 0 00-13.334 9.522l-.045.107-1.168.003v3.786l-.008.1-.025.114c-.023.08-.059.169-.108.266l-.012.02-3.333.002-.002 4.675c-.03 6.114-.369 10.682-.99 13.632l-.092.417-.094.385c-.127.492-.256.9-.381 1.217l-.028.068h-11.294l-.001 3.222c-2.195.082-3.856-.093-4.932-.476-.745-.265-.853-.388-.892-.714-.043-.37.2-.73 1.54-1.673l.595-.41c.18-.12.77-.51 1.24-.819l1.083-.73.561-.396c1.633-1.18 2.826-2.28 3.829-3.659l.172-.248.252-.302a16.633 16.633 0 003.636-10.397c0-9.209-7.465-16.674-16.674-16.674l-.491.007-.508.023c-8.095.478-14.637 6.732-15.562 14.7l-.034.317-.12.01.042 3.564.02.888c.178 5.578 1.42 10.254 3.793 13.985 1.262 1.983 2.429 3.69 3.566 5.152l-13.817-.002-.003 2.144-6.962.002v-50.11h123.244z" id="j"/><path d="M57.5 1h-36C10.178 1 1 10.178 1 21.5S10.178 42 21.5 42h36C68.822 42 78 32.822 78 21.5S68.822 1 57.5 1zm-36 2h36C67.717 3 76 11.283 76 21.5S67.717 40 57.5 40h-36C11.283 40 3 31.717 3 21.5S11.283 3 21.5 3z" id="af"/><path id="D" d="M0 0h24v7H0z"/><filter x="-58.3%" y="-14.4%" width="205.6%" height="132.2%" filterUnits="objectBoundingBox" id="U"><feOffset dx="-1" dy="1" in="SourceAlpha" result="shadowOffsetOuter1"/><feGaussianBlur stdDeviation="3" in="shadowOffsetOuter1" result="shadowBlurOuter1"/><feColorMatrix values="0 0 0 0 0 0 0 0 0 0 0 0 0 0 0 0 0 0 0.230550699 0" in="shadowBlurOuter1"/></filter><filter x="-6.7%" y="-12.8%" width="113.3%" height="125.6%" filterUnits="objectBoundingBox" id="Z"><feGaussianBlur stdDeviation="4.5" in="SourceAlpha" result="shadowBlurInner1"/><feOffset dy="1" in="shadowBlurInner1" result="shadowOffsetInner1"/><feComposite in="shadowOffsetInner1" in2="SourceAlpha" operator="arithmetic" k2="-1" k3="1" result="shadowInnerInner1"/><feColorMatrix values="0 0 0 0 0 0 0 0 0 0 0 0 0 0 0 0 0 0 0.301737325 0" in="shadowInnerInner1"/></filter><filter x="-6.8%" y="-2.3%" width="113.7%" height="104.7%" filterUnits="objectBoundingBox" id="N"><feGaussianBlur stdDeviation="4.5" in="SourceAlpha" result="shadowBlurInner1"/><feOffset dy="1" in="shadowBlurInner1" result="shadowOffsetInner1"/><feComposite in="shadowOffsetInner1" in2="SourceAlpha" operator="arithmetic" k2="-1" k3="1" result="shadowInnerInner1"/><feColorMatrix values="0 0 0 0 0 0 0 0 0 0 0 0 0 0 0 0 0 0 0.301737325 0" in="shadowInnerInner1"/></filter><filter x="-6.6%" y="-12.5%" width="113.2%" height="125%" filterUnits="objectBoundingBox" id="ad"><feGaussianBlur stdDeviation="4.5" in="SourceAlpha" result="shadowBlurInner1"/><feOffset dy="1" in="shadowBlurInner1" result="shadowOffsetInner1"/><feComposite in="shadowOffsetInner1" in2="SourceAlpha" operator="arithmetic" k2="-1" k3="1" result="shadowInnerInner1"/><feColorMatrix values="0 0 0 0 0 0 0 0 0 0 0 0 0 0 0 0 0 0 0.301737325 0" in="shadowInnerInner1"/></filter><filter x="0%" y="0%" width="100%" height="100%" filterUnits="objectBoundingBox" id="m"><feGaussianBlur in="SourceGraphic"/></filter><filter x="0%" y="0%" width="100%" height="100%" filterUnits="objectBoundingBox" id="p"><feGaussianBlur in="SourceGraphic"/></filter><filter x="-13.6%" y="-20.7%" width="124.7%" height="146.3%" filterUnits="objectBoundingBox" id="ae"><feOffset dx="-1" dy="1" in="SourceAlpha" result="shadowOffsetOuter1"/><feGaussianBlur stdDeviation="3" in="shadowOffsetOuter1" result="shadowBlurOuter1"/><feColorMatrix values="0 0 0 0 0 0 0 0 0 0 0 0 0 0 0 0 0 0 0.230550699 0" in="shadowBlurOuter1"/></filter><filter x="-8.5%" y="-6.8%" width="115.4%" height="115.2%" filterUnits="objectBoundingBox" id="i"><feOffset dx="-1" dy="1" in="SourceAlpha" result="shadowOffsetOuter1"/><feGaussianBlur stdDeviation="3" in="shadowOffsetOuter1" result="shadowBlurOuter1"/><feColorMatrix values="0 0 0 0 0 0 0 0 0 0 0 0 0 0 0 0 0 0 0.230550699 0" in="shadowBlurOuter1"/></filter><filter x="0%" y="0%" width="100%" height="100%" filterUnits="objectBoundingBox" id="n"><feGaussianBlur in="SourceGraphic"/></filter><filter x="0%" y="0%" width="100%" height="100%" filterUnits="objectBoundingBox" id="r"><feGaussianBlur in="SourceGraphic"/></filter><filter x="-31.2%" y="-8.8%" width="162.5%" height="117.5%" filterUnits="objectBoundingBox" id="T"><feGaussianBlur stdDeviation="4.5" in="SourceAlpha" result="shadowBlurInner1"/><feOffset dy="1" in="shadowBlurInner1" result="shadowOffsetInner1"/><feComposite in="shadowOffsetInner1" in2="SourceAlpha" operator="arithmetic" k2="-1" k3="1" result="shadowInnerInner1"/><feColorMatrix values="0 0 0 0 0 0 0 0 0 0 0 0 0 0 0 0 0 0 0.301737325 0" in="shadowInnerInner1"/></filter><filter x="-14%" y="-3.9%" width="125.3%" height="108.8%" filterUnits="objectBoundingBox" id="O"><feOffset dx="-1" dy="1" in="SourceAlpha" result="shadowOffsetOuter1"/><feGaussianBlur stdDeviation="3" in="shadowOffsetOuter1" result="shadowBlurOuter1"/><feColorMatrix values="0 0 0 0 0 0 0 0 0 0 0 0 0 0 0 0 0 0 0.230550699 0" in="shadowBlurOuter1"/></filter><filter x="-8.3%" y="-6.8%" width="115%" height="115.2%" filterUnits="objectBoundingBox" id="t"><feOffset dx="-1" dy="1" in="SourceAlpha" result="shadowOffsetOuter1"/><feGaussianBlur stdDeviation="3" in="shadowOffsetOuter1" result="shadowBlurOuter1"/><feComposite in="shadowBlurOuter1" in2="SourceAlpha" operator="out" result="shadowBlurOuter1"/><feColorMatrix values="0 0 0 0 0 0 0 0 0 0 0 0 0 0 0 0 0 0 0.230550699 0" in="shadowBlurOuter1"/></filter><circle id="aq" cx="12.5" cy="12.5" r="12.5"/><circle id="as" cx="12.5" cy="12.5" r="12.5"/><rect id="ac" x="-1" y="0" width="76" height="40" rx="4"/><rect id="X" x="0" y="0" width="75" height="39" rx="19.5"/></defs><g transform="translate(1 1.25)" fill="none" fill-rule="evenodd"><g transform="translate(12 1.75)"><mask id="b" fill="#fff"><use xlink:href="#a"/></mask><g mask="url(#b)"><g opacity=".15"><g transform="translate(-23.289 128.69)"><mask id="e" fill="#fff"><use xlink:href="#c"/></mask><use fill="url(#d)" fill-rule="nonzero" xlink:href="#c"/><path fill="#7F7F7F" fill-rule="nonzero" mask="url(#e)" transform="matrix(-1 0 0 1 11.743 0)" d="M-7.24-2.147l-.632.76 26.855 32.225.632-.76zM-7.24 2.147l-.632.759L18.983 35.13l.632-.759zM-7.24 6.44l-.632.76 26.855 32.225.632-.76zM-7.24 10.734l-.632.76 26.855 32.225.632-.76zM-7.24 15.028l-.632.76 26.855 32.224.632-.759zM-7.24 19.322l-.632.759 26.855 32.225.632-.759zM-7.24 23.616l-.632.759L18.983 56.6l.632-.76zM-7.24 27.91l-.632.758 26.855 32.226.632-.76zM-7.24-6.44l-.632.758 26.855 32.226.632-.76zM-7.24-10.734l-.632.759L18.983 22.25l.632-.759zM-7.24-15.028l-.632.759 26.855 32.225.632-.759zM-7.24-19.322l-.632.76 26.855 32.225.632-.76z"/></g><path stroke="#636262" stroke-width=".5" d="M-23.289 128.69h12.881v42.936h-12.88z"/><g transform="translate(7.873 85.551)"><mask id="h" fill="#fff"><use xlink:href="#f"/></mask><use fill="url(#g)" fill-rule="nonzero" xlink:href="#f"/><g opacity=".603"><g opacity=".148" mask="url(#h)" stroke="#FFF" stroke-linecap="square" stroke-width=".5"><path d="M-545.806 192.717L371.98-727.216M-545.806 199.158L371.98-720.775M-545.806 205.598L371.98-714.334M-545.806 212.039L371.98-707.894M-545.806 218.479L371.98-701.453M-545.806 224.92L371.98-695.013M-545.806 231.36L371.98-688.571M-545.806 237.8L371.98-682.13M-545.806 244.242L371.98-675.691M-545.806 250.682L371.98-669.25M-545.806 257.123L371.98-662.81M-545.806 263.564L371.98-656.37M-545.806 270.004L371.98-649.928M-545.806 276.445L371.98-643.488M-545.806 282.885L371.98-637.047M-545.806 289.326L371.98-630.607M-545.806 295.767L371.98-624.166M-545.806 302.207L371.98-617.725M-545.806 308.648L371.98-611.285M-545.806 315.088L371.98-604.844M-545.806 321.529L371.98-598.404M-545.806 327.97L371.98-591.963M-545.806 334.41L371.98-585.522M-545.806 340.85L371.98-579.081M-545.806 347.29L371.98-572.64M-545.806 353.732L371.98-566.201M-545.806 360.173L371.98-559.76M-545.806 366.613L371.98-553.32M-545.806 373.054L371.98-546.88M-545.806 379.494L371.98-540.438M-545.806 385.935L371.98-533.998M-545.806 392.376L371.98-527.557M-545.806 398.816L371.98-521.116M-545.806 405.257L371.98-514.676M-545.806 411.697L371.98-508.235M-545.806 418.138L371.98-501.795M-545.806 424.579L371.98-495.354M-545.806 431.019L371.98-488.913M-545.806 437.46L371.98-482.473M-545.806 443.9L371.98-476.032M-545.806 450.34L371.98-469.591M-545.806 456.782L371.98-463.151M-545.806 463.222L371.98-456.71M-545.806 469.663L371.98-450.27M-545.806 476.103L371.98-443.83M-545.806 482.544L371.98-437.39M-545.806 488.985L371.98-430.948M-545.806 495.425L371.98-424.507M-545.806 501.866L371.98-418.067M-545.806 508.306L371.98-411.626M-545.806 514.747L371.98-405.186M-545.806 521.188L371.98-398.745M-545.806 527.628L371.98-392.304M-545.806 534.069L371.98-385.864M-545.806 540.509L371.98-379.423M-545.806 546.95L371.98-372.983M-545.806 553.39L371.98-366.541M-545.806 559.83L371.98-360.1M-545.806 566.272L371.98-353.661M-545.806 572.712L371.98-347.22M-545.806 579.153L371.98-340.78M-545.806 585.594L371.98-334.34M-545.806 592.034L371.98-327.898M-545.806 598.475L371.98-321.458M-545.806 604.915L371.98-315.017M-545.806 611.356L371.98-308.577M-545.806 617.797L371.98-302.136M-545.806 624.237L371.98-295.695M-545.806 630.678L371.98-289.255M-545.806 637.118L371.98-282.814M-545.806 643.559L371.98-276.374M-545.806 650L371.98-269.933M-545.806 656.44L371.98-263.492M-545.806 662.88L371.98-257.051M-545.806 669.32L371.98-250.61M-545.806 675.762L371.98-244.171M-545.806 682.203L371.98-237.73M-545.806 688.643L371.98-231.29M-545.806 695.084L371.98-224.85M-545.806 701.524L371.98-218.408M-545.806 707.965L371.98-211.968M-545.806 714.406L371.98-205.527M-545.806 720.846L371.98-199.086M-545.806 727.287L371.98-192.646M-545.806 733.727L371.98-186.205M-545.806 740.168L371.98-179.765M-545.806 746.609L371.98-173.324M-545.806 753.049L371.98-166.883M-545.806 759.49L371.98-160.443M-545.806 765.93L371.98-154.002M-545.806 772.37L371.98-147.561M-545.806 778.812L371.98-141.121M-545.806 785.252L371.98-134.68M-545.806 791.693L371.98-128.24M-545.806 798.133L371.98-121.8M-545.806 804.574L371.98-115.358M-545.806 811.015L371.98-108.918M-545.806 817.455L371.98-102.477M-545.806 823.896L371.98-96.037M-545.806 830.336L371.98-89.596M-545.806 836.777L371.98-83.155M-545.806 843.218L371.98-76.715M-545.806 849.658L371.98-70.274M-545.806 856.099L371.98-63.834M-545.806 862.539L371.98-57.393M-545.806 868.98L371.98-50.952M-545.806 875.42L371.98-44.511M-545.806 881.86L371.98-38.07M-545.806 888.302L371.98-31.631M-545.806 894.742L371.98-25.19M-545.806 901.183L371.98-18.75M-545.806 907.624L371.98-12.31M-545.806 914.064L371.98-5.868M-545.806 920.505L371.98.572M-545.806 926.945L371.98 7.013M-545.806 933.386L371.98 13.454M-545.806 939.827L371.98 19.894M-545.806 946.267L371.98 26.335M-545.806 952.708L371.98 32.775M-545.806 959.148L371.98 39.216M-545.806 965.589L371.98 45.657M-545.806 972.03L371.98 52.097M-545.806 978.47L371.98 58.538M-545.806 984.91L371.98 64.979M-545.806 991.35L371.98 71.42M-545.806 997.792L371.98 77.86M-545.806 1004.233L371.98 84.3M-545.806 1010.673L371.98 90.74M-545.806 1017.114L371.98 97.18M-545.806 1023.554L371.98 103.622M-545.806 1029.995L371.98 110.063M-545.806 1036.436L371.98 116.503M-545.806 1042.876L371.98 122.944M-545.806 1049.317L371.98 129.384M-545.806 1055.757L371.98 135.825M-545.806 1062.198L371.98 142.266M-545.806 1068.639L371.98 148.706M-545.806 1075.079L371.98 155.147M-545.806 1081.52L371.98 161.587M-545.806 1087.96L371.98 168.028M-545.806 1094.4L371.98 174.47M-545.806 1100.842L371.98 180.909M-545.806 1107.282L371.98 187.35M-545.806 1113.723L371.98 193.79"/></g></g></g><g fill-rule="nonzero" transform="translate(-744 10)"><use fill="#000" filter="url(#i)" xlink:href="#j"/><use fill="url(#k)" xlink:href="#j"/></g><path d="M796.877 151.208v2.147c-8.144-.907-12.438.524-12.881 4.294-.592 5.025 6.649 6.013 9.776 10.69a12.832 12.832 0 013.105 8.388c0 7.114-5.767 12.881-12.881 12.881s-12.882-5.767-12.882-12.881c0-.643.048-1.275.139-1.893l-.139-.01c.063-5.312 1.137-9.606 3.22-12.881 3.127-4.913 6.441-9.661 11.809-10.735a27.104 27.104 0 0110.734 0z" fill="url(#l)" filter="url(#m)" transform="translate(-744 10)"/><path d="M796.877 91.096v2.147c-8.144-.907-12.438.524-12.881 4.294-.592 5.025 6.649 6.012 9.776 10.69a12.832 12.832 0 013.105 8.388c0 7.114-5.767 12.88-12.881 12.88s-12.882-5.766-12.882-12.88c0-.643.048-1.275.139-1.893l-.139-.01c.063-5.312 1.137-9.606 3.22-12.881 3.127-4.913 6.441-9.661 11.809-10.735a27.104 27.104 0 0110.734 0z" fill="url(#l)" filter="url(#n)" transform="matrix(1 0 0 -1 -744 230.055)"/><path d="M856.558 168.978c1.667 2.171 3.22 11.005 3.22 13.954 0 7.114-5.767 12.881-12.881 12.881s-12.881-5.767-12.881-12.88c0-.818.115-2.074.317-3.511a9.646 9.646 0 00-7.831-4.004c-4.898 0-8.944 3.644-9.576 8.369.228 1.146.915 2.293 2.062 3.439h-6.441c1.431-1.431 2.147-2.862 2.147-4.294h.195c1.01-5.496 5.825-9.66 11.613-9.66a11.77 11.77 0 018.288 3.397c.604-3.183 1.499-6.472 2.446-7.691 2.357-3.034 5.522 1.073 9.66 1.073 4.166 0 7.307-4.14 9.662-1.073z" fill="url(#o)" filter="url(#p)" transform="matrix(1 0 0 -1 -744 373.66)"/><path d="M845.949 86.266c7.114 0 12.881 5.767 12.881 12.88 0 7.115-5.767 12.882-12.881 12.882s-12.881-5.767-12.881-12.881c0-1.156.152-2.275.437-3.341a9.649 9.649 0 00-7.951-4.173c-4.898 0-8.945 3.644-9.576 8.37.228 1.145.915 2.292 2.062 3.438h-6.441c1.431-1.432 2.147-2.863 2.147-4.294h.195c1.01-5.496 5.824-9.661 11.613-9.661 3.515 0 6.671 1.536 8.834 3.974a12.88 12.88 0 0111.56-7.194z" fill="url(#q)" filter="url(#r)" transform="translate(-744 10)"/><path d="M794.169 50.715v28.992h-22.291V50.715h22.29z" stroke="#636262" stroke-width=".5" fill="url(#s)" fill-rule="nonzero" transform="rotate(90 406.023 -301.789)"/><path d="M859.285 210.25v28.992h-22.29V210.25h22.29z" stroke="#636262" stroke-width=".5" fill="url(#s)" fill-rule="nonzero" transform="rotate(90 471.14 -142.254)"/><g fill-rule="nonzero" transform="translate(-744 10)"><use fill="#000" filter="url(#t)" xlink:href="#u"/><path stroke="#636262" stroke-width=".5" d="M878.66 77.698v124.64H752.122V77.698h126.536zm-5.189 5.275h-116.16v114.09h116.16V82.972z" stroke-linejoin="square" fill="url(#v)" fill-rule="evenodd"/></g><path d="M836.533 181.055l23.115 6.304v29.675l-23.115 6.304v-42.283z" stroke="#636262" stroke-width=".5" fill="url(#w)" fill-rule="nonzero" transform="matrix(0 -1 -1 0 306.287 1060.287)"/><path d="M771.364 65.643l23.116 6.305v29.674l-23.116 6.304V65.643z" stroke="#636262" stroke-width=".5" fill="url(#w)" fill-rule="nonzero" transform="rotate(90 405.922 -280.215)"/><path d="M860.1 127.056a3.5 3.5 0 013.5 3.5v.796l15.46-.002v17.175l-15.46.002v.792a3.5 3.5 0 01-3.5 3.5h-8.028a3.5 3.5 0 01-3.5-3.5v-.79l-115.2.02v-17.174l115.2-.02v-.799a3.5 3.5 0 013.5-3.5h8.028z" stroke="#636262" stroke-width=".5" fill="url(#x)" fill-rule="nonzero" transform="translate(-744 10)"/><g stroke-width=".5"><path d="M12.881 0h10.735v71.92H12.88c0-11.45-1.431-17.175-4.294-17.175H0v-34.35h8.587c2.863 0 4.294-6.798 4.294-20.395z" stroke="#636262" fill="url(#y)" fill-rule="nonzero" transform="translate(53.378 113.44)"/><path stroke="#636262" fill-opacity=".04" fill="#000" opacity=".5" d="M66.26 135.983h10.733v12.88H66.26zM66.26 148.864h10.733v12.88H66.26z"/><path stroke="#636262" fill-opacity=".06" fill="#000" opacity=".5" d="M66.26 127.396h10.733v8.587H66.26zM66.26 161.746h10.733v8.587H66.26z"/><path stroke="#636262" fill-opacity=".08" fill="#000" opacity=".5" d="M66.26 120.955h10.733v6.44H66.26zM66.26 170.333h10.733v6.44H66.26z"/><path stroke="#636262" fill-opacity=".104" fill="#000" opacity=".5" d="M66.26 116.66h10.733v4.295H66.26z"/><path stroke="#636262" fill-opacity=".1" fill="#000" opacity=".7" d="M66.26 176.774h10.733v5.367H66.26z"/><path stroke="url(#z)" stroke-linecap="square" d="M2.147 54.745v-34.35M4.294 54.745v-34.35M6.441 54.745v-34.35" transform="translate(53.378 113.44)"/><path stroke="url(#A)" stroke-linecap="square" d="M8.587 54.745v-34.35" transform="translate(53.378 113.44)"/></g><path d="M119.119 137.056v8.588h-4.294v-8.588h4.294zm-10.735 0v8.588h-4.293v-8.588h4.293zM119.119 162.819v-8.588h-4.294v8.588h4.294zm-10.735 0v-8.588h-4.293v8.588h4.293zM20.674 139.203h10.734v6.441H20.674zM20.674 154.231h10.734v6.441H20.674zM84.769 139.203h10.734v6.441H84.769zM84.769 154.231h10.734v6.441H84.769z" fill="#0F436B"/></g><g transform="translate(-23.289 128.69)"><mask id="C" fill="#fff"><use xlink:href="#B"/></mask><use fill="url(#d)" fill-rule="nonzero" xlink:href="#B"/><path fill="#7F7F7F" fill-rule="nonzero" mask="url(#C)" transform="matrix(-1 0 0 1 11.743 0)" d="M-7.24-2.147l-.632.76 26.855 32.225.632-.76zM-7.24 2.147l-.632.759L18.983 35.13l.632-.759zM-7.24 6.44l-.632.76 26.855 32.225.632-.76zM-7.24 10.734l-.632.76 26.855 32.225.632-.76zM-7.24 15.028l-.632.76 26.855 32.224.632-.759zM-7.24 19.322l-.632.759 26.855 32.225.632-.759zM-7.24 23.616l-.632.759L18.983 56.6l.632-.76zM-7.24 27.91l-.632.758 26.855 32.226.632-.76zM-7.24-6.44l-.632.758 26.855 32.226.632-.76zM-7.24-10.734l-.632.759L18.983 22.25l.632-.759zM-7.24-15.028l-.632.759 26.855 32.225.632-.759zM-7.24-19.322l-.632.76 26.855 32.225.632-.76z"/></g><path stroke="#636262" stroke-width=".5" d="M-23.289 128.69h12.881v42.936h-12.88z"/><path d="M358.428 77.067a3.5 3.5 0 013.5 3.5v.796l15.46-.003v17.175l-15.46.003v.79a3.5 3.5 0 01-3.5 3.5H350.4a3.5 3.5 0 01-3.5-3.5v-.788l-115.2.02V81.385l115.2-.02v-.798a3.5 3.5 0 013.5-3.5h8.028z" stroke="#636262" stroke-width=".5" fill="url(#x)" fill-rule="nonzero" transform="translate(-242.327 59.99)"/><g stroke-width=".5"><path d="M12.881 0h10.735v71.92H12.88c0-11.45-1.431-17.175-4.294-17.175H0v-34.35h8.587c2.863 0 4.294-6.798 4.294-20.395z" stroke="#636262" fill="url(#y)" fill-rule="nonzero" transform="translate(53.378 113.44)"/><path stroke="#636262" fill-opacity=".04" fill="#000" opacity=".5" d="M66.26 135.983h10.733v12.88H66.26zM66.26 148.864h10.733v12.88H66.26z"/><path stroke="#636262" fill-opacity=".06" fill="#000" opacity=".5" d="M66.26 127.396h10.733v8.587H66.26zM66.26 161.746h10.733v8.587H66.26z"/><path stroke="#636262" fill-opacity=".08" fill="#000" opacity=".5" d="M66.26 120.955h10.733v6.44H66.26zM66.26 170.333h10.733v6.44H66.26z"/><path stroke="#636262" fill-opacity=".104" fill="#000" opacity=".5" d="M66.26 116.66h10.733v4.295H66.26z"/><path stroke="#636262" fill-opacity=".1" fill="#000" opacity=".7" d="M66.26 176.774h10.733v5.367H66.26z"/><path stroke="url(#z)" stroke-linecap="square" d="M2.147 54.745v-34.35M4.294 54.745v-34.35M6.441 54.745v-34.35" transform="translate(53.378 113.44)"/><path stroke="url(#A)" stroke-linecap="square" d="M8.587 54.745v-34.35" transform="translate(53.378 113.44)"/></g><path d="M119.119 137.056v8.588h-4.294v-8.588h4.294zm-10.735 0v8.588h-4.293v-8.588h4.293zM119.119 162.819v-8.588h-4.294v8.588h4.294zm-10.735 0v-8.588h-4.293v8.588h4.293zM20.674 139.203h10.734v6.44H20.674zM20.674 154.23h10.734v6.442H20.674zM84.769 139.203h10.734v6.44H84.769zM84.769 154.23h10.734v6.442H84.769z" fill="#004C97"/></g></g><g stroke="#B36D49" stroke-linecap="square" stroke-width="1.5"><path d="M119.9 166.922l-8.728 6.5-8.728-6.5M111.5 328.75v-155"/></g><path stroke="#B36D49" stroke-width="1.5" stroke-linecap="square" d="M358 161.75h64v91h-76l.5-79"/><path fill="#B36D49" d="M417 214.043h10.142l-5.07-7.071zM107.142 21.821H97l5.071 7.071z"/><g transform="matrix(1 0 0 -1 222.49 267.26)"><mask id="G" fill="#fff"><use xlink:href="#E"/></mask><path d="M23.426-6.75c.212.882.324 1.803.324 2.75 0 3.245-1.315 6.182-3.441 8.308A11.713 11.713 0 0112 7.75a11.713 11.713 0 01-8.309-3.442A11.713 11.713 0 01.25-4c0-.947.112-1.868.324-2.75h0z" stroke="#2C405A" stroke-width=".5" fill="url(#F)" fill-rule="nonzero" mask="url(#G)"/></g><path d="M24.529 3.073l6.64 6.64-11.223 4.582 4.583-11.222z" stroke="#2C405A" stroke-width=".5" fill="url(#H)" fill-rule="nonzero" transform="scale(1 -1) rotate(45 475.36 129.258)"/><path d="M8.039 3.073l6.64 6.64-11.223 4.582L8.04 3.073z" stroke="#2C405A" stroke-width=".5" fill="url(#H)" fill-rule="nonzero" transform="rotate(-135 172.52 96.433)"/><path fill="#A1A9B4" d="M233.99 274.25v-7h1v7z"/><path fill="#B36D49" d="M351.364 120.043h-10.142l5.07-7.071zM351.364 213.821h-10.142l5.07-7.071zM239.142 245.821H229l5.071 7.071zM116.642 308.821H106.5l5.071 7.071zM201.142 308.821H191l5.071 7.071z"/><path d="M275 328.25l.212-5.836m.17-18.232l.118-29.71M196 328.25l.5-53.778" stroke="#B36D49" stroke-width="1.5" stroke-linecap="square"/><path fill="#193D59" d="M342 228.75h8v9h-8z"/><path fill="#A1A9B4" fill-rule="nonzero" d="M341 228.75h10v1.5h-10zM341 236.25h10v1.5h-10zM341 232.45h4v1.5h-4zM347 232.45h4v1.5h-4z"/><path d="M346.75 328.75l-.149-5.939m-.144-20.19l-.207-50.871" stroke="#B36D49" stroke-width="1.5" stroke-linecap="square"/><g fill="#FFF" opacity=".5"><path d="M74 401.75h-7v1h7zM74 392.75h-7v1h7zM74 384.75h-7v1h7zM74 376.75h-7v1h7zM74 367.75h-7v1h7zM74 359.75h-7v1h7zM74 351.75h-7v1h7zM74 342.75h-7v1h7z"/></g><path d="M403.165 328c4.635 0 9.057 1.348 12.806 3.748a23.729 23.729 0 018.764 10.062c4.676 10.147 7.015 20.293 7.015 30.44 0 10.147-2.339 20.293-7.015 30.44a23.729 23.729 0 01-8.764 10.062 23.728 23.728 0 01-12.31 3.743l-.496.005H40.835a23.729 23.729 0 01-12.806-3.748 23.729 23.729 0 01-8.764-10.062c-4.676-10.147-7.015-20.293-7.015-30.44 0-10.147 2.339-20.293 7.015-30.44a23.729 23.729 0 018.764-10.062 23.728 23.728 0 0112.31-3.743l.496-.005h362.33zM375 335.012h-3l-.244.007c-1.051.06-2 .503-2.711 1.214-.752.752-1.24 1.804-1.295 3.023h0v67.006l.007.244c.06 1.051.502 2 1.214 2.711.751.752 1.804 1.24 3.023 1.295H375l.244-.007c1.051-.06 2-.502 2.711-1.214.752-.751 1.24-1.804 1.295-3.023h0v-67.006l-.006-.233a4.236 4.236 0 00-1.239-2.772 4.237 4.237 0 00-3.005-1.245h0z" stroke="#2C405A" stroke-width=".5" fill="url(#I)" fill-rule="nonzero" transform="matrix(-1 0 0 1 444 0)"/><path d="M49.073 413.874c.41-.256.884-.321 1.32-.22a1.745 1.745 0 011.357 1.704h0v10.784c0 .483-.196.92-.513 1.237a1.745 1.745 0 01-2.164.247h0l-4-2.5a1.75 1.75 0 01-.823-1.484h0v-5.784c0-.603.31-1.164.823-1.484h0z" stroke="#2C405A" stroke-width=".5" fill="url(#J)" fill-rule="nonzero" transform="rotate(90 48 420.75)"/><path d="M407.073 413.874c.41-.256.884-.321 1.32-.22a1.745 1.745 0 011.357 1.704h0v10.784c0 .483-.196.92-.513 1.237a1.745 1.745 0 01-2.164.247h0l-4-2.5a1.75 1.75 0 01-.823-1.484h0v-5.784c0-.603.31-1.164.823-1.484h0z" stroke="#2C405A" stroke-width=".5" fill="url(#J)" fill-rule="nonzero" transform="rotate(90 406 420.75)"/><g transform="matrix(-1 0 0 1 38 310.75)"><path stroke="#FFF" opacity=".5" d="M.5 4.5H33"/><circle fill="#62B5E5" transform="rotate(-90 19.5 4.5)" cx="19.5" cy="4.5" r="4.5"/><circle fill="#EF3340" transform="rotate(-90 31.5 4.5)" cx="31.5" cy="4.5" r="2.5"/></g><path stroke="#FFF" opacity=".5" d="M38 328.25v-13.5"/><path stroke="#2C405A" stroke-width=".5" fill="url(#K)" fill-rule="nonzero" d="M44.25 328h7.5v88.5h-7.5zM402.25 328h7.5v88.5h-7.5z"/><path d="M29.769 366.75l5.092 9.817 2.059-3.326H44v1l-6.799-.001-2.34 4.51-5.092-9.817-5.093 9.817-5.093-9.817-5.092 9.817-5.093-9.817-2.599 5.01-.06-.029-.164.327H0v-1l6.03-.001 3.368-6.49 5.093 9.817 5.092-9.817 5.093 9.817 5.093-9.817z" fill="#848D99" fill-rule="nonzero" stroke="#828E9A" stroke-width=".5"/><g fill-rule="nonzero" transform="rotate(90 318.5 372.25)"><use fill="url(#L)" xlink:href="#M"/><use fill="#000" filter="url(#N)" xlink:href="#M"/></g><g fill-rule="nonzero" transform="rotate(90 318.5 372.25)"><use fill="#000" filter="url(#O)" xlink:href="#P"/><use fill="url(#Q)" xlink:href="#P"/></g><path d="M427.5 372.25c0 20.777-16.675 37.66-37.372 37.995l-.628.005h-142c-20.987 0-38-17.013-38-38 0-20.777 16.675-37.66 37.372-37.995l.628-.005h142c20.987 0 38 17.013 38 38zm-.5 0c0-20.504-16.455-37.164-36.88-37.495l-.62-.005h-142l-.62.005c-20.22.328-36.55 16.66-36.875 36.881l-.005.614.005.62c.328 20.22 16.66 36.55 36.881 36.875l.614.005h142l.62-.005c20.425-.331 36.88-16.991 36.88-37.495z" fill="#7F7F7F" fill-rule="nonzero"/><g fill-rule="nonzero"><g transform="rotate(90 -98.125 271.625)"><use fill="url(#R)" xlink:href="#S"/><use fill="#000" filter="url(#T)" xlink:href="#S"/></g><g transform="rotate(90 -98.125 271.625)"><use fill="#000" filter="url(#U)" xlink:href="#V"/><use fill="url(#W)" xlink:href="#V"/></g><path d="M194 399.75a9.5 9.5 0 01-9.23 9.496l-.27.004h-41a9.5 9.5 0 01-.27-18.996l.27-.004h41a9.5 9.5 0 019.5 9.5zm-.5 0a9 9 0 00-8.735-8.996l-.265-.004h-41l-.265.004a9 9 0 00-8.731 8.73l-.004.266.004.265a9 9 0 008.73 8.731l.266.004h41l.265-.004a9 9 0 008.735-8.996z" fill="#7F7F7F"/></g><g transform="translate(126 352.75)"><mask id="aa" fill="#fff"><use xlink:href="#X"/></mask><g fill-rule="nonzero"><use fill="url(#Y)" xlink:href="#X"/><use fill="#000" filter="url(#Z)" xlink:href="#X"/></g><g fill-rule="nonzero" mask="url(#aa)"><use fill="url(#ab)" xlink:href="#ac"/><use fill="#000" filter="url(#ad)" xlink:href="#ac"/></g></g><g fill-rule="nonzero"><g transform="translate(124 350.75)"><use fill="#000" filter="url(#ae)" xlink:href="#af"/><use fill="url(#ag)" xlink:href="#af"/></g><path d="M181.5 351.25c11.598 0 21 9.402 21 21 0 11.48-9.213 20.81-20.65 20.997l-.35.003h-36c-11.598 0-21-9.402-21-21 0-11.48 9.213-20.81 20.65-20.997l.35-.003h36zm0 .5h-36l-.346.003c-11.162.185-20.154 9.29-20.154 20.497 0 11.206 8.992 20.312 20.154 20.497l.346.003h36l.346-.003c11.162-.185 20.154-9.29 20.154-20.497 0-11.206-8.992-20.312-20.154-20.497l-.346-.003z" fill="#7F7F7F"/></g><circle fill="#B36D49" cx="275.5" cy="393.25" r="2.5"/><circle fill="#B36D49" cx="347.5" cy="393.25" r="2.5"/><circle fill="#B36D49" cx="411.5" cy="393.25" r="2.5"/><path d="M411.5 328.75v-43.5m0 0v-9.5" stroke="#B36D49" stroke-width="1.5" stroke-linecap="square"/><path fill="#193D59" d="M342 285.75h8v9h-8z"/><path fill="#A1A9B4" fill-rule="nonzero" d="M341 285.75h10v1.5h-10zM341 293.25h10v1.5h-10z"/><path d="M341.696 288.147l.607-.795 8.365 6.383.157.135-.629.777-8.5-6.5zm.804-.897l8.5 6.5-.5.5-.325.38-.136-.118-8.342-6.364.803-.898z" fill="#A1A9B4" fill-rule="nonzero"/><path fill="#A1A9B4" fill-rule="nonzero" d="M341 286.75h3l-3 3z"/><path fill="#193D59" d="M271 285.75h8v9h-8z"/><path fill="#A1A9B4" fill-rule="nonzero" d="M270 285.75h10v1.5h-10zM270 293.25h10v1.5h-10z"/><path d="M270.696 288.147l.607-.795 8.365 6.383.157.135-.629.777-8.5-6.5zm.804-.897l8.5 6.5-.5.5-.325.38-.136-.118-8.342-6.364.803-.898z" fill="#A1A9B4" fill-rule="nonzero"/><path fill="#A1A9B4" fill-rule="nonzero" d="M270 286.75h3l-3 3z"/><g><path fill="#193D59" d="M407 285.75h8v9h-8z"/><path fill="#A1A9B4" fill-rule="nonzero" d="M406 285.75h10v1.5h-10zM406 293.25h10v1.5h-10z"/><path d="M406.696 288.147l.607-.795 8.365 6.383.157.135-.629.777-8.5-6.5zm.804-.897l8.5 6.5-.5.5-.325.38-.136-.118-8.342-6.364.803-.898z" fill="#A1A9B4" fill-rule="nonzero"/><path fill="#A1A9B4" fill-rule="nonzero" d="M406 286.75h3l-3 3z"/></g><path stroke="#B36D49" stroke-width="1.5" stroke-linecap="square" d="M345.5.25l-243 .5M111 210.75H38.5l-.5-48M38 140.75v-44h86v41.222"/><path d="M234.5 246.25l-.097-245" stroke="#B36D49" stroke-width="1.5" stroke-linecap="square" stroke-dasharray="2,3"/><path d="M346.5 92.25v86.5M345.5.75v10" stroke="#B36D49" stroke-width="1.5" stroke-linecap="square"/><g transform="translate(376 136.75)"><path fill="#FFF" fill-rule="nonzero" opacity=".5" d="M83 29.318h-3.233l1.485-1.485-.377-.375-2.125 2.125 2.125 2.125.375-.374-1.483-1.485H83z"/><rect fill="url(#ah)" fill-rule="nonzero" x="1" y="7" width="87" height="40" rx="4"/><g transform="translate(1)"><mask id="ak" fill="#fff"><use xlink:href="#ai"/></mask><use fill="url(#aj)" fill-rule="nonzero" xlink:href="#ai"/><g opacity=".603"><g opacity=".148" mask="url(#ak)" stroke="#FFF" stroke-linecap="square" stroke-width=".5"><path d="M-256 87l427.5-428.5M-256 90l427.5-428.5M-256 93l427.5-428.5M-256 96l427.5-428.5M-256 99l427.5-428.5M-256 102l427.5-428.5M-256 105l427.5-428.5M-256 108l427.5-428.5M-256 111l427.5-428.5M-256 114l427.5-428.5M-256 117l427.5-428.5M-256 120l427.5-428.5M-256 123l427.5-428.5M-256 126l427.5-428.5M-256 129l427.5-428.5M-256 132l427.5-428.5M-256 135l427.5-428.5M-256 138l427.5-428.5M-256 141l427.5-428.5M-256 144l427.5-428.5M-256 147l427.5-428.5M-256 150l427.5-428.5M-256 153l427.5-428.5M-256 156l427.5-428.5M-256 159l427.5-428.5M-256 162l427.5-428.5M-256 165l427.5-428.5M-256 168l427.5-428.5M-256 171l427.5-428.5M-256 174l427.5-428.5M-256 177l427.5-428.5M-256 180l427.5-428.5M-256 183l427.5-428.5M-256 186l427.5-428.5M-256 189l427.5-428.5M-256 192l427.5-428.5M-256 195l427.5-428.5M-256 198l427.5-428.5M-256 201l427.5-428.5M-256 204l427.5-428.5M-256 207l427.5-428.5M-256 210l427.5-428.5M-256 213l427.5-428.5M-256 216l427.5-428.5M-256 219l427.5-428.5M-256 222l427.5-428.5M-256 225l427.5-428.5M-256 228l427.5-428.5M-256 231l427.5-428.5M-256 234l427.5-428.5M-256 237l427.5-428.5M-256 240l427.5-428.5M-256 243l427.5-428.5M-256 246l427.5-428.5M-256 249l427.5-428.5M-256 252l427.5-428.5M-256 255l427.5-428.5M-256 258l427.5-428.5M-256 261l427.5-428.5M-256 264l427.5-428.5M-256 267l427.5-428.5M-256 270l427.5-428.5M-256 273l427.5-428.5M-256 276l427.5-428.5M-256 279l427.5-428.5M-256 282l427.5-428.5M-256 285l427.5-428.5M-256 288l427.5-428.5M-256 291l427.5-428.5M-256 294l427.5-428.5M-256 297l427.5-428.5M-256 300l427.5-428.5M-256 303l427.5-428.5M-256 306l427.5-428.5M-256 309l427.5-428.5M-256 312l427.5-428.5M-256 315l427.5-428.5M-256 318l427.5-428.5M-256 321l427.5-428.5M-256 324l427.5-428.5M-256 327l427.5-428.5M-256 330L171.5-98.5M-256 333L171.5-95.5M-256 336L171.5-92.5M-256 339L171.5-89.5M-256 342L171.5-86.5M-256 345L171.5-83.5M-256 348L171.5-80.5M-256 351L171.5-77.5M-256 354L171.5-74.5M-256 357L171.5-71.5M-256 360L171.5-68.5M-256 363L171.5-65.5M-256 366L171.5-62.5M-256 369L171.5-59.5M-256 372L171.5-56.5M-256 375L171.5-53.5M-256 378L171.5-50.5M-256 381L171.5-47.5M-256 384L171.5-44.5M-256 387L171.5-41.5M-256 390L171.5-38.5M-256 393L171.5-35.5M-256 396L171.5-32.5M-256 399L171.5-29.5M-256 402L171.5-26.5M-256 405L171.5-23.5M-256 408L171.5-20.5M-256 411L171.5-17.5M-256 414L171.5-14.5M-256 417L171.5-11.5M-256 420L171.5-8.5M-256 423L171.5-5.5M-256 426L171.5-2.5M-256 429L171.5.5M-256 432L171.5 3.5M-256 435L171.5 6.5M-256 438L171.5 9.5M-256 441L171.5 12.5M-256 444L171.5 15.5M-256 447L171.5 18.5M-256 450L171.5 21.5M-256 453L171.5 24.5M-256 456L171.5 27.5M-256 459L171.5 30.5M-256 462L171.5 33.5M-256 465L171.5 36.5M-256 468L171.5 39.5M-256 471L171.5 42.5M-256 474L171.5 45.5M-256 477L171.5 48.5M-256 480L171.5 51.5M-256 483L171.5 54.5M-256 486L171.5 57.5M-256 489L171.5 60.5M-256 492L171.5 63.5M-256 495L171.5 66.5M-256 498L171.5 69.5M-256 501L171.5 72.5M-256 504L171.5 75.5M-256 507L171.5 78.5M-256 510L171.5 81.5M-256 513L171.5 84.5M-256 516L171.5 87.5"/></g></g></g><path d="M107 0H5a5 5 0 00-5 5v39a5 5 0 005 5h102a5 5 0 005-5V5a5 5 0 00-5-5zM5 2h102a3 3 0 013 3v39a3 3 0 01-3 3H5a3 3 0 01-3-3V5a3 3 0 013-3z" fill="url(#al)" fill-rule="nonzero"/></g><path stroke="#B36D49" stroke-width="1.5" stroke-linecap="square" stroke-dasharray="2,3" d="M337.5 138.75v16M337.5 138.25h8.5"/><path stroke="#B36D49" stroke-width="1.5" stroke-linecap="square" d="M102.5 140.75v-139M411.5 274.25h-165m-24 0h-26"/><g><path d="M24.529 11.073l6.64 6.64-11.223 4.582 4.583-11.222z" stroke="#2C405A" stroke-width=".5" fill="url(#H)" fill-rule="nonzero" transform="scale(-1 1) rotate(-45 4.755 534.673)"/><path d="M16.615 3.576l6.64 6.64-11.223 4.583 4.583-11.223z" stroke="#2C405A" stroke-width=".5" fill="url(#H)" fill-rule="nonzero" transform="scale(1 -1) rotate(45 392.155 330.186)"/><path d="M8.039 11.073l6.64 6.64-11.223 4.582L8.04 11.073z" stroke="#2C405A" stroke-width=".5" fill="url(#H)" fill-rule="nonzero" transform="rotate(135 146.144 163.39)"/><path fill="#A1A9B4" d="M346.5 162.25h-18v-1h18z"/><g transform="matrix(0 -1 -1 0 330.01 173.76)"><mask id="ap" fill="#fff"><use xlink:href="#an"/></mask><path d="M23.426-6.75c.212.882.324 1.803.324 2.75 0 3.245-1.315 6.182-3.441 8.308A11.713 11.713 0 0112 7.75a11.713 11.713 0 01-8.309-3.442A11.713 11.713 0 01.25-4c0-.947.112-1.868.324-2.75h0z" stroke="#2C405A" stroke-width=".5" fill="url(#ao)" fill-rule="nonzero" mask="url(#ap)"/></g><path stroke="#A1A9B4" stroke-linecap="square" d="M335 156.75h6v5h-6z"/></g><path stroke="#B36D49" stroke-width="1.5" stroke-linecap="square" d="M411.5 390.75v-45M347.5 390.75v-52M275.5 390.75v-52"/><g><path stroke="#FFF" opacity=".5" d="M369 22.75h24v57h-24"/><circle transform="matrix(0 -1 1 0 389 52.75)" cx="4.5" cy="4.5" r="4.5" fill="#62B5E5"/></g><path fill="#E8EBEE" fill-rule="nonzero" opacity=".9" d="M394.223 62.75v-1.869H396V59.62h-1.777V57.75h-1.446v1.869H391v1.262h1.777v1.869z"/><g><path d="M333 79.75h-10v-4m0-13v-40h10m24.5 0H368v40m0 13v4h-10.5" stroke="#B36D49" stroke-width="1.5" stroke-linecap="square"/><g transform="translate(310 32.75)"><g transform="translate(.525 .525)"><mask id="ar" fill="#fff"><use xlink:href="#aq"/></mask><use fill="#FFF" xlink:href="#aq"/><g mask="url(#ar)" fill="#B36D49"><path d="M35.71-31.65l.743.742-87.61 87.611-.743-.742L35.71-31.65zm6.138 0l.742.742-87.61 87.611-.743-.742 87.61-87.611zm6.3 0l.742.742-87.61 87.611-.743-.742 87.61-87.611zm6.3 0l.742.742-87.61 87.611-.743-.742 87.61-87.611zm6.3 0l.742.742-87.61 87.611-.743-.742 87.61-87.611zm6.3 0l.742.742-87.61 87.611-.743-.742 87.61-87.611zm6.3 0l.742.742-87.61 87.611-.743-.742 87.61-87.611zm6.3 0l.742.742-87.61 87.611-.743-.742 87.61-87.611zm6.3 0l.742.742L-.92 56.703l-.743-.742 87.61-87.611z"/><path d="M-.92-31.65l-.743.742 87.61 87.611.743-.742L-.92-31.65zm-6.138 0l-.742.742 87.61 87.611.743-.742-87.61-87.611zm-6.3 0l-.742.742 87.61 87.611.743-.742-87.61-87.611zm-6.3 0l-.742.742 87.61 87.611.743-.742-87.61-87.611zm-6.3 0l-.742.742 87.61 87.611.743-.742-87.61-87.611zm-6.3 0l-.742.742 87.61 87.611.743-.742-87.61-87.611zm-6.3 0l-.742.742 87.61 87.611.743-.742-87.61-87.611zm-6.3 0l-.742.742 87.61 87.611.743-.742-87.61-87.611zm-6.3 0l-.742.742 87.61 87.611.743-.742-87.61-87.611z"/></g></g><circle stroke="#B36D49" stroke-width="1.5" cx="13" cy="13" r="13"/></g><g transform="translate(355 32.75)"><g transform="translate(.525 .525)"><mask id="at" fill="#fff"><use xlink:href="#as"/></mask><use fill="#FFF" xlink:href="#as"/><g mask="url(#at)" fill="#B36D49"><path d="M35.71-31.65l.743.742-87.61 87.611-.743-.742L35.71-31.65zm6.138 0l.742.742-87.61 87.611-.743-.742 87.61-87.611zm6.3 0l.742.742-87.61 87.611-.743-.742 87.61-87.611zm6.3 0l.742.742-87.61 87.611-.743-.742 87.61-87.611zm6.3 0l.742.742-87.61 87.611-.743-.742 87.61-87.611zm6.3 0l.742.742-87.61 87.611-.743-.742 87.61-87.611zm6.3 0l.742.742-87.61 87.611-.743-.742 87.61-87.611zm6.3 0l.742.742-87.61 87.611-.743-.742 87.61-87.611zm6.3 0l.742.742L-.92 56.703l-.743-.742 87.61-87.611z"/><path d="M-.92-31.65l-.743.742 87.61 87.611.743-.742L-.92-31.65zm-6.138 0l-.742.742 87.61 87.611.743-.742-87.61-87.611zm-6.3 0l-.742.742 87.61 87.611.743-.742-87.61-87.611zm-6.3 0l-.742.742 87.61 87.611.743-.742-87.61-87.611zm-6.3 0l-.742.742 87.61 87.611.743-.742-87.61-87.611zm-6.3 0l-.742.742 87.61 87.611.743-.742-87.61-87.611zm-6.3 0l-.742.742 87.61 87.611.743-.742-87.61-87.611zm-6.3 0l-.742.742 87.61 87.611.743-.742-87.61-87.611zm-6.3 0l-.742.742 87.61 87.611.743-.742-87.61-87.611z"/></g></g><circle stroke="#B36D49" stroke-width="1.5" cx="13" cy="13" r="13"/></g><g fill-rule="nonzero" stroke="#2C405A" stroke-width=".5"><path d="M8.039 3.073l6.64 6.64-11.223 4.582L8.04 3.073z" fill="url(#H)" transform="scale(-1 1) rotate(45 -251.11 -374.447)"/><path d="M24.039 3.073l6.64 6.64-11.223 4.582L24.04 3.073z" fill="url(#au)" transform="rotate(45 102.95 441.704)"/><path d="M16.039 11.443l6.64 6.64-11.223 4.582 4.583-11.222z" fill="url(#H)" transform="rotate(135 166.7 121.074)"/></g><g fill-rule="nonzero" stroke="#2C405A" stroke-width=".5"><path d="M8.039 3.073l6.64 6.64-11.223 4.582L8.04 3.073z" fill="url(#H)" transform="rotate(-135 176.537 -52.263)"/><path d="M24.039 3.073l6.64 6.64-11.223 4.582L24.04 3.073z" fill="url(#au)" transform="scale(1 -1) rotate(45 227.886 389.954)"/><path d="M16.039 11.443l6.64 6.64-11.223 4.582 4.583-11.222z" fill="url(#H)" transform="scale(-1 1) rotate(-45 -167.362 454.201)"/></g></g></g></svg>