<svg width="482" height="166" xmlns="http://www.w3.org/2000/svg" xmlns:xlink="http://www.w3.org/1999/xlink"><defs><linearGradient x1="50.034%" y1="100%" x2="50.034%" y2="0%" id="a"><stop stop-color="#363D43" offset="0%"/><stop stop-color="#798085" offset="38.975%"/><stop stop-color="#82888D" offset="63.704%"/><stop stop-color="#363D43" offset="100%"/></linearGradient><path d="M476.682 0a4 4 0 014 4v150c0 6.627-5.372 12-12 12h-26.069c-6.627 0-12-5.373-12-12V4a4 4 0 014-4h42.07zM309.991 21l120.613.08v123.84L308.49 145l-15.5-5.5-74.5-3-15.619-16.612H101.536L0 148.215c5.156-20.864 7.788-41.724 7.896-62.58C8.005 64.78 5.373 43.92 0 23.057L101.536 46.11 201 47.355 216.49 30l75.5-3 18-6z" id="b"/></defs><use fill="url(#a)" xlink:href="#b" transform="translate(.01)"/></svg>