<svg width="156" height="183" xmlns="http://www.w3.org/2000/svg" xmlns:xlink="http://www.w3.org/1999/xlink"><defs><linearGradient x1="50.034%" y1="99.984%" x2="50.034%" y2="-.004%" id="c"><stop stop-color="#8B878D" offset="0%"/><stop stop-color="#9F9CA1" offset="13.66%"/><stop stop-color="#D9D8DA" offset="42.07%"/><stop stop-color="#F3F4F4" offset="51.52%"/><stop stop-color="#807B80" offset="100%"/></linearGradient><linearGradient x1="50.034%" y1="99.984%" x2="50.034%" y2="-.004%" id="d"><stop stop-color="#8B878D" offset="0%"/><stop stop-color="#9F9CA1" offset="13.66%"/><stop stop-color="#D9D8DA" offset="42.07%"/><stop stop-color="#F3F4F4" offset="51.52%"/><stop stop-color="#807B80" offset="100%"/></linearGradient><linearGradient x1="50.034%" y1="99.984%" x2="50.034%" y2="-.004%" id="e"><stop stop-color="#8B878D" offset="0%"/><stop stop-color="#9F9CA1" offset="13.66%"/><stop stop-color="#D9D8DA" offset="42.07%"/><stop stop-color="#F3F4F4" offset="51.52%"/><stop stop-color="#807B80" offset="100%"/></linearGradient><linearGradient x1="50%" y1="0%" x2="50%" y2="100%" id="f"><stop stop-color="#636262" stop-opacity=".4" offset="0%"/><stop stop-color="#636262" offset="46.746%"/><stop stop-color="#636262" stop-opacity=".4" offset="100%"/></linearGradient><linearGradient x1="50%" y1="0%" x2="50%" y2="100%" id="g"><stop stop-color="#636262" stop-opacity=".401" offset="0%"/><stop stop-color="#636262" offset="46.746%"/><stop stop-color="#636262" stop-opacity=".4" offset="100%"/></linearGradient><linearGradient x1="50.034%" y1="99.984%" x2="50.034%" y2="-.004%" id="i"><stop stop-color="#8B878D" offset="0%"/><stop stop-color="#9F9CA1" offset="13.66%"/><stop stop-color="#D9D8DA" offset="42.07%"/><stop stop-color="#F3F4F4" offset="51.52%"/><stop stop-color="#807B80" offset="100%"/></linearGradient><path id="a" d="M0 0h156v273H0z"/><path id="h" d="M0 0h12.633v42.109H0z"/><path id="k" d="M0 0h12.633v42.109H0z"/></defs><g transform="translate(0 -45)" fill="none" fill-rule="evenodd"><mask id="b" fill="#fff"><use xlink:href="#a"/></mask><g mask="url(#b)"><path d="M640.749 70.246l6.33 8.381h7.383v-4.19h14.77l-.001 4.19h51.617a4 4 0 014 4v8.763a4 4 0 01-4 4H669.23v4.191h-14.768l-.001-4.191h-7.384l-6.329 8.382h-46.415l-6.33-8.382H459.026a4 4 0 01-4-4v-8.763a4 4 0 014-4h128.978l6.33-8.381h46.415z" stroke="#636262" stroke-width=".5" fill="url(#c)" fill-rule="nonzero" transform="translate(-696.574 49.491)"/><path d="M833.996 73.439a3.5 3.5 0 013.5 3.5v.76l15.078-.003v17.03l-15.078.002v.754a3.5 3.5 0 01-3.5 3.5h-7.657a3.5 3.5 0 01-3.5-3.5l-.001-.752-112.36.02V77.72l112.36-.02v-.761a3.5 3.5 0 013.5-3.5h7.658z" stroke="#636262" stroke-width=".5" fill="url(#d)" fill-rule="nonzero" transform="translate(-696.574 49.491)"/><g stroke-width=".5"><path d="M13.063 0h10.886v70.786H13.063c0-11.27-1.452-16.904-4.354-16.904H0V20.074h8.709c2.902 0 4.354-6.692 4.354-20.074z" stroke="#636262" fill="url(#e)" fill-rule="nonzero" transform="translate(76.17 98.982)"/><path stroke="#636262" fill-opacity=".04" fill="#000" opacity=".5" d="M89.234 121.17h10.886v12.677H89.234zM89.234 133.847h10.886v12.678H89.234z"/><path stroke="#636262" fill-opacity=".06" fill="#000" opacity=".5" d="M89.234 112.717h10.886v8.452H89.234zM89.234 146.525h10.886v8.452H89.234z"/><path stroke="#636262" fill-opacity=".08" fill="#000" opacity=".5" d="M89.234 106.378h10.886v6.34H89.234zM89.234 154.977h10.886v6.34H89.234z"/><path stroke="#636262" fill-opacity=".104" fill="#000" opacity=".5" d="M89.234 102.152h10.886v4.226H89.234z"/><path stroke="#636262" fill-opacity=".1" fill="#000" opacity=".7" d="M89.234 161.316h10.886v5.283H89.234z"/><path stroke="url(#f)" stroke-linecap="square" d="M2.177 53.882V20.074M4.354 53.882V20.074M6.531 53.882V20.074" transform="translate(76.17 98.982)"/><path stroke="url(#g)" stroke-linecap="square" d="M8.709 53.882V20.074" transform="translate(76.17 98.982)"/></g><path d="M141.034 122.93v7.982h-4.105v-7.982h4.105zm-10.264 0v7.982h-4.105v-7.982h4.105zM141.034 148.474v-7.983h-4.105v7.983h4.105zm-10.264 0v-7.983h-4.105v7.983h4.105zM44.24 124.526h11.176v6.386H44.24zM44.24 140.491h11.176v6.386H44.24zM106.506 124.526h11.176v6.386h-11.176zM106.506 140.491h11.176v6.386h-11.176z" fill="#004C97"/><g transform="translate(3.526 114.947)"><mask id="j" fill="#fff"><use xlink:href="#h"/></mask><use fill="url(#i)" fill-rule="nonzero" xlink:href="#h"/><path fill="#7F7F7F" fill-rule="nonzero" mask="url(#j)" transform="matrix(-1 0 0 1 11.517 0)" d="M-7.1-2.105l-.62.744 26.337 31.603.62-.744zM-7.1 2.105l-.62.745 26.337 31.603.62-.744zM-7.1 6.316l-.62.745 26.337 31.603.62-.744zM-7.1 10.527l-.62.745 26.337 31.603.62-.744zM-7.1 14.738l-.62.744 26.337 31.604.62-.744zM-7.1 18.949l-.62.744 26.337 31.604.62-.745zM-7.1 23.16l-.62.744 26.337 31.604.62-.745zM-7.1 27.37l-.62.745L18.617 59.72l.62-.745zM-7.1-6.316l-.62.744 26.337 31.604.62-.745zM-7.1-10.527l-.62.744 26.337 31.604.62-.745zM-7.1-14.738l-.62.744L18.617 17.61l.62-.745zM-7.1-18.949l-.62.744L18.617 13.4l.62-.744z"/></g><path stroke="#636262" stroke-width=".5" d="M3.526 114.947H16.16v42.11H3.526z"/><g><g transform="translate(15.058 114.947)"><mask id="l" fill="#fff"><use xlink:href="#k"/></mask><use fill="url(#i)" fill-rule="nonzero" xlink:href="#k"/><path fill="#7F7F7F" fill-rule="nonzero" mask="url(#l)" transform="matrix(-1 0 0 1 11.517 0)" d="M-7.1-2.105l-.62.744 26.337 31.603.62-.744zM-7.1 2.105l-.62.745 26.337 31.603.62-.744zM-7.1 6.316l-.62.745 26.337 31.603.62-.744zM-7.1 10.527l-.62.745 26.337 31.603.62-.744zM-7.1 14.738l-.62.744 26.337 31.604.62-.744zM-7.1 18.949l-.62.744 26.337 31.604.62-.745zM-7.1 23.16l-.62.744 26.337 31.604.62-.745zM-7.1 27.37l-.62.745L18.617 59.72l.62-.745zM-7.1-6.316l-.62.744 26.337 31.604.62-.745zM-7.1-10.527l-.62.744 26.337 31.604.62-.745zM-7.1-14.738l-.62.744L18.617 17.61l.62-.745zM-7.1-18.949l-.62.744L18.617 13.4l.62-.744z"/></g><path stroke="#636262" stroke-width=".5" d="M15.058 114.947H27.69v42.11H15.058z"/></g></g></g></svg>