<svg xmlns="http://www.w3.org/2000/svg" xmlns:xlink="http://www.w3.org/1999/xlink" width="242" height="485"><defs><linearGradient id="j" x1="50.034%" x2="50.034%" y1="99.725%" y2="-.004%"><stop offset="0%" stop-color="#656266"/><stop offset="49.427%" stop-color="#F3F4F4"/><stop offset="100%" stop-color="#807B80"/></linearGradient><linearGradient id="x" x1="50.034%" x2="50.034%" y1="99.725%" y2="-.004%"><stop offset="0%" stop-color="#656266"/><stop offset="13.66%" stop-color="#9F9CA1"/><stop offset="42.07%" stop-color="#D9D8DA"/><stop offset="51.52%" stop-color="#F3F4F4"/><stop offset="100%" stop-color="#807B80"/></linearGradient><linearGradient id="d" x1="50.034%" x2="50.034%" y1="99.725%" y2="-.004%"><stop offset="0%" stop-color="#656266"/><stop offset="13.66%" stop-color="#9F9CA1"/><stop offset="42.07%" stop-color="#D9D8DA"/><stop offset="51.52%" stop-color="#F3F4F4"/><stop offset="100%" stop-color="#807B80"/></linearGradient><linearGradient id="f" x1="50.034%" x2="50.034%" y1="99.984%" y2="-.004%"><stop offset="0%" stop-color="#8B878D"/><stop offset="13.66%" stop-color="#9F9CA1"/><stop offset="42.07%" stop-color="#D9D8DA"/><stop offset="51.52%" stop-color="#F3F4F4"/><stop offset="100%" stop-color="#807B80"/></linearGradient><linearGradient id="i" x1="50.034%" x2="50.034%" y1="99.725%" y2="-.004%"><stop offset="0%" stop-color="#656266"/><stop offset="13.66%" stop-color="#9F9CA1"/><stop offset="42.07%" stop-color="#D9D8DA"/><stop offset="51.52%" stop-color="#F3F4F4"/><stop offset="100%" stop-color="#807B80"/></linearGradient><linearGradient id="c" x1="50.034%" x2="50.034%" y1="99.725%" y2="-.004%"><stop offset="0%" stop-color="#656266"/><stop offset="13.66%" stop-color="#9F9CA1"/><stop offset="42.07%" stop-color="#D9D8DA"/><stop offset="51.52%" stop-color="#F3F4F4"/><stop offset="100%" stop-color="#807B80"/></linearGradient><linearGradient id="k" x1="50.034%" x2="50.034%" y1="100%" y2="0%"><stop offset="0%" stop-color="#363D43"/><stop offset="49.388%" stop-color="#798085"/><stop offset="100%" stop-color="#363D43"/></linearGradient><linearGradient id="b" x1="50.034%" x2="50.034%" y1="99.725%" y2="-.004%"><stop offset="0%" stop-color="#656266"/><stop offset="13.66%" stop-color="#9F9CA1"/><stop offset="42.07%" stop-color="#D9D8DA"/><stop offset="51.52%" stop-color="#F3F4F4"/><stop offset="100%" stop-color="#807B80"/></linearGradient><linearGradient id="n" x1="50.034%" x2="50.034%" y1="99.984%" y2="-.004%"><stop offset="0%" stop-color="#212F42"/><stop offset="13.66%" stop-color="#004C97"/><stop offset="42.07%" stop-color="#004C97"/><stop offset="51.52%" stop-color="#004C97"/><stop offset="100%" stop-color="#213042"/></linearGradient><linearGradient id="u" x1="50.034%" x2="50.034%" y1="88.585%" y2="9.638%"><stop offset="0%" stop-color="#363D43"/><stop offset="49.169%" stop-color="#73797E"/><stop offset="100%" stop-color="#363D43"/></linearGradient><linearGradient id="s" x1=".453%" x2="99.615%" y1="50.403%" y2="50.403%"><stop offset="0%" stop-color="#AFACB1"/><stop offset="28.499%" stop-color="#BAB9BC"/><stop offset="42.07%" stop-color="#D9D8DA"/><stop offset="58.437%" stop-color="#F3F4F4"/><stop offset="100%" stop-color="#958F95"/></linearGradient><filter id="h" width="323.3%" height="153.6%" x="-111.7%" y="-26.8%" filterUnits="objectBoundingBox"><feOffset dy="3" in="SourceAlpha" result="shadowOffsetOuter1"/><feGaussianBlur in="shadowOffsetOuter1" result="shadowBlurOuter1" stdDeviation="7"/><feColorMatrix in="shadowBlurOuter1" result="shadowMatrixOuter1" values="0 0 0 0 0 0 0 0 0 0 0 0 0 0 0 0 0 0 0.265461101 0"/><feMerge><feMergeNode in="shadowMatrixOuter1"/><feMergeNode in="SourceGraphic"/></feMerge></filter><filter id="m" width="108.5%" height="108.2%" x="-4.2%" y="-4.1%" filterUnits="objectBoundingBox"><feGaussianBlur in="SourceAlpha" result="shadowBlurInner1" stdDeviation="4.5"/><feOffset dy="1" in="shadowBlurInner1" result="shadowOffsetInner1"/><feComposite in="shadowOffsetInner1" in2="SourceAlpha" k2="-1" k3="1" operator="arithmetic" result="shadowInnerInner1"/><feColorMatrix in="shadowInnerInner1" values="0 0 0 0 0 0 0 0 0 0 0 0 0 0 0 0 0 0 0.301737325 0"/></filter><filter id="a" width="141.4%" height="157.3%" x="-20.7%" y="-28.6%" filterUnits="objectBoundingBox"><feGaussianBlur in="SourceGraphic" stdDeviation="16"/></filter><filter id="v" width="136%" height="111.2%" x="-18%" y="-5.6%" filterUnits="objectBoundingBox"><feGaussianBlur in="SourceAlpha" result="shadowBlurInner1" stdDeviation="4"/><feOffset dy="1" in="shadowBlurInner1" result="shadowOffsetInner1"/><feComposite in="shadowOffsetInner1" in2="SourceAlpha" k2="-1" k3="1" operator="arithmetic" result="shadowInnerInner1"/><feColorMatrix in="shadowInnerInner1" values="0 0 0 0 0 0 0 0 0 0 0 0 0 0 0 0 0 0 0.26685424 0"/></filter><filter id="p" width="140%" height="140%" x="-20%" y="-20%" filterUnits="objectBoundingBox"><feGaussianBlur in="SourceAlpha" result="shadowBlurInner1" stdDeviation="1.5"/><feOffset dy="1" in="shadowBlurInner1" result="shadowOffsetInner1"/><feComposite in="shadowOffsetInner1" in2="SourceAlpha" k2="-1" k3="1" operator="arithmetic" result="shadowInnerInner1"/><feColorMatrix in="shadowInnerInner1" values="0 0 0 0 0 0 0 0 0 0 0 0 0 0 0 0 0 0 0.5 0"/></filter><filter id="g" width="140%" height="140%" x="-20%" y="-20%" filterUnits="objectBoundingBox"><feGaussianBlur in="SourceAlpha" result="shadowBlurInner1" stdDeviation="1.5"/><feOffset dy="1" in="shadowBlurInner1" result="shadowOffsetInner1"/><feComposite in="shadowOffsetInner1" in2="SourceAlpha" k2="-1" k3="1" operator="arithmetic" result="shadowInnerInner1"/><feColorMatrix in="shadowInnerInner1" values="0 0 0 0 0 0 0 0 0 0 0 0 0 0 0 0 0 0 0.5 0"/></filter><filter id="q" width="116.7%" height="117.7%" x="-9.2%" y="-8%" filterUnits="objectBoundingBox"><feMorphology in="SourceAlpha" operator="dilate" radius=".5" result="shadowSpreadOuter1"/><feOffset dx="-1" dy="1" in="shadowSpreadOuter1" result="shadowOffsetOuter1"/><feGaussianBlur in="shadowOffsetOuter1" result="shadowBlurOuter1" stdDeviation="3"/><feComposite in="shadowBlurOuter1" in2="SourceAlpha" operator="out" result="shadowBlurOuter1"/><feColorMatrix in="shadowBlurOuter1" values="0 0 0 0 0 0 0 0 0 0 0 0 0 0 0 0 0 0 0.230550699 0"/></filter><path id="r" d="M142.476 216.424l.018.243.006.244v103.16a5 5 0 01-5.508 4.974l-110-11.237a5 5 0 01-4.492-4.974v-81.155a5 5 0 014.513-4.976l110-10.769a5 5 0 015.463 4.49zm-2.013.02a3 3 0 00-3.255-2.519l-110 10.768a3 3 0 00-2.708 2.986v81.155a3 3 0 002.695 2.984l110 11.237a3 3 0 003.305-2.984V216.91l-.004-.147-.01-.146-.023-.175z"/><path id="o" d="M84 401.5l-.884.884 3.49 3.491H79v1.25h7.606l-3.49 3.49.884.885 5-5z"/><path id="t" d="M4.096 0H21a4 4 0 014 4v72a4 4 0 01-4 4H4.005a4 4 0 01-4-4.005l.09-72a4 4 0 014-3.995z"/><path id="e" d="M83 37.5l-.884.884 3.49 3.491H78v1.25h7.606l-3.49 3.49.884.885 5-5z"/><path id="l" d="M26.86 224.198l110-10.768a4 4 0 014.39 3.98v103.16a4 4 0 01-4.406 3.98l-110-11.237a4 4 0 01-3.594-3.979v-81.155a4 4 0 013.61-3.98z"/></defs><g fill="none" fill-rule="evenodd"><path fill="#000" fill-rule="nonzero" d="M-29.419 190.535l224-23.57a4 4 0 014.419 3.978v157.114a4 4 0 01-4.419 3.978l-224-23.57A4 4 0 01-33 304.487V194.513a4 4 0 013.581-3.978z" filter="url(#a)" opacity=".32" transform="rotate(90 102.25 268.25)"/><path fill="url(#b)" fill-rule="nonzero" d="M-34 34h84v16h-84z" transform="rotate(90 64.5 98.5)"/><path fill="url(#c)" fill-rule="nonzero" d="M68 125.5h30v16H68z" transform="rotate(90 102.25 152.25)"/><path fill="url(#d)" fill-rule="nonzero" stroke="#636262" stroke-width=".5" d="M79.25 136.75h6.5v28.5h-6.5z" transform="rotate(90 101.75 169.75)"/><g fill-rule="nonzero" transform="rotate(-90 101.75 23.25)"><use fill="#FFF" xlink:href="#e"/><use fill="url(#f)" xlink:href="#e"/><use fill="#000" filter="url(#g)" xlink:href="#e"/></g><g fill-rule="nonzero" filter="url(#h)" transform="translate(106 343)"><path fill="url(#i)" d="M-43.5 58h118v16h-118z" transform="rotate(90 15.5 66)"/><path fill="url(#d)" stroke="#636262" stroke-width=".5" d="M11.75-10.75h6.5v28.5h-6.5z" transform="rotate(90 15 3.5)"/></g><path fill="url(#j)" fill-rule="nonzero" stroke="#2C405A" stroke-width=".5" d="M-8.347 200.871a3.75 3.75 0 00-3.357 3.73v88.798a3.75 3.75 0 003.357 3.73l181.909 19.157a3.75 3.75 0 004.142-3.73V185.444a3.75 3.75 0 00-4.142-3.729L-8.347 200.871z" transform="rotate(90 102.25 267.75)"/><g fill-rule="nonzero" transform="rotate(90 101.5 287.75)"><use fill="url(#k)" xlink:href="#l"/><use fill="#000" filter="url(#m)" xlink:href="#l"/></g><path fill="url(#n)" fill-rule="nonzero" d="M78.25 173h13v91h-13a4 4 0 01-4-4v-83a4 4 0 014-4z" transform="rotate(90 102 237.25)"/><g fill-rule="nonzero" transform="rotate(-90 102.75 387.25)"><use fill="#FFF" xlink:href="#o"/><use fill="url(#f)" xlink:href="#o"/><use fill="#000" filter="url(#p)" xlink:href="#o"/></g><g fill-rule="nonzero" transform="rotate(90 101.75 287.24)"><use fill="#000" filter="url(#q)" xlink:href="#r"/><path fill="url(#s)" fill-rule="evenodd" stroke="#7F7F7F" stroke-width=".5" d="M142.725 216.4v.005l.019.256.006.25v103.16a5.25 5.25 0 01-5.784 5.222l-110-11.236a5.25 5.25 0 01-4.716-5.223v-81.155a5.25 5.25 0 014.738-5.225l110-10.768a5.25 5.25 0 015.737 4.713zm-2.51.079a2.75 2.75 0 00-2.983-2.305l-110 10.768a2.75 2.75 0 00-2.482 2.737v81.155a2.75 2.75 0 002.47 2.736l110 11.236a2.75 2.75 0 003.03-2.735V216.917l-.003-.134-.01-.133-.021-.171z"/></g><g transform="rotate(-90 188.75 108.25)"><mask id="w" fill="#fff"><use xlink:href="#t"/></mask><g fill-rule="nonzero"><use fill="url(#u)" xlink:href="#t"/><use fill="#000" filter="url(#v)" xlink:href="#t"/></g><g stroke="#FFF" stroke-linecap="square" stroke-width=".5" mask="url(#w)" opacity=".148"><path d="M-256 88l427.5-428.5M-256 91l427.5-428.5M-256 94l427.5-428.5M-256 97l427.5-428.5M-256 100l427.5-428.5M-256 103l427.5-428.5M-256 106l427.5-428.5M-256 109l427.5-428.5M-256 112l427.5-428.5M-256 115l427.5-428.5M-256 118l427.5-428.5M-256 121l427.5-428.5M-256 124l427.5-428.5M-256 127l427.5-428.5M-256 130l427.5-428.5M-256 133l427.5-428.5M-256 136l427.5-428.5M-256 139l427.5-428.5M-256 142l427.5-428.5M-256 145l427.5-428.5M-256 148l427.5-428.5M-256 151l427.5-428.5M-256 154l427.5-428.5M-256 157l427.5-428.5M-256 160l427.5-428.5M-256 163l427.5-428.5M-256 166l427.5-428.5M-256 169l427.5-428.5M-256 172l427.5-428.5M-256 175l427.5-428.5M-256 178l427.5-428.5M-256 181l427.5-428.5M-256 184l427.5-428.5M-256 187l427.5-428.5M-256 190l427.5-428.5M-256 193l427.5-428.5M-256 196l427.5-428.5M-256 199l427.5-428.5M-256 202l427.5-428.5M-256 205l427.5-428.5M-256 208l427.5-428.5M-256 211l427.5-428.5M-256 214l427.5-428.5M-256 217l427.5-428.5M-256 220l427.5-428.5M-256 223l427.5-428.5M-256 226l427.5-428.5M-256 229l427.5-428.5M-256 232l427.5-428.5M-256 235l427.5-428.5M-256 238l427.5-428.5M-256 241l427.5-428.5M-256 244l427.5-428.5M-256 247l427.5-428.5M-256 250l427.5-428.5M-256 253l427.5-428.5M-256 256l427.5-428.5M-256 259l427.5-428.5M-256 262l427.5-428.5M-256 265l427.5-428.5M-256 268l427.5-428.5M-256 271l427.5-428.5M-256 274l427.5-428.5M-256 277l427.5-428.5M-256 280l427.5-428.5M-256 283l427.5-428.5M-256 286l427.5-428.5M-256 289l427.5-428.5M-256 292l427.5-428.5M-256 295l427.5-428.5M-256 298l427.5-428.5M-256 301l427.5-428.5M-256 304l427.5-428.5M-256 307l427.5-428.5M-256 310l427.5-428.5M-256 313l427.5-428.5M-256 316l427.5-428.5M-256 319l427.5-428.5M-256 322l427.5-428.5M-256 325l427.5-428.5M-256 328l427.5-428.5M-256 331L171.5-97.5M-256 334L171.5-94.5M-256 337L171.5-91.5M-256 340L171.5-88.5M-256 343L171.5-85.5M-256 346L171.5-82.5M-256 349L171.5-79.5M-256 352L171.5-76.5M-256 355L171.5-73.5M-256 358L171.5-70.5M-256 361L171.5-67.5M-256 364L171.5-64.5M-256 367L171.5-61.5M-256 370L171.5-58.5M-256 373L171.5-55.5M-256 376L171.5-52.5M-256 379L171.5-49.5M-256 382L171.5-46.5M-256 385L171.5-43.5M-256 388L171.5-40.5M-256 391L171.5-37.5M-256 394L171.5-34.5M-256 397L171.5-31.5M-256 400L171.5-28.5M-256 403L171.5-25.5M-256 406L171.5-22.5M-256 409L171.5-19.5M-256 412L171.5-16.5M-256 415L171.5-13.5M-256 418L171.5-10.5M-256 421L171.5-7.5M-256 424L171.5-4.5M-256 427L171.5-1.5M-256 430L171.5 1.5M-256 433L171.5 4.5M-256 436L171.5 7.5M-256 439L171.5 10.5M-256 442L171.5 13.5M-256 445L171.5 16.5M-256 448L171.5 19.5M-256 451L171.5 22.5M-256 454L171.5 25.5M-256 457L171.5 28.5M-256 460L171.5 31.5M-256 463L171.5 34.5M-256 466L171.5 37.5M-256 469L171.5 40.5M-256 472L171.5 43.5M-256 475L171.5 46.5M-256 478L171.5 49.5M-256 481L171.5 52.5M-256 484L171.5 55.5M-256 487L171.5 58.5M-256 490L171.5 61.5M-256 493L171.5 64.5M-256 496L171.5 67.5M-256 499L171.5 70.5M-256 502L171.5 73.5M-256 505L171.5 76.5M-256 508L171.5 79.5M-256 511L171.5 82.5M-256 514L171.5 85.5M-256 517L171.5 88.5"/></g></g><path fill="url(#x)" fill-rule="nonzero" stroke="#636262" stroke-width=".5" d="M79.75-3.75h6.5v15.5h-6.5z" transform="rotate(90 102.25 22.75)"/><path fill="url(#x)" fill-rule="nonzero" stroke="#636262" stroke-width=".5" d="M80.25 457.75h6.5v15.5h-6.5z" transform="rotate(90 102.75 484.25)"/></g></svg>