<svg width="113" height="137" xmlns="http://www.w3.org/2000/svg" xmlns:xlink="http://www.w3.org/1999/xlink"><defs><linearGradient x1="50.034%" y1="99.984%" x2="50.034%" y2="-.004%" id="c"><stop stop-color="#8B878D" offset="0%"/><stop stop-color="#9F9CA1" offset="13.66%"/><stop stop-color="#D9D8DA" offset="42.07%"/><stop stop-color="#F3F4F4" offset="51.52%"/><stop stop-color="#807B80" offset="100%"/></linearGradient><linearGradient x1="50.034%" y1="99.984%" x2="50.034%" y2="-.004%" id="d"><stop stop-color="#8B878D" offset="0%"/><stop stop-color="#9F9CA1" offset="13.66%"/><stop stop-color="#D9D8DA" offset="42.07%"/><stop stop-color="#F3F4F4" offset="51.52%"/><stop stop-color="#807B80" offset="100%"/></linearGradient><linearGradient x1="50.034%" y1="93.183%" x2="50.034%" y2="-.004%" id="e"><stop stop-color="#AEAAAD" offset="2.924%"/><stop stop-color="#F3F4F4" offset="51.52%"/><stop stop-color="#AEAAAD" offset="95.769%"/></linearGradient><linearGradient x1="50.034%" y1="99.984%" x2="50.034%" y2="-.004%" id="g"><stop stop-color="#8B878D" offset="0%"/><stop stop-color="#9F9CA1" offset="13.66%"/><stop stop-color="#D9D8DA" offset="42.07%"/><stop stop-color="#F3F4F4" offset="51.52%"/><stop stop-color="#807B80" offset="100%"/></linearGradient><linearGradient x1="50.034%" y1="99.984%" x2="50.034%" y2="-.004%" id="j"><stop stop-color="#8B878D" offset="0%"/><stop stop-color="#9F9CA1" offset="13.66%"/><stop stop-color="#D9D8DA" offset="42.07%"/><stop stop-color="#F3F4F4" offset="51.52%"/><stop stop-color="#807B80" offset="100%"/></linearGradient><linearGradient x1="50.034%" y1="99.984%" x2="50.034%" y2="-.004%" id="n"><stop stop-color="#8B878D" offset="0%"/><stop stop-color="#9F9CA1" offset="13.66%"/><stop stop-color="#D9D8DA" offset="42.07%"/><stop stop-color="#F3F4F4" offset="51.52%"/><stop stop-color="#807B80" offset="100%"/></linearGradient><path id="a" d="M0 0h361v309H0z"/><path id="f" d="M0 0h12.62v42.066H0z"/><path id="i" d="M0 2.103l12.38-.308v25.24L0 27.343z"/><path id="l" d="M0 0h113v309H0z"/><path id="o" d="M0 0h12.62v42.066H0z"/><path id="q" d="M0 2.103l12.38-.308v25.24L0 27.343z"/></defs><g fill="none" fill-rule="evenodd"><g transform="translate(113 -87)"><mask id="b" fill="#fff"><use xlink:href="#a"/></mask><g mask="url(#b)"><path d="M195.48 71.084l6.273 8.363 7.317-.001v-4.18h14.635v4.18h51.113a4 4 0 014 4v8.726a4 4 0 01-4 4h-51.113v4.182H209.07v-4.182h-7.317l-6.273 8.363h-45.995l-6.272-8.363h-26.315a4 4 0 01-4-4v-8.725a4 4 0 014-4h26.315l6.272-8.363h45.995z" transform="translate(-360.015 86.524)" fill="url(#c)" fill-rule="nonzero" stroke="#636262" stroke-width=".5"/><path d="M569.656 63.658V46.832h439.951v-.707a3.5 3.5 0 013.5-3.5h7.723a3.5 3.5 0 013.5 3.5v.706h10.517v16.827h-10.517v.706a3.5 3.5 0 01-3.5 3.5h-7.723a3.5 3.5 0 01-3.5-3.5v-.707H569.656z" stroke="#636262" stroke-width=".5" fill="url(#d)" fill-rule="nonzero" transform="translate(-675.61 86.213)"/><path fill="#004C97" d="M-97.54 130.941h10.516v6.31H-97.54zM-97.54 145.664h10.516v6.31H-97.54zM-57.578 130.941h10.516v6.31h-10.516zM-57.578 145.664h10.516v6.31h-10.516z"/><path d="M0 5.282h74.321l.001-4.206h14.723l-.002 4.206h1.078a7.337 7.337 0 017.337 7.338v2.151a7.337 7.337 0 01-7.337 7.338h-1.078l.002 4.206H74.322v-4.207H0" stroke="#636262" stroke-width=".5" fill="url(#e)" fill-rule="nonzero" transform="translate(-108.764 160.686)"/><path d="M-19.72 161.762v8.413h-4.206v-8.413h4.207zm-10.516 0v8.413h-4.206v-8.413h4.206zM-19.72 178.588v8.414h-4.206v-8.414h4.207zm-10.516 0v8.414h-4.206v-8.414h4.206zM-97.54 163.865h10.516v6.31H-97.54zM-97.54 178.588h10.516v6.31H-97.54zM-57.578 163.865h10.516v6.31h-10.516zM-57.578 178.588h10.516v6.31h-10.516z" fill="#004C97"/><g><g transform="translate(-78.615 121.065)"><mask id="h" fill="#fff"><use xlink:href="#f"/></mask><use fill="url(#g)" fill-rule="nonzero" xlink:href="#f"/><path fill="#7F7F7F" fill-rule="nonzero" mask="url(#h)" transform="matrix(-1 0 0 1 11.505 0)" d="M-7.092-2.103l-.62.743 26.31 31.571.619-.743zM-7.092 2.103l-.62.744 26.31 31.571.619-.744zM-7.092 6.31l-.62.743 26.31 31.572.619-.744zM-7.092 10.516l-.62.744 26.31 31.571.619-.743zM-7.092 14.723l-.62.744 26.31 31.57.619-.743zM-7.092 18.93l-.62.743 26.31 31.571.619-.743zM-7.092 23.136l-.62.744 26.31 31.57.619-.743zM-7.092 27.343l-.62.743 26.31 31.571.619-.743zM-7.092-6.31l-.62.744 26.31 31.57.619-.743zM-7.092-10.516l-.62.743 26.31 31.571.619-.743zM-7.092-14.723l-.62.744 26.31 31.57.619-.743zM-7.092-18.93l-.62.744 26.31 31.571.619-.743z"/></g><path stroke="#636262" stroke-width=".5" d="M-78.615 121.065h12.62v42.066h-12.62z"/></g><g><g transform="translate(-78.611 159.586)"><mask id="k" fill="#fff"><use xlink:href="#i"/></mask><use fill="url(#j)" fill-rule="nonzero" xlink:href="#i"/><path fill="#7F7F7F" fill-rule="nonzero" mask="url(#k)" d="M-6.433-6.31l-.578.744 24.555 31.57.579-.743zM-6.433-2.103l-.578.743 24.555 31.571.579-.743zM-6.433 2.103l-.578.744 24.555 31.571.579-.744zM-6.433 6.31l-.578.743 24.555 31.572.579-.744zM-6.433 10.516l-.578.744 24.555 31.571.579-.743zM-6.433 14.723l-.578.744 24.555 31.57.579-.743zM-6.433 18.93l-.578.743 24.555 31.571.579-.743zM-6.433 23.136l-.578.744 24.555 31.57.579-.743zM-6.433-10.516l-.578.743 24.555 31.571.579-.743zM-6.433-14.723l-.578.744 24.555 31.57.579-.743zM-6.433-18.93l-.578.744 24.555 31.571.579-.743zM-6.433-23.136l-.578.744 24.555 31.57.579-.743z"/></g><path stroke="#636262" stroke-width=".5" d="M-78.611 161.689h12.62v25.239h-12.62z"/></g></g></g><g transform="translate(0 -87)"><mask id="m" fill="#fff"><use xlink:href="#l"/></mask><g mask="url(#m)"><path d="M83.175 31.69l6.272 8.364 7.317-.001v-4.18H111.4v4.18h27.546v-.001h74.321l.001-4.207h14.723l-.001 4.206h1.077a7.337 7.337 0 017.337 7.338v2.152a7.337 7.337 0 01-7.337 7.337h-1.077l.001 4.206h-14.723v-4.207h-74.322v-.098H111.4v4.182H96.764v-4.182h-7.317l-6.272 8.363H37.179l-6.272-8.363H4.592a4 4 0 01-4-4v-8.725a4 4 0 014-4h26.315l6.272-8.363h45.996z" stroke="#636262" stroke-width=".5" fill="url(#n)" fill-rule="nonzero" transform="translate(-135 125.917)"/><path d="M141.756 23.954V7.127h439.951V6.42a3.5 3.5 0 013.5-3.5h7.723a3.5 3.5 0 013.5 3.5v.706h10.517v16.827l-10.517-.001v.707a3.5 3.5 0 01-3.5 3.5h-7.723a3.5 3.5 0 01-3.5-3.5v-.707H141.756z" stroke="#636262" stroke-width=".5" fill="url(#d)" fill-rule="nonzero" transform="translate(-135 125.917)"/><g fill="#004C97"><path d="M15.169 130.941h10.516v6.31H15.169zM15.169 145.664h10.516v6.31H15.169zM55.13 130.941h10.517v6.31H55.13zM55.13 145.664h10.517v6.31H55.13z"/></g><g transform="translate(34.095 152.065)"><mask id="p" fill="#fff"><use xlink:href="#o"/></mask><use fill="url(#g)" fill-rule="nonzero" xlink:href="#o"/><path fill="#7F7F7F" fill-rule="nonzero" mask="url(#p)" transform="matrix(-1 0 0 1 11.505 0)" d="M-7.092-2.103l-.62.743 26.31 31.571.619-.743zM-7.092 2.103l-.62.744 26.31 31.571.619-.744zM-7.092 6.31l-.62.743 26.31 31.572.619-.744zM-7.092 10.516l-.62.744 26.31 31.571.619-.743zM-7.092 14.723l-.62.744 26.31 31.57.619-.743zM-7.092 18.93l-.62.743 26.31 31.571.619-.743zM-7.092 23.136l-.62.744 26.31 31.57.619-.743zM-7.092 27.343l-.62.743 26.31 31.571.619-.743zM-7.092-6.31l-.62.744 26.31 31.57.619-.743zM-7.092-10.516l-.62.743 26.31 31.571.619-.743zM-7.092-14.723l-.62.744 26.31 31.57.619-.743zM-7.092-18.93l-.62.744 26.31 31.571.619-.743z"/></g><path stroke="#636262" stroke-width=".5" d="M34.095 152.065h12.62v42.066h-12.62z"/><g fill="#004C97"><path d="M92.99 161.762v8.413h-4.206v-8.413h4.206zm-10.516 0v8.413h-4.207v-8.413h4.207zM92.99 178.588v8.414h-4.206v-8.414h4.206zm-10.516 0v8.414h-4.207v-8.414h4.207zM15.17 163.865h10.515v6.31H15.17zM15.17 178.588h10.515v6.31H15.17zM55.131 163.865h10.516v6.31H55.131zM55.131 178.588h10.516v6.31H55.131z"/></g><g><g transform="translate(34.098 126.586)"><mask id="r" fill="#fff"><use xlink:href="#q"/></mask><use fill="url(#j)" fill-rule="nonzero" xlink:href="#q"/><path fill="#7F7F7F" fill-rule="nonzero" mask="url(#r)" d="M-6.433-6.31l-.578.744 24.555 31.57.579-.743zM-6.433-2.103l-.578.743 24.555 31.571.579-.743zM-6.433 2.103l-.578.744 24.555 31.571.579-.744zM-6.433 6.31l-.578.743 24.555 31.572.579-.744zM-6.433 10.516l-.578.744 24.555 31.571.579-.743zM-6.433 14.723l-.578.744 24.555 31.57.579-.743zM-6.433 18.93l-.578.743 24.555 31.571.579-.743zM-6.433 23.136l-.578.744 24.555 31.57.579-.743zM-6.433-10.516l-.578.743 24.555 31.571.579-.743zM-6.433-14.723l-.578.744 24.555 31.57.579-.743zM-6.433-18.93l-.578.744 24.555 31.571.579-.743zM-6.433-23.136l-.578.744 24.555 31.57.579-.743z"/></g><path stroke="#636262" stroke-width=".5" d="M34.098 128.689h12.62v25.239h-12.62z"/></g></g></g></g></svg>