<svg width="361" height="179" xmlns="http://www.w3.org/2000/svg" xmlns:xlink="http://www.w3.org/1999/xlink"><defs><linearGradient x1="50%" y1="0%" x2="50%" y2="100%" id="r"><stop stop-color="#636262" stop-opacity=".401" offset="0%"/><stop stop-color="#636262" offset="46.746%"/><stop stop-color="#636262" stop-opacity=".4" offset="100%"/></linearGradient><linearGradient x1="50.034%" y1="99.984%" x2="50.034%" y2="-.004%" id="G"><stop stop-color="#8B878D" offset="0%"/><stop stop-color="#9F9CA1" offset="13.66%"/><stop stop-color="#D9D8DA" offset="42.07%"/><stop stop-color="#F3F4F4" offset="51.52%"/><stop stop-color="#807B80" offset="100%"/></linearGradient><linearGradient x1="50.034%" y1="114.901%" x2="50.034%" y2="-16.677%" id="e"><stop stop-color="#363D43" offset="0%"/><stop stop-color="#82888D" offset="52.238%"/><stop stop-color="#363D43" offset="100%"/></linearGradient><linearGradient x1="50.034%" y1="99.984%" x2="50.034%" y2="-.004%" id="F"><stop stop-color="#8B878D" offset="0%"/><stop stop-color="#9F9CA1" offset="13.66%"/><stop stop-color="#D9D8DA" offset="42.07%"/><stop stop-color="#F3F4F4" offset="51.52%"/><stop stop-color="#807B80" offset="100%"/></linearGradient><linearGradient x1="0%" y1="48.895%" x2="100%" y2="51.105%" id="i"><stop stop-color="#838383" offset="0%"/><stop stop-color="#BEBEBE" offset="47.838%"/><stop stop-color="#838383" offset="100%"/></linearGradient><linearGradient x1="50%" y1="0%" x2="50%" y2="100%" id="E"><stop stop-color="#BDD3EB" offset="0%"/><stop stop-color="#93C5DE" offset="100%"/></linearGradient><linearGradient x1="50%" y1="0%" x2="50%" y2="100%" id="C"><stop stop-color="#BDD3EB" offset="0%"/><stop stop-color="#93C5DE" offset="100%"/></linearGradient><linearGradient x1="50%" y1="0%" x2="50%" y2="100%" id="A"><stop stop-color="#BDD3EB" offset="0%"/><stop stop-color="#93C5DE" offset="100%"/></linearGradient><linearGradient x1="50%" y1="0%" x2="50%" y2="100%" id="v"><stop stop-color="#BDD3EB" offset="0%"/><stop stop-color="#93C5DE" offset="100%"/></linearGradient><linearGradient x1=".453%" y1="50.403%" x2="99.615%" y2="50.403%" id="n"><stop stop-color="#AFACB1" offset="0%"/><stop stop-color="#BAB9BC" offset="28.499%"/><stop stop-color="#D9D8DA" offset="42.07%"/><stop stop-color="#F3F4F4" offset="58.437%"/><stop stop-color="#958F95" offset="100%"/></linearGradient><linearGradient x1="50%" y1="0%" x2="50%" y2="100%" id="s"><stop stop-color="#BDD3EB" offset="0%"/><stop stop-color="#93C5DE" offset="100%"/></linearGradient><linearGradient x1="50.034%" y1="100%" x2="50.034%" y2="0%" id="c"><stop stop-color="#363D43" offset="0%"/><stop stop-color="#798085" offset="49.343%"/><stop stop-color="#82888D" offset="50.901%"/><stop stop-color="#363D43" offset="100%"/></linearGradient><linearGradient x1="50.034%" y1="99.984%" x2="50.034%" y2="-.004%" id="o"><stop stop-color="#8B878D" offset="0%"/><stop stop-color="#9F9CA1" offset="13.66%"/><stop stop-color="#D9D8DA" offset="42.07%"/><stop stop-color="#F3F4F4" offset="51.52%"/><stop stop-color="#807B80" offset="100%"/></linearGradient><linearGradient x1="50.034%" y1="99.984%" x2="50.034%" y2="-.004%" id="p"><stop stop-color="#8B878D" offset="0%"/><stop stop-color="#9F9CA1" offset="13.66%"/><stop stop-color="#D9D8DA" offset="42.07%"/><stop stop-color="#F3F4F4" offset="51.52%"/><stop stop-color="#807B80" offset="100%"/></linearGradient><linearGradient x1="50%" y1="0%" x2="50%" y2="100%" id="q"><stop stop-color="#636262" stop-opacity=".4" offset="0%"/><stop stop-color="#636262" offset="46.746%"/><stop stop-color="#636262" stop-opacity=".4" offset="100%"/></linearGradient><filter x="0%" y="0%" width="100%" height="100%" filterUnits="objectBoundingBox" id="z"><feGaussianBlur in="SourceGraphic"/></filter><filter x="-3%" y="-7%" width="105.4%" height="115.6%" filterUnits="objectBoundingBox" id="l"><feOffset dx="-1" dy="1" in="SourceAlpha" result="shadowOffsetOuter1"/><feGaussianBlur stdDeviation="3" in="shadowOffsetOuter1" result="shadowBlurOuter1"/><feColorMatrix values="0 0 0 0 0 0 0 0 0 0 0 0 0 0 0 0 0 0 0.230550699 0" in="shadowBlurOuter1"/></filter><filter x="0%" y="0%" width="100%" height="100%" filterUnits="objectBoundingBox" id="t"><feGaussianBlur in="SourceGraphic"/></filter><filter x="0%" y="0%" width="100%" height="100%" filterUnits="objectBoundingBox" id="u"><feGaussianBlur in="SourceGraphic"/></filter><filter x="-3%" y="-16.2%" width="105.4%" height="136.1%" filterUnits="objectBoundingBox" id="j"><feOffset dx="-1" dy="1" in="SourceAlpha" result="shadowOffsetOuter1"/><feGaussianBlur stdDeviation="3" in="shadowOffsetOuter1" result="shadowBlurOuter1"/><feColorMatrix values="0 0 0 0 0 0 0 0 0 0 0 0 0 0 0 0 0 0 0.230550699 0" in="shadowBlurOuter1"/></filter><filter x="0%" y="0%" width="100%" height="100%" filterUnits="objectBoundingBox" id="w"><feGaussianBlur in="SourceGraphic"/></filter><filter x="0%" y="0%" width="100%" height="100%" filterUnits="objectBoundingBox" id="x"><feGaussianBlur in="SourceGraphic"/></filter><filter x="0%" y="0%" width="100%" height="100%" filterUnits="objectBoundingBox" id="y"><feGaussianBlur in="SourceGraphic"/></filter><filter x="0%" y="0%" width="100%" height="100%" filterUnits="objectBoundingBox" id="D"><feGaussianBlur in="SourceGraphic"/></filter><filter x="-3%" y="-16.2%" width="105.4%" height="136.1%" filterUnits="objectBoundingBox" id="g"><feOffset dx="-1" dy="1" in="SourceAlpha" result="shadowOffsetOuter1"/><feGaussianBlur stdDeviation="3" in="shadowOffsetOuter1" result="shadowBlurOuter1"/><feColorMatrix values="0 0 0 0 0 0 0 0 0 0 0 0 0 0 0 0 0 0 0.230550699 0" in="shadowBlurOuter1"/></filter><filter x="0%" y="0%" width="100%" height="100%" filterUnits="objectBoundingBox" id="B"><feGaussianBlur in="SourceGraphic"/></filter><path d="M788.23 202.453v-48.375h19.98l-.094.119c-2.113 2.744-6.18 13.113-6.215 24.068-.035 11.122 11.568 14.723 15.775 14.723 4.206 0 9.464-1.051 12.62-5.258 4.354-5.807 4.206-12.62 2.103-16.826-3.25-6.5-8.243-5.93-9.465-10.517-1.197-4.493-1.058-4.22-.063-4.207h4.27l-.04.182a3.386 3.386 0 003.324 4.025h5.887l.165.007a2 2 0 011.703 1.279c.352.92.528 1.543.528 1.87 0 3.154-.069 6.347-.01 11.802l.01 1.869v.011l.006.21a4.195 4.195 0 003.98 3.98l.21.005.013.136.018.482.021.27a9.465 9.465 0 0017.627 3.836l1.262-24.705h7.01l.062.187c.126.39.256.882.38 1.468.565 2.689.891 6.796.95 12.251l.01 1.869v4.206h4.195l.014.136.018.482.022.27a9.465 9.465 0 0017.627 3.836l1.26-24.705h7.011l.063.187c.125.39.255.882.378 1.468.567 2.689.892 6.796.952 12.251l.01 1.869.005.21a4.207 4.207 0 003.991 3.991l.21.005 1.315 4.213.14.31a15.785 15.785 0 0022.12 7.088l.432.436.292.278a16.802 16.802 0 0011.457 4.501c9.293 0 16.826-7.533 16.826-16.826s-7.533-16.826-16.826-16.826-16.826 7.533-16.826 16.826c0 .676.04 1.347.12 2.012a5.232 5.232 0 01-3.275 1.143 5.267 5.267 0 01-4.822-3.155 3.795 3.795 0 003.795-3.77l.138-21.58.006-.149a2 2 0 011.993-1.838h14.522l23.279-.004 2.469-.001h19.981l-.095.119c-2.113 2.744-6.18 13.113-6.215 24.068-.035 11.122 11.568 14.723 15.775 14.723 4.206 0 9.465-1.051 12.62-5.258 4.354-5.807 4.206-12.62 2.103-16.826-3.25-6.5-8.243-5.93-9.465-10.517-1.197-4.493-1.058-4.22-.063-4.207h4.27l-.04.182a3.386 3.386 0 003.324 4.025h5.887l.165.007a2 2 0 011.703 1.279c.352.92.529 1.543.529 1.87 0 3.154-.07 6.347-.01 11.802l.01 1.869v.011l.005.21a4.195 4.195 0 003.98 3.98l.21.005.013.136.018.482.021.27a9.465 9.465 0 0017.628 3.836l1.26-24.705h7.011l.063.187c.125.39.255.882.378 1.468.566 2.689.892 6.796.952 12.251l.01 1.869v4.206h4.195l.014.136.017.482.022.27a9.465 9.465 0 0017.627 3.836l1.26-24.705h7.011l.063.187c.125.39.255.882.379 1.468.566 2.689.892 6.796.951 12.251l.01 1.869.005.21a4.207 4.207 0 003.992 3.991l.21.005 1.314 4.213.14.31a15.785 15.785 0 0022.121 7.088l.432.436.291.278a16.802 16.802 0 0011.457 4.501c9.293 0 16.827-7.533 16.827-16.826s-7.534-16.826-16.827-16.826c-9.293 0-16.826 7.533-16.826 16.826 0 .676.04 1.347.12 2.012a5.232 5.232 0 01-3.275 1.143 5.267 5.267 0 01-4.822-3.155 3.77 3.77 0 003.77-3.77v-13.04l.004-.246a7.92 7.92 0 018.41-7.657l5.297.33 1.246.07a100 100 0 004.992.125h16.86l.18-.005c1.598-.09 2.88-1.37 2.969-2.97l.005-.178 6.309-.001v48.375H788.23zm328.477-33.653c6.97 0 12.62 5.65 12.62 12.62 0 6.97-5.65 12.62-12.62 12.62a12.565 12.565 0 01-7.911-2.788l.55-.367v-3.155l-4.207-2.103-3.269 1.636a9.498 9.498 0 002.646-2.573 12.637 12.637 0 01-.428-3.27c0-6.97 5.65-12.62 12.62-12.62zm-174.938 0c6.97 0 12.62 5.65 12.62 12.62 0 6.97-5.65 12.62-12.62 12.62a12.565 12.565 0 01-7.911-2.788l.55-.367v-3.155l-4.207-2.103-3.269 1.636a9.498 9.498 0 002.645-2.573 12.637 12.637 0 01-.427-3.27c0-6.97 5.65-12.62 12.62-12.62zm25.24-18.93l-10.517.003H916.53v27.34h-2.103l-.234.242c-.985 1.044-1.58 2.088-1.785 3.132.62 4.627 4.583 8.195 9.38 8.195 1.5 0 2.92-.35 4.18-.971l-.864 2.592a11.57 11.57 0 01-3.316.482c-5.67 0-10.388-4.08-11.377-9.465h-.191l-.007-.247c-.078-1.32-.777-2.64-2.096-3.96h-2.104l-.016-2.419-.008-.513c-.198-11.366-1.592-17.049-4.182-17.049h-6.31v-7.361h71.512zm174.938 0l-10.517.003v4.204h-4.206l.002-.71-.29.131c-.881.373-1.85.58-2.867.58-1.13 0-2.2-.255-3.156-.71v.71h-4.206v-4.205h-8.413v2.101h-10.516v-2.101h-6.31v27.34h-2.103l-.234.242c-.985 1.044-1.58 2.088-1.785 3.132.62 4.627 4.584 8.195 9.38 8.195 1.5 0 2.92-.35 4.18-.971l-.864 2.592a11.57 11.57 0 01-3.316.482c-5.67 0-10.388-4.08-11.377-9.465h-.19l-.008-.247c-.078-1.32-.776-2.64-2.096-3.96h-2.103l-.017-2.419-.008-.513c-.198-11.366-1.592-17.049-4.182-17.049h-6.31v-7.361h71.512zm-256.966 0v27.344h-2.104l-.24.247c-1.242 1.32-1.863 2.64-1.863 3.96l.015.303.021.176a3.156 3.156 0 006.274-.48v-23.135l2.103-.001v23.662h-.026l-.027.226a5.26 5.26 0 01-10.452-.406l-.026-.696-.027-.241c-.17-1.205-.856-2.41-2.061-3.615h-2.104l-.016-2.42-.008-.513c-.198-11.366-1.592-17.049-4.182-17.049h-8.413v-7.361h23.136zm-31.55 0v27.344h-2.103l-.24.247c-1.242 1.32-1.863 2.64-1.863 3.96l.014.303.022.176a3.156 3.156 0 006.274-.48v-23.337l.007-.182.068-.51.052-.263a5.256 5.256 0 011.724-2.849l.254-.202h3.153v1.052l-.304.015-.176.021a3.156 3.156 0 00-2.675 3.119v23.662h-.026l-.027.226a5.26 5.26 0 01-10.452-.406l-.026-.696-.027-.241c-.17-1.205-.857-2.41-2.062-3.615h-2.103l-.016-2.42-.008-.513c-.198-11.366-1.592-17.049-4.183-17.049h-8.413v-7.361h23.136zm174.939 0v27.344h-2.104l-.24.247c-1.242 1.32-1.863 2.64-1.863 3.96l.014.303.022.176a3.156 3.156 0 006.274-.48v-23.337l.007-.182.068-.51.052-.263a5.256 5.256 0 011.724-2.849l.254-.202h3.153v1.052l-.304.015-.176.021a3.156 3.156 0 00-2.675 3.119v23.662h-.026l-.027.226a5.26 5.26 0 01-10.452-.406l-.026-.696-.027-.241c-.17-1.205-.857-2.41-2.062-3.615h-2.103l-.016-2.42-.008-.513c-.198-11.366-1.592-17.049-4.182-17.049h-8.414v-7.361h23.137zm31.549 0v27.344h-2.104l-.24.247c-1.242 1.32-1.863 2.64-1.863 3.96l.015.303.022.176a3.156 3.156 0 006.273-.48v-23.135l2.103-.001v23.662h-.026l-.027.226a5.26 5.26 0 01-10.452-.406l-.026-.696-.027-.241c-.17-1.205-.856-2.41-2.061-3.615h-2.104l-.016-2.42-.008-.513c-.198-11.366-1.592-17.049-4.182-17.049h-8.413v-7.361h23.136z" id="k"/><path d="M788.23 80.463h354.873v121.99H788.23V80.463zm4.206 4.206v113.577h346.46V84.67h-346.46z" id="m"/><path d="M921.788 92.03c1.153 0 2.266.17 3.316.483l.864 2.592a9.423 9.423 0 00-4.18-.971c-4.797 0-8.76 3.568-9.38 8.195.205 1.044.8 2.088 1.785 3.132l.234.241h2.103v27.34h39.962l10.517.003h-71.512v-7.362h6.31c2.59 0 3.984-5.683 4.182-17.049l.008-.512.016-2.42h2.104c1.32-1.32 2.018-2.64 2.096-3.96l.007-.247h.19c.99-5.384 5.707-9.464 11.378-9.464zm137.08 4.207a5.26 5.26 0 015.204 4.506l.027.227h.026v23.662l-2.103-.001v-23.136a3.155 3.155 0 00-6.273-.48l-.022.177-.015.303c0 1.32.621 2.64 1.863 3.96l.24.247h2.104v27.343h-23.136v-7.362h8.413c2.59 0 3.984-5.683 4.182-17.049l.008-.512.016-2.42h2.104c1.205-1.205 1.892-2.41 2.061-3.615l.027-.241.026-.696a5.259 5.259 0 015.247-4.913zm-31.55 0a5.26 5.26 0 015.205 4.506l.027.227h.026v23.662c0 1.579 1.16 2.887 2.675 3.118l.176.022.304.014v1.052h-3.153l-.254-.201a5.256 5.256 0 01-1.724-2.85l-.052-.263-.068-.51-.007-.182v-23.337a3.155 3.155 0 00-6.274-.48l-.022.177-.014.303c0 1.32.621 2.64 1.863 3.96l.24.247h2.104v27.343h-23.137v-7.362h8.414c2.59 0 3.984-5.683 4.182-17.049l.008-.512.016-2.42h2.103c1.205-1.205 1.893-2.41 2.062-3.615l.027-.241.026-.696a5.259 5.259 0 015.247-4.913zm-143.389 0a5.26 5.26 0 015.205 4.506l.027.227h.026v23.662l-2.103-.001v-23.136a3.155 3.155 0 00-6.274-.48l-.021.177-.015.303c0 1.32.621 2.64 1.863 3.96l.24.247h2.104v27.343h-23.136v-7.362h8.413c2.59 0 3.984-5.683 4.182-17.049l.008-.512.016-2.42h2.104c1.205-1.205 1.892-2.41 2.061-3.615l.027-.241.026-.696a5.259 5.259 0 015.247-4.913zm212.797-4.206c1.153 0 2.266.168 3.316.482l.864 2.592a9.423 9.423 0 00-4.18-.971c-4.796 0-8.76 3.568-9.38 8.195.205 1.044.8 2.088 1.785 3.132l.234.241h2.103v27.34h6.31v-2.1h10.516v2.1h8.413v-4.204h4.207v.709a7.333 7.333 0 013.155-.709c1.017 0 1.986.206 2.867.58l.29.13-.002-.71h4.206v4.205l10.517.002h-71.512v-7.362h6.31c2.59 0 3.984-5.683 4.182-17.049l.008-.512.017-2.42h2.103c1.32-1.32 2.018-2.64 2.096-3.96l.007-.247h.19c.99-5.384 5.707-9.464 11.378-9.464zM852.38 96.237a5.26 5.26 0 015.205 4.506l.027.227h.026v23.662c0 1.579 1.16 2.887 2.675 3.118l.176.022.304.014v1.052h-3.153l-.254-.201a5.256 5.256 0 01-1.724-2.85l-.052-.263-.068-.51-.007-.182v-23.337a3.155 3.155 0 00-6.274-.48l-.022.177-.014.303c0 1.32.62 2.64 1.863 3.96l.24.247h2.103v27.343h-23.136v-7.362h8.413c2.59 0 3.985-5.683 4.183-17.049l.008-.512.016-2.42h2.103c1.205-1.205 1.893-2.41 2.062-3.615l.027-.241.026-.696a5.259 5.259 0 015.247-4.913zm110.788 32.6h-2.47l-22.345-.417-.933-.013-.933-.005h-13.589a2 2 0 01-1.993-1.838l-.007-.149-.137-21.149a3.795 3.795 0 00-3.795-3.77 5.267 5.267 0 014.822-3.155c1.218 0 2.362.414 3.274 1.143-.079.664-.119 1.335-.119 2.011 0 9.293 7.533 16.827 16.826 16.827s16.826-7.534 16.826-16.827c0-9.292-7.533-16.826-16.826-16.826a16.802 16.802 0 00-11.457 4.502l-.292.277-.431.437a15.785 15.785 0 00-22.121 7.087l-.14.31-1.315 4.213-.21.006a4.207 4.207 0 00-3.991 3.991l-.005.21-.01 1.868c-.06 5.456-.385 9.563-.952 12.251a14.931 14.931 0 01-.378 1.469l-.063.187h-7.01l-1.261-24.706a9.465 9.465 0 00-17.627 3.836l-.022.27-.018.482-.014.136h-4.194v4.207l-.01 1.868c-.06 5.456-.386 9.563-.952 12.251a14.931 14.931 0 01-.379 1.469l-.062.187h-7.01l-1.262-24.706a9.465 9.465 0 00-17.627 3.836l-.021.27-.018.482-.014.136-.21.006a4.195 4.195 0 00-3.98 3.98l-.005.21v.011l-.01 1.868c-.059 5.456.01 8.648.01 11.803 0 .326-.176.95-.528 1.87a2 2 0 01-1.703 1.278l-.165.007h-5.887a3.385 3.385 0 00-3.325 4.025l.04.182h-4.27c-.994.013-1.133.287.064-4.207 1.222-4.587 6.215-4.016 9.465-10.516 2.103-4.207 1.051-11.568 2.103-18.495.315-2.074-1.11-3.23-2.477-3.89a5.253 5.253 0 00-1.272-.42 11.954 11.954 0 00-1.454-.19l-.292-.023-.852-.047c-.37-.016-.777-.03-1.22-.04l-.338-.008-1.228-.018-2.543-.002c-3.44.019-8.034.118-13.788.298l-.696.022-1.299.044a6.408 6.408 0 00-6.19 6.408c.034 10.908.342 18.2.964 22.132l.037.228.13.706c.513 2.55 3.913 7.255 6.02 9.867l.207.254H788.23V80.463h353.717l-.001 48.375-6.31-.001-.004-.18a3.154 3.154 0 00-2.97-2.969l-.179-.005h-16.86a100 100 0 00-4.992.125l-1.246.07-5.297.331a7.919 7.919 0 01-8.41-7.657l-.003-.247v-13.039a3.77 3.77 0 00-3.771-3.77 5.267 5.267 0 014.822-3.155c1.218 0 2.362.414 3.275 1.143-.08.664-.12 1.335-.12 2.011 0 9.293 7.533 16.827 16.826 16.827s16.827-7.534 16.827-16.827c0-9.292-7.534-16.826-16.827-16.826a16.802 16.802 0 00-11.457 4.502l-.291.277-.432.437a15.785 15.785 0 00-22.121 7.087l-.14.31-1.314 4.213-.21.006a4.207 4.207 0 00-3.992 3.991l-.005.21-.01 1.868c-.06 5.456-.385 9.563-.951 12.251a14.933 14.933 0 01-.38 1.469l-.062.187h-7.01l-1.261-24.706a9.465 9.465 0 00-17.627 3.836l-.022.27-.017.482-.014.136h-4.195v4.207l-.01 1.868c-.06 5.456-.386 9.563-.952 12.251a14.933 14.933 0 01-.378 1.469l-.063.187h-7.01l-1.261-24.706a9.465 9.465 0 00-17.627 3.836l-.022.27-.018.482-.014.136-.209.006a4.195 4.195 0 00-3.98 3.98l-.005.21v.011l-.01 1.868c-.06 5.456.01 8.648.01 11.803 0 .326-.177.95-.529 1.87a2 2 0 01-1.703 1.278l-.165.007h-5.887a3.385 3.385 0 00-3.325 4.025l.04.182h-4.27c-.994.013-1.133.287.064-4.207 1.222-4.587 6.215-4.016 9.465-10.516 2.103-4.207 1.051-11.568 2.103-18.495.315-2.074-1.11-3.23-2.477-3.89a5.253 5.253 0 00-1.272-.42 11.954 11.954 0 00-1.454-.19l-.292-.023-.852-.047c-.37-.016-.777-.03-1.22-.04l-.338-.008-1.228-.018-2.543-.002c-3.44.019-8.033.118-13.788.298l-.696.022-1.298.044a6.408 6.408 0 00-6.191 6.408c.035 10.908.342 18.2.965 22.132l.037.228.129.706c.514 2.55 3.913 7.255 6.02 9.867l.207.254h-19.981zm-21.399-39.961c6.97 0 12.62 5.65 12.62 12.62 0 6.97-5.65 12.62-12.62 12.62-6.97 0-12.62-5.65-12.62-12.62 0-1.132.15-2.228.428-3.27a9.498 9.498 0 00-2.645-2.573l3.27 1.636 4.206-2.103V92.03l-.55-.368a12.565 12.565 0 017.911-2.787zm174.938 0c6.97 0 12.62 5.65 12.62 12.62 0 6.97-5.65 12.62-12.62 12.62-6.97 0-12.62-5.65-12.62-12.62 0-1.132.15-2.228.429-3.27a9.498 9.498 0 00-2.646-2.573l3.27 1.636 4.206-2.103V92.03l-.55-.368a12.565 12.565 0 017.911-2.787z" id="h"/><path id="d" d="M1.955.247h352.596v122.9H.528z"/><path id="a" d="M0 0h361v309H0z"/></defs><g transform="translate(0 -57)" fill="none" fill-rule="evenodd"><mask id="b" fill="#fff"><use xlink:href="#a"/></mask><g mask="url(#b)" opacity=".2"><path fill="url(#c)" fill-rule="nonzero" d="M788.23 80.463h178.779v121.99h-178.78z" transform="translate(-783)"/><g transform="translate(4.395 80.463)"><mask id="f" fill="#fff"><use xlink:href="#d"/></mask><use fill="url(#e)" fill-rule="nonzero" xlink:href="#d"/><g opacity=".603"><g opacity=".148" mask="url(#f)" stroke="#FFF" stroke-linecap="square" stroke-width=".5"><path d="M-537.606 185.09l899.153-901.257M-537.606 191.4l899.153-901.258M-537.606 197.708l899.153-901.256M-537.606 204.018l899.153-901.256M-537.606 210.328l899.153-901.256M-537.606 216.638l899.153-901.256M-537.606 222.948l899.153-901.256M-537.606 229.258l899.153-901.256M-537.606 235.567l899.153-901.256M-537.606 241.877l899.153-901.256M-537.606 248.187l899.153-901.256M-537.606 254.497l899.153-901.256M-537.606 260.807l899.153-901.256M-537.606 267.117l899.153-901.256M-537.606 273.427L361.547-627.83M-537.606 279.736L361.547-621.52M-537.606 286.046L361.547-615.21M-537.606 292.356L361.547-608.9M-537.606 298.666L361.547-602.59M-537.606 304.976L361.547-596.28M-537.606 311.286L361.547-589.97M-537.606 317.595L361.547-583.66M-537.606 323.905L361.547-577.35M-537.606 330.215L361.547-571.04M-537.606 336.525L361.547-564.73M-537.606 342.835L361.547-558.42M-537.606 349.145L361.547-552.11M-537.606 355.454l899.153-901.256M-537.606 361.764l899.153-901.256M-537.606 368.074l899.153-901.256M-537.606 374.384l899.153-901.256M-537.606 380.694l899.153-901.256M-537.606 387.004l899.153-901.256M-537.606 393.314l899.153-901.257M-537.606 399.623l899.153-901.256M-537.606 405.933l899.153-901.256M-537.606 412.243l899.153-901.256M-537.606 418.553l899.153-901.256M-537.606 424.863l899.153-901.256M-537.606 431.173l899.153-901.256M-537.606 437.482l899.153-901.256M-537.606 443.792l899.153-901.256M-537.606 450.102l899.153-901.256M-537.606 456.412l899.153-901.256M-537.606 462.722l899.153-901.256M-537.606 469.032l899.153-901.256M-537.606 475.342l899.153-901.257M-537.606 481.651l899.153-901.256M-537.606 487.961l899.153-901.256M-537.606 494.271l899.153-901.256M-537.606 500.581l899.153-901.256M-537.606 506.891l899.153-901.256M-537.606 513.201l899.153-901.256M-537.606 519.51l899.153-901.256M-537.606 525.82l899.153-901.256M-537.606 532.13l899.153-901.256M-537.606 538.44l899.153-901.256M-537.606 544.75l899.153-901.256M-537.606 551.06l899.153-901.256M-537.606 557.37l899.153-901.257M-537.606 563.68l899.153-901.257M-537.606 569.99l899.153-901.257M-537.606 576.3l899.153-901.257M-537.606 582.61l899.153-901.257M-537.606 588.92l899.153-901.257M-537.606 595.23l899.153-901.257M-537.606 601.538l899.153-901.256M-537.606 607.848l899.153-901.256M-537.606 614.158l899.153-901.256M-537.606 620.468l899.153-901.256M-537.606 626.778l899.153-901.256M-537.606 633.088l899.153-901.256M-537.606 639.397l899.153-901.256M-537.606 645.707l899.153-901.256M-537.606 652.017l899.153-901.256M-537.606 658.327l899.153-901.256M-537.606 664.637l899.153-901.256M-537.606 670.947l899.153-901.256M-537.606 677.257L361.547-224M-537.606 683.566L361.547-217.69M-537.606 689.876L361.547-211.38M-537.606 696.186L361.547-205.07M-537.606 702.496L361.547-198.76M-537.606 708.806L361.547-192.45M-537.606 715.116L361.547-186.14M-537.606 721.425L361.547-179.83M-537.606 727.735L361.547-173.52M-537.606 734.045L361.547-167.21M-537.606 740.355L361.547-160.9M-537.606 746.665L361.547-154.59M-537.606 752.975L361.547-148.28M-537.606 759.285l899.153-901.257M-537.606 765.594l899.153-901.256M-537.606 771.904l899.153-901.256M-537.606 778.214l899.153-901.256M-537.606 784.524l899.153-901.256M-537.606 790.834l899.153-901.256M-537.606 797.144l899.153-901.256M-537.606 803.453L361.547-97.803M-537.606 809.763L361.547-91.493M-537.606 816.073L361.547-85.183M-537.606 822.383L361.547-78.873M-537.606 828.693L361.547-72.563M-537.606 835.003L361.547-66.253M-537.606 841.312L361.547-59.944M-537.606 847.622L361.547-53.634M-537.606 853.932L361.547-47.324M-537.606 860.242L361.547-41.014M-537.606 866.552L361.547-34.704M-537.606 872.862L361.547-28.394M-537.606 879.172L361.547-22.085M-537.606 885.481L361.547-15.775M-537.606 891.791L361.547-9.465M-537.606 898.101L361.547-3.155M-537.606 904.411L361.547 3.155M-537.606 910.721L361.547 9.465M-537.606 917.031L361.547 15.775M-537.606 923.34L361.547 22.084M-537.606 929.65L361.547 28.394M-537.606 935.96L361.547 34.704M-537.606 942.27L361.547 41.014M-537.606 948.58L361.547 47.324M-537.606 954.89L361.547 53.634M-537.606 961.2L361.547 59.942M-537.606 967.51L361.547 66.252M-537.606 973.82L361.547 72.562M-537.606 980.13L361.547 78.872M-537.606 986.44L361.547 85.182M-537.606 992.75L361.547 91.492M-537.606 999.06L361.547 97.802M-537.606 1005.368l899.153-901.256M-537.606 1011.678l899.153-901.256M-537.606 1017.988l899.153-901.256M-537.606 1024.298l899.153-901.256M-537.606 1030.608l899.153-901.256M-537.606 1036.918l899.153-901.256M-537.606 1043.227l899.153-901.256M-537.606 1049.537l899.153-901.256M-537.606 1055.847l899.153-901.256"/></g></g></g><g fill-rule="nonzero" transform="translate(-783)"><use fill="#000" filter="url(#g)" xlink:href="#h"/><use fill="url(#i)" xlink:href="#h"/></g><g fill-rule="nonzero" transform="translate(-783)"><use fill="#000" filter="url(#j)" xlink:href="#k"/><use fill="url(#i)" xlink:href="#k"/></g><g fill-rule="nonzero" transform="translate(-783)"><use fill="#000" filter="url(#l)" xlink:href="#m"/><use fill="url(#n)" xlink:href="#m"/></g><path stroke="#636262" stroke-width=".5" d="M9.686 84.919h346.186v113.077H9.686z"/><path d="M676.756 149.87v-16.825h439.951v-.707a3.5 3.5 0 013.5-3.5h7.723a3.5 3.5 0 013.5 3.5v.706h10.517v16.827h-10.517v.706a3.5 3.5 0 01-3.5 3.5h-7.723a3.5 3.5 0 01-3.5-3.5v-.707H676.756z" stroke="#636262" stroke-width=".5" fill="url(#o)" fill-rule="nonzero" transform="translate(-783)"/><path d="M348.43 128.838v8.413h-4.206v-8.413h4.206zm-10.516 0v8.413h-4.207v-8.413h4.207zM348.43 154.077v-8.413h-4.206v8.413h4.206zm-10.516 0v-8.413h-4.207v8.413h4.207z" fill="#004C97"/><path fill="#0F436B" d="M221.868 130.941h10.516v6.31h-10.516z"/><g stroke-width=".5"><path d="M12.62 0h10.516v70.46H12.62c0-11.218-1.402-16.826-4.207-16.826H0V19.98h8.413c2.805 0 4.207-6.66 4.207-19.981z" stroke="#636262" fill="url(#p)" fill-rule="nonzero" transform="translate(47.295 105.702)"/><path stroke="#636262" fill-opacity=".04" fill="#000" opacity=".5" d="M59.915 127.786h10.516v12.62H59.915zM59.915 140.406h10.516v12.62H59.915z"/><path stroke="#636262" fill-opacity=".06" fill="#000" opacity=".5" d="M59.915 119.373h10.516v8.413H59.915zM59.915 153.026h10.516v8.413H59.915z"/><path stroke="#636262" fill-opacity=".08" fill="#000" opacity=".5" d="M59.915 113.063h10.516v6.31H59.915zM59.915 161.439h10.516v6.31H59.915z"/><path stroke="#636262" fill-opacity=".104" fill="#000" opacity=".5" d="M59.915 108.857h10.516v4.207H59.915z"/><path stroke="#636262" fill-opacity=".1" fill="#000" opacity=".7" d="M59.915 167.749h10.516v5.258H59.915z"/><path stroke="url(#q)" stroke-linecap="square" d="M2.103 53.634V19.981M4.207 53.634V19.981M6.31 53.634V19.981" transform="translate(47.295 105.702)"/><path stroke="url(#r)" stroke-linecap="square" d="M8.413 53.634V19.981" transform="translate(47.295 105.702)"/></g><path fill="#0F436B" d="M221.868 145.664h10.516v6.31h-10.516z"/><path fill="#004C97" d="M314.778 130.941h10.516v6.31h-10.516zM314.778 145.664h10.516v6.31h-10.516z"/><path fill="#0F436B" d="M15.746 130.941h10.516v6.31H15.746zM15.746 145.664h10.516v6.31H15.746z"/><path fill="#004C97" d="M15.746 130.941h10.516v6.31H15.746zM15.746 145.664h10.516v6.31H15.746z"/><path d="M830.295 152.5v2.103c-7.978-.889-12.185.514-12.62 4.207-.578 4.922 6.512 5.89 9.576 10.47a12.574 12.574 0 013.044 8.22c0 6.97-5.65 12.62-12.62 12.62-6.969 0-12.62-5.65-12.62-12.62 0-.63.047-1.25.136-1.855a6.73 6.73 0 01-.135-.009c.061-5.204 1.113-9.41 3.155-12.62 3.063-4.813 6.31-9.464 11.568-10.516a26.554 26.554 0 0110.516 0z" fill="url(#s)" filter="url(#t)" transform="translate(-783)"/><path d="M830.295 93.608v2.103c-7.978-.889-12.185.514-12.62 4.207-.578 4.922 6.512 5.89 9.576 10.47a12.574 12.574 0 013.044 8.22c0 6.97-5.65 12.62-12.62 12.62-6.969 0-12.62-5.65-12.62-12.62 0-.63.047-1.25.136-1.855a6.714 6.714 0 01-.135-.009c.061-5.204 1.113-9.41 3.155-12.62 3.063-4.813 6.31-9.464 11.568-10.516a26.554 26.554 0 0110.516 0z" fill="url(#s)" filter="url(#u)" transform="matrix(1 0 0 -1 -783 224.31)"/><path d="M852.38 96.237a5.259 5.259 0 015.232 4.733h.026v23.662a3.155 3.155 0 003.155 3.154v2.104a5.259 5.259 0 01-5.23-4.702 2.088 2.088 0 01-.028-.356v-23.337a3.155 3.155 0 10-6.31 0c0 1.403.7 2.805 2.103 4.207h-6.31c1.402-1.402 2.104-2.804 2.104-4.207l.004-.216a5.258 5.258 0 015.254-5.042z" fill="url(#v)" filter="url(#w)" transform="translate(-783)"/><path d="M852.38 153.026a5.259 5.259 0 015.232 4.732h.026v23.662a3.155 3.155 0 003.155 3.155v2.103a5.259 5.259 0 01-5.23-4.701 2.088 2.088 0 01-.028-.356v-23.337a3.155 3.155 0 10-6.31 0c0 1.402.7 2.804 2.103 4.207h-6.31c1.402-1.403 2.104-2.805 2.104-4.207l.004-.217a5.258 5.258 0 015.254-5.041z" fill="url(#v)" filter="url(#x)" transform="matrix(1 0 0 -1 -783 339.704)"/><path d="M1005.233 152.5v2.103c-7.978-.889-12.185.514-12.62 4.207-.578 4.922 6.512 5.89 9.577 10.47a12.574 12.574 0 013.043 8.22c0 6.97-5.65 12.62-12.62 12.62-6.969 0-12.619-5.65-12.619-12.62 0-.63.046-1.25.135-1.855a6.73 6.73 0 01-.135-.009c.061-5.204 1.113-9.41 3.155-12.62 3.063-4.813 6.31-9.464 11.568-10.516a26.554 26.554 0 0110.516 0z" fill="url(#s)" transform="translate(-783)"/><path d="M883.929 153.026a5.259 5.259 0 015.232 4.732h.026v23.662a3.155 3.155 0 003.155 3.155v2.103a5.259 5.259 0 01-5.229-4.701 2.088 2.088 0 01-.03-.356v-23.337a3.155 3.155 0 10-6.309 0c0 1.402.701 2.804 2.103 4.207h-6.31c1.403-1.403 2.104-2.805 2.104-4.207l.004-.217a5.258 5.258 0 015.254-5.041z" fill="url(#v)" filter="url(#y)" transform="matrix(1 0 0 -1 -783 339.704)"/><path d="M1005.233 93.608v2.103c-7.978-.889-12.185.514-12.62 4.207-.578 4.922 6.512 5.89 9.577 10.47a12.574 12.574 0 013.043 8.22c0 6.97-5.65 12.62-12.62 12.62-6.969 0-12.619-5.65-12.619-12.62 0-.63.046-1.25.135-1.855a6.714 6.714 0 01-.135-.009c.061-5.204 1.113-9.41 3.155-12.62 3.063-4.813 6.31-9.464 11.568-10.516a26.554 26.554 0 0110.516 0z" fill="url(#s)" transform="matrix(1 0 0 -1 -783 224.31)"/><path d="M883.929 96.237a5.259 5.259 0 015.232 4.733h.026v23.662a3.155 3.155 0 003.155 3.154v2.104a5.259 5.259 0 01-5.229-4.702 2.088 2.088 0 01-.03-.356v-23.337a3.155 3.155 0 10-6.309 0c0 1.403.701 2.805 2.103 4.207h-6.31c1.403-1.402 2.104-2.804 2.104-4.207l.004-.216a5.258 5.258 0 015.254-5.042z" fill="url(#v)" filter="url(#z)" transform="translate(-783)"/><path d="M1027.318 96.237a5.259 5.259 0 015.232 4.733h.026v23.662a3.155 3.155 0 003.155 3.154v2.104a5.259 5.259 0 01-5.229-4.702 2.087 2.087 0 01-.03-.356v-23.337a3.155 3.155 0 10-6.309 0c0 1.403.701 2.805 2.103 4.207h-6.31c1.403-1.402 2.104-2.804 2.104-4.207l.004-.216a5.258 5.258 0 015.254-5.042z" fill="url(#v)" transform="translate(-783)"/><path d="M941.77 88.876c6.969 0 12.619 5.65 12.619 12.62 0 6.97-5.65 12.62-12.62 12.62-6.97 0-12.62-5.65-12.62-12.62 0-1.133.15-2.23.43-3.274a9.454 9.454 0 00-7.79-4.088c-4.798 0-8.76 3.568-9.381 8.195.22 1.124.894 2.249 2.019 3.373h-6.31c1.402-1.402 2.103-2.804 2.103-4.207h.19c.99-5.384 5.708-9.464 11.378-9.464a11.54 11.54 0 018.656 3.893 12.618 12.618 0 0111.325-7.048z" fill="url(#A)" filter="url(#B)" transform="translate(-783)"/><path d="M951.234 169.908c1.634 2.128 3.155 10.782 3.155 13.672 0 6.97-5.65 12.62-12.62 12.62-6.97 0-12.62-5.65-12.62-12.62 0-.8.113-2.031.311-3.44a9.45 9.45 0 00-7.672-3.922c-4.797 0-8.76 3.568-9.38 8.195.22 1.124.894 2.249 2.019 3.373h-6.31c1.402-1.402 2.103-2.804 2.103-4.206h.19c.99-5.385 5.708-9.465 11.378-9.465a11.53 11.53 0 018.12 3.329c.592-3.118 1.468-6.34 2.396-7.536 2.31-2.972 5.41 1.052 9.465 1.052 4.08 0 7.158-4.055 9.465-1.052z" fill="url(#C)" filter="url(#D)" transform="matrix(1 0 0 -1 -783 365)"/><path d="M1058.867 96.237a5.259 5.259 0 015.232 4.733h.026v23.662a3.155 3.155 0 003.155 3.154v2.104a5.259 5.259 0 01-5.229-4.702 2.087 2.087 0 01-.029-.356v-23.337a3.155 3.155 0 10-6.31 0c0 1.403.701 2.805 2.103 4.207h-6.31c1.403-1.402 2.104-2.804 2.104-4.207l.004-.216a5.258 5.258 0 015.254-5.042z" fill="url(#v)" transform="translate(-783)"/><path d="M1116.707 88.876c6.97 0 12.62 5.65 12.62 12.62 0 6.97-5.65 12.62-12.62 12.62-6.97 0-12.62-5.65-12.62-12.62 0-1.133.15-2.23.43-3.274a9.454 9.454 0 00-7.79-4.088c-4.797 0-8.76 3.568-9.381 8.195.22 1.124.894 2.249 2.019 3.373h-6.31c1.402-1.402 2.103-2.804 2.103-4.207h.19c.99-5.384 5.708-9.464 11.378-9.464a11.54 11.54 0 018.656 3.893 12.618 12.618 0 0111.325-7.048z" fill="url(#A)" transform="translate(-783)"/><g stroke-width=".5"><path d="M12.62 0h10.516v70.46H12.62c0-11.218-1.402-16.826-4.207-16.826H0V19.98h8.413c2.805 0 4.207-6.66 4.207-19.981z" stroke="#636262" fill="url(#p)" fill-rule="nonzero" transform="translate(110.394 105.702)"/><path stroke="#636262" fill-opacity=".04" fill="#000" opacity=".5" d="M123.014 127.786h10.516v12.62h-10.516zM123.014 140.406h10.516v12.62h-10.516z"/><path stroke="#636262" fill-opacity=".06" fill="#000" opacity=".5" d="M123.014 119.373h10.516v8.413h-10.516zM123.014 153.026h10.516v8.413h-10.516z"/><path stroke="#636262" fill-opacity=".08" fill="#000" opacity=".5" d="M123.014 113.063h10.516v6.31h-10.516zM123.014 161.439h10.516v6.31h-10.516z"/><path stroke="#636262" fill-opacity=".104" fill="#000" opacity=".5" d="M123.014 108.857h10.516v4.207h-10.516z"/><path stroke="#636262" fill-opacity=".1" fill="#000" opacity=".7" d="M123.014 167.749h10.516v5.258h-10.516z"/><path stroke="url(#q)" stroke-linecap="square" d="M2.103 53.634V19.981M4.207 53.634V19.981M6.31 53.634V19.981" transform="translate(110.394 105.702)"/><path stroke="url(#r)" stroke-linecap="square" d="M8.413 53.634V19.981" transform="translate(110.394 105.702)"/></g><g stroke-width=".5"><path d="M12.62 0h10.516v70.46H12.62c0-11.218-1.402-16.826-4.207-16.826H0V19.98h8.413c2.805 0 4.207-6.66 4.207-19.981z" stroke="#636262" fill="url(#p)" fill-rule="nonzero" transform="translate(285.332 105.702)"/><path stroke="#636262" fill-opacity=".04" fill="#000" opacity=".5" d="M297.952 127.786h10.516v12.62h-10.516zM297.952 140.406h10.516v12.62h-10.516z"/><path stroke="#636262" fill-opacity=".06" fill="#000" opacity=".5" d="M297.952 119.373h10.516v8.413h-10.516zM297.952 153.026h10.516v8.413h-10.516z"/><path stroke="#636262" fill-opacity=".08" fill="#000" opacity=".5" d="M297.952 113.063h10.516v6.31h-10.516zM297.952 161.439h10.516v6.31h-10.516z"/><path stroke="#636262" fill-opacity=".104" fill="#000" opacity=".5" d="M297.952 108.857h10.516v4.207h-10.516z"/><path stroke="#636262" fill-opacity=".1" fill="#000" opacity=".7" d="M297.952 167.749h10.516v5.258h-10.516z"/><path stroke="url(#q)" stroke-linecap="square" d="M2.103 53.634V19.981M4.207 53.634V19.981M6.31 53.634V19.981" transform="translate(285.332 105.702)"/><path stroke="url(#r)" stroke-linecap="square" d="M8.413 53.634V19.981" transform="translate(285.332 105.702)"/></g><g stroke-width=".5"><path d="M12.62 0h10.516v70.46H12.62c0-11.218-1.402-16.826-4.207-16.826H0V19.98h8.413c2.805 0 4.207-6.66 4.207-19.981z" stroke="#636262" fill="url(#p)" fill-rule="nonzero" transform="translate(78.845 105.702)"/><path stroke="#636262" fill-opacity=".04" fill="#000" opacity=".5" d="M91.465 127.786h10.516v12.62H91.465zM91.465 140.406h10.516v12.62H91.465z"/><path stroke="#636262" fill-opacity=".06" fill="#000" opacity=".5" d="M91.465 119.373h10.516v8.413H91.465zM91.465 153.026h10.516v8.413H91.465z"/><path stroke="#636262" fill-opacity=".08" fill="#000" opacity=".5" d="M91.465 113.063h10.516v6.31H91.465zM91.465 161.439h10.516v6.31H91.465z"/><path stroke="#636262" fill-opacity=".104" fill="#000" opacity=".5" d="M91.465 108.857h10.516v4.207H91.465z"/><path stroke="#636262" fill-opacity=".1" fill="#000" opacity=".7" d="M91.465 167.749h10.516v5.258H91.465z"/><path stroke="url(#q)" stroke-linecap="square" d="M2.103 53.634V19.981M4.207 53.634V19.981M6.31 53.634V19.981" transform="translate(78.845 105.702)"/><path stroke="url(#r)" stroke-linecap="square" d="M8.413 53.634V19.981" transform="translate(78.845 105.702)"/></g><g stroke-width=".5"><path d="M12.62 0h10.516v70.46H12.62c0-11.218-1.402-16.826-4.207-16.826H0V19.98h8.413c2.805 0 4.207-6.66 4.207-19.981z" stroke="#636262" fill="url(#p)" fill-rule="nonzero" transform="translate(253.783 105.702)"/><path stroke="#636262" fill-opacity=".04" fill="#000" opacity=".5" d="M266.403 127.786h10.516v12.62h-10.516zM266.403 140.406h10.516v12.62h-10.516z"/><path stroke="#636262" fill-opacity=".06" fill="#000" opacity=".5" d="M266.403 119.373h10.516v8.413h-10.516zM266.403 153.026h10.516v8.413h-10.516z"/><path stroke="#636262" fill-opacity=".08" fill="#000" opacity=".5" d="M266.403 113.063h10.516v6.31h-10.516zM266.403 161.439h10.516v6.31h-10.516z"/><path stroke="#636262" fill-opacity=".104" fill="#000" opacity=".5" d="M266.403 108.857h10.516v4.207h-10.516z"/><path stroke="#636262" fill-opacity=".1" fill="#000" opacity=".7" d="M266.403 167.749h10.516v5.258h-10.516z"/><path stroke="url(#q)" stroke-linecap="square" d="M2.103 53.634V19.981M4.207 53.634V19.981M6.31 53.634V19.981" transform="translate(253.783 105.702)"/><path stroke="url(#r)" stroke-linecap="square" d="M8.413 53.634V19.981" transform="translate(253.783 105.702)"/></g><g stroke-width=".5"><path d="M12.62 0h10.516v70.46H12.62c0-11.218-1.402-16.826-4.207-16.826H0V19.98h8.413c2.805 0 4.207-6.66 4.207-19.981z" stroke="#636262" fill="url(#p)" fill-rule="nonzero" transform="translate(222.233 105.702)"/><path stroke="#636262" fill-opacity=".04" fill="#000" opacity=".5" d="M234.853 127.786h10.516v12.62h-10.516zM234.853 140.406h10.516v12.62h-10.516z"/><path stroke="#636262" fill-opacity=".06" fill="#000" opacity=".5" d="M234.853 119.373h10.516v8.413h-10.516zM234.853 153.026h10.516v8.413h-10.516z"/><path stroke="#636262" fill-opacity=".08" fill="#000" opacity=".5" d="M234.853 113.063h10.516v6.31h-10.516zM234.853 161.439h10.516v6.31h-10.516z"/><path stroke="#636262" fill-opacity=".104" fill="#000" opacity=".5" d="M234.853 108.857h10.516v4.207h-10.516z"/><path stroke="#636262" fill-opacity=".1" fill="#000" opacity=".7" d="M234.853 167.749h10.516v5.258h-10.516z"/><path stroke="url(#q)" stroke-linecap="square" d="M2.103 53.634V19.981M4.207 53.634V19.981M6.31 53.634V19.981" transform="translate(222.233 105.702)"/><path stroke="url(#r)" stroke-linecap="square" d="M8.413 53.634V19.981" transform="translate(222.233 105.702)"/></g><path d="M1027.318 153.026a5.259 5.259 0 015.232 4.732h.026v23.662a3.155 3.155 0 003.155 3.155v2.103a5.259 5.259 0 01-5.229-4.701 2.087 2.087 0 01-.03-.356v-23.337a3.155 3.155 0 10-6.309 0c0 1.402.701 2.804 2.103 4.207h-6.31c1.403-1.403 2.104-2.805 2.104-4.207l.004-.217a5.258 5.258 0 015.254-5.041zM1058.867 153.026a5.259 5.259 0 015.232 4.732h.026v23.662a3.155 3.155 0 003.155 3.155v2.103a5.259 5.259 0 01-5.229-4.701 2.087 2.087 0 01-.029-.356v-23.337a3.155 3.155 0 10-6.31 0c0 1.402.701 2.804 2.103 4.207h-6.31c1.403-1.403 2.104-2.805 2.104-4.207l.004-.217a5.258 5.258 0 015.254-5.041z" fill="url(#v)" transform="matrix(1 0 0 -1 -783 339.704)"/><path d="M1126.172 169.753c1.62 2.123 3.155 11.847 3.155 14.723 0 6.97-5.65 12.62-12.62 12.62-6.97 0-12.62-5.65-12.62-12.62 0-.778.103-2.024.285-3.475a9.449 9.449 0 00-7.646-3.886c-4.796 0-8.76 3.568-9.38 8.195.22 1.124.894 2.249 2.019 3.373h-6.31c1.402-1.402 2.103-2.804 2.103-4.207h.19c.99-5.384 5.708-9.464 11.378-9.464a11.53 11.53 0 018.047 3.257c.585-3.513 1.489-7.27 2.47-8.516 2.31-2.932 5.44 2.104 9.464 2.104 4.094 0 7.16-5.124 9.465-2.104z" fill="url(#E)" transform="matrix(1 0 0 -1 -783 365.897)"/><path d="M930.451 181.747v41.411l22.636-6.173v-29.064l-22.636-6.174z" stroke="#636262" stroke-width=".5" fill="url(#F)" fill-rule="nonzero" transform="matrix(0 -1 -1 0 361.222 1144.222)"/><path d="M1105.39 181.747v41.411l22.635-6.173v-29.064l-22.636-6.174z" stroke="#636262" stroke-width=".5" fill="url(#F)" fill-rule="nonzero" transform="matrix(0 -1 -1 0 536.16 1319.16)"/><path d="M21.19-12.561h-6.838V20.17h6.837V-12.56z" transform="rotate(90 -10.951 48.455)" fill="url(#G)" fill-rule="nonzero" stroke="#636262" stroke-width=".5"/><path d="M21.19-12.561h-6.838V20.17h6.837V-12.56z" transform="rotate(90 76.637 136.044)" fill="url(#G)" fill-rule="nonzero" stroke="#636262" stroke-width=".5"/><path d="M20.801-12.697h-6.837v32.731H20.8v-32.731z" transform="matrix(0 1 1 0 156.298 199.033)" fill="url(#G)" fill-rule="nonzero" stroke="#636262" stroke-width=".5"/><path d="M20.801-12.697h-6.837v32.731H20.8v-32.731z" transform="matrix(0 1 1 0 330.558 199.033)" fill="url(#G)" fill-rule="nonzero" stroke="#636262" stroke-width=".5"/><path d="M980.244 70.274v41.41l22.636-6.173V76.447l-22.636-6.173z" stroke="#636262" stroke-width=".5" fill="url(#F)" fill-rule="nonzero" transform="rotate(90 600.062 -300.521)"/><path d="M805.306 70.274v41.41l22.636-6.173V76.447l-22.636-6.173z" stroke="#636262" stroke-width=".5" fill="url(#F)" fill-rule="nonzero" transform="rotate(90 425.124 -300.521)"/></g></g></svg>