<svg width="561" height="480" xmlns="http://www.w3.org/2000/svg" xmlns:xlink="http://www.w3.org/1999/xlink"><defs><filter x="-1.3%" y="-1.3%" width="102.6%" height="102.6%" filterUnits="objectBoundingBox" id="c"><feGaussianBlur stdDeviation="4.5" in="SourceAlpha" result="shadowBlurInner1"/><feOffset dy="1" in="shadowBlurInner1" result="shadowOffsetInner1"/><feComposite in="shadowOffsetInner1" in2="SourceAlpha" operator="arithmetic" k2="-1" k3="1" result="shadowInnerInner1"/><feColorMatrix values="0 0 0 0 0 0 0 0 0 0 0 0 0 0 0 0 0 0 0.301737325 0" in="shadowInnerInner1"/></filter><filter x="-2.8%" y="-2.3%" width="105.2%" height="105.2%" filterUnits="objectBoundingBox" id="d"><feMorphology radius=".5" operator="dilate" in="SourceAlpha" result="shadowSpreadOuter1"/><feOffset dx="-1" dy="1" in="shadowSpreadOuter1" result="shadowOffsetOuter1"/><feGaussianBlur stdDeviation="3" in="shadowOffsetOuter1" result="shadowBlurOuter1"/><feComposite in="shadowBlurOuter1" in2="SourceAlpha" operator="out" result="shadowBlurOuter1"/><feColorMatrix values="0 0 0 0 0 0 0 0 0 0 0 0 0 0 0 0 0 0 0.230550699 0" in="shadowBlurOuter1"/></filter><filter x="-3.8%" y="-3.8%" width="107.6%" height="107.6%" filterUnits="objectBoundingBox" id="h"><feGaussianBlur stdDeviation="4.5" in="SourceAlpha" result="shadowBlurInner1"/><feOffset dy="1" in="shadowBlurInner1" result="shadowOffsetInner1"/><feComposite in="shadowOffsetInner1" in2="SourceAlpha" operator="arithmetic" k2="-1" k3="1" result="shadowInnerInner1"/><feColorMatrix values="0 0 0 0 0 0 0 0 0 0 0 0 0 0 0 0 0 0 0.301737325 0" in="shadowInnerInner1"/></filter><filter x="-8.3%" y="-6.8%" width="115%" height="115%" filterUnits="objectBoundingBox" id="i"><feMorphology radius=".5" operator="dilate" in="SourceAlpha" result="shadowSpreadOuter1"/><feOffset dx="-1" dy="1" in="shadowSpreadOuter1" result="shadowOffsetOuter1"/><feGaussianBlur stdDeviation="3" in="shadowOffsetOuter1" result="shadowBlurOuter1"/><feComposite in="shadowBlurOuter1" in2="SourceAlpha" operator="out" result="shadowBlurOuter1"/><feColorMatrix values="0 0 0 0 0 0 0 0 0 0 0 0 0 0 0 0 0 0 0.230550699 0" in="shadowBlurOuter1"/></filter><linearGradient x1="50.034%" y1="0%" x2="50.034%" y2="100%" id="a"><stop stop-color="#363D43" offset="0%"/><stop stop-color="#61676C" offset="49.557%"/><stop stop-color="#363D43" offset="100%"/></linearGradient><linearGradient x1=".453%" y1="50.403%" x2="99.615%" y2="50.403%" id="f"><stop stop-color="#AFACB1" offset="0%"/><stop stop-color="#BAB9BC" offset="28.499%"/><stop stop-color="#D9D8DA" offset="42.07%"/><stop stop-color="#F3F4F4" offset="58.437%"/><stop stop-color="#958F95" offset="100%"/></linearGradient><circle id="b" cx="366.544" cy="195.5" r="191.5"/><circle id="g" cx="66.5" cy="66.5" r="65.5"/><path d="M365.044 0c-107.143 0-194 86.857-194 194s86.857 194 194 194c107.144 0 194-86.857 194-194s-86.856-194-194-194zm0 4c104.934 0 190 85.066 190 190s-85.066 190-190 190-190-85.066-190-190 85.066-190 190-190z" id="e"/><path d="M66.5 0C29.773 0 0 29.773 0 66.5 0 103.227 29.773 133 66.5 133c36.727 0 66.5-29.773 66.5-66.5C133 29.773 103.227 0 66.5 0zm0 2C102.122 2 131 30.878 131 66.5S102.122 131 66.5 131 2 102.122 2 66.5 30.878 2 66.5 2z" id="j"/></defs><g transform="translate(-4 5)" fill="none" fill-rule="evenodd"><g fill-rule="nonzero"><use fill="url(#a)" xlink:href="#b"/><use fill="#000" filter="url(#c)" xlink:href="#b"/></g><g fill-rule="nonzero"><use fill="#000" filter="url(#d)" xlink:href="#e"/><path stroke="#7F7F7F" stroke-width=".5" d="M365.044-.25c53.641 0 102.204 21.742 137.356 56.895 35.152 35.152 56.894 83.714 56.894 137.355 0 53.64-21.742 102.203-56.894 137.355-35.152 35.153-83.715 56.895-137.356 56.895-53.64 0-102.203-21.742-137.355-56.895-35.152-35.152-56.895-83.714-56.895-137.355 0-53.64 21.743-102.203 56.895-137.355C262.84 21.492 311.404-.25 365.044-.25zm0 4.5c-52.398 0-99.835 21.238-134.173 55.576-34.338 34.338-55.577 81.776-55.577 134.174 0 52.398 21.239 99.836 55.577 134.174 34.338 34.338 81.775 55.576 134.173 55.576 52.398 0 99.836-21.238 134.174-55.576 34.338-34.338 55.576-81.776 55.576-134.174 0-52.398-21.238-99.836-55.576-134.174C464.88 25.488 417.442 4.25 365.044 4.25z" fill="url(#f)" fill-rule="evenodd"/></g><circle stroke="#9EA1A4" cx="366.544" cy="195.5" r="123.5"/><circle stroke="#9EA1A4" cx="366.544" cy="195.5" r="85.5"/><circle stroke="#F0F0F0" stroke-width="1.5" cx="365.544" cy="194.5" r="143.5"/><g fill-rule="nonzero"><g transform="translate(300.044 129)"><use fill="url(#a)" xlink:href="#g"/><use fill="#000" filter="url(#h)" xlink:href="#g"/></g><g transform="translate(300.044 129)"><use fill="#000" filter="url(#i)" xlink:href="#j"/><path stroke="#7F7F7F" stroke-width=".5" d="M66.5-.25c18.433 0 35.12 7.471 47.2 19.55 12.079 12.08 19.55 28.767 19.55 47.2 0 18.433-7.471 35.12-19.55 47.2-12.08 12.079-28.767 19.55-47.2 19.55-18.433 0-35.12-7.471-47.2-19.55C7.222 101.62-.25 84.932-.25 66.5c0-18.433 7.471-35.12 19.55-47.2C31.38 7.222 48.068-.25 66.5-.25zm0 2.5c-17.742 0-33.805 7.191-45.432 18.818C9.441 32.695 2.25 48.758 2.25 66.5s7.191 33.805 18.818 45.432c11.627 11.627 27.69 18.818 45.432 18.818s33.805-7.191 45.432-18.818c11.627-11.627 18.818-27.69 18.818-45.432s-7.191-33.805-18.818-45.432C100.305 9.441 84.242 2.25 66.5 2.25z" fill="url(#f)" fill-rule="evenodd"/></g></g><path d="M69.044 356l-18.543-.028m-33.44-.051l-8.017-.013.5-121.908" stroke="#FFF" opacity=".5" stroke-linecap="square"/><path d="M11.044 66h58.498l.293 237.177m.041 33.635l.05 40.252m.041 33.925l.077 62.511" stroke="#9EA1A4"/><path fill="#FFF" opacity=".5" d="M5.337 61v10.142l5.98-4.288-.028-1.586zM4.266 233.771h10.142l-5.07-7.071z"/><g fill="#A1A9B4" fill-rule="nonzero"><path d="M238.831 245.191l-2.394-6.577.94-.343 2.394 6.578zM244 243.31l-2.394-6.578.94-.342 2.393 6.578zM241.369 244.268l-.958-2.631.94-.342.957 2.63zM239.932 240.321l-.958-2.63.94-.343.958 2.631z"/></g><path stroke="#9EA1A4" d="M379.544 473l-.044-25.5"/><path d="M379 414.5l.044-24V380c-1.333-1.25-2-2.416-2-3.5s.667-2.25 2-3.5v-35" stroke="#F0F0F0" stroke-width="1.5"/><path stroke="#9EA1A4" d="M223.544 473l-.044-24.5"/><path stroke="#F0F0F0" stroke-width="1.5" d="M222.5 414.5l.044-26 37-46"/><g stroke="#9EA1A4"><path d="M247.448 266.199l-3.897 2.25M260.005 258.949l-2.598 1.5"/></g><circle stroke="#F0F0F0" stroke-width="1.5" cx="366.544" cy="195.5" r="108.5"/><path stroke="#9EA1A4" d="M535.544 473l-.044-24.5"/><path d="M535 414l.044-26-47.857-52.692c-2.096.494-3.557.286-4.383-.623-.826-.91-1.042-2.549-.65-4.917l-20.878-22.988c-2.42.137-4.024-.228-4.812-1.096-.788-.868-.93-2.424-.423-4.668l-7.582-8.347c-2.093.359-3.505.136-4.236-.669-.731-.805-.84-2.256-.326-4.354L436.044 279" stroke="#F0F0F0" stroke-width="1.5"/><path stroke="#9EA1A4" d="M70.544 473h465.5"/><g stroke="#9EA1A4"><path d="M348.617 53.066l1.223 9.96m32.598 265.487l1.034 8.421M376.02 52.348l-1.41 20.157m-17.236 246.483l-1.305 18.664M403.056 56.873l-2.45 9.143m-69.123 257.968l-2.45 9.143M428.731 66.472l-8.575 17.582M311.64 306.546l-8.283 16.982M452.104 80.795l-6.138 8.146M285.702 301.618l-5.717 7.587M472.314 99.314l-14.437 13M274.212 277.686l-14.437 13M488.62 121.35l-7.62 4.577M500.42 146.091l-17.844 6.495m-232.46 84.609l-6.102 2.22m-6.985 2.543l-5.36 1.95M507.284 172.63l-9.713 1.538m-263.053 41.664l-9.713 1.538M508.957 199.99l-18.907-.66m-247.013-8.626l-19.905-.695M505.38 227.168l-9.338-2.156m-260.47-60.134l-8.863-2.046M496.681 253.163l-17.149-7.635M253.994 145.112l-18.587-8.275M483.183 277.021l-7.72-5.405M256.961 118.619l-8.055-5.64M465.38 297.866l-12.872-13.33M280.563 106.481l-13.855-14.348M443.928 314.93l-4.843-7.457M294.214 84.39l-6.053-9.32M414.953 329.376l-6.334-17.403M324.01 79.513l-6.874-18.889"/></g><g stroke="#9EA1A4"><path d="M366.71 92.377v-4.5M366.71 106.877v-3M410.205 101.795l2.181-3.936M403.175 114.477l1.454-2.624M442.333 125.53l3.126-3.236M432.26 135.961l2.084-2.158M464.06 162.718l4.2-1.613M450.523 167.914l2.8-1.075M468.546 207.28l4.467.549M454.154 205.513l2.978.366M455.83 246.894l4.045 1.973M442.798 240.537l2.696 1.316M428.014 278.388l2.832 3.497M418.889 267.12l1.888 2.33M387.158 296.377l.782 4.432M384.64 282.097l.521 2.955"/><g><path d="M345.203 296.268l-1.013 4.385M348.464 282.14l-.675 2.923"/></g><g><path d="M306.589 279.366l-2.645 3.64M315.112 267.635l-1.764 2.428"/></g><g><path d="M277.425 246.753l-3.935 2.182M290.107 239.723l-2.623 1.455"/></g><g><path d="M264.045 205.52l-4.5.078M278.543 205.267l-3 .052"/></g><g><path d="M268.421 163.51l-4.28-1.391M282.211 167.99l-2.853-.927"/></g><g><path d="M288.796 127.752l-3.64-2.645M300.527 136.275l-2.427-1.763"/></g><g><path d="M323.062 101.996l-2.25-3.897M330.312 114.553l-1.5-2.598"/></g></g><g stroke="#9EA1A4"><path d="M299.248 40.339l1.759 4.142M293.583 26.992l1.172 2.761"/></g><g stroke="#9EA1A4"><path d="M221.864 107.721l3.686 2.582M209.986 99.405l2.457 1.72"/></g><g stroke="#9EA1A4"><path d="M533.214 179.981l-4.476.47M547.634 178.465l-2.983.314"/></g><g stroke="#9EA1A4"><path d="M492.1 84.516l-3.344 3.01M502.875 74.813l-2.23 2.008"/></g><g stroke="#9EA1A4"><path d="M403.941 31.119l-1.24 4.326M407.938 17.18l-.827 2.884"/></g><g stroke="#9EA1A4"><path d="M509.838 280.494l-3.936-2.181M522.52 287.524l-2.624-1.454"/></g><g stroke="#9EA1A4"><path d="M431.86 348.988l-1.758-4.142M437.526 362.335l-1.172-2.761"/></g><g stroke="#9EA1A4"><path d="M328.089 358.081l.78-4.431M325.57 372.361l.522-2.954"/></g><g stroke="#9EA1A4"><path d="M239.68 305.405l3.29-3.07M229.075 315.294l2.194-2.046"/></g><g stroke="#9EA1A4"><path d="M198.296 209.026l4.483-.392M183.851 210.29l2.989-.261"/></g><path d="M334.617 36.075c-22.4 4.358-42.873 13.2-60.628 25.436m-26.327 22.692a162.463 162.463 0 00-20.416 27.003 161.922 161.922 0 00-14.557 31.2m-7.511 32.88a161.01 161.01 0 00-.545 32.948 163.827 163.827 0 006.757 34.516m13.152 30.637c11.073 19.81 26.121 36.855 43.908 50.238m28.718 17.28c19.97 9.357 42.003 14.702 64.908 15.17m34.05-2.907a161.518 161.518 0 0032.757-9.973 160.337 160.337 0 0028.973-16.036m25.693-22.285a162.47 162.47 0 0020.599-27.358 161.806 161.806 0 0014.025-29.994m7.722-33.21a160.996 160.996 0 00.598-33.354 163.826 163.826 0 00-6.552-33.872m-13.114-30.864a160.847 160.847 0 00-19.239-27.463A162.172 162.172 0 00463.62 66.26m-29.74-18.032c-19.989-9.353-42.044-14.688-64.97-15.136" stroke="#9EA1A4"/><path d="M365.544 377c100.792 0 182.5-81.708 182.5-182.5S466.336 12 365.544 12c-54.013 0-102.547 23.465-135.961 60.757a183.07 183.07 0 00-22.104 30.46c-15.54 26.851-24.435 58.028-24.435 91.283 0 100.792 81.708 182.5 182.5 182.5z" stroke="#F0F0F0" stroke-width="1.5"/></g></svg>