<svg width="118" height="137" xmlns="http://www.w3.org/2000/svg" xmlns:xlink="http://www.w3.org/1999/xlink"><defs><linearGradient x1="50.034%" y1="99.984%" x2="50.034%" y2="-.004%" id="a"><stop stop-color="#8B878D" offset="0%"/><stop stop-color="#9F9CA1" offset="13.66%"/><stop stop-color="#D9D8DA" offset="42.07%"/><stop stop-color="#F3F4F4" offset="51.52%"/><stop stop-color="#807B80" offset="100%"/></linearGradient><linearGradient x1="50.034%" y1="99.984%" x2="50.034%" y2="-.004%" id="b"><stop stop-color="#8B878D" offset="0%"/><stop stop-color="#9F9CA1" offset="13.66%"/><stop stop-color="#D9D8DA" offset="42.07%"/><stop stop-color="#F3F4F4" offset="51.52%"/><stop stop-color="#807B80" offset="100%"/></linearGradient><linearGradient x1="50.034%" y1="93.183%" x2="50.034%" y2="-.004%" id="c"><stop stop-color="#AEAAAD" offset="2.924%"/><stop stop-color="#F3F4F4" offset="51.52%"/><stop stop-color="#AEAAAD" offset="95.769%"/></linearGradient><linearGradient x1="50.034%" y1="99.984%" x2="50.034%" y2="-.004%" id="e"><stop stop-color="#8B878D" offset="0%"/><stop stop-color="#9F9CA1" offset="13.66%"/><stop stop-color="#D9D8DA" offset="42.07%"/><stop stop-color="#F3F4F4" offset="51.52%"/><stop stop-color="#807B80" offset="100%"/></linearGradient><linearGradient x1="50.034%" y1="99.984%" x2="50.034%" y2="-.004%" id="h"><stop stop-color="#8B878D" offset="0%"/><stop stop-color="#9F9CA1" offset="13.66%"/><stop stop-color="#D9D8DA" offset="42.07%"/><stop stop-color="#F3F4F4" offset="51.52%"/><stop stop-color="#807B80" offset="100%"/></linearGradient><path id="d" d="M0 0h12.62v42.066H0z"/><path id="g" d="M0 2.103l12.38-.308v25.24L0 27.343z"/></defs><g fill="none" fill-rule="evenodd"><path d="M195.48 71.084l6.273 8.363 7.317-.001v-4.18h14.635v4.18h51.113a4 4 0 014 4v8.726a4 4 0 01-4 4h-51.113v4.182H209.07v-4.182h-7.317l-6.273 8.363h-45.995l-6.272-8.363h-26.315a4 4 0 01-4-4v-8.725a4 4 0 014-4h26.315l6.272-8.363h45.995z" transform="translate(-247.015 .524)" fill="url(#a)" fill-rule="nonzero" stroke="#636262" stroke-width=".5"/><path d="M562.656 63.658V46.832h439.951v-.707a3.5 3.5 0 013.5-3.5h7.723a3.5 3.5 0 013.5 3.5v.706h10.517v16.827h-10.517v.706a3.5 3.5 0 01-3.5 3.5h-7.723a3.5 3.5 0 01-3.5-3.5v-.707H562.656z" stroke="#636262" stroke-width=".5" fill="url(#b)" fill-rule="nonzero" transform="translate(-555.61 .213)"/><path fill="#004C97" d="M15.46 44.941h10.516v6.31H15.46zM15.46 59.664h10.516v6.31H15.46zM55.422 44.941h10.516v6.31H55.422zM55.422 59.664h10.516v6.31H55.422z"/><path d="M0 5.282h74.321l.001-4.206h14.723l-.002 4.206h1.078a7.337 7.337 0 017.337 7.338v2.151a7.337 7.337 0 01-7.337 7.338h-1.078l.002 4.206H74.322v-4.207H0" stroke="#636262" stroke-width=".5" fill="url(#c)" fill-rule="nonzero" transform="translate(4.236 74.686)"/><path d="M93.28 75.762v8.413h-4.206v-8.413h4.207zm-10.516 0v8.413h-4.206v-8.413h4.206zM93.28 92.588v8.414h-4.206v-8.414h4.207zm-10.516 0v8.414h-4.206v-8.414h4.206zM15.46 77.865h10.516v6.31H15.46zM15.46 92.588h10.516v6.31H15.46zM55.422 77.865h10.516v6.31H55.422zM55.422 92.588h10.516v6.31H55.422z" fill="#004C97"/><g><g transform="translate(34.385 35.065)"><mask id="f" fill="#fff"><use xlink:href="#d"/></mask><use fill="url(#e)" fill-rule="nonzero" xlink:href="#d"/><path fill="#7F7F7F" fill-rule="nonzero" mask="url(#f)" transform="matrix(-1 0 0 1 11.505 0)" d="M-7.092-2.103l-.62.743 26.31 31.571.619-.743zM-7.092 2.103l-.62.744 26.31 31.571.619-.744zM-7.092 6.31l-.62.743 26.31 31.572.619-.744zM-7.092 10.516l-.62.744 26.31 31.571.619-.743zM-7.092 14.723l-.62.744 26.31 31.57.619-.743zM-7.092 18.93l-.62.743 26.31 31.571.619-.743zM-7.092 23.136l-.62.744 26.31 31.57.619-.743zM-7.092 27.343l-.62.743 26.31 31.571.619-.743zM-7.092-6.31l-.62.744 26.31 31.57.619-.743zM-7.092-10.516l-.62.743 26.31 31.571.619-.743zM-7.092-14.723l-.62.744 26.31 31.57.619-.743zM-7.092-18.93l-.62.744 26.31 31.571.619-.743z"/></g><path stroke="#636262" stroke-width=".5" d="M34.385 35.065h12.62v42.066h-12.62z"/></g><g><g transform="translate(34.389 73.586)"><mask id="i" fill="#fff"><use xlink:href="#g"/></mask><use fill="url(#h)" fill-rule="nonzero" xlink:href="#g"/><path fill="#7F7F7F" fill-rule="nonzero" mask="url(#i)" d="M-6.433-6.31l-.578.744 24.555 31.57.579-.743zM-6.433-2.103l-.578.743 24.555 31.571.579-.743zM-6.433 2.103l-.578.744 24.555 31.571.579-.744zM-6.433 6.31l-.578.743 24.555 31.572.579-.744zM-6.433 10.516l-.578.744 24.555 31.571.579-.743zM-6.433 14.723l-.578.744 24.555 31.57.579-.743zM-6.433 18.93l-.578.743 24.555 31.571.579-.743zM-6.433 23.136l-.578.744 24.555 31.57.579-.743zM-6.433-10.516l-.578.743 24.555 31.571.579-.743zM-6.433-14.723l-.578.744 24.555 31.57.579-.743zM-6.433-18.93l-.578.744 24.555 31.571.579-.743zM-6.433-23.136l-.578.744 24.555 31.57.579-.743z"/></g><path stroke="#636262" stroke-width=".5" d="M34.389 75.689h12.62v25.239h-12.62z"/></g></g></svg>