<svg width="796" height="419" xmlns="http://www.w3.org/2000/svg" xmlns:xlink="http://www.w3.org/1999/xlink"><defs><linearGradient x1="50.034%" y1="99.984%" x2="50.034%" y2="-.004%" id="a"><stop stop-color="#8B878D" offset="0%"/><stop stop-color="#9F9CA1" offset="13.66%"/><stop stop-color="#D9D8DA" offset="42.07%"/><stop stop-color="#F3F4F4" offset="51.52%"/><stop stop-color="#807B80" offset="100%"/></linearGradient><linearGradient x1="50.034%" y1="99.984%" x2="50.034%" y2="-.004%" id="b"><stop stop-color="#8B878D" offset="0%"/><stop stop-color="#9F9CA1" offset="13.66%"/><stop stop-color="#D9D8DA" offset="42.07%"/><stop stop-color="#F3F4F4" offset="51.52%"/><stop stop-color="#807B80" offset="100%"/></linearGradient><linearGradient x1="50.034%" y1="99.984%" x2="50.034%" y2="-.004%" id="c"><stop stop-color="#8B878D" offset="0%"/><stop stop-color="#9F9CA1" offset="13.66%"/><stop stop-color="#D9D8DA" offset="42.07%"/><stop stop-color="#F3F4F4" offset="51.52%"/><stop stop-color="#807B80" offset="100%"/></linearGradient><linearGradient x1="50.034%" y1="99.984%" x2="50.034%" y2="-.004%" id="d"><stop stop-color="#8B878D" offset="0%"/><stop stop-color="#9F9CA1" offset="13.66%"/><stop stop-color="#D9D8DA" offset="42.07%"/><stop stop-color="#F3F4F4" offset="51.52%"/><stop stop-color="#807B80" offset="100%"/></linearGradient><linearGradient x1="50.034%" y1="99.984%" x2="50.034%" y2="-.004%" id="e"><stop stop-color="#8B878D" offset="0%"/><stop stop-color="#9F9CA1" offset="13.66%"/><stop stop-color="#D9D8DA" offset="42.07%"/><stop stop-color="#F3F4F4" offset="51.52%"/><stop stop-color="#807B80" offset="100%"/></linearGradient><linearGradient x1="50.034%" y1="99.725%" x2="50.034%" y2="-.004%" id="f"><stop stop-color="#656266" offset="0%"/><stop stop-color="#9F9CA1" offset="13.66%"/><stop stop-color="#D9D8DA" offset="42.07%"/><stop stop-color="#F3F4F4" offset="51.52%"/><stop stop-color="#807B80" offset="100%"/></linearGradient><linearGradient x1="50.034%" y1="99.725%" x2="50.034%" y2="-.004%" id="g"><stop stop-color="#656266" offset="0%"/><stop stop-color="#9F9CA1" offset="13.66%"/><stop stop-color="#D9D8DA" offset="42.07%"/><stop stop-color="#F3F4F4" offset="51.52%"/><stop stop-color="#807B80" offset="100%"/></linearGradient><linearGradient x1="50.034%" y1="99.725%" x2="50.034%" y2="-.004%" id="h"><stop stop-color="#656266" offset="0%"/><stop stop-color="#9F9CA1" offset="13.66%"/><stop stop-color="#D9D8DA" offset="42.07%"/><stop stop-color="#F3F4F4" offset="51.52%"/><stop stop-color="#807B80" offset="100%"/></linearGradient><linearGradient x1="50.034%" y1="99.984%" x2="50.034%" y2="-.004%" id="i"><stop stop-color="#212F42" offset="0%"/><stop stop-color="#004C97" offset="13.66%"/><stop stop-color="#004C97" offset="42.07%"/><stop stop-color="#004C97" offset="51.52%"/><stop stop-color="#213042" offset="100%"/></linearGradient><linearGradient x1="50.034%" y1="99.725%" x2="50.034%" y2="-.004%" id="j"><stop stop-color="#656266" offset="0%"/><stop stop-color="#9F9CA1" offset="13.66%"/><stop stop-color="#D9D8DA" offset="42.07%"/><stop stop-color="#F3F4F4" offset="51.52%"/><stop stop-color="#807B80" offset="100%"/></linearGradient><linearGradient x1="50.034%" y1="99.725%" x2="50.034%" y2="-.004%" id="k"><stop stop-color="#656266" offset="0%"/><stop stop-color="#9F9CA1" offset="13.66%"/><stop stop-color="#D9D8DA" offset="42.07%"/><stop stop-color="#F3F4F4" offset="51.52%"/><stop stop-color="#807B80" offset="100%"/></linearGradient><linearGradient x1="50%" y1="100%" x2="50%" y2="0%" id="l"><stop stop-color="#223247" stop-opacity="0" offset="0%"/><stop stop-color="#223247" offset="100%"/></linearGradient><linearGradient x1="50%" y1="100%" x2="50%" y2="0%" id="m"><stop stop-color="#223247" stop-opacity="0" offset="0%"/><stop stop-color="#223247" offset="100%"/></linearGradient><linearGradient x1="50.034%" y1="-.004%" x2="50.034%" y2="99.725%" id="n"><stop stop-color="#8C8C8C" offset="0%"/><stop stop-color="#F3F4F4" offset="100%"/></linearGradient><linearGradient x1="50.034%" y1="-.004%" x2="50.034%" y2="99.725%" id="o"><stop stop-color="#8C8C8C" offset="0%"/><stop stop-color="#F3F4F4" offset="100%"/></linearGradient><linearGradient x1="50.034%" y1="-.004%" x2="50.034%" y2="99.725%" id="p"><stop stop-color="#8C8C8C" offset="0%"/><stop stop-color="#F3F4F4" offset="100%"/></linearGradient><linearGradient x1="50.034%" y1="-.004%" x2="50.034%" y2="99.725%" id="q"><stop stop-color="#8C8C8C" offset="0%"/><stop stop-color="#D2D2D2" offset="100%"/></linearGradient><linearGradient x1="100%" y1="50.001%" x2="1.138%" y2="50%" id="r"><stop stop-color="#2F3236" offset="0%"/><stop stop-color="#D9D8DA" offset="50.176%"/><stop stop-color="#2F3236" offset="100%"/></linearGradient><linearGradient x1="50.034%" y1="99.984%" x2="50.034%" y2="-.004%" id="s"><stop stop-color="#8B878D" offset="0%"/><stop stop-color="#9F9CA1" offset="13.66%"/><stop stop-color="#D9D8DA" offset="42.07%"/><stop stop-color="#F3F4F4" offset="51.52%"/><stop stop-color="#807B80" offset="100%"/></linearGradient><linearGradient x1="50.034%" y1="99.984%" x2="50.034%" y2="-.004%" id="t"><stop stop-color="#8B878D" offset="0%"/><stop stop-color="#9F9CA1" offset="13.66%"/><stop stop-color="#D9D8DA" offset="42.07%"/><stop stop-color="#F3F4F4" offset="51.52%"/><stop stop-color="#807B80" offset="100%"/></linearGradient><linearGradient x1=".453%" y1="50.403%" x2="99.615%" y2="50.403%" id="w"><stop stop-color="#AFACB1" offset="0%"/><stop stop-color="#C2C2C2" offset="47.376%"/><stop stop-color="#958F95" offset="100%"/></linearGradient><linearGradient x1="50.034%" y1="-.004%" x2="50.034%" y2="99.725%" id="x"><stop stop-color="#8C8C8C" offset="0%"/><stop stop-color="#F3F4F4" offset="100%"/></linearGradient><linearGradient x1="50.034%" y1="-.004%" x2="50.034%" y2="99.725%" id="y"><stop stop-color="#8C8C8C" offset="0%"/><stop stop-color="#F3F4F4" offset="100%"/></linearGradient><linearGradient x1="50.034%" y1="-.004%" x2="50.034%" y2="99.725%" id="z"><stop stop-color="#8C8C8C" offset="0%"/><stop stop-color="#F3F4F4" offset="100%"/></linearGradient><linearGradient x1="50.034%" y1="-.004%" x2="50.034%" y2="99.725%" id="A"><stop stop-color="#8C8C8C" offset="0%"/><stop stop-color="#F3F4F4" offset="100%"/></linearGradient><linearGradient x1="100%" y1="50.001%" x2="1.138%" y2="50%" id="B"><stop stop-color="#2F3236" offset="0%"/><stop stop-color="#D9D8DA" offset="50.176%"/><stop stop-color="#2F3236" offset="100%"/></linearGradient><linearGradient x1="50%" y1="100%" x2="50%" y2="0%" id="D"><stop stop-color="#223247" stop-opacity="0" offset="0%"/><stop stop-color="#223247" offset="100%"/></linearGradient><linearGradient x1="50.034%" y1=".822%" x2="50.034%" y2="99.984%" id="G"><stop stop-color="#AFACB1" stop-opacity=".701" offset="0%"/><stop stop-color="#958F95" stop-opacity=".1" offset="100%"/></linearGradient><linearGradient x1="50.034%" y1=".822%" x2="50.034%" y2="99.984%" id="J"><stop stop-color="#AFACB1" stop-opacity=".701" offset="0%"/><stop stop-color="#958F95" stop-opacity=".1" offset="100%"/></linearGradient><linearGradient x1="50.034%" y1=".822%" x2="50.034%" y2="99.984%" id="O"><stop stop-color="#AFACB1" stop-opacity=".701" offset="0%"/><stop stop-color="#958F95" stop-opacity=".1" offset="100%"/></linearGradient><linearGradient x1="50.034%" y1=".822%" x2="50.034%" y2="99.984%" id="R"><stop stop-color="#AFACB1" stop-opacity=".701" offset="0%"/><stop stop-color="#958F95" stop-opacity=".1" offset="100%"/></linearGradient><linearGradient x1="50.034%" y1=".822%" x2="50.034%" y2="99.984%" id="U"><stop stop-color="#AFACB1" stop-opacity=".701" offset="0%"/><stop stop-color="#958F95" stop-opacity=".1" offset="100%"/></linearGradient><linearGradient x1="50.034%" y1=".822%" x2="50.034%" y2="99.984%" id="X"><stop stop-color="#AFACB1" stop-opacity=".701" offset="0%"/><stop stop-color="#958F95" stop-opacity=".1" offset="100%"/></linearGradient><linearGradient x1="50.034%" y1=".822%" x2="50.034%" y2="99.984%" id="aa"><stop stop-color="#AFACB1" stop-opacity=".701" offset="0%"/><stop stop-color="#958F95" stop-opacity=".1" offset="100%"/></linearGradient><linearGradient x1="50.034%" y1=".822%" x2="50.034%" y2="99.984%" id="al"><stop stop-color="#AFACB1" stop-opacity=".701" offset="0%"/><stop stop-color="#958F95" stop-opacity=".1" offset="100%"/></linearGradient><linearGradient x1="50.034%" y1=".822%" x2="50.034%" y2="99.984%" id="ao"><stop stop-color="#AFACB1" stop-opacity=".701" offset="0%"/><stop stop-color="#958F95" stop-opacity=".1" offset="100%"/></linearGradient><linearGradient x1="50.034%" y1=".822%" x2="50.034%" y2="99.984%" id="ar"><stop stop-color="#AFACB1" stop-opacity=".701" offset="0%"/><stop stop-color="#958F95" stop-opacity=".1" offset="100%"/></linearGradient><linearGradient x1="50.034%" y1=".822%" x2="50.034%" y2="99.984%" id="au"><stop stop-color="#AFACB1" stop-opacity=".701" offset="0%"/><stop stop-color="#958F95" stop-opacity=".1" offset="100%"/></linearGradient><linearGradient x1="50.034%" y1=".822%" x2="50.034%" y2="99.984%" id="az"><stop stop-color="#AFACB1" stop-opacity=".701" offset="0%"/><stop stop-color="#958F95" stop-opacity=".1" offset="100%"/></linearGradient><linearGradient x1="50.034%" y1=".822%" x2="50.034%" y2="99.984%" id="aC"><stop stop-color="#AFACB1" stop-opacity=".701" offset="0%"/><stop stop-color="#958F95" stop-opacity=".1" offset="100%"/></linearGradient><linearGradient x1="50.034%" y1=".822%" x2="50.034%" y2="99.984%" id="aF"><stop stop-color="#AFACB1" stop-opacity=".701" offset="0%"/><stop stop-color="#958F95" stop-opacity=".1" offset="100%"/></linearGradient><linearGradient x1="50.034%" y1="114.901%" x2="50.034%" y2="-16.677%" id="aL"><stop stop-color="#363D43" offset="0%"/><stop stop-color="#82888D" offset="52.238%"/><stop stop-color="#363D43" offset="100%"/></linearGradient><linearGradient x1="1.504%" y1="0%" x2="98.496%" y2="127.532%" id="aP"><stop stop-color="#5E5D5E" offset="0%"/><stop stop-color="#BEBEBE" offset="47.838%"/><stop stop-color="#5E5D5E" offset="100%"/></linearGradient><linearGradient x1="50%" y1="0%" x2="50%" y2="100%" id="aQ"><stop stop-color="#BDD3EB" offset="0%"/><stop stop-color="#93C5DE" offset="100%"/></linearGradient><linearGradient x1="50%" y1="0%" x2="50%" y2="100%" id="aT"><stop stop-color="#BDD3EB" offset="0%"/><stop stop-color="#93C5DE" offset="100%"/></linearGradient><linearGradient x1="50%" y1="0%" x2="50%" y2="100%" id="aV"><stop stop-color="#BDD3EB" offset="0%"/><stop stop-color="#93C5DE" offset="100%"/></linearGradient><linearGradient x1=".453%" y1="50.403%" x2="99.615%" y2="50.403%" id="aZ"><stop stop-color="#AFACB1" offset="0%"/><stop stop-color="#BAB9BC" offset="28.499%"/><stop stop-color="#D9D8DA" offset="42.07%"/><stop stop-color="#F3F4F4" offset="58.437%"/><stop stop-color="#958F95" offset="100%"/></linearGradient><linearGradient x1="50.034%" y1="99.984%" x2="50.034%" y2="-.004%" id="ba"><stop stop-color="#8B878D" offset="0%"/><stop stop-color="#9F9CA1" offset="13.66%"/><stop stop-color="#D9D8DA" offset="42.07%"/><stop stop-color="#F3F4F4" offset="51.52%"/><stop stop-color="#807B80" offset="100%"/></linearGradient><linearGradient x1="50.034%" y1="99.984%" x2="50.034%" y2="-.004%" id="bb"><stop stop-color="#8B878D" offset="0%"/><stop stop-color="#9F9CA1" offset="13.66%"/><stop stop-color="#D9D8DA" offset="42.07%"/><stop stop-color="#F3F4F4" offset="51.52%"/><stop stop-color="#807B80" offset="100%"/></linearGradient><linearGradient x1="50.034%" y1="99.984%" x2="50.034%" y2="-.004%" id="bc"><stop stop-color="#8B878D" offset="0%"/><stop stop-color="#9F9CA1" offset="13.66%"/><stop stop-color="#D9D8DA" offset="42.07%"/><stop stop-color="#F3F4F4" offset="51.52%"/><stop stop-color="#807B80" offset="100%"/></linearGradient><linearGradient x1="50%" y1="0%" x2="50%" y2="100%" id="bd"><stop stop-color="#636262" stop-opacity=".4" offset="0%"/><stop stop-color="#636262" offset="46.746%"/><stop stop-color="#636262" stop-opacity=".4" offset="100%"/></linearGradient><linearGradient x1="50%" y1="0%" x2="50%" y2="100%" id="be"><stop stop-color="#636262" stop-opacity=".401" offset="0%"/><stop stop-color="#636262" offset="46.746%"/><stop stop-color="#636262" stop-opacity=".4" offset="100%"/></linearGradient><linearGradient x1="50.034%" y1="99.984%" x2="50.034%" y2="-.004%" id="bg"><stop stop-color="#8B878D" offset="0%"/><stop stop-color="#9F9CA1" offset="13.66%"/><stop stop-color="#D9D8DA" offset="42.07%"/><stop stop-color="#F3F4F4" offset="51.52%"/><stop stop-color="#807B80" offset="100%"/></linearGradient><linearGradient x1="50.034%" y1="99.984%" x2="50.034%" y2="-.004%" id="bh"><stop stop-color="#623E2E" offset="0%"/><stop stop-color="#BE6941" offset="49.72%"/><stop stop-color="#623E2E" offset="100%"/></linearGradient><linearGradient x1="50.034%" y1="99.984%" x2="50.034%" y2="-.004%" id="bi"><stop stop-color="#8B878D" offset="0%"/><stop stop-color="#9F9CA1" offset="13.66%"/><stop stop-color="#D9D8DA" offset="42.07%"/><stop stop-color="#F3F4F4" offset="51.52%"/><stop stop-color="#807B80" offset="100%"/></linearGradient><linearGradient x1="50.034%" y1="99.984%" x2="50.034%" y2="-.004%" id="bj"><stop stop-color="#8B878D" offset="0%"/><stop stop-color="#9F9CA1" offset="13.66%"/><stop stop-color="#D9D8DA" offset="42.07%"/><stop stop-color="#F3F4F4" offset="51.52%"/><stop stop-color="#807B80" offset="100%"/></linearGradient><linearGradient x1="50.034%" y1="99.984%" x2="50.034%" y2="-.004%" id="bk"><stop stop-color="#8B878D" offset="0%"/><stop stop-color="#D9D8DA" offset="42.07%"/><stop stop-color="#F3F4F4" offset="51.52%"/><stop stop-color="#807B80" offset="100%"/></linearGradient><linearGradient x1="50.034%" y1="99.984%" x2="50.034%" y2="-.004%" id="bm"><stop stop-color="#8B878D" offset="0%"/><stop stop-color="#9F9CA1" offset="13.66%"/><stop stop-color="#D9D8DA" offset="42.07%"/><stop stop-color="#F3F4F4" offset="51.52%"/><stop stop-color="#807B80" offset="100%"/></linearGradient><linearGradient x1="50.034%" y1="99.984%" x2="50.034%" y2="-.004%" id="bn"><stop stop-color="#8B878D" offset="0%"/><stop stop-color="#9F9CA1" offset="13.66%"/><stop stop-color="#D9D8DA" offset="42.07%"/><stop stop-color="#F3F4F4" offset="51.52%"/><stop stop-color="#807B80" offset="100%"/></linearGradient><linearGradient x1="50.034%" y1="99.984%" x2="50.034%" y2="-.004%" id="bo"><stop stop-color="#8B878D" offset="0%"/><stop stop-color="#9F9CA1" offset="13.66%"/><stop stop-color="#D9D8DA" offset="42.07%"/><stop stop-color="#F3F4F4" offset="51.52%"/><stop stop-color="#807B80" offset="100%"/></linearGradient><linearGradient x1="50.034%" y1="99.984%" x2="50.034%" y2="-.004%" id="bp"><stop stop-color="#8B878D" offset="0%"/><stop stop-color="#9F9CA1" offset="13.66%"/><stop stop-color="#D9D8DA" offset="42.07%"/><stop stop-color="#F3F4F4" offset="51.52%"/><stop stop-color="#807B80" offset="100%"/></linearGradient><filter x="-2.5%" y="-5%" width="104.5%" height="111.1%" filterUnits="objectBoundingBox" id="u"><feOffset dx="-1" dy="1" in="SourceAlpha" result="shadowOffsetOuter1"/><feGaussianBlur stdDeviation="3" in="shadowOffsetOuter1" result="shadowBlurOuter1"/><feColorMatrix values="0 0 0 0 0 0 0 0 0 0 0 0 0 0 0 0 0 0 0.230550699 0" in="shadowBlurOuter1"/></filter><filter x="-199%" y="-41.6%" width="460.2%" height="192.9%" filterUnits="objectBoundingBox" id="E"><feOffset dx="-1" dy="1" in="SourceAlpha" result="shadowOffsetOuter1"/><feGaussianBlur stdDeviation="3" in="shadowOffsetOuter1" result="shadowBlurOuter1"/><feColorMatrix values="0 0 0 0 0 0 0 0 0 0 0 0 0 0 0 0 0 0 0.230550699 0" in="shadowBlurOuter1"/></filter><filter x="-199%" y="-39.1%" width="460.2%" height="187.3%" filterUnits="objectBoundingBox" id="H"><feOffset dx="-1" dy="1" in="SourceAlpha" result="shadowOffsetOuter1"/><feGaussianBlur stdDeviation="3" in="shadowOffsetOuter1" result="shadowBlurOuter1"/><feColorMatrix values="0 0 0 0 0 0 0 0 0 0 0 0 0 0 0 0 0 0 0.230550699 0" in="shadowBlurOuter1"/></filter><filter x="-199%" y="-39.1%" width="460.2%" height="187.3%" filterUnits="objectBoundingBox" id="K"><feOffset dx="-1" dy="1" in="SourceAlpha" result="shadowOffsetOuter1"/><feGaussianBlur stdDeviation="3" in="shadowOffsetOuter1" result="shadowBlurOuter1"/><feColorMatrix values="0 0 0 0 0 0 0 0 0 0 0 0 0 0 0 0 0 0 0.230550699 0" in="shadowBlurOuter1"/></filter><filter x="-199%" y="-44.5%" width="460.2%" height="199.4%" filterUnits="objectBoundingBox" id="M"><feOffset dx="-1" dy="1" in="SourceAlpha" result="shadowOffsetOuter1"/><feGaussianBlur stdDeviation="3" in="shadowOffsetOuter1" result="shadowBlurOuter1"/><feColorMatrix values="0 0 0 0 0 0 0 0 0 0 0 0 0 0 0 0 0 0 0.230550699 0" in="shadowBlurOuter1"/></filter><filter x="-199%" y="-47.7%" width="460.2%" height="206.7%" filterUnits="objectBoundingBox" id="P"><feOffset dx="-1" dy="1" in="SourceAlpha" result="shadowOffsetOuter1"/><feGaussianBlur stdDeviation="3" in="shadowOffsetOuter1" result="shadowBlurOuter1"/><feColorMatrix values="0 0 0 0 0 0 0 0 0 0 0 0 0 0 0 0 0 0 0.230550699 0" in="shadowBlurOuter1"/></filter><filter x="-199%" y="-51.6%" width="460.2%" height="215.3%" filterUnits="objectBoundingBox" id="S"><feOffset dx="-1" dy="1" in="SourceAlpha" result="shadowOffsetOuter1"/><feGaussianBlur stdDeviation="3" in="shadowOffsetOuter1" result="shadowBlurOuter1"/><feColorMatrix values="0 0 0 0 0 0 0 0 0 0 0 0 0 0 0 0 0 0 0.230550699 0" in="shadowBlurOuter1"/></filter><filter x="-199%" y="-55.8%" width="460.2%" height="237%" filterUnits="objectBoundingBox" id="V"><feOffset dx="-1" dy="1" in="SourceAlpha" result="shadowOffsetOuter1"/><feGaussianBlur stdDeviation="3" in="shadowOffsetOuter1" result="shadowBlurOuter1"/><feColorMatrix values="0 0 0 0 0 0 0 0 0 0 0 0 0 0 0 0 0 0 0.230550699 0" in="shadowBlurOuter1"/></filter><filter x="-199%" y="-59.1%" width="460.2%" height="232.1%" filterUnits="objectBoundingBox" id="Y"><feOffset dx="-1" dy="1" in="SourceAlpha" result="shadowOffsetOuter1"/><feGaussianBlur stdDeviation="3" in="shadowOffsetOuter1" result="shadowBlurOuter1"/><feColorMatrix values="0 0 0 0 0 0 0 0 0 0 0 0 0 0 0 0 0 0 0.230550699 0" in="shadowBlurOuter1"/></filter><filter x="-199%" y="-41.6%" width="460.2%" height="192.9%" filterUnits="objectBoundingBox" id="ab"><feOffset dx="-1" dy="1" in="SourceAlpha" result="shadowOffsetOuter1"/><feGaussianBlur stdDeviation="3" in="shadowOffsetOuter1" result="shadowBlurOuter1"/><feColorMatrix values="0 0 0 0 0 0 0 0 0 0 0 0 0 0 0 0 0 0 0.230550699 0" in="shadowBlurOuter1"/></filter><filter x="-199%" y="-44.5%" width="460.2%" height="199.4%" filterUnits="objectBoundingBox" id="ad"><feOffset dx="-1" dy="1" in="SourceAlpha" result="shadowOffsetOuter1"/><feGaussianBlur stdDeviation="3" in="shadowOffsetOuter1" result="shadowBlurOuter1"/><feColorMatrix values="0 0 0 0 0 0 0 0 0 0 0 0 0 0 0 0 0 0 0.230550699 0" in="shadowBlurOuter1"/></filter><filter x="-199%" y="-47.7%" width="460.2%" height="206.7%" filterUnits="objectBoundingBox" id="af"><feOffset dx="-1" dy="1" in="SourceAlpha" result="shadowOffsetOuter1"/><feGaussianBlur stdDeviation="3" in="shadowOffsetOuter1" result="shadowBlurOuter1"/><feColorMatrix values="0 0 0 0 0 0 0 0 0 0 0 0 0 0 0 0 0 0 0.230550699 0" in="shadowBlurOuter1"/></filter><filter x="-199%" y="-51.6%" width="460.2%" height="215.3%" filterUnits="objectBoundingBox" id="ah"><feOffset dx="-1" dy="1" in="SourceAlpha" result="shadowOffsetOuter1"/><feGaussianBlur stdDeviation="3" in="shadowOffsetOuter1" result="shadowBlurOuter1"/><feColorMatrix values="0 0 0 0 0 0 0 0 0 0 0 0 0 0 0 0 0 0 0.230550699 0" in="shadowBlurOuter1"/></filter><filter x="-199%" y="-56%" width="460.2%" height="237.7%" filterUnits="objectBoundingBox" id="aj"><feOffset dx="-1" dy="1" in="SourceAlpha" result="shadowOffsetOuter1"/><feGaussianBlur stdDeviation="3" in="shadowOffsetOuter1" result="shadowBlurOuter1"/><feColorMatrix values="0 0 0 0 0 0 0 0 0 0 0 0 0 0 0 0 0 0 0.230550699 0" in="shadowBlurOuter1"/></filter><filter x="-199%" y="-61.4%" width="460.2%" height="237.2%" filterUnits="objectBoundingBox" id="am"><feOffset dx="-1" dy="1" in="SourceAlpha" result="shadowOffsetOuter1"/><feGaussianBlur stdDeviation="3" in="shadowOffsetOuter1" result="shadowBlurOuter1"/><feColorMatrix values="0 0 0 0 0 0 0 0 0 0 0 0 0 0 0 0 0 0 0.230550699 0" in="shadowBlurOuter1"/></filter><filter x="-132.7%" y="-28%" width="340.1%" height="161.3%" filterUnits="objectBoundingBox" id="ap"><feOffset dx="-1" dy="1" in="SourceAlpha" result="shadowOffsetOuter1"/><feGaussianBlur stdDeviation="3" in="shadowOffsetOuter1" result="shadowBlurOuter1"/><feColorMatrix values="0 0 0 0 0 0 0 0 0 0 0 0 0 0 0 0 0 0 0.230550699 0" in="shadowBlurOuter1"/></filter><filter x="-199%" y="-25.8%" width="460.2%" height="156.8%" filterUnits="objectBoundingBox" id="as"><feOffset dx="-1" dy="1" in="SourceAlpha" result="shadowOffsetOuter1"/><feGaussianBlur stdDeviation="3" in="shadowOffsetOuter1" result="shadowBlurOuter1"/><feColorMatrix values="0 0 0 0 0 0 0 0 0 0 0 0 0 0 0 0 0 0 0.230550699 0" in="shadowBlurOuter1"/></filter><filter x="-199%" y="-25.8%" width="460.2%" height="156.8%" filterUnits="objectBoundingBox" id="av"><feOffset dx="-1" dy="1" in="SourceAlpha" result="shadowOffsetOuter1"/><feGaussianBlur stdDeviation="3" in="shadowOffsetOuter1" result="shadowBlurOuter1"/><feColorMatrix values="0 0 0 0 0 0 0 0 0 0 0 0 0 0 0 0 0 0 0.230550699 0" in="shadowBlurOuter1"/></filter><filter x="-132.7%" y="-51.6%" width="340.1%" height="211.8%" filterUnits="objectBoundingBox" id="ax"><feOffset dx="-1" dy="1" in="SourceAlpha" result="shadowOffsetOuter1"/><feGaussianBlur stdDeviation="3" in="shadowOffsetOuter1" result="shadowBlurOuter1"/><feColorMatrix values="0 0 0 0 0 0 0 0 0 0 0 0 0 0 0 0 0 0 0.230550699 0" in="shadowBlurOuter1"/></filter><filter x="-132.7%" y="-34.8%" width="340.1%" height="171.1%" filterUnits="objectBoundingBox" id="aA"><feOffset dx="-1" dy="1" in="SourceAlpha" result="shadowOffsetOuter1"/><feGaussianBlur stdDeviation="3" in="shadowOffsetOuter1" result="shadowBlurOuter1"/><feColorMatrix values="0 0 0 0 0 0 0 0 0 0 0 0 0 0 0 0 0 0 0.230550699 0" in="shadowBlurOuter1"/></filter><filter x="-144.6%" y="-28%" width="361.6%" height="161.3%" filterUnits="objectBoundingBox" id="aD"><feOffset dx="-1" dy="1" in="SourceAlpha" result="shadowOffsetOuter1"/><feGaussianBlur stdDeviation="3" in="shadowOffsetOuter1" result="shadowBlurOuter1"/><feColorMatrix values="0 0 0 0 0 0 0 0 0 0 0 0 0 0 0 0 0 0 0.230550699 0" in="shadowBlurOuter1"/></filter><filter x="-132.7%" y="-51.6%" width="340.1%" height="211.8%" filterUnits="objectBoundingBox" id="aG"><feOffset dx="-1" dy="1" in="SourceAlpha" result="shadowOffsetOuter1"/><feGaussianBlur stdDeviation="3" in="shadowOffsetOuter1" result="shadowBlurOuter1"/><feColorMatrix values="0 0 0 0 0 0 0 0 0 0 0 0 0 0 0 0 0 0 0.230550699 0" in="shadowBlurOuter1"/></filter><filter x="-132.7%" y="-34.8%" width="340.1%" height="171.1%" filterUnits="objectBoundingBox" id="aI"><feOffset dx="-1" dy="1" in="SourceAlpha" result="shadowOffsetOuter1"/><feGaussianBlur stdDeviation="3" in="shadowOffsetOuter1" result="shadowBlurOuter1"/><feColorMatrix values="0 0 0 0 0 0 0 0 0 0 0 0 0 0 0 0 0 0 0.230550699 0" in="shadowBlurOuter1"/></filter><filter x="-13.9%" y="-11.1%" width="125.1%" height="124.7%" filterUnits="objectBoundingBox" id="aN"><feOffset dx="-1" dy="1" in="SourceAlpha" result="shadowOffsetOuter1"/><feGaussianBlur stdDeviation="3" in="shadowOffsetOuter1" result="shadowBlurOuter1"/><feColorMatrix values="0 0 0 0 0 0 0 0 0 0 0 0 0 0 0 0 0 0 0.230550699 0" in="shadowBlurOuter1"/></filter><filter x="0%" y="0%" width="100%" height="100%" filterUnits="objectBoundingBox" id="aR"><feGaussianBlur in="SourceGraphic"/></filter><filter x="0%" y="0%" width="100%" height="100%" filterUnits="objectBoundingBox" id="aS"><feGaussianBlur in="SourceGraphic"/></filter><filter x="0%" y="0%" width="100%" height="100%" filterUnits="objectBoundingBox" id="aU"><feGaussianBlur in="SourceGraphic"/></filter><filter x="0%" y="0%" width="100%" height="100%" filterUnits="objectBoundingBox" id="aW"><feGaussianBlur in="SourceGraphic"/></filter><filter x="-13.5%" y="-11.1%" width="124.3%" height="124.7%" filterUnits="objectBoundingBox" id="aX"><feOffset dx="-1" dy="1" in="SourceAlpha" result="shadowOffsetOuter1"/><feGaussianBlur stdDeviation="3" in="shadowOffsetOuter1" result="shadowBlurOuter1"/><feComposite in="shadowBlurOuter1" in2="SourceAlpha" operator="out" result="shadowBlurOuter1"/><feColorMatrix values="0 0 0 0 0 0 0 0 0 0 0 0 0 0 0 0 0 0 0.230550699 0" in="shadowBlurOuter1"/></filter><path d="M615.32 128.376a7.913 7.913 0 017.908 7.616l.005.297v145.066c0 10.06-8.044 18.24-18.05 18.459l-.413.004h-22.42c-10.058 0-18.239-8.044-18.458-18.05l-.004-.413v-1.768l-147.444-12.82-15.604-13.106h-96.316l-105.078 29.317.475-3.918a541.523 541.523 0 003.937-62.339 458.695 458.695 0 00-3.6-59.69l-.334-2.595-.493-3.755 105.033 23.852h95.627l16.387-13.108 147.41-12.819v-12.317a7.913 7.913 0 017.322-7.892l.294-.016.296-.005h43.52zm0 5.275H571.8a2.638 2.638 0 00-2.637 2.638v17.154l-150.637 13.099-16.584 13.267H303.87l-98.238-22.31a463.846 463.846 0 013.501 59.25 546.361 546.361 0 01-3.515 59.031l98.187-27.394h97.871l1.057-.024 15.827 13.294 150.603 13.095v6.604c0 7.284 5.904 13.188 13.188 13.188h22.42c7.283 0 13.187-5.904 13.187-13.188V136.29a2.638 2.638 0 00-2.638-2.638z" id="v"/><path d="M330.453 177.171h5.275v20.177l-2.638.264v-9.89c0-3.517-.88-7.034-2.637-10.551z" id="F"/><path d="M319.902 177.171h5.275v21.496l-2.637.264v-11.21c0-3.516-.88-7.033-2.638-10.55z" id="I"/><path d="M319.902 229.263h5.275v21.496l-2.637.264v-11.21c0-3.516-.88-7.033-2.638-10.55z" id="L"/><path d="M341.003 177.171h5.275v18.859l-2.638.263v-8.572c0-3.516-.879-7.033-2.637-10.55z" id="N"/><path d="M351.553 177.171h5.275v17.54l-2.637.264v-7.254c0-3.516-.88-7.033-2.638-10.55z" id="Q"/><path d="M362.103 177.171h5.276v16.221l-2.638.264v-5.935c0-3.516-.88-7.033-2.638-10.55z" id="T"/><path d="M372.654 177.171h5.275v14.902l-2.272.228a1 1 0 11-.366.11v-4.69c0-3.516-.879-7.033-2.637-10.55z" id="W"/><path d="M383.204 177.171h5.275v13.584l-2.637.263v-3.297c0-3.516-.88-7.033-2.638-10.55z" id="Z"/><path d="M330.453 230.582h5.275v20.177l-2.638.264v-9.89c0-3.517-.88-7.034-2.637-10.551z" id="ac"/><path d="M341.003 231.9h5.275v18.86l-2.638.263v-8.572c0-3.517-.879-7.033-2.637-10.55z" id="ae"/><path d="M351.553 233.22h5.275v17.54l-2.637.263v-7.253c0-3.517-.88-7.034-2.638-10.55z" id="ag"/><path d="M362.103 234.538h5.276v16.221l-2.638.264v-5.934c0-3.517-.88-7.034-2.638-10.55z" id="ai"/><path d="M372.654 235.857h5.275v14.83l-2.272.226a1 1 0 11-.366.11v-4.689c0-3.517-.879-7.009-2.637-10.477z" id="ak"/><path d="M383.204 237.176h5.275v13.044l-2.637.264v-3.297c0-3.517-.88-6.854-2.638-10.011z" id="an"/><path d="M477.498 160.027h7.912c-1.758 1.758-2.637 4.835-2.637 9.231v18.78a1.97 1.97 0 01-1.32 1.86.991.991 0 01-1.318-.936v-19.704c0-3.516-.879-6.594-2.637-9.231z" id="aq"/><path d="M464.3 161.346h5.275c-1.758 1.758-2.637 4.835-2.637 9.231v22.298a1 1 0 01-.758.97l-.637.16a1 1 0 01-1.243-.97v-22.458-9.231z" id="at"/><path d="M463.65 235.198h5.275c-1.758 1.758-2.637 4.835-2.637 9.231v22.298a1 1 0 01-.758.97l-.637.16a1 1 0 01-1.243-.97v-22.458-9.231z" id="aw"/><path d="M517.061 156.07h7.913c-1.758 1.759-2.638 4.836-2.638 9.232v5.316a1 1 0 01-.552.895l-.766.383a.911.911 0 01-1.32-.815v-5.78c0-3.516-.878-6.593-2.637-9.23z" id="ay"/><path d="M497.28 158.708l7.912-1.319c-1.758 1.759-2.637 4.836-2.637 9.232v10.907a1 1 0 01-.168.554l-1.151 1.727a.72.72 0 01-1.319-.4v-11.47c0-3.516-.88-6.593-2.638-9.231z" id="aB"/><path d="M477.498 240.473l7.262-1.319c-1.758 1.759-2.637 4.836-2.637 9.232v18.78a1.97 1.97 0 01-1.32 1.859.991.991 0 01-1.318-.936v-19.703c0-3.517-.662-6.155-1.987-7.913z" id="aE"/><path d="M516.411 256.298h7.913c-1.758 1.759-2.638 4.836-2.638 9.232v5.316a1 1 0 01-.552.895l-.766.383a.911.911 0 01-1.32-.815v-5.78c0-3.516-.878-6.593-2.637-9.23z" id="aH"/><path d="M496.63 248.386l7.912-1.32c-1.758 1.76-2.637 4.836-2.637 9.232v10.605a2 2 0 01-.336 1.109l-.983 1.474a.72.72 0 01-1.32-.399v-11.47c0-3.517-.878-6.594-2.637-9.231z" id="aJ"/><path id="aK" d="M1.365 1.023h75.402v76.872H1.06z"/><path d="M666.306 221.564l.002 1.32 8.628.001c-.743.937-1.504 2.044-2.33 3.344-1.536 2.412-2.3 5.468-2.343 9.135l-.026 2.19.074.005.02.196.04.299c.722 4.949 4.984 8.749 10.134 8.749 5.657 0 10.242-4.586 10.242-10.242l-.007-.391-.024-.413a10.212 10.212 0 00-2.202-5.583l-.152-.184-.109-.154c-.746-1.026-1.665-1.802-3.028-2.717-.196-.132-.93-.614-1.095-.726l-.366-.251c-.823-.58-.972-.801-.946-1.028.025-.207.1-.29.606-.459.667-.222 1.664-.32 2.97-.272l.003 3.118h7.04l.03.07.05.127c.066.182.135.408.202.676.317 1.268.513 3.17.571 5.676l.019 1.809v2.192h2.108l.143.147.12.137c.256.307.353.535.353.684v2.325h.724l.055.133.136.302a9.582 9.582 0 008.668 5.504l.363-.007.406-.024a9.554 9.554 0 002.72-.625l.11-.046.05.154.123.354c.29.804.614 1.457.982 1.93.94 1.21 2.242 1.733 3.665 1.552.474-.06.924-.188 1.427-.382.174-.066.35-.14.562-.23l.73-.317c.661-.277 1.047-.381 1.39-.381.384 0 .818.13 1.622.481l.883.383.176.07c.504.195.955.324 1.43.385 1.429.182 2.734-.35 3.671-1.57 1.288-1.677 2.46-7.275 2.46-9.991 0-5.657-4.585-10.243-10.242-10.243-5.656 0-10.242 4.586-10.242 10.243l.004.245.01.267c.01.184.024.382.043.59l.026.292-.067.06-.195.152a3.586 3.586 0 01-2.107.68l-.208-.006-.225-.02a3.61 3.61 0 01-3.008-2.498l-.036-.127.059-.094.081-.115c.09-.119.203-.25.344-.393l1.939-.001v-4l-.002-12.486h.119v1.32h11.254l-.002-1.32h.616l.002 2.639h13.89l-.001-2.639h6.299v30.882l-75.707-.583v-30.3h4.276zm52.838 9.542a7.913 7.913 0 017.913 7.913c0 1.811-.954 7.238-1.978 8.572-.35.456-.73.653-1.14.688l-.154.006c-1.252-.009-2.78-1.354-4.64-1.354-1.749 0-3.214 1.193-4.43 1.333l-.164.012c-.488.016-.934-.161-1.341-.685-.518-.666-1.01-2.337-1.373-4.073l-.13-.652a7.229 7.229 0 01-4.743 2.079l-.348.008-.295-.006a7.257 7.257 0 01-6.784-5.656l-.055-.272h-.12l-.009-.222c-.062-.738-.433-1.475-1.114-2.213l-.195-.203H702l-.224.235c-.428.47-.73.939-.907 1.409l-.078.235a2.872 2.872 0 00-.057.235 5.936 5.936 0 005.882 5.14c1.98 0 3.734-.97 4.81-2.463-.124-.882-.195-1.652-.195-2.153a7.913 7.913 0 017.913-7.913zm-37.32-10.22a16.65 16.65 0 016.594 0v1.318l-.467-.049a24.272 24.272 0 00-1.726-.108l-.331-.005-.321.001c-3.164.037-4.853.97-5.068 2.799-.363 3.082 4.073 3.691 5.998 6.555a7.913 7.913 0 01-5.72 13.072l-.278.005-.278-.005a7.913 7.913 0 01-7.55-9.071l-.085-.006c.039-3.263.698-5.9 1.978-7.913 1.523-2.393 3.12-4.723 5.36-5.914l.295-.148c.5-.237 1.03-.418 1.599-.532zm36.738-39.894a7.913 7.913 0 01.278 15.82l-.278.005-.278-.005a7.913 7.913 0 01-7.367-9.958 5.921 5.921 0 00-4.596-2.558l-.288-.007-.272.006a5.936 5.936 0 00-5.61 5.134c.14.704.562 1.408 1.267 2.113h1.814v17.143h4.776v-1.317h6.594v1.317h5.275v-2.636h2.638v.386l.23-.1a4.066 4.066 0 011.505-.286h1.078l.295.01c.293.021.577.073.849.152v-.162h2.637l.001 2.552.034.085h8.593v10.55h-8.593l-.036.086.001 2.552h-2.638v-.162l-.275.07c-.186.04-.378.068-.573.082l-.295.01h-1.078l-.316-.012a4.054 4.054 0 01-1.19-.275l-.229-.1v.387h-2.637l-.001-2.637h-5.275v1.318h-6.594v-1.318h-4.776v16.485h-6.593l-.002-.445c-.036-6.737-.915-10.106-2.636-10.106h-5.275l-.001-5.935h-13.496v1.32h-6.593l-.001-1.32h-6.605v-10.55h6.605v-1.318h6.595v1.317h13.495v-4.614h5.276l.1-.005c1.592-.148 2.435-3.855 2.529-11.12l.009-1.404h.822l.195-.203c.75-.811 1.124-1.623 1.124-2.434h.12l.055-.273a7.256 7.256 0 0112.506-3.22 7.909 7.909 0 017.1-4.42zm-38.057 2.637a7.913 7.913 0 015.998 13.077c-1.925 2.864-6.36 3.473-5.998 6.555.222 1.89 2.018 2.823 5.389 2.8l.33-.005.342-.012c.46-.019.948-.053 1.462-.104l.39-.041v1.319l-.508.093a16.631 16.631 0 01-6.086-.093 6.972 6.972 0 01-2.248-.88c-1.815-1.094-3.202-2.942-4.493-4.918l-.513-.796c-1.28-2.012-1.94-4.65-1.978-7.913l.085-.006a7.913 7.913 0 017.828-9.076zm57.232-8.054v30.782h-6.3v-2.638H717.55l-.002 2.636h-.616l.002-1.317h-11.254v1.317h-.119l.002-17.142-2.99-.001.02-.07.069-.198a3.61 3.61 0 013.372-2.326l.239.008.261.027c.69.095 1.329.388 1.846.833l.035.03-.007.046-.048.444c-.026.298-.04.597-.04.899 0 5.656 4.586 10.242 10.243 10.242 5.656 0 10.242-4.586 10.242-10.242 0-5.657-4.586-10.243-10.242-10.243l-.347.006-.376.02a10.229 10.229 0 00-6.752 3.214l-.105.114-.222-.13-.33-.18a9.562 9.562 0 00-4.397-1.065l-.301.004-.345.017a9.591 9.591 0 00-8.191 5.85l-.028.065-.717.002v2.326l-.005.061-.016.07a.923.923 0 01-.067.164l-.007.012h-2.047l-.001 2.873c-.018 3.755-.227 6.562-.608 8.374l-.057.256-.058.236a6.497 6.497 0 01-.234.748l-.017.041-6.937.001-.002 1.98c-1.347.05-2.368-.058-3.03-.293-.456-.163-.523-.239-.547-.439-.026-.227.123-.449.946-1.028l.366-.251c.11-.075.473-.314.76-.504l.667-.448.344-.243c1.003-.725 1.737-1.402 2.352-2.248l.106-.152.155-.186a10.217 10.217 0 002.233-6.387c0-5.656-4.585-10.242-10.242-10.242l-.302.004-.312.014c-4.973.294-8.991 4.136-9.56 9.03l-.02.195-.074.006.026 2.19.012.545c.11 3.426.872 6.299 2.33 8.59.775 1.219 1.492 2.268 2.19 3.166l-8.487-.002-.002 1.317h-4.276v-30.78h75.707z" id="aO"/><path d="M738.901 175.575h-78.036v76.872H738.9v-76.872zm-3.494 3.548v69.776H664.36v-69.776h71.048z" id="aY"/><radialGradient cx="-17.256%" cy="121.436%" fx="-17.256%" fy="121.436%" r="141.011%" id="C"><stop stop-color="#8B878D" offset="0%"/><stop stop-color="#9F9CA1" offset="13.66%"/><stop stop-color="#D9D8DA" offset="42.07%"/><stop stop-color="#F3F4F4" offset="51.52%"/><stop stop-color="#807B80" offset="100%"/></radialGradient><radialGradient cx="50%" cy="54.424%" fx="50%" fy="54.424%" r="45.576%" gradientTransform="matrix(0 1 -.78087 0 .925 .044)" id="bf"><stop stop-color="#172942" stop-opacity=".993" offset="0%"/><stop stop-color="#162841" stop-opacity="0" offset="100%"/></radialGradient><radialGradient cx="-20.177%" cy="-21.812%" fx="-20.177%" fy="-21.812%" r="141.011%" id="bl"><stop stop-color="#8B878D" offset="0%"/><stop stop-color="#9F9CA1" offset="13.66%"/><stop stop-color="#D9D8DA" offset="42.07%"/><stop stop-color="#F3F4F4" offset="51.52%"/><stop stop-color="#807B80" offset="100%"/></radialGradient></defs><g fill="none" fill-rule="evenodd"><g fill-rule="nonzero" stroke="#636262" stroke-width=".5"><path fill="url(#a)" transform="rotate(90 76.069 359.976)" d="M-33.544 34.862h75v6.594h-75z"/><path fill="url(#b)" transform="rotate(90 272.394 382.481)" d="M185.775 57.367h29.013v6.594h-29.013z"/><path fill="url(#c)" transform="translate(393.929 249.704)" d="M59.985 75.171h137v6.594h-137z"/><path fill="url(#d)" transform="translate(393.929 249.704)" d="M6.985 75.171h32v6.594h-32z"/><path d="M37.253 83.084v-9.232h3.957l7.912 4.616v.462l-7.912 4.154h-3.957z" fill="url(#e)" transform="translate(393.929 249.704)"/><path d="M49.782 83.084v-9.232h3.956l7.913 4.616v.462l-7.913 4.154h-3.956z" fill="url(#e)" transform="matrix(-1 0 0 1 505.362 249.704)"/></g><path d="M73.039 126.648v178.855h-28.72a3.738 3.738 0 01-2.652-1.098 3.738 3.738 0 01-1.098-2.652h0V130.398c0-1.036.42-1.973 1.098-2.652a3.738 3.738 0 012.652-1.098h28.72z" stroke="#2C405A" stroke-width=".5" fill="url(#f)" fill-rule="nonzero"/><path stroke="#2C405A" stroke-width=".5" fill="url(#g)" fill-rule="nonzero" d="M81.451 126.648h33.789v178.855H81.451z"/><path stroke="#2C405A" fill="url(#h)" fill-rule="nonzero" d="M132.634 126.398h18.463v179.355h-18.463z"/><path stroke="#2C405A" fill="url(#i)" fill-rule="nonzero" d="M113.352 126.898h20.101v178.355h-20.101z"/><path d="M172.241 126.398h20.88a4 4 0 013.961 3.44l9.365 66.177a4 4 0 01.04.56v39a4 4 0 01-.04.561l-9.365 66.177a4 4 0 01-3.96 3.44h-20.88a4 4 0 01-4-4V130.398a4 4 0 014-4z" stroke="#2C405A" fill="url(#j)" fill-rule="nonzero"/><path stroke="#2C405A" fill="url(#i)" fill-rule="nonzero" d="M150.278 126.898h20.101v178.355h-20.101z"/><path stroke="#2C405A" stroke-width=".5" fill="url(#k)" fill-rule="nonzero" d="M71.72 148.567h11.05v22.919H71.72z"/><path stroke="#2C405A" stroke-width=".5" fill="url(#k)" fill-rule="nonzero" d="M71.72 170.986h11.05v22.919H71.72z"/><path stroke="#2C405A" stroke-width=".5" fill="url(#k)" fill-rule="nonzero" d="M71.72 193.406h11.05v22.919H71.72z"/><path stroke="#2C405A" stroke-width=".5" fill="url(#k)" fill-rule="nonzero" d="M71.72 215.825h11.05v22.919H71.72z"/><path stroke="#2C405A" stroke-width=".5" fill="url(#k)" fill-rule="nonzero" d="M71.72 238.245h11.05v22.919H71.72z"/><path stroke="#2C405A" stroke-width=".5" fill="url(#k)" fill-rule="nonzero" d="M71.72 260.664h11.05v22.919H71.72z"/><path stroke="#2C405A" stroke-width=".5" fill="url(#k)" fill-rule="nonzero" d="M71.72 283.084h11.05v22.919H71.72zM71.72 126.148h11.05v22.919H71.72z"/><path d="M39 258.277l154.298.659c1.679.766 2.778 1.865 3.297 3.297 1.852 5.098 2.499 13.095 3.297 17.144 1.135 5.754 2.014 14.546 2.638 26.376H39v-47.476z" fill="url(#l)" opacity=".4" transform="matrix(1 0 0 -1 0 564.03)"/><g transform="translate(86 306)"><path stroke="#FFF" opacity=".4" d="M51 0v20H2"/><circle fill="#33A7DF" transform="rotate(-90 41.5 20.5)" cx="41.5" cy="20.5" r="4.5"/><circle fill="#EF3340" transform="rotate(-90 2 20)" cx="2" cy="20" r="2"/></g><path fill="#E8EBEE" fill-rule="nonzero" opacity=".9" d="M117.223 328.5v-1.869H119v-1.262h-1.777V323.5h-1.446v1.869H114v1.262h1.777v1.869zM151.223 328.5v-1.869H153v-1.262h-1.777V323.5h-1.446v1.869H148v1.262h1.777v1.869z"/><g transform="translate(150 306)"><path stroke="#FFF" opacity=".4" d="M20 0v20H0V0h0"/><circle fill="#33A7DF" transform="rotate(-90 9.5 20.5)" cx="9.5" cy="20.5" r="4.5"/></g><path d="M39 126.398l154.298-.66c2.385.682 3.704 1.781 3.957 3.297 1.319 7.913 1.978 13.847 2.637 17.804.885 5.309 2.204 14.1 3.957 26.376L39 173.874v-47.476z" fill="url(#m)" opacity=".4"/><g transform="translate(81.201 102)" fill-rule="nonzero" stroke="#7F7F7F" stroke-width=".5"><path fill="url(#n)" transform="rotate(90 13.188 8.572)" d="M10.55-9.89l9.232 15.165-9.232 15.166z"/><path fill="url(#o)" transform="matrix(0 -1 -1 0 30.332 34.289)" d="M11.21-1.319l7.912 15.166-7.912 15.166z"/><path fill="url(#p)" transform="rotate(-90 10.88 11.21)" d="M-.99 1.648h17.145L6.924 16.815z"/><path fill="url(#p)" transform="matrix(0 -1 -1 0 33.3 37.256)" d="M14.177 1.648h17.144L22.09 16.815z"/><rect fill="#C0BEC0" y="22.419" width="32.97" height="2.638" rx="1.319"/><rect fill="url(#q)" width="32.97" height="6.594" rx="2"/><rect fill="url(#r)" width="32.97" height="7.913" rx="1"/></g><g fill-rule="nonzero" stroke="#636262" stroke-width=".5"><path fill="url(#s)" transform="rotate(90 80.3 355.743)" d="M-16.398 23.716H30.31v6.594h-52.708z"/><path fill="url(#t)" d="M6.594 39.52h5.275v13.188H6.594z" transform="translate(405.073 252.386)"/></g><g fill-rule="nonzero"><use fill="#000" filter="url(#u)" xlink:href="#v"/><use fill="url(#w)" xlink:href="#v"/></g><g transform="translate(570.472 108.594)" fill-rule="nonzero" stroke="#7F7F7F" stroke-width=".5"><path fill="url(#x)" transform="rotate(90 19.122 8.572)" d="M17.144-17.144l9.232 21.1-9.232 22.42z"/><path fill="url(#y)" transform="matrix(0 -1 -1 0 36.596 41.872)" d="M18.793-8.902l7.253 21.76-7.253 21.76z"/><path fill="url(#z)" transform="rotate(-90 15.166 11.21)" d="M2.638-2.638h17.144l-9.232 22.42z"/><path fill="url(#A)" transform="matrix(0 -1 -1 0 42.86 48.136)" d="M24.398-1.978h17.144l-9.232 21.1z"/><rect fill="#C0BEC0" y="22.419" width="46.158" height="2.638" rx="1.319"/><rect fill="url(#q)" x="6.594" width="32.97" height="6.594" rx="2"/><rect fill="url(#B)" width="46.158" height="7.913" rx="1"/></g><path d="M590.913 324.875h3.594a3 3 0 013 3v3.594h0-6.594v-6.594z" stroke="#636262" stroke-width=".5" fill="url(#C)" fill-rule="nonzero" transform="matrix(1 0 0 -1 0 656.345)"/><path d="M394.5 324.875h3.594a3 3 0 013 3v3.594h0-6.594v-6.594z" stroke="#636262" stroke-width=".5" fill="url(#C)" fill-rule="nonzero" transform="rotate(-180 397.797 328.172)"/><path d="M80.542 116.507h32.31c1.657.062 2.512.268 2.566.62.285 1.837-1.563 1.565-1.42 2.483.19 1.232.19 3.714 0 7.447l-32.691-.62c.157-3.59.157-5.866 0-6.827-.249-1.52-1.39-1.648-1.421-1.862-.06-.418.159-.832.656-1.241z" fill="url(#D)" opacity=".4" transform="matrix(1 0 0 -1 0 243.564)"/><g fill-rule="nonzero"><use fill="#000" filter="url(#E)" xlink:href="#F"/><use fill="url(#G)" xlink:href="#F"/></g><g fill-rule="nonzero"><use fill="#000" filter="url(#H)" xlink:href="#I"/><use fill="url(#J)" xlink:href="#I"/></g><g fill-rule="nonzero" transform="matrix(1 0 0 -1 0 480.286)"><use fill="#000" filter="url(#K)" xlink:href="#L"/><use fill="url(#J)" xlink:href="#L"/></g><g fill-rule="nonzero"><use fill="#000" filter="url(#M)" xlink:href="#N"/><use fill="url(#O)" xlink:href="#N"/></g><g fill-rule="nonzero"><use fill="#000" filter="url(#P)" xlink:href="#Q"/><use fill="url(#R)" xlink:href="#Q"/></g><g fill-rule="nonzero"><use fill="#000" filter="url(#S)" xlink:href="#T"/><use fill="url(#U)" xlink:href="#T"/></g><g fill-rule="nonzero"><use fill="#000" filter="url(#V)" xlink:href="#W"/><use fill="url(#X)" xlink:href="#W"/></g><g fill-rule="nonzero"><use fill="#000" filter="url(#Y)" xlink:href="#Z"/><use fill="url(#aa)" xlink:href="#Z"/></g><g fill-rule="nonzero" transform="matrix(1 0 0 -1 0 481.605)"><use fill="#000" filter="url(#ab)" xlink:href="#ac"/><use fill="url(#G)" xlink:href="#ac"/></g><g fill-rule="nonzero" transform="matrix(1 0 0 -1 0 482.924)"><use fill="#000" filter="url(#ad)" xlink:href="#ae"/><use fill="url(#O)" xlink:href="#ae"/></g><g fill-rule="nonzero" transform="matrix(1 0 0 -1 0 484.243)"><use fill="#000" filter="url(#af)" xlink:href="#ag"/><use fill="url(#R)" xlink:href="#ag"/></g><g fill-rule="nonzero" transform="matrix(1 0 0 -1 0 485.562)"><use fill="#000" filter="url(#ah)" xlink:href="#ai"/><use fill="url(#U)" xlink:href="#ai"/></g><g fill-rule="nonzero" transform="matrix(1 0 0 -1 0 486.88)"><use fill="#000" filter="url(#aj)" xlink:href="#ak"/><use fill="url(#al)" xlink:href="#ak"/></g><g fill-rule="nonzero" transform="matrix(1 0 0 -1 0 488.2)"><use fill="#000" filter="url(#am)" xlink:href="#an"/><use fill="url(#ao)" xlink:href="#an"/></g><g fill-rule="nonzero"><use fill="#000" filter="url(#ap)" xlink:href="#aq"/><use fill="url(#ar)" xlink:href="#aq"/></g><g fill-rule="nonzero"><use fill="#000" filter="url(#as)" xlink:href="#at"/><use fill="url(#au)" xlink:href="#at"/></g><g fill-rule="nonzero" transform="matrix(1 0 0 -1 0 503.365)"><use fill="#000" filter="url(#av)" xlink:href="#aw"/><use fill="url(#au)" xlink:href="#aw"/></g><g fill-rule="nonzero"><use fill="#000" filter="url(#ax)" xlink:href="#ay"/><use fill="url(#az)" xlink:href="#ay"/></g><g fill-rule="nonzero"><use fill="#000" filter="url(#aA)" xlink:href="#aB"/><use fill="url(#aC)" xlink:href="#aB"/></g><g fill-rule="nonzero" transform="matrix(1 0 0 -1 0 508.64)"><use fill="#000" filter="url(#aD)" xlink:href="#aE"/><use fill="url(#aF)" xlink:href="#aE"/></g><g fill-rule="nonzero" transform="matrix(1 0 0 -1 0 529.082)"><use fill="#000" filter="url(#aG)" xlink:href="#aH"/><use fill="url(#az)" xlink:href="#aH"/></g><g fill-rule="nonzero" transform="matrix(1 0 0 -1 0 518.531)"><use fill="#000" filter="url(#aI)" xlink:href="#aJ"/><use fill="url(#aC)" xlink:href="#aJ"/></g><g transform="translate(660.865 174.41)"><mask id="aM" fill="#fff"><use xlink:href="#aK"/></mask><use fill="url(#aL)" fill-rule="nonzero" xlink:href="#aK"/><g opacity=".603"><g opacity=".148" mask="url(#aM)" stroke="#FFF" stroke-linecap="square" stroke-width=".5"><path d="M-335.28 118.383l563.782-565.102M-335.28 122.34l563.782-565.102M-335.28 126.296l563.782-565.102M-335.28 130.252l563.782-565.1M-335.28 134.208l563.782-565.1M-335.28 138.165l563.782-565.102M-335.28 142.121l563.782-565.1M-335.28 146.077l563.782-565.1M-335.28 150.034l563.782-565.102M-335.28 153.99l563.782-565.1M-335.28 157.946l563.782-565.1M-335.28 161.903l563.782-565.102M-335.28 165.86l563.782-565.102M-335.28 169.816l563.782-565.102M-335.28 173.772l563.782-565.1M-335.28 177.728l563.782-565.1M-335.28 181.685l563.782-565.102M-335.28 185.641l563.782-565.1M-335.28 189.597l563.782-565.1M-335.28 193.554l563.782-565.102M-335.28 197.51l563.782-565.1M-335.28 201.467l563.782-565.102M-335.28 205.423l563.782-565.1M-335.28 209.38l563.782-565.102M-335.28 213.336l563.782-565.102M-335.28 217.292l563.782-565.1M-335.28 221.248l563.782-565.1M-335.28 225.205l563.782-565.102M-335.28 229.161l563.782-565.1M-335.28 233.117l563.782-565.1M-335.28 237.074l563.782-565.102M-335.28 241.03l563.782-565.1M-335.28 244.987l563.782-565.102M-335.28 248.943l563.782-565.1M-335.28 252.9l563.782-565.102M-335.28 256.856l563.782-565.102M-335.28 260.812l563.782-565.1M-335.28 264.768l563.782-565.1M-335.28 268.725l563.782-565.102M-335.28 272.681l563.782-565.1M-335.28 276.638l563.782-565.102M-335.28 280.594l563.782-565.1M-335.28 284.55l563.782-565.1M-335.28 288.507l563.782-565.102M-335.28 292.463l563.782-565.1M-335.28 296.42l563.782-565.102M-335.28 300.376l563.782-565.102M-335.28 304.332l563.782-565.1M-335.28 308.288l563.782-565.1M-335.28 312.245l563.782-565.102M-335.28 316.201l563.782-565.1M-335.28 320.158l563.782-565.102M-335.28 324.114l563.782-565.1M-335.28 328.07l563.782-565.1M-335.28 332.027l563.782-565.102M-335.28 335.983l563.782-565.1M-335.28 339.94l563.782-565.102M-335.28 343.896l563.782-565.102M-335.28 347.852l563.782-565.1M-335.28 351.81l563.782-565.103M-335.28 355.765l563.782-565.1M-335.28 359.721l563.782-565.1M-335.28 363.678l563.782-565.102M-335.28 367.634l563.782-565.1M-335.28 371.59l563.782-565.1M-335.28 375.547l563.782-565.102M-335.28 379.503l563.782-565.1M-335.28 383.46l563.782-565.102M-335.28 387.416l563.782-565.102M-335.28 391.372l563.782-565.1M-335.28 395.33l563.782-565.103M-335.28 399.285l563.782-565.1M-335.28 403.241l563.782-565.1M-335.28 407.198l563.782-565.102M-335.28 411.154l563.782-565.1M-335.28 415.11l563.782-565.1M-335.28 419.067l563.782-565.102M-335.28 423.023l563.782-565.1M-335.28 426.98l563.782-565.102M-335.28 430.936l563.782-565.1M-335.28 434.892l563.782-565.1M-335.28 438.85l563.782-565.103M-335.28 442.805l563.782-565.1M-335.28 446.761l563.782-565.1M-335.28 450.718l563.782-565.102M-335.28 454.674l563.782-565.1M-335.28 458.631L228.501-106.47M-335.28 462.587l563.782-565.102M-335.28 466.543l563.782-565.1M-335.28 470.5L228.501-94.602M-335.28 474.456l563.782-565.1M-335.28 478.412l563.782-565.1M-335.28 482.37L228.501-82.734M-335.28 486.325l563.782-565.1M-335.28 490.281l563.782-565.1M-335.28 494.238L228.501-70.864M-335.28 498.194l563.782-565.1M-335.28 502.151L228.501-62.95M-335.28 506.107l563.782-565.1M-335.28 510.063l563.782-565.1M-335.28 514.02L228.501-51.082M-335.28 517.976l563.782-565.1M-335.28 521.932l563.782-565.1M-335.28 525.89L228.501-39.214M-335.28 529.845l563.782-565.1M-335.28 533.802L228.501-31.3M-335.28 537.758l563.782-565.1M-335.28 541.714l563.782-565.1M-335.28 545.671L228.501-19.43M-335.28 549.627l563.782-565.1M-335.28 553.583l563.782-565.1M-335.28 557.54L228.501-7.562M-335.28 561.496l563.782-565.1M-335.28 565.452L228.501.352M-335.28 569.41L228.501 4.306M-335.28 573.365l563.782-565.1M-335.28 577.322L228.501 12.22M-335.28 581.278l563.782-565.1M-335.28 585.234l563.782-565.1M-335.28 589.191L228.501 24.09M-335.28 593.147l563.782-565.1M-335.28 597.103l563.782-565.1M-335.28 601.06L228.501 35.958M-335.28 605.016l563.782-565.1M-335.28 608.973L228.501 43.871M-335.28 612.93L228.501 47.827M-335.28 616.885l563.782-565.1M-335.28 620.842L228.501 55.74M-335.28 624.798l563.782-565.1M-335.28 628.754l563.782-565.1M-335.28 632.711L228.501 67.61M-335.28 636.667l563.782-565.1M-335.28 640.623l563.782-565.1M-335.28 644.58L228.501 79.478M-335.28 648.536l563.782-565.1M-335.28 652.493L228.501 87.391M-335.28 656.45L228.501 91.347M-335.28 660.405l563.782-565.1M-335.28 664.362L228.501 99.26M-335.28 668.318l563.782-565.1M-335.28 672.274l563.782-565.1M-335.28 676.231L228.501 111.13M-335.28 680.187l563.782-565.1M-335.28 684.144l563.782-565.102"/></g></g></g><g fill-rule="nonzero"><use fill="#000" filter="url(#aN)" xlink:href="#aO"/><use fill="url(#aP)" xlink:href="#aO"/></g><path d="M688.51 220.885v1.319c-5.003-.557-7.64.322-7.913 2.638-.363 3.085 4.082 3.693 6.004 6.563a7.913 7.913 0 11-13.832 3.993 22.09 22.09 0 01-.084-.006c.038-3.263.697-5.9 1.978-7.913 1.92-3.018 3.956-5.934 7.253-6.594a16.65 16.65 0 016.594 0z" fill="url(#aQ)" filter="url(#aR)"/><path d="M688.51 183.96v1.318c-5.003-.558-7.64.322-7.913 2.637-.363 3.086 4.082 3.693 6.004 6.564a7.913 7.913 0 11-13.832 3.993 22.09 22.09 0 01-.084-.006c.038-3.263.697-5.901 1.978-7.913 1.92-3.018 3.956-5.935 7.253-6.594a16.65 16.65 0 016.594 0z" fill="url(#aQ)" filter="url(#aS)" transform="matrix(1 0 0 -1 0 391.177)"/><path d="M725.171 231.8c1.025 1.334 1.978 6.76 1.978 8.573a7.913 7.913 0 01-15.825 0c0-.502.07-1.273.194-2.155a5.936 5.936 0 00-10.692 2.678c.14.705.562 1.41 1.266 2.114h-3.956c.88-.879 1.319-1.758 1.319-2.637l.12-.001a7.256 7.256 0 0112.224-3.847c.371-1.955.921-3.975 1.503-4.724 1.448-1.864 3.392.659 5.935.659 2.558 0 4.488-2.543 5.934-.66z" fill="url(#aT)" filter="url(#aU)" transform="matrix(1 0 0 -1 0 479.391)"/><path d="M718.654 180.992a7.913 7.913 0 11-7.644 5.861 5.936 5.936 0 00-10.766 2.574c.139.705.561 1.41 1.266 2.115h-3.956c.879-.88 1.318-1.758 1.318-2.637h.12a7.256 7.256 0 0112.56-3.494 7.913 7.913 0 017.102-4.42z" fill="url(#aV)" filter="url(#aW)"/><g fill-rule="nonzero"><use fill="#000" filter="url(#aX)" xlink:href="#aY"/><path stroke="#636262" stroke-width=".5" d="M738.651 175.825v76.372h-77.536v-76.372h77.536zm-2.994 3.048H664.11v70.276h71.548v-70.276z" stroke-linejoin="square" fill="url(#aZ)" fill-rule="evenodd"/></g><path d="M712.967 239.346l14.006 3.82v18.081l-14.006 3.82v-25.721z" stroke="#636262" stroke-width=".5" fill="url(#ba)" fill-rule="nonzero" transform="scale(-1 1) rotate(-90 0 972.176)"/><path d="M672.935 168.45l14.006 3.82v18.081l-14.006 3.82V168.45z" stroke="#636262" stroke-width=".5" fill="url(#ba)" fill-rule="nonzero" transform="rotate(90 679.938 181.31)"/><path d="M725.997 206.049a3.501 3.501 0 013.394 2.639l9.603-.002v10.55l-9.604.003a3.501 3.501 0 01-3.393 2.635h-2.231a3.501 3.501 0 01-3.392-2.634l-70.874.012v-10.55l70.872-.013a3.501 3.501 0 013.394-2.64h2.231z" stroke="#636262" stroke-width=".5" fill="url(#bb)" fill-rule="nonzero"/><g stroke-width=".5"><path d="M7.913 0h6.594v44.18H7.913c0-7.034-.88-10.55-2.638-10.55H0V12.528h5.275c1.759 0 2.638-4.177 2.638-12.529z" stroke="#636262" fill="url(#bc)" fill-rule="nonzero" transform="translate(688.818 191.542)"/><path stroke="#636262" fill-opacity=".04" fill="#000" opacity=".5" d="M696.731 205.39h6.594v7.912h-6.594zM696.731 213.302h6.594v7.913h-6.594z"/><path stroke="#636262" fill-opacity=".06" fill="#000" opacity=".5" d="M696.731 200.114h6.594v5.275h-6.594zM696.731 221.215h6.594v5.275h-6.594z"/><path stroke="#636262" fill-opacity=".08" fill="#000" opacity=".5" d="M696.731 196.158h6.594v3.956h-6.594zM696.731 226.49h6.594v3.956h-6.594z"/><path stroke="#636262" fill-opacity=".104" fill="#000" opacity=".5" d="M696.731 193.52h6.594v2.638h-6.594z"/><path stroke="#636262" fill-opacity=".1" fill="#000" opacity=".7" d="M696.731 230.446h6.594v3.297h-6.594z"/><path stroke="url(#bd)" stroke-linecap="square" d="M1.319 33.629v-21.1M2.638 33.629v-21.1M3.956 33.629v-21.1" transform="translate(688.818 191.542)"/><path stroke="url(#be)" stroke-linecap="square" d="M5.275 33.629v-21.1" transform="translate(688.818 191.542)"/></g><path d="M729.202 206.049v5.275h-2.638v-5.275h2.638zm-6.594 0v5.275h-2.638v-5.275h2.638zM729.202 221.874V216.6h-2.638v5.275h2.638zm-6.594 0V216.6h-2.638v5.275h2.638zM668.728 207.368h6.594v3.956h-6.594zM668.728 216.599h6.594v3.956h-6.594zM708.101 207.368h6.594v3.956h-6.594zM708.101 216.599h6.594v3.956h-6.594z" fill="#004C97"/><path fill="url(#bf)" style="mix-blend-mode:darken" d="M0 328h792v91H0z"/><path stroke="#B36D49" stroke-width="1.5" stroke-linecap="square" d="M692.362 273.706L623.5 273.5"/><g fill-rule="nonzero"><path d="M4 0h47.481a4 4 0 014 4v24.836a4 4 0 01-4 4H4a4 4 0 01-4-4V4a4 4 0 014-4z" fill="url(#bg)" transform="translate(635 280)"/><path fill="url(#bh)" transform="rotate(90 205.24 473.918)" d="M20.381-11.323h14.72V44.16H20.38z"/></g><path stroke="#B36D49" stroke-width="1.5" stroke-linecap="square" d="M692.5 273.5v-21M663.5 280v-5"/><path d="M181 126.704V21m16-15h595.999l1.797 273.51m.204 1.5l-94.845-.239L700.5 354m0 0l-519.5-.216v-49.44" stroke="#FFF" opacity=".4" stroke-dasharray="2"/><g fill-rule="nonzero" stroke-width=".5"><path stroke="#636262" fill="url(#bi)" transform="rotate(90 341.92 460.127)" d="M42.524 77.069h6.793v18.116h-6.793z"/><path stroke="#7F7F7F" fill="url(#bj)" transform="rotate(90 341.354 453.333)" d="M41.392 66.878h7.925v24.91h-7.925z"/><path stroke="#636262" fill="url(#bk)" transform="rotate(-180 362.804 56.058)" d="M18.746 8h18.116v18.116H18.746z"/><path stroke="#636262" fill="url(#bi)" transform="rotate(90 341.92 403.513)" d="M42.524 20.455h6.793v18.116h-6.793z"/><path d="M36.862 8H54.98v7.116c0 6.076-4.925 11-11 11h-7.117 0V8z" stroke="#636262" fill="url(#bl)" transform="matrix(1 0 0 -1 670 112.116)"/><path stroke="#636262" fill="url(#bj)" transform="rotate(90 341.354 410.307)" d="M41.392 23.852h7.925v24.91h-7.925z"/><path d="M57.438 39.266v17.616h-95.5V39.266h95.5z" stroke="#636262" fill="url(#bm)" transform="rotate(90 305.688 422.074)"/></g><path fill="#FFF" fill-rule="nonzero" opacity=".5" d="M592.625 105v-4.564l-2.096 2.097L590 102l3-3 3 3-.529.529-2.096-2.093V105zM97.625 93v4.564l-2.096-2.096L95 96l3 3 3-3-.529-.529-2.096 2.093V93z"/><g><g transform="translate(169)"><path stroke="#FFF" opacity=".5" d="M.256 6H27.5"/><circle fill="#33A7DF" transform="rotate(-90 12.087 5.815)" cx="12.087" cy="5.815" r="5.095"/><circle fill="#EF3340" transform="rotate(-90 2.265 5.765)" cx="2.265" cy="5.765" r="2.265"/></g><path stroke="#FFF" opacity=".5" d="M181 11v10h0"/></g><path d="M196 316.5v-11m0-179.5V49m0 0h426.202l.556 85.572m1.062 148.705l.082 32.118m-1.42.605H196" stroke="#FFF" opacity=".4" stroke-dasharray="2"/><g fill-rule="nonzero" stroke="#636262" stroke-width=".5"><path fill="url(#bn)" transform="rotate(-180 376.64 171.66)" d="M0 18.116h23.778l3 8.704-3 9.413H0z"/><path fill="url(#bo)" transform="rotate(90 251.205 516.795)" d="M23.381 0h18.116v18.116H23.381z"/><path d="M23.381 18.116h18.116v7.117c0 6.075-4.925 11-11 11h-7.116 0V18.116z" fill="url(#bl)" transform="translate(726.503 288.97)"/><path d="M47.226 29.192v17.616h-75.5V29.192h75.5z" fill="url(#bp)" transform="rotate(90 235.476 523)"/></g></g></svg>