<svg width="156" height="183" xmlns="http://www.w3.org/2000/svg" xmlns:xlink="http://www.w3.org/1999/xlink"><defs><linearGradient x1="50.034%" y1="114.901%" x2="50.034%" y2="-16.677%" id="d"><stop stop-color="#363D43" offset="0%"/><stop stop-color="#82888D" offset="52.238%"/><stop stop-color="#363D43" offset="100%"/></linearGradient><linearGradient x1="1.285%" y1="0%" x2="98.715%" y2="127.532%" id="h"><stop stop-color="#5E5D5E" offset="0%"/><stop stop-color="#BEBEBE" offset="47.838%"/><stop stop-color="#5E5D5E" offset="100%"/></linearGradient><linearGradient x1="50%" y1="0%" x2="50%" y2="100%" id="i"><stop stop-color="#BDD3EB" offset="0%"/><stop stop-color="#93C5DE" offset="100%"/></linearGradient><linearGradient x1="50%" y1="0%" x2="50%" y2="100%" id="l"><stop stop-color="#BDD3EB" offset="0%"/><stop stop-color="#93C5DE" offset="100%"/></linearGradient><linearGradient x1="50%" y1="0%" x2="50%" y2="100%" id="n"><stop stop-color="#BDD3EB" offset="0%"/><stop stop-color="#93C5DE" offset="100%"/></linearGradient><linearGradient x1=".453%" y1="50.403%" x2="99.615%" y2="50.403%" id="r"><stop stop-color="#AFACB1" offset="0%"/><stop stop-color="#BAB9BC" offset="28.499%"/><stop stop-color="#D9D8DA" offset="42.07%"/><stop stop-color="#F3F4F4" offset="58.437%"/><stop stop-color="#958F95" offset="100%"/></linearGradient><linearGradient x1="50.034%" y1="99.984%" x2="50.034%" y2="-.004%" id="s"><stop stop-color="#8B878D" offset="0%"/><stop stop-color="#9F9CA1" offset="13.66%"/><stop stop-color="#D9D8DA" offset="42.07%"/><stop stop-color="#F3F4F4" offset="51.52%"/><stop stop-color="#807B80" offset="100%"/></linearGradient><linearGradient x1="50.034%" y1="99.984%" x2="50.034%" y2="-.004%" id="t"><stop stop-color="#8B878D" offset="0%"/><stop stop-color="#9F9CA1" offset="13.66%"/><stop stop-color="#D9D8DA" offset="42.07%"/><stop stop-color="#F3F4F4" offset="51.52%"/><stop stop-color="#807B80" offset="100%"/></linearGradient><linearGradient x1="50.034%" y1="99.984%" x2="50.034%" y2="-.004%" id="u"><stop stop-color="#8B878D" offset="0%"/><stop stop-color="#9F9CA1" offset="13.66%"/><stop stop-color="#D9D8DA" offset="42.07%"/><stop stop-color="#F3F4F4" offset="51.52%"/><stop stop-color="#807B80" offset="100%"/></linearGradient><linearGradient x1="50.034%" y1="99.984%" x2="50.034%" y2="-.004%" id="v"><stop stop-color="#8B878D" offset="0%"/><stop stop-color="#9F9CA1" offset="13.66%"/><stop stop-color="#D9D8DA" offset="42.07%"/><stop stop-color="#F3F4F4" offset="51.52%"/><stop stop-color="#807B80" offset="100%"/></linearGradient><linearGradient x1="50%" y1="0%" x2="50%" y2="100%" id="w"><stop stop-color="#636262" stop-opacity=".4" offset="0%"/><stop stop-color="#636262" offset="46.746%"/><stop stop-color="#636262" stop-opacity=".4" offset="100%"/></linearGradient><linearGradient x1="50%" y1="0%" x2="50%" y2="100%" id="x"><stop stop-color="#636262" stop-opacity=".401" offset="0%"/><stop stop-color="#636262" offset="46.746%"/><stop stop-color="#636262" stop-opacity=".4" offset="100%"/></linearGradient><linearGradient x1="50.034%" y1="99.984%" x2="50.034%" y2="-.004%" id="z"><stop stop-color="#8B878D" offset="0%"/><stop stop-color="#9F9CA1" offset="13.66%"/><stop stop-color="#D9D8DA" offset="42.07%"/><stop stop-color="#F3F4F4" offset="51.52%"/><stop stop-color="#807B80" offset="100%"/></linearGradient><filter x="-8.7%" y="-6.9%" width="115.7%" height="115.5%" filterUnits="objectBoundingBox" id="f"><feOffset dx="-1" dy="1" in="SourceAlpha" result="shadowOffsetOuter1"/><feGaussianBlur stdDeviation="3" in="shadowOffsetOuter1" result="shadowBlurOuter1"/><feColorMatrix values="0 0 0 0 0 0 0 0 0 0 0 0 0 0 0 0 0 0 0.230550699 0" in="shadowBlurOuter1"/></filter><filter x="0%" y="0%" width="100%" height="100%" filterUnits="objectBoundingBox" id="j"><feGaussianBlur in="SourceGraphic"/></filter><filter x="0%" y="0%" width="100%" height="100%" filterUnits="objectBoundingBox" id="k"><feGaussianBlur in="SourceGraphic"/></filter><filter x="0%" y="0%" width="100%" height="100%" filterUnits="objectBoundingBox" id="m"><feGaussianBlur in="SourceGraphic"/></filter><filter x="0%" y="0%" width="100%" height="100%" filterUnits="objectBoundingBox" id="o"><feGaussianBlur in="SourceGraphic"/></filter><filter x="-8.4%" y="-6.9%" width="115.3%" height="115.5%" filterUnits="objectBoundingBox" id="p"><feOffset dx="-1" dy="1" in="SourceAlpha" result="shadowOffsetOuter1"/><feGaussianBlur stdDeviation="3" in="shadowOffsetOuter1" result="shadowBlurOuter1"/><feComposite in="shadowBlurOuter1" in2="SourceAlpha" operator="out" result="shadowBlurOuter1"/><feColorMatrix values="0 0 0 0 0 0 0 0 0 0 0 0 0 0 0 0 0 0 0.230550699 0" in="shadowBlurOuter1"/></filter><path id="a" d="M0 0h156v273H0z"/><path id="c" d="M.49 0h120.85v118.14H0z"/><path d="M817.918 148.579l.003 2.112h13.828c-1.191 1.498-2.41 3.268-3.736 5.347-2.46 3.857-3.684 8.744-3.754 14.61l-.041 3.5.118.01.033.313.063.477c1.158 7.914 7.99 13.992 16.243 13.992 9.066 0 16.416-7.333 16.416-16.38l-.012-.625-.039-.66a16.31 16.31 0 00-3.529-8.928l-.244-.294-.174-.246c-1.196-1.641-2.669-2.882-4.852-4.346-.315-.21-1.49-.981-1.756-1.16l-.587-.402c-1.32-.926-1.558-1.28-1.515-1.644.039-.33.16-.464.97-.733 1.069-.355 2.668-.513 4.762-.435l.003 4.985h11.285l.048.112.078.204c.107.29.218.652.325 1.08.508 2.028.822 5.071.916 9.078l.029 2.892v3.506h3.379l.228.236.193.218c.411.49.566.856.566 1.093v3.719h1.161l.088.212.219.484a15.36 15.36 0 0013.891 8.8l.582-.01.65-.038c1.511-.12 2.977-.46 4.36-1l.177-.073.08.246.197.566c.465 1.286.985 2.33 1.574 3.087 1.506 1.934 3.594 2.77 5.874 2.482.76-.097 1.481-.302 2.288-.61.279-.108.56-.224.9-.37l1.169-.507c1.061-.442 1.68-.61 2.23-.61.614 0 1.31.208 2.599.77l1.415.612.282.112c.808.313 1.53.52 2.293.616 2.29.291 4.381-.56 5.883-2.51 2.064-2.682 3.943-11.633 3.943-15.978 0-9.046-7.35-16.379-16.416-16.379s-16.416 7.333-16.416 16.38l.006.392.018.426c.015.295.037.611.067.945l.043.466-.108.097-.313.243a5.756 5.756 0 01-3.377 1.086l-.333-.01-.36-.031a5.784 5.784 0 01-4.822-3.994l-.058-.204.095-.15.13-.183c.143-.19.326-.4.552-.63l3.107-.001-.001-3.1v-3.297l-.002-19.966h.19l.001 2.11h18.037l-.003-2.11h.988l.002 4.219h22.263l-.002-4.22 10.095.001v49.384l-121.34-.931V148.58l6.855-.001zm84.686 15.258c7.004 0 12.682 5.666 12.682 12.654 0 2.897-1.528 11.575-3.17 13.708-.562.73-1.17 1.045-1.826 1.102l-.249.01c-2.005-.015-4.455-2.166-7.437-2.166-2.801 0-5.15 1.907-7.098 2.13l-.263.02c-.782.026-1.498-.258-2.15-1.096-.83-1.065-1.618-3.737-2.2-6.513l-.209-1.042a11.598 11.598 0 01-7.602 3.324l-.558.013-.473-.01a11.624 11.624 0 01-10.872-9.045l-.089-.435h-.191l-.015-.354c-.1-1.18-.695-2.36-1.786-3.54l-.313-.324h6.341l-.36.376c-.685.75-1.17 1.501-1.453 2.253l-.125.375c-.036.126-.066.25-.091.376.622 4.64 4.606 8.22 9.427 8.22a9.491 9.491 0 007.71-3.938c-.199-1.41-.312-2.642-.312-3.444 0-6.988 5.678-12.654 12.682-12.654zm-59.816-16.344a26.744 26.744 0 0110.569 0v2.11l-.748-.079a38.987 38.987 0 00-2.767-.172l-.53-.009-.515.002c-5.07.06-7.777 1.551-8.122 4.475-.582 4.93 6.528 5.904 9.613 10.483a12.605 12.605 0 013.069 8.258c0 6.84-5.439 12.412-12.237 12.646l-.445.007-.445-.007c-6.798-.234-12.237-5.806-12.237-12.646 0-.632.046-1.253.136-1.86l-.136-.01c.061-5.218 1.118-9.436 3.17-12.653 2.441-3.828 4.999-7.553 8.589-9.457l.474-.238c.8-.379 1.651-.668 2.562-.85zm58.883-63.795c7.004 0 12.682 5.665 12.682 12.653 0 6.84-5.439 12.412-12.237 12.646l-.445.008-.445-.008c-6.798-.234-12.237-5.806-12.237-12.646 0-1.134.15-2.233.43-3.279a9.495 9.495 0 00-7.367-4.091l-.461-.011-.436.01c-4.624.208-8.388 3.71-8.991 8.21.223 1.125.9 2.252 2.029 3.38h2.909l-.002 27.414h7.656v-2.108h10.569l-.001 2.108h8.454l.002-4.217h4.227v.619l.367-.16a6.53 6.53 0 012.413-.459h1.729l.473.017c.469.034.924.117 1.36.243v-.26h4.226l.002 4.081.054.137h13.772v16.871l-13.772.001-.057.136.001 4.082h-4.227v-.26l-.442.112a6.543 6.543 0 01-.917.131l-.473.017h-1.729l-.506-.02a6.51 6.51 0 01-1.907-.44l-.367-.158v.618h-4.227l-.002-4.218h-8.454v2.109h-10.568v-2.109H877.1l.002 26.362h-10.569l-.002-.71c-.059-10.775-1.467-16.162-4.225-16.162h-8.455l-.001-9.492h-21.63v2.11h-10.569l-.001-2.11-10.587.001v-16.872h10.587l.001-2.108h10.569v2.108h21.63v-7.38h8.456l.16-.007c2.552-.237 3.903-6.165 4.053-17.783l.014-2.245h1.319l.312-.324c1.201-1.298 1.801-2.596 1.801-3.894h.192l.089-.435a11.624 11.624 0 0111.345-9.055c3.461 0 6.57 1.51 8.7 3.905a12.678 12.678 0 0111.38-7.068zm-60.996 4.217c7.004 0 12.682 5.666 12.682 12.654 0 3.155-1.157 6.04-3.069 8.258-3.085 4.58-10.195 5.553-9.613 10.483.356 3.021 3.235 4.513 8.637 4.477l.53-.009.547-.018a41.02 41.02 0 002.343-.167l.625-.065v2.109l-.813.15c-3.252.549-6.504.499-9.756-.15a11.19 11.19 0 01-3.602-1.408c-2.909-1.748-5.131-4.704-7.202-7.864l-.82-1.273c-2.053-3.217-3.11-7.435-3.171-12.654l.136-.01a12.729 12.729 0 01-.136-1.859c0-6.988 5.678-12.654 12.682-12.654zm91.728-12.88v49.225h-10.095v-4.218h-22.26l-.003 4.215h-.988l.003-2.106h-18.037v2.106h-.191l.003-27.413-4.791-.002.032-.111.11-.317a5.786 5.786 0 015.405-3.719l.382.012.419.043c1.107.153 2.13.62 2.959 1.333l.055.049-.01.072-.078.71c-.042.477-.063.956-.063 1.437 0 9.046 7.35 16.379 16.416 16.379s16.416-7.333 16.416-16.379c0-9.046-7.35-16.379-16.416-16.379l-.556.01-.602.03a16.41 16.41 0 00-10.823 5.141l-.168.182-.356-.208-.53-.287a15.354 15.354 0 00-7.045-1.704l-.484.007-.553.027a15.37 15.37 0 00-13.128 9.354l-.044.105-1.15.003v3.72l-.008.098-.025.111a1.473 1.473 0 01-.107.262l-.011.02h-3.282l-.002 4.594c-.029 6.006-.363 10.493-.974 13.39l-.091.41-.093.379c-.124.483-.252.884-.375 1.196l-.028.066h-11.118l-.002 3.166c-2.16.08-3.796-.092-4.856-.468-.733-.26-.84-.382-.877-.701-.043-.364.196-.718 1.515-1.644l.587-.403c.177-.118.758-.5 1.22-.804l1.067-.717.552-.39c1.607-1.159 2.783-2.24 3.77-3.594l.17-.243.247-.297a16.316 16.316 0 003.58-10.214c0-9.046-7.35-16.379-16.416-16.379l-.484.007-.5.022c-7.97.47-14.41 6.614-15.322 14.44l-.033.312-.118.01.041 3.501.02.873c.175 5.479 1.397 10.073 3.734 13.737 1.243 1.948 2.391 3.626 3.511 5.062l-13.603-.003-.003 2.106-6.855.002V75.035h121.34z" id="g"/><path d="M934 75.035H809.467v122.93H934V75.035zm-5.576 5.674V192.29H815.043V80.71h113.38z" id="q"/><path id="y" d="M0 0h12.633v42.109H0z"/><path id="B" d="M0 0h12.633v42.109H0z"/></defs><g transform="translate(0 -45)" fill="none" fill-rule="evenodd" opacity=".1"><mask id="b" fill="#fff"><use xlink:href="#a"/></mask><g mask="url(#b)"><g transform="translate(33.063 78.228)"><mask id="e" fill="#fff"><use xlink:href="#c"/></mask><use fill="url(#d)" fill-rule="nonzero" xlink:href="#c"/><g opacity=".603"><g opacity=".148" mask="url(#e)" stroke="#FFF" stroke-linecap="square" stroke-width=".5"><path d="M-537.792 182.522l901.625-901.756M-537.792 188.836L363.833-712.92M-537.792 195.15l901.625-901.757M-537.792 201.462l901.625-901.756M-537.792 207.776L363.833-693.98M-537.792 214.09l901.625-901.757M-537.792 220.402l901.625-901.756M-537.792 226.716L363.833-675.04M-537.792 233.03l901.625-901.757M-537.792 239.343l901.625-901.757M-537.792 245.656L363.833-656.1M-537.792 251.97l901.625-901.757M-537.792 258.283l901.625-901.757M-537.792 264.596L363.833-637.16M-537.792 270.91l901.625-901.757M-537.792 277.223l901.625-901.757M-537.792 283.536L363.833-618.22M-537.792 289.85l901.625-901.757M-537.792 296.163l901.625-901.757M-537.792 302.476L363.833-599.28M-537.792 308.79l901.625-901.757M-537.792 315.103l901.625-901.757M-537.792 321.416L363.833-580.34M-537.792 327.73l901.625-901.757M-537.792 334.043l901.625-901.756M-537.792 340.356L363.833-561.4M-537.792 346.67l901.625-901.757M-537.792 352.983l901.625-901.756M-537.792 359.296L363.833-542.46M-537.792 365.61l901.625-901.757M-537.792 371.923l901.625-901.756M-537.792 378.236L363.833-523.52M-537.792 384.55l901.625-901.757M-537.792 390.863l901.625-901.756M-537.792 397.176L363.833-504.58M-537.792 403.49l901.625-901.757M-537.792 409.803l901.625-901.756M-537.792 416.116L363.833-485.64M-537.792 422.43l901.625-901.757M-537.792 428.743l901.625-901.756M-537.792 435.056L363.833-466.7M-537.792 441.37l901.625-901.757M-537.792 447.683l901.625-901.756M-537.792 453.996L363.833-447.76M-537.792 460.31l901.625-901.757M-537.792 466.623l901.625-901.756M-537.792 472.936L363.833-428.82M-537.792 479.25l901.625-901.757M-537.792 485.563l901.625-901.756M-537.792 491.876L363.833-409.88M-537.792 498.19l901.625-901.756M-537.792 504.503l901.625-901.756M-537.792 510.816L363.833-390.94M-537.792 517.13l901.625-901.756M-537.792 523.443l901.625-901.756M-537.792 529.756L363.833-372M-537.792 536.07l901.625-901.756M-537.792 542.383l901.625-901.756M-537.792 548.696L363.833-353.06M-537.792 555.01l901.625-901.756M-537.792 561.323l901.625-901.756M-537.792 567.636L363.833-334.12M-537.792 573.95l901.625-901.756M-537.792 580.263l901.625-901.756M-537.792 586.577L363.833-315.18M-537.792 592.89l901.625-901.756M-537.792 599.203l901.625-901.756M-537.792 605.517L363.833-296.24M-537.792 611.83l901.625-901.756M-537.792 618.143l901.625-901.756M-537.792 624.457L363.833-277.3M-537.792 630.77l901.625-901.756M-537.792 637.083l901.625-901.756M-537.792 643.397L363.833-258.36M-537.792 649.71l901.625-901.756M-537.792 656.023l901.625-901.756M-537.792 662.337L363.833-239.42M-537.792 668.65l901.625-901.756M-537.792 674.963l901.625-901.756M-537.792 681.277l901.625-901.756M-537.792 687.59l901.625-901.756M-537.792 693.903l901.625-901.756M-537.792 700.217l901.625-901.756M-537.792 706.53l901.625-901.756M-537.792 712.843l901.625-901.756M-537.792 719.157l901.625-901.756M-537.792 725.47l901.625-901.756M-537.792 731.783l901.625-901.756M-537.792 738.097l901.625-901.756M-537.792 744.41l901.625-901.756M-537.792 750.724l901.625-901.757M-537.792 757.037l901.625-901.756M-537.792 763.35l901.625-901.756M-537.792 769.664l901.625-901.757M-537.792 775.977l901.625-901.756M-537.792 782.29l901.625-901.756M-537.792 788.604l901.625-901.757M-537.792 794.917l901.625-901.756M-537.792 801.23l901.625-901.756M-537.792 807.544L363.833-94.213M-537.792 813.857L363.833-87.899M-537.792 820.17L363.833-81.586M-537.792 826.484L363.833-75.273M-537.792 832.797L363.833-68.959M-537.792 839.11L363.833-62.646M-537.792 845.424L363.833-56.332M-537.792 851.737L363.833-50.019M-537.792 858.05L363.833-43.706M-537.792 864.364L363.833-37.392M-537.792 870.677L363.833-31.079M-537.792 876.99L363.833-24.766M-537.792 883.304L363.833-18.452M-537.792 889.617L363.833-12.139M-537.792 895.93L363.833-5.826M-537.792 902.244L363.833.488M-537.792 908.557L363.833 6.801M-537.792 914.871L363.833 13.114M-537.792 921.184L363.833 19.428M-537.792 927.497L363.833 25.741M-537.792 933.811L363.833 32.054M-537.792 940.124L363.833 38.368M-537.792 946.437L363.833 44.681M-537.792 952.751L363.833 50.994M-537.792 959.064L363.833 57.308M-537.792 965.377L363.833 63.621M-537.792 971.691L363.833 69.934M-537.792 978.004L363.833 76.248M-537.792 984.317L363.833 82.561M-537.792 990.631L363.833 88.874M-537.792 996.944L363.833 95.188M-537.792 1003.257l901.625-901.756M-537.792 1009.571l901.625-901.757M-537.792 1015.884l901.625-901.756M-537.792 1022.197l901.625-901.756M-537.792 1028.511l901.625-901.756M-537.792 1034.824l901.625-901.756M-537.792 1041.137l901.625-901.756M-537.792 1047.451l901.625-901.756"/></g></g></g><g fill-rule="nonzero" transform="translate(-778)"><use fill="#000" filter="url(#f)" xlink:href="#g"/><use fill="url(#h)" xlink:href="#g"/></g><path d="M854.17 147.405v2.113c-8.074-.893-12.332.516-12.772 4.225-.586 4.944 6.589 5.916 9.691 10.515a12.575 12.575 0 013.082 8.26c0 7-5.719 12.675-12.773 12.675-7.054 0-12.772-5.675-12.772-12.676 0-.633.046-1.254.137-1.862l-.137-.01c.062-5.228 1.126-9.453 3.193-12.676 3.1-4.835 6.386-9.507 11.708-10.564a27.077 27.077 0 0110.644 0z" fill="url(#i)" filter="url(#j)" transform="translate(-778)"/><path d="M854.17 88.335v2.113c-8.074-.893-12.332.515-12.772 4.225-.586 4.943 6.589 5.916 9.691 10.515a12.575 12.575 0 013.082 8.259c0 7-5.719 12.676-12.773 12.676-7.054 0-12.772-5.675-12.772-12.676 0-.633.046-1.255.137-1.862l-.137-.01c.062-5.228 1.126-9.454 3.193-12.677 3.1-4.834 6.386-9.506 11.708-10.563a27.077 27.077 0 0110.644 0z" fill="url(#i)" filter="url(#k)" transform="matrix(1 0 0 -1 -778 213.93)"/><path d="M911.684 163.94c1.635 2.107 3.157 10.68 3.157 13.542 0 6.904-5.654 12.5-12.627 12.5-6.974 0-12.628-5.596-12.628-12.5 0-.793.113-2.012.31-3.406a9.485 9.485 0 00-7.676-3.886c-4.8 0-8.767 3.536-9.387 8.12.223 1.113.897 2.226 2.02 3.339h-6.313c1.403-1.39 2.105-2.778 2.105-4.167h.19c.99-5.334 5.711-9.376 11.385-9.376 3.166 0 6.035 1.259 8.125 3.298.592-3.09 1.47-6.281 2.398-7.464 2.31-2.945 5.413 1.041 9.47 1.041 4.083 0 7.163-4.017 9.471-1.041z" fill="url(#l)" filter="url(#m)" transform="matrix(1 0 0 -1 -778 352.825)"/><path d="M902.214 83.018c6.973 0 12.627 5.718 12.627 12.771 0 7.054-5.654 12.772-12.627 12.772-6.974 0-12.628-5.718-12.628-12.772 0-1.145.15-2.256.429-3.312-1.709-2.5-4.563-4.138-7.795-4.138-4.8 0-8.767 3.613-9.387 8.297.223 1.137.897 2.274 2.02 3.41h-6.313c1.403-1.418 2.105-2.837 2.105-4.257h.19c.99-5.45 5.711-9.578 11.385-9.578 3.446 0 6.54 1.523 8.66 3.94 2.06-4.226 6.36-7.133 11.334-7.133z" fill="url(#n)" filter="url(#o)" transform="translate(-778)"/><g fill-rule="nonzero" transform="translate(-778)"><use fill="#000" filter="url(#p)" xlink:href="#q"/><path stroke="#636262" stroke-width=".5" d="M933.75 75.285v122.43H809.717V75.285H933.75zm-5.076 5.174H814.793V192.54h113.88V80.46z" stroke-linejoin="square" fill="url(#r)" fill-rule="evenodd"/></g><path d="M891.143 175.936l23.447 6.097v28.671l-23.447 6.097v-40.865z" stroke="#636262" stroke-width=".5" fill="url(#s)" fill-rule="nonzero" transform="matrix(0 -1 -1 0 321.235 1099.235)"/><path d="M827.28 62.585l23.447 6.097v28.671l-23.447 6.097V62.585z" stroke="#636262" stroke-width=".5" fill="url(#s)" fill-rule="nonzero" transform="rotate(90 450.003 -305.982)"/><path d="M640.749 70.246l6.33 8.381h7.383v-4.19h14.77l-.001 4.19h51.617a4 4 0 014 4v8.763a4 4 0 01-4 4H669.23v4.191h-14.768l-.001-4.191h-7.384l-6.329 8.382h-46.415l-6.33-8.382H459.026a4 4 0 01-4-4v-8.763a4 4 0 014-4h128.978l6.33-8.381h46.415z" stroke="#636262" stroke-width=".5" fill="url(#t)" fill-rule="nonzero" transform="translate(-696.574 49.491)"/><path d="M833.996 73.439a3.5 3.5 0 013.5 3.5v.76l15.078-.003v17.03l-15.078.002v.754a3.5 3.5 0 01-3.5 3.5h-7.657a3.5 3.5 0 01-3.5-3.5l-.001-.752-112.36.02V77.72l112.36-.02v-.761a3.5 3.5 0 013.5-3.5h7.658z" stroke="#636262" stroke-width=".5" fill="url(#u)" fill-rule="nonzero" transform="translate(-696.574 49.491)"/><g stroke-width=".5"><path d="M13.063 0h10.886v70.786H13.063c0-11.27-1.452-16.904-4.354-16.904H0V20.074h8.709c2.902 0 4.354-6.692 4.354-20.074z" stroke="#636262" fill="url(#v)" fill-rule="nonzero" transform="translate(76.17 98.982)"/><path stroke="#636262" fill-opacity=".04" fill="#000" opacity=".5" d="M89.234 121.17h10.886v12.677H89.234zM89.234 133.847h10.886v12.678H89.234z"/><path stroke="#636262" fill-opacity=".06" fill="#000" opacity=".5" d="M89.234 112.717h10.886v8.452H89.234zM89.234 146.525h10.886v8.452H89.234z"/><path stroke="#636262" fill-opacity=".08" fill="#000" opacity=".5" d="M89.234 106.378h10.886v6.34H89.234zM89.234 154.977h10.886v6.34H89.234z"/><path stroke="#636262" fill-opacity=".104" fill="#000" opacity=".5" d="M89.234 102.152h10.886v4.226H89.234z"/><path stroke="#636262" fill-opacity=".1" fill="#000" opacity=".7" d="M89.234 161.316h10.886v5.283H89.234z"/><path stroke="url(#w)" stroke-linecap="square" d="M2.177 53.882V20.074M4.354 53.882V20.074M6.531 53.882V20.074" transform="translate(76.17 98.982)"/><path stroke="url(#x)" stroke-linecap="square" d="M8.709 53.882V20.074" transform="translate(76.17 98.982)"/></g><path d="M141.034 122.93v7.982h-4.105v-7.982h4.105zm-10.264 0v7.982h-4.105v-7.982h4.105zM141.034 148.474v-7.983h-4.105v7.983h4.105zm-10.264 0v-7.983h-4.105v7.983h4.105zM44.24 124.526h11.176v6.386H44.24zM44.24 140.491h11.176v6.386H44.24zM106.506 124.526h11.176v6.386h-11.176zM106.506 140.491h11.176v6.386h-11.176z" fill="#004C97"/><g transform="translate(3.526 114.947)"><mask id="A" fill="#fff"><use xlink:href="#y"/></mask><use fill="url(#z)" fill-rule="nonzero" xlink:href="#y"/><path fill="#7F7F7F" fill-rule="nonzero" mask="url(#A)" transform="matrix(-1 0 0 1 11.517 0)" d="M-7.1-2.105l-.62.744 26.337 31.603.62-.744zM-7.1 2.105l-.62.745 26.337 31.603.62-.744zM-7.1 6.316l-.62.745 26.337 31.603.62-.744zM-7.1 10.527l-.62.745 26.337 31.603.62-.744zM-7.1 14.738l-.62.744 26.337 31.604.62-.744zM-7.1 18.949l-.62.744 26.337 31.604.62-.745zM-7.1 23.16l-.62.744 26.337 31.604.62-.745zM-7.1 27.37l-.62.745L18.617 59.72l.62-.745zM-7.1-6.316l-.62.744 26.337 31.604.62-.745zM-7.1-10.527l-.62.744 26.337 31.604.62-.745zM-7.1-14.738l-.62.744L18.617 17.61l.62-.745zM-7.1-18.949l-.62.744L18.617 13.4l.62-.744z"/></g><path stroke="#636262" stroke-width=".5" d="M3.526 114.947H16.16v42.11H3.526z"/><g><g transform="translate(15.058 114.947)"><mask id="C" fill="#fff"><use xlink:href="#B"/></mask><use fill="url(#z)" fill-rule="nonzero" xlink:href="#B"/><path fill="#7F7F7F" fill-rule="nonzero" mask="url(#C)" transform="matrix(-1 0 0 1 11.517 0)" d="M-7.1-2.105l-.62.744 26.337 31.603.62-.744zM-7.1 2.105l-.62.745 26.337 31.603.62-.744zM-7.1 6.316l-.62.745 26.337 31.603.62-.744zM-7.1 10.527l-.62.745 26.337 31.603.62-.744zM-7.1 14.738l-.62.744 26.337 31.604.62-.744zM-7.1 18.949l-.62.744 26.337 31.604.62-.745zM-7.1 23.16l-.62.744 26.337 31.604.62-.745zM-7.1 27.37l-.62.745L18.617 59.72l.62-.745zM-7.1-6.316l-.62.744 26.337 31.604.62-.745zM-7.1-10.527l-.62.744 26.337 31.604.62-.745zM-7.1-14.738l-.62.744L18.617 17.61l.62-.745zM-7.1-18.949l-.62.744L18.617 13.4l.62-.744z"/></g><path stroke="#636262" stroke-width=".5" d="M15.058 114.947H27.69v42.11H15.058z"/></g></g></g></svg>