<svg xmlns="http://www.w3.org/2000/svg" xmlns:xlink="http://www.w3.org/1999/xlink" width="793" height="476"><defs><linearGradient id="b" x1="50.034%" x2="50.034%" y1="100%" y2="0%"><stop offset="0%" stop-color="#363D43"/><stop offset="38.975%" stop-color="#798085"/><stop offset="63.704%" stop-color="#82888D"/><stop offset="100%" stop-color="#363D43"/></linearGradient><linearGradient id="a" x1="50.034%" x2="50.034%" y1="99.984%" y2="-.004%"><stop offset="0%" stop-color="#8B878D"/><stop offset="13.66%" stop-color="#9F9CA1"/><stop offset="42.07%" stop-color="#D9D8DA"/><stop offset="51.52%" stop-color="#F3F4F4"/><stop offset="100%" stop-color="#807B80"/></linearGradient><linearGradient id="i" x1="50.034%" x2="50.034%" y1="99.725%" y2="-.004%"><stop offset="0%" stop-color="#656266"/><stop offset="13.66%" stop-color="#9F9CA1"/><stop offset="42.07%" stop-color="#D9D8DA"/><stop offset="51.52%" stop-color="#F3F4F4"/><stop offset="100%" stop-color="#807B80"/></linearGradient><linearGradient id="k" x1="50.034%" x2="50.034%" y1="99.725%" y2="-.004%"><stop offset="0%" stop-color="#656266"/><stop offset="13.66%" stop-color="#9F9CA1"/><stop offset="42.07%" stop-color="#D9D8DA"/><stop offset="51.52%" stop-color="#F3F4F4"/><stop offset="100%" stop-color="#807B80"/></linearGradient><linearGradient id="l" x1="50.034%" x2="50.034%" y1="99.725%" y2="-.004%"><stop offset="0%" stop-color="#656266"/><stop offset="13.66%" stop-color="#9F9CA1"/><stop offset="42.07%" stop-color="#D9D8DA"/><stop offset="51.52%" stop-color="#F3F4F4"/><stop offset="100%" stop-color="#807B80"/></linearGradient><linearGradient id="m" x1="50.034%" x2="50.034%" y1="99.725%" y2="-.004%"><stop offset="0%" stop-color="#656266"/><stop offset="13.66%" stop-color="#9F9CA1"/><stop offset="42.07%" stop-color="#D9D8DA"/><stop offset="51.52%" stop-color="#F3F4F4"/><stop offset="100%" stop-color="#807B80"/></linearGradient><linearGradient id="n" x1="50.034%" x2="50.034%" y1="99.725%" y2="-.004%"><stop offset="0%" stop-color="#656266"/><stop offset="13.66%" stop-color="#9F9CA1"/><stop offset="42.07%" stop-color="#D9D8DA"/><stop offset="51.52%" stop-color="#F3F4F4"/><stop offset="100%" stop-color="#807B80"/></linearGradient><linearGradient id="o" x1="50.034%" x2="50.034%" y1="99.725%" y2="-.004%"><stop offset="0%" stop-color="#656266"/><stop offset="13.66%" stop-color="#9F9CA1"/><stop offset="42.07%" stop-color="#D9D8DA"/><stop offset="51.52%" stop-color="#F3F4F4"/><stop offset="100%" stop-color="#807B80"/></linearGradient><linearGradient id="q" x1="50.034%" x2="50.034%" y1="99.725%" y2="-.004%"><stop offset="0%" stop-color="#656266"/><stop offset="13.66%" stop-color="#9F9CA1"/><stop offset="42.07%" stop-color="#D9D8DA"/><stop offset="51.52%" stop-color="#F3F4F4"/><stop offset="100%" stop-color="#807B80"/></linearGradient><linearGradient id="g" x1=".453%" x2="99.615%" y1="50.403%" y2="50.403%"><stop offset="0%" stop-color="#AFACB1"/><stop offset="28.499%" stop-color="#BAB9BC"/><stop offset="42.07%" stop-color="#D9D8DA"/><stop offset="58.437%" stop-color="#F3F4F4"/><stop offset="100%" stop-color="#958F95"/></linearGradient><linearGradient id="y" x1="50.034%" x2="50.034%" y1="99.725%" y2="-.004%"><stop offset="0%" stop-color="#656266"/><stop offset="13.66%" stop-color="#9F9CA1"/><stop offset="42.07%" stop-color="#D9D8DA"/><stop offset="51.52%" stop-color="#F3F4F4"/><stop offset="100%" stop-color="#807B80"/></linearGradient><linearGradient id="z" x1=".169%" x2="99.899%" y1="49.86%" y2="49.86%"><stop offset="0%" stop-color="#656266"/><stop offset="13.66%" stop-color="#9F9CA1"/><stop offset="42.07%" stop-color="#D9D8DA"/><stop offset="51.52%" stop-color="#F3F4F4"/><stop offset="100%" stop-color="#807B80"/></linearGradient><linearGradient id="A" x1="50.034%" x2="50.034%" y1="99.984%" y2="-.004%"><stop offset="0%" stop-color="#212F42"/><stop offset="50.465%" stop-color="#004C97"/><stop offset="100%" stop-color="#213042"/></linearGradient><linearGradient id="B" x1="50.034%" x2="50.034%" y1="99.725%" y2="-.004%"><stop offset="0%" stop-color="#6B666B"/><stop offset="22.807%" stop-color="#9F9CA1"/><stop offset="51.051%" stop-color="#F3F4F4"/><stop offset="80.103%" stop-color="#9F9CA1"/><stop offset="100%" stop-color="#6B666B"/></linearGradient><linearGradient id="C" x1="50.034%" x2="50.034%" y1="99.725%" y2="-.004%"><stop offset="0%" stop-color="#656266"/><stop offset="13.66%" stop-color="#9F9CA1"/><stop offset="42.07%" stop-color="#D9D8DA"/><stop offset="51.52%" stop-color="#F3F4F4"/><stop offset="100%" stop-color="#807B80"/></linearGradient><linearGradient id="D" x1="50.034%" x2="50.034%" y1="99.725%" y2="-.004%"><stop offset="0%" stop-color="#656266"/><stop offset="13.66%" stop-color="#9F9CA1"/><stop offset="42.07%" stop-color="#D9D8DA"/><stop offset="51.52%" stop-color="#F3F4F4"/><stop offset="100%" stop-color="#807B80"/></linearGradient><linearGradient id="E" x1="50.034%" x2="50.034%" y1="99.725%" y2="-.004%"><stop offset="0%" stop-color="#656266"/><stop offset="13.66%" stop-color="#9F9CA1"/><stop offset="42.07%" stop-color="#D9D8DA"/><stop offset="51.52%" stop-color="#F3F4F4"/><stop offset="100%" stop-color="#807B80"/></linearGradient><linearGradient id="F" x1="50.034%" x2="50.034%" y1="99.725%" y2="-.004%"><stop offset="0%" stop-color="#656266"/><stop offset="13.66%" stop-color="#9F9CA1"/><stop offset="42.07%" stop-color="#D9D8DA"/><stop offset="51.52%" stop-color="#F3F4F4"/><stop offset="100%" stop-color="#807B80"/></linearGradient><linearGradient id="G" x1="50.034%" x2="50.034%" y1="99.984%" y2="-.004%"><stop offset="0%" stop-color="#212F42"/><stop offset="13.66%" stop-color="#004C97"/><stop offset="42.07%" stop-color="#004C97"/><stop offset="51.52%" stop-color="#004C97"/><stop offset="100%" stop-color="#213042"/></linearGradient><path id="c" d="M4 0h5.5v37.5l4 3.5h62l4-3.5V0H85v37.5l4 3.5v98.5H77.5v-11h-23v10h-40v-10l-5 3.5v37.5H4V132l-4-3.5V41l4-3.5z"/><path id="J" d="M5 2.65v12l24-6z"/><path id="f" d="M535 121h7.5v38.046l3.376 2.954h61.248l3.376-2.954V121h7.5v38.046l4 3.5V262.5h-13.5v-11h-21v10h-42v-9.08l-3 2.1v37.98H535v-38.046l-4-3.5v-88.408l4-3.5V121zm75.841 37.747l-.341.753v-.454l.341-.299zM607.5 162l-.659.247.283-.247h.376zM537 123v36.954l-4 3.5v86.592l4 3.5V290.5h3.5v-37.02l7-4.9v10.92h38v-10h25v11h9.5v-97.046l-4-3.5V123h-3.5v36.954L607.876 164h-62.752l-4.624-4.046V123H537z"/><path id="L" d="M180 121h7.5v38.046l3.376 2.954h61.248l3.376-2.954V121h7.5v38.046l4 3.5V262.5h-13.5v-11h-21v10h-42v-9.08l-3 2.1v37.98H180v-38.046l-4-3.5v-88.408l4-3.5V121zm2 2v36.954l-4 3.5v86.592l4 3.5V290.5h3.5v-37.02l7-4.9v10.92h38v-10h25v11h9.5v-97.046l-4-3.5V123h-3.5v36.954L252.876 164h-62.752l-4.624-4.046V123H182z"/><path id="h" d="M0 0h24v8H0z"/><path id="d" d="M4 0h5.5v37.5l4 3.5h62l4-3.5V0H85v37.5l4 3.5v98.5H77.5v-11h-23v10h-40v-10l-5 3.5v37.5H4V132l-4-3.5V41l4-3.5z"/><path id="H" d="M.9.65v12l24-6z"/><path id="p" d="M0 0h24v8H0z"/><circle id="w" cx="12.5" cy="12.5" r="12.5"/><circle id="s" cx="12.5" cy="12.5" r="12.5"/><circle id="u" cx="12.5" cy="12.5" r="12.5"/><filter id="e" width="120.9%" height="111.1%" x="-11.5%" y="-5%" filterUnits="objectBoundingBox"><feOffset dx="-1" dy="1" in="SourceAlpha" result="shadowOffsetOuter1"/><feGaussianBlur in="shadowOffsetOuter1" result="shadowBlurOuter1" stdDeviation="3"/><feColorMatrix in="shadowBlurOuter1" values="0 0 0 0 0 0 0 0 0 0 0 0 0 0 0 0 0 0 0.230550699 0"/></filter><filter id="K" width="120.9%" height="111.1%" x="-11.5%" y="-5%" filterUnits="objectBoundingBox"><feOffset dx="-1" dy="1" in="SourceAlpha" result="shadowOffsetOuter1"/><feGaussianBlur in="shadowOffsetOuter1" result="shadowBlurOuter1" stdDeviation="3"/><feColorMatrix in="shadowBlurOuter1" values="0 0 0 0 0 0 0 0 0 0 0 0 0 0 0 0 0 0 0.230550699 0"/></filter></defs><g fill="none" fill-rule="evenodd"><path fill="#526C91" stroke="#364B65" d="M733.5 290.029V128.987h54.222l3.778 3.779v-14.559l-3.779 3.779H734.5v.015h-670v161.01l-56.515.002v-3.78l-7.278 7.28 7.278 7.28v-3.779H64.5v.015h669z" opacity=".4"/><path fill="url(#a)" fill-rule="nonzero" stroke="#636262" stroke-width=".5" d="M84 203h630v8H84z"/><path stroke="#607C99" stroke-linecap="square" d="M113 163v30l3.69 8 3.69-8 3.69 8 4.099-8 3.69 8 3.69-8 4.099 8 3.28-8v-30H147m153 0v12.09l3.699 7.91 3.698-7.91 3.699 7.91 4.11-7.91 3.698 7.91 3.699-7.91 4.11 7.91 3.287-7.91V163m-30 87v-10.09l3.699-7.91 3.698 7.91 3.699-7.91 4.11 7.91 3.698-7.91 3.699 7.91 4.11-7.91 3.287 7.91V250m-217 .39v-30.308l3.699-8.082 3.698 8.082 3.699-8.082 4.11 8.082 3.698-8.082 3.699 8.082 4.11-8.082 3.287 8.082V290"/><use fill="url(#b)" fill-rule="nonzero" transform="translate(532 122)" xlink:href="#c"/><use fill="url(#b)" fill-rule="nonzero" transform="matrix(-1 0 0 1 266 122)" xlink:href="#d"/><path stroke="#4F556D" stroke-linecap="square" d="M176.5 194v32m89-32v32"/><path stroke="#FFCC01" stroke-linecap="square" stroke-width="1.5" d="M538.5 291.5v17h-279v-17"/><path stroke="#50B4E4" stroke-linecap="square" stroke-width="1.5" d="M751.5 307.5v-203h-606v58"/><path stroke="#FFCC01" stroke-linecap="square" stroke-width="1.5" d="M401 354h40v79h-40"/><path stroke="#50B4E4" stroke-linecap="square" stroke-width="1.5" d="M651 425v17h-49v-17m24 17v12h-62m87-29v-55h-49v55m152-69v14h-49.5m-24 0H651"/><path stroke="#4F556D" stroke-linecap="square" d="M532.5 194v32m89-32v32"/><path stroke="#607C99" stroke-linecap="square" d="M147 163.798v29.16l3.637 8.042 3.637-8.042 3.637 8.042 4.041-8.042L165.59 201l3.637-8.042 4.041 8.042 3.233-8.042v-30.16l4-3.482V122h5.5v37.316l4 3.482h31M147 290v-69.918l3.637-8.082 3.637 8.082 3.637-8.082 4.041 8.082L165.59 212l3.637 8.082 4.041-8.082 3.233 8.082V261.5H188v-11.11l23 .11v10"/><path stroke="#607C99" stroke-linecap="square" d="M295 162.798v30.16L291.363 201l-3.637-8.042-3.637 8.042-4.041-8.042L276.41 201l-3.637-8.042-4.041 8.042-3.233-8.042v-30.16l-4-3.482V122H256v37.316l-4 3.482h-31m79 87.512l-5-.108v-30.16L291.363 212l-3.637 8.042-3.637-8.042-4.041 8.042L276.41 212l-3.637 8.042-4.041-8.042-3.233 8.042v30.16l-4 3.482V291H256v-37.316l-5-3.373v9.841h-40M685 163v30l-3.69 8-3.69-8-3.69 8-4.099-8-3.69 8-3.69-8-4.099 8-3.28-8v-30H651m34 87.39v-30.308L681.301 212l-3.698 8.082-3.699-8.082-4.11 8.082-3.698-8.082-3.699 8.082-4.11-8.082-3.287 8.082V290m-4-126.202v29.16L647.363 201l-3.637-8.042-3.637 8.042-4.041-8.042L632.41 201l-3.637-8.042-4.041 8.042-3.233-8.042v-30.16l-4-3.482V122H612v37.316l-4 3.482h-31M651 290v-69.918L647.363 212l-3.637 8.082-3.637-8.082-4.041 8.082L632.41 212l-3.637 8.082-4.041-8.082-3.233 8.082V261.5H610v-11.11l-23 .11v10"/><path stroke="#607C99" stroke-linecap="square" d="M503 162.798v30.16l3.637 8.042 3.637-8.042 3.637 8.042 4.041-8.042L521.59 201l3.637-8.042 4.041 8.042 3.233-8.042v-30.16l4-3.482V122h5.5v37.316l4 3.482h31M503 250.202v-30.16l3.637-8.042 3.637 8.042 3.637-8.042 4.041 8.042L521.59 212l3.637 8.042 4.041-8.042 3.233 8.042v30.16l4 3.482V291h5.5v-37.316l5-3.373v9.841h40"/><g fill-rule="nonzero"><use fill="#000" filter="url(#e)" xlink:href="#f"/><use fill="url(#g)" xlink:href="#f"/></g><g transform="matrix(1 0 0 -1 680.49 363.51)"><mask id="j" fill="#fff"><use xlink:href="#h"/></mask><path fill="url(#i)" fill-rule="nonzero" stroke="#2C405A" stroke-width=".5" d="M23.426-6.75H.574A11.781 11.781 0 00.25-4C.25 2.49 5.51 7.75 12 7.75S23.75 2.49 23.75-4c0-.936-.11-1.857-.324-2.75z" mask="url(#j)"/></g><path fill="#A1A9B4" d="M692 344.5h-19v15.25l19 9.25v-21h1v23l-21-10.75V343.5h21v4.5h-1z"/><path fill="url(#k)" fill-rule="nonzero" stroke="#2C405A" stroke-width=".5" d="M27.95 11.073l-4.583 11.222 11.222-4.583-6.64-6.64z" transform="scale(1 -1) rotate(45 832.121 634.366)"/><path fill="url(#k)" fill-rule="nonzero" stroke="#2C405A" stroke-width=".5" d="M19.529 3.321l-4.583 11.223L26.168 9.96l-6.64-6.64z" transform="scale(1 -1) rotate(-45 -110.6 -995.736)"/><path fill="url(#k)" fill-rule="nonzero" stroke="#2C405A" stroke-width=".5" d="M10.95 11.073L6.366 22.295l11.222-4.583-6.64-6.64z" transform="rotate(-135 421.208 54.324)"/><path fill="#9AA9B7" fill-rule="nonzero" d="M691.99 370.01v-7h1v7z"/><path stroke="#FCFCFC" stroke-linecap="square" stroke-width="1.5" d="M259.5 122L260 8"/><path stroke="#FFCC01" stroke-linecap="square" stroke-width="1.5" d="M183.5 122L184 8m430.5 112.5L615 8"/><path stroke="#50B4E4" stroke-linecap="square" stroke-width="1.5" d="M653 162l.5-56.5"/><path stroke="#FFCC01" stroke-linecap="square" stroke-width="1.5" d="M37.14 359.5l.36-69"/><path stroke="#FCFCFC" stroke-linecap="square" stroke-width="1.5" d="M538.5 120.5V8"/><g transform="translate(244 27)"><rect width="29.5" height="31.5" x=".25" y=".25" fill="url(#l)" fill-rule="nonzero" stroke="#2C405A" stroke-width=".5" rx="4"/><path fill="#A8AEC0" stroke="#162842" d="M25.5 4.5h-9v14h9z"/><path fill="#FFF" stroke="#162842" d="M16.5 4.5h-12v14h12z"/><g fill-rule="nonzero"><path fill="#50556B" d="M9.5 11v1h-3v-1z"/><path fill="#F04450" d="M16 11v1h-4v-1z"/><path fill="#50556B" d="M10.5 9v1h-4V9z"/><path fill="#F04450" d="M11.5 7v1h-5V7z"/><path fill="#50556B" d="M10.5 13v1h-4v-1zm1 2v1h-5v-1z"/></g><path fill="url(#m)" fill-rule="nonzero" stroke="#2C405A" stroke-width=".5" d="M11.25 32.25v4h-6v3.5h19.5v-3.5h-6v-4h-7.5z"/><path fill="url(#n)" fill-rule="nonzero" d="M0 42h13v1H0zm17 0h13v1H17z"/><path fill="url(#o)" fill-rule="nonzero" stroke="#2C405A" stroke-width=".5" d="M5.25 45.25h19.5v3.5H5.25z"/></g><g transform="translate(524 27)"><rect width="29.5" height="31.5" x=".25" y=".25" fill="url(#l)" fill-rule="nonzero" stroke="#2C405A" stroke-width=".5" rx="4"/><path fill="#A8AEC0" stroke="#162842" d="M4.5 4.5h9v14h-9z"/><path fill="#FFF" stroke="#162842" d="M13.5 4.5h12v14h-12z"/><g fill-rule="nonzero"><path fill="#50556B" d="M20.5 11v1h3v-1z"/><path fill="#F04450" d="M14 11v1h4v-1z"/><path fill="#50556B" d="M19.5 9v1h4V9z"/><path fill="#F04450" d="M18.5 7v1h5V7z"/><path fill="#50556B" d="M19.5 13v1h4v-1zm-1 2v1h5v-1z"/></g><path fill="url(#m)" fill-rule="nonzero" stroke="#2C405A" stroke-width=".5" d="M11.25 32.25v4h-6v3.5h19.5v-3.5h-6v-4h-7.5z"/><path fill="url(#n)" fill-rule="nonzero" d="M0 42h13v1H0zm17 0h13v1H17z"/><path fill="url(#o)" fill-rule="nonzero" stroke="#2C405A" stroke-width=".5" d="M5.25 45.25h19.5v3.5H5.25z"/></g><path stroke="#FCFCFC" stroke-linecap="square" stroke-width="1.5" d="M209 8v80h50"/><path stroke="#FFCC01" stroke-linecap="square" stroke-width="1.5" d="M43 360H19v47h24"/><path stroke="#FFCC01" stroke-linecap="square" stroke-width="1.5" d="M33 360h24v47H33"/><path stroke="#FFCC01" stroke-linecap="square" stroke-width="1.5" d="M400.5 308.5v74m0 23.5v64.5h-362v-63.795"/><path stroke="#FCFCFC" stroke-linecap="square" stroke-width="1.5" d="M589 8v80h-50"/><path fill="url(#k)" fill-rule="nonzero" stroke="#2C405A" stroke-width=".5" d="M8.039 2.983L3.456 14.205 14.68 9.622l-6.64-6.64z" transform="scale(1 -1) rotate(-45 43.987 -259.775)"/><path fill="url(#k)" fill-rule="nonzero" stroke="#2C405A" stroke-width=".5" d="M7.878 11.65L3.295 22.872l11.222-4.583-6.64-6.64z" transform="rotate(-135 108.541 -12.29)"/><path fill="#A1A9B4" d="M212.293 35.707L213 35l-7-7-.707.707zm0-4L213 31l-7-7-.707.707zm0-4L213 27l-7-7-.707.707z"/><path fill="url(#k)" fill-rule="nonzero" stroke="#2C405A" stroke-width=".5" d="M8.039 2.983L3.456 14.205 14.68 9.622l-6.64-6.64z" transform="scale(1 -1) rotate(-45 233.987 -718.475)"/><path fill="url(#k)" fill-rule="nonzero" stroke="#2C405A" stroke-width=".5" d="M8.039 2.983L3.456 14.205 14.68 9.622l-6.64-6.64z" transform="scale(-1 1) rotate(45 -320.024 -688.003)"/><path fill="#A1A9B4" d="M592.293 35.707L593 35l-7-7-.707.707zm0-4L593 31l-7-7-.707.707zm0-4L593 27l-7-7-.707.707z"/><path fill="#FFCB00" d="M189.142 7.293H179l5.071-7.071z"/><path fill="#FCFCFC" d="M214.364 7.293h-10.142l5.07-7.071zm50.778 0H255l5.071-7.071zm278.222 0h-10.142l5.07-7.071zm50.778 0H584l5.071-7.071z"/><path fill="#FFCB00" d="M620.142 7.293H610l5.071-7.071z"/><path fill="#FFDA00" d="M42.642 303.929H32.5L37.571 311z"/><path fill="#FFCB00" d="M405.364 455.293h-10.142l5.07-7.071zm-191.071 20.071v-10.142l7.071 5.07zm191.071-137.071h-10.142l5.07-7.071z"/><path fill="#50B4E4" d="M756.642 211.071H746.5l5.071-7.071zM561.071 459.142V449l7.071 5.071z"/><g transform="rotate(-90 400.01 6)"><mask id="r" fill="#fff"><use xlink:href="#p"/></mask><path fill="url(#q)" fill-rule="nonzero" stroke="#2C405A" stroke-width=".5" d="M23.426-6.75H.574A11.781 11.781 0 00.25-4C.25 2.49 5.51 7.75 12 7.75S23.75 2.49 23.75-4c0-.936-.11-1.857-.324-2.75z" mask="url(#r)"/></g><path fill="url(#k)" fill-rule="nonzero" stroke="#2C405A" stroke-width=".5" d="M24.529 3.073l-4.583 11.222 11.222-4.583-6.64-6.64z" transform="scale(-1 1) rotate(-45 267.763 711.982)"/><path fill="url(#k)" fill-rule="nonzero" stroke="#2C405A" stroke-width=".5" d="M8.039 3.073L3.456 14.295 14.68 9.712l-6.64-6.64z" transform="rotate(135 123.387 286.699)"/><path fill="#A1A9B4" d="M401 394.51h-7v-1h7z"/><g transform="translate(25 324)"><g transform="translate(.525 .525)"><mask id="t" fill="#fff"><use xlink:href="#s"/></mask><use fill="#FFF" xlink:href="#s"/><g fill="#FFCB00" mask="url(#t)"><path d="M35.71-31.65l.743.742-87.61 87.611-.743-.742L35.71-31.65zm6.138 0l.742.742-87.61 87.611-.743-.742 87.61-87.611zm6.3 0l.742.742-87.61 87.611-.743-.742 87.61-87.611zm6.3 0l.742.742-87.61 87.611-.743-.742 87.61-87.611zm6.3 0l.742.742-87.61 87.611-.743-.742 87.61-87.611zm6.3 0l.742.742-87.61 87.611-.743-.742 87.61-87.611zm6.3 0l.742.742-87.61 87.611-.743-.742 87.61-87.611zm6.3 0l.742.742-87.61 87.611-.743-.742 87.61-87.611zm6.3 0l.742.742L-.92 56.703l-.743-.742 87.61-87.611z"/><path d="M-.92-31.65l-.743.742 87.61 87.611.743-.742L-.92-31.65zm-6.138 0l-.742.742 87.61 87.611.743-.742-87.61-87.611zm-6.3 0l-.742.742 87.61 87.611.743-.742-87.61-87.611zm-6.3 0l-.742.742 87.61 87.611.743-.742-87.61-87.611zm-6.3 0l-.742.742 87.61 87.611.743-.742-87.61-87.611zm-6.3 0l-.742.742 87.61 87.611.743-.742-87.61-87.611zm-6.3 0l-.742.742 87.61 87.611.743-.742-87.61-87.611zm-6.3 0l-.742.742 87.61 87.611.743-.742-87.61-87.611zm-6.3 0l-.742.742 87.61 87.611.743-.742-87.61-87.611z"/></g></g><circle cx="13" cy="13" r="13" stroke="#FFCB00" stroke-width="1.5"/></g><g transform="translate(6 371)"><g transform="translate(.525 .525)"><mask id="v" fill="#fff"><use xlink:href="#u"/></mask><use fill="#FFF" xlink:href="#u"/><g fill="#FFCB00" mask="url(#v)"><path d="M35.71-31.65l.743.742-87.61 87.611-.743-.742L35.71-31.65zm6.138 0l.742.742-87.61 87.611-.743-.742 87.61-87.611zm6.3 0l.742.742-87.61 87.611-.743-.742 87.61-87.611zm6.3 0l.742.742-87.61 87.611-.743-.742 87.61-87.611zm6.3 0l.742.742-87.61 87.611-.743-.742 87.61-87.611zm6.3 0l.742.742-87.61 87.611-.743-.742 87.61-87.611zm6.3 0l.742.742-87.61 87.611-.743-.742 87.61-87.611zm6.3 0l.742.742-87.61 87.611-.743-.742 87.61-87.611zm6.3 0l.742.742L-.92 56.703l-.743-.742 87.61-87.611z"/><path d="M-.92-31.65l-.743.742 87.61 87.611.743-.742L-.92-31.65zm-6.138 0l-.742.742 87.61 87.611.743-.742-87.61-87.611zm-6.3 0l-.742.742 87.61 87.611.743-.742-87.61-87.611zm-6.3 0l-.742.742 87.61 87.611.743-.742-87.61-87.611zm-6.3 0l-.742.742 87.61 87.611.743-.742-87.61-87.611zm-6.3 0l-.742.742 87.61 87.611.743-.742-87.61-87.611zm-6.3 0l-.742.742 87.61 87.611.743-.742-87.61-87.611zm-6.3 0l-.742.742 87.61 87.611.743-.742-87.61-87.611zm-6.3 0l-.742.742 87.61 87.611.743-.742-87.61-87.611z"/></g></g><circle cx="13" cy="13" r="13" stroke="#FFCB00" stroke-width="1.5"/></g><g transform="translate(44 371)"><g transform="translate(.525 .525)"><mask id="x" fill="#fff"><use xlink:href="#w"/></mask><use fill="#FFF" xlink:href="#w"/><g fill="#FFCB00" mask="url(#x)"><path d="M35.71-31.65l.743.742-87.61 87.611-.743-.742L35.71-31.65zm6.138 0l.742.742-87.61 87.611-.743-.742 87.61-87.611zm6.3 0l.742.742-87.61 87.611-.743-.742 87.61-87.611zm6.3 0l.742.742-87.61 87.611-.743-.742 87.61-87.611zm6.3 0l.742.742-87.61 87.611-.743-.742 87.61-87.611zm6.3 0l.742.742-87.61 87.611-.743-.742 87.61-87.611zm6.3 0l.742.742-87.61 87.611-.743-.742 87.61-87.611zm6.3 0l.742.742-87.61 87.611-.743-.742 87.61-87.611zm6.3 0l.742.742L-.92 56.703l-.743-.742 87.61-87.611z"/><path d="M-.92-31.65l-.743.742 87.61 87.611.743-.742L-.92-31.65zm-6.138 0l-.742.742 87.61 87.611.743-.742-87.61-87.611zm-6.3 0l-.742.742 87.61 87.611.743-.742-87.61-87.611zm-6.3 0l-.742.742 87.61 87.611.743-.742-87.61-87.611zm-6.3 0l-.742.742 87.61 87.611.743-.742-87.61-87.611zm-6.3 0l-.742.742 87.61 87.611.743-.742-87.61-87.611zm-6.3 0l-.742.742 87.61 87.611.743-.742-87.61-87.611zm-6.3 0l-.742.742 87.61 87.611.743-.742-87.61-87.611zm-6.3 0l-.742.742 87.61 87.611.743-.742-87.61-87.611z"/></g></g><circle cx="13" cy="13" r="13" stroke="#FFCA00" stroke-width="1.5"/></g><path fill="url(#y)" fill-rule="nonzero" stroke="#2C405A" stroke-width=".5" d="M300.651 184.25l14.516 13.064.083.186V216l-.073.177-14.573 14.573h34.146v-46.5h-34.099z"/><g fill-rule="nonzero" transform="translate(333 149)"><rect width="49.5" height="91.5" x="61.25" y="13.25" fill="url(#z)" stroke="#2C405A" stroke-width=".5" rx="5" transform="rotate(90 86 59)"/><rect width="24" height="92" x="74" y="13" fill="url(#A)" rx="5" transform="rotate(90 86 59)"/><path fill="url(#B)" stroke="#2C405A" stroke-width=".5" d="M165.69 3.334A3.75 3.75 0 00161.333.31l-158 28.555a3.75 3.75 0 00-3.083 3.69V84.87a3.75 3.75 0 003.083 3.69l158 28.555a3.75 3.75 0 004.417-3.69V4c0-.224-.02-.447-.06-.667zM104.5 37.963c11.46 0 20.75 9.29 20.75 20.75s-9.29 20.75-20.75 20.75h-37c-11.46 0-20.75-9.29-20.75-20.75s9.29-20.75 20.75-20.75h37z"/></g><path fill="url(#C)" fill-rule="nonzero" stroke="#2C405A" stroke-width=".5" d="M202.25 176.25v21.5h13.5v-21.5h-13.5z"/><path fill="url(#C)" fill-rule="nonzero" stroke="#2C405A" stroke-width=".5" d="M543.25 176.25v21.5h13.5v-21.5h-13.5z" transform="matrix(-1 0 0 1 1100 0)"/><path fill="url(#C)" fill-rule="nonzero" stroke="#2C405A" stroke-width=".5" d="M202.25 216.25v21.5h13.5v-21.5h-13.5z" transform="matrix(1 0 0 -1 0 454)"/><path fill="url(#C)" fill-rule="nonzero" stroke="#2C405A" stroke-width=".5" d="M244.25 176.25v21.5h13.5v-21.5h-13.5z"/><path fill="url(#C)" fill-rule="nonzero" stroke="#2C405A" stroke-width=".5" d="M585.25 176.25v21.5h13.5v-21.5h-13.5z" transform="matrix(-1 0 0 1 1184 0)"/><path fill="url(#C)" fill-rule="nonzero" stroke="#2C405A" stroke-width=".5" d="M244.25 216.25v21.5h13.5v-21.5h-13.5z" transform="matrix(1 0 0 -1 0 454)"/><path fill="url(#D)" fill-rule="nonzero" stroke="#2C405A" stroke-width=".5" d="M186.25 173.25v24h6.588v3.5h6.912v-24.5h-6.176v-3h-7.324z"/><path fill="url(#D)" fill-rule="nonzero" stroke="#2C405A" stroke-width=".5" d="M554.25 173.25v24h6.588v3.5h6.912v-24.5h-6.176v-3h-7.324z" transform="matrix(-1 0 0 1 1122 0)"/><path fill="url(#D)" fill-rule="nonzero" stroke="#2C405A" stroke-width=".5" d="M186.25 213.25v24h6.588v3.5h6.912v-24.5h-6.176v-3h-7.324z" transform="matrix(1 0 0 -1 0 454)"/><path fill="url(#D)" fill-rule="nonzero" stroke="#2C405A" stroke-width=".5" d="M228.25 173.25v24h6.588v3.5h6.912v-24.5h-6.176v-3h-7.324z"/><path fill="url(#D)" fill-rule="nonzero" stroke="#2C405A" stroke-width=".5" d="M597.25 173.25v24h6.588v3.5h6.912v-24.5h-6.176v-3h-7.324z" transform="matrix(-1 0 0 1 1208 0)"/><path fill="url(#D)" fill-rule="nonzero" stroke="#2C405A" stroke-width=".5" d="M228.25 213.25v24h6.588v3.5h6.912v-24.5h-6.176v-3h-7.324z" transform="matrix(1 0 0 -1 0 454)"/><path fill="#193D59" d="M437 389h8v9h-8z"/><path fill="#FFCB00" d="M436 389h10v1.5h-10zm0 7.5h10v1.5h-10zm0-3.5h10v1.5h-10z"/><path fill="#254664" d="M24.5 282v10h-5v-10z"/><path fill="#47637A" d="M20.5 282v10h-1v-10zm4 0v10h-1v-10z"/><path stroke="#FFF" stroke-dasharray="2" d="M453 324h339v147H453V324z" opacity=".2"/><path fill="#193D59" d="M597 377h8v9h-8z"/><path fill="#50B4E4" d="M596 377h10v1.5h-10zm0 7.5h10v1.5h-10z"/><path fill="#00B6E9" fill-rule="nonzero" d="M596.696 379.397l.607-.795 8.365 6.383.157.135-.629.777-8.5-6.5zm.804-.897l8.5 6.5-.5.5-.325.38-.136-.118-8.342-6.364.803-.898z"/><path fill="#50B4E4" d="M596 378h3l-3 3z"/><path fill="#193D59" d="M646 377h8v9h-8z"/><path fill="#50B4E4" d="M645 377h10v1.5h-10zm0 7.5h10v1.5h-10z"/><path fill="#00B6E9" fill-rule="nonzero" d="M645.696 379.397l.607-.795 8.365 6.383.157.135-.629.777-8.5-6.5zm.804-.897l8.5 6.5-.5.5-.325.38-.136-.118-8.342-6.364.803-.898z"/><path fill="#50B4E4" d="M645 378h3l-3 3z"/><g fill-rule="nonzero"><path fill="url(#E)" stroke="#2C405A" stroke-width=".5" d="M30.25 19.104v22.792l6.5 6.5V12.604l-6.5 6.5z" transform="matrix(0 -1 -1 0 784 393)"/><path fill="url(#F)" stroke="#2C405A" stroke-width=".5" d="M4 .25A3.75 3.75 0 00.25 4v21A3.75 3.75 0 004 28.75h56A3.75 3.75 0 0063.75 25V4A3.75 3.75 0 0060 .25H4z" transform="rotate(-180 392 179)"/><path fill="url(#G)" d="M23.5-17.5h17v64h-17z" transform="rotate(90 227.5 539)"/></g><path stroke="#2C405A" stroke-linecap="square" d="M180 184l1.174 2 1.174-2 1.174 2 1.304-2 1.174 2m-6 41l1.174 2 1.174-2 1.174 2 1.304-2 1.174 2m36-45l1.174 2 1.174-2 1.174 2 1.304-2 1.174 2m340 0l1.174 2 1.174-2 1.174 2 1.304-2 1.174 2m37-2l1.174 2 1.174-2 1.174 2 1.304-2 1.174 2m-395 39l1.174 2 1.174-2 1.174 2 1.304-2 1.174 2"/><path fill="url(#C)" fill-rule="nonzero" stroke="#2C405A" stroke-width=".5" d="M543.25 216.25v21.5h13.5v-21.5h-13.5z" transform="matrix(-1 0 0 1 1100 0)"/><path fill="url(#D)" fill-rule="nonzero" stroke="#2C405A" stroke-width=".5" d="M554.25 213.25v24h6.588v3.5h6.912v-24.5h-6.176v-3h-7.324z" transform="rotate(180 561 227)"/><path fill="url(#C)" fill-rule="nonzero" stroke="#2C405A" stroke-width=".5" d="M585.25 216.25v21.5h13.5v-21.5h-13.5z" transform="matrix(-1 0 0 1 1184 0)"/><path fill="url(#D)" fill-rule="nonzero" stroke="#2C405A" stroke-width=".5" d="M596.25 213.25v24h6.588v3.5h6.912v-24.5h-6.176v-3h-7.324z" transform="rotate(180 603 227)"/><path stroke="#2C405A" stroke-linecap="square" d="M610 227l1.174 2 1.174-2 1.174 2 1.304-2 1.174 2m-48-2l1.174 2 1.174-2 1.174 2 1.304-2 1.174 2"/><g transform="translate(760 117)"><path fill="#0D304C" d="M5.5.65v16h-5v-16z"/><path fill="#405B72" d="M1.5.65v16h-1v-16z"/><path fill="#385C74" d="M5.5.65v16h-1v-16z"/><g transform="translate(4.1 2)"><mask id="I" fill="#fff"><use xlink:href="#H"/></mask><use fill="#FFF" xlink:href="#H"/><g fill="#597D9C" fill-rule="nonzero" mask="url(#I)"><path d="M29.61-38l.743.742-87.61 87.611-.743-.742L29.61-38zm6.138 0l.742.742-87.61 87.611-.743-.742L35.747-38zm6.3 0l.742.742-87.61 87.611-.743-.742L42.047-38zm6.3 0l.742.742-87.61 87.611-.743-.742L48.347-38zm6.3 0l.742.742-87.61 87.611-.743-.742L54.647-38zm6.3 0l.742.742-87.61 87.611-.743-.742L60.947-38zm6.3 0l.742.742-87.61 87.611-.743-.742L67.247-38zm6.3 0l.742.742-87.61 87.611-.743-.742L73.547-38zm6.3 0l.742.742-87.61 87.611-.743-.742L79.847-38z"/><path d="M-7.02-38l-.743.742 87.61 87.611.743-.742L-7.02-38zm-6.138 0l-.742.742 87.61 87.611.743-.742L-13.157-38zm-6.3 0l-.742.742 87.61 87.611.743-.742L-19.457-38zm-6.3 0l-.742.742 87.61 87.611.743-.742L-25.757-38zm-6.3 0l-.742.742 87.61 87.611.743-.742L-32.057-38zm-6.3 0l-.742.742 87.61 87.611.743-.742L-38.357-38zm-6.3 0l-.742.742 87.61 87.611.743-.742L-44.657-38zm-6.3 0l-.742.742 87.61 87.611.743-.742L-50.957-38zm-6.3 0l-.742.742 87.61 87.611.743-.742L-57.257-38z"/></g></g><use stroke="#405B72" xlink:href="#J"/></g><g fill-rule="nonzero" transform="matrix(-1 0 0 1 443 0)"><use fill="#000" filter="url(#K)" xlink:href="#L"/><use fill="url(#g)" xlink:href="#L"/></g><path stroke="#50B4E4" stroke-linecap="square" stroke-width="1.5" d="M626.5 369.5v-62m0 0H751"/></g></svg>