<svg xmlns="http://www.w3.org/2000/svg" xmlns:xlink="http://www.w3.org/1999/xlink" width="61" height="9"><defs><path id="a" d="M1.126 8.948a.583.583 0 01-.074-.821l2.61-3.133-2.516-3.128a.584.584 0 01.909-.732l2.816 3.5a.584.584 0 01-.006.74l-2.917 3.5a.583.583 0 01-.822.074z"/><path id="b" d="M5.21 8.948a.583.583 0 01-.075-.821l2.611-3.133-2.517-3.128a.584.584 0 01.91-.732l2.816 3.5a.584.584 0 01-.007.74l-2.916 3.5a.583.583 0 01-.822.074z"/></defs><g fill="#314863"><path d="M16.197 8V1.576h2.343V.377h-6.083v1.199H14.8V8h1.397zm3.355 0c.103-.293.207-.588.314-.886.106-.296.21-.599.313-.907h3.212c.103.308.209.609.319.902.11.293.216.59.319.891h1.496a103.802 103.802 0 00-1.578-4.213 56.355 56.355 0 00-1.48-3.41h-1.309a56.355 56.355 0 00-1.48 3.41 91.23 91.23 0 00-.753 1.958c-.257.69-.528 1.441-.814 2.255h1.441zm3.487-2.915h-2.508c.235-.653.46-1.258.677-1.815.216-.557.408-1.03.577-1.419.161.374.352.843.572 1.408.22.565.447 1.173.682 1.826zM27.879 8V5.118h.88c.073 0 .161-.004.264-.011a18.47 18.47 0 01.94 1.315c.166.253.329.513.49.78.161.268.312.534.451.798h1.551a11.716 11.716 0 00-.451-.874 18.077 18.077 0 00-1.067-1.655 12.83 12.83 0 00-.473-.617c1.02-.367 1.529-1.067 1.529-2.101 0-.829-.291-1.445-.875-1.848C30.536.502 29.694.3 28.594.3c-.3 0-.642.013-1.023.038-.381.026-.74.076-1.078.149V8h1.386zm.605-4.004h-.605V1.532a9.3 9.3 0 01.814-.033c.271 0 .52.02.748.06.227.04.424.109.588.204a.982.982 0 01.38.385c.088.161.132.36.132.594 0 .25-.044.455-.132.616a.963.963 0 01-.39.385 1.874 1.874 0 01-.644.198 6.37 6.37 0 01-.891.055zM36.943 8a65.523 65.523 0 001.584-3.729c.506-1.298.983-2.596 1.43-3.894h-1.485a132.918 132.918 0 01-1.084 3.157c-.186.52-.372 1.021-.555 1.502-.183.48-.36.922-.528 1.325a29.23 29.23 0 01-.539-1.331 75.08 75.08 0 01-.55-1.502 157.12 157.12 0 01-.55-1.578L34.127.377h-1.529c.44 1.298.915 2.596 1.425 3.894A68.263 68.263 0 0035.611 8h1.331zm5.39 0V.377h-1.386V8h1.386zm3.674.165c.939 0 1.652-.189 2.14-.566.487-.378.731-.912.731-1.601 0-.36-.051-.666-.154-.919a1.893 1.893 0 00-.445-.66 2.719 2.719 0 00-.716-.483c-.282-.136-.603-.27-.962-.402a6.477 6.477 0 01-.566-.231 2.611 2.611 0 01-.451-.264 1.074 1.074 0 01-.298-.325.857.857 0 01-.104-.434.76.76 0 01.313-.649c.21-.154.501-.231.875-.231.315 0 .622.037.919.11.297.073.57.18.819.319l.429-1.122a3.892 3.892 0 00-.874-.346A4.611 4.611 0 0046.392.2c-.821 0-1.47.196-1.947.588-.477.393-.715.934-.715 1.623 0 .33.057.612.17.847.114.235.264.436.452.605.187.169.403.31.649.423.245.114.5.219.764.314.264.088.499.178.704.27.205.091.38.19.523.296.143.107.253.226.33.358.076.132.115.29.115.473 0 .308-.114.546-.341.715-.227.169-.59.253-1.089.253-.477 0-.884-.055-1.221-.165a4.695 4.695 0 01-.803-.33l-.407 1.133c.088.051.205.108.352.17.147.063.32.123.523.182a5.529 5.529 0 001.556.209zM51.485 8V.377h-1.386V8h1.386zm5.225.165a4.02 4.02 0 001.43-.253c.447-.169.838-.42 1.172-.753.333-.334.597-.75.791-1.249.195-.499.292-1.074.292-1.727s-.099-1.226-.297-1.721a3.707 3.707 0 00-.797-1.249 3.232 3.232 0 00-1.172-.759A3.988 3.988 0 0056.71.201c-.499 0-.972.084-1.419.253a3.338 3.338 0 00-1.182.759 3.62 3.62 0 00-.809 1.248c-.198.496-.297 1.07-.297 1.722 0 .653.099 1.228.297 1.727.198.499.464.915.797 1.248.334.334.727.585 1.178.754.45.169.929.253 1.435.253zm-.011-1.221c-.352 0-.667-.066-.946-.198a2.02 2.02 0 01-.71-.556 2.496 2.496 0 01-.445-.869 3.94 3.94 0 01-.154-1.138c0-.418.051-.796.154-1.133a2.56 2.56 0 01.446-.869c.194-.242.43-.429.709-.561.279-.132.594-.198.946-.198.345 0 .656.066.935.198s.515.317.71.556c.194.238.342.527.445.869.103.34.154.72.154 1.138 0 .418-.051.798-.154 1.139-.103.34-.251.63-.446.869a2.02 2.02 0 01-.709.555c-.279.132-.59.198-.935.198z"/><g transform="rotate(-180 5 4.55)"><use xlink:href="#a"/><use xlink:href="#b"/></g></g></svg>