<svg xmlns="http://www.w3.org/2000/svg" xmlns:xlink="http://www.w3.org/1999/xlink" width="783" height="482"><defs><linearGradient id="J" x1="50.034%" x2="50.034%" y1="99.725%" y2="-.004%"><stop offset="0%" stop-color="#656266"/><stop offset="13.66%" stop-color="#9F9CA1"/><stop offset="42.07%" stop-color="#D9D8DA"/><stop offset="51.52%" stop-color="#F3F4F4"/><stop offset="100%" stop-color="#807B80"/></linearGradient><linearGradient id="a" x1="50.034%" x2="50.034%" y1="99.984%" y2="-.004%"><stop offset="0%" stop-color="#8B878D"/><stop offset="13.66%" stop-color="#9F9CA1"/><stop offset="42.07%" stop-color="#D9D8DA"/><stop offset="51.52%" stop-color="#F3F4F4"/><stop offset="100%" stop-color="#807B80"/></linearGradient><linearGradient id="g" x1=".453%" x2="99.615%" y1="50.403%" y2="50.403%"><stop offset="0%" stop-color="#AFACB1"/><stop offset="28.499%" stop-color="#BAB9BC"/><stop offset="42.07%" stop-color="#D9D8DA"/><stop offset="58.437%" stop-color="#F3F4F4"/><stop offset="100%" stop-color="#958F95"/></linearGradient><linearGradient id="l" x1="50.034%" x2="50.034%" y1="99.725%" y2="-.004%"><stop offset="0%" stop-color="#656266"/><stop offset="13.66%" stop-color="#9F9CA1"/><stop offset="42.07%" stop-color="#D9D8DA"/><stop offset="51.52%" stop-color="#F3F4F4"/><stop offset="100%" stop-color="#807B80"/></linearGradient><linearGradient id="m" x1="50.034%" x2="50.034%" y1="99.725%" y2="-.004%"><stop offset="0%" stop-color="#656266"/><stop offset="13.66%" stop-color="#9F9CA1"/><stop offset="42.07%" stop-color="#D9D8DA"/><stop offset="51.52%" stop-color="#F3F4F4"/><stop offset="100%" stop-color="#807B80"/></linearGradient><linearGradient id="n" x1="50.034%" x2="50.034%" y1="99.725%" y2="-.004%"><stop offset="0%" stop-color="#4B5260"/><stop offset="50.699%" stop-color="#D9D8DA"/><stop offset="100%" stop-color="#4B5260"/></linearGradient><linearGradient id="o" x1="50.034%" x2="50.034%" y1="99.725%" y2="-.004%"><stop offset="0%" stop-color="#656266"/><stop offset="13.66%" stop-color="#9F9CA1"/><stop offset="42.07%" stop-color="#D9D8DA"/><stop offset="51.52%" stop-color="#F3F4F4"/><stop offset="100%" stop-color="#807B80"/></linearGradient><linearGradient id="p" x1="50.034%" x2="50.034%" y1="99.725%" y2="-.004%"><stop offset="0%" stop-color="#656266"/><stop offset="13.66%" stop-color="#9F9CA1"/><stop offset="42.07%" stop-color="#D9D8DA"/><stop offset="51.52%" stop-color="#F3F4F4"/><stop offset="100%" stop-color="#807B80"/></linearGradient><linearGradient id="q" x1="50.034%" x2="50.034%" y1="99.725%" y2="-.004%"><stop offset="0%" stop-color="#656266"/><stop offset="13.66%" stop-color="#9F9CA1"/><stop offset="42.07%" stop-color="#D9D8DA"/><stop offset="51.52%" stop-color="#F3F4F4"/><stop offset="100%" stop-color="#807B80"/></linearGradient><linearGradient id="r" x1="50.034%" x2="50.034%" y1="99.725%" y2="-.004%"><stop offset="0%" stop-color="#656266"/><stop offset="13.66%" stop-color="#9F9CA1"/><stop offset="42.07%" stop-color="#D9D8DA"/><stop offset="51.52%" stop-color="#F3F4F4"/><stop offset="100%" stop-color="#807B80"/></linearGradient><linearGradient id="s" x1="50.034%" x2="50.034%" y1="99.984%" y2="-.004%"><stop offset="0%" stop-color="#212F42"/><stop offset="13.66%" stop-color="#004C97"/><stop offset="42.07%" stop-color="#004C97"/><stop offset="51.52%" stop-color="#004C97"/><stop offset="100%" stop-color="#213042"/></linearGradient><linearGradient id="t" x1="50.034%" x2="50.034%" y1="99.984%" y2="-.004%"><stop offset="0%" stop-color="#8B878D"/><stop offset="50.57%" stop-color="#F3F4F4"/><stop offset="100%" stop-color="#807B80"/></linearGradient><linearGradient id="u" x1=".034%" x2="100.034%" y1="50%" y2="50%"><stop offset="0%" stop-color="#363D43"/><stop offset="49.388%" stop-color="#798085"/><stop offset="100%" stop-color="#363D43"/></linearGradient><linearGradient id="z" x1=".453%" x2="99.615%" y1="50.403%" y2="50.403%"><stop offset="0%" stop-color="#AFACB1"/><stop offset="28.499%" stop-color="#BAB9BC"/><stop offset="42.07%" stop-color="#D9D8DA"/><stop offset="58.437%" stop-color="#F3F4F4"/><stop offset="100%" stop-color="#958F95"/></linearGradient><linearGradient id="C" x1="50.034%" x2="50.034%" y1="99.725%" y2="-.004%"><stop offset="0%" stop-color="#656266"/><stop offset="13.66%" stop-color="#9F9CA1"/><stop offset="42.07%" stop-color="#D9D8DA"/><stop offset="51.52%" stop-color="#F3F4F4"/><stop offset="100%" stop-color="#807B80"/></linearGradient><linearGradient id="D" x1="50.034%" x2="50.034%" y1="99.725%" y2="-.004%"><stop offset="0%" stop-color="#656266"/><stop offset="13.66%" stop-color="#9F9CA1"/><stop offset="42.07%" stop-color="#D9D8DA"/><stop offset="51.52%" stop-color="#F3F4F4"/><stop offset="100%" stop-color="#807B80"/></linearGradient><linearGradient id="F" x1="50.034%" x2="50.034%" y1="99.725%" y2="-.004%"><stop offset="0%" stop-color="#656266"/><stop offset="13.66%" stop-color="#9F9CA1"/><stop offset="42.07%" stop-color="#D9D8DA"/><stop offset="51.52%" stop-color="#F3F4F4"/><stop offset="100%" stop-color="#807B80"/></linearGradient><linearGradient id="H" x1="50.034%" x2="50.034%" y1="99.725%" y2="-.004%"><stop offset="0%" stop-color="#656266"/><stop offset="13.66%" stop-color="#9F9CA1"/><stop offset="42.07%" stop-color="#D9D8DA"/><stop offset="51.52%" stop-color="#F3F4F4"/><stop offset="100%" stop-color="#807B80"/></linearGradient><linearGradient id="b" x1="50.034%" x2="50.034%" y1="100%" y2="0%"><stop offset="0%" stop-color="#363D43"/><stop offset="38.975%" stop-color="#798085"/><stop offset="63.704%" stop-color="#82888D"/><stop offset="100%" stop-color="#363D43"/></linearGradient><path id="R" d="M0 0h24v8H0z"/><path id="c" d="M4 0h5.5v37.5l4 3.5h62l4-3.5V0H85v37.5l4 3.5v98.5H77.5v-11h-23v10h-40v-10l-5 3.5v37.5H4V132l-4-3.5V41l4-3.5z"/><path id="f" d="M525 121.5h7.5v38.157l3.376 2.963h61.248l3.376-2.963V121.5h7.5v38.157l4 3.51v100.246h-13.5V252.38h-21v10.03h-42v-9.106l-3 2.106v38.09H525v-38.157l-4-3.51v-88.666l4-3.51V121.5zm75.841 37.857l-.341.755v-.455l.341-.3zm-3.341 3.263l-.659.248.283-.248h.376zM527 123.506v37.061l-4 3.51v86.845l4 3.51v37.062h3.5v-37.128l7-4.915v10.953h38v-10.03h25v11.033h9.5v-97.33l-4-3.51v-37.061h-3.5v37.061l-4.624 4.058h-62.752l-4.624-4.058v-37.061H527z"/><path id="v" d="M51-28c11.598 0 21 9.402 21 21v58c0 11.598-9.402 21-21 21s-21-9.402-21-21V-7c0-11.598 9.402-21 21-21z"/><path id="y" d="M51-29c-12.15 0-22 9.85-22 22v58c0 12.15 9.85 22 22 22s22-9.85 22-22V-7c0-12.15-9.85-22-22-22zm0 2c11.046 0 20 8.954 20 20v58c0 11.046-8.954 20-20 20s-20-8.954-20-20V-7c0-11.046 8.954-20 20-20z"/><path id="B" d="M170 121.5h7.5v38.157l3.376 2.963h61.248l3.376-2.963V121.5h7.5v38.157l4 3.51v100.246h-13.5V252.38h-21v10.03h-42v-9.106l-3 2.106v38.09H170v-38.157l-4-3.51v-88.666l4-3.51V121.5zm2 2.006v37.061l-4 3.51v86.845l4 3.51v37.062h3.5v-37.128l7-4.915v10.953h38v-10.03h25v11.033h9.5v-97.33l-4-3.51v-37.061h-3.5v37.061l-4.624 4.058h-62.752l-4.624-4.058v-37.061H172z"/><path id="E" d="M0 0h24v8H0z"/><path id="I" d="M0 0h24v8H0z"/><path id="P" d="M0 0h24v8H0z"/><path id="d" d="M4 0h5.5v37.5l4 3.5h62l4-3.5V0H85v37.5l4 3.5v98.5H77.5v-11h-23v10h-40v-10l-5 3.5v37.5H4V132l-4-3.5V41l4-3.5z"/><filter id="e" width="120.9%" height="111%" x="-11.5%" y="-4.9%" filterUnits="objectBoundingBox"><feOffset dx="-1" dy="1" in="SourceAlpha" result="shadowOffsetOuter1"/><feGaussianBlur in="shadowOffsetOuter1" result="shadowBlurOuter1" stdDeviation="3"/><feColorMatrix in="shadowBlurOuter1" values="0 0 0 0 0 0 0 0 0 0 0 0 0 0 0 0 0 0 0.230550699 0"/></filter><filter id="w" width="123.8%" height="110%" x="-11.9%" y="-5%" filterUnits="objectBoundingBox"><feGaussianBlur in="SourceAlpha" result="shadowBlurInner1" stdDeviation="4.5"/><feOffset dy="1" in="shadowBlurInner1" result="shadowOffsetInner1"/><feComposite in="shadowOffsetInner1" in2="SourceAlpha" k2="-1" k3="1" operator="arithmetic" result="shadowInnerInner1"/><feColorMatrix in="shadowInnerInner1" values="0 0 0 0 0 0 0 0 0 0 0 0 0 0 0 0 0 0 0.301737325 0"/></filter><filter id="x" width="145.5%" height="119.6%" x="-25%" y="-8.8%" filterUnits="objectBoundingBox"><feMorphology in="SourceAlpha" operator="dilate" radius=".5" result="shadowSpreadOuter1"/><feOffset dx="-1" dy="1" in="shadowSpreadOuter1" result="shadowOffsetOuter1"/><feGaussianBlur in="shadowOffsetOuter1" result="shadowBlurOuter1" stdDeviation="3"/><feComposite in="shadowBlurOuter1" in2="SourceAlpha" operator="out" result="shadowBlurOuter1"/><feColorMatrix in="shadowBlurOuter1" values="0 0 0 0 0 0 0 0 0 0 0 0 0 0 0 0 0 0 0.230550699 0"/></filter><filter id="A" width="120.9%" height="111%" x="-11.5%" y="-4.9%" filterUnits="objectBoundingBox"><feOffset dx="-1" dy="1" in="SourceAlpha" result="shadowOffsetOuter1"/><feGaussianBlur in="shadowOffsetOuter1" result="shadowBlurOuter1" stdDeviation="3"/><feColorMatrix in="shadowBlurOuter1" values="0 0 0 0 0 0 0 0 0 0 0 0 0 0 0 0 0 0 0.230550699 0"/></filter><circle id="h" cx="12.5" cy="12.5" r="12.5"/><circle id="j" cx="12.5" cy="12.5" r="12.5"/><circle id="L" cx="12.5" cy="12.5" r="12.5"/><circle id="N" cx="12.5" cy="12.5" r="12.5"/></defs><g fill="none" fill-rule="evenodd" transform="translate(0 -.5)"><path fill="#526C91" stroke="#364B65" d="M723.5 123h-669v168h669V123z" opacity=".4"/><path fill="url(#a)" fill-rule="nonzero" stroke="#636262" stroke-width=".5" d="M74 203.5h630v8H74z"/><path stroke="#607C99" stroke-linecap="square" d="M103 163.5v30l3.69 8 3.689-8 3.69 8 4.1-8 3.689 8 3.69-8 4.1 8 3.28-8v-30H137m153 0v12.089l3.699 7.911 3.698-7.911 3.699 7.911 4.109-7.911 3.699 7.911 3.699-7.911 4.109 7.911 3.288-7.911V163.5M290 289.5v-49.089l3.699-7.911 3.698 7.911 3.699-7.911 4.109 7.911 3.699-7.911 3.699 7.911 4.109-7.911 3.288 7.911V250.5M103 250.89v-30.308l3.699-8.082 3.698 8.082 3.699-8.082 4.109 8.082 3.699-8.082 3.699 8.082 4.109-8.082 3.288 8.082V290.5"/><use fill="url(#b)" fill-rule="nonzero" xlink:href="#c" transform="translate(522 122.5)"/><use fill="url(#b)" fill-rule="nonzero" xlink:href="#d" transform="matrix(-1 0 0 1 256 122.5)"/><path stroke="#FFCC01" stroke-linecap="square" stroke-width="1.5" d="M529 292.5v23H250v-23"/><path stroke="#FFCC01" stroke-linecap="square" stroke-width="1.5" d="M491 290.5v14H287v-14"/><path stroke="#50B4E4" stroke-linecap="square" stroke-width="1.5" d="M732 319.5v-221H136v65"/><path stroke="#FFCC01" stroke-linecap="square" stroke-width="1.5" d="M45 334.5H5v79h39M400.995 366.5H370v56m0 16v17h31"/><path stroke="#50B4E4" stroke-linecap="square" stroke-width="1.5" d="M641 425.5v17h-49v-17M616 442.5v12h-52M641 425.5v-55h-49v55M744.5 357v14H695m-24 0h-29.5"/><path stroke="#607C99" stroke-linecap="square" d="M137 164.298v29.16l3.637 8.042 3.637-8.042 3.637 8.042 4.041-8.042 3.637 8.042 3.637-8.042 4.041 8.042 3.233-8.042v-30.16l4-3.482V122.5h5.5v37.316l4 3.482h31M137 290.5v-69.918l3.637-8.082 3.637 8.082 3.637-8.082 4.041 8.082 3.637-8.082 3.637 8.082 4.041-8.082 3.233 8.082V262H178v-11.11l23 .11v10M285 163.298v30.16l-3.637 8.042-3.637-8.042-3.637 8.042-4.041-8.042-3.637 8.042-3.637-8.042-4.041 8.042-3.233-8.042v-30.16l-4-3.482V122.5H246v37.316l-4 3.482h-31M290 289.811l-5-.109v-69.16l-3.637-8.042-3.637 8.042-3.637-8.042-4.041 8.042-3.637-8.042-3.637 8.042-4.041-8.042-3.233 8.042v30.16l-4 3.482V291.5H246v-37.316l-5-3.373v9.841h-40M675 163.5v30l-3.69 8-3.689-8-3.69 8-4.1-8-3.689 8-3.69-8-4.1 8-3.28-8v-30H641M675 250.89v-30.308l-3.699-8.082-3.698 8.082-3.699-8.082-4.109 8.082-3.699-8.082-3.699 8.082-4.109-8.082-3.288 8.082V290.5M641 164.298v29.16l-3.637 8.042-3.637-8.042-3.637 8.042-4.041-8.042-3.637 8.042-3.637-8.042-4.041 8.042-3.233-8.042v-30.16l-4-3.482V122.5H602v37.316l-4 3.482h-31M641 290.5v-69.918l-3.637-8.082-3.637 8.082-3.637-8.082-4.041 8.082-3.637-8.082-3.637 8.082-4.041-8.082-3.233 8.082V262H600v-11.11l-23 .11v10M493 163.298v30.16l3.637 8.042 3.637-8.042 3.637 8.042 4.041-8.042 3.637 8.042 3.637-8.042 4.041 8.042 3.233-8.042v-30.16l4-3.482V122.5h5.5v37.316l4 3.482h31M488 221l.5 68.5 4.5.202v-69.16l3.637-8.042 3.637 8.042 3.637-8.042 4.041 8.042 3.637-8.042 3.637 8.042 4.041-8.042 3.233 8.042v30.16l4 3.482V291.5h5.5v-37.316l5-3.373v9.841h40"/><g fill-rule="nonzero"><use fill="#000" filter="url(#e)" xlink:href="#f"/><use fill="url(#g)" xlink:href="#f"/></g><g transform="translate(204.5 374.5)"><path stroke="#FFCC01" stroke-linecap="square" stroke-width="1.5" d="M.5 41V28h72v13m0-6v43H.5V35"/><path stroke="#FFF" d="M.5 4h72v24H.5z" opacity=".5"/><g transform="translate(23.5 15)"><g transform="translate(.525 .525)"><mask id="i" fill="#fff"><use xlink:href="#h"/></mask><use fill="#FFF" xlink:href="#h"/><g fill="#FFCB00" mask="url(#i)"><path d="M35.71-31.65l.743.742-87.61 87.611-.743-.742L35.71-31.65zm6.138 0l.742.742-87.61 87.611-.743-.742 87.61-87.611zm6.3 0l.742.742-87.61 87.611-.743-.742 87.61-87.611zm6.3 0l.742.742-87.61 87.611-.743-.742 87.61-87.611zm6.3 0l.742.742-87.61 87.611-.743-.742 87.61-87.611zm6.3 0l.742.742-87.61 87.611-.743-.742 87.61-87.611zm6.3 0l.742.742-87.61 87.611-.743-.742 87.61-87.611zm6.3 0l.742.742-87.61 87.611-.743-.742 87.61-87.611zm6.3 0l.742.742L-.92 56.703l-.743-.742 87.61-87.611z"/><path d="M-.92-31.65l-.743.742 87.61 87.611.743-.742L-.92-31.65zm-6.138 0l-.742.742 87.61 87.611.743-.742-87.61-87.611zm-6.3 0l-.742.742 87.61 87.611.743-.742-87.61-87.611zm-6.3 0l-.742.742 87.61 87.611.743-.742-87.61-87.611zm-6.3 0l-.742.742 87.61 87.611.743-.742-87.61-87.611zm-6.3 0l-.742.742 87.61 87.611.743-.742-87.61-87.611zm-6.3 0l-.742.742 87.61 87.611.743-.742-87.61-87.611zm-6.3 0l-.742.742 87.61 87.611.743-.742-87.61-87.611zm-6.3 0l-.742.742 87.61 87.611.743-.742-87.61-87.611z"/></g></g><circle cx="13" cy="13" r="13" stroke="#FFCA00" stroke-width="1.5"/></g><g transform="translate(23.5 65)"><g transform="translate(.525 .525)"><mask id="k" fill="#fff"><use xlink:href="#j"/></mask><use fill="#FFF" xlink:href="#j"/><g fill="#FFCB00" mask="url(#k)"><path d="M35.71-31.65l.743.742-87.61 87.611-.743-.742L35.71-31.65zm6.138 0l.742.742-87.61 87.611-.743-.742 87.61-87.611zm6.3 0l.742.742-87.61 87.611-.743-.742 87.61-87.611zm6.3 0l.742.742-87.61 87.611-.743-.742 87.61-87.611zm6.3 0l.742.742-87.61 87.611-.743-.742 87.61-87.611zm6.3 0l.742.742-87.61 87.611-.743-.742 87.61-87.611zm6.3 0l.742.742-87.61 87.611-.743-.742 87.61-87.611zm6.3 0l.742.742-87.61 87.611-.743-.742 87.61-87.611zm6.3 0l.742.742L-.92 56.703l-.743-.742 87.61-87.611z"/><path d="M-.92-31.65l-.743.742 87.61 87.611.743-.742L-.92-31.65zm-6.138 0l-.742.742 87.61 87.611.743-.742-87.61-87.611zm-6.3 0l-.742.742 87.61 87.611.743-.742-87.61-87.611zm-6.3 0l-.742.742 87.61 87.611.743-.742-87.61-87.611zm-6.3 0l-.742.742 87.61 87.611.743-.742-87.61-87.611zm-6.3 0l-.742.742 87.61 87.611.743-.742-87.61-87.611zm-6.3 0l-.742.742 87.61 87.611.743-.742-87.61-87.611zm-6.3 0l-.742.742 87.61 87.611.743-.742-87.61-87.611zm-6.3 0l-.742.742 87.61 87.611.743-.742-87.61-87.611z"/></g></g><circle cx="13" cy="13" r="13" stroke="#FFCA00" stroke-width="1.5"/></g><circle cx="37" cy="4.5" r="4.5" fill="#62B5E5" transform="rotate(-90 37 4.5)"/></g><path stroke="#FCFCFC" stroke-linecap="square" stroke-width="1.5" d="M249.5 122.5l.186-42.49m.112-25.48L250 8.5"/><path stroke="#FFCC01" stroke-linecap="square" stroke-width="1.5" d="M173.5 122.5l.5-114m430.25 113l.5-113M365.377 171.278l.25-31.278m-.03-20.939l.03-7.061-88.897-.5L46 112v250.5m0 24v2.5m0 13v24.5m409.25-255l-.25-32.278"/><path stroke="#50B4E4" stroke-linecap="square" stroke-width="1.5" d="M643.25 162.5l.25-63.5"/><g transform="translate(234 22.5)"><rect width="29.5" height="22.5" x=".25" y=".25" fill="url(#l)" fill-rule="nonzero" stroke="#2C405A" stroke-width=".5" rx="4"/><path fill="#A8AEC0" stroke="#162842" d="M25.5 4.5h-9v14h9z"/><path fill="#FFF" stroke="#162842" d="M16.5 4.5h-12v14h12z"/><g fill-rule="nonzero"><path fill="#50556B" d="M9.5 11v1h-3v-1z"/><path fill="#F04450" d="M16 11v1h-4v-1z"/><path fill="#50556B" d="M10.5 9v1h-4V9z"/><path fill="#F04450" d="M11.5 7v1h-5V7z"/><path fill="#50556B" d="M10.5 13v1h-4v-1zm1 2v1h-5v-1z"/></g></g><path stroke="#FFCC01" stroke-linecap="square" stroke-width="1.5" d="M401.526 317l-.052 4.087M401 338.5v42m0 22V419m0 24v11m0 2v10h-93.5v-38h-30m-194-.5l-37.5-.25m158.5.25h-48"/><path fill="#FFCB00" d="M179.142 7.793H169L174.07.722z"/><path fill="#FCFCFC" d="M255.142 7.793H245L250.07.722zM533.364 7.793h-10.142l5.071-7.071z"/><path fill="#FFCB00" d="M610.142 7.793H600L605.07.722zM370.642 141.793H360.5l5.071-7.071zM460.143 134.793H450l5.071 7.071z"/><path fill="#FFDA00" d="M50.642 304.43H40.5l5.07 7.07z"/><path fill="#FFCB00" d="M302.222 444.793h10.142l-5.071 7.071zM177.293 432.864v-10.142l7.071 5.071z"/><path fill="#50B4E4" d="M737.364 300.793h-10.142l5.071-7.071zM561.071 459.642V449.5l7.071 5.071z"/><path fill="url(#m)" fill-rule="nonzero" stroke="#2C405A" stroke-width=".5" d="M324.75 184.75h-34.099l14.599 13.139v18.715l-14.646 14.646h34.146v-46.5z"/><g fill-rule="nonzero"><path fill="url(#n)" d="M3.289 29.406l158-28.555A4 4 0 01166 4.788v109.424a3.999 3.999 0 01-4.711 3.937l-158-28.555A4 4 0 010 85.658V33.342a4 4 0 013.289-3.936z" transform="translate(323 148.5)"/><path fill="#2C405A" d="M488.936 152.59c.043.234.064.472.064.71v109.425a3.999 3.999 0 01-4.711 3.937l-158-28.555a4 4 0 01-3.289-3.936v-52.316a4 4 0 013.289-3.936l158-28.555a4 4 0 014.647 3.225zm-.492.088a3.5 3.5 0 00-3.877-2.85l-.19.028-158 28.555a3.497 3.497 0 00-2.871 3.257l-.005.187v52.315a3.501 3.501 0 002.694 3.406l.184.038 158 28.555a3.5 3.5 0 004.117-3.253l.005-.192V153.301c0-.14-.008-.278-.025-.416l-.03-.207z"/></g><path fill="url(#o)" fill-rule="nonzero" stroke="#2C405A" stroke-width=".5" d="M205.75 176.75h-13.5v21.5h13.5v-21.5z"/><path fill="url(#o)" fill-rule="nonzero" stroke="#2C405A" stroke-width=".5" d="M546.75 176.75h-13.5v21.5h13.5v-21.5z" transform="matrix(-1 0 0 1 1080 0)"/><path fill="url(#o)" fill-rule="nonzero" stroke="#2C405A" stroke-width=".5" d="M205.75 216.75h-13.5v21.5h13.5v-21.5z" transform="matrix(1 0 0 -1 0 455)"/><path fill="url(#o)" fill-rule="nonzero" stroke="#2C405A" stroke-width=".5" d="M247.75 176.75h-13.5v21.5h13.5v-21.5z"/><path fill="url(#o)" fill-rule="nonzero" stroke="#2C405A" stroke-width=".5" d="M588.75 176.75h-13.5v21.5h13.5v-21.5z" transform="matrix(-1 0 0 1 1164 0)"/><path fill="url(#o)" fill-rule="nonzero" stroke="#2C405A" stroke-width=".5" d="M247.75 216.75h-13.5v21.5h13.5v-21.5z" transform="matrix(1 0 0 -1 0 455)"/><path fill="url(#p)" fill-rule="nonzero" stroke="#2C405A" stroke-width=".5" d="M183.574 173.75h-7.324v24h6.588v3.5h6.912v-24.5h-6.176v-3z"/><path fill="url(#p)" fill-rule="nonzero" stroke="#2C405A" stroke-width=".5" d="M551.574 173.75h-7.324v24h6.588v3.5h6.912v-24.5h-6.176v-3z" transform="matrix(-1 0 0 1 1102 0)"/><path fill="url(#p)" fill-rule="nonzero" stroke="#2C405A" stroke-width=".5" d="M183.574 213.75h-7.324v24h6.588v3.5h6.912v-24.5h-6.176v-3z" transform="matrix(1 0 0 -1 0 455)"/><path fill="url(#p)" fill-rule="nonzero" stroke="#2C405A" stroke-width=".5" d="M225.574 173.75h-7.324v24h6.588v3.5h6.912v-24.5h-6.176v-3z"/><path fill="url(#p)" fill-rule="nonzero" stroke="#2C405A" stroke-width=".5" d="M594.574 173.75h-7.324v24h6.588v3.5h6.912v-24.5h-6.176v-3z" transform="matrix(-1 0 0 1 1188 0)"/><path fill="url(#p)" fill-rule="nonzero" stroke="#2C405A" stroke-width=".5" d="M225.574 213.75h-7.324v24h6.588v3.5h6.912v-24.5h-6.176v-3z" transform="matrix(1 0 0 -1 0 455)"/><path fill="#193D59" d="M1 389.5h8v9H1z"/><path fill="#A1A9B4" d="M0 389.5h10v1.5H0zm0 7.5h10v1.5H0zm0-3.5h4v1.5H0zm6 0h4v1.5H6z"/><path stroke="#FFF" stroke-dasharray="2" d="M531 324.5h251v157H531v-157z" opacity=".2"/><path fill="#193D59" d="M587 377.5h8v9h-8z"/><path fill="#A1A9B4" d="M586 377.5h10v1.5h-10zm0 7.5h10v1.5h-10z"/><path fill="#A1A9B4" fill-rule="nonzero" d="M586.696 379.897l.607-.795 8.365 6.383.157.135-.629.777-8.5-6.5zm.804-.897l8.5 6.5-.5.5-.325.38-.136-.118-8.342-6.364.803-.898z"/><path fill="#A1A9B4" d="M586 378.5h3l-3 3z"/><path fill="#193D59" d="M366 406.5h8v9h-8z"/><path fill="#A1A9B4" d="M365 406.5h10v1.5h-10zm0 7.5h10v1.5h-10z"/><path fill="#A1A9B4" fill-rule="nonzero" d="M365.696 408.897l.607-.795 8.365 6.383.157.135-.629.777-8.5-6.5zm.804-.897l8.5 6.5-.5.5-.325.38-.136-.118-8.342-6.364.803-.898z"/><path fill="#A1A9B4" d="M365 407.5h3l-3 3z"/><path fill="#193D59" d="M636 377.5h8v9h-8z"/><path fill="#A1A9B4" d="M635 377.5h10v1.5h-10zm0 7.5h10v1.5h-10z"/><path fill="#A1A9B4" fill-rule="nonzero" d="M635.696 379.897l.607-.795 8.365 6.383.157.135-.629.777-8.5-6.5zm.804-.897l8.5 6.5-.5.5-.325.38-.136-.118-8.342-6.364.803-.898z"/><path fill="#A1A9B4" d="M635 378.5h3l-3 3z"/><g fill-rule="nonzero"><path fill="url(#q)" stroke="#2C405A" stroke-width=".5" d="M36.75 12.604l-6.5 6.5v22.792l6.5 6.5V12.604z" transform="matrix(0 -1 -1 0 774 393.5)"/><path fill="url(#r)" stroke="#2C405A" stroke-width=".5" d="M60 .25H4c-1.036 0-1.973.42-2.652 1.098A3.741 3.741 0 00.25 4v21c0 1.036.42 1.973 1.098 2.652A3.741 3.741 0 004 28.75h56c1.036 0 1.973-.42 2.652-1.098A3.741 3.741 0 0063.75 25V4c0-1.036-.42-1.973-1.098-2.652A3.741 3.741 0 0060 .25z" transform="rotate(-180 387 179.25)"/><path fill="url(#s)" d="M23.5-17.5h17v64h-17z" transform="rotate(90 222.25 534.25)"/></g><g fill-rule="nonzero" transform="translate(358 186.5)"><rect width="100" height="41" x="1" y="1" fill="url(#t)" stroke="#636262" stroke-width=".5" rx="20.5"/><g transform="rotate(90 51 22)"><use fill="url(#u)" xlink:href="#v"/><use fill="#000" filter="url(#w)" xlink:href="#v"/></g><g transform="rotate(90 51 22)"><use fill="#000" filter="url(#x)" xlink:href="#y"/><path fill="url(#z)" fill-rule="evenodd" stroke="#7F7F7F" stroke-width=".5" d="M51-29.25c6.144 0 11.707 2.49 15.733 6.517A22.177 22.177 0 0173.25-7h0v58c0 6.144-2.49 11.707-6.517 15.733C62.707 70.76 57.144 73.25 51 73.25s-11.707-2.49-15.733-6.517A22.177 22.177 0 0128.75 51h0V-7c0-6.144 2.49-11.707 6.517-15.733A22.177 22.177 0 0151-29.25h0zm0 2.5a19.683 19.683 0 00-13.965 5.785A19.683 19.683 0 0031.25-7v58c0 5.454 2.21 10.391 5.785 13.965A19.683 19.683 0 0051 70.75c5.454 0 10.391-2.21 13.965-5.785A19.683 19.683 0 0070.75 51V-7c0-5.454-2.21-10.391-5.785-13.965A19.683 19.683 0 0051-26.75z"/></g></g><path stroke="#2C405A" stroke-linecap="square" d="M170 184.5l1.174 2 1.174-2 1.174 2 1.304-2 1.174 2m-6 41l1.174 2 1.174-2 1.174 2 1.304-2 1.174 2m36-45l1.174 2 1.174-2 1.174 2 1.304-2 1.174 2m340 0l1.174 2 1.174-2 1.174 2 1.304-2 1.174 2m37-2l1.174 2 1.174-2 1.174 2 1.304-2 1.174 2m-395 39l1.174 2 1.174-2 1.174 2 1.304-2 1.174 2"/><path fill="url(#o)" fill-rule="nonzero" stroke="#2C405A" stroke-width=".5" d="M546.75 216.75h-13.5v21.5h13.5v-21.5z" transform="matrix(-1 0 0 1 1080 0)"/><path fill="url(#p)" fill-rule="nonzero" stroke="#2C405A" stroke-width=".5" d="M551.574 213.75h-7.324v24h6.588v3.5h6.912v-24.5h-6.176v-3z" transform="rotate(180 551 227.5)"/><path fill="url(#o)" fill-rule="nonzero" stroke="#2C405A" stroke-width=".5" d="M588.75 216.75h-13.5v21.5h13.5v-21.5z" transform="matrix(-1 0 0 1 1164 0)"/><path fill="url(#p)" fill-rule="nonzero" stroke="#2C405A" stroke-width=".5" d="M593.574 213.75h-7.324v24h6.588v3.5h6.912v-24.5h-6.176v-3z" transform="rotate(180 593 227.5)"/><path stroke="#2C405A" stroke-linecap="square" d="M600 227.5l1.174 2 1.174-2 1.174 2 1.304-2 1.174 2m-48-2l1.174 2 1.174-2 1.174 2 1.304-2 1.174 2"/><g fill-rule="nonzero" transform="matrix(-1 0 0 1 423 0)"><use fill="#000" filter="url(#A)" xlink:href="#B"/><use fill="url(#g)" xlink:href="#B"/></g><path stroke="#4F556D" stroke-linecap="square" d="M166.5 194.5v32m89-32v32m267-32v32m89-32v32"/><path stroke="#FCFCFC" stroke-linecap="square" stroke-width="1.5" d="M528.5 121V79.5m0-25.5V8.5"/><path stroke="#50B4E4" stroke-linecap="square" stroke-width="1.5" d="M616.5 370v-50"/><g transform="translate(514 22.5)"><rect width="29.5" height="22.5" x=".25" y=".25" fill="url(#l)" fill-rule="nonzero" stroke="#2C405A" stroke-width=".5" rx="4"/><path fill="#A8AEC0" stroke="#162842" d="M4.5 4.5h9v14h-9z"/><path fill="#FFF" stroke="#162842" d="M13.5 4.5h12v14h-12z"/><g fill-rule="nonzero"><path fill="#50556B" d="M20.5 11v1h3v-1z"/><path fill="#F04450" d="M14 11v1h4v-1z"/><path fill="#50556B" d="M19.5 9v1h4V9z"/><path fill="#F04450" d="M18.5 7v1h5V7z"/><path fill="#50556B" d="M19.5 13v1h4v-1zm-1 2v1h5v-1z"/></g></g><path stroke="#FFF" stroke-dasharray="2" d="M214 331.5H72v43H59" opacity=".5"/><path stroke="#FFF" d="M401 376.5h42v23.885m-38.5 6.607H401m0 9.508h42v30h-42" opacity=".5"/><path fill="url(#C)" fill-rule="nonzero" stroke="#2C405A" stroke-width=".5" d="M8.039 3.443L3.456 14.665l11.223-4.583-6.64-6.64z" transform="scale(-1 1) rotate(-45 303.389 710.267)"/><path fill="url(#C)" fill-rule="nonzero" stroke="#2C405A" stroke-width=".5" d="M8.039 20.443L3.456 31.665l11.223-4.583-6.64-6.64z" transform="scale(1 -1) rotate(-45 -357.244 -679.332)"/><path fill="#FFF" stroke="#9FA9B5" d="M401.251 430.532h5v1h-5z"/><path fill="url(#D)" fill-rule="nonzero" stroke="#2C405A" stroke-width=".5" d="M15.501 10.782h3.5v12.5h-3.5z" transform="translate(391.5 413.5)"/><g transform="matrix(0 1 1 0 326.5 304)"><path stroke="#FFF" d="M.5 4.5h36m13 0H58" opacity=".5"/><circle cx="27.5" cy="4.5" r="4.5" fill="#62B5E5" transform="rotate(-90 27.5 4.5)"/><circle cx="60.5" cy="4.5" r="2.5" fill="#EF3340" transform="rotate(-90 60.5 4.5)"/></g><path stroke="#FFF" d="M300 316.5v23h-13v-20c-1.333-1.47-2-2.803-2-4s.667-2.363 2-3.5v-7.5" opacity=".5"/><circle cx="443.5" cy="391" r="4.5" fill="#62B5E5" transform="rotate(-90 443.5 391)"/><circle cx="443.5" cy="431" r="4.5" fill="#62B5E5" transform="rotate(-90 443.5 431)"/><circle cx="287.5" cy="331" r="4.5" fill="#62B5E5" transform="rotate(-90 287.5 331)"/><g transform="matrix(0 1 1 0 52.99 362.49)"><mask id="G" fill="#fff"><use xlink:href="#E"/></mask><path fill="url(#F)" fill-rule="nonzero" stroke="#2C405A" stroke-width=".5" d="M23.426-6.75H.574A11.755 11.755 0 00.25-4c0 3.245 1.315 6.182 3.441 8.308A11.713 11.713 0 0012 7.75c3.245 0 6.182-1.315 8.309-3.442A11.712 11.712 0 0023.75-4c0-.947-.112-1.868-.324-2.75z" mask="url(#G)"/></g><path fill="url(#C)" fill-rule="nonzero" stroke="#2C405A" stroke-width=".5" d="M24.529 3.073l-4.583 11.222 11.222-4.583-6.64-6.64z" transform="scale(1 -1) rotate(-45 -436.398 -211.845)"/><path fill="url(#C)" fill-rule="nonzero" stroke="#2C405A" stroke-width=".5" d="M8.039 3.073L3.456 14.295 14.68 9.712l-6.64-6.64z" transform="rotate(-45 459.01 142.556)"/><path fill="#A1A9B4" d="M46 373.99h7v1h-7z"/><path fill="#8C9EAC" d="M153.293 336.864v-10.142l-7.071 5.07z"/><g fill-rule="nonzero" transform="translate(398 344.5)"><path fill="url(#H)" d="M33.769 0l5.092 9.817 2.059-3.326H48v1l-6.799-.001-2.34 4.51-5.092-9.817L28.676 12l-5.093-9.817L18.491 12l-5.093-9.817-2.599 5.01-.06-.029-.164.327H4v-1l6.03-.001L13.398 0l5.093 9.817L23.583 0l5.093 9.817L33.769 0z"/><circle cx="3" cy="7" r="2.75" fill="url(#C)" stroke="#2C405A" stroke-width=".5"/></g><g><g transform="matrix(1 0 0 -1 672.49 365.01)"><mask id="K" fill="#fff"><use xlink:href="#I"/></mask><path fill="url(#J)" fill-rule="nonzero" stroke="#2C405A" stroke-width=".5" d="M23.426-6.75H.574A11.755 11.755 0 00.25-4c0 3.245 1.315 6.182 3.441 8.308A11.713 11.713 0 0012 7.75c3.245 0 6.182-1.315 8.309-3.442A11.712 11.712 0 0023.75-4c0-.947-.112-1.868-.324-2.75z" mask="url(#K)"/></g><path fill="#A1A9B4" d="M684 346h-19v15.25l19 9.25v-21h1v23l-21-10.75V345h21v4.5h-1z"/><path fill="url(#C)" fill-rule="nonzero" stroke="#2C405A" stroke-width=".5" d="M27.95 3.073l-4.583 11.222 11.222-4.583-6.64-6.64z" transform="scale(1 -1) rotate(45 820.275 619.959)"/><path fill="url(#C)" fill-rule="nonzero" stroke="#2C405A" stroke-width=".5" d="M10.95 3.073L6.366 14.295l11.222-4.583-6.64-6.64z" transform="rotate(-135 419.175 52.731)"/><path fill="#9AA9B7" fill-rule="nonzero" d="M683.99 371.51v-7h1v7z"/></g><path stroke="#50B4E4" stroke-linecap="square" stroke-width="1.5" d="M616.5 319.5H732"/><path stroke="#FFF" d="M703 211.5v84h-58v-5M75 211.5v84h58v-5" opacity=".5"/><circle cx="674.5" cy="295" r="4.5" fill="#62B5E5" transform="rotate(-90 674.5 295)"/><circle cx="104.5" cy="295" r="4.5" fill="#62B5E5" transform="matrix(0 -1 -1 0 399.5 399.5)"/><path stroke="#FFCC01" stroke-linecap="square" stroke-width="1.5" d="M394 381.5h14v20h-14z"/><g transform="translate(84 374.5)"><path stroke="#FFCC01" stroke-linecap="square" stroke-width="1.5" d="M0 41V28h72v13m0-2v39H0V39"/><path stroke="#FFF" d="M0 4h72v24H0z" opacity=".5"/><g transform="translate(23 15)"><g transform="translate(.525 .525)"><mask id="M" fill="#fff"><use xlink:href="#L"/></mask><use fill="#FFF" xlink:href="#L"/><g fill="#FFCB00" mask="url(#M)"><path d="M35.71-31.65l.743.742-87.61 87.611-.743-.742L35.71-31.65zm6.138 0l.742.742-87.61 87.611-.743-.742 87.61-87.611zm6.3 0l.742.742-87.61 87.611-.743-.742 87.61-87.611zm6.3 0l.742.742-87.61 87.611-.743-.742 87.61-87.611zm6.3 0l.742.742-87.61 87.611-.743-.742 87.61-87.611zm6.3 0l.742.742-87.61 87.611-.743-.742 87.61-87.611zm6.3 0l.742.742-87.61 87.611-.743-.742 87.61-87.611zm6.3 0l.742.742-87.61 87.611-.743-.742 87.61-87.611zm6.3 0l.742.742L-.92 56.703l-.743-.742 87.61-87.611z"/><path d="M-.92-31.65l-.743.742 87.61 87.611.743-.742L-.92-31.65zm-6.138 0l-.742.742 87.61 87.611.743-.742-87.61-87.611zm-6.3 0l-.742.742 87.61 87.611.743-.742-87.61-87.611zm-6.3 0l-.742.742 87.61 87.611.743-.742-87.61-87.611zm-6.3 0l-.742.742 87.61 87.611.743-.742-87.61-87.611zm-6.3 0l-.742.742 87.61 87.611.743-.742-87.61-87.611zm-6.3 0l-.742.742 87.61 87.611.743-.742-87.61-87.611zm-6.3 0l-.742.742 87.61 87.611.743-.742-87.61-87.611zm-6.3 0l-.742.742 87.61 87.611.743-.742-87.61-87.611z"/></g></g><circle cx="13" cy="13" r="13" stroke="#FFCA00" stroke-width="1.5"/></g><g transform="translate(23 65)"><g transform="translate(.525 .525)"><mask id="O" fill="#fff"><use xlink:href="#N"/></mask><use fill="#FFF" xlink:href="#N"/><g fill="#FFCB00" mask="url(#O)"><path d="M35.71-31.65l.743.742-87.61 87.611-.743-.742L35.71-31.65zm6.138 0l.742.742-87.61 87.611-.743-.742 87.61-87.611zm6.3 0l.742.742-87.61 87.611-.743-.742 87.61-87.611zm6.3 0l.742.742-87.61 87.611-.743-.742 87.61-87.611zm6.3 0l.742.742-87.61 87.611-.743-.742 87.61-87.611zm6.3 0l.742.742-87.61 87.611-.743-.742 87.61-87.611zm6.3 0l.742.742-87.61 87.611-.743-.742 87.61-87.611zm6.3 0l.742.742-87.61 87.611-.743-.742 87.61-87.611zm6.3 0l.742.742L-.92 56.703l-.743-.742 87.61-87.611z"/><path d="M-.92-31.65l-.743.742 87.61 87.611.743-.742L-.92-31.65zm-6.138 0l-.742.742 87.61 87.611.743-.742-87.61-87.611zm-6.3 0l-.742.742 87.61 87.611.743-.742-87.61-87.611zm-6.3 0l-.742.742 87.61 87.611.743-.742-87.61-87.611zm-6.3 0l-.742.742 87.61 87.611.743-.742-87.61-87.611zm-6.3 0l-.742.742 87.61 87.611.743-.742-87.61-87.611zm-6.3 0l-.742.742 87.61 87.611.743-.742-87.61-87.611zm-6.3 0l-.742.742 87.61 87.611.743-.742-87.61-87.611zm-6.3 0l-.742.742 87.61 87.611.743-.742-87.61-87.611z"/></g></g><circle cx="13" cy="13" r="13" stroke="#FFCA00" stroke-width="1.5"/></g><circle cx="36.5" cy="4.5" r="4.5" fill="#62B5E5" transform="rotate(-90 36.5 4.5)"/></g><g><path fill="url(#C)" fill-rule="nonzero" stroke="#2C405A" stroke-width=".5" d="M8.039 20.443L3.456 31.665l11.223-4.583-6.64-6.64z" transform="scale(1 -1) rotate(-45 6.65 -315.24)"/><path fill="url(#C)" fill-rule="nonzero" stroke="#2C405A" stroke-width=".5" d="M8.039 3.443L3.456 14.665l11.223-4.583-6.64-6.64z" transform="scale(-1 1) rotate(-45 -60.505 346.175)"/><g transform="matrix(0 1 1 0 256.49 55.128)"><mask id="Q" fill="#fff"><use xlink:href="#P"/></mask><path fill="url(#J)" fill-rule="nonzero" stroke="#2C405A" stroke-width=".5" d="M23.426-6.75H.574A11.755 11.755 0 00.25-4c0 3.245 1.315 6.182 3.441 8.308A11.713 11.713 0 0012 7.75c3.245 0 6.182-1.315 8.309-3.442A11.712 11.712 0 0023.75-4c0-.947-.112-1.868-.324-2.75z" mask="url(#Q)"/></g><path stroke="#9AA9B7" d="M261.204 59.064L269 53v14h-4.5m-8 0H251l5.523-4.295"/></g><g><path fill="url(#C)" fill-rule="nonzero" stroke="#2C405A" stroke-width=".5" d="M8.039 20.443L3.456 31.665l11.223-4.583-6.64-6.64z" transform="rotate(135 258.498 158.377)"/><path fill="url(#C)" fill-rule="nonzero" stroke="#2C405A" stroke-width=".5" d="M8.039 3.443L3.456 14.665l11.223-4.583-6.64-6.64z" transform="rotate(-45 328.502 -593.135)"/><g transform="rotate(90 233.28 288.36)"><mask id="S" fill="#fff"><use xlink:href="#R"/></mask><path fill="url(#J)" fill-rule="nonzero" stroke="#2C405A" stroke-width=".5" d="M23.426-6.75H.574A11.755 11.755 0 00.25-4c0 3.245 1.315 6.182 3.441 8.308A11.713 11.713 0 0012 7.75c3.245 0 6.182-1.315 8.309-3.442A11.712 11.712 0 0023.75-4c0-.947-.112-1.868-.324-2.75z" mask="url(#S)"/></g><path stroke="#9AA9B7" d="M516.926 59.016l-7.796-6.064v14h4.37m8.5 0h5.13l-5.523-4.295"/></g><path fill="#FFF" fill-rule="nonzero" d="M287.333 341.945v-2.035h1.837v-1.375h-1.837V336.5h-1.496v2.035H284v1.375h1.837v2.035zm-172-44v-2.035h1.837v-1.375h-1.837V292.5h-1.496v2.035H112v1.375h1.837v2.035zm-4 83v-2.035h1.837v-1.375h-1.837V375.5h-1.496v2.035H108v1.375h1.837v2.035zm120 0v-2.035h1.837v-1.375h-1.837V375.5h-1.496v2.035H228v1.375h1.837v2.035zm434-83v-2.035h1.837v-1.375h-1.837V292.5h-1.496v2.035H662v1.375h1.837v2.035zm-222 86v-2.035h1.837v-1.375h-1.837V378.5h-1.496v2.035H440v1.375h1.837v2.035zm0 60v-2.035h1.837v-1.375h-1.837V438.5h-1.496v2.035H440v1.375h1.837v2.035z" opacity=".9"/></g></svg>