<svg width="199" height="310" xmlns="http://www.w3.org/2000/svg" xmlns:xlink="http://www.w3.org/1999/xlink"><defs><linearGradient x1="50.034%" y1="99.984%" x2="50.034%" y2="-.004%" id="c"><stop stop-color="#8B878D" offset="0%"/><stop stop-color="#9F9CA1" offset="13.66%"/><stop stop-color="#D9D8DA" offset="42.07%"/><stop stop-color="#F3F4F4" offset="51.52%"/><stop stop-color="#807B80" offset="100%"/></linearGradient><linearGradient x1="50.034%" y1="99.984%" x2="50.034%" y2="-.004%" id="d"><stop stop-color="#8B878D" offset="0%"/><stop stop-color="#9F9CA1" offset="13.66%"/><stop stop-color="#D9D8DA" offset="42.07%"/><stop stop-color="#F3F4F4" offset="51.52%"/><stop stop-color="#807B80" offset="100%"/></linearGradient><linearGradient x1="50.034%" y1="99.984%" x2="50.034%" y2="-.004%" id="e"><stop stop-color="#8B878D" offset="0%"/><stop stop-color="#9F9CA1" offset="13.66%"/><stop stop-color="#D9D8DA" offset="42.07%"/><stop stop-color="#F3F4F4" offset="51.52%"/><stop stop-color="#807B80" offset="100%"/></linearGradient><linearGradient x1="50.034%" y1="99.984%" x2="50.034%" y2="-.004%" id="f"><stop stop-color="#8B878D" offset="0%"/><stop stop-color="#9F9CA1" offset="13.66%"/><stop stop-color="#D9D8DA" offset="42.07%"/><stop stop-color="#F3F4F4" offset="51.52%"/><stop stop-color="#807B80" offset="100%"/></linearGradient><path id="a" d="M0 0h199v310H0z"/></defs><g fill="none" fill-rule="evenodd"><mask id="b" fill="#fff"><use xlink:href="#a"/></mask><g mask="url(#b)"><path d="M197.037 71.846l6.322 8.429h7.375V76.06h14.752v4.215h51.552a4 4 0 014 4v8.859a4 4 0 01-4 4h-51.552v4.214h-14.752v-4.214h-7.375l-6.322 8.43h-46.362l-6.322-8.43h-26.556a4 4 0 01-4-4v-8.859a4 4 0 014-4h26.556l6.322-8.43h46.362z" stroke="#636262" stroke-width=".5" fill="url(#c)" fill-rule="nonzero" transform="translate(-50.948 86.324)"/><path fill="#004C97" d="M75.493 164.492H86.03v6.322H75.493zM75.493 179.243H86.03v6.322H75.493zM180.86 164.492h10.537v6.322H180.86zM174.537 162.384v8.43h-4.214v-8.43h4.214zm-10.536 0v8.43h-4.215v-8.43h4.215zM174.537 179.243v8.429h-4.214v-8.43h4.214zm-10.536 0v8.429h-4.215v-8.43h4.215zM180.86 179.243h10.537v6.322H180.86z"/><path stroke="#636262" stroke-width=".5" fill="url(#d)" fill-rule="nonzero" d="M113.797 71.846h6.322v33.718h-6.322z" transform="translate(-50.948 86.324)"/><g stroke="#636262" stroke-width=".5"><path d="M6.118 0h6.73a2 2 0 011.997 1.901l4.116 83.295a2 2 0 010 .195l-4.118 85.507a2 2 0 01-1.998 1.904H6.121a2 2 0 01-1.998-1.904L.005 85.391a2 2 0 010-.195L4.12 1.901A2 2 0 016.118 0z" fill="url(#e)" fill-rule="nonzero" transform="translate(18.594 89.029)"/><path d="M37.56 185.967H18.594m0-21.074H37.56M35.453 217.577H20.7m0-12.644h14.752M36.506 145.927H19.648m1.053-12.644h14.752M34.399 240.758H21.755m0-10.537h12.644M34.399 120.639H21.755m0-10.537h12.644M34.399 249.187H21.755m0-8.43h12.644M34.399 110.102H21.755m1.054-8.43h10.536M33.345 255.509H22.81m-1.054-6.322h12.644M33.345 259.724H22.81m0-4.215h10.536M33.345 95.35H22.81m1.053-4.214h8.43" fill-opacity=".04" fill="#000"/></g><g stroke="#636262" stroke-width=".5"><path d="M6.12 0h6.726a2 2 0 011.997 1.904l4.119 85.375a2 2 0 010 .19L14.84 175.11a2 2 0 01-1.998 1.906h-6.72a2 2 0 01-1.998-1.906L.005 87.469a2 2 0 010-.19L4.123 1.904A2 2 0 016.12 0z" fill="url(#f)" fill-rule="nonzero" transform="translate(43.882 86.73)"/><path d="M62.848 185.776H43.882m0-21.073h18.966M60.74 219.493H45.99m0-12.644h14.75M61.794 143.63H44.936m1.053-12.645h14.752M59.687 242.674H47.043m0-10.536h12.644M59.687 118.34H47.043m0-10.536h12.644M59.687 251.104H47.043m0-8.43h12.644M59.687 107.804H47.043m1.054-8.43h10.536M58.633 257.426H48.097m-1.054-6.322h12.644M58.633 261.64H48.097m0-4.214h10.536M58.633 93.053H48.097m1.053-4.215h8.43" fill-opacity=".04" fill="#000"/></g><path stroke="#636262" stroke-width=".5" fill="url(#d)" fill-rule="nonzero" d="M88.508 71.846h6.322v33.718h-6.322z" transform="translate(-50.948 86.324)"/></g></g></svg>