<svg width="193" height="273" xmlns="http://www.w3.org/2000/svg" xmlns:xlink="http://www.w3.org/1999/xlink"><defs><linearGradient x1="50.034%" y1="99.984%" x2="50.034%" y2="-.004%" id="e"><stop stop-color="#8B878D" offset="0%"/><stop stop-color="#9F9CA1" offset="13.66%"/><stop stop-color="#D9D8DA" offset="42.07%"/><stop stop-color="#F3F4F4" offset="51.52%"/><stop stop-color="#807B80" offset="100%"/></linearGradient><linearGradient x1="50.034%" y1="99.984%" x2="50.034%" y2="-.004%" id="f"><stop stop-color="#8B878D" offset="0%"/><stop stop-color="#9F9CA1" offset="13.66%"/><stop stop-color="#D9D8DA" offset="42.07%"/><stop stop-color="#F3F4F4" offset="51.52%"/><stop stop-color="#807B80" offset="100%"/></linearGradient><linearGradient x1="50.034%" y1="99.984%" x2="50.034%" y2="-.004%" id="g"><stop stop-color="#8B878D" offset="0%"/><stop stop-color="#9F9CA1" offset="13.66%"/><stop stop-color="#D9D8DA" offset="42.07%"/><stop stop-color="#F3F4F4" offset="51.52%"/><stop stop-color="#807B80" offset="100%"/></linearGradient><linearGradient x1="50.034%" y1="99.984%" x2="50.034%" y2="-.004%" id="h"><stop stop-color="#8B878D" offset="0%"/><stop stop-color="#9F9CA1" offset="13.66%"/><stop stop-color="#D9D8DA" offset="42.07%"/><stop stop-color="#F3F4F4" offset="51.52%"/><stop stop-color="#807B80" offset="100%"/></linearGradient><path id="a" d="M0 0h193v272.731H0z"/><path id="c" d="M.766 0h195v273h-195z"/></defs><g fill="none" fill-rule="evenodd"><mask id="b" fill="#fff"><use xlink:href="#a"/></mask><g mask="url(#b)"><g transform="translate(-.766)"><mask id="d" fill="#fff"><use xlink:href="#c"/></mask><g mask="url(#d)"><path d="M536.832 72.211l6.3 8.392 7.35-.001v-4.195h14.7l-.001 4.195h107.097v-4.195h14.7l-.001 4.195h4.4a4 4 0 014 4v8.784a4 4 0 01-4 4h-4.4v4.196h-14.699v-4.196H565.18v4.196h-14.7v-4.196h-7.35l-6.299 8.392h-46.198l-6.3-8.392h-26.45a4 4 0 01-4-4v-8.783a4 4 0 014-4h26.45l6.3-8.392h46.198z" stroke="#636262" stroke-width=".5" fill="url(#e)" fill-rule="nonzero" transform="translate(-399 47.371)"/><path fill="#004C97" d="M67.484 125.876h10.5v6.294h-10.5zM67.484 140.561h10.5v6.294h-10.5zM172.481 125.876h10.5v6.294h-10.5zM166.181 123.778v8.392h-4.2v-8.392h4.2zm-10.5 0v8.392h-4.2v-8.392h4.2zM166.181 140.561v8.392h-4.2v-8.392h4.2zm-10.5 0v8.392h-4.2v-8.392h4.2zM172.481 140.561h10.5v6.294h-10.5z"/><path stroke="#636262" stroke-width=".5" fill="url(#f)" fill-rule="nonzero" d="M453.885 72.211h6.3v33.567h-6.3z" transform="translate(-399 47.371)"/><g stroke="#636262" stroke-width=".5"><path d="M6.103 0h6.693a2 2 0 011.998 1.901l4.1 82.914a2 2 0 010 .195l-4.103 85.117a2 2 0 01-1.997 1.903H6.106a2 2 0 01-1.998-1.903L.005 85.01a2 2 0 010-.195L4.105 1.9A2 2 0 016.104 0z" fill="url(#g)" fill-rule="nonzero" transform="translate(10.786 50.35)"/><path d="M29.685 146.855H10.786m0-20.98h18.9M27.585 178.324h-14.7m0-12.587h14.7M28.635 106.994H11.836m1.05-12.587h14.7M26.536 201.401h-12.6m0-10.49h12.6M26.536 81.82h-12.6m0-10.49h12.6M26.536 209.793h-12.6m0-8.392h12.6M26.536 71.33h-12.6m1.05-8.392h10.5M25.486 216.087h-10.5m-1.05-6.294h12.6M25.486 220.283h-10.5m0-4.196h10.5M25.486 56.644h-10.5m1.05-4.196h8.4" fill-opacity=".04" fill="#000"/></g><g stroke="#636262" stroke-width=".5"><path d="M6.106 0h6.688a2 2 0 011.997 1.904l4.104 84.984a2 2 0 010 .19l-4.106 87.242a2 2 0 01-1.998 1.906H6.108a2 2 0 01-1.998-1.906L.004 87.08a2 2 0 010-.19L4.109 1.903A2 2 0 016.106 0z" fill="url(#h)" fill-rule="nonzero" transform="translate(35.985 48.252)"/><path d="M54.885 146.855h-18.9m0-20.98h18.9M52.785 180.422h-14.7m0-12.588h14.7M53.835 104.897h-16.8m1.05-12.588h14.7M51.735 203.5h-12.6m0-10.49h12.6M51.735 79.721h-12.6m0-10.49h12.6M51.735 211.891h-12.6m0-8.392h12.6M51.735 69.232h-12.6m1.05-8.392h10.5M50.685 218.185h-10.5m-1.05-6.294h12.6M50.685 222.38h-10.5m0-4.195h10.5M50.685 54.546h-10.5m1.05-4.196h8.4" fill-opacity=".04" fill="#000"/></g><path stroke="#636262" stroke-width=".5" fill="url(#f)" fill-rule="nonzero" d="M428.685 72.211h6.3v33.567h-6.3z" transform="translate(-399 47.371)"/></g></g></g></g></svg>