<svg xmlns="http://www.w3.org/2000/svg" xmlns:xlink="http://www.w3.org/1999/xlink" width="789" height="389"><defs><linearGradient id="ab" x1=".453%" x2="99.615%" y1="50.403%" y2="50.403%"><stop offset="0%" stop-color="#AFACB1"/><stop offset="28.499%" stop-color="#BAB9BC"/><stop offset="42.07%" stop-color="#D9D8DA"/><stop offset="58.437%" stop-color="#F3F4F4"/><stop offset="100%" stop-color="#958F95"/></linearGradient><linearGradient id="a" x1="50.034%" x2="50.034%" y1="99.984%" y2="-.004%"><stop offset="0%" stop-color="#8B878D"/><stop offset="42.07%" stop-color="#D9D8DA"/><stop offset="51.52%" stop-color="#F3F4F4"/><stop offset="100%" stop-color="#807B80"/></linearGradient><linearGradient id="e" x1="50.034%" x2="50.034%" y1="99.984%" y2="-.004%"><stop offset="0%" stop-color="#8B878D"/><stop offset="13.66%" stop-color="#9F9CA1"/><stop offset="42.07%" stop-color="#D9D8DA"/><stop offset="51.52%" stop-color="#F3F4F4"/><stop offset="100%" stop-color="#807B80"/></linearGradient><linearGradient id="f" x1="50.034%" x2="50.034%" y1="99.984%" y2="-.004%"><stop offset="0%" stop-color="#8B878D"/><stop offset="13.66%" stop-color="#9F9CA1"/><stop offset="42.07%" stop-color="#D9D8DA"/><stop offset="51.52%" stop-color="#F3F4F4"/><stop offset="100%" stop-color="#807B80"/></linearGradient><linearGradient id="g" x1="50.034%" x2="50.034%" y1="99.984%" y2="-.004%"><stop offset="0%" stop-color="#8B878D"/><stop offset="13.66%" stop-color="#9F9CA1"/><stop offset="42.07%" stop-color="#D9D8DA"/><stop offset="51.52%" stop-color="#F3F4F4"/><stop offset="100%" stop-color="#807B80"/></linearGradient><linearGradient id="h" x1="50.034%" x2="50.034%" y1="99.984%" y2="-.004%"><stop offset="0%" stop-color="#8B878D"/><stop offset="13.66%" stop-color="#9F9CA1"/><stop offset="42.07%" stop-color="#D9D8DA"/><stop offset="51.52%" stop-color="#F3F4F4"/><stop offset="100%" stop-color="#807B80"/></linearGradient><linearGradient id="i" x1="50.034%" x2="50.034%" y1="99.984%" y2="-.004%"><stop offset="0%" stop-color="#8B878D"/><stop offset="13.66%" stop-color="#9F9CA1"/><stop offset="42.07%" stop-color="#D9D8DA"/><stop offset="51.52%" stop-color="#F3F4F4"/><stop offset="100%" stop-color="#807B80"/></linearGradient><linearGradient id="j" x1="50.034%" x2="50.034%" y1="99.984%" y2="-.004%"><stop offset="0%" stop-color="#8B878D"/><stop offset="13.66%" stop-color="#9F9CA1"/><stop offset="42.07%" stop-color="#D9D8DA"/><stop offset="51.52%" stop-color="#F3F4F4"/><stop offset="100%" stop-color="#807B80"/></linearGradient><linearGradient id="k" x1="50.034%" x2="50.034%" y1="99.725%" y2="-.004%"><stop offset="0%" stop-color="#656266"/><stop offset="13.66%" stop-color="#9F9CA1"/><stop offset="42.07%" stop-color="#D9D8DA"/><stop offset="51.52%" stop-color="#F3F4F4"/><stop offset="100%" stop-color="#807B80"/></linearGradient><linearGradient id="l" x1="50.034%" x2="50.034%" y1="99.725%" y2="-.004%"><stop offset="0%" stop-color="#656266"/><stop offset="13.66%" stop-color="#9F9CA1"/><stop offset="42.07%" stop-color="#D9D8DA"/><stop offset="51.52%" stop-color="#F3F4F4"/><stop offset="100%" stop-color="#807B80"/></linearGradient><linearGradient id="m" x1="50.034%" x2="50.034%" y1="99.725%" y2="-.004%"><stop offset="0%" stop-color="#656266"/><stop offset="13.66%" stop-color="#9F9CA1"/><stop offset="42.07%" stop-color="#D9D8DA"/><stop offset="51.52%" stop-color="#F3F4F4"/><stop offset="100%" stop-color="#807B80"/></linearGradient><linearGradient id="n" x1="50.034%" x2="50.034%" y1="99.984%" y2="-.004%"><stop offset="0%" stop-color="#212F42"/><stop offset="13.66%" stop-color="#004C97"/><stop offset="42.07%" stop-color="#004C97"/><stop offset="51.52%" stop-color="#004C97"/><stop offset="100%" stop-color="#213042"/></linearGradient><linearGradient id="o" x1="50.034%" x2="50.034%" y1="99.725%" y2="-.004%"><stop offset="0%" stop-color="#656266"/><stop offset="13.66%" stop-color="#9F9CA1"/><stop offset="42.07%" stop-color="#D9D8DA"/><stop offset="51.52%" stop-color="#F3F4F4"/><stop offset="100%" stop-color="#807B80"/></linearGradient><linearGradient id="p" x1="50.034%" x2="50.034%" y1="99.725%" y2="-.004%"><stop offset="0%" stop-color="#656266"/><stop offset="13.66%" stop-color="#9F9CA1"/><stop offset="42.07%" stop-color="#D9D8DA"/><stop offset="51.52%" stop-color="#F3F4F4"/><stop offset="100%" stop-color="#807B80"/></linearGradient><linearGradient id="q" x1="50%" x2="50%" y1="100%" y2="0%"><stop offset="0%" stop-color="#223247" stop-opacity="0"/><stop offset="100%" stop-color="#223247"/></linearGradient><linearGradient id="r" x1="50%" x2="50%" y1="100%" y2="0%"><stop offset="0%" stop-color="#223247" stop-opacity="0"/><stop offset="100%" stop-color="#223247"/></linearGradient><linearGradient id="s" x1="50.034%" x2="50.034%" y1="-.004%" y2="99.725%"><stop offset="0%" stop-color="#8C8C8C"/><stop offset="100%" stop-color="#F3F4F4"/></linearGradient><linearGradient id="t" x1="50.034%" x2="50.034%" y1="-.004%" y2="99.725%"><stop offset="0%" stop-color="#8C8C8C"/><stop offset="100%" stop-color="#F3F4F4"/></linearGradient><linearGradient id="u" x1="50.034%" x2="50.034%" y1="-.004%" y2="99.725%"><stop offset="0%" stop-color="#8C8C8C"/><stop offset="100%" stop-color="#F3F4F4"/></linearGradient><linearGradient id="v" x1="50.034%" x2="50.034%" y1="-.004%" y2="99.725%"><stop offset="0%" stop-color="#8C8C8C"/><stop offset="100%" stop-color="#D2D2D2"/></linearGradient><linearGradient id="w" x1="100%" x2="1.138%" y1="50.001%" y2="50%"><stop offset="0%" stop-color="#2F3236"/><stop offset="50.176%" stop-color="#D9D8DA"/><stop offset="100%" stop-color="#2F3236"/></linearGradient><linearGradient id="x" x1="50.034%" x2="50.034%" y1="99.984%" y2="-.004%"><stop offset="0%" stop-color="#8B878D"/><stop offset="13.66%" stop-color="#9F9CA1"/><stop offset="42.07%" stop-color="#D9D8DA"/><stop offset="51.52%" stop-color="#F3F4F4"/><stop offset="100%" stop-color="#807B80"/></linearGradient><linearGradient id="y" x1="50.034%" x2="50.034%" y1="99.984%" y2="-.004%"><stop offset="0%" stop-color="#8B878D"/><stop offset="13.66%" stop-color="#9F9CA1"/><stop offset="42.07%" stop-color="#D9D8DA"/><stop offset="51.52%" stop-color="#F3F4F4"/><stop offset="100%" stop-color="#807B80"/></linearGradient><linearGradient id="B" x1=".453%" x2="99.615%" y1="50.403%" y2="50.403%"><stop offset="0%" stop-color="#AFACB1"/><stop offset="47.376%" stop-color="#C2C2C2"/><stop offset="100%" stop-color="#958F95"/></linearGradient><linearGradient id="C" x1="50.034%" x2="50.034%" y1="-.004%" y2="99.725%"><stop offset="0%" stop-color="#8C8C8C"/><stop offset="100%" stop-color="#F3F4F4"/></linearGradient><linearGradient id="D" x1="50.034%" x2="50.034%" y1="-.004%" y2="99.725%"><stop offset="0%" stop-color="#8C8C8C"/><stop offset="100%" stop-color="#F3F4F4"/></linearGradient><linearGradient id="E" x1="50.034%" x2="50.034%" y1="-.004%" y2="99.725%"><stop offset="0%" stop-color="#8C8C8C"/><stop offset="100%" stop-color="#F3F4F4"/></linearGradient><linearGradient id="F" x1="50.034%" x2="50.034%" y1="-.004%" y2="99.725%"><stop offset="0%" stop-color="#8C8C8C"/><stop offset="100%" stop-color="#F3F4F4"/></linearGradient><linearGradient id="G" x1="100%" x2="1.138%" y1="50.001%" y2="50%"><stop offset="0%" stop-color="#2F3236"/><stop offset="50.176%" stop-color="#D9D8DA"/><stop offset="100%" stop-color="#2F3236"/></linearGradient><linearGradient id="H" x1="50.034%" x2="50.034%" y1="110.504%" y2="-7.852%"><stop offset="0%" stop-color="#383F48"/><stop offset="46.806%" stop-color="#9FA4A8"/><stop offset="100%" stop-color="#3D434B"/></linearGradient><linearGradient id="J" x1="50.034%" x2="50.034%" y1="114.901%" y2="-16.677%"><stop offset="0%" stop-color="#363D43"/><stop offset="52.238%" stop-color="#82888D"/><stop offset="100%" stop-color="#363D43"/></linearGradient><linearGradient id="N" x1=".453%" x2="99.615%" y1="50.403%" y2="50.403%"><stop offset="0%" stop-color="#AFACB1"/><stop offset="28.499%" stop-color="#BAB9BC"/><stop offset="42.07%" stop-color="#D9D8DA"/><stop offset="58.437%" stop-color="#F3F4F4"/><stop offset="100%" stop-color="#958F95"/></linearGradient><linearGradient id="O" x1="50.034%" x2="50.034%" y1="100%" y2="0%"><stop offset="0%" stop-color="#363D43"/><stop offset="49.343%" stop-color="#798085"/><stop offset="50.901%" stop-color="#82888D"/><stop offset="100%" stop-color="#363D43"/></linearGradient><linearGradient id="Q" x1="50.034%" x2="50.034%" y1="114.901%" y2="-16.677%"><stop offset="0%" stop-color="#363D43"/><stop offset="52.238%" stop-color="#82888D"/><stop offset="100%" stop-color="#363D43"/></linearGradient><linearGradient id="U" x1="0%" x2="100%" y1="45.675%" y2="56.707%"><stop offset="0%" stop-color="#5E5D5E"/><stop offset="47.838%" stop-color="#BEBEBE"/><stop offset="100%" stop-color="#5E5D5E"/></linearGradient><linearGradient id="X" x1="0%" x2="100%" y1="45.675%" y2="54.325%"><stop offset="0%" stop-color="#5E5D5E"/><stop offset="47.838%" stop-color="#BEBEBE"/><stop offset="100%" stop-color="#5E5D5E"/></linearGradient><linearGradient id="Y" x1="50.034%" x2="50.034%" y1="95.321%" y2="6.831%"><stop offset="0%" stop-color="#383F48"/><stop offset="46.806%" stop-color="#9FA4A8"/><stop offset="100%" stop-color="#3D434B"/></linearGradient><linearGradient id="d" x1="50.034%" x2="50.034%" y1="99.984%" y2="-.004%"><stop offset="0%" stop-color="#8B878D"/><stop offset="13.66%" stop-color="#9F9CA1"/><stop offset="42.07%" stop-color="#D9D8DA"/><stop offset="51.52%" stop-color="#F3F4F4"/><stop offset="100%" stop-color="#807B80"/></linearGradient><linearGradient id="ak" x1="50.034%" x2="50.034%" y1="99.984%" y2="-.004%"><stop offset="0%" stop-color="#8B878D"/><stop offset="13.66%" stop-color="#9F9CA1"/><stop offset="42.07%" stop-color="#D9D8DA"/><stop offset="51.52%" stop-color="#F3F4F4"/><stop offset="100%" stop-color="#807B80"/></linearGradient><linearGradient id="al" x1="50.034%" x2="50.034%" y1="99.984%" y2="-.004%"><stop offset="0%" stop-color="#8B878D"/><stop offset="13.66%" stop-color="#9F9CA1"/><stop offset="42.07%" stop-color="#D9D8DA"/><stop offset="51.52%" stop-color="#F3F4F4"/><stop offset="100%" stop-color="#807B80"/></linearGradient><linearGradient id="am" x1="50%" x2="50%" y1="0%" y2="100%"><stop offset="0%" stop-color="#636262" stop-opacity=".4"/><stop offset="46.746%" stop-color="#636262"/><stop offset="100%" stop-color="#636262" stop-opacity=".4"/></linearGradient><linearGradient id="an" x1="50%" x2="50%" y1="0%" y2="100%"><stop offset="0%" stop-color="#636262" stop-opacity=".401"/><stop offset="46.746%" stop-color="#636262"/><stop offset="100%" stop-color="#636262" stop-opacity=".4"/></linearGradient><linearGradient id="ap" x1="50.034%" x2="50.034%" y1="99.984%" y2="-.004%"><stop offset="0%" stop-color="#8B878D"/><stop offset="13.66%" stop-color="#9F9CA1"/><stop offset="42.07%" stop-color="#D9D8DA"/><stop offset="51.52%" stop-color="#F3F4F4"/><stop offset="100%" stop-color="#807B80"/></linearGradient><linearGradient id="as" x1="50.034%" x2="50.034%" y1="99.984%" y2="-.004%"><stop offset="0%" stop-color="#8B878D"/><stop offset="13.66%" stop-color="#9F9CA1"/><stop offset="42.07%" stop-color="#D9D8DA"/><stop offset="51.52%" stop-color="#F3F4F4"/><stop offset="100%" stop-color="#807B80"/></linearGradient><linearGradient id="at" x1="50.034%" x2="50.034%" y1="99.984%" y2="-.004%"><stop offset="0%" stop-color="#623E2E"/><stop offset="49.72%" stop-color="#BE6941"/><stop offset="100%" stop-color="#623E2E"/></linearGradient><linearGradient id="au" x1="50%" x2="50%" y1="0%" y2="100%"><stop offset="0%" stop-color="#BDD3EB"/><stop offset="100%" stop-color="#93C5DE"/></linearGradient><linearGradient id="ax" x1="50%" x2="50%" y1="0%" y2="100%"><stop offset="0%" stop-color="#BDD3EB"/><stop offset="100%" stop-color="#93C5DE"/></linearGradient><linearGradient id="aC" x1="50%" x2="50%" y1="0%" y2="100%"><stop offset="0%" stop-color="#BDD3EB"/><stop offset="100%" stop-color="#93C5DE"/></linearGradient><linearGradient id="aE" x1="50.034%" x2="50.034%" y1="99.984%" y2="-.004%"><stop offset="0%" stop-color="#8B878D"/><stop offset="13.66%" stop-color="#9F9CA1"/><stop offset="42.07%" stop-color="#D9D8DA"/><stop offset="51.52%" stop-color="#F3F4F4"/><stop offset="100%" stop-color="#807B80"/></linearGradient><linearGradient id="aF" x1="50%" x2="50%" y1="0%" y2="100%"><stop offset="0%" stop-color="#BDD3EB"/><stop offset="100%" stop-color="#93C5DE"/></linearGradient><linearGradient id="aH" x1="50%" x2="50%" y1="0%" y2="100%"><stop offset="0%" stop-color="#BDD3EB"/><stop offset="100%" stop-color="#93C5DE"/></linearGradient><linearGradient id="aI" x1="50%" x2="50%" y1="100%" y2="0%"><stop offset="0%" stop-color="#223247" stop-opacity="0"/><stop offset="100%" stop-color="#223247"/></linearGradient><linearGradient id="aL" x1="50.034%" x2="50.034%" y1=".822%" y2="99.984%"><stop offset="0%" stop-color="#AFACB1" stop-opacity=".701"/><stop offset="100%" stop-color="#958F95" stop-opacity=".1"/></linearGradient><linearGradient id="aO" x1="50.034%" x2="50.034%" y1=".822%" y2="99.984%"><stop offset="0%" stop-color="#AFACB1" stop-opacity=".701"/><stop offset="100%" stop-color="#958F95" stop-opacity=".1"/></linearGradient><linearGradient id="aT" x1="50.034%" x2="50.034%" y1=".822%" y2="99.984%"><stop offset="0%" stop-color="#AFACB1" stop-opacity=".701"/><stop offset="100%" stop-color="#958F95" stop-opacity=".1"/></linearGradient><linearGradient id="aW" x1="50.034%" x2="50.034%" y1=".822%" y2="99.984%"><stop offset="0%" stop-color="#AFACB1" stop-opacity=".701"/><stop offset="100%" stop-color="#958F95" stop-opacity=".1"/></linearGradient><linearGradient id="aZ" x1="50.034%" x2="50.034%" y1=".822%" y2="99.984%"><stop offset="0%" stop-color="#AFACB1" stop-opacity=".701"/><stop offset="100%" stop-color="#958F95" stop-opacity=".1"/></linearGradient><linearGradient id="bc" x1="50.034%" x2="50.034%" y1=".822%" y2="99.984%"><stop offset="0%" stop-color="#AFACB1" stop-opacity=".701"/><stop offset="100%" stop-color="#958F95" stop-opacity=".1"/></linearGradient><linearGradient id="bf" x1="50.034%" x2="50.034%" y1=".822%" y2="99.984%"><stop offset="0%" stop-color="#AFACB1" stop-opacity=".701"/><stop offset="100%" stop-color="#958F95" stop-opacity=".1"/></linearGradient><linearGradient id="bq" x1="50.034%" x2="50.034%" y1=".822%" y2="99.984%"><stop offset="0%" stop-color="#AFACB1" stop-opacity=".701"/><stop offset="100%" stop-color="#958F95" stop-opacity=".1"/></linearGradient><linearGradient id="bt" x1="50.034%" x2="50.034%" y1=".822%" y2="99.984%"><stop offset="0%" stop-color="#AFACB1" stop-opacity=".701"/><stop offset="100%" stop-color="#958F95" stop-opacity=".1"/></linearGradient><linearGradient id="bw" x1="50.034%" x2="50.034%" y1=".822%" y2="99.984%"><stop offset="0%" stop-color="#AFACB1" stop-opacity=".701"/><stop offset="100%" stop-color="#958F95" stop-opacity=".1"/></linearGradient><linearGradient id="bz" x1="50.034%" x2="50.034%" y1=".822%" y2="99.984%"><stop offset="0%" stop-color="#AFACB1" stop-opacity=".701"/><stop offset="100%" stop-color="#958F95" stop-opacity=".1"/></linearGradient><linearGradient id="bE" x1="50.034%" x2="50.034%" y1=".822%" y2="99.984%"><stop offset="0%" stop-color="#AFACB1" stop-opacity=".701"/><stop offset="100%" stop-color="#958F95" stop-opacity=".1"/></linearGradient><linearGradient id="bH" x1="50.034%" x2="50.034%" y1=".822%" y2="99.984%"><stop offset="0%" stop-color="#AFACB1" stop-opacity=".701"/><stop offset="100%" stop-color="#958F95" stop-opacity=".1"/></linearGradient><linearGradient id="bK" x1="50.034%" x2="50.034%" y1=".822%" y2="99.984%"><stop offset="0%" stop-color="#AFACB1" stop-opacity=".701"/><stop offset="100%" stop-color="#958F95" stop-opacity=".1"/></linearGradient><linearGradient id="bQ" x1="50.034%" x2="50.034%" y1="99.984%" y2="-.004%"><stop offset="0%" stop-color="#8B878D"/><stop offset="13.66%" stop-color="#9F9CA1"/><stop offset="42.07%" stop-color="#D9D8DA"/><stop offset="51.52%" stop-color="#F3F4F4"/><stop offset="100%" stop-color="#807B80"/></linearGradient><linearGradient id="bR" x1="50.034%" x2="50.034%" y1="99.984%" y2="-.004%"><stop offset="0%" stop-color="#8B878D"/><stop offset="13.66%" stop-color="#9F9CA1"/><stop offset="42.07%" stop-color="#D9D8DA"/><stop offset="51.52%" stop-color="#F3F4F4"/><stop offset="100%" stop-color="#807B80"/></linearGradient><linearGradient id="bS" x1="50.034%" x2="50.034%" y1="99.984%" y2="-.004%"><stop offset="0%" stop-color="#8B878D"/><stop offset="13.66%" stop-color="#9F9CA1"/><stop offset="42.07%" stop-color="#D9D8DA"/><stop offset="51.52%" stop-color="#F3F4F4"/><stop offset="100%" stop-color="#807B80"/></linearGradient><linearGradient id="bT" x1="50.034%" x2="50.034%" y1="99.984%" y2="-.004%"><stop offset="0%" stop-color="#8B878D"/><stop offset="13.66%" stop-color="#9F9CA1"/><stop offset="42.07%" stop-color="#D9D8DA"/><stop offset="51.52%" stop-color="#F3F4F4"/><stop offset="100%" stop-color="#807B80"/></linearGradient><linearGradient id="bU" x1="50.034%" x2="50.034%" y1="100%" y2="0%"><stop offset="0%" stop-color="#363D43"/><stop offset="38.975%" stop-color="#798085"/><stop offset="63.704%" stop-color="#82888D"/><stop offset="100%" stop-color="#363D43"/></linearGradient><linearGradient id="bW" x1="50.034%" x2="50.034%" y1="114.901%" y2="-16.677%"><stop offset="0%" stop-color="#363D43"/><stop offset="52.238%" stop-color="#82888D"/><stop offset="100%" stop-color="#363D43"/></linearGradient><linearGradient id="bY" x1="50.034%" x2="50.034%" y1="99.984%" y2="-.004%"><stop offset="0%" stop-color="#8B878D"/><stop offset="13.66%" stop-color="#9F9CA1"/><stop offset="42.07%" stop-color="#D9D8DA"/><stop offset="51.52%" stop-color="#F3F4F4"/><stop offset="100%" stop-color="#807B80"/></linearGradient><linearGradient id="b" x1="50.034%" x2="50.034%" y1="99.984%" y2="-.004%"><stop offset="0%" stop-color="#8B878D"/><stop offset="13.66%" stop-color="#9F9CA1"/><stop offset="42.07%" stop-color="#D9D8DA"/><stop offset="51.52%" stop-color="#F3F4F4"/><stop offset="100%" stop-color="#807B80"/></linearGradient><filter id="z" width="105.2%" height="112.7%" x="-2.8%" y="-5.7%" filterUnits="objectBoundingBox"><feOffset dx="-1" dy="1" in="SourceAlpha" result="shadowOffsetOuter1"/><feGaussianBlur in="shadowOffsetOuter1" result="shadowBlurOuter1" stdDeviation="3"/><feColorMatrix in="shadowBlurOuter1" values="0 0 0 0 0 0 0 0 0 0 0 0 0 0 0 0 0 0 0.230550699 0"/></filter><filter id="L" width="133.8%" height="136.8%" x="-18.7%" y="-16.5%" filterUnits="objectBoundingBox"><feOffset dx="-1" dy="1" in="SourceAlpha" result="shadowOffsetOuter1"/><feGaussianBlur in="shadowOffsetOuter1" result="shadowBlurOuter1" stdDeviation="3"/><feColorMatrix in="shadowBlurOuter1" values="0 0 0 0 0 0 0 0 0 0 0 0 0 0 0 0 0 0 0.230550699 0"/></filter><filter id="S" width="119.5%" height="166.3%" x="-10.8%" y="-29.7%" filterUnits="objectBoundingBox"><feOffset dx="-1" dy="1" in="SourceAlpha" result="shadowOffsetOuter1"/><feGaussianBlur in="shadowOffsetOuter1" result="shadowBlurOuter1" stdDeviation="3"/><feColorMatrix in="shadowBlurOuter1" values="0 0 0 0 0 0 0 0 0 0 0 0 0 0 0 0 0 0 0.230550699 0"/></filter><filter id="V" width="119.5%" height="166.3%" x="-10.8%" y="-29.7%" filterUnits="objectBoundingBox"><feOffset dx="-1" dy="1" in="SourceAlpha" result="shadowOffsetOuter1"/><feGaussianBlur in="shadowOffsetOuter1" result="shadowBlurOuter1" stdDeviation="3"/><feColorMatrix in="shadowBlurOuter1" values="0 0 0 0 0 0 0 0 0 0 0 0 0 0 0 0 0 0 0.230550699 0"/></filter><filter id="Z" width="119.5%" height="128.6%" x="-10.8%" y="-12.8%" filterUnits="objectBoundingBox"><feOffset dx="-1" dy="1" in="SourceAlpha" result="shadowOffsetOuter1"/><feGaussianBlur in="shadowOffsetOuter1" result="shadowBlurOuter1" stdDeviation="3"/><feColorMatrix in="shadowBlurOuter1" values="0 0 0 0 0 0 0 0 0 0 0 0 0 0 0 0 0 0 0.230550699 0"/></filter><filter id="ae" width="119.5%" height="166.3%" x="-10.8%" y="-29.7%" filterUnits="objectBoundingBox"><feOffset dx="-1" dy="1" in="SourceAlpha" result="shadowOffsetOuter1"/><feGaussianBlur in="shadowOffsetOuter1" result="shadowBlurOuter1" stdDeviation="3"/><feColorMatrix in="shadowBlurOuter1" values="0 0 0 0 0 0 0 0 0 0 0 0 0 0 0 0 0 0 0.230550699 0"/></filter><filter id="ag" width="119.5%" height="166.3%" x="-10.8%" y="-29.7%" filterUnits="objectBoundingBox"><feOffset dx="-1" dy="1" in="SourceAlpha" result="shadowOffsetOuter1"/><feGaussianBlur in="shadowOffsetOuter1" result="shadowBlurOuter1" stdDeviation="3"/><feColorMatrix in="shadowBlurOuter1" values="0 0 0 0 0 0 0 0 0 0 0 0 0 0 0 0 0 0 0.230550699 0"/></filter><filter id="ai" width="119.5%" height="128.6%" x="-10.8%" y="-12.8%" filterUnits="objectBoundingBox"><feOffset dx="-1" dy="1" in="SourceAlpha" result="shadowOffsetOuter1"/><feGaussianBlur in="shadowOffsetOuter1" result="shadowBlurOuter1" stdDeviation="3"/><feColorMatrix in="shadowBlurOuter1" values="0 0 0 0 0 0 0 0 0 0 0 0 0 0 0 0 0 0 0.230550699 0"/></filter><filter id="av" width="100%" height="100%" x="0%" y="0%" filterUnits="objectBoundingBox"><feGaussianBlur in="SourceGraphic"/></filter><filter id="aw" width="100%" height="100%" x="0%" y="0%" filterUnits="objectBoundingBox"><feGaussianBlur in="SourceGraphic"/></filter><filter id="ay" width="100%" height="100%" x="0%" y="0%" filterUnits="objectBoundingBox"><feGaussianBlur in="SourceGraphic"/></filter><filter id="az" width="100%" height="100%" x="0%" y="0%" filterUnits="objectBoundingBox"><feGaussianBlur in="SourceGraphic"/></filter><filter id="aA" width="100%" height="100%" x="0%" y="0%" filterUnits="objectBoundingBox"><feGaussianBlur in="SourceGraphic"/></filter><filter id="aB" width="100%" height="100%" x="0%" y="0%" filterUnits="objectBoundingBox"><feGaussianBlur in="SourceGraphic"/></filter><filter id="aD" width="100%" height="100%" x="0%" y="0%" filterUnits="objectBoundingBox"><feGaussianBlur in="SourceGraphic"/></filter><filter id="aG" width="100%" height="100%" x="0%" y="0%" filterUnits="objectBoundingBox"><feGaussianBlur in="SourceGraphic"/></filter><filter id="aJ" width="514.3%" height="206.9%" x="-228.9%" y="-47.8%" filterUnits="objectBoundingBox"><feOffset dx="-1" dy="1" in="SourceAlpha" result="shadowOffsetOuter1"/><feGaussianBlur in="shadowOffsetOuter1" result="shadowBlurOuter1" stdDeviation="3"/><feColorMatrix in="shadowBlurOuter1" values="0 0 0 0 0 0 0 0 0 0 0 0 0 0 0 0 0 0 0.230550699 0"/></filter><filter id="aM" width="514.3%" height="200.4%" x="-228.9%" y="-44.9%" filterUnits="objectBoundingBox"><feOffset dx="-1" dy="1" in="SourceAlpha" result="shadowOffsetOuter1"/><feGaussianBlur in="shadowOffsetOuter1" result="shadowBlurOuter1" stdDeviation="3"/><feColorMatrix in="shadowBlurOuter1" values="0 0 0 0 0 0 0 0 0 0 0 0 0 0 0 0 0 0 0.230550699 0"/></filter><filter id="aP" width="514.3%" height="200.4%" x="-228.9%" y="-44.9%" filterUnits="objectBoundingBox"><feOffset dx="-1" dy="1" in="SourceAlpha" result="shadowOffsetOuter1"/><feGaussianBlur in="shadowOffsetOuter1" result="shadowBlurOuter1" stdDeviation="3"/><feColorMatrix in="shadowBlurOuter1" values="0 0 0 0 0 0 0 0 0 0 0 0 0 0 0 0 0 0 0.230550699 0"/></filter><filter id="aR" width="514.3%" height="214.3%" x="-228.9%" y="-51.1%" filterUnits="objectBoundingBox"><feOffset dx="-1" dy="1" in="SourceAlpha" result="shadowOffsetOuter1"/><feGaussianBlur in="shadowOffsetOuter1" result="shadowBlurOuter1" stdDeviation="3"/><feColorMatrix in="shadowBlurOuter1" values="0 0 0 0 0 0 0 0 0 0 0 0 0 0 0 0 0 0 0.230550699 0"/></filter><filter id="aU" width="514.3%" height="222.7%" x="-228.9%" y="-54.9%" filterUnits="objectBoundingBox"><feOffset dx="-1" dy="1" in="SourceAlpha" result="shadowOffsetOuter1"/><feGaussianBlur in="shadowOffsetOuter1" result="shadowBlurOuter1" stdDeviation="3"/><feColorMatrix in="shadowBlurOuter1" values="0 0 0 0 0 0 0 0 0 0 0 0 0 0 0 0 0 0 0.230550699 0"/></filter><filter id="aX" width="514.3%" height="232.6%" x="-228.9%" y="-59.3%" filterUnits="objectBoundingBox"><feOffset dx="-1" dy="1" in="SourceAlpha" result="shadowOffsetOuter1"/><feGaussianBlur in="shadowOffsetOuter1" result="shadowBlurOuter1" stdDeviation="3"/><feColorMatrix in="shadowBlurOuter1" values="0 0 0 0 0 0 0 0 0 0 0 0 0 0 0 0 0 0 0.230550699 0"/></filter><filter id="ba" width="514.3%" height="257.7%" x="-228.9%" y="-64.2%" filterUnits="objectBoundingBox"><feOffset dx="-1" dy="1" in="SourceAlpha" result="shadowOffsetOuter1"/><feGaussianBlur in="shadowOffsetOuter1" result="shadowBlurOuter1" stdDeviation="3"/><feColorMatrix in="shadowBlurOuter1" values="0 0 0 0 0 0 0 0 0 0 0 0 0 0 0 0 0 0 0.230550699 0"/></filter><filter id="bd" width="514.3%" height="251.9%" x="-228.9%" y="-68%" filterUnits="objectBoundingBox"><feOffset dx="-1" dy="1" in="SourceAlpha" result="shadowOffsetOuter1"/><feGaussianBlur in="shadowOffsetOuter1" result="shadowBlurOuter1" stdDeviation="3"/><feColorMatrix in="shadowBlurOuter1" values="0 0 0 0 0 0 0 0 0 0 0 0 0 0 0 0 0 0 0.230550699 0"/></filter><filter id="bg" width="514.3%" height="206.9%" x="-228.9%" y="-47.8%" filterUnits="objectBoundingBox"><feOffset dx="-1" dy="1" in="SourceAlpha" result="shadowOffsetOuter1"/><feGaussianBlur in="shadowOffsetOuter1" result="shadowBlurOuter1" stdDeviation="3"/><feColorMatrix in="shadowBlurOuter1" values="0 0 0 0 0 0 0 0 0 0 0 0 0 0 0 0 0 0 0.230550699 0"/></filter><filter id="bi" width="514.3%" height="214.3%" x="-228.9%" y="-51.1%" filterUnits="objectBoundingBox"><feOffset dx="-1" dy="1" in="SourceAlpha" result="shadowOffsetOuter1"/><feGaussianBlur in="shadowOffsetOuter1" result="shadowBlurOuter1" stdDeviation="3"/><feColorMatrix in="shadowBlurOuter1" values="0 0 0 0 0 0 0 0 0 0 0 0 0 0 0 0 0 0 0.230550699 0"/></filter><filter id="bk" width="514.3%" height="222.7%" x="-228.9%" y="-54.9%" filterUnits="objectBoundingBox"><feOffset dx="-1" dy="1" in="SourceAlpha" result="shadowOffsetOuter1"/><feGaussianBlur in="shadowOffsetOuter1" result="shadowBlurOuter1" stdDeviation="3"/><feColorMatrix in="shadowBlurOuter1" values="0 0 0 0 0 0 0 0 0 0 0 0 0 0 0 0 0 0 0.230550699 0"/></filter><filter id="bm" width="514.3%" height="232.6%" x="-228.9%" y="-59.3%" filterUnits="objectBoundingBox"><feOffset dx="-1" dy="1" in="SourceAlpha" result="shadowOffsetOuter1"/><feGaussianBlur in="shadowOffsetOuter1" result="shadowBlurOuter1" stdDeviation="3"/><feColorMatrix in="shadowBlurOuter1" values="0 0 0 0 0 0 0 0 0 0 0 0 0 0 0 0 0 0 0.230550699 0"/></filter><filter id="bo" width="514.3%" height="258.5%" x="-228.9%" y="-64.5%" filterUnits="objectBoundingBox"><feOffset dx="-1" dy="1" in="SourceAlpha" result="shadowOffsetOuter1"/><feGaussianBlur in="shadowOffsetOuter1" result="shadowBlurOuter1" stdDeviation="3"/><feColorMatrix in="shadowBlurOuter1" values="0 0 0 0 0 0 0 0 0 0 0 0 0 0 0 0 0 0 0.230550699 0"/></filter><filter id="br" width="514.3%" height="257.8%" x="-228.9%" y="-70.6%" filterUnits="objectBoundingBox"><feOffset dx="-1" dy="1" in="SourceAlpha" result="shadowOffsetOuter1"/><feGaussianBlur in="shadowOffsetOuter1" result="shadowBlurOuter1" stdDeviation="3"/><feColorMatrix in="shadowBlurOuter1" values="0 0 0 0 0 0 0 0 0 0 0 0 0 0 0 0 0 0 0.230550699 0"/></filter><filter id="bu" width="376.2%" height="170.7%" x="-152.6%" y="-32.2%" filterUnits="objectBoundingBox"><feOffset dx="-1" dy="1" in="SourceAlpha" result="shadowOffsetOuter1"/><feGaussianBlur in="shadowOffsetOuter1" result="shadowBlurOuter1" stdDeviation="3"/><feColorMatrix in="shadowBlurOuter1" values="0 0 0 0 0 0 0 0 0 0 0 0 0 0 0 0 0 0 0.230550699 0"/></filter><filter id="bx" width="514.3%" height="165.4%" x="-228.9%" y="-29.7%" filterUnits="objectBoundingBox"><feOffset dx="-1" dy="1" in="SourceAlpha" result="shadowOffsetOuter1"/><feGaussianBlur in="shadowOffsetOuter1" result="shadowBlurOuter1" stdDeviation="3"/><feColorMatrix in="shadowBlurOuter1" values="0 0 0 0 0 0 0 0 0 0 0 0 0 0 0 0 0 0 0.230550699 0"/></filter><filter id="bA" width="514.3%" height="165.4%" x="-228.9%" y="-29.7%" filterUnits="objectBoundingBox"><feOffset dx="-1" dy="1" in="SourceAlpha" result="shadowOffsetOuter1"/><feGaussianBlur in="shadowOffsetOuter1" result="shadowBlurOuter1" stdDeviation="3"/><feColorMatrix in="shadowBlurOuter1" values="0 0 0 0 0 0 0 0 0 0 0 0 0 0 0 0 0 0 0.230550699 0"/></filter><filter id="bC" width="376.2%" height="229.1%" x="-152.6%" y="-59.3%" filterUnits="objectBoundingBox"><feOffset dx="-1" dy="1" in="SourceAlpha" result="shadowOffsetOuter1"/><feGaussianBlur in="shadowOffsetOuter1" result="shadowBlurOuter1" stdDeviation="3"/><feColorMatrix in="shadowBlurOuter1" values="0 0 0 0 0 0 0 0 0 0 0 0 0 0 0 0 0 0 0.230550699 0"/></filter><filter id="bF" width="376.2%" height="182.8%" x="-152.6%" y="-40.1%" filterUnits="objectBoundingBox"><feOffset dx="-1" dy="1" in="SourceAlpha" result="shadowOffsetOuter1"/><feGaussianBlur in="shadowOffsetOuter1" result="shadowBlurOuter1" stdDeviation="3"/><feColorMatrix in="shadowBlurOuter1" values="0 0 0 0 0 0 0 0 0 0 0 0 0 0 0 0 0 0 0.230550699 0"/></filter><filter id="bI" width="400.9%" height="170.7%" x="-166.3%" y="-32.2%" filterUnits="objectBoundingBox"><feOffset dx="-1" dy="1" in="SourceAlpha" result="shadowOffsetOuter1"/><feGaussianBlur in="shadowOffsetOuter1" result="shadowBlurOuter1" stdDeviation="3"/><feColorMatrix in="shadowBlurOuter1" values="0 0 0 0 0 0 0 0 0 0 0 0 0 0 0 0 0 0 0.230550699 0"/></filter><filter id="bL" width="376.2%" height="229.1%" x="-152.6%" y="-59.3%" filterUnits="objectBoundingBox"><feOffset dx="-1" dy="1" in="SourceAlpha" result="shadowOffsetOuter1"/><feGaussianBlur in="shadowOffsetOuter1" result="shadowBlurOuter1" stdDeviation="3"/><feColorMatrix in="shadowBlurOuter1" values="0 0 0 0 0 0 0 0 0 0 0 0 0 0 0 0 0 0 0.230550699 0"/></filter><filter id="bN" width="376.2%" height="182.8%" x="-152.6%" y="-40.1%" filterUnits="objectBoundingBox"><feOffset dx="-1" dy="1" in="SourceAlpha" result="shadowOffsetOuter1"/><feGaussianBlur in="shadowOffsetOuter1" result="shadowBlurOuter1" stdDeviation="3"/><feColorMatrix in="shadowBlurOuter1" values="0 0 0 0 0 0 0 0 0 0 0 0 0 0 0 0 0 0 0.230550699 0"/></filter><path id="be" d="M306.27 171.358h4.586v11.81l-2.293.23v-2.867c0-3.058-.764-6.116-2.293-9.173z"/><path id="A" d="M508.084 128.933a6.878 6.878 0 016.875 6.621l.005.258v126.13c0 8.745-6.994 15.858-15.694 16.048l-.359.004H479.42c-8.746 0-15.859-6.994-16.05-15.694l-.003-.359v-1.537L335.17 249.257l-13.566-11.395H237.86l-91.36 25.49.412-3.406a470.755 470.755 0 003.424-54.201 398.86 398.86 0 00-3.13-51.897l-.29-2.257-.43-3.265 91.322 20.739h83.143l14.248-11.398 128.166-11.145v-10.71a6.878 6.878 0 016.366-6.86l.256-.015.258-.004h37.838zm0 4.586h-37.838a2.294 2.294 0 00-2.294 2.293v14.915l-130.971 11.389-14.42 11.535h-85.269l-85.413-19.397a403.21 403.21 0 013.044 51.515 475.056 475.056 0 01-3.057 51.325l85.37-23.818h85.095l.918-.02 13.761 11.557L467.952 256.2v5.742c0 6.333 5.134 11.467 11.467 11.467h19.492c6.333 0 11.467-5.134 11.467-11.467v-126.13a2.294 2.294 0 00-2.294-2.293z"/><path id="M" d="M518.97 171.358h56.184v51.598h-56.185v-51.598zm2.292 2.293v47.012h51.599V173.65h-51.599z"/><path id="P" d="M.393 0h97.07v66.504H0z"/><path id="T" d="M631.339 160.465a2.867 2.867 0 012.83 2.407l.022.173h.014v12.9h-1.147V163.33a1.72 1.72 0 00-3.412-.309l-.02.144-.007.165c0 .706.325 1.412.977 2.117l.17.177h1.146v14.906h-12.613v-4.013h4.587c1.403 0 2.162-3.06 2.277-9.18l.007-.394.009-1.32h1.147c.637-.636 1.008-1.273 1.114-1.91l.024-.192.014-.38a2.866 2.866 0 012.86-2.677zm-17.2 0a2.867 2.867 0 012.83 2.407l.023.173h.014v12.9a1.72 1.72 0 001.41 1.692l.144.02.166.007v.574h-1.719l-.139-.11a2.868 2.868 0 01-.92-1.475l-.048-.222-.037-.278-.004-.1v-12.722a1.72 1.72 0 00-3.412-.309l-.02.144-.008.165c0 .706.326 1.412.977 2.117l.17.177h1.147v14.906h-12.614v-4.013h4.587c1.404 0 2.163-3.06 2.278-9.18l.007-.394.008-1.32h1.147c.637-.636 1.009-1.273 1.115-1.91l.024-.192.014-.38a2.866 2.866 0 012.86-2.677zm37.839-2.293c.628 0 1.235.091 1.807.262l.473 1.414a5.16 5.16 0 00-7.394 3.938c.107.545.41 1.09.906 1.634l.195.205h1.146v14.905h3.44v-1.146h5.733v1.146h4.587v-2.292h2.293v.386a3.993 3.993 0 011.72-.386 4.01 4.01 0 011.494.287l.228.1-.002-.387h2.293v2.292h5.733-38.985v-4.013h3.44c1.403 0 2.163-3.06 2.278-9.179l.006-.394.01-1.32h1.146c.706-.705 1.085-1.41 1.14-2.116l.007-.177h.103a6.31 6.31 0 016.203-5.16zm24.652-6.307v26.372h-3.44l-.006-.148a1.718 1.718 0 00-1.564-1.565l-.149-.006H663.7c-1.665 0-3.33.041-4.992.124l-1.246.07-1.47.092a4.317 4.317 0 01-4.582-4.099l-.005-.21v-7.108c0-1.135-.92-2.056-2.056-2.056a2.872 2.872 0 012.629-1.72c.664 0 1.288.227 1.785.624a9.173 9.173 0 102.925-5.681l-.222.21-.235.238a8.605 8.605 0 00-12.017 3.773l-.119.26-.717 2.296-.157.006a2.293 2.293 0 00-2.13 2.13l-.006.158-.005 1.018c-.033 2.974-.21 5.213-.52 6.679a8.14 8.14 0 01-.192.757l-.048.145h-3.82l-.688-13.468a5.16 5.16 0 00-9.602 2.014l-.02.224-.009.263-.008.074h-2.286v2.294l-.006 1.018c-.032 2.974-.21 5.213-.518 6.679-.063.298-.13.552-.193.757l-.048.145H619.3l-.687-13.468a5.16 5.16 0 00-9.603 2.014l-.019.224-.01.263-.007.074-.157.006a2.287 2.287 0 00-2.125 2.125l-.005.156v.007l-.005 1.018c-.031 2.826.002 4.538.005 6.176v.259l-.006.148a1.72 1.72 0 01-1.565 1.565l-.149.007h-2.796a1.845 1.845 0 00-1.821 2.145l.03.148h-2.292c-.574 0-.667.207 0-2.293.666-2.501 3.388-2.19 5.16-5.733 1.146-2.294.573-6.307 1.146-10.083.172-1.13-.605-1.761-1.35-2.12a2.841 2.841 0 00-.694-.23 6.423 6.423 0 00-.732-.099l-.22-.017-.464-.026c-.168-.007-.35-.013-.546-.019l-.303-.007-.67-.01h-1.387c-1.835.01-4.273.062-7.318.156l-.578.018-.707.024a3.494 3.494 0 00-3.375 3.493c.018 5.885.183 9.84.515 11.999l.03.19.071.386c.277 1.371 2.084 3.886 3.235 5.32l.16.198h-10.893v-26.373h97.463zm-13.759 4.587a6.88 6.88 0 110 13.76 6.88 6.88 0 01-6.647-8.663 5.155 5.155 0 00-1.443-1.403l1.784.892 2.293-1.147v-1.72l-.3-.2a6.855 6.855 0 014.313-1.52z"/><path id="W" d="M631.339 198.304a2.867 2.867 0 012.83 2.407l.022.172h.014v12.9h-1.147V201.17a1.72 1.72 0 00-3.412-.31l-.02.144-.007.166c0 .706.325 1.411.977 2.117l.17.176h1.146v14.907h-12.613v-4.014h4.587c1.403 0 2.162-3.06 2.277-9.179l.007-.395.009-1.319h1.147c.637-.637 1.008-1.274 1.114-1.91l.024-.192.014-.38a2.865 2.865 0 012.86-2.677zm-17.2 0a2.867 2.867 0 012.83 2.407l.023.172h.014v12.9a1.72 1.72 0 001.41 1.692l.144.02.166.008v.573h-1.719l-.139-.11a2.861 2.861 0 01-.92-1.474l-.048-.222-.037-.278-.004-.1V201.17a1.72 1.72 0 00-3.412-.31l-.02.144-.008.166c0 .706.326 1.411.977 2.117l.17.176h1.147v14.907l-12.614-.001v-4.013h4.587c1.404 0 2.163-3.06 2.278-9.179l.007-.395.008-1.319h1.147c.637-.637 1.009-1.274 1.115-1.91l.024-.192.014-.38a2.865 2.865 0 012.86-2.677zm37.839-2.294c.628 0 1.235.092 1.807.263l.473 1.414a5.16 5.16 0 00-7.394 3.937c.107.545.41 1.09.906 1.635l.195.204h1.146v14.905h3.44v-1.145h5.733v1.145h4.587v-2.292h2.293v.387a3.994 3.994 0 011.72-.387 3.99 3.99 0 011.494.288l.228.1-.002-.388h2.293v2.292l5.733.002h-38.985v-4.014h3.44c1.403 0 2.163-3.06 2.278-9.179l.006-.395.01-1.319h1.146c.706-.705 1.085-1.41 1.14-2.117l.007-.176h.103a6.31 6.31 0 016.203-5.16zm24.652-6.306v26.372h-3.44l-.006-.149a1.718 1.718 0 00-1.564-1.564l-.149-.007H663.7c-1.665 0-3.33.042-4.992.125l-1.246.07-1.47.092a4.317 4.317 0 01-4.582-4.1l-.005-.209v-7.108c0-1.136-.92-2.056-2.056-2.056a2.872 2.872 0 014.414-1.097 9.173 9.173 0 102.925-5.68l-.222.21-.235.238a8.606 8.606 0 00-12.017 3.772l-.119.26-.717 2.297-.157.005a2.294 2.294 0 00-2.13 2.131l-.006.157-.005 1.019c-.033 2.974-.21 5.213-.52 6.679a8.14 8.14 0 01-.192.757l-.048.145h-3.82l-.688-13.468a5.161 5.161 0 00-9.602 2.014l-.02.224-.009.263-.008.074h-2.286v2.293l-.006 1.019c-.032 2.974-.21 5.213-.518 6.679-.063.298-.13.552-.193.757l-.048.145H619.3l-.687-13.468a5.162 5.162 0 00-9.603 2.014l-.019.224-.01.263-.007.074-.157.005a2.288 2.288 0 00-2.125 2.125l-.005.157v.006l-.005 1.019c-.031 2.825.002 4.537.005 6.176v.258l-.006.149a1.72 1.72 0 01-1.565 1.565l-.149.006h-2.796a1.845 1.845 0 00-1.821 2.145l.03.149h-2.292c-.574 0-.667.207 0-2.294.666-2.5 3.388-2.19 5.16-5.733 1.146-2.293 1.227-6.007-1.147-9.173-1.72-2.293-4.587-2.866-6.88-2.866s-8.619 1.963-8.6 8.026c.02 5.937 2.21 11.557 3.368 13.094l.072.092h-10.893v-26.372h97.463zm-13.759 4.586a6.88 6.88 0 110 13.76 6.88 6.88 0 01-6.647-8.663 5.169 5.169 0 00-1.443-1.403l1.784.893 2.293-1.147v-1.72l-.3-.2a6.855 6.855 0 014.313-1.52z"/><path id="aa" d="M579.167 151.865h97.463v66.505h-97.463v-66.505zm2.293 2.293v61.918h92.877v-61.918H581.46z"/><path id="ac" d="M.393 0h97.07v66.504H0z"/><path id="af" d="M743.708 160.465a2.867 2.867 0 012.83 2.407l.023.173h.014v12.9h-1.147V163.33a1.72 1.72 0 00-3.412-.309l-.02.144-.008.165c0 .706.326 1.412.977 2.117l.17.177h1.147v14.906h-12.613v-4.013h4.586c1.404 0 2.163-3.06 2.278-9.18l.006-.394.01-1.32h1.146c.637-.636 1.009-1.273 1.115-1.91l.024-.192.014-.38a2.866 2.866 0 012.86-2.677zm-17.2 0a2.865 2.865 0 012.83 2.407l.023.173h.014v12.9c0 .844.609 1.546 1.411 1.692l.144.02.165.007v.574h-1.718l-.14-.11a2.875 2.875 0 01-.92-1.475l-.047-.222-.037-.278-.004-.1v-12.722a1.72 1.72 0 00-3.412-.309l-.02.144-.008.165c0 .706.326 1.412.977 2.117l.17.177h1.146v14.906H714.47v-4.013h4.587c1.403 0 2.162-3.06 2.278-9.18l.006-.394.009-1.32h1.147c.637-.636 1.008-1.273 1.114-1.91l.024-.192.014-.38a2.867 2.867 0 012.86-2.677zm37.84-2.293c.628 0 1.234.091 1.807.262l.473 1.414a5.16 5.16 0 00-7.394 3.938c.107.545.409 1.09.905 1.634l.195.205h1.147v14.905h3.44v-1.146h5.733v1.146h4.586v-2.292h2.294v.386a3.987 3.987 0 011.72-.386 4.01 4.01 0 011.494.287l.227.1-.001-.387h2.293v2.292H789h-38.985v-4.013h3.44c1.403 0 2.162-3.06 2.277-9.179l.007-.394.009-1.32h1.146c.706-.705 1.086-1.41 1.14-2.116l.007-.177h.104a6.31 6.31 0 016.203-5.16zM789 151.865v26.372h-3.44l-.006-.148a1.72 1.72 0 00-1.565-1.565l-.148-.006h-7.772c-1.664 0-3.329.041-4.991.124l-1.247.07-1.47.092a4.317 4.317 0 01-4.582-4.099l-.005-.21v-7.108c0-1.135-.92-2.056-2.055-2.056a2.871 2.871 0 014.414-1.096 9.173 9.173 0 102.924-5.681l-.222.21-.235.238a8.608 8.608 0 00-12.017 3.773l-.118.26-.717 2.296-.157.006a2.293 2.293 0 00-2.131 2.13l-.005.158-.006 1.018c-.032 2.974-.21 5.213-.519 6.679a8.14 8.14 0 01-.192.757l-.048.145h-3.822l-.688-13.468a5.16 5.16 0 00-9.602 2.014l-.019.224-.01.263-.007.074h-2.287v2.294l-.005 1.018c-.033 2.974-.21 5.213-.519 6.679a8.437 8.437 0 01-.193.757l-.047.145h-3.822l-.688-13.468a5.16 5.16 0 00-9.602 2.014l-.02.224-.009.263-.007.074-.157.006a2.287 2.287 0 00-2.125 2.125l-.005.156v.007l-.006 1.018c-.03 2.826.002 4.538.005 6.176v.259l-.006.148a1.718 1.718 0 01-1.565 1.565l-.148.007h-2.796a1.845 1.845 0 00-1.822 2.145l.031.148h-2.293c-.573 0-.666.207 0-2.293.666-2.501 3.388-2.19 5.16-5.733 1.146-2.294.573-6.307 1.146-10.083.172-1.13-.604-1.761-1.35-2.12a2.834 2.834 0 00-.693-.23 6.423 6.423 0 00-.732-.099l-.22-.017-.465-.026c-.168-.007-.35-.013-.545-.019l-.304-.007-.67-.01h-1.386c-1.836.01-4.274.062-7.318.156l-.578.018-.708.024a3.494 3.494 0 00-3.375 3.493c.019 5.885.183 9.84.516 11.999l.03.19.07.386c.277 1.371 2.084 3.886 3.236 5.32l.16.198h-10.893v-26.373H789zm-13.76 4.587a6.88 6.88 0 110 13.76 6.88 6.88 0 01-6.646-8.663 5.168 5.168 0 00-1.443-1.403l1.783.892 2.293-1.147v-1.72l-.3-.2a6.855 6.855 0 014.313-1.52z"/><path id="ah" d="M743.708 198.304a2.867 2.867 0 012.83 2.407l.023.172h.014v12.9h-1.147V201.17a1.72 1.72 0 00-3.412-.31l-.02.144-.008.166c0 .706.326 1.411.977 2.117l.17.176h1.147v14.907h-12.613v-4.014h4.586c1.404 0 2.163-3.06 2.278-9.179l.006-.395.01-1.319h1.146c.637-.637 1.009-1.274 1.115-1.91l.024-.192.014-.38a2.865 2.865 0 012.86-2.677zm-17.2 0a2.865 2.865 0 012.83 2.407l.023.172h.014v12.9a1.72 1.72 0 001.411 1.692l.144.02.165.008v.573h-1.718l-.14-.11a2.868 2.868 0 01-.92-1.474l-.047-.222-.037-.278-.004-.1V201.17a1.72 1.72 0 00-3.412-.31l-.02.144-.008.166c0 .706.326 1.411.977 2.117l.17.176h1.146v14.907l-12.613-.001v-4.013h4.587c1.403 0 2.162-3.06 2.278-9.179l.006-.395.009-1.319h1.147c.637-.637 1.008-1.274 1.114-1.91l.024-.192.014-.38a2.866 2.866 0 012.86-2.677zm37.84-2.294c.628 0 1.234.092 1.807.263l.473 1.414a5.16 5.16 0 00-7.394 3.937c.107.545.409 1.09.905 1.635l.195.204h1.147v14.905h3.44v-1.145h5.733v1.145h4.586v-2.292h2.294v.387a3.987 3.987 0 011.72-.387 3.99 3.99 0 011.494.288l.227.1-.001-.388h2.293v2.292l5.733.002h-38.985v-4.014h3.44c1.403 0 2.162-3.06 2.277-9.179l.007-.395.009-1.319h1.146c.706-.705 1.086-1.41 1.14-2.117l.007-.176h.104a6.31 6.31 0 016.203-5.16zM789 189.704v26.372h-3.44l-.006-.149a1.72 1.72 0 00-1.565-1.564l-.148-.007h-7.772c-1.664 0-3.329.042-4.991.125l-1.247.07-1.47.092a4.317 4.317 0 01-4.582-4.1l-.005-.209v-7.108c0-1.136-.92-2.056-2.055-2.056a2.871 2.871 0 014.414-1.097 9.173 9.173 0 102.924-5.68l-.222.21-.235.238a8.609 8.609 0 00-12.017 3.772l-.118.26-.717 2.297-.157.005a2.294 2.294 0 00-2.131 2.131l-.005.157-.006 1.019c-.032 2.974-.21 5.213-.519 6.679a8.14 8.14 0 01-.192.757l-.048.145h-3.822l-.688-13.468a5.16 5.16 0 00-9.602 2.014l-.019.224-.01.263-.007.074h-2.287v2.293l-.005 1.019c-.033 2.974-.21 5.213-.519 6.679a8.437 8.437 0 01-.193.757l-.047.145h-3.822l-.688-13.468a5.161 5.161 0 00-9.602 2.014l-.02.224-.009.263-.007.074-.157.005a2.288 2.288 0 00-2.125 2.125l-.005.157v.006l-.006 1.019c-.03 2.825.002 4.537.005 6.176v.258l-.006.149a1.719 1.719 0 01-1.565 1.565l-.148.006h-2.796a1.846 1.846 0 00-1.822 2.145l.031.149h-2.293c-.573 0-.666.207 0-2.294.666-2.5 3.388-2.19 5.16-5.733 1.146-2.293 1.227-6.007-1.147-9.173-1.72-2.293-4.586-2.866-6.88-2.866-2.293 0-8.619 1.963-8.6 8.026.02 5.937 2.21 11.557 3.368 13.094l.073.092h-10.893v-26.372H789zm-13.76 4.586a6.88 6.88 0 110 13.76 6.88 6.88 0 01-6.646-8.663 5.182 5.182 0 00-1.443-1.403l1.783.893 2.293-1.147v-1.72l-.3-.2a6.855 6.855 0 014.313-1.52z"/><path id="aj" d="M691.537 151.865H789v66.505h-97.463v-66.505zm2.293 2.293v61.918h92.877v-61.918H693.83z"/><path id="ao" d="M0 1.147L6.749.979v13.759L0 14.906z"/><path id="aK" d="M260.405 171.358h4.586V188.9l-2.293.23v-8.6c0-3.058-.764-6.116-2.293-9.173z"/><path id="aN" d="M251.232 171.358h4.586v18.69l-2.293.23v-9.747c0-3.058-.764-6.116-2.293-9.173z"/><path id="aQ" d="M251.232 216.65h4.586v18.69l-2.293.229v-9.746c0-3.058-.764-6.116-2.293-9.173z"/><path id="aS" d="M269.578 171.358h4.586v16.397l-2.293.229v-7.453c0-3.058-.764-6.116-2.293-9.173z"/><path id="aV" d="M278.75 171.358h4.587v15.25l-2.293.23v-6.307c0-3.058-.764-6.116-2.293-9.173z"/><path id="aY" d="M287.924 171.358h4.586v14.103l-2.293.23v-5.16c0-3.058-.764-6.116-2.293-9.173z"/><path id="bb" d="M297.097 171.358h4.586v12.957l-1.95.195a1 1 0 11-.343.098v-4.077c0-3.058-.764-6.116-2.293-9.173z"/><path id="I" d="M.227 0h55.958v51.598H0z"/><path id="bh" d="M260.405 217.796h4.586v17.544l-2.293.229v-8.6c0-3.057-.764-6.115-2.293-9.173z"/><path id="bj" d="M269.578 218.943h4.586v16.397l-2.293.229v-7.453c0-3.058-.764-6.116-2.293-9.173z"/><path id="bl" d="M278.75 220.09h4.587v15.25l-2.293.229v-6.307c0-3.057-.764-6.115-2.293-9.173z"/><path id="bn" d="M287.924 221.236h4.586v14.104l-2.293.229v-5.16c0-3.058-.764-6.115-2.293-9.173z"/><path id="bp" d="M297.097 222.383h4.586v12.893l-1.95.195a1 1 0 11-.343.098v-4.077c0-3.058-.764-6.094-2.293-9.11z"/><path id="bs" d="M306.27 223.53h4.586v11.34l-2.293.23v-2.867c0-3.057-.764-5.959-2.293-8.704z"/><path id="bv" d="M388.254 156.452h6.88c-1.53 1.528-2.294 4.204-2.294 8.026v16.834a1 1 0 01-.67.944l-.476.167a.863.863 0 01-1.147-.814v-17.131c0-3.058-.764-5.733-2.293-8.026z"/><path id="by" d="M376.78 157.598h4.586c-1.53 1.53-2.293 4.205-2.293 8.027v19.285a1 1 0 01-.758.97l-.39.097a.921.921 0 01-1.146-.895v-27.484z"/><path id="bB" d="M376.214 221.81h4.587c-1.53 1.528-2.294 4.204-2.294 8.026v19.285a1 1 0 01-.757.97l-.39.097a.921.921 0 01-1.146-.895v-27.484z"/><path id="bD" d="M422.652 153.012h6.88c-1.529 1.529-2.293 4.204-2.293 8.026v4.542a.998.998 0 01-.553.894l-.594.297a.792.792 0 01-1.146-.708v-5.025c0-3.058-.765-5.733-2.294-8.026z"/><path id="bG" d="M405.453 155.305l6.88-1.147c-1.529 1.53-2.293 4.205-2.293 8.027v9.443c0 .198-.059.39-.168.555l-.979 1.468a.626.626 0 01-1.147-.347v-9.973c0-3.057-.764-5.733-2.293-8.026z"/><path id="bJ" d="M388.254 226.396l6.314-1.147c-1.529 1.53-2.293 4.205-2.293 8.027v16.834a.999.999 0 01-.67.943l-.477.167a.862.862 0 01-1.146-.813v-17.131c0-3.058-.576-5.351-1.728-6.88z"/><path id="bM" d="M422.087 240.155h6.88c-1.529 1.53-2.293 4.205-2.293 8.027v4.542a1 1 0 01-.553.894l-.594.297a.792.792 0 01-1.146-.709v-5.024c0-3.058-.765-5.733-2.294-8.027z"/><path id="bO" d="M404.888 233.276l6.88-1.147c-1.53 1.529-2.294 4.204-2.294 8.026v9.141c0 .395-.117.781-.336 1.11l-.81 1.216a.626.626 0 01-1.147-.347v-9.973c0-3.058-.764-5.733-2.293-8.026z"/><path id="bV" d="M.161 0H40v34H0z"/><path id="bZ" d="M.161 0H40v34H0z"/><radialGradient id="c" cx="-20.177%" cy="-21.812%" r="141.011%" fx="-20.177%" fy="-21.812%"><stop offset="0%" stop-color="#8B878D"/><stop offset="13.66%" stop-color="#9F9CA1"/><stop offset="42.07%" stop-color="#D9D8DA"/><stop offset="51.52%" stop-color="#F3F4F4"/><stop offset="100%" stop-color="#807B80"/></radialGradient><radialGradient id="ar" cx="-17.256%" cy="121.436%" r="141.011%" fx="-17.256%" fy="121.436%"><stop offset="0%" stop-color="#8B878D"/><stop offset="13.66%" stop-color="#9F9CA1"/><stop offset="42.07%" stop-color="#D9D8DA"/><stop offset="51.52%" stop-color="#F3F4F4"/><stop offset="100%" stop-color="#807B80"/></radialGradient><radialGradient id="bP" cx="50%" cy="54.424%" r="45.576%" fx="50%" fy="54.424%" gradientTransform="matrix(0 1 -.68389 0 .872 .044)"><stop offset="0%" stop-color="#172942" stop-opacity=".993"/><stop offset="100%" stop-color="#162841" stop-opacity="0"/></radialGradient></defs><g fill="none" fill-rule="evenodd"><g fill-rule="nonzero" stroke-width=".5"><path fill="url(#a)" stroke="#636262" d="M16 7h16v16H16z" transform="rotate(-180 370 48)"/><path fill="url(#b)" stroke="#636262" d="M37 18h6v16h-6z" transform="rotate(90 353 405)"/><path fill="url(#b)" stroke="#636262" d="M37 68h6v16h-6z" transform="rotate(90 353 455)"/><path fill="url(#c)" stroke="#636262" d="M32 7h16v5c0 6.075-4.925 11-11 11h-5 0V7z" transform="matrix(1 0 0 -1 692 96)"/><path fill="url(#d)" stroke="#636262" d="M36 21h7v22h-7z" transform="rotate(90 352.5 411)"/><path fill="url(#d)" stroke="#7F7F7F" d="M36 59h7v22h-7z" transform="rotate(90 352.5 449)"/><path fill="url(#e)" stroke="#636262" d="M50.75 35.25h-85.5v15.5h85.5v-15.5z" transform="rotate(90 321 422)"/></g><g fill-rule="nonzero" stroke-width=".5"><path fill="url(#a)" stroke="#636262" d="M16 7h16v16H16z" transform="rotate(-180 314 48)"/><path fill="url(#b)" stroke="#636262" d="M37 18h6v16h-6z" transform="rotate(90 297 349)"/><path fill="url(#b)" stroke="#636262" d="M37 68h6v16h-6z" transform="rotate(90 297 399)"/><path fill="url(#c)" stroke="#636262" d="M32 7h16v5c0 6.075-4.925 11-11 11h-5 0V7z" transform="matrix(1 0 0 -1 580 96)"/><path fill="url(#d)" stroke="#636262" d="M36 21h7v22h-7z" transform="rotate(90 296.5 355)"/><path fill="url(#d)" stroke="#7F7F7F" d="M36 59h7v22h-7z" transform="rotate(90 296.5 393)"/><path fill="url(#e)" stroke="#636262" d="M50.75 35.25h-85.5v15.5h85.5v-15.5z" transform="rotate(90 265 366)"/></g><g fill-rule="nonzero" stroke="#636262" stroke-width=".5"><path fill="url(#f)" d="M-29.56 30.707h66v5.733h-66z" transform="rotate(90 40.57 305.126)"/><path fill="url(#g)" d="M161.434 49.878h25.226v5.733h-25.226z" transform="rotate(90 211.177 324.298)"/><path fill="url(#h)" d="M57.18 65.358h114v5.733h-114z" transform="translate(308.683 234.422)"/><path fill="url(#i)" d="M6.18 65.358h31v5.733h-31z" transform="translate(308.683 234.422)"/><path fill="url(#j)" d="M36.306 72.238V64.21h3.44l6.88 4.013v.402l-6.88 3.612h-3.44z" transform="translate(308.683 234.422)"/><path fill="url(#j)" d="M47.2 72.238V64.21h3.44l6.88 4.013v.402l-6.88 3.612H47.2z" transform="matrix(-1 0 0 1 413.401 234.422)"/></g><path fill="url(#k)" fill-rule="nonzero" stroke="#2C405A" stroke-width=".5" d="M36.562 127.463H12.147c-1.036 0-1.973.42-2.652 1.098a3.737 3.737 0 00-1.098 2.652v147.941c0 1.035.42 1.973 1.098 2.652a3.741 3.741 0 002.652 1.098h24.415V127.463z" transform="translate(-7)"/><path fill="url(#l)" fill-rule="nonzero" stroke="#2C405A" stroke-width=".5" d="M43.942 127.463h29.312v155.441H43.942z" transform="translate(-7)"/><path fill="url(#m)" fill-rule="nonzero" stroke="#2C405A" d="M88.411 127.213h16.053v155.941H88.411z" transform="translate(-7)"/><path fill="url(#n)" fill-rule="nonzero" stroke="#2C405A" d="M71.5 127.5h17.346v154.941H71.5z" transform="translate(-7)"/><path fill="url(#o)" fill-rule="nonzero" stroke="#2C405A" d="M123.37 127.213h17.178a3.998 3.998 0 013.96 3.44l8.074 57.052c.027.186.04.373.04.56v33.836c0 .188-.013.375-.04.56l-8.073 57.053a4 4 0 01-3.96 3.44h-17.18a4 4 0 01-4-4V131.213a4 4 0 014-4z" transform="translate(-7)"/><path fill="url(#n)" fill-rule="nonzero" stroke="#2C405A" d="M103.5 127.5h17.346v154.941H103.5z" transform="translate(-7)"/><path fill="url(#p)" fill-rule="nonzero" stroke="#2C405A" stroke-width=".5" d="M35.416 146.455h9.673v19.993h-9.673z" transform="translate(-7)"/><path fill="url(#p)" fill-rule="nonzero" stroke="#2C405A" stroke-width=".5" d="M35.416 165.948h9.673v19.993h-9.673z" transform="translate(-7)"/><path fill="url(#p)" fill-rule="nonzero" stroke="#2C405A" stroke-width=".5" d="M35.416 185.441h9.673v19.993h-9.673z" transform="translate(-7)"/><path fill="url(#p)" fill-rule="nonzero" stroke="#2C405A" stroke-width=".5" d="M35.416 204.933h9.673v19.993h-9.673z" transform="translate(-7)"/><path fill="url(#p)" fill-rule="nonzero" stroke="#2C405A" stroke-width=".5" d="M35.416 224.426h9.673v19.993h-9.673z" transform="translate(-7)"/><path fill="url(#p)" fill-rule="nonzero" stroke="#2C405A" stroke-width=".5" d="M35.416 243.919h9.673v19.993h-9.673z" transform="translate(-7)"/><path fill="url(#p)" fill-rule="nonzero" stroke="#2C405A" stroke-width=".5" d="M35.416 263.411h9.673v19.993h-9.673zm0-136.448h9.673v19.993h-9.673z" transform="translate(-7)"/><path fill="url(#q)" d="M7 241.875l134.155.574c1.46.666 2.415 1.622 2.867 2.866 1.61 4.433 2.172 11.386 2.867 14.906.986 5.003 1.75 12.648 2.293 22.933H7v-41.279z" opacity=".4" transform="matrix(1 0 0 -1 -7 525.03)"/><path fill="url(#r)" d="M7 127.213l134.155-.574c2.074.593 3.22 1.549 3.44 2.867 1.147 6.88 1.72 12.04 2.294 15.48.769 4.615 1.916 12.26 3.44 22.932L7 168.49v-41.278z" opacity=".4" transform="translate(-7)"/><g fill-rule="nonzero" stroke="#7F7F7F" stroke-width=".5" transform="translate(36.692 106)"><path fill="url(#s)" d="M9.173-8.6l8.026 13.187-8.026 13.186z" transform="rotate(90 11.466 7.454)"/><path fill="url(#t)" d="M9.746-1.147l6.88 13.187-6.88 13.186z" transform="matrix(0 -1 -1 0 26.373 29.813)"/><path fill="url(#u)" d="M-.86 1.433h14.906L6.02 14.62z" transform="rotate(-90 9.46 9.746)"/><path fill="url(#u)" d="M12.326 1.433h14.906L19.206 14.62z" transform="matrix(0 -1 -1 0 28.953 32.393)"/><rect width="28.666" height="2.293" y="19.493" fill="#C0BEC0" rx="1.147"/><rect width="28.666" height="5.733" fill="url(#v)" rx="2"/><rect width="28.666" height="6.88" fill="url(#w)" rx="1"/></g><g fill-rule="nonzero" stroke="#636262" stroke-width=".5"><path fill="url(#x)" d="M-14.06 19.512h39v5.733h-43z" transform="rotate(90 43.097 301.311)"/><path fill="url(#y)" d="M5.733 31.839h4.587v11.466H5.733z" transform="translate(318.59 239.276)"/></g><g fill-rule="nonzero" transform="translate(-7)"><use fill="#000" filter="url(#z)" xlink:href="#A"/><use fill="url(#B)" xlink:href="#A"/></g><g fill-rule="nonzero" stroke="#7F7F7F" stroke-width=".5" transform="translate(462.09 111.733)"><path fill="url(#C)" d="M14.906-14.906L22.933 3.44l-8.027 19.493z" transform="rotate(90 16.627 7.453)"/><path fill="url(#D)" d="M16.339-7.74l6.307 18.92-6.307 18.919z" transform="matrix(0 -1 -1 0 31.819 36.405)"/><path fill="url(#E)" d="M2.293-2.293h14.906L9.173 17.199z" transform="rotate(-90 13.186 9.746)"/><path fill="url(#F)" d="M21.213-1.72h14.906l-8.027 18.346z" transform="matrix(0 -1 -1 0 37.266 41.852)"/><rect width="40.132" height="2.293" y="19.493" fill="#C0BEC0" rx="1.147"/><rect width="28.666" height="5.733" x="5.733" fill="url(#v)" rx="2"/><rect width="40.132" height="6.88" fill="url(#G)" rx="1"/></g><path fill="url(#H)" fill-rule="nonzero" d="M518.969 171.358h56.185v51.598h-56.185z" transform="translate(-7)"/><g transform="translate(511.97 171.358)"><mask id="K" fill="#fff"><use xlink:href="#I"/></mask><use fill="url(#J)" fill-rule="nonzero" xlink:href="#I"/><g stroke="#FFF" stroke-linecap="square" stroke-width=".5" mask="url(#K)" opacity=".603"><path d="M-359.582 121.677l600.475-592.486m-600.475 596.635l600.475-592.487m-600.475 596.635l600.475-592.486m-600.475 596.634l600.475-592.486M-359.582 138.27l600.475-592.486m-600.475 596.634l600.475-592.486m-600.475 596.634L240.893-445.92m-600.475 596.634l600.475-592.486m-600.475 596.634l600.475-592.486M-359.582 159.01l600.475-592.486m-600.475 596.634l600.475-592.486m-600.475 596.634L240.893-425.18m-600.475 596.635l600.475-592.487m-600.475 596.635l600.475-592.486m-600.475 596.634l600.475-592.486m-600.475 596.634l600.475-592.486m-600.475 596.634l600.475-592.486m-600.475 596.634l600.475-592.486m-600.475 596.634l600.475-592.486m-600.475 596.634l600.475-592.486m-600.475 596.634l600.475-592.486m-600.475 596.634l600.475-592.486m-600.475 596.634l600.475-592.486m-600.475 596.635l600.475-592.486m-600.475 596.634l600.475-592.486M-359.582 225.38l600.475-592.486m-600.475 596.634l600.475-592.486m-600.475 596.634L240.893-358.81m-600.475 596.634l600.475-592.486m-600.475 596.634l600.475-592.486M-359.582 246.12l600.475-592.486m-600.475 596.634l600.475-592.486m-600.475 596.634L240.893-338.07m-600.475 596.635l600.475-592.487m-600.475 596.635l600.475-592.486m-600.475 596.634l600.475-592.486m-600.475 596.634l600.475-592.486m-600.475 596.634l600.475-592.486m-600.475 596.634l600.475-592.486m-600.475 596.634l600.475-592.486m-600.475 596.634l600.475-592.486m-600.475 596.634l600.475-592.486m-600.475 596.634l600.475-592.486m-600.475 596.634l600.475-592.486m-600.475 596.635l600.475-592.487m-600.475 596.635l600.475-592.486M-359.582 312.49l600.475-592.486m-600.475 596.634l600.475-592.486m-600.475 596.634L240.893-271.7m-600.475 596.634l600.475-592.486m-600.475 596.634l600.475-592.486M-359.582 333.23l600.475-592.486m-600.475 596.634l600.475-592.486m-600.475 596.634L240.893-250.96m-600.475 596.634l600.475-592.486m-600.475 596.635l600.475-592.486m-600.475 596.634l600.475-592.486m-600.475 596.634l600.475-592.486m-600.475 596.634l600.475-592.486m-600.475 596.634l600.475-592.486m-600.475 596.634l600.475-592.486m-600.475 596.634l600.475-592.486m-600.475 596.634l600.475-592.486m-600.475 596.634l600.475-592.486m-600.475 596.634l600.475-592.486m-600.475 596.635l600.475-592.487m-600.475 596.635l600.475-592.486M-359.582 399.6l600.475-592.486m-600.475 596.634l600.475-592.486m-600.475 596.634L240.893-184.59m-600.475 596.634l600.475-592.486m-600.475 596.634l600.475-592.486M-359.582 420.34l600.475-592.486m-600.475 596.634l600.475-592.486m-600.475 596.634L240.893-163.85m-600.475 596.634l600.475-592.486m-600.475 596.635l600.475-592.487m-600.475 596.635l600.475-592.486m-600.475 596.634l600.475-592.486m-600.475 596.634l600.475-592.486m-600.475 596.634l600.475-592.486m-600.475 596.634l600.475-592.486m-600.475 596.634l600.475-592.486m-600.475 596.634l600.475-592.486m-600.475 596.634l600.475-592.486m-600.475 596.634l600.475-592.486m-600.475 596.634l600.475-592.486m-600.475 596.635l600.475-592.486M-359.582 486.71l600.475-592.486m-600.475 596.634l600.475-592.486m-600.475 596.634L240.893-97.48m-600.475 596.634L240.893-93.332m-600.475 596.634L240.893-89.184M-359.582 507.45L240.893-85.036m-600.475 596.634L240.893-80.888m-600.475 596.634L240.893-76.74m-600.475 596.634L240.893-72.592m-600.475 596.635L240.893-68.444m-600.475 596.635L240.893-64.295m-600.475 596.634L240.893-60.147m-600.475 596.634L240.893-55.999m-600.475 596.634L240.893-51.851m-600.475 596.634L240.893-47.703m-600.475 596.634L240.893-43.555m-600.475 596.634L240.893-39.407m-600.475 596.634L240.893-35.259m-600.475 596.634L240.893-31.111m-600.475 596.634L240.893-26.963m-600.475 596.635L240.893-22.815M-359.582 573.82L240.893-18.666m-600.475 596.634L240.893-14.518m-600.475 596.634L240.893-10.37m-600.475 596.634L240.893-6.222m-600.475 596.634L240.893-2.074M-359.582 594.56L240.893 2.074m-600.475 596.634L240.893 6.222m-600.475 596.634L240.893 10.37m-600.475 596.634L240.893 14.518m-600.475 596.634L240.893 18.666m-600.475 596.635L240.893 22.815m-600.475 596.634L240.893 26.963m-600.475 596.634L240.893 31.111m-600.475 596.634L240.893 35.259m-600.475 596.634L240.893 39.407m-600.475 596.634L240.893 43.555m-600.475 596.634L240.893 47.703m-600.475 596.634L240.893 51.851m-600.475 596.634L240.893 55.999m-600.475 596.634L240.893 60.147m-600.475 596.635L240.893 64.295M-359.582 660.93L240.893 68.444m-600.475 596.634L240.893 72.592m-600.475 596.634L240.893 76.74m-600.475 596.634L240.893 80.888m-600.475 596.634L240.893 85.036M-359.582 681.67L240.893 89.184m-600.475 596.634L240.893 93.332m-600.475 596.634L240.893 97.48m-600.475 596.634l600.475-592.486m-600.475 596.634l600.475-592.486m-600.475 596.635l600.475-592.487m-600.475 596.635l600.475-592.486m-600.475 596.634l600.475-592.486m-600.475 596.634l600.475-592.486" opacity=".148"/></g></g><g fill-rule="nonzero" transform="translate(-7)"><use fill="#000" filter="url(#L)" xlink:href="#M"/><use fill="url(#N)" xlink:href="#M"/></g><path fill="url(#O)" fill-rule="nonzero" d="M579.167 151.865h97.463v66.505h-97.463z" transform="translate(-7)"/><g transform="translate(572.167 151.865)"><mask id="R" fill="#fff"><use xlink:href="#P"/></mask><use fill="url(#Q)" fill-rule="nonzero" xlink:href="#P"/><g stroke="#FFF" stroke-linecap="square" stroke-width=".5" mask="url(#R)" opacity=".603"><path d="M-293.537 100.903l490.183-491.33m-490.183 494.77l490.183-491.33m-490.183 494.77l490.183-491.33m-490.183 494.77l490.183-491.33m-490.183 494.77l490.183-491.33m-490.183 494.77l490.183-491.33m-490.183 494.77l490.183-491.33m-490.183 494.769l490.183-491.33m-490.183 494.77l490.183-491.33m-490.183 494.77l490.183-491.33m-490.183 494.77l490.183-491.33m-490.183 494.77l490.183-491.33m-490.183 494.77l490.183-491.33m-490.183 494.77l490.183-491.33m-490.183 494.77l490.183-491.33m-490.183 494.769l490.183-491.329m-490.183 494.769l490.183-491.33m-490.183 494.77l490.183-491.33m-490.183 494.77l490.183-491.33m-490.183 494.77l490.183-491.33m-490.183 494.77l490.183-491.33m-490.183 494.77l490.183-491.33m-490.183 494.77l490.183-491.33m-490.183 494.77l490.183-491.33M-293.537 183.46l490.183-491.33M-293.537 186.9l490.183-491.33m-490.183 494.77l490.183-491.33m-490.183 494.77l490.183-491.33m-490.183 494.77l490.183-491.33m-490.183 494.77l490.183-491.33M-293.537 204.1l490.183-491.33m-490.183 494.77l490.183-491.33m-490.183 494.769L196.646-280.35m-490.183 494.769l490.183-491.33m-490.183 494.77l490.183-491.33m-490.183 494.77l490.183-491.33m-490.183 494.77l490.183-491.33m-490.183 494.77l490.183-491.33m-490.183 494.77l490.183-491.33m-490.183 494.77l490.183-491.33m-490.183 494.77l490.183-491.33m-490.183 494.769l490.183-491.329m-490.183 494.769l490.183-491.33m-490.183 494.77l490.183-491.33m-490.183 494.77l490.183-491.33m-490.183 494.77l490.183-491.33m-490.183 494.77l490.183-491.33m-490.183 494.77l490.183-491.33m-490.183 494.77l490.183-491.33m-490.183 494.769l490.183-491.329m-490.183 494.769l490.183-491.33m-490.183 494.77l490.183-491.33m-490.183 494.77l490.183-491.33m-490.183 494.77l490.183-491.33m-490.183 494.77l490.183-491.33m-490.183 494.77l490.183-491.33m-490.183 494.77l490.183-491.33m-490.183 494.77l490.183-491.33m-490.183 494.769l490.183-491.329m-490.183 494.769l490.183-491.33m-490.183 494.77l490.183-491.33m-490.183 494.77l490.183-491.33m-490.183 494.77l490.183-491.33m-490.183 494.77l490.183-491.33m-490.183 494.77l490.183-491.33m-490.183 494.77l490.183-491.33m-490.183 494.769l490.183-491.329m-490.183 494.769l490.183-491.33m-490.183 494.77l490.183-491.33m-490.183 494.77l490.183-491.33m-490.183 494.77l490.183-491.33m-490.183 494.77l490.183-491.33m-490.183 494.77l490.183-491.33m-490.183 494.77l490.183-491.33m-490.183 494.77l490.183-491.33m-490.183 494.769l490.183-491.329m-490.183 494.769l490.183-491.33m-490.183 494.77l490.183-491.33m-490.183 494.77l490.183-491.33m-490.183 494.77l490.183-491.33m-490.183 494.77l490.183-491.33m-490.183 494.77l490.183-491.33m-490.183 494.77l490.183-491.33m-490.183 494.769l490.183-491.329m-490.183 494.769l490.183-491.33m-490.183 494.77l490.183-491.33m-490.183 494.77l490.183-491.33m-490.183 494.77l490.183-491.33m-490.183 494.77l490.183-491.33m-490.183 494.77l490.183-491.33m-490.183 494.77l490.183-491.33m-490.183 494.77l490.183-491.33m-490.183 494.769L196.646-73.957m-490.183 494.769l490.183-491.33m-490.183 494.77l490.183-491.33m-490.183 494.77l490.183-491.33m-490.183 494.77l490.183-491.33m-490.183 494.77l490.183-491.33m-490.183 494.77l490.183-491.33m-490.183 494.77l490.183-491.33m-490.183 494.769L196.646-46.438m-490.183 494.769l490.183-491.33m-490.183 494.77l490.183-491.33m-490.183 494.77l490.183-491.33m-490.183 494.77l490.183-491.33m-490.183 494.77l490.183-491.33m-490.183 494.77l490.183-491.33m-490.183 494.77l490.183-491.33m-490.183 494.77l490.183-491.33M-293.537 475.85L196.646-15.479M-293.537 479.29L196.646-12.04m-490.183 494.77L196.646-8.6m-490.183 494.77L196.646-5.16m-490.183 494.77L196.646-1.72m-490.183 494.77L196.646 1.72m-490.183 494.77L196.646 5.16m-490.183 494.77L196.646 8.6m-490.183 494.77L196.646 12.04m-490.183 494.769l490.183-491.33m-490.183 494.77l490.183-491.33m-490.183 494.77l490.183-491.33m-490.183 494.77l490.183-491.33m-490.183 494.77l490.183-491.33m-490.183 494.77l490.183-491.33m-490.183 494.77l490.183-491.33m-490.183 494.77l490.183-491.33m-490.183 494.769L196.646 42.999m-490.183 494.769l490.183-491.33m-490.183 494.77l490.183-491.33m-490.183 494.77l490.183-491.33m-490.183 494.77l490.183-491.33m-490.183 494.77l490.183-491.33m-490.183 494.77l490.183-491.33m-490.183 494.77l490.183-491.33m-490.183 494.77l490.183-491.33m-490.183 494.769l490.183-491.33m-490.183 494.77l490.183-491.33m-490.183 494.77l490.183-491.33m-490.183 494.77l490.183-491.33m-490.183 494.77l490.183-491.33m-490.183 494.77l490.183-491.33m-490.183 494.77l490.183-491.33m-490.183 494.77l490.183-491.33m-490.183 494.769l490.183-491.329" opacity=".148"/></g></g><g fill-rule="nonzero" transform="translate(-7)"><use fill="#000" filter="url(#S)" xlink:href="#T"/><use fill="url(#U)" xlink:href="#T"/></g><g fill-rule="nonzero" transform="matrix(1 0 0 -1 -7 408.073)"><use fill="#000" filter="url(#V)" xlink:href="#W"/><use fill="url(#X)" xlink:href="#W"/></g><path fill="url(#Y)" fill-rule="nonzero" d="M691.537 151.865H789v66.505h-97.463z" transform="translate(-7)"/><g fill-rule="nonzero" transform="translate(-7)"><use fill="#000" filter="url(#Z)" xlink:href="#aa"/><use fill="url(#ab)" xlink:href="#aa"/></g><g transform="translate(684.537 151.865)"><mask id="ad" fill="#fff"><use xlink:href="#ac"/></mask><use fill="url(#Q)" fill-rule="nonzero" xlink:href="#ac"/><g stroke="#FFF" stroke-linecap="square" stroke-width=".5" mask="url(#ad)" opacity=".603"><path d="M-293.537 100.903l490.183-491.33m-490.183 494.77l490.183-491.33m-490.183 494.77l490.183-491.33m-490.183 494.77l490.183-491.33m-490.183 494.77l490.183-491.33m-490.183 494.77l490.183-491.33m-490.183 494.77l490.183-491.33m-490.183 494.769l490.183-491.33m-490.183 494.77l490.183-491.33m-490.183 494.77l490.183-491.33m-490.183 494.77l490.183-491.33m-490.183 494.77l490.183-491.33m-490.183 494.77l490.183-491.33m-490.183 494.77l490.183-491.33m-490.183 494.77l490.183-491.33m-490.183 494.769l490.183-491.329m-490.183 494.769l490.183-491.33m-490.183 494.77l490.183-491.33m-490.183 494.77l490.183-491.33m-490.183 494.77l490.183-491.33m-490.183 494.77l490.183-491.33m-490.183 494.77l490.183-491.33m-490.183 494.77l490.183-491.33m-490.183 494.77l490.183-491.33M-293.537 183.46l490.183-491.33M-293.537 186.9l490.183-491.33m-490.183 494.77l490.183-491.33m-490.183 494.77l490.183-491.33m-490.183 494.77l490.183-491.33m-490.183 494.77l490.183-491.33M-293.537 204.1l490.183-491.33m-490.183 494.77l490.183-491.33m-490.183 494.769L196.646-280.35m-490.183 494.769l490.183-491.33m-490.183 494.77l490.183-491.33m-490.183 494.77l490.183-491.33m-490.183 494.77l490.183-491.33m-490.183 494.77l490.183-491.33m-490.183 494.77l490.183-491.33m-490.183 494.77l490.183-491.33m-490.183 494.77l490.183-491.33m-490.183 494.769l490.183-491.329m-490.183 494.769l490.183-491.33m-490.183 494.77l490.183-491.33m-490.183 494.77l490.183-491.33m-490.183 494.77l490.183-491.33m-490.183 494.77l490.183-491.33m-490.183 494.77l490.183-491.33m-490.183 494.77l490.183-491.33m-490.183 494.769l490.183-491.329m-490.183 494.769l490.183-491.33m-490.183 494.77l490.183-491.33m-490.183 494.77l490.183-491.33m-490.183 494.77l490.183-491.33m-490.183 494.77l490.183-491.33m-490.183 494.77l490.183-491.33m-490.183 494.77l490.183-491.33m-490.183 494.77l490.183-491.33m-490.183 494.769l490.183-491.329m-490.183 494.769l490.183-491.33m-490.183 494.77l490.183-491.33m-490.183 494.77l490.183-491.33m-490.183 494.77l490.183-491.33m-490.183 494.77l490.183-491.33m-490.183 494.77l490.183-491.33m-490.183 494.77l490.183-491.33m-490.183 494.769l490.183-491.329m-490.183 494.769l490.183-491.33m-490.183 494.77l490.183-491.33m-490.183 494.77l490.183-491.33m-490.183 494.77l490.183-491.33m-490.183 494.77l490.183-491.33m-490.183 494.77l490.183-491.33m-490.183 494.77l490.183-491.33m-490.183 494.77l490.183-491.33m-490.183 494.769l490.183-491.329m-490.183 494.769l490.183-491.33m-490.183 494.77l490.183-491.33m-490.183 494.77l490.183-491.33m-490.183 494.77l490.183-491.33m-490.183 494.77l490.183-491.33m-490.183 494.77l490.183-491.33m-490.183 494.77l490.183-491.33m-490.183 494.769l490.183-491.329m-490.183 494.769l490.183-491.33m-490.183 494.77l490.183-491.33m-490.183 494.77l490.183-491.33m-490.183 494.77l490.183-491.33m-490.183 494.77l490.183-491.33m-490.183 494.77l490.183-491.33m-490.183 494.77l490.183-491.33m-490.183 494.77l490.183-491.33m-490.183 494.769L196.646-73.957m-490.183 494.769l490.183-491.33m-490.183 494.77l490.183-491.33m-490.183 494.77l490.183-491.33m-490.183 494.77l490.183-491.33m-490.183 494.77l490.183-491.33m-490.183 494.77l490.183-491.33m-490.183 494.77l490.183-491.33m-490.183 494.769L196.646-46.438m-490.183 494.769l490.183-491.33m-490.183 494.77l490.183-491.33m-490.183 494.77l490.183-491.33m-490.183 494.77l490.183-491.33m-490.183 494.77l490.183-491.33m-490.183 494.77l490.183-491.33m-490.183 494.77l490.183-491.33m-490.183 494.77l490.183-491.33M-293.537 475.85L196.646-15.479M-293.537 479.29L196.646-12.04m-490.183 494.77L196.646-8.6m-490.183 494.77L196.646-5.16m-490.183 494.77L196.646-1.72m-490.183 494.77L196.646 1.72m-490.183 494.77L196.646 5.16m-490.183 494.77L196.646 8.6m-490.183 494.77L196.646 12.04m-490.183 494.769l490.183-491.33m-490.183 494.77l490.183-491.33m-490.183 494.77l490.183-491.33m-490.183 494.77l490.183-491.33m-490.183 494.77l490.183-491.33m-490.183 494.77l490.183-491.33m-490.183 494.77l490.183-491.33m-490.183 494.77l490.183-491.33m-490.183 494.769L196.646 42.999m-490.183 494.769l490.183-491.33m-490.183 494.77l490.183-491.33m-490.183 494.77l490.183-491.33m-490.183 494.77l490.183-491.33m-490.183 494.77l490.183-491.33m-490.183 494.77l490.183-491.33m-490.183 494.77l490.183-491.33m-490.183 494.77l490.183-491.33m-490.183 494.769l490.183-491.33m-490.183 494.77l490.183-491.33m-490.183 494.77l490.183-491.33m-490.183 494.77l490.183-491.33m-490.183 494.77l490.183-491.33m-490.183 494.77l490.183-491.33m-490.183 494.77l490.183-491.33m-490.183 494.77l490.183-491.33m-490.183 494.769l490.183-491.329" opacity=".148"/></g></g><g fill-rule="nonzero" transform="translate(-7)"><use fill="#000" filter="url(#ae)" xlink:href="#af"/><use fill="url(#U)" xlink:href="#af"/></g><path stroke="#636262" stroke-width=".5" d="M574.71 154.408h92.377v61.418H574.71z"/><g fill-rule="nonzero" transform="matrix(1 0 0 -1 -7 408.073)"><use fill="#000" filter="url(#ag)" xlink:href="#ah"/><use fill="url(#X)" xlink:href="#ah"/></g><path stroke="#636262" stroke-width=".5" d="M687.08 154.408h92.377v61.418H687.08z"/><g fill-rule="nonzero" transform="translate(-7)"><use fill="#000" filter="url(#ai)" xlink:href="#aj"/><use fill="url(#ab)" xlink:href="#aj"/></g><path fill="url(#ak)" fill-rule="nonzero" stroke="#636262" stroke-width=".5" d="M775.454 180.53a3.502 3.502 0 013.286-2.292h1.027a3.5 3.5 0 013.286 2.293H789v9.173h-5.947a3.501 3.501 0 01-3.286 2.293h-1.027a3.502 3.502 0 01-3.286-2.292l-82.12-.001h-22.65a3.501 3.501 0 01-3.287 2.293h-1.026a3.5 3.5 0 01-3.286-2.292l-144.69-.001v-9.173h144.69a3.5 3.5 0 013.286-2.293h1.026a3.5 3.5 0 013.287 2.293h104.77z" transform="translate(-7)"/><path fill="#0F436B" d="M776.267 178.238v4.586h-2.293v-4.586h2.293zm-5.733 0v4.586h-2.294v-4.586h2.294zm5.733 13.759v-4.586h-2.293v4.586h2.293zm-5.733 0v-4.586h-2.294v4.586h2.294zm-80.264-12.613h5.733v3.44h-5.733z"/><g stroke-width=".5"><path fill="url(#al)" fill-rule="nonzero" stroke="#636262" d="M6.88 0h5.733v38.412H6.88c0-6.115-.765-9.173-2.293-9.173H0V10.893h4.587C6.115 10.893 6.88 7.262 6.88 0z" transform="translate(595.1 165.625)"/><path fill="#000" fill-opacity=".04" stroke="#636262" d="M601.98 177.665h5.733v6.88h-5.733z" opacity=".5"/><path fill="#000" fill-opacity=".04" stroke="#636262" d="M601.98 184.544h5.733v6.88h-5.733z" opacity=".5"/><path fill="#000" fill-opacity=".06" stroke="#636262" d="M601.98 173.078h5.733v4.587h-5.733zm0 18.346h5.733v4.587h-5.733z" opacity=".5"/><path fill="#000" fill-opacity=".08" stroke="#636262" d="M601.98 169.638h5.733v3.44h-5.733zm0 26.373h5.733v3.44h-5.733z" opacity=".5"/><path fill="#000" fill-opacity=".104" stroke="#636262" d="M601.98 167.345h5.733v2.293h-5.733z" opacity=".5"/><path fill="#000" fill-opacity=".1" stroke="#636262" d="M601.98 199.451h5.733v2.867h-5.733z" opacity=".7"/><path stroke="url(#am)" stroke-linecap="square" d="M1.147 29.239V10.893m1.146 18.346V10.893M3.44 29.239V10.893" transform="translate(595.1 165.625)"/><path stroke="url(#an)" stroke-linecap="square" d="M4.587 29.239V10.893" transform="translate(595.1 165.625)"/></g><path fill="#0F436B" d="M690.27 187.411h5.733v3.44h-5.733zm67.651-8.027h5.733v3.44h-5.733zm0 8.027h5.733v3.44h-5.733zm-94.024-9.173v4.586h-2.293v-4.586h2.293zm-5.733 0v4.586h-2.293v-4.586h2.293zm5.733 13.759v-4.586h-2.293v4.586h2.293zm-5.733 0v-4.586h-2.293v4.586h2.293zm-142.182-12.613h5.733v3.44h-5.733zm0 8.027h5.733v3.44h-5.733zm61.918-8.027h5.733v3.44H577.9zm0 8.027h5.733v3.44H577.9zm67.651-8.027h5.733v3.44h-5.733zm0 8.027h5.733v3.44h-5.733zm-107.783-8.027h5.733v3.44h-5.733zm0 8.027h5.733v3.44h-5.733z"/><g transform="translate(526.302 177.09)"><mask id="aq" fill="#fff"><use xlink:href="#ao"/></mask><use fill="url(#ap)" fill-rule="nonzero" xlink:href="#ao"/><path fill="#7F7F7F" fill-rule="nonzero" d="M-3.507-3.44l-.315.406L9.565 14.177l.315-.406zm0 2.293l-.315.406L9.565 16.47l.315-.405zm0 2.294l-.315.405L9.565 18.763l.315-.405zm0 2.293l-.315.405L9.565 21.057l.315-.406zm0 2.293l-.315.406L9.565 23.35l.315-.406zm0 2.293l-.315.406L9.565 25.643l.315-.405zm0 2.294l-.315.405L9.565 27.936l.315-.405zm0 2.293l-.315.405L9.565 30.23l.315-.406zm0-18.346l-.315.405L9.565 11.884l.315-.406zm0-2.293l-.315.405L9.565 9.59l.315-.405zm0-2.294l-.315.406L9.565 7.297l.315-.405zm0-2.293l-.315.405L9.565 5.004l.315-.406z" mask="url(#aq)"/></g><path stroke="#636262" stroke-width=".5" d="M526.302 178.238h6.88v13.76h-6.88z"/><path fill="url(#ar)" fill-rule="nonzero" stroke="#636262" stroke-width=".5" d="M486.864 299.78h2.733a3 3 0 013 3v2.733h0-5.733v-5.733z" transform="matrix(1 0 0 -1 -7 605.293)"/><path fill="url(#ar)" fill-rule="nonzero" stroke="#636262" stroke-width=".5" d="M316.3 299.78h2.733a3 3 0 013 3v2.733h0-5.733v-5.733z" transform="rotate(-180 315.667 302.647)"/><path stroke="#B36D49" stroke-linecap="square" stroke-width="1.5" d="M685.11 239.582H508.529"/><g fill-rule="nonzero"><path fill="url(#as)" d="M4 0h48.185a4 4 0 014 4v25.252a4 4 0 01-4 4H4c-2.21 0-4-1.79-4-4V4c0-2.21 1.79-4 4-4z" transform="translate(520.569 245.889)"/><path fill="url(#at)" d="M20.639-11.466h14.906v56.184H20.639z" transform="rotate(90 165.432 399.855)"/></g><path fill="#0F436B" d="M663.897 178.238v4.586h-2.293v-4.586h2.293zm-5.733 0v4.586h-2.293v-4.586h2.293zm5.733 13.759v-4.586h-2.293v4.586h2.293zm-5.733 0v-4.586h-2.293v4.586h2.293zM577.9 179.384h5.733v3.44H577.9zm0 8.027h5.733v3.44H577.9zm67.651-8.027h5.733v3.44h-5.733zm0 8.027h5.733v3.44h-5.733z"/><path fill="url(#au)" d="M602.1 191.137v1.147c-4.35-.485-6.643.28-6.88 2.293-.316 2.683 3.548 3.21 5.22 5.706a6.88 6.88 0 11-12.026 3.472l-.074-.005c.034-2.837.607-5.13 1.72-6.88 1.67-2.624 3.44-5.16 6.307-5.733a14.483 14.483 0 015.733 0z" filter="url(#av)" transform="translate(-7)"/><path fill="url(#au)" d="M602.1 159.032v1.146c-4.35-.484-6.643.28-6.88 2.293-.316 2.683 3.548 3.211 5.22 5.706a6.88 6.88 0 11-12.026 3.472c-.024 0-.049-.003-.074-.005.034-2.837.607-5.13 1.72-6.88 1.67-2.623 3.44-5.16 6.307-5.732a14.446 14.446 0 015.733 0z" filter="url(#aw)" transform="matrix(1 0 0 -1 -7 338.285)"/><path fill="url(#ax)" d="M614.14 160.465a2.867 2.867 0 012.852 2.579h.014v12.9c0 .95.77 1.72 1.72 1.72v1.147a2.867 2.867 0 01-2.851-2.564 1.168 1.168 0 01-.016-.193V163.33a1.72 1.72 0 10-3.44 0c0 .765.383 1.53 1.147 2.294h-3.44c.765-.765 1.147-1.53 1.147-2.294l.005-.168a2.866 2.866 0 012.861-2.698z" filter="url(#ay)" transform="translate(-7)"/><path fill="url(#ax)" d="M614.14 191.424a2.867 2.867 0 012.852 2.579h.014v12.9c0 .95.77 1.72 1.72 1.72v1.147a2.867 2.867 0 01-2.851-2.564 1.168 1.168 0 01-.016-.193V194.29a1.72 1.72 0 10-3.44 0c0 .765.383 1.53 1.147 2.294h-3.44c.765-.765 1.147-1.53 1.147-2.294l.005-.168a2.866 2.866 0 012.861-2.698z" filter="url(#az)" transform="matrix(1 0 0 -1 -7 401.194)"/><path fill="url(#au)" d="M714.47 191.137v1.147c-4.35-.485-6.644.28-6.88 2.293-.316 2.683 3.547 3.21 5.219 5.706a6.88 6.88 0 11-12.025 3.472l-.074-.005c.033-2.837.606-5.13 1.72-6.88 1.67-2.624 3.44-5.16 6.306-5.733a14.483 14.483 0 015.733 0z" transform="translate(-7)"/><path fill="url(#ax)" d="M631.339 191.424a2.866 2.866 0 012.852 2.579h.014v12.9c0 .95.77 1.72 1.72 1.72v1.147c-1.48 0-2.7-1.123-2.85-2.564a1.168 1.168 0 01-.016-.193V194.29a1.72 1.72 0 10-3.44 0c0 .765.382 1.53 1.146 2.294h-3.44c.765-.765 1.147-1.53 1.147-2.294l.005-.168a2.866 2.866 0 012.862-2.698z" filter="url(#aA)" transform="matrix(1 0 0 -1 -7 401.194)"/><path fill="url(#au)" d="M714.47 159.032v1.146c-4.35-.484-6.644.28-6.88 2.293-.316 2.683 3.547 3.211 5.219 5.706a6.88 6.88 0 11-12.025 3.472c-.025 0-.05-.003-.074-.005.033-2.837.606-5.13 1.72-6.88 1.67-2.623 3.44-5.16 6.306-5.732a14.446 14.446 0 015.733 0z" transform="matrix(1 0 0 -1 -7 338.285)"/><path fill="url(#ax)" d="M631.339 160.465a2.866 2.866 0 012.852 2.579h.014v12.9c0 .95.77 1.72 1.72 1.72v1.147c-1.48 0-2.7-1.123-2.85-2.564a1.168 1.168 0 01-.016-.193V163.33a1.72 1.72 0 10-3.44 0c0 .765.382 1.53 1.146 2.294h-3.44c.765-.765 1.147-1.53 1.147-2.294l.005-.168a2.866 2.866 0 012.862-2.698z" filter="url(#aB)" transform="translate(-7)"/><path fill="url(#ax)" d="M726.509 160.465a2.866 2.866 0 012.852 2.579h.014v12.9c0 .95.77 1.72 1.72 1.72v1.147c-1.48 0-2.7-1.123-2.85-2.564a1.168 1.168 0 01-.016-.193V163.33a1.72 1.72 0 10-3.44 0c0 .765.382 1.53 1.146 2.294h-3.44c.765-.765 1.147-1.53 1.147-2.294l.005-.168a2.866 2.866 0 012.862-2.698z" transform="translate(-7)"/><path fill="url(#aC)" d="M662.871 156.452a6.88 6.88 0 110 13.76 6.88 6.88 0 01-6.646-8.664 5.161 5.161 0 00-9.361 2.238c.12.613.488 1.226 1.1 1.839h-3.44c.765-.765 1.148-1.53 1.148-2.294h.104a6.308 6.308 0 0110.921-3.037 6.876 6.876 0 016.174-3.842z" filter="url(#aD)" transform="translate(-7)"/><path fill="url(#aE)" fill-rule="nonzero" stroke="#636262" stroke-width=".5" d="M700.96 146.46v22.277l12.113-3.303v-15.671l-12.113-3.304z" transform="rotate(90 703.516 154.098)"/><path fill="url(#aF)" d="M668.03 200.627c.891 1.16 1.72 5.878 1.72 7.454a6.88 6.88 0 11-13.759 0c0-.436.062-1.106.17-1.873a5.161 5.161 0 00-9.297 2.327c.12.613.488 1.226 1.1 1.839h-3.44c.765-.765 1.148-1.529 1.148-2.293h.104a6.307 6.307 0 0110.629-3.345c.322-1.7.8-3.457 1.306-4.109 1.259-1.62 2.95.574 5.16.574 2.224 0 3.902-2.211 5.16-.574z" filter="url(#aG)" transform="matrix(1 0 0 -1 -7 414.984)"/><path fill="url(#ax)" d="M743.708 160.465a2.868 2.868 0 012.853 2.579h.014v12.9c0 .95.77 1.72 1.72 1.72v1.147a2.867 2.867 0 01-2.851-2.564 1.168 1.168 0 01-.016-.193V163.33a1.72 1.72 0 10-3.44 0c0 .765.382 1.53 1.147 2.294h-3.44c.764-.765 1.147-1.53 1.147-2.294l.005-.168a2.866 2.866 0 012.861-2.698z" transform="translate(-7)"/><path fill="url(#aC)" d="M775.24 156.452a6.88 6.88 0 110 13.76 6.88 6.88 0 01-6.646-8.664 5.16 5.16 0 00-9.36 2.238c.12.613.488 1.226 1.1 1.839h-3.44c.765-.765 1.147-1.53 1.147-2.294h.104a6.31 6.31 0 016.203-5.16 6.29 6.29 0 014.718 2.123 6.879 6.879 0 016.174-3.842z" transform="translate(-7)"/><path fill="url(#aE)" fill-rule="nonzero" stroke="#636262" stroke-width=".5" d="M588.59 146.46v22.277l12.113-3.303v-15.671l-12.113-3.304z" transform="rotate(90 591.147 154.098)"/><g stroke-width=".5"><path fill="url(#al)" fill-rule="nonzero" stroke="#636262" d="M6.88 0h5.733v38.412H6.88c0-6.115-.765-9.173-2.293-9.173H0V10.893h4.587C6.115 10.893 6.88 7.262 6.88 0z" transform="translate(629.499 165.625)"/><path fill="#000" fill-opacity=".04" stroke="#636262" d="M636.379 177.665h5.733v6.88h-5.733z" opacity=".5"/><path fill="#000" fill-opacity=".04" stroke="#636262" d="M636.379 184.544h5.733v6.88h-5.733z" opacity=".5"/><path fill="#000" fill-opacity=".06" stroke="#636262" d="M636.379 173.078h5.733v4.587h-5.733zm0 18.346h5.733v4.587h-5.733z" opacity=".5"/><path fill="#000" fill-opacity=".08" stroke="#636262" d="M636.379 169.638h5.733v3.44h-5.733zm0 26.373h5.733v3.44h-5.733z" opacity=".5"/><path fill="#000" fill-opacity=".104" stroke="#636262" d="M636.379 167.345h5.733v2.293h-5.733z" opacity=".5"/><path fill="#000" fill-opacity=".1" stroke="#636262" d="M636.379 199.451h5.733v2.867h-5.733z" opacity=".7"/><path stroke="url(#am)" stroke-linecap="square" d="M1.147 29.239V10.893m1.146 18.346V10.893M3.44 29.239V10.893" transform="translate(629.499 165.625)"/><path stroke="url(#an)" stroke-linecap="square" d="M4.587 29.239V10.893" transform="translate(629.499 165.625)"/></g><g stroke-width=".5"><path fill="url(#al)" fill-rule="nonzero" stroke="#636262" d="M6.88 0h5.733v38.412H6.88c0-6.115-.765-9.173-2.293-9.173H0V10.893h4.587C6.115 10.893 6.88 7.262 6.88 0z" transform="translate(741.868 165.625)"/><path fill="#000" fill-opacity=".04" stroke="#636262" d="M748.748 177.665h5.733v6.88h-5.733z" opacity=".5"/><path fill="#000" fill-opacity=".04" stroke="#636262" d="M748.748 184.544h5.733v6.88h-5.733z" opacity=".5"/><path fill="#000" fill-opacity=".06" stroke="#636262" d="M748.748 173.078h5.733v4.587h-5.733zm0 18.346h5.733v4.587h-5.733z" opacity=".5"/><path fill="#000" fill-opacity=".08" stroke="#636262" d="M748.748 169.638h5.733v3.44h-5.733zm0 26.373h5.733v3.44h-5.733z" opacity=".5"/><path fill="#000" fill-opacity=".104" stroke="#636262" d="M748.748 167.345h5.733v2.293h-5.733z" opacity=".5"/><path fill="#000" fill-opacity=".1" stroke="#636262" d="M748.748 199.451h5.733v2.867h-5.733z" opacity=".7"/><path stroke="url(#am)" stroke-linecap="square" d="M1.147 29.239V10.893m1.146 18.346V10.893M3.44 29.239V10.893" transform="translate(741.868 165.625)"/><path stroke="url(#an)" stroke-linecap="square" d="M4.587 29.239V10.893" transform="translate(741.868 165.625)"/></g><g stroke-width=".5"><path fill="url(#al)" fill-rule="nonzero" stroke="#636262" d="M6.88 0h5.733v38.412H6.88c0-6.115-.765-9.173-2.293-9.173H0V10.893h4.587C6.115 10.893 6.88 7.262 6.88 0z" transform="translate(612.3 165.625)"/><path fill="#000" fill-opacity=".04" stroke="#636262" d="M619.18 177.665h5.733v6.88h-5.733z" opacity=".5"/><path fill="#000" fill-opacity=".04" stroke="#636262" d="M619.18 184.544h5.733v6.88h-5.733z" opacity=".5"/><path fill="#000" fill-opacity=".06" stroke="#636262" d="M619.18 173.078h5.733v4.587h-5.733zm0 18.346h5.733v4.587h-5.733z" opacity=".5"/><path fill="#000" fill-opacity=".08" stroke="#636262" d="M619.18 169.638h5.733v3.44h-5.733zm0 26.373h5.733v3.44h-5.733z" opacity=".5"/><path fill="#000" fill-opacity=".104" stroke="#636262" d="M619.18 167.345h5.733v2.293h-5.733z" opacity=".5"/><path fill="#000" fill-opacity=".1" stroke="#636262" d="M619.18 199.451h5.733v2.867h-5.733z" opacity=".7"/><path stroke="url(#am)" stroke-linecap="square" d="M1.147 29.239V10.893m1.146 18.346V10.893M3.44 29.239V10.893" transform="translate(612.3 165.625)"/><path stroke="url(#an)" stroke-linecap="square" d="M4.587 29.239V10.893" transform="translate(612.3 165.625)"/></g><g stroke-width=".5"><path fill="url(#al)" fill-rule="nonzero" stroke="#636262" d="M6.88 0h5.733v38.412H6.88c0-6.115-.765-9.173-2.293-9.173H0V10.893h4.587C6.115 10.893 6.88 7.262 6.88 0z" transform="translate(724.669 165.625)"/><path fill="#000" fill-opacity=".04" stroke="#636262" d="M731.549 177.665h5.733v6.88h-5.733z" opacity=".5"/><path fill="#000" fill-opacity=".04" stroke="#636262" d="M731.549 184.544h5.733v6.88h-5.733z" opacity=".5"/><path fill="#000" fill-opacity=".06" stroke="#636262" d="M731.549 173.078h5.733v4.587h-5.733zm0 18.346h5.733v4.587h-5.733z" opacity=".5"/><path fill="#000" fill-opacity=".08" stroke="#636262" d="M731.549 169.638h5.733v3.44h-5.733zm0 26.373h5.733v3.44h-5.733z" opacity=".5"/><path fill="#000" fill-opacity=".104" stroke="#636262" d="M731.549 167.345h5.733v2.293h-5.733z" opacity=".5"/><path fill="#000" fill-opacity=".1" stroke="#636262" d="M731.549 199.451h5.733v2.867h-5.733z" opacity=".7"/><path stroke="url(#am)" stroke-linecap="square" d="M1.147 29.239V10.893m1.146 18.346V10.893M3.44 29.239V10.893" transform="translate(724.669 165.625)"/><path stroke="url(#an)" stroke-linecap="square" d="M4.587 29.239V10.893" transform="translate(724.669 165.625)"/></g><g stroke-width=".5"><path fill="url(#al)" fill-rule="nonzero" stroke="#636262" d="M6.88 0h5.733v38.412H6.88c0-6.115-.765-9.173-2.293-9.173H0V10.893h4.587C6.115 10.893 6.88 7.262 6.88 0z" transform="translate(707.47 165.625)"/><path fill="#000" fill-opacity=".04" stroke="#636262" d="M714.35 177.665h5.733v6.88h-5.733z" opacity=".5"/><path fill="#000" fill-opacity=".04" stroke="#636262" d="M714.35 184.544h5.733v6.88h-5.733z" opacity=".5"/><path fill="#000" fill-opacity=".06" stroke="#636262" d="M714.35 173.078h5.733v4.587h-5.733zm0 18.346h5.733v4.587h-5.733z" opacity=".5"/><path fill="#000" fill-opacity=".08" stroke="#636262" d="M714.35 169.638h5.733v3.44h-5.733zm0 26.373h5.733v3.44h-5.733z" opacity=".5"/><path fill="#000" fill-opacity=".104" stroke="#636262" d="M714.35 167.345h5.733v2.293h-5.733z" opacity=".5"/><path fill="#000" fill-opacity=".1" stroke="#636262" d="M714.35 199.451h5.733v2.867h-5.733z" opacity=".7"/><path stroke="url(#am)" stroke-linecap="square" d="M1.147 29.239V10.893m1.146 18.346V10.893M3.44 29.239V10.893" transform="translate(707.47 165.625)"/><path stroke="url(#an)" stroke-linecap="square" d="M4.587 29.239V10.893" transform="translate(707.47 165.625)"/></g><path fill="url(#ax)" d="M726.509 191.424a2.866 2.866 0 012.852 2.579h.014v12.9c0 .95.77 1.72 1.72 1.72v1.147c-1.48 0-2.7-1.123-2.85-2.564a1.168 1.168 0 01-.016-.193V194.29a1.72 1.72 0 10-3.44 0c0 .765.382 1.53 1.146 2.294h-3.44c.765-.765 1.147-1.53 1.147-2.294l.005-.168a2.866 2.866 0 012.862-2.698zm17.199 0a2.868 2.868 0 012.853 2.579h.014v12.9c0 .95.77 1.72 1.72 1.72v1.147a2.867 2.867 0 01-2.851-2.564 1.168 1.168 0 01-.016-.193V194.29a1.72 1.72 0 10-3.44 0c0 .765.382 1.53 1.147 2.294h-3.44c.764-.765 1.147-1.53 1.147-2.294l.005-.168a2.866 2.866 0 012.861-2.698z" transform="matrix(1 0 0 -1 -7 401.194)"/><path fill="url(#aH)" d="M780.4 200.543c.884 1.157 1.72 6.458 1.72 8.026a6.88 6.88 0 11-13.76 0c0-.424.056-1.102.155-1.893a5.16 5.16 0 00-9.281 2.348c.12.613.487 1.226 1.1 1.839h-3.44c.765-.765 1.147-1.53 1.147-2.294h.104a6.309 6.309 0 0110.589-3.384c.32-1.915.812-3.963 1.347-4.642 1.26-1.599 2.966 1.147 5.16 1.147 2.23 0 3.902-2.793 5.16-1.147z" transform="matrix(1 0 0 -1 -7 415.473)"/><path fill="url(#aI)" d="M43.119 118.613H71.21c1.44.054 2.184.234 2.231.54.247 1.596-1.359 1.36-1.235 2.158.165 1.071.165 3.23 0 6.475l-28.423-.54c.137-3.121.137-5.1 0-5.935-.216-1.322-1.209-1.432-1.236-1.619-.052-.363.138-.723.57-1.08z" opacity=".4" transform="matrix(1 0 0 -1 -7 246.399)"/><g fill-rule="nonzero" transform="translate(-7)"><use fill="#000" filter="url(#aJ)" xlink:href="#aK"/><use fill="url(#aL)" xlink:href="#aK"/></g><g fill-rule="nonzero" transform="translate(-7)"><use fill="#000" filter="url(#aM)" xlink:href="#aN"/><use fill="url(#aO)" xlink:href="#aN"/></g><g fill-rule="nonzero" transform="matrix(1 0 0 -1 -7 452.218)"><use fill="#000" filter="url(#aP)" xlink:href="#aQ"/><use fill="url(#aO)" xlink:href="#aQ"/></g><g fill-rule="nonzero" transform="translate(-7)"><use fill="#000" filter="url(#aR)" xlink:href="#aS"/><use fill="url(#aT)" xlink:href="#aS"/></g><g fill-rule="nonzero" transform="translate(-7)"><use fill="#000" filter="url(#aU)" xlink:href="#aV"/><use fill="url(#aW)" xlink:href="#aV"/></g><g fill-rule="nonzero" transform="translate(-7)"><use fill="#000" filter="url(#aX)" xlink:href="#aY"/><use fill="url(#aZ)" xlink:href="#aY"/></g><g fill-rule="nonzero" transform="translate(-7)"><use fill="#000" filter="url(#ba)" xlink:href="#bb"/><use fill="url(#bc)" xlink:href="#bb"/></g><g fill-rule="nonzero" transform="translate(-7)"><use fill="#000" filter="url(#bd)" xlink:href="#be"/><use fill="url(#bf)" xlink:href="#be"/></g><g fill-rule="nonzero" transform="matrix(1 0 0 -1 -7 453.365)"><use fill="#000" filter="url(#bg)" xlink:href="#bh"/><use fill="url(#aL)" xlink:href="#bh"/></g><g fill-rule="nonzero" transform="matrix(1 0 0 -1 -7 454.512)"><use fill="#000" filter="url(#bi)" xlink:href="#bj"/><use fill="url(#aT)" xlink:href="#bj"/></g><g fill-rule="nonzero" transform="matrix(1 0 0 -1 -7 455.658)"><use fill="#000" filter="url(#bk)" xlink:href="#bl"/><use fill="url(#aW)" xlink:href="#bl"/></g><g fill-rule="nonzero" transform="matrix(1 0 0 -1 -7 456.805)"><use fill="#000" filter="url(#bm)" xlink:href="#bn"/><use fill="url(#aZ)" xlink:href="#bn"/></g><g fill-rule="nonzero" transform="matrix(1 0 0 -1 -7 457.952)"><use fill="#000" filter="url(#bo)" xlink:href="#bp"/><use fill="url(#bq)" xlink:href="#bp"/></g><g fill-rule="nonzero" transform="matrix(1 0 0 -1 -7 459.098)"><use fill="#000" filter="url(#br)" xlink:href="#bs"/><use fill="url(#bt)" xlink:href="#bs"/></g><g fill-rule="nonzero" transform="translate(-7)"><use fill="#000" filter="url(#bu)" xlink:href="#bv"/><use fill="url(#bw)" xlink:href="#bv"/></g><g fill-rule="nonzero" transform="translate(-7)"><use fill="#000" filter="url(#bx)" xlink:href="#by"/><use fill="url(#bz)" xlink:href="#by"/></g><g fill-rule="nonzero" transform="matrix(1 0 0 -1 -7 472.284)"><use fill="#000" filter="url(#bA)" xlink:href="#bB"/><use fill="url(#bz)" xlink:href="#bB"/></g><g fill-rule="nonzero" transform="translate(-7)"><use fill="#000" filter="url(#bC)" xlink:href="#bD"/><use fill="url(#bE)" xlink:href="#bD"/></g><g fill-rule="nonzero" transform="translate(-7)"><use fill="#000" filter="url(#bF)" xlink:href="#bG"/><use fill="url(#bH)" xlink:href="#bG"/></g><g fill-rule="nonzero" transform="matrix(1 0 0 -1 -7 476.871)"><use fill="#000" filter="url(#bI)" xlink:href="#bJ"/><use fill="url(#bK)" xlink:href="#bJ"/></g><g fill-rule="nonzero" transform="matrix(1 0 0 -1 -7 494.644)"><use fill="#000" filter="url(#bL)" xlink:href="#bM"/><use fill="url(#bE)" xlink:href="#bM"/></g><g fill-rule="nonzero" transform="matrix(1 0 0 -1 -7 485.47)"><use fill="#000" filter="url(#bN)" xlink:href="#bO"/><use fill="url(#bH)" xlink:href="#bO"/></g><path stroke="#B36D49" stroke-linecap="square" stroke-width="1.5" d="M548.661 245.315v-21.212m136.449 14.906v-20.066m-112.444 20.066l.187-20.509"/><path fill="url(#aE)" fill-rule="nonzero" stroke="#636262" stroke-width=".5" d="M656.815 207.23v22.278l12.112-3.303v-15.67l-12.112-3.304z" transform="matrix(0 -1 -1 0 874.24 881.24)"/><path fill="url(#aE)" fill-rule="nonzero" stroke="#636262" stroke-width=".5" d="M769.184 207.23v22.278l12.113-3.303v-15.67l-12.113-3.304z" transform="matrix(0 -1 -1 0 986.61 993.61)"/><path fill="url(#bP)" style="mix-blend-mode:darken" d="M0 309h795v80H0z" transform="translate(-7)"/><g transform="translate(31 283)"><path stroke="#FFF" d="M51 0v20H2" opacity=".4"/><circle cx="41.5" cy="20.5" r="4.5" fill="#33A7DF" transform="rotate(-90 41.5 20.5)"/><circle cx="2" cy="20" r="2" fill="#EF3340" transform="rotate(-90 2 20)"/></g><g transform="translate(95 283)"><path stroke="#FFF" d="M20 0v20H0V0h0" opacity=".4"/><circle cx="9.5" cy="20.5" r="4.5" fill="#33A7DF" transform="rotate(-90 9.5 20.5)"/></g><g fill-rule="nonzero" stroke="#636262" stroke-width=".5"><path fill="url(#bQ)" d="M0 16h21v16H0z" transform="matrix(1 0 0 -1 628 329.5)"/><path fill="url(#bR)" d="M18 0h16v16H18z" transform="matrix(0 1 1 0 615 263.5)"/><path fill="url(#c)" d="M18 16h16v5c0 6.075-4.925 11-11 11h-5 0V16z" transform="matrix(-1 0 0 1 649 281.5)"/><path fill="url(#bS)" d="M53.75 16.25h-24.5v15.5h24.5v-15.5z" transform="rotate(90 208.25 472.25)"/></g><g fill-rule="nonzero" stroke="#636262" stroke-width=".5"><path fill="url(#bQ)" d="M0 16h21v16H0z" transform="matrix(1 0 0 -1 740 329.5)"/><path fill="url(#bR)" d="M18 0h16v16H18z" transform="matrix(0 1 1 0 727 263.5)"/><path fill="url(#c)" d="M18 16h16v5c0 6.075-4.925 11-11 11h-5 0V16z" transform="matrix(-1 0 0 1 761 281.5)"/><path fill="url(#bS)" d="M53.75 16.25h-24.5v15.5h24.5v-15.5z" transform="rotate(90 264.25 528.25)"/></g><path stroke="#FFF" stroke-dasharray="2" d="M122 126.704V21m16.012-15h647.485L788 250.5m-.5.51l-191.984-.239.345 77.229m-1 1L122 328.784v-44.44" opacity=".4"/><path fill="#FFF" fill-rule="nonzero" d="M50.625 95v4.564l-2.096-2.096L48 98l3 3 3-3-.529-.529-2.096 2.093V95zM481.625 107v-4.564l-2.096 2.097L479 104l3-3 3 3-.529.529-2.096-2.093V107z" opacity=".5"/><g transform="translate(110)"><path stroke="#FFF" d="M.256 6H27.5" opacity=".5"/><circle cx="12.087" cy="5.815" r="5.095" fill="#33A7DF" transform="rotate(-90 12.087 5.815)"/><circle cx="2.265" cy="5.765" r="2.265" fill="#EF3340" transform="rotate(-90 2.265 5.765)"/><path stroke="#FFF" d="M12 11v10h0" opacity=".5"/></g><path stroke="#FFF" stroke-dasharray="2" d="M137 295v-12.024m0-156.82V63.53M153.504 49H507.3l.556 81.738m.062 136.984L508 292.89m-.902.105L137 294.499" opacity=".4"/><g transform="translate(126 43)"><circle cx="2.265" cy="6.065" r="2.265" fill="#EF3340" transform="rotate(-90 2.265 6.065)"/><path stroke="#FFF" d="M4.5 6h22M11 10v10h0" opacity=".5"/><circle cx="11.69" cy="5.153" r="5.095" fill="#33A7DF" transform="rotate(-90 11.69 5.153)"/></g><path fill="url(#bT)" fill-rule="nonzero" stroke="#636262" stroke-width=".5" d="M685.75 239.25h-44.5v15.5h44.5v-15.5z" transform="rotate(90 660 243.5)"/><g transform="translate(636 259)"><path fill="url(#bU)" fill-rule="nonzero" d="M1 0h38v32H1z"/><mask id="bX" fill="#fff"><use xlink:href="#bV"/></mask><use fill="url(#bW)" fill-rule="nonzero" xlink:href="#bV"/><g stroke="#FFF" stroke-linecap="square" stroke-width=".5" mask="url(#bX)" opacity=".603"><path d="M-256 88l427.5-428.5M-256 91l427.5-428.5M-256 94l427.5-428.5M-256 97l427.5-428.5M-256 100l427.5-428.5M-256 103l427.5-428.5M-256 106l427.5-428.5M-256 109l427.5-428.5M-256 112l427.5-428.5M-256 115l427.5-428.5M-256 118l427.5-428.5M-256 121l427.5-428.5M-256 124l427.5-428.5M-256 127l427.5-428.5M-256 130l427.5-428.5M-256 133l427.5-428.5M-256 136l427.5-428.5M-256 139l427.5-428.5M-256 142l427.5-428.5M-256 145l427.5-428.5M-256 148l427.5-428.5M-256 151l427.5-428.5M-256 154l427.5-428.5M-256 157l427.5-428.5M-256 160l427.5-428.5M-256 163l427.5-428.5M-256 166l427.5-428.5M-256 169l427.5-428.5M-256 172l427.5-428.5M-256 175l427.5-428.5M-256 178l427.5-428.5M-256 181l427.5-428.5M-256 184l427.5-428.5M-256 187l427.5-428.5M-256 190l427.5-428.5M-256 193l427.5-428.5M-256 196l427.5-428.5M-256 199l427.5-428.5M-256 202l427.5-428.5M-256 205l427.5-428.5M-256 208l427.5-428.5M-256 211l427.5-428.5M-256 214l427.5-428.5M-256 217l427.5-428.5M-256 220l427.5-428.5M-256 223l427.5-428.5M-256 226l427.5-428.5M-256 229l427.5-428.5M-256 232l427.5-428.5M-256 235l427.5-428.5M-256 238l427.5-428.5M-256 241l427.5-428.5M-256 244l427.5-428.5M-256 247l427.5-428.5M-256 250l427.5-428.5M-256 253l427.5-428.5M-256 256l427.5-428.5M-256 259l427.5-428.5M-256 262l427.5-428.5M-256 265l427.5-428.5M-256 268l427.5-428.5M-256 271l427.5-428.5M-256 274l427.5-428.5M-256 277l427.5-428.5M-256 280l427.5-428.5M-256 283l427.5-428.5M-256 286l427.5-428.5M-256 289l427.5-428.5M-256 292l427.5-428.5M-256 295l427.5-428.5M-256 298l427.5-428.5M-256 301l427.5-428.5M-256 304l427.5-428.5M-256 307l427.5-428.5M-256 310l427.5-428.5M-256 313l427.5-428.5M-256 316l427.5-428.5M-256 319l427.5-428.5M-256 322l427.5-428.5M-256 325l427.5-428.5M-256 328l427.5-428.5M-256 331L171.5-97.5M-256 334L171.5-94.5M-256 337L171.5-91.5M-256 340L171.5-88.5M-256 343L171.5-85.5M-256 346L171.5-82.5M-256 349L171.5-79.5M-256 352L171.5-76.5M-256 355L171.5-73.5M-256 358L171.5-70.5M-256 361L171.5-67.5M-256 364L171.5-64.5M-256 367L171.5-61.5M-256 370L171.5-58.5M-256 373L171.5-55.5M-256 376L171.5-52.5M-256 379L171.5-49.5M-256 382L171.5-46.5M-256 385L171.5-43.5M-256 388L171.5-40.5M-256 391L171.5-37.5M-256 394L171.5-34.5M-256 397L171.5-31.5M-256 400L171.5-28.5M-256 403L171.5-25.5M-256 406L171.5-22.5M-256 409L171.5-19.5M-256 412L171.5-16.5M-256 415L171.5-13.5M-256 418L171.5-10.5M-256 421L171.5-7.5M-256 424L171.5-4.5M-256 427L171.5-1.5M-256 430L171.5 1.5M-256 433L171.5 4.5M-256 436L171.5 7.5M-256 439L171.5 10.5M-256 442L171.5 13.5M-256 445L171.5 16.5M-256 448L171.5 19.5M-256 451L171.5 22.5M-256 454L171.5 25.5M-256 457L171.5 28.5M-256 460L171.5 31.5M-256 463L171.5 34.5M-256 466L171.5 37.5M-256 469L171.5 40.5M-256 472L171.5 43.5M-256 475L171.5 46.5M-256 478L171.5 49.5M-256 481L171.5 52.5M-256 484L171.5 55.5M-256 487L171.5 58.5M-256 490L171.5 61.5M-256 493L171.5 64.5M-256 496L171.5 67.5M-256 499L171.5 70.5M-256 502L171.5 73.5M-256 505L171.5 76.5M-256 508L171.5 79.5M-256 511L171.5 82.5M-256 514L171.5 85.5M-256 517L171.5 88.5" opacity=".148"/></g><path fill="url(#bY)" fill-rule="nonzero" d="M40 0v34H0V0h40zM2 2v30h36V2H2z"/><path d="M7.958 16.318H4.726l1.485-1.485-.378-.375-2.125 2.125 2.125 2.125.375-.374-1.482-1.485h3.232zm29.042 0h-3.233l1.485-1.485-.377-.375-2.125 2.125 2.125 2.125.375-.374-1.483-1.485H37z" fill="#FFF" fill-rule="nonzero" opacity=".5"/></g><path fill="url(#bT)" fill-rule="nonzero" stroke="#636262" stroke-width=".5" d="M797.75 239.25h-44.5v15.5h44.5v-15.5z" transform="rotate(90 772 243.5)"/><g transform="translate(748 259)"><path fill="url(#bU)" fill-rule="nonzero" d="M1 0h38v32H1z"/><mask id="ca" fill="#fff"><use xlink:href="#bZ"/></mask><use fill="url(#bW)" fill-rule="nonzero" xlink:href="#bZ"/><g stroke="#FFF" stroke-linecap="square" stroke-width=".5" mask="url(#ca)" opacity=".603"><path d="M-256 88l427.5-428.5M-256 91l427.5-428.5M-256 94l427.5-428.5M-256 97l427.5-428.5M-256 100l427.5-428.5M-256 103l427.5-428.5M-256 106l427.5-428.5M-256 109l427.5-428.5M-256 112l427.5-428.5M-256 115l427.5-428.5M-256 118l427.5-428.5M-256 121l427.5-428.5M-256 124l427.5-428.5M-256 127l427.5-428.5M-256 130l427.5-428.5M-256 133l427.5-428.5M-256 136l427.5-428.5M-256 139l427.5-428.5M-256 142l427.5-428.5M-256 145l427.5-428.5M-256 148l427.5-428.5M-256 151l427.5-428.5M-256 154l427.5-428.5M-256 157l427.5-428.5M-256 160l427.5-428.5M-256 163l427.5-428.5M-256 166l427.5-428.5M-256 169l427.5-428.5M-256 172l427.5-428.5M-256 175l427.5-428.5M-256 178l427.5-428.5M-256 181l427.5-428.5M-256 184l427.5-428.5M-256 187l427.5-428.5M-256 190l427.5-428.5M-256 193l427.5-428.5M-256 196l427.5-428.5M-256 199l427.5-428.5M-256 202l427.5-428.5M-256 205l427.5-428.5M-256 208l427.5-428.5M-256 211l427.5-428.5M-256 214l427.5-428.5M-256 217l427.5-428.5M-256 220l427.5-428.5M-256 223l427.5-428.5M-256 226l427.5-428.5M-256 229l427.5-428.5M-256 232l427.5-428.5M-256 235l427.5-428.5M-256 238l427.5-428.5M-256 241l427.5-428.5M-256 244l427.5-428.5M-256 247l427.5-428.5M-256 250l427.5-428.5M-256 253l427.5-428.5M-256 256l427.5-428.5M-256 259l427.5-428.5M-256 262l427.5-428.5M-256 265l427.5-428.5M-256 268l427.5-428.5M-256 271l427.5-428.5M-256 274l427.5-428.5M-256 277l427.5-428.5M-256 280l427.5-428.5M-256 283l427.5-428.5M-256 286l427.5-428.5M-256 289l427.5-428.5M-256 292l427.5-428.5M-256 295l427.5-428.5M-256 298l427.5-428.5M-256 301l427.5-428.5M-256 304l427.5-428.5M-256 307l427.5-428.5M-256 310l427.5-428.5M-256 313l427.5-428.5M-256 316l427.5-428.5M-256 319l427.5-428.5M-256 322l427.5-428.5M-256 325l427.5-428.5M-256 328l427.5-428.5M-256 331L171.5-97.5M-256 334L171.5-94.5M-256 337L171.5-91.5M-256 340L171.5-88.5M-256 343L171.5-85.5M-256 346L171.5-82.5M-256 349L171.5-79.5M-256 352L171.5-76.5M-256 355L171.5-73.5M-256 358L171.5-70.5M-256 361L171.5-67.5M-256 364L171.5-64.5M-256 367L171.5-61.5M-256 370L171.5-58.5M-256 373L171.5-55.5M-256 376L171.5-52.5M-256 379L171.5-49.5M-256 382L171.5-46.5M-256 385L171.5-43.5M-256 388L171.5-40.5M-256 391L171.5-37.5M-256 394L171.5-34.5M-256 397L171.5-31.5M-256 400L171.5-28.5M-256 403L171.5-25.5M-256 406L171.5-22.5M-256 409L171.5-19.5M-256 412L171.5-16.5M-256 415L171.5-13.5M-256 418L171.5-10.5M-256 421L171.5-7.5M-256 424L171.5-4.5M-256 427L171.5-1.5M-256 430L171.5 1.5M-256 433L171.5 4.5M-256 436L171.5 7.5M-256 439L171.5 10.5M-256 442L171.5 13.5M-256 445L171.5 16.5M-256 448L171.5 19.5M-256 451L171.5 22.5M-256 454L171.5 25.5M-256 457L171.5 28.5M-256 460L171.5 31.5M-256 463L171.5 34.5M-256 466L171.5 37.5M-256 469L171.5 40.5M-256 472L171.5 43.5M-256 475L171.5 46.5M-256 478L171.5 49.5M-256 481L171.5 52.5M-256 484L171.5 55.5M-256 487L171.5 58.5M-256 490L171.5 61.5M-256 493L171.5 64.5M-256 496L171.5 67.5M-256 499L171.5 70.5M-256 502L171.5 73.5M-256 505L171.5 76.5M-256 508L171.5 79.5M-256 511L171.5 82.5M-256 514L171.5 85.5M-256 517L171.5 88.5" opacity=".148"/></g><path fill="url(#bY)" fill-rule="nonzero" d="M40 0v34H0V0h40zM2 2v30h36V2H2z"/></g><path d="M755.958 276.318h-3.232l1.485-1.485-.378-.375-2.125 2.125 2.125 2.125.375-.374-1.482-1.485h3.232zm29.042 0h-3.233l1.485-1.485-.377-.375-2.125 2.125 2.125 2.125.375-.374-1.483-1.485H785z" fill="#FFF" fill-rule="nonzero" opacity=".5"/></g></svg>