<svg xmlns="http://www.w3.org/2000/svg" width="33" height="32" viewBox="0 0 33 32">
    <defs>
        <linearGradient id="prefix__a" x1="0%" x2="100%" y1="0%" y2="0%">
            <stop offset="0%" stop-color="#0B6D2D"/>
            <stop offset="49.556%" stop-color="#80EAA5"/>
            <stop offset="100%" stop-color="#0B6D2D"/>
        </linearGradient>
        <linearGradient id="prefix__b" x1="50.034%" x2="50.034%" y1="99.984%" y2="-.004%">
            <stop offset="0%" stop-color="#8B878D"/>
            <stop offset="13.66%" stop-color="#9F9CA1"/>
            <stop offset="42.07%" stop-color="#D9D8DA"/>
            <stop offset="51.52%" stop-color="#F3F4F4"/>
            <stop offset="100%" stop-color="#807B80"/>
        </linearGradient>
        <linearGradient id="prefix__c" x1="0%" x2="100%" y1="0%" y2="0%">
            <stop offset="0%" stop-color="#0B6D2D"/>
            <stop offset="49.556%" stop-color="#80EAA5"/>
            <stop offset="100%" stop-color="#0B6D2D"/>
        </linearGradient>
    </defs>
    <g fill="none" fill-rule="evenodd">
        <g transform="translate(12.5)">
            <path fill="url(#prefix__a)" d="M1.869 0H18.13c.553 0 1 .448 1 1 0 .197-.058.39-.167.555L10 15 1.036 1.555C.73 1.095.854.475 1.314.168 1.478.058 1.67 0 1.869 0z"/>
            <path fill="url(#prefix__a)" d="M1.869 17H18.13c.553 0 1 .448 1 1 0 .197-.058.39-.167.555L10 32 1.036 18.555c-.306-.46-.182-1.08.278-1.387.164-.11.357-.168.555-.168z" transform="matrix(1 0 0 -1 0 49)"/>
            <circle cx="10" cy="16" r="2" fill="url(#prefix__b)" fill-rule="nonzero" stroke="#7F7F7F" stroke-width=".5"/>
        </g>
        <g>
            <path fill="#FFF" stroke="#9FA9B5" d="M5 6.5H17V7.5H5z" transform="matrix(0 -1 -1 0 20 27) rotate(-90 11 6.5)"/>
            <path fill="url(#prefix__c)" d="M0 9.5h22c0 5.523-4.477 10-10 10h-2c-5.523 0-10-4.477-10-10z" transform="matrix(0 -1 -1 0 20 27)"/>
        </g>
    </g>
</svg>
