<svg xmlns="http://www.w3.org/2000/svg" width="10" height="17" viewBox="0 0 10 17">
    <defs>
        <linearGradient id="prefix__a" x1="20.139%" x2="90.478%" y1="9.891%" y2="80.117%">
            <stop offset="0%" stop-color="#8B878D"/>
            <stop offset="51.52%" stop-color="#F3F4F4"/>
            <stop offset="100%" stop-color="#807B80"/>
        </linearGradient>
        <linearGradient id="prefix__b" x1="20.059%" x2="90.588%" y1="9.891%" y2="80.117%">
            <stop offset="0%" stop-color="#8B878D"/>
            <stop offset="51.52%" stop-color="#F3F4F4"/>
            <stop offset="100%" stop-color="#807B80"/>
        </linearGradient>
    </defs>
    <g fill="none" fill-rule="evenodd">
        <path stroke="#9EA1A4" d="M4.904 11.769L4.904 14.712"/>
        <path fill="url(#prefix__a)" fill-rule="nonzero" d="M3.996 9.832l3.443 3.442c.195.196.195.512 0 .708-.065.064-.146.11-.234.131L2.643 15.24c-.268.066-.54-.097-.606-.365-.019-.079-.019-.16 0-.24l1.12-4.568c.066-.268.336-.432.605-.366.088.021.17.067.234.132z" transform="rotate(135 4.953 12.32)"/>
        <path stroke="#9EA1A4" d="M4.904 2.288L4.904 4.25"/>
        <path fill="url(#prefix__b)" fill-rule="nonzero" d="M3.828 2.143l3.375 3.375c.195.195.195.512 0 .707-.07.07-.16.118-.259.137l-4.185.811c-.271.053-.534-.125-.586-.396-.012-.063-.012-.127 0-.19l.81-4.186c.053-.27.315-.448.587-.395.098.019.188.066.258.137z" transform="scale(-1 1) rotate(-45 0 16.346)"/>
    </g>
</svg>
