<svg xmlns="http://www.w3.org/2000/svg" width="14" height="24"><defs><linearGradient id="a" x1=".04%" x2="100.028%" y1="49.99%" y2="49.99%"><stop offset="0%" stop-color="#8B878D"/><stop offset="13.66%" stop-color="#9F9CA1"/><stop offset="42.07%" stop-color="#D9D8DA"/><stop offset="51.52%" stop-color="#F3F4F4"/><stop offset="100%" stop-color="#807B80"/></linearGradient><linearGradient id="b" x1="50.034%" x2="50.034%" y1="99.984%" y2="-.004%"><stop offset="0%" stop-color="#8B878D"/><stop offset="13.66%" stop-color="#9F9CA1"/><stop offset="42.07%" stop-color="#D9D8DA"/><stop offset="51.52%" stop-color="#F3F4F4"/><stop offset="100%" stop-color="#807B80"/></linearGradient></defs><g fill="none" stroke-width=".5"><path fill="url(#a)" stroke="#636262" d="M12.108.25L1.47.38a.748.748 0 00-.198 1.043L7 9.823 12.858 1a.745.745 0 00-.22-.53.747.747 0 00-.53-.22z"/><path fill="url(#a)" stroke="#636262" d="M12.108 13.317l-10.638.13a.748.748 0 00-.198 1.042L7 22.89l5.858-8.822a.745.745 0 00-.22-.53.747.747 0 00-.53-.22z" transform="matrix(1 0 0 -1 0 36.4)"/><circle cx="7" cy="11.667" r="3.733" fill="url(#b)" stroke="#7F7F7F"/></g></svg>