<svg xmlns="http://www.w3.org/2000/svg" width="32" height="33" viewBox="0 0 32 33">
    <defs>
        <linearGradient id="prefix__a" x1=".04%" x2="100.028%" y1="49.99%" y2="49.99%">
            <stop offset="0%" stop-color="#8B878D"/>
            <stop offset="13.66%" stop-color="#9F9CA1"/>
            <stop offset="42.07%" stop-color="#D9D8DA"/>
            <stop offset="51.52%" stop-color="#F3F4F4"/>
            <stop offset="100%" stop-color="#807B80"/>
        </linearGradient>
        <linearGradient id="prefix__b" x1="50.034%" x2="50.034%" y1="99.984%" y2="-.004%">
            <stop offset="0%" stop-color="#8B878D"/>
            <stop offset="13.66%" stop-color="#9F9CA1"/>
            <stop offset="42.07%" stop-color="#D9D8DA"/>
            <stop offset="51.52%" stop-color="#F3F4F4"/>
            <stop offset="100%" stop-color="#807B80"/>
        </linearGradient>
        <linearGradient id="prefix__c" x1=".04%" x2="100.028%" y1="49.99%" y2="49.99%">
            <stop offset="0%" stop-color="#8B878D"/>
            <stop offset="13.66%" stop-color="#9F9CA1"/>
            <stop offset="42.07%" stop-color="#D9D8DA"/>
            <stop offset="51.52%" stop-color="#F3F4F4"/>
            <stop offset="100%" stop-color="#807B80"/>
        </linearGradient>
    </defs>
    <g fill="none" fill-rule="evenodd">
        <g fill-rule="nonzero" stroke-width=".5" transform="matrix(1 0 0 -1 0 33) rotate(90 16 16)">
            <path fill="url(#prefix__a)" stroke="#636262" d="M18.131.25L1.452.376c-.172.115-.281.289-.319.477-.038.188-.003.39.111.563L10 14.549 18.881 1c0-.207-.083-.395-.22-.53-.135-.136-.322-.22-.53-.22z"/>
            <path fill="url(#prefix__a)" stroke="#636262" d="M18.131 17.25l-16.679.126c-.172.115-.281.289-.319.477-.038.188-.003.39.111.563L10 31.549 18.881 18c0-.207-.083-.395-.22-.53-.135-.136-.322-.22-.53-.22z" transform="matrix(1 0 0 -1 0 49)"/>
            <circle cx="10" cy="16" r="2" fill="url(#prefix__b)" stroke="#7F7F7F"/>
        </g>
        <g>
            <path fill="#FFF" stroke="#9FA9B5" d="M5 6.5H17V7.5H5z" transform="matrix(1 0 0 -1 0 33) translate(5 12.5) rotate(-90 11 6.5)"/>
            <path fill="url(#prefix__c)" fill-rule="nonzero" stroke="#636262" stroke-width=".5" d="M0.25 9.75H21.75V19.25H0.25z" transform="matrix(1 0 0 -1 0 33) translate(5 12.5)"/>
        </g>
    </g>
</svg>
