<svg xmlns="http://www.w3.org/2000/svg" width="33" height="32" viewBox="0 0 33 32">
    <defs>
        <linearGradient id="prefix__a" x1=".04%" x2="100.028%" y1="49.99%" y2="49.99%">
            <stop offset="0%" stop-color="#8B878D"/>
            <stop offset="13.66%" stop-color="#9F9CA1"/>
            <stop offset="42.07%" stop-color="#D9D8DA"/>
            <stop offset="51.52%" stop-color="#F3F4F4"/>
            <stop offset="100%" stop-color="#807B80"/>
        </linearGradient>
        <linearGradient id="prefix__b" x1="50.034%" x2="50.034%" y1="99.984%" y2="-.004%">
            <stop offset="0%" stop-color="#8B878D"/>
            <stop offset="13.66%" stop-color="#9F9CA1"/>
            <stop offset="42.07%" stop-color="#D9D8DA"/>
            <stop offset="51.52%" stop-color="#F3F4F4"/>
            <stop offset="100%" stop-color="#807B80"/>
        </linearGradient>
        <linearGradient id="prefix__c" x1=".04%" x2="100.028%" y1="49.99%" y2="49.99%">
            <stop offset="0%" stop-color="#8B878D"/>
            <stop offset="13.66%" stop-color="#9F9CA1"/>
            <stop offset="42.07%" stop-color="#D9D8DA"/>
            <stop offset="51.52%" stop-color="#F3F4F4"/>
            <stop offset="100%" stop-color="#807B80"/>
        </linearGradient>
    </defs>
    <g fill="none" fill-rule="evenodd">
        <g fill-rule="nonzero" stroke-width=".5" transform="translate(12.5)">
            <path fill="url(#prefix__a)" stroke="#636262" d="M18.131.25L1.452.376c-.172.115-.281.289-.319.477-.038.188-.003.39.111.563L10 14.549 18.881 1c0-.207-.083-.395-.22-.53-.135-.136-.322-.22-.53-.22z"/>
            <path fill="url(#prefix__a)" stroke="#636262" d="M18.131 17.25l-16.679.126c-.172.115-.281.289-.319.477-.038.188-.003.39.111.563L10 31.549 18.881 18c0-.207-.083-.395-.22-.53-.135-.136-.322-.22-.53-.22z" transform="matrix(1 0 0 -1 0 49)"/>
            <circle cx="10" cy="16" r="2" fill="url(#prefix__b)" stroke="#7F7F7F"/>
        </g>
        <g>
            <path fill="#FFF" stroke="#9FA9B5" d="M5 6.5H17V7.5H5z" transform="matrix(0 -1 -1 0 20 27) rotate(-90 11 6.5)"/>
            <path fill="url(#prefix__c)" fill-rule="nonzero" stroke="#636262" stroke-width=".5" d="M21.747 9.75H.253c.065 2.593 1.143 4.935 2.853 6.644C4.87 18.16 7.308 19.25 10 19.25h2c2.692 0 5.13-1.091 6.894-2.856 1.71-1.71 2.788-4.05 2.853-6.644z" transform="matrix(0 -1 -1 0 20 27)"/>
        </g>
    </g>
</svg>
