<svg width="11" height="17" xmlns="http://www.w3.org/2000/svg"><defs><linearGradient x1="20.392%" y1="8.867%" x2="90.604%" y2="79.738%" id="a"><stop stop-color="#0B6D2D" offset="0%"/><stop stop-color="#80EAA5" offset="49.556%"/><stop stop-color="#0B6D2D" offset="100%"/></linearGradient><linearGradient x1="20.312%" y1="8.867%" x2="90.714%" y2="79.738%" id="b"><stop stop-color="#0B6D2D" offset="0%"/><stop stop-color="#80EAA5" offset="49.556%"/><stop stop-color="#0B6D2D" offset="100%"/></linearGradient></defs><g fill="none" fill-rule="evenodd"><path d="M4.964 14.445l5.93 5.929a.5.5 0 01-.234.839l-7.858 1.94a.5.5 0 01-.605-.605l1.928-7.869a.5.5 0 01.84-.234z" fill="url(#a)" transform="rotate(135 6.942 16.023)"/><path d="M4.687 2.665l5.866 5.866a.5.5 0 01-.258.845l-7.276 1.41a.5.5 0 01-.586-.587l1.41-7.275a.5.5 0 01.844-.259z" fill="url(#b)" transform="scale(-1 1) rotate(-45 -4.682 18.712)"/></g></svg>