<svg width="10" height="16" xmlns="http://www.w3.org/2000/svg"><defs><linearGradient x1="20.139%" y1="9.891%" x2="90.478%" y2="80.117%" id="a"><stop stop-color="#8B878D" offset="0%"/><stop stop-color="#F3F4F4" offset="51.52%"/><stop stop-color="#807B80" offset="100%"/></linearGradient><linearGradient x1="20.059%" y1="9.891%" x2="90.588%" y2="80.117%" id="b"><stop stop-color="#8B878D" offset="0%"/><stop stop-color="#F3F4F4" offset="51.52%"/><stop stop-color="#807B80" offset="100%"/></linearGradient></defs><g fill-rule="nonzero" fill="none"><path d="M4.964 14.445l5.93 5.929a.5.5 0 01-.234.839l-7.858 1.94a.5.5 0 01-.605-.605l1.928-7.869a.5.5 0 01.84-.234z" fill="url(#a)" transform="rotate(135 6.984 15.923)"/><path d="M4.687 2.665l5.866 5.866a.5.5 0 01-.258.845l-7.276 1.41a.5.5 0 01-.586-.587l1.41-7.275a.5.5 0 01.844-.259z" fill="url(#b)" transform="scale(-1 1) rotate(-45 -4.923 18.612)"/></g></svg>