<svg width="92" height="85" xmlns="http://www.w3.org/2000/svg" xmlns:xlink="http://www.w3.org/1999/xlink"><defs><linearGradient x1="50.034%" y1="95.321%" x2="50.034%" y2="6.831%" id="c"><stop stop-color="#383F48" offset="0%"/><stop stop-color="#9FA4A8" offset="46.806%"/><stop stop-color="#3D434B" offset="100%"/></linearGradient><linearGradient x1="50%" y1="0%" x2="50%" y2="100%" id="y"><stop stop-color="#BDD3EB" offset="0%"/><stop stop-color="#93C5DE" offset="100%"/></linearGradient><linearGradient x1="0%" y1="45.675%" x2="100%" y2="56.707%" id="i"><stop stop-color="#5E5D5E" offset="0%"/><stop stop-color="#BEBEBE" offset="47.838%"/><stop stop-color="#5E5D5E" offset="100%"/></linearGradient><linearGradient x1="50%" y1="0%" x2="50%" y2="100%" id="x"><stop stop-color="#636262" stop-opacity=".401" offset="0%"/><stop stop-color="#636262" offset="46.746%"/><stop stop-color="#636262" stop-opacity=".4" offset="100%"/></linearGradient><linearGradient x1="0%" y1="45.675%" x2="100%" y2="54.325%" id="l"><stop stop-color="#5E5D5E" offset="0%"/><stop stop-color="#BEBEBE" offset="47.838%"/><stop stop-color="#5E5D5E" offset="100%"/></linearGradient><linearGradient x1="50%" y1="0%" x2="50%" y2="100%" id="w"><stop stop-color="#636262" stop-opacity=".4" offset="0%"/><stop stop-color="#636262" offset="46.746%"/><stop stop-color="#636262" stop-opacity=".4" offset="100%"/></linearGradient><linearGradient x1=".453%" y1="50.403%" x2="99.615%" y2="50.403%" id="o"><stop stop-color="#AFACB1" offset="0%"/><stop stop-color="#BAB9BC" offset="28.499%"/><stop stop-color="#D9D8DA" offset="42.07%"/><stop stop-color="#F3F4F4" offset="58.437%"/><stop stop-color="#958F95" offset="100%"/></linearGradient><linearGradient x1="50.034%" y1="114.901%" x2="50.034%" y2="-16.677%" id="e"><stop stop-color="#363D43" offset="0%"/><stop stop-color="#82888D" offset="52.238%"/><stop stop-color="#363D43" offset="100%"/></linearGradient><linearGradient x1="50.034%" y1="99.984%" x2="50.034%" y2="-.004%" id="v"><stop stop-color="#8B878D" offset="0%"/><stop stop-color="#9F9CA1" offset="13.66%"/><stop stop-color="#D9D8DA" offset="42.07%"/><stop stop-color="#F3F4F4" offset="51.52%"/><stop stop-color="#807B80" offset="100%"/></linearGradient><linearGradient x1="50.034%" y1="99.984%" x2="50.034%" y2="-.004%" id="p"><stop stop-color="#8B878D" offset="0%"/><stop stop-color="#9F9CA1" offset="13.66%"/><stop stop-color="#D9D8DA" offset="42.07%"/><stop stop-color="#F3F4F4" offset="51.52%"/><stop stop-color="#807B80" offset="100%"/></linearGradient><linearGradient x1="50.034%" y1="99.984%" x2="50.034%" y2="-.004%" id="q"><stop stop-color="#8B878D" offset="0%"/><stop stop-color="#9F9CA1" offset="13.66%"/><stop stop-color="#D9D8DA" offset="42.07%"/><stop stop-color="#F3F4F4" offset="51.52%"/><stop stop-color="#807B80" offset="100%"/></linearGradient><linearGradient x1="50%" y1="0%" x2="50%" y2="100%" id="r"><stop stop-color="#BDD3EB" offset="0%"/><stop stop-color="#93C5DE" offset="100%"/></linearGradient><linearGradient x1="50%" y1="0%" x2="50%" y2="100%" id="s"><stop stop-color="#BDD3EB" offset="0%"/><stop stop-color="#93C5DE" offset="100%"/></linearGradient><linearGradient x1="50.034%" y1="99.984%" x2="50.034%" y2="-.004%" id="t"><stop stop-color="#8B878D" offset="0%"/><stop stop-color="#9F9CA1" offset="13.66%"/><stop stop-color="#D9D8DA" offset="42.07%"/><stop stop-color="#F3F4F4" offset="51.52%"/><stop stop-color="#807B80" offset="100%"/></linearGradient><linearGradient x1="50%" y1="0%" x2="50%" y2="100%" id="u"><stop stop-color="#BDD3EB" offset="0%"/><stop stop-color="#93C5DE" offset="100%"/></linearGradient><path id="a" d="M0 0h92v130H0z"/><path d="M520.85 60.5a2.5 2.5 0 012.466 2.087l.022.163h.012V74h-1V63a1.5 1.5 0 00-2.973-.285l-.02.14-.007.145c0 .611.28 1.222.84 1.833l.16.167h1v13h-11v-3.5h4c1.222 0 1.884-2.658 1.986-7.974l.006-.376.008-1.15h1c.55-.55.873-1.1.97-1.65l.023-.183.012-.331a2.5 2.5 0 012.495-2.336zm-15 0a2.5 2.5 0 012.466 2.087l.022.163h.012V74a1.5 1.5 0 001.215 1.473l.14.02.145.007v.5h-1.499l-.12-.096a2.5 2.5 0 01-.804-1.286l-.041-.194-.032-.242-.004-.087V63a1.5 1.5 0 00-2.973-.285l-.02.14-.007.145c0 .611.28 1.222.84 1.833l.16.167h1v13h-11v-3.5h4c1.222 0 1.884-2.658 1.986-7.974l.006-.376.008-1.15h1c.55-.55.873-1.1.97-1.65l.023-.183.012-.331a2.5 2.5 0 012.495-2.336zm33-2a5.5 5.5 0 011.578.23l.41 1.232a4.5 4.5 0 00-6.448 3.434c.094.475.357.95.79 1.426l.17.178h1v12.999h3V77h5v.999h4V76h2v.337a3.486 3.486 0 011.5-.337c.46 0 .9.089 1.303.25l.198.087V76h2v1.999l5 .001h-34v-3.5h3c1.22 0 1.883-2.658 1.985-7.974l.006-.376.008-1.15h1c.611-.611.942-1.222.993-1.833l.007-.167h.09a5.502 5.502 0 015.41-4.5zm21.5-5.5v23h-3l-.007-.145a1.5 1.5 0 00-1.348-1.348l-.144-.007h-6.379a100 100 0 00-4.991.125l-1.247.07-.884.055a3.765 3.765 0 01-3.995-3.564l-.005-.194v-6.2c0-.99-.802-1.792-1.793-1.792a2.504 2.504 0 013.85-.956 8 8 0 102.58-4.98l-.223.208-.205.208a7.505 7.505 0 00-10.474 3.277l-.11.24L531.35 63l-.15.005a2 2 0 00-1.844 1.838l-.006.157-.005.888c-.028 2.594-.183 4.547-.452 5.825-.055.26-.112.481-.168.66l-.042.127h-3.333l-.6-11.746a4.5 4.5 0 00-8.371 1.739l-.02.213-.008.23-.006.064h-1.995v2l-.005.888c-.028 2.594-.183 4.547-.452 5.825-.055.26-.112.481-.168.66l-.042.127h-3.333l-.6-11.746a4.5 4.5 0 00-8.371 1.739l-.02.213-.008.23-.006.064-.15.005a1.995 1.995 0 00-1.839 1.833l-.006.156V65l-.005.888c-.026 2.45.002 3.94.005 5.362v.25l-.007.144a1.5 1.5 0 01-1.348 1.35l-.145.006h-2.438a1.61 1.61 0 00-1.591 1.856l.03.144h-2.05c-.424.009-.503.095-.058-1.595l.107-.405c.581-2.181 2.955-1.91 4.5-5 1-2 1.07-5.24-1-8-1.5-2-4-2.5-6-2.5s-7.517 1.712-7.5 7c.017 5.168 1.92 10.06 2.931 11.412l.07.088h-9.5V53h85zm-12 4a6 6 0 11-5.796 4.445 4.516 4.516 0 00-1.258-1.223l1.554.778 2-1v-1.5l-.262-.174A5.974 5.974 0 01548.35 57z" id="k"/><path d="M520.85 27.5a2.5 2.5 0 012.466 2.087l.022.163h.012V41h-1V30a1.5 1.5 0 00-2.973-.285l-.02.14-.007.145c0 .611.28 1.222.84 1.833l.16.167h1v13h-11v-3.5h4c1.222 0 1.884-2.658 1.986-7.974l.006-.376.008-1.15h1c.55-.55.873-1.1.97-1.65l.023-.183.012-.331a2.5 2.5 0 012.495-2.336zm-15 0a2.5 2.5 0 012.466 2.087l.022.163h.012V41a1.5 1.5 0 001.215 1.473l.14.02.145.007v.5h-1.499l-.12-.096a2.5 2.5 0 01-.804-1.286l-.041-.194-.032-.242-.004-.087V30a1.5 1.5 0 00-2.973-.285l-.02.14-.007.145c0 .611.28 1.222.84 1.833l.16.167h1v13h-11v-3.5h4c1.222 0 1.884-2.658 1.986-7.974l.006-.376.008-1.15h1c.55-.55.873-1.1.97-1.65l.023-.183.012-.331a2.5 2.5 0 012.495-2.336zm33-2a5.5 5.5 0 011.578.23l.41 1.232a4.5 4.5 0 00-6.448 3.434c.094.475.357.95.79 1.426l.17.178h1v12.999h3V44h5v.999h4V43h2v.337a3.486 3.486 0 011.5-.337c.46 0 .9.089 1.303.25l.198.087V43h2v1.999l5 .001h-34v-3.5h3c1.22 0 1.883-2.658 1.985-7.974l.006-.376.008-1.15h1c.611-.611.942-1.222.993-1.833l.007-.167h.09a5.502 5.502 0 015.41-4.5zm21.5-5.5v23h-3l-.007-.145a1.5 1.5 0 00-1.348-1.348l-.144-.007h-6.379a100 100 0 00-4.991.125l-1.247.07-.884.055a3.765 3.765 0 01-3.995-3.564l-.005-.194v-6.2c0-.99-.802-1.792-1.793-1.792a2.504 2.504 0 013.85-.956 8 8 0 102.58-4.98l-.223.208-.205.208a7.505 7.505 0 00-10.474 3.277l-.11.24L531.35 30l-.15.005a2 2 0 00-1.844 1.838l-.006.157-.005.888c-.028 2.594-.183 4.547-.452 5.825-.055.26-.112.481-.168.66l-.042.127h-3.333l-.6-11.746a4.5 4.5 0 00-8.371 1.739l-.02.213-.008.23-.006.064h-1.995v2l-.005.888c-.028 2.594-.183 4.547-.452 5.825-.055.26-.112.481-.168.66l-.042.127h-3.333l-.6-11.746a4.5 4.5 0 00-8.371 1.739l-.02.213-.008.23-.006.064-.15.005a1.995 1.995 0 00-1.839 1.833l-.006.156V32l-.005.888c-.026 2.45.002 3.94.005 5.362v.25l-.007.144a1.5 1.5 0 01-1.348 1.35l-.145.006h-2.438a1.61 1.61 0 00-1.591 1.856l.03.144h-2.05c-.424.009-.503.095-.058-1.595l.107-.405c.581-2.181 2.955-1.91 4.5-5 1-2 .5-5.5 1-8.793.15-.987-.527-1.536-1.177-1.85a2.497 2.497 0 00-.605-.2 5.473 5.473 0 00-.639-.086l-.191-.015-.405-.022a27.38 27.38 0 00-.476-.017l-.265-.006-.584-.008-1.21-.001c-1.594.008-3.71.054-6.35.135l-.536.017-.617.02a3.047 3.047 0 00-2.943 3.047c.016 5.117.159 8.561.447 10.448l.029.183.062.336c.24 1.19 1.801 3.368 2.806 4.622l.154.19h-9.5V20h85zm-12 4a6 6 0 11-5.796 4.445 4.516 4.516 0 00-1.258-1.223l1.554.778 2-1v-1.5l-.262-.174A5.974 5.974 0 01548.35 24z" id="h"/><path id="d" d="M.343 0H85v58H0z"/><path d="M475.35 20h85v58h-85V20zm2 2v54h81V22h-81z" id="n"/><filter x="-12.4%" y="-14.7%" width="122.4%" height="132.8%" filterUnits="objectBoundingBox" id="m"><feOffset dx="-1" dy="1" in="SourceAlpha" result="shadowOffsetOuter1"/><feGaussianBlur stdDeviation="3" in="shadowOffsetOuter1" result="shadowBlurOuter1"/><feColorMatrix values="0 0 0 0 0 0 0 0 0 0 0 0 0 0 0 0 0 0 0.230550699 0" in="shadowBlurOuter1"/></filter><filter x="-12.4%" y="-34%" width="122.4%" height="176%" filterUnits="objectBoundingBox" id="j"><feOffset dx="-1" dy="1" in="SourceAlpha" result="shadowOffsetOuter1"/><feGaussianBlur stdDeviation="3" in="shadowOffsetOuter1" result="shadowBlurOuter1"/><feColorMatrix values="0 0 0 0 0 0 0 0 0 0 0 0 0 0 0 0 0 0 0.230550699 0" in="shadowBlurOuter1"/></filter><filter x="-12.4%" y="-34%" width="122.4%" height="176%" filterUnits="objectBoundingBox" id="g"><feOffset dx="-1" dy="1" in="SourceAlpha" result="shadowOffsetOuter1"/><feGaussianBlur stdDeviation="3" in="shadowOffsetOuter1" result="shadowBlurOuter1"/><feColorMatrix values="0 0 0 0 0 0 0 0 0 0 0 0 0 0 0 0 0 0 0.230550699 0" in="shadowBlurOuter1"/></filter></defs><g transform="translate(0 -9)" fill="none" fill-rule="evenodd"><mask id="b" fill="#fff"><use xlink:href="#a"/></mask><g mask="url(#b)"><path fill="url(#c)" fill-rule="nonzero" d="M475.35 20h85v58h-85z" transform="translate(-469)"/><g transform="translate(6.35 20)"><mask id="f" fill="#fff"><use xlink:href="#d"/></mask><use fill="url(#e)" fill-rule="nonzero" xlink:href="#d"/><g opacity=".603"><g opacity=".148" mask="url(#f)" stroke="#FFF" stroke-linecap="square" stroke-width=".5"><path d="M-256 88l427.5-428.5M-256 91l427.5-428.5M-256 94l427.5-428.5M-256 97l427.5-428.5M-256 100l427.5-428.5M-256 103l427.5-428.5M-256 106l427.5-428.5M-256 109l427.5-428.5M-256 112l427.5-428.5M-256 115l427.5-428.5M-256 118l427.5-428.5M-256 121l427.5-428.5M-256 124l427.5-428.5M-256 127l427.5-428.5M-256 130l427.5-428.5M-256 133l427.5-428.5M-256 136l427.5-428.5M-256 139l427.5-428.5M-256 142l427.5-428.5M-256 145l427.5-428.5M-256 148l427.5-428.5M-256 151l427.5-428.5M-256 154l427.5-428.5M-256 157l427.5-428.5M-256 160l427.5-428.5M-256 163l427.5-428.5M-256 166l427.5-428.5M-256 169l427.5-428.5M-256 172l427.5-428.5M-256 175l427.5-428.5M-256 178l427.5-428.5M-256 181l427.5-428.5M-256 184l427.5-428.5M-256 187l427.5-428.5M-256 190l427.5-428.5M-256 193l427.5-428.5M-256 196l427.5-428.5M-256 199l427.5-428.5M-256 202l427.5-428.5M-256 205l427.5-428.5M-256 208l427.5-428.5M-256 211l427.5-428.5M-256 214l427.5-428.5M-256 217l427.5-428.5M-256 220l427.5-428.5M-256 223l427.5-428.5M-256 226l427.5-428.5M-256 229l427.5-428.5M-256 232l427.5-428.5M-256 235l427.5-428.5M-256 238l427.5-428.5M-256 241l427.5-428.5M-256 244l427.5-428.5M-256 247l427.5-428.5M-256 250l427.5-428.5M-256 253l427.5-428.5M-256 256l427.5-428.5M-256 259l427.5-428.5M-256 262l427.5-428.5M-256 265l427.5-428.5M-256 268l427.5-428.5M-256 271l427.5-428.5M-256 274l427.5-428.5M-256 277l427.5-428.5M-256 280l427.5-428.5M-256 283l427.5-428.5M-256 286l427.5-428.5M-256 289l427.5-428.5M-256 292l427.5-428.5M-256 295l427.5-428.5M-256 298l427.5-428.5M-256 301l427.5-428.5M-256 304l427.5-428.5M-256 307l427.5-428.5M-256 310l427.5-428.5M-256 313l427.5-428.5M-256 316l427.5-428.5M-256 319l427.5-428.5M-256 322l427.5-428.5M-256 325l427.5-428.5M-256 328l427.5-428.5M-256 331L171.5-97.5M-256 334L171.5-94.5M-256 337L171.5-91.5M-256 340L171.5-88.5M-256 343L171.5-85.5M-256 346L171.5-82.5M-256 349L171.5-79.5M-256 352L171.5-76.5M-256 355L171.5-73.5M-256 358L171.5-70.5M-256 361L171.5-67.5M-256 364L171.5-64.5M-256 367L171.5-61.5M-256 370L171.5-58.5M-256 373L171.5-55.5M-256 376L171.5-52.5M-256 379L171.5-49.5M-256 382L171.5-46.5M-256 385L171.5-43.5M-256 388L171.5-40.5M-256 391L171.5-37.5M-256 394L171.5-34.5M-256 397L171.5-31.5M-256 400L171.5-28.5M-256 403L171.5-25.5M-256 406L171.5-22.5M-256 409L171.5-19.5M-256 412L171.5-16.5M-256 415L171.5-13.5M-256 418L171.5-10.5M-256 421L171.5-7.5M-256 424L171.5-4.5M-256 427L171.5-1.5M-256 430L171.5 1.5M-256 433L171.5 4.5M-256 436L171.5 7.5M-256 439L171.5 10.5M-256 442L171.5 13.5M-256 445L171.5 16.5M-256 448L171.5 19.5M-256 451L171.5 22.5M-256 454L171.5 25.5M-256 457L171.5 28.5M-256 460L171.5 31.5M-256 463L171.5 34.5M-256 466L171.5 37.5M-256 469L171.5 40.5M-256 472L171.5 43.5M-256 475L171.5 46.5M-256 478L171.5 49.5M-256 481L171.5 52.5M-256 484L171.5 55.5M-256 487L171.5 58.5M-256 490L171.5 61.5M-256 493L171.5 64.5M-256 496L171.5 67.5M-256 499L171.5 70.5M-256 502L171.5 73.5"/></g></g></g><g fill-rule="nonzero" transform="translate(-469)"><use fill="#000" filter="url(#g)" xlink:href="#h"/><use fill="url(#i)" xlink:href="#h"/></g><g fill-rule="nonzero" transform="matrix(1 0 0 -1 -469 131)"><use fill="#000" filter="url(#j)" xlink:href="#k"/><use fill="url(#l)" xlink:href="#k"/></g><path stroke="#636262" stroke-width=".5" d="M8.6 22.25h80.5v53.5H8.6z"/><g fill-rule="nonzero" transform="translate(-469)"><use fill="#000" filter="url(#m)" xlink:href="#n"/><use fill="url(#o)" xlink:href="#n"/></g><path d="M551.85 43a3.5 3.5 0 013.163 2h5.337v8l-5.337.001a3.5 3.5 0 01-6.326 0L476.917 53l-19.904.001a3.5 3.5 0 01-6.326 0L324.35 53v-8h126.337a3.5 3.5 0 016.326 0h91.674a3.5 3.5 0 013.163-2z" stroke="#636262" stroke-width=".5" fill="url(#p)" fill-rule="nonzero" transform="translate(-469)"/><path d="M86.35 43v4h-2v-4h2zm-5 0v4h-2v-4h2zM86.35 55v-4h-2v4h2zm-5 0v-4h-2v4h2zM11.35 44h5v3h-5zM11.35 51h5v3h-5zM70.35 44h5v3h-5zM70.35 51h5v3h-5z" fill="#0F436B"/><path d="M543.1 80.25v15.5h10.5v-15.5h-10.5z" stroke="#636262" stroke-width=".5" fill="url(#q)" fill-rule="nonzero" transform="rotate(90 313.85 -146.5)"/><path d="M483.6 6.75v15.5h10.5V6.75h-10.5z" stroke="#636262" stroke-width=".5" fill="url(#q)" fill-rule="nonzero" transform="rotate(90 254.35 -220)"/><path d="M495.35 54.25v1c-3.793-.423-5.793.244-6 2-.275 2.34 3.093 2.8 4.551 4.975a6 6 0 11-10.487 3.03 35.841 35.841 0 01-.064-.005c.03-2.474.53-4.474 1.5-6 1.456-2.288 3-4.5 5.5-5a12.625 12.625 0 015 0z" fill="url(#r)" transform="translate(-469)"/><path d="M495.35 26.25v1c-3.793-.423-5.793.244-6 2-.275 2.34 3.093 2.8 4.551 4.975a6 6 0 11-10.487 3.03 35.841 35.841 0 01-.064-.005c.03-2.474.53-4.474 1.5-6 1.456-2.288 3-4.5 5.5-5a12.625 12.625 0 015 0z" fill="url(#r)" transform="matrix(1 0 0 -1 -469 70.136)"/><path d="M505.85 27.5a2.5 2.5 0 012.488 2.25h.012V41a1.5 1.5 0 001.5 1.5v1a2.5 2.5 0 01-2.486-2.238.975.975 0 01-.014-.167V30a1.5 1.5 0 00-3 0c0 .667.333 1.333 1 2h-3c.667-.667 1-1.333 1-2l.005-.164a2.5 2.5 0 012.495-2.336z" fill="url(#s)" transform="translate(-469)"/><path d="M483.6 15.327v19.346l10.5-2.864V18.191l-10.5-2.864z" stroke="#636262" stroke-width=".5" fill="url(#t)" fill-rule="nonzero" transform="rotate(90 254.35 -209.5)"/><path d="M520.85 27.5a2.5 2.5 0 012.488 2.25h.012V41a1.5 1.5 0 001.5 1.5v1a2.5 2.5 0 01-2.486-2.238.975.975 0 01-.014-.167V30a1.5 1.5 0 00-3 0c0 .667.333 1.333 1 2h-3c.667-.667 1-1.333 1-2l.005-.164a2.5 2.5 0 012.495-2.336z" fill="url(#s)" transform="translate(-469)"/><path d="M548.35 24a6 6 0 11-5.796 4.445 4.5 4.5 0 00-8.163 1.951c.104.535.425 1.07.96 1.604h-3c.666-.667 1-1.333 1-2h.09a5.502 5.502 0 019.525-2.649A5.999 5.999 0 01548.35 24z" fill="url(#u)" transform="translate(-469)"/><g stroke-width=".5"><path d="M6 0h5v33.5H6c0-5.333-.667-8-2-8H0v-16h4c1.333 0 2-3.167 2-9.5z" stroke="#636262" fill="url(#v)" fill-rule="nonzero" transform="translate(56.35 32)"/><path stroke="#636262" fill-opacity=".04" fill="#000" opacity=".5" d="M62.35 42.5h5v6h-5zM62.35 48.5h5v6h-5z"/><path stroke="#636262" fill-opacity=".06" fill="#000" opacity=".5" d="M62.35 38.5h5v4h-5zM62.35 54.5h5v4h-5z"/><path stroke="#636262" fill-opacity=".08" fill="#000" opacity=".5" d="M62.35 35.5h5v3h-5zM62.35 58.5h5v3h-5z"/><path stroke="#636262" fill-opacity=".104" fill="#000" opacity=".5" d="M62.35 33.5h5v2h-5z"/><path stroke="#636262" fill-opacity=".1" fill="#000" opacity=".7" d="M62.35 61.5h5V64h-5z"/><path stroke="url(#w)" stroke-linecap="square" d="M1 25.5v-16M2 25.5v-16M3 25.5v-16" transform="translate(56.35 32)"/><path stroke="url(#x)" stroke-linecap="square" d="M4 25.5v-16" transform="translate(56.35 32)"/></g><g stroke-width=".5"><path d="M6 0h5v33.5H6c0-5.333-.667-8-2-8H0v-16h4c1.333 0 2-3.167 2-9.5z" stroke="#636262" fill="url(#v)" fill-rule="nonzero" transform="translate(41.35 32)"/><path stroke="#636262" fill-opacity=".04" fill="#000" opacity=".5" d="M47.35 42.5h5v6h-5zM47.35 48.5h5v6h-5z"/><path stroke="#636262" fill-opacity=".06" fill="#000" opacity=".5" d="M47.35 38.5h5v4h-5zM47.35 54.5h5v4h-5z"/><path stroke="#636262" fill-opacity=".08" fill="#000" opacity=".5" d="M47.35 35.5h5v3h-5zM47.35 58.5h5v3h-5z"/><path stroke="#636262" fill-opacity=".104" fill="#000" opacity=".5" d="M47.35 33.5h5v2h-5z"/><path stroke="#636262" fill-opacity=".1" fill="#000" opacity=".7" d="M47.35 61.5h5V64h-5z"/><path stroke="url(#w)" stroke-linecap="square" d="M1 25.5v-16M2 25.5v-16M3 25.5v-16" transform="translate(41.35 32)"/><path stroke="url(#x)" stroke-linecap="square" d="M4 25.5v-16" transform="translate(41.35 32)"/></g><g stroke-width=".5"><path d="M6 0h5v33.5H6c0-5.333-.667-8-2-8H0v-16h4c1.333 0 2-3.167 2-9.5z" stroke="#636262" fill="url(#v)" fill-rule="nonzero" transform="translate(26.35 32)"/><path stroke="#636262" fill-opacity=".04" fill="#000" opacity=".5" d="M32.35 42.5h5v6h-5zM32.35 48.5h5v6h-5z"/><path stroke="#636262" fill-opacity=".06" fill="#000" opacity=".5" d="M32.35 38.5h5v4h-5zM32.35 54.5h5v4h-5z"/><path stroke="#636262" fill-opacity=".08" fill="#000" opacity=".5" d="M32.35 35.5h5v3h-5zM32.35 58.5h5v3h-5z"/><path stroke="#636262" fill-opacity=".104" fill="#000" opacity=".5" d="M32.35 33.5h5v2h-5z"/><path stroke="#636262" fill-opacity=".1" fill="#000" opacity=".7" d="M32.35 61.5h5V64h-5z"/><path stroke="url(#w)" stroke-linecap="square" d="M1 25.5v-16M2 25.5v-16M3 25.5v-16" transform="translate(26.35 32)"/><path stroke="url(#x)" stroke-linecap="square" d="M4 25.5v-16" transform="translate(26.35 32)"/></g><path d="M505.85 54.5a2.5 2.5 0 012.488 2.25h.012V68a1.5 1.5 0 001.5 1.5v1a2.5 2.5 0 01-2.486-2.238.975.975 0 01-.014-.167V57a1.5 1.5 0 00-3 0c0 .667.333 1.333 1 2h-3c.667-.667 1-1.333 1-2l.005-.164a2.5 2.5 0 012.495-2.336zM520.85 54.5a2.5 2.5 0 012.488 2.25h.012V68a1.5 1.5 0 001.5 1.5v1a2.5 2.5 0 01-2.486-2.238.975.975 0 01-.014-.167V57a1.5 1.5 0 00-3 0c0 .667.333 1.333 1 2h-3c.667-.667 1-1.333 1-2l.005-.164a2.5 2.5 0 012.495-2.336z" fill="url(#s)" transform="matrix(1 0 0 -1 -469 125)"/><path d="M552.85 62.453c.77 1.01 1.5 5.633 1.5 7a6 6 0 01-12 0c0-.37.049-.961.135-1.65a4.5 4.5 0 00-8.095 2.047c.105.534.426 1.069.96 1.603h-3c.667-.667 1-1.333 1-2h.09a5.502 5.502 0 019.236-2.951c.278-1.67.708-3.457 1.174-4.049 1.099-1.394 2.587 1 4.5 1 1.946 0 3.404-2.436 4.5-1z" fill="url(#y)" transform="matrix(1 0 0 -1 -469 137.453)"/><path d="M543.1 68.327v19.346l10.5-2.864V71.191l-10.5-2.864z" stroke="#636262" stroke-width=".5" fill="url(#t)" fill-rule="nonzero" transform="matrix(0 -1 -1 0 157.35 626.35)"/></g></g></svg>