<svg width="56" height="130" xmlns="http://www.w3.org/2000/svg" xmlns:xlink="http://www.w3.org/1999/xlink"><defs><linearGradient x1="50.034%" y1="99.984%" x2="50.034%" y2="-.004%" id="s"><stop stop-color="#8B878D" offset="0%"/><stop stop-color="#9F9CA1" offset="13.66%"/><stop stop-color="#D9D8DA" offset="42.07%"/><stop stop-color="#F3F4F4" offset="51.52%"/><stop stop-color="#807B80" offset="100%"/></linearGradient><linearGradient x1="50.034%" y1="110.504%" x2="50.034%" y2="-7.852%" id="f"><stop stop-color="#383F48" offset="0%"/><stop stop-color="#9FA4A8" offset="46.806%"/><stop stop-color="#3D434B" offset="100%"/></linearGradient><linearGradient x1="50.034%" y1="114.901%" x2="50.034%" y2="-16.677%" id="h"><stop stop-color="#363D43" offset="0%"/><stop stop-color="#82888D" offset="52.238%"/><stop stop-color="#363D43" offset="100%"/></linearGradient><linearGradient x1=".453%" y1="50.403%" x2="99.615%" y2="50.403%" id="l"><stop stop-color="#AFACB1" offset="0%"/><stop stop-color="#BAB9BC" offset="28.499%"/><stop stop-color="#D9D8DA" offset="42.07%"/><stop stop-color="#F3F4F4" offset="58.437%"/><stop stop-color="#958F95" offset="100%"/></linearGradient><linearGradient x1=".453%" y1="50.403%" x2="99.615%" y2="50.403%" id="e"><stop stop-color="#AFACB1" offset="0%"/><stop stop-color="#C2C2C2" offset="47.376%"/><stop stop-color="#958F95" offset="100%"/></linearGradient><linearGradient x1="50.034%" y1="99.984%" x2="50.034%" y2="-.004%" id="q"><stop stop-color="#8B878D" offset="0%"/><stop stop-color="#9F9CA1" offset="13.66%"/><stop stop-color="#D9D8DA" offset="42.07%"/><stop stop-color="#F3F4F4" offset="51.52%"/><stop stop-color="#807B80" offset="100%"/></linearGradient><linearGradient x1="50.034%" y1="99.984%" x2="50.034%" y2="-.004%" id="m"><stop stop-color="#8B878D" offset="0%"/><stop stop-color="#9F9CA1" offset="13.66%"/><stop stop-color="#D9D8DA" offset="42.07%"/><stop stop-color="#F3F4F4" offset="51.52%"/><stop stop-color="#807B80" offset="100%"/></linearGradient><linearGradient x1="50.034%" y1="99.984%" x2="50.034%" y2="-.004%" id="o"><stop stop-color="#8B878D" offset="0%"/><stop stop-color="#9F9CA1" offset="13.66%"/><stop stop-color="#D9D8DA" offset="42.07%"/><stop stop-color="#F3F4F4" offset="51.52%"/><stop stop-color="#807B80" offset="100%"/></linearGradient><path d="M324.85 37h49v45h-49V37zm2 2v41h45V39h-45z" id="k"/><path id="g" d="M.198 0H49v45H0z"/><path d="M315.357 0a6 6 0 015.996 5.775l.004.225v110c0 7.627-6.1 13.83-13.687 13.997l-.313.003h-17c-7.627 0-13.83-6.1-13.996-13.687l-.004-.313v-1.341l-111.802-9.721L152.723 95H79.69L.012 117.23l.36-2.97a410.621 410.621 0 002.985-47.27 347.815 347.815 0 00-2.73-45.26l-.253-1.97L0 16.915 79.644 35h72.511l12.426-9.94 111.776-9.72V6A6 6 0 01281.91.016l.223-.012.225-.004h33zm0 4h-33a2 2 0 00-2 2v13.008L166.134 28.94 153.559 39H79.193L4.703 22.084A351.72 351.72 0 017.357 67.01a414.29 414.29 0 01-2.666 44.762L79.144 91h74.213l.802-.018 12 10.08 114.198 9.93V116c0 5.523 4.477 10 10 10h17c5.523 0 10-4.477 10-10V6a2 2 0 00-2-2z" id="d"/><path id="a" d="M.5 0H56v130H.5z"/><path id="n" d="M0 1L5.886.854v12L0 13z"/><path id="r" d="M0 0h6v20H0z"/><filter x="-21.4%" y="-18.9%" width="138.8%" height="142.2%" filterUnits="objectBoundingBox" id="j"><feOffset dx="-1" dy="1" in="SourceAlpha" result="shadowOffsetOuter1"/><feGaussianBlur stdDeviation="3" in="shadowOffsetOuter1" result="shadowBlurOuter1"/><feColorMatrix values="0 0 0 0 0 0 0 0 0 0 0 0 0 0 0 0 0 0 0.230550699 0" in="shadowBlurOuter1"/></filter><filter x="-3.3%" y="-6.5%" width="105.9%" height="114.6%" filterUnits="objectBoundingBox" id="c"><feOffset dx="-1" dy="1" in="SourceAlpha" result="shadowOffsetOuter1"/><feGaussianBlur stdDeviation="3" in="shadowOffsetOuter1" result="shadowBlurOuter1"/><feColorMatrix values="0 0 0 0 0 0 0 0 0 0 0 0 0 0 0 0 0 0 0.230550699 0" in="shadowBlurOuter1"/></filter></defs><g fill="none" fill-rule="evenodd"><mask id="b" fill="#fff"><use xlink:href="#a"/></mask><g mask="url(#b)"><g fill-rule="nonzero" transform="translate(-321)"><use fill="#000" filter="url(#c)" xlink:href="#d"/><use fill="url(#e)" xlink:href="#d"/></g><path fill="url(#f)" fill-rule="nonzero" d="M324.85 37h49v45h-49z" transform="translate(-321)"/><g transform="translate(3.85 37)"><mask id="i" fill="#fff"><use xlink:href="#g"/></mask><use fill="url(#h)" fill-rule="nonzero" xlink:href="#g"/><g opacity=".603"><g opacity=".148" mask="url(#i)" stroke="#FFF" stroke-linecap="square" stroke-width=".5"><path d="M-313.6 106.118l523.688-516.72M-313.6 109.735l523.688-516.72M-313.6 113.353l523.688-516.72M-313.6 116.97l523.688-516.72M-313.6 120.588l523.688-516.72M-313.6 124.206l523.688-516.72M-313.6 127.823l523.688-516.72M-313.6 131.441l523.688-516.72M-313.6 135.06l523.688-516.722M-313.6 138.676l523.688-516.72M-313.6 142.294l523.688-516.72M-313.6 145.912l523.688-516.72M-313.6 149.53l523.688-516.72M-313.6 153.147l523.688-516.72M-313.6 156.765l523.688-516.72M-313.6 160.382l523.688-516.72M-313.6 164l523.688-516.72M-313.6 167.618l523.688-516.72M-313.6 171.235l523.688-516.72M-313.6 174.853l523.688-516.72M-313.6 178.47l523.688-516.72M-313.6 182.088l523.688-516.72M-313.6 185.706l523.688-516.72M-313.6 189.323l523.688-516.72M-313.6 192.941l523.688-516.72M-313.6 196.56l523.688-516.722M-313.6 200.176l523.688-516.72M-313.6 203.794l523.688-516.72M-313.6 207.412l523.688-516.72M-313.6 211.03l523.688-516.72M-313.6 214.647l523.688-516.72M-313.6 218.265l523.688-516.72M-313.6 221.882l523.688-516.72M-313.6 225.5l523.688-516.72M-313.6 229.118l523.688-516.72M-313.6 232.735l523.688-516.72M-313.6 236.353l523.688-516.72M-313.6 239.97l523.688-516.72M-313.6 243.588l523.688-516.72M-313.6 247.206l523.688-516.72M-313.6 250.823l523.688-516.72M-313.6 254.441l523.688-516.72M-313.6 258.06l523.688-516.722M-313.6 261.676l523.688-516.72M-313.6 265.294l523.688-516.72M-313.6 268.912l523.688-516.72M-313.6 272.53l523.688-516.72M-313.6 276.147l523.688-516.72M-313.6 279.765l523.688-516.72M-313.6 283.382l523.688-516.72M-313.6 287l523.688-516.72M-313.6 290.618l523.688-516.72M-313.6 294.235l523.688-516.72M-313.6 297.853l523.688-516.72M-313.6 301.47l523.688-516.72M-313.6 305.088l523.688-516.72M-313.6 308.706l523.688-516.72M-313.6 312.323l523.688-516.72M-313.6 315.941l523.688-516.72M-313.6 319.56l523.688-516.722M-313.6 323.176l523.688-516.72M-313.6 326.794l523.688-516.72M-313.6 330.412l523.688-516.72M-313.6 334.03l523.688-516.72M-313.6 337.647l523.688-516.72M-313.6 341.265l523.688-516.72M-313.6 344.882l523.688-516.72M-313.6 348.5l523.688-516.72M-313.6 352.118l523.688-516.72M-313.6 355.735l523.688-516.72M-313.6 359.353l523.688-516.72M-313.6 362.97l523.688-516.72M-313.6 366.588l523.688-516.72M-313.6 370.206l523.688-516.72M-313.6 373.823l523.688-516.72M-313.6 377.441l523.688-516.72M-313.6 381.06l523.688-516.722M-313.6 384.676l523.688-516.72M-313.6 388.294l523.688-516.72M-313.6 391.912l523.688-516.72M-313.6 395.53l523.688-516.72M-313.6 399.147l523.688-516.72M-313.6 402.765l523.688-516.72M-313.6 406.382l523.688-516.72M-313.6 410l523.688-516.72M-313.6 413.618l523.688-516.72M-313.6 417.235l523.688-516.72M-313.6 420.853l523.688-516.72M-313.6 424.47L210.088-92.25M-313.6 428.088l523.688-516.72M-313.6 431.706l523.688-516.72M-313.6 435.323l523.688-516.72M-313.6 438.941l523.688-516.72M-313.6 442.56L210.088-74.163M-313.6 446.176l523.688-516.72M-313.6 449.794l523.688-516.72M-313.6 453.412l523.688-516.72M-313.6 457.03L210.088-59.69M-313.6 460.647l523.688-516.72M-313.6 464.265l523.688-516.72M-313.6 467.882l523.688-516.72M-313.6 471.5L210.088-45.22M-313.6 475.118l523.688-516.72M-313.6 478.735l523.688-516.72M-313.6 482.353l523.688-516.72M-313.6 485.97L210.088-30.75M-313.6 489.588l523.688-516.72M-313.6 493.206l523.688-516.72M-313.6 496.823l523.688-516.72M-313.6 500.441l523.688-516.72M-313.6 504.06L210.088-12.663M-313.6 507.676L210.088-9.044M-313.6 511.294L210.088-5.426M-313.6 514.912L210.088-1.808M-313.6 518.53L210.088 1.81M-313.6 522.147L210.088 5.427M-313.6 525.765L210.088 9.045M-313.6 529.382l523.688-516.72M-313.6 533L210.088 16.28M-313.6 536.618l523.688-516.72M-313.6 540.235l523.688-516.72M-313.6 543.853l523.688-516.72M-313.6 547.47L210.088 30.75M-313.6 551.088l523.688-516.72M-313.6 554.706l523.688-516.72M-313.6 558.323l523.688-516.72M-313.6 561.941l523.688-516.72M-313.6 565.56L210.088 48.837M-313.6 569.176l523.688-516.72M-313.6 572.794l523.688-516.72M-313.6 576.412l523.688-516.72M-313.6 580.03L210.088 63.31M-313.6 583.647l523.688-516.72M-313.6 587.265l523.688-516.72M-313.6 590.882l523.688-516.72M-313.6 594.5L210.088 77.78M-313.6 598.118l523.688-516.72M-313.6 601.735l523.688-516.72M-313.6 605.353l523.688-516.72M-313.6 608.97L210.088 92.25"/></g></g></g><g fill-rule="nonzero" transform="translate(-321)"><use fill="#000" filter="url(#j)" xlink:href="#k"/><use fill="url(#l)" xlink:href="#k"/></g><path d="M551.85 43a3.5 3.5 0 013.163 2h5.337v8l-5.337.001a3.5 3.5 0 01-6.326 0L476.917 53l-19.904.001a3.5 3.5 0 01-6.326 0L324.35 53v-8h126.337a3.5 3.5 0 016.326 0h91.674a3.5 3.5 0 013.163-2z" stroke="#636262" stroke-width=".5" fill="url(#m)" fill-rule="nonzero" transform="translate(-321)"/><path fill="#0F436B" d="M7.35 44h5v3h-5zM7.35 51h5v3h-5zM26.35 44h5v3h-5zM26.35 51h5v3h-5z"/><g transform="translate(16.35 42)"><mask id="p" fill="#fff"><use xlink:href="#n"/></mask><use fill="url(#o)" fill-rule="nonzero" xlink:href="#n"/><path fill="#7F7F7F" fill-rule="nonzero" mask="url(#p)" d="M-3.058-3l-.275.354L8.34 12.364l.275-.354zM-3.058-1l-.275.354L8.34 14.364l.275-.354zM-3.058 1l-.275.354L8.34 16.364l.275-.354zM-3.058 3l-.275.354L8.34 18.364l.275-.354zM-3.058 5l-.275.354L8.34 20.364l.275-.354zM-3.058 7l-.275.354L8.34 22.364l.275-.354zM-3.058 9l-.275.354L8.34 24.364l.275-.354zM-3.058 11l-.275.354L8.34 26.364l.275-.354zM-3.058-5l-.275.354L8.34 10.364l.275-.354zM-3.058-7l-.275.354L8.34 8.364l.275-.354zM-3.058-9l-.275.354L8.34 6.364l.275-.354zM-3.058-11l-.275.354L8.34 4.364l.275-.354z"/></g><path stroke="#636262" stroke-width=".5" d="M16.35 43h6v12h-6z"/><path d="M278.5 43l3 4h3.5v-2h7v2h51v-2h7v2a4 4 0 110 8v2h-7v-2h-51v2h-7v-2h-3.5l-3 4h-22l-3-4H243a4 4 0 110-8h10.5l3-4h22z" stroke="#636262" stroke-width=".5" fill="url(#q)" fill-rule="nonzero" transform="translate(-305.65 14)"/><path d="M44.35 59v4h-2v-4h2zm-5 0v4h-2v-4h2zM44.35 67v4h-2v-4h2zm-5 0v4h-2v-4h2zM7.35 60h5v3h-5zM7.35 67h5v3h-5zM26.35 60h5v3h-5zM26.35 67h5v3h-5z" fill="#004C97"/><g transform="translate(16.35 55)"><mask id="t" fill="#fff"><use xlink:href="#r"/></mask><use fill="url(#s)" fill-rule="nonzero" xlink:href="#r"/><path fill="#7F7F7F" fill-rule="nonzero" mask="url(#t)" transform="matrix(-1 0 0 1 5.47 0)" d="M-3.372-1l-.295.354 12.509 15.01.295-.354zM-3.372 1l-.295.354 12.509 15.01.295-.354zM-3.372 3l-.295.354 12.509 15.01.295-.354zM-3.372 5l-.295.354 12.509 15.01.295-.354zM-3.372 7l-.295.354 12.509 15.01.295-.354zM-3.372 9l-.295.354 12.509 15.01.295-.354zM-3.372 11l-.295.354 12.509 15.01.295-.354zM-3.372 13l-.295.354 12.509 15.01.295-.354zM-3.372-3l-.295.354 12.509 15.01.295-.354zM-3.372-5l-.295.354 12.509 15.01.295-.354zM-3.372-7l-.295.354L8.842 8.364l.295-.354zM-3.372-9l-.295.354L8.842 6.364l.295-.354z"/></g><path stroke="#636262" stroke-width=".5" d="M16.35 55h6v20h-6z"/></g></g></svg>