<svg xmlns="http://www.w3.org/2000/svg" width="18" height="18" viewBox="0 0 18 18">
    <g fill="none" fill-rule="evenodd">
        <g>
            <g>
                <g>
                    <g>
                        <path fill="#FFF" d="M6.857 14.998c-.2 0-.394-.069-.548-.196-.363-.302-.414-.84-.112-1.205l.001-.001 3.832-4.584-3.695-4.593c-.298-.367-.242-.905.125-1.203l.003-.003c.355-.312.895-.277 1.207.077l.042.051 4.13 5.132c.26.316.26.77 0 1.086l-4.275 5.132c-.174.21-.438.324-.71.307z" transform="translate(-1067 -114) translate(791 88) translate(270 20) translate(6 6)"/>
                    </g>
                </g>
            </g>
        </g>
    </g>
</svg>
