<svg xmlns="http://www.w3.org/2000/svg" width="24" height="24"><g fill="#FFF" fill-rule="evenodd"><path d="M5 5c0 .256.017.507.05.75h-3.3a.75.75 0 110-1.5l3.3-.001c-.033.242-.05.494-.05.75zm17.25-.75a.75.75 0 110 1.5H9.95a5.591 5.591 0 000-1.501l12.3.001z"/><path fill-rule="nonzero" d="M7.5 1.5a3.25 3.25 0 110 6.5 3.25 3.25 0 010-6.5zm0 1.5a1.75 1.75 0 100 3.5 1.75 1.75 0 000-3.5z"/><path d="M5 19.5c0 .257.017.507.05.75h-3.3a.75.75 0 110-1.5h3.3c-.033.242-.05.493-.05.75zm17.25-.75a.75.75 0 110 1.5H9.95a5.591 5.591 0 000-1.5h12.3z"/><path fill-rule="nonzero" d="M7.5 16a3.25 3.25 0 110 6.5 3.25 3.25 0 010-6.5zm0 1.5a1.75 1.75 0 100 3.5 1.75 1.75 0 000-3.5z"/><path d="M14 12.5c0 .256.017.507.05.75H1.75a.75.75 0 110-1.5l12.3-.001c-.033.242-.05.494-.05.75zm8.25-.75a.75.75 0 110 1.5h-3.3a5.591 5.591 0 000-1.501l3.3.001z"/><path fill-rule="nonzero" d="M16.5 9a3.25 3.25 0 110 6.5 3.25 3.25 0 010-6.5zm0 1.5a1.75 1.75 0 100 3.5 1.75 1.75 0 000-3.5z"/></g></svg>