<svg xmlns="http://www.w3.org/2000/svg" xmlns:xlink="http://www.w3.org/1999/xlink" width="32" height="32"><defs><circle id="a" cx="16" cy="16" r="16"/></defs><g fill="none" fill-rule="evenodd"><mask id="b" fill="#fff"><use xlink:href="#a"/></mask><use fill="#004C97" xlink:href="#a"/><g mask="url(#b)"><path fill="#FFF" d="M0 20h14L0 29z"/><path fill="#EF3340" d="M0 22.202v-3.008L13 19 0 27z"/><path fill="#FFF" d="M-.01 16H13L-.032 24.378z"/><path fill="#FFF" d="M0 20h14L0 29z"/><path fill="#EF3340" d="M0 22.202v-3.008L13 19 0 27z"/><path fill="#FFF" d="M-.01 16H13L-.032 24.378z"/></g><g mask="url(#b)"><path fill="#FFF" d="M32 12H18l14-9z"/><path fill="#EF3340" d="M32 9.798v3.008L19 13l13-8z"/><path fill="#FFF" d="M32.01 16H19l13.032-8.378z"/><path fill="#FFF" d="M32 12H18l14-9z"/><path fill="#EF3340" d="M32 9.798v3.008L19 13l13-8z"/><path fill="#FFF" d="M32.01 16H19l13.032-8.378z"/></g><g mask="url(#b)"><path fill="#FFF" d="M32 20H18l14 10z"/><path fill="#EF3340" d="M32 23.202v-3.008L22 20l10 6z"/></g><g mask="url(#b)"><path fill="#FFF" d="M0 13h14L0 3z"/><path fill="#EF3340" d="M0 9.798v3.008L10 13 0 7z"/></g><path fill="#FFF" d="M21 11h11v10H21v11H11V21H0V11h11V0h10v11z" mask="url(#b)"/><path fill="#EF3340" d="M19 13h13v6H19v13h-6V19H0v-6h13V0h6v13z" mask="url(#b)"/></g></svg>