<svg xmlns="http://www.w3.org/2000/svg" width="34" height="34" viewBox="0 0 34 34">
    <g fill="none" fill-rule="evenodd">
        <g>
            <g>
                <g>
                    <g>
                        <path fill="#FFF" d="M17 2.833C9.176 2.833 2.833 9.176 2.833 17S9.176 31.167 17 31.167 31.167 24.824 31.167 17 24.824 2.833 17 2.833zm0 25.5C10.74 28.333 5.667 23.26 5.667 17 5.667 10.74 10.74 5.667 17 5.667c6.26 0 11.333 5.074 11.333 11.333 0 6.26-5.074 11.333-11.333 11.333zm4.249-5.666c-.296 0-.594-.092-.849-.284l-6.233-4.675V9.917c0-.782.633-1.417 1.416-1.417.784 0 1.417.635 1.417 1.417v6.375l5.1 3.825c.626.469.754 1.357.283 1.983-.279.371-.702.567-1.134.567" transform="translate(-848 -469) translate(158 461) translate(614) translate(76 8)"/>
                    </g>
                </g>
            </g>
        </g>
    </g>
</svg>
