<svg xmlns="http://www.w3.org/2000/svg" xmlns:xlink="http://www.w3.org/1999/xlink" width="30" height="30" viewBox="0 0 30 30">
    <defs>
        <path id="iahe2mo07b" d="M0.466 0.455L9.428 0.455 9.428 12.265 0.466 12.265z"/>
        <path id="nbsdewbsgd" d="M0 0.455L10.843 0.455 10.843 10.849 0 10.849z"/>
        <filter id="ucxa791twa">
            <feColorMatrix in="SourceGraphic" values="0 0 0 0 1.000000 0 0 0 0 1.000000 0 0 0 0 1.000000 0 0 0 1.000000 0"/>
        </filter>
    </defs>
    <g fill="none" fill-rule="evenodd">
        <g>
            <g>
                <g>
                    <g filter="url(#ucxa791twa)" transform="translate(-884 -218) translate(854 188) translate(20 20) translate(10 10)">
                        <g>
                            <g transform="translate(2.5 3.75) translate(7.547 .017)">
                                <mask id="hgphtzwaxc" fill="#fff">
                                    <use xlink:href="#iahe2mo07b"/>
                                </mask>
                                <path fill="#000" d="M9.082 8.129c.461-.46.461-1.207 0-1.668-.46-.46-1.207-.46-1.667 0L6.125 7.75V1.634c0-.651-.527-1.179-1.178-1.179-.651 0-1.18.528-1.18 1.18v6.114L2.48 6.461C2.019 6 1.272 6 .81 6.46c-.46.46-.46 1.207 0 1.668l3.3 3.3.129.128c.39.391 1.024.391 1.414 0L9.082 8.13z" mask="url(#hgphtzwaxc)"/>
                            </g>
                            <path fill="#000" d="M20.513 10.85c-2.116 0-3.538 1.42-3.538 3.537v2.342l-.817-.818c-.46-.46-1.207-.46-1.668 0-.46.461-.46 1.208 0 1.669l2.83 2.829.127.127c.391.39 1.024.39 1.415 0l.126-.126.001-.001 2.83-2.83c.46-.46.46-1.207 0-1.667-.461-.461-1.208-.46-1.668 0l-.817.817v-2.342c0-.816.363-1.18 1.179-1.18h3.296c.651 0 1.179-.527 1.179-1.179 0-.651-.528-1.179-1.18-1.179h-3.295z" transform="translate(2.5 3.75)"/>
                            <g transform="translate(2.5 3.75) translate(0 10.394)">
                                <mask id="xd27o0fure" fill="#fff">
                                    <use xlink:href="#nbsdewbsgd"/>
                                </mask>
                                <path fill="#000" d="M8.013 6.335V3.993c0-2.116-1.422-3.538-3.538-3.538H1.18C.528.455 0 .983 0 1.635c0 .65.529 1.179 1.18 1.179h3.296c.816 0 1.18.364 1.18 1.18v2.34l-.818-.816c-.46-.46-1.207-.46-1.667 0-.461.46-.461 1.207 0 1.668L6 10.015l.127.127c.39.39 1.023.39 1.414 0l.126-.126 2.83-2.83c.461-.46.461-1.208.001-1.668-.46-.46-1.208-.46-1.668 0l-.817.817z" mask="url(#xd27o0fure)"/>
                            </g>
                        </g>
                    </g>
                </g>
            </g>
        </g>
    </g>
</svg>
