<svg xmlns="http://www.w3.org/2000/svg" xmlns:xlink="http://www.w3.org/1999/xlink" width="50" height="50" viewBox="0 0 50 50">
    <defs>
        <path id="oawxzfnh9a" d="M31.608 1.092c-.521.09-1.002.339-1.374.715-.375.37-.625.851-.715 1.37h-4.233c-1.446 0-2.612 1.175-2.621 2.622 0 .951-.767 1.717-1.715 1.717h-7.278c-.948 0-1.717-.766-1.717-1.717 0-1.447-1.174-2.613-2.622-2.622H5.116c-.248-1.4-1.588-2.333-2.991-2.085-1.4.248-2.333 1.59-2.085 2.99.248 1.402 1.582 2.336 2.99 2.088 1.062-.19 1.899-1.026 2.086-2.088H9.35c.95 0 1.717.769 1.717 1.717 0 1.448 1.175 2.623 2.621 2.623h7.277c1.446 0 2.62-1.175 2.62-2.623 0-.948.77-1.717 1.718-1.717h4.217c.25 1.402 1.59 2.336 2.991 2.088 1.401-.25 2.334-1.592 2.085-2.993-.218-1.248-1.31-2.125-2.536-2.125-.15 0-.3.012-.451.04zm-30.22 3.72C.727 4.165.727 3.103 1.38 2.44c.656-.654 1.717-.661 2.372-.005.309.307.482.715.498 1.151v.075c-.007.43-.18.843-.49 1.146-.33.33-.76.494-1.192.494-.427 0-.853-.161-1.18-.487zm29.48 0c-.309-.3-.48-.715-.49-1.144V3.63c0-.015.014-.03.01-.036.02-.927.782-1.658 1.707-1.636.928.023 1.658.783 1.636 1.71-.009.43-.19.844-.49 1.144-.328.329-.757.492-1.187.492-.429 0-.858-.163-1.186-.492z"/>
        <path id="a0un2j26wd" d="M13.68.816c-1.447 0-2.62 1.175-2.62 2.622 0 .95-.768 1.718-1.718 1.718H5.116C4.868 3.753 3.528 2.821 2.125 3.07.725 3.316-.208 4.658.04 6.06.288 7.46 1.628 8.394 3.03 8.146c1.062-.19 1.899-1.018 2.086-2.087H9.35c1.448 0 2.615-1.175 2.621-2.622 0-.947.768-1.717 1.717-1.717h7.277c.95 0 1.717.77 1.717 1.718 0 1.446 1.175 2.614 2.621 2.621h4.217c.25 1.401 1.59 2.335 2.991 2.087 1.41-.25 2.342-1.589 2.094-2.99-.248-1.403-1.59-2.335-2.991-2.087-.52.09-1.002.339-1.368.716-.379.368-.627.852-.715 1.371h-4.235c-.95 0-1.717-.769-1.717-1.718 0-1.447-1.175-2.622-2.621-2.622H13.68zM2.543 7.288c-.43-.008-.844-.19-1.153-.491-.655-.655-.655-1.717 0-2.373.656-.655 1.717-.655 2.371 0 .31.302.483.717.49 1.147v.073c-.023.92-.77 1.644-1.686 1.644h-.022zm28.342-.491c-.31-.307-.481-.715-.492-1.153v-.073c.01-.43.183-.845.492-1.147.656-.646 1.717-.646 2.373.015.639.648.639 1.703-.009 2.358-.328.328-.753.491-1.182.491-.427 0-.854-.163-1.182-.491z"/>
        <path id="b43z0mbnme" d="M13.365.26c-1.335 0-2.516.829-2.983 2.08L8.965 6.142c-.33.89-1.182 1.483-2.132 1.483h-.609c-.113-1.422-1.363-2.476-2.78-2.363-1.416.111-2.479 1.363-2.366 2.78.115 1.422 1.365 2.475 2.78 2.363 1.076-.09 1.98-.834 2.276-1.875h.692c1.334 0 2.516-.829 2.983-2.08l1.408-3.802c.332-.888 1.184-1.483 2.132-1.483h.98c.947 0 1.8.595 2.131 1.483l1.41 3.802c.465 1.243 1.647 2.073 2.982 2.08h.69c.123.43.349.812.656 1.13 1.01 1.008 2.644 1.008 3.646 0 1.001-1.009 1.01-2.644 0-3.646-1.009-1.002-2.62-1.01-3.624-.007-.435.429-.7 1.009-.744 1.618h-.61c-.948 0-1.8-.594-2.133-1.483L17.326 2.34C16.858 1.095 15.677.267 14.344.26h-.98zM2.458 9.026c-.656-.654-.665-1.717-.008-2.373.654-.655 1.717-.662 2.373-.005.361.345.535.835.498 1.324-.008.031-.008.06-.015.1-.054.36-.22.69-.476.947-.328.33-.76.495-1.193.495-.427 0-.854-.162-1.179-.488zm20.396-.007c-.257-.257-.422-.587-.474-.948 0-.03-.008-.06-.014-.099-.076-.918.601-1.732 1.528-1.805.919-.077 1.731.6 1.807 1.526.054.491-.128.974-.474 1.326-.328.328-.758.493-1.187.493-.429 0-.858-.165-1.186-.493z"/>
        <path id="hf374ghpqf" d="M24.682 3.292H6.492c-.22-1.228-1.289-2.125-2.539-2.125-1.423 0-2.576 1.152-2.576 2.576 0 1.424 1.153 2.576 2.576 2.576.684 0 1.34-.27 1.823-.753.377-.37.625-.85.715-1.37h18.18v.007c.22 1.228 1.29 2.123 2.54 2.123 1.424 0 2.582-1.15 2.582-2.574 0-1.426-1.15-2.585-2.574-2.585-1.252 0-2.318.897-2.537 2.125zm.858.48V3.72c.014-.911.76-1.649 1.672-1.649.927 0 1.679.747 1.679 1.672 0 .927-.747 1.68-1.672 1.68-.919 0-1.665-.73-1.68-1.65zM3.922 5.432c-.436-.007-.85-.181-1.158-.49-.656-.655-.656-1.717-.009-2.372.655-.656 1.717-.656 2.373-.008.308.309.481.724.49 1.16v.03c0 .008.005.022.005.03-.014.919-.76 1.651-1.675 1.651l-.026-.001z"/>
        <path id="pia4kunahg" d="M1.84 1.314C.816 2.323.816 3.958 1.825 4.967c1.01 1.01 2.637 1.01 3.645 0 .438-.437.7-1.009.745-1.618h.611c.95 0 1.8.594 2.132 1.484l1.408 3.802c.467 1.243 1.65 2.072 2.983 2.079h.98c1.332 0 2.513-.829 2.982-2.079l1.41-3.802c.33-.89 1.182-1.484 2.131-1.484h.61c.11 1.424 1.363 2.476 2.78 2.363 1.423-.111 2.475-1.361 2.362-2.778-.11-1.425-1.36-2.48-2.778-2.365-1.078.09-1.982.836-2.274 1.875h-.694c-1.332 0-2.516.829-2.983 2.079l-1.408 3.803c-.332.89-1.182 1.485-2.13 1.485h-.981c-.95 0-1.799-.596-2.13-1.485l-1.41-3.803C9.349 3.28 8.166 2.45 6.833 2.444h-.692c-.12-.428-.348-.814-.655-1.13C4.981.81 4.32.557 3.66.557c-.66 0-1.32.252-1.82.757zm21.03 3.012c-.354-.345-.535-.835-.498-1.324.008-.03.008-.061.015-.1.052-.36.219-.692.474-.947.655-.655 1.719-.663 2.372-.009.656.656.665 1.719.01 2.373-.33.33-.764.495-1.194.495-.427 0-.855-.161-1.18-.488zM1.99 3.28c-.083-.928.601-1.731 1.521-1.808.49-.038.97.136 1.327.483.255.255.421.587.473.948 0 .031.01.06.014.099.075.918-.609 1.732-1.527 1.807-.046.003-.092.005-.138.005-.86 0-1.599-.661-1.67-1.534z"/>
        <linearGradient id="usb7u4o9yc" x1="0%" x2="100%" y1="50%" y2="50%">
            <stop offset="0%" stop-color="#1295D4"/>
            <stop offset="20.169%" stop-color="#11A0C4"/>
            <stop offset="100%" stop-color="#0CCE83"/>
        </linearGradient>
    </defs>
    <g fill="none" fill-rule="evenodd">
        <g>
            <g>
                <g>
                    <g>
                        <g transform="translate(-35 -515) translate(-1) translate(36 515) translate(6.25 4.167) translate(1.736 8.123)">
                            <mask id="lguzyaeofb" fill="#fff">
                                <use xlink:href="#oawxzfnh9a"/>
                            </mask>
                            <path fill="#010202" d="M-8.681 17.101L43.318 17.101 43.318 -7.628 -8.681 -7.628z" mask="url(#lguzyaeofb)"/>
                        </g>
                        <path fill="url(#usb7u4o9yc)" d="M19.55 28.35c1.707.006 3.197 1.043 3.798 2.64l1.408 3.806c.192.517.677.875 1.22.915.169-.513.455-.981.842-1.363 1.33-1.332 3.502-1.325 4.847.008 1.344 1.334 1.346 3.521.002 4.872-.647.651-1.51 1.01-2.429 1.012h-.007c-.92 0-1.784-.358-2.437-1.01-.257-.262-.467-.558-.629-.875h-.105c-1.709-.01-3.197-1.047-3.796-2.643l-1.41-3.807c-.204-.547-.734-.917-1.317-.917h-.98c-.584 0-1.112.37-1.317.919l-1.41 3.802c-.59 1.583-2.116 2.646-3.795 2.646h-.107c-.537 1.045-1.589 1.77-2.787 1.871-1.89.144-3.568-1.265-3.719-3.16-.073-.914.216-1.807.815-2.51.597-.705 1.432-1.132 2.347-1.203.92-.089 1.807.213 2.509.809.493.417.85.951 1.045 1.549.545-.039 1.03-.396 1.222-.917l1.417-3.802c.59-1.582 2.116-2.643 3.796-2.643h.978zM8.847 35.984c-.208 0-.415.081-.575.24-.312.312-.309.826.009 1.145.314.315.828.313 1.144-.008.125-.125.205-.283.231-.46l.01-.065c.01-.234-.074-.455-.234-.606-.163-.165-.375-.246-.585-.246zm20.398 0c-.025 0-.046 0-.07.002-.215.017-.408.116-.545.28-.142.164-.208.374-.191.591.036.222.115.38.238.504.309.305.837.305 1.142.003.17-.175.254-.403.23-.621-.021-.238-.12-.433-.284-.57-.147-.123-.331-.19-.52-.19zm-6.55-12.289c1.923 0 3.487 1.566 3.487 3.49 0 .467.382.849.85.849h3.588c.175-.422.432-.81.755-1.124.474-.486 1.128-.828 1.828-.947.901-.164 1.816.04 2.571.566.755.527 1.26 1.315 1.422 2.22v.002c.33 1.871-.924 3.666-2.797 3.996-.203.038-.408.054-.611.054-.698 0-1.38-.212-1.965-.62-.547-.383-.964-.904-1.212-1.507h-3.573c-1.925-.008-3.488-1.576-3.488-3.49 0-.468-.382-.846-.85-.846h-7.275c-.469 0-.849.378-.849.847-.01 1.925-1.574 3.49-3.49 3.49H7.5c-.445 1.067-1.412 1.866-2.58 2.072-.903.16-1.821-.036-2.576-.566-.756-.527-1.26-1.317-1.422-2.224-.16-.906.041-1.82.567-2.574.528-.756 1.316-1.26 2.223-1.42 1.609-.285 3.182.609 3.788 2.07h3.58c.468 0 .849-.381.849-.848 0-1.924 1.564-3.49 3.49-3.49h7.275zM4.307 28.55c-.207 0-.413.08-.57.236-.316.315-.316.83.002 1.146.146.143.35.233.554.236.48-.007.809-.338.825-.786v-.026c-.004-.228-.087-.424-.228-.56-.163-.164-.373-.246-.583-.246zm29.49.007c-.205 0-.41.078-.568.233-.144.142-.23.338-.233.545.004.255.085.446.236.597.314.311.823.316 1.136.002.31-.318.314-.826.007-1.135-.16-.162-.369-.242-.579-.242zm-3.106-11.455c1.9 0 3.443 1.55 3.443 3.453 0 1.898-1.547 3.443-3.452 3.443-1.42 0-2.665-.861-3.187-2.13H10.61c-.175.42-.432.805-.755 1.121-.642.645-1.509 1.002-2.43 1.002-1.898 0-3.443-1.545-3.443-3.444 0-1.898 1.545-3.445 3.442-3.445 1.42 0 2.664.861 3.185 2.125h16.899c.524-1.264 1.764-2.125 3.184-2.125zM7.419 19.748c-.21 0-.418.078-.578.238-.31.314-.307.828.007 1.144.15.15.349.233.563.236.23.03.418-.076.573-.227.137-.132.22-.306.24-.493l-.003-.09c-.003-.23-.086-.43-.234-.577-.156-.155-.361-.23-.568-.23zm23.264-.005c-.434 0-.793.354-.804.79v.014c.007.462.365.812.813.812.443 0 .804-.364.804-.812 0-.443-.365-.804-.813-.804zm5.083-10.815c.756.527 1.26 1.316 1.42 2.223.332 1.87-.916 3.663-2.786 3.996-1.63.292-3.182-.613-3.79-2.073h-3.573c-.467 0-.849.38-.849.85 0 1.923-1.564 3.487-3.49 3.487h-7.274c-1.925 0-3.49-1.564-3.49-3.488 0-.468-.381-.849-.848-.849H7.497c-.444 1.068-1.411 1.865-2.578 2.073h-.001c-1.87.334-3.665-.922-3.997-2.79-.332-1.871.92-3.665 2.79-3.996 1.625-.288 3.182.613 3.786 2.073h3.573c1.926.01 3.49 1.574 3.49 3.49 0 .468.38.848.849.848h7.276c.469 0 .849-.38.849-.849.012-1.927 1.576-3.49 3.49-3.49h3.585c.171-.42.427-.8.755-1.123.486-.494 1.123-.826 1.83-.951.9-.158 1.819.043 2.572.57zM8.87.87c.92 0 1.786.358 2.439 1.01.255.261.467.558.63.876h.104c1.682.008 3.205 1.07 3.795 2.64l1.41 3.81c.203.546.734.916 1.318.916h.979c.583 0 1.115-.37 1.318-.918l1.408-3.804c.59-1.582 2.116-2.644 3.796-2.644h.106c.539-1.047 1.59-1.773 2.79-1.872.93-.076 1.813.214 2.512.81.704.596 1.13 1.431 1.204 2.352.15 1.895-1.268 3.562-3.162 3.711-.92.08-1.812-.217-2.515-.816-.488-.416-.842-.947-1.037-1.543-.545.038-1.028.396-1.222.917l-1.408 3.802c-.594 1.583-2.118 2.646-3.797 2.646h-.98c-1.683-.01-3.206-1.073-3.794-2.643l-1.41-3.807c-.194-.52-.677-.877-1.222-.915-.167.509-.453.977-.839 1.363-1.342 1.344-3.528 1.344-4.873 0-.653-.655-1.012-1.523-1.009-2.446.004-.922.368-1.788 1.03-2.44C7.079 1.23 7.94.871 8.862.87h.007zm24.37 10.3c-.084.08-.148.176-.191.282l.078.089-.132.342c.028.173.104.32.215.432.325.321.837.326 1.155.007.142-.143.23-.347.234-.544.005-.222-.073-.425-.219-.58-.149-.154-.35-.242-.57-.248-.213-.04-.418.073-.57.22zm-29.507.008c-.155.158-.24.363-.238.581.003.212.087.41.238.558.32.32.833.316 1.15-.002.15-.146.233-.342.237-.545-.007-.25-.092-.448-.243-.597-.313-.316-.827-.311-1.144.005zm5.057-7.66c-.212.017-.405.116-.542.28-.137.163-.201.37-.184.584.02.22.12.412.283.553.167.138.384.217.59.189.441-.037.771-.427.735-.872-.035-.22-.115-.38-.238-.503-.167-.162-.401-.252-.644-.231zm19.896.23c-.125.126-.204.284-.23.46l-.01.067c-.01.227.078.453.241.613.318.317.835.317 1.151-.004.313-.312.31-.826-.008-1.142-.308-.307-.839-.3-1.144.007z" transform="translate(-35 -515) translate(-1) translate(36 515) translate(6.25 4.167)"/>
                        <g transform="translate(-35 -515) translate(-1) translate(36 515) translate(6.25 4.167) translate(1.736 23.748)"/>
                        <g transform="translate(-35 -515) translate(-1) translate(36 515) translate(6.25 4.167) translate(5.208 28.956)"/>
                        <g transform="translate(-35 -515) translate(-1) translate(36 515) translate(6.25 4.167) translate(3.472 16.804)"/>
                        <g transform="translate(-35 -515) translate(-1) translate(36 515) translate(6.25 4.167) translate(5.208 1.179)"/>
                    </g>
                </g>
            </g>
        </g>
    </g>
</svg>
