<svg xmlns="http://www.w3.org/2000/svg" width="50" height="50" viewBox="0 0 50 50">
    <g fill="none" fill-rule="evenodd">
        <g>
            <g>
                <g>
                    <path fill="#ffffff" d="M23.958 0l.342.003C34.997.186 43.643 8.948 43.75 19.8l-.005.411c-.34 13.592-17.321 28.545-18.179 29.189-.925.8-2.29.8-3.216 0l-.027-.024C21.261 48.445 4.167 33.363 4.167 19.8 4.275 8.832 13.105 0 23.958 0zm0 10c-4.782 0-8.659 3.917-8.659 8.75 0 4.832 3.877 8.75 8.66 8.75l.26-.004c4.661-.139 8.398-4.001 8.398-8.746l-.004-.263c-.137-4.71-3.96-8.487-8.655-8.487zm2.624 6.098c1.45 1.465 1.45 3.84 0 5.304-1.449 1.464-3.798 1.464-5.248 0-1.449-1.465-1.449-3.84 0-5.304 1.45-1.464 3.8-1.464 5.248 0z" transform="translate(-1328 -905) translate(85 132) translate(1243 773)"/>
                </g>
            </g>
        </g>
    </g>
</svg>
