<?xml version="1.0" encoding="UTF-8"?>
<svg width="24px" height="24px" viewBox="0 0 24 24" version="1.1" xmlns="http://www.w3.org/2000/svg" xmlns:xlink="http://www.w3.org/1999/xlink">
    <title>Icon/Plus</title>
    <g id="Icon/Plus" stroke="none" stroke-width="1" fill="none" fill-rule="evenodd">
        <polygon id="Bounding-Box" opacity="0" fill-rule="nonzero" points="0 0 24 0 24 24 0 24"></polygon>
        <path d="M19.8749999,10.8749999 L13.125,10.8749999 L13.125,4.12499999 L13.125,4.12499999 C13.125,3.50367937 12.6213206,3 12,3 C11.3786793,3 10.875,3.50367937 10.875,4.12499999 L10.875,10.8749999 L4.12500004,10.8749999 L4.12499999,10.8749999 C3.50367937,10.875 3,11.3786793 3,12 C3,12.6213205 3.50367937,13.1249999 4.12499999,13.1249999 L10.8749999,13.1249999 L10.8749999,19.8749998 L10.8749999,19.875 C10.875,20.4963206 11.3786793,21 12,21 C12.6213205,21 13.1249999,20.4963206 13.1249999,19.875 L13.1249999,13.1250001 L19.8749998,13.1250001 L19.8749998,13.1250001 C20.4963204,13.1250001 21,12.6213207 21,12 C21,11.3786795 20.4963204,10.8750001 19.8749998,10.8750001 L19.8749999,10.8749999 Z" id="Fill" fill="#083853"></path>
    </g>
</svg>